<?xml version="1.0" encoding="UTF-8" standalone="no"?><svg xmlns="http://www.w3.org/2000/svg" xmlns:xlink="http://www.w3.org/1999/xlink" contentScriptType="application/ecmascript" contentStyleType="text/css" height="449px" preserveAspectRatio="none" style="width:265px;height:449px;" version="1.1" viewBox="0 0 265 449" width="265px" zoomAndPan="magnify"><defs><filter height="300%" id="f1db2gwh0mhrx0" width="300%" x="-1" y="-1"><feGaussianBlur result="blurOut" stdDeviation="2.0"/><feColorMatrix in="blurOut" result="blurOut2" type="matrix" values="0 0 0 0 0 0 0 0 0 0 0 0 0 0 0 0 0 0 .4 0"/><feOffset dx="4.0" dy="4.0" in="blurOut2" result="blurOut3"/><feBlend in="SourceGraphic" in2="blurOut3" mode="normal"/></filter></defs><g><ellipse cx="131" cy="18" fill="#000000" filter="url(#f1db2gwh0mhrx0)" rx="10" ry="10" style="stroke: none; stroke-width: 1.0;"/><rect fill="#FEFECE" filter="url(#f1db2gwh0mhrx0)" height="50" rx="12.5" ry="12.5" style="stroke: #A80036; stroke-width: 1.5;" width="110" x="6" y="88"/><line style="stroke: #A80036; stroke-width: 1.5;" x1="6" x2="116" y1="114.2969" y2="114.2969"/><text fill="#000000" font-family="sans-serif" font-size="14" lengthAdjust="spacingAndGlyphs" textLength="90" x="16" y="105.9951">FromBuilding</text><rect fill="#FEFECE" filter="url(#f1db2gwh0mhrx0)" height="50" rx="12.5" ry="12.5" style="stroke: #A80036; stroke-width: 1.5;" width="102" x="151" y="88"/><line style="stroke: #A80036; stroke-width: 1.5;" x1="151" x2="253" y1="114.2969" y2="114.2969"/><text fill="#000000" font-family="sans-serif" font-size="14" lengthAdjust="spacingAndGlyphs" textLength="82" x="161" y="105.9951">FromBorder</text><rect fill="#FEFECE" filter="url(#f1db2gwh0mhrx0)" height="50" rx="12.5" ry="12.5" style="stroke: #A80036; stroke-width: 1.5;" width="52" x="105" y="198"/><line style="stroke: #A80036; stroke-width: 1.5;" x1="105" x2="157" y1="224.2969" y2="224.2969"/><text fill="#000000" font-family="sans-serif" font-size="14" lengthAdjust="spacingAndGlyphs" textLength="32" x="115" y="215.9951">Walk</text><rect fill="#FEFECE" filter="url(#f1db2gwh0mhrx0)" height="50" rx="12.5" ry="12.5" style="stroke: #A80036; stroke-width: 1.5;" width="93" x="22.5" y="308"/><line style="stroke: #A80036; stroke-width: 1.5;" x1="22.5" x2="115.5" y1="334.2969" y2="334.2969"/><text fill="#000000" font-family="sans-serif" font-size="14" lengthAdjust="spacingAndGlyphs" textLength="73" x="32.5" y="325.9951">ToBuilding</text><rect fill="#FEFECE" filter="url(#f1db2gwh0mhrx0)" height="50" rx="12.5" ry="12.5" style="stroke: #A80036; stroke-width: 1.5;" width="85" x="150.5" y="308"/><line style="stroke: #A80036; stroke-width: 1.5;" x1="150.5" x2="235.5" y1="334.2969" y2="334.2969"/><text fill="#000000" font-family="sans-serif" font-size="14" lengthAdjust="spacingAndGlyphs" textLength="65" x="160.5" y="325.9951">ToBorder</text><ellipse cx="131" cy="428" fill="none" filter="url(#f1db2gwh0mhrx0)" rx="10" ry="10" style="stroke: #000000; stroke-width: 1.0;"/><ellipse cx="131.5" cy="428.5" fill="#000000" rx="6" ry="6" style="stroke: none; stroke-width: 1.0;"/><!--link *start to FromBuilding--><path d="M125.0318,26.0996 C115.71,38.7507 97.2376,63.8204 82.5194,83.7951 " fill="none" id="*start-FromBuilding" style="stroke: #A80036; stroke-width: 1.0;"/><polygon fill="#A80036" points="79.4403,87.9739,87.9993,83.1012,82.4063,83.9486,81.5589,78.3556,79.4403,87.9739" style="stroke: #A80036; stroke-width: 1.0;"/><!--link *start to FromBorder--><path d="M137.0534,26.0996 C146.5084,38.7507 165.2447,63.8204 180.1732,83.7951 " fill="none" id="*start-FromBorder" style="stroke: #A80036; stroke-width: 1.0;"/><polygon fill="#A80036" points="183.2963,87.9739,181.1125,78.3702,180.3031,83.9688,174.7044,83.1594,183.2963,87.9739" style="stroke: #A80036; stroke-width: 1.0;"/><!--link FromBuilding to Walk--><path d="M77.0594,138.2362 C87.5528,154.7258 101.2966,176.3233 112.2848,193.5903 " fill="none" id="FromBuilding-Walk" style="stroke: #A80036; stroke-width: 1.0;"/><polygon fill="#A80036" points="115.0153,197.8812,113.558,188.1408,112.3309,193.6629,106.8087,192.4358,115.0153,197.8812" style="stroke: #A80036; stroke-width: 1.0;"/><!--link FromBorder to Walk--><path d="M185.7112,138.2362 C175.0679,154.7258 161.1277,176.3233 149.9826,193.5903 " fill="none" id="FromBorder-Walk" style="stroke: #A80036; stroke-width: 1.0;"/><polygon fill="#A80036" points="147.213,197.8812,155.4545,192.4889,149.9246,193.6803,148.7331,188.1504,147.213,197.8812" style="stroke: #A80036; stroke-width: 1.0;"/><!--link Walk to ToBuilding--><path d="M116.7759,248.2362 C107.5606,264.5861 95.5148,285.9576 85.8243,303.1504 " fill="none" id="Walk-ToBuilding" style="stroke: #A80036; stroke-width: 1.0;"/><polygon fill="#A80036" points="83.1579,307.8812,91.0617,302.005,85.613,303.5255,84.0926,298.0768,83.1579,307.8812" style="stroke: #A80036; stroke-width: 1.0;"/><!--link Walk to ToBorder--><path d="M145.2241,248.2362 C154.4394,264.5861 166.4852,285.9576 176.1757,303.1504 " fill="none" id="Walk-ToBorder" style="stroke: #A80036; stroke-width: 1.0;"/><polygon fill="#A80036" points="178.8421,307.8812,177.9074,298.0768,176.387,303.5255,170.9383,302.005,178.8421,307.8812" style="stroke: #A80036; stroke-width: 1.0;"/><!--link ToBuilding to *end--><path d="M85.6149,358.4583 C97.4742,376.6298 112.9426,400.3313 122.4136,414.8434 " fill="none" id="ToBuilding-*end" style="stroke: #A80036; stroke-width: 1.0;"/><polygon fill="#A80036" points="125.3817,419.3913,123.8125,409.6683,122.649,415.2041,117.1131,414.0406,125.3817,419.3913" style="stroke: #A80036; stroke-width: 1.0;"/><!--link ToBorder to *end--><path d="M176.3851,358.4583 C164.5258,376.6298 149.0574,400.3313 139.5864,414.8434 " fill="none" id="ToBorder-*end" style="stroke: #A80036; stroke-width: 1.0;"/><polygon fill="#A80036" points="136.6183,419.3913,144.8869,414.0406,139.351,415.2041,138.1875,409.6683,136.6183,419.3913" style="stroke: #A80036; stroke-width: 1.0;"/></g></svg>