<?xml version="1.0" encoding="UTF-8" standalone="no"?><svg xmlns="http://www.w3.org/2000/svg" xmlns:xlink="http://www.w3.org/1999/xlink" contentScriptType="application/ecmascript" contentStyleType="text/css" height="999px" preserveAspectRatio="none" style="width:412px;height:999px;" version="1.1" viewBox="0 0 412 999" width="412px" zoomAndPan="magnify"><defs><filter height="300%" id="fg0k246f101gf" width="300%" x="-1" y="-1"><feGaussianBlur result="blurOut" stdDeviation="2.0"/><feColorMatrix in="blurOut" result="blurOut2" type="matrix" values="0 0 0 0 0 0 0 0 0 0 0 0 0 0 0 0 0 0 .4 0"/><feOffset dx="4.0" dy="4.0" in="blurOut2" result="blurOut3"/><feBlend in="SourceGraphic" in2="blurOut3" mode="normal"/></filter></defs><g><ellipse cx="206" cy="18" fill="#000000" filter="url(#fg0k246f101gf)" rx="10" ry="10" style="stroke: none; stroke-width: 1.0;"/><rect fill="#FEFECE" filter="url(#fg0k246f101gf)" height="50" rx="12.5" ry="12.5" style="stroke: #A80036; stroke-width: 1.5;" width="110" x="151" y="88"/><line style="stroke: #A80036; stroke-width: 1.5;" x1="151" x2="261" y1="114.2969" y2="114.2969"/><text fill="#000000" font-family="sans-serif" font-size="14" lengthAdjust="spacingAndGlyphs" textLength="90" x="161" y="105.9951">FromBuilding</text><rect fill="#FEFECE" filter="url(#fg0k246f101gf)" height="50" rx="12.5" ry="12.5" style="stroke: #A80036; stroke-width: 1.5;" width="61" x="175.5" y="198"/><line style="stroke: #A80036; stroke-width: 1.5;" x1="175.5" x2="236.5" y1="224.2969" y2="224.2969"/><text fill="#000000" font-family="sans-serif" font-size="14" lengthAdjust="spacingAndGlyphs" textLength="41" x="185.5" y="215.9951">Walk1</text><rect fill="#FEFECE" filter="url(#fg0k246f101gf)" height="50" rx="12.5" ry="12.5" style="stroke: #A80036; stroke-width: 1.5;" width="109" x="151.5" y="308"/><line style="stroke: #A80036; stroke-width: 1.5;" x1="151.5" x2="260.5" y1="334.2969" y2="334.2969"/><text fill="#000000" font-family="sans-serif" font-size="14" lengthAdjust="spacingAndGlyphs" textLength="89" x="161.5" y="325.9951">ToParkedCar</text><rect fill="#FEFECE" filter="url(#fg0k246f101gf)" height="50" rx="12.5" ry="12.5" style="stroke: #A80036; stroke-width: 1.5;" width="55" x="178.5" y="528"/><line style="stroke: #A80036; stroke-width: 1.5;" x1="178.5" x2="233.5" y1="554.2969" y2="554.2969"/><text fill="#000000" font-family="sans-serif" font-size="14" lengthAdjust="spacingAndGlyphs" textLength="35" x="188.5" y="545.9951">Drive</text><rect fill="#FEFECE" filter="url(#fg0k246f101gf)" height="50" rx="12.5" ry="12.5" style="stroke: #A80036; stroke-width: 1.5;" width="85" x="147.5" y="638"/><line style="stroke: #A80036; stroke-width: 1.5;" x1="147.5" x2="232.5" y1="664.2969" y2="664.2969"/><text fill="#000000" font-family="sans-serif" font-size="14" lengthAdjust="spacingAndGlyphs" textLength="65" x="157.5" y="655.9951">ToBorder</text><rect fill="#FEFECE" filter="url(#fg0k246f101gf)" height="50" rx="12.5" ry="12.5" style="stroke: #A80036; stroke-width: 1.5;" width="133" x="267.5" y="638"/><line style="stroke: #A80036; stroke-width: 1.5;" x1="267.5" x2="400.5" y1="664.2969" y2="664.2969"/><text fill="#000000" font-family="sans-serif" font-size="14" lengthAdjust="spacingAndGlyphs" textLength="113" x="277.5" y="655.9951">ParkSomewhere</text><rect fill="#FEFECE" filter="url(#fg0k246f101gf)" height="50" rx="12.5" ry="12.5" style="stroke: #A80036; stroke-width: 1.5;" width="61" x="259.5" y="748"/><line style="stroke: #A80036; stroke-width: 1.5;" x1="259.5" x2="320.5" y1="774.2969" y2="774.2969"/><text fill="#000000" font-family="sans-serif" font-size="14" lengthAdjust="spacingAndGlyphs" textLength="41" x="269.5" y="765.9951">Walk2</text><rect fill="#FEFECE" filter="url(#fg0k246f101gf)" height="50" rx="12.5" ry="12.5" style="stroke: #A80036; stroke-width: 1.5;" width="93" x="243.5" y="858"/><line style="stroke: #A80036; stroke-width: 1.5;" x1="243.5" x2="336.5" y1="884.2969" y2="884.2969"/><text fill="#000000" font-family="sans-serif" font-size="14" lengthAdjust="spacingAndGlyphs" textLength="73" x="253.5" y="875.9951">ToBuilding</text><rect fill="#FEFECE" filter="url(#fg0k246f101gf)" height="50" rx="12.5" ry="12.5" style="stroke: #A80036; stroke-width: 1.5;" width="68" x="296" y="308"/><line style="stroke: #A80036; stroke-width: 1.5;" x1="296" x2="364" y1="334.2969" y2="334.2969"/><text fill="#000000" font-family="sans-serif" font-size="14" lengthAdjust="spacingAndGlyphs" textLength="48" x="306" y="325.9951">ToBike</text><rect fill="#FEFECE" filter="url(#fg0k246f101gf)" height="50" rx="12.5" ry="12.5" style="stroke: #A80036; stroke-width: 1.5;" width="50" x="305" y="528"/><line style="stroke: #A80036; stroke-width: 1.5;" x1="305" x2="355" y1="554.2969" y2="554.2969"/><text fill="#000000" font-family="sans-serif" font-size="14" lengthAdjust="spacingAndGlyphs" textLength="30" x="315" y="545.9951">Bike</text><rect fill="#FEFECE" filter="url(#fg0k246f101gf)" height="50" rx="12.5" ry="12.5" style="stroke: #A80036; stroke-width: 1.5;" width="106" x="10" y="308"/><line style="stroke: #A80036; stroke-width: 1.5;" x1="10" x2="116" y1="334.2969" y2="334.2969"/><text fill="#000000" font-family="sans-serif" font-size="14" lengthAdjust="spacingAndGlyphs" textLength="86" x="20" y="325.9951">ToBusStop1</text><rect fill="#FEFECE" filter="url(#fg0k246f101gf)" height="50" rx="12.5" ry="12.5" style="stroke: #A80036; stroke-width: 1.5;" width="98" x="14" y="418"/><line style="stroke: #A80036; stroke-width: 1.5;" x1="14" x2="112" y1="444.2969" y2="444.2969"/><text fill="#000000" font-family="sans-serif" font-size="14" lengthAdjust="spacingAndGlyphs" textLength="78" x="24" y="435.9951">WaitForBus</text><rect fill="#FEFECE" filter="url(#fg0k246f101gf)" height="50" rx="12.5" ry="12.5" style="stroke: #A80036; stroke-width: 1.5;" width="78" x="24" y="528"/><line style="stroke: #A80036; stroke-width: 1.5;" x1="24" x2="102" y1="554.2969" y2="554.2969"/><text fill="#000000" font-family="sans-serif" font-size="14" lengthAdjust="spacingAndGlyphs" textLength="58" x="34" y="545.9951">RideBus</text><rect fill="#FEFECE" filter="url(#fg0k246f101gf)" height="50" rx="12.5" ry="12.5" style="stroke: #A80036; stroke-width: 1.5;" width="106" x="6" y="638"/><line style="stroke: #A80036; stroke-width: 1.5;" x1="6" x2="112" y1="664.2969" y2="664.2969"/><text fill="#000000" font-family="sans-serif" font-size="14" lengthAdjust="spacingAndGlyphs" textLength="86" x="16" y="655.9951">ToBusStop2</text><ellipse cx="240" cy="978" fill="none" filter="url(#fg0k246f101gf)" rx="10" ry="10" style="stroke: #000000; stroke-width: 1.0;"/><ellipse cx="240.5" cy="978.5" fill="#000000" rx="6" ry="6" style="stroke: none; stroke-width: 1.0;"/><!--link *start to FromBuilding--><path d="M206,28.1667 C206,41.0299 206,63.7608 206,82.4572 " fill="none" id="*start-FromBuilding" style="stroke: #A80036; stroke-width: 1.0;"/><polygon fill="#A80036" points="206,87.612,210,78.612,206,82.612,202,78.612,206,87.612" style="stroke: #A80036; stroke-width: 1.0;"/><!--link FromBuilding to Walk1--><path d="M206,138.2362 C206,154.4464 206,175.5926 206,192.7087 " fill="none" id="FromBuilding-Walk1" style="stroke: #A80036; stroke-width: 1.0;"/><polygon fill="#A80036" points="206,197.8812,210,188.8812,206,192.8812,202,188.8812,206,197.8812" style="stroke: #A80036; stroke-width: 1.0;"/><!--link Walk1 to ToParkedCar--><path d="M206,248.2362 C206,264.4464 206,285.5926 206,302.7087 " fill="none" id="Walk1-ToParkedCar" style="stroke: #A80036; stroke-width: 1.0;"/><polygon fill="#A80036" points="206,307.8812,210,298.8812,206,302.8812,202,298.8812,206,307.8812" style="stroke: #A80036; stroke-width: 1.0;"/><!--link ToParkedCar to Drive--><path d="M206,358.2368 C206,398.9079 206,478.8055 206,522.567 " fill="none" id="ToParkedCar-Drive" style="stroke: #A80036; stroke-width: 1.0;"/><polygon fill="#A80036" points="206,527.7196,210,518.7196,206,522.7196,202,518.7196,206,527.7196" style="stroke: #A80036; stroke-width: 1.0;"/><!--link Drive to ToBorder--><path d="M202.3293,578.2362 C199.9714,594.4464 196.8956,615.5926 194.406,632.7087 " fill="none" id="Drive-ToBorder" style="stroke: #A80036; stroke-width: 1.0;"/><polygon fill="#A80036" points="193.6536,637.8812,198.9076,629.5508,194.3734,632.9333,190.991,628.3991,193.6536,637.8812" style="stroke: #A80036; stroke-width: 1.0;"/><!--link Drive to ParkSomewhere--><path d="M233.7741,576.8684 C253.4322,593.7621 279.8894,616.4987 300.6845,634.3695 " fill="none" id="Drive-ParkSomewhere" style="stroke: #A80036; stroke-width: 1.0;"/><polygon fill="#A80036" points="304.4986,637.6473,300.2799,628.7477,300.7065,634.3885,295.0658,634.8151,304.4986,637.6473" style="stroke: #A80036; stroke-width: 1.0;"/><!--link ParkSomewhere to Walk2--><path d="M323.9055,688.2362 C317.3656,704.5861 308.817,725.9576 301.9398,743.1504 " fill="none" id="ParkSomewhere-Walk2" style="stroke: #A80036; stroke-width: 1.0;"/><polygon fill="#A80036" points="300.0475,747.8812,307.104,741.0105,301.9045,743.2388,299.6762,738.0393,300.0475,747.8812" style="stroke: #A80036; stroke-width: 1.0;"/><!--link Walk2 to ToBuilding--><path d="M290,798.2362 C290,814.4464 290,835.5926 290,852.7087 " fill="none" id="Walk2-ToBuilding" style="stroke: #A80036; stroke-width: 1.0;"/><polygon fill="#A80036" points="290,857.8812,294,848.8812,290,852.8812,286,848.8812,290,857.8812" style="stroke: #A80036; stroke-width: 1.0;"/><!--link Walk1 to ToBike--><path d="M234.4481,248.2362 C253.3515,265.0053 278.2096,287.0569 297.8327,304.4645 " fill="none" id="Walk1-ToBike" style="stroke: #A80036; stroke-width: 1.0;"/><polygon fill="#A80036" points="301.6843,307.8812,297.6063,298.9163,297.944,304.563,292.2972,304.9008,301.6843,307.8812" style="stroke: #A80036; stroke-width: 1.0;"/><!--link ToBike to Bike--><path d="M330,358.2368 C330,398.9079 330,478.8055 330,522.567 " fill="none" id="ToBike-Bike" style="stroke: #A80036; stroke-width: 1.0;"/><polygon fill="#A80036" points="330,527.7196,334,518.7196,330,522.7196,326,518.7196,330,527.7196" style="stroke: #A80036; stroke-width: 1.0;"/><!--link Bike to ToBorder--><path d="M304.9708,572.6658 C283.0378,589.8989 250.8901,615.1578 226.1613,634.5875 " fill="none" id="Bike-ToBorder" style="stroke: #A80036; stroke-width: 1.0;"/><polygon fill="#A80036" points="221.9475,637.8984,231.4956,635.4832,225.8791,634.8093,226.553,629.1927,221.9475,637.8984" style="stroke: #A80036; stroke-width: 1.0;"/><!--link Bike to ParkSomewhere--><path d="M330.9177,578.2362 C331.5071,594.4464 332.2761,615.5926 332.8985,632.7087 " fill="none" id="Bike-ParkSomewhere" style="stroke: #A80036; stroke-width: 1.0;"/><polygon fill="#A80036" points="333.0866,637.8812,336.7569,628.7418,332.9049,632.8845,328.7621,629.0325,333.0866,637.8812" style="stroke: #A80036; stroke-width: 1.0;"/><!--link Walk1 to ToBusStop1--><path d="M175.3229,246.5978 C153.1354,263.6651 123.0607,286.7995 99.615,304.8346 " fill="none" id="Walk1-ToBusStop1" style="stroke: #A80036; stroke-width: 1.0;"/><polygon fill="#A80036" points="95.6153,307.9113,105.1877,305.5942,99.5784,304.8627,100.3099,299.2533,95.6153,307.9113" style="stroke: #A80036; stroke-width: 1.0;"/><!--link ToBusStop1 to WaitForBus--><path d="M63,358.2362 C63,374.4464 63,395.5926 63,412.7087 " fill="none" id="ToBusStop1-WaitForBus" style="stroke: #A80036; stroke-width: 1.0;"/><polygon fill="#A80036" points="63,417.8812,67,408.8812,63,412.8812,59,408.8812,63,417.8812" style="stroke: #A80036; stroke-width: 1.0;"/><!--link WaitForBus to RideBus--><path d="M63,468.2362 C63,484.4464 63,505.5926 63,522.7087 " fill="none" id="WaitForBus-RideBus" style="stroke: #A80036; stroke-width: 1.0;"/><polygon fill="#A80036" points="63,527.8812,67,518.8812,63,522.8812,59,518.8812,63,527.8812" style="stroke: #A80036; stroke-width: 1.0;"/><!--link RideBus to ToBorder--><path d="M92.1364,578.2362 C111.4971,595.0053 136.9566,617.0569 157.0545,634.4645 " fill="none" id="RideBus-ToBorder" style="stroke: #A80036; stroke-width: 1.0;"/><polygon fill="#A80036" points="160.9992,637.8812,156.8149,628.9654,157.2197,634.6077,151.5774,635.0125,160.9992,637.8812" style="stroke: #A80036; stroke-width: 1.0;"/><!--link RideBus to ToBusStop2--><path d="M62.0823,578.2362 C61.4929,594.4464 60.7239,615.5926 60.1015,632.7087 " fill="none" id="RideBus-ToBusStop2" style="stroke: #A80036; stroke-width: 1.0;"/><polygon fill="#A80036" points="59.9134,637.8812,64.2379,629.0325,60.0951,632.8845,56.2431,628.7418,59.9134,637.8812" style="stroke: #A80036; stroke-width: 1.0;"/><!--link ToBusStop2 to Walk2--><path d="M111.7065,688.0983 C155.5959,708.998 216.8655,738.174 254.9496,756.3093 " fill="none" id="ToBusStop2-Walk2" style="stroke: #A80036; stroke-width: 1.0;"/><polygon fill="#A80036" points="259.4763,758.4649,253.0704,750.984,254.962,756.3152,249.6308,758.2068,259.4763,758.4649" style="stroke: #A80036; stroke-width: 1.0;"/><!--link ToBuilding to *end--><path d="M276.6009,908.4583 C267.1409,926.4323 254.8333,949.8167 247.1753,964.3669 " fill="none" id="ToBuilding-*end" style="stroke: #A80036; stroke-width: 1.0;"/><polygon fill="#A80036" points="244.7673,968.9421,252.4988,962.841,247.0961,964.5176,245.4196,959.1149,244.7673,968.9421" style="stroke: #A80036; stroke-width: 1.0;"/><!--link ToBorder to *end--><path d="M193.255,688.1094 C199.1134,732.5542 212.1216,827.9402 226,908 C229.289,926.9734 233.7428,948.7014 236.7359,962.8511 " fill="none" id="ToBorder-*end" style="stroke: #A80036; stroke-width: 1.0;"/><polygon fill="#A80036" points="237.8444,968.0611,239.8838,958.4257,236.8038,963.1706,232.059,960.0906,237.8444,968.0611" style="stroke: #A80036; stroke-width: 1.0;"/></g></svg>