<?xml version="1.0" encoding="UTF-8" standalone="no"?><svg xmlns="http://www.w3.org/2000/svg" xmlns:xlink="http://www.w3.org/1999/xlink" contentScriptType="application/ecmascript" contentStyleType="text/css" height="669px" preserveAspectRatio="none" style="width:410px;height:669px;" version="1.1" viewBox="0 0 410 669" width="410px" zoomAndPan="magnify"><defs><filter height="300%" id="f1bdstva34fvi1" width="300%" x="-1" y="-1"><feGaussianBlur result="blurOut" stdDeviation="2.0"/><feColorMatrix in="blurOut" result="blurOut2" type="matrix" values="0 0 0 0 0 0 0 0 0 0 0 0 0 0 0 0 0 0 .4 0"/><feOffset dx="4.0" dy="4.0" in="blurOut2" result="blurOut3"/><feBlend in="SourceGraphic" in2="blurOut3" mode="normal"/></filter></defs><g><ellipse cx="188.5" cy="18" fill="#000000" filter="url(#f1bdstva34fvi1)" rx="10" ry="10" style="stroke: none; stroke-width: 1.0;"/><rect fill="#FEFECE" filter="url(#f1bdstva34fvi1)" height="50" rx="12.5" ry="12.5" style="stroke: #A80036; stroke-width: 1.5;" width="102" x="137.5" y="88"/><line style="stroke: #A80036; stroke-width: 1.5;" x1="137.5" x2="239.5" y1="114.2969" y2="114.2969"/><text fill="#000000" font-family="sans-serif" font-size="14" lengthAdjust="spacingAndGlyphs" textLength="82" x="147.5" y="105.9951">FromBorder</text><rect fill="#FEFECE" filter="url(#f1bdstva34fvi1)" height="50" rx="12.5" ry="12.5" style="stroke: #A80036; stroke-width: 1.5;" width="52" x="90.5" y="418"/><line style="stroke: #A80036; stroke-width: 1.5;" x1="90.5" x2="142.5" y1="444.2969" y2="444.2969"/><text fill="#000000" font-family="sans-serif" font-size="14" lengthAdjust="spacingAndGlyphs" textLength="32" x="100.5" y="435.9951">Walk</text><rect fill="#FEFECE" filter="url(#f1bdstva34fvi1)" height="50" rx="12.5" ry="12.5" style="stroke: #A80036; stroke-width: 1.5;" width="93" x="70" y="528"/><line style="stroke: #A80036; stroke-width: 1.5;" x1="70" x2="163" y1="554.2969" y2="554.2969"/><text fill="#000000" font-family="sans-serif" font-size="14" lengthAdjust="spacingAndGlyphs" textLength="73" x="80" y="545.9951">ToBuilding</text><ellipse cx="166.5" cy="648" fill="none" filter="url(#f1bdstva34fvi1)" rx="10" ry="10" style="stroke: #000000; stroke-width: 1.0;"/><ellipse cx="167" cy="648.5" fill="#000000" rx="6" ry="6" style="stroke: none; stroke-width: 1.0;"/><rect fill="#FEFECE" filter="url(#f1bdstva34fvi1)" height="50" rx="12.5" ry="12.5" style="stroke: #A80036; stroke-width: 1.5;" width="85" x="174" y="308"/><line style="stroke: #A80036; stroke-width: 1.5;" x1="174" x2="259" y1="334.2969" y2="334.2969"/><text fill="#000000" font-family="sans-serif" font-size="14" lengthAdjust="spacingAndGlyphs" textLength="65" x="184" y="325.9951">ToBorder</text><rect fill="#FEFECE" filter="url(#f1bdstva34fvi1)" height="50" rx="12.5" ry="12.5" style="stroke: #A80036; stroke-width: 1.5;" width="55" x="73" y="198"/><line style="stroke: #A80036; stroke-width: 1.5;" x1="73" x2="128" y1="224.2969" y2="224.2969"/><text fill="#000000" font-family="sans-serif" font-size="14" lengthAdjust="spacingAndGlyphs" textLength="35" x="83" y="215.9951">Drive</text><rect fill="#FEFECE" filter="url(#f1bdstva34fvi1)" height="50" rx="12.5" ry="12.5" style="stroke: #A80036; stroke-width: 1.5;" width="133" x="6" y="308"/><line style="stroke: #A80036; stroke-width: 1.5;" x1="6" x2="139" y1="334.2969" y2="334.2969"/><text fill="#000000" font-family="sans-serif" font-size="14" lengthAdjust="spacingAndGlyphs" textLength="113" x="16" y="325.9951">ParkSomewhere</text><rect fill="#FEFECE" filter="url(#f1bdstva34fvi1)" height="50" rx="12.5" ry="12.5" style="stroke: #A80036; stroke-width: 1.5;" width="50" x="163.5" y="198"/><line style="stroke: #A80036; stroke-width: 1.5;" x1="163.5" x2="213.5" y1="224.2969" y2="224.2969"/><text fill="#000000" font-family="sans-serif" font-size="14" lengthAdjust="spacingAndGlyphs" textLength="30" x="173.5" y="215.9951">Bike</text><rect fill="#FEFECE" filter="url(#f1bdstva34fvi1)" height="50" rx="12.5" ry="12.5" style="stroke: #A80036; stroke-width: 1.5;" width="78" x="248.5" y="198"/><line style="stroke: #A80036; stroke-width: 1.5;" x1="248.5" x2="326.5" y1="224.2969" y2="224.2969"/><text fill="#000000" font-family="sans-serif" font-size="14" lengthAdjust="spacingAndGlyphs" textLength="58" x="258.5" y="215.9951">RideBus</text><rect fill="#FEFECE" filter="url(#f1bdstva34fvi1)" height="50" rx="12.5" ry="12.5" style="stroke: #A80036; stroke-width: 1.5;" width="104" x="294.5" y="308"/><line style="stroke: #A80036; stroke-width: 1.5;" x1="294.5" x2="398.5" y1="334.2969" y2="334.2969"/><text fill="#000000" font-family="sans-serif" font-size="14" lengthAdjust="spacingAndGlyphs" textLength="84" x="304.5" y="325.9951">AlightAtStop</text><!--link *start to FromBorder--><path d="M188.5,28.1667 C188.5,41.0299 188.5,63.7608 188.5,82.4572 " fill="none" id="*start-FromBorder" style="stroke: #A80036; stroke-width: 1.0;"/><polygon fill="#A80036" points="188.5,87.612,192.5,78.612,188.5,82.612,184.5,78.612,188.5,87.612" style="stroke: #A80036; stroke-width: 1.0;"/><!--link Walk to ToBuilding--><path d="M116.5,468.2362 C116.5,484.4464 116.5,505.5926 116.5,522.7087 " fill="none" id="Walk-ToBuilding" style="stroke: #A80036; stroke-width: 1.0;"/><polygon fill="#A80036" points="116.5,527.8812,120.5,518.8812,116.5,522.8812,112.5,518.8812,116.5,527.8812" style="stroke: #A80036; stroke-width: 1.0;"/><!--link ToBuilding to *end--><path d="M129.8991,578.4583 C139.3591,596.4323 151.6667,619.8167 159.3247,634.3669 " fill="none" id="ToBuilding-*end" style="stroke: #A80036; stroke-width: 1.0;"/><polygon fill="#A80036" points="161.7327,638.9421,161.0804,629.1149,159.4039,634.5176,154.0012,632.841,161.7327,638.9421" style="stroke: #A80036; stroke-width: 1.0;"/><!--link ToBorder to *end--><path d="M213.245,358.1094 C207.3866,402.5542 194.3784,497.9402 180.5,578 C177.211,596.9734 172.7572,618.7014 169.7641,632.8511 " fill="none" id="ToBorder-*end" style="stroke: #A80036; stroke-width: 1.0;"/><polygon fill="#A80036" points="168.6556,638.0611,174.441,630.0906,169.6962,633.1706,166.6162,628.4257,168.6556,638.0611" style="stroke: #A80036; stroke-width: 1.0;"/><!--link FromBorder to Drive--><path d="M168.311,138.2362 C155.1193,154.7258 137.8414,176.3233 124.0277,193.5903 " fill="none" id="FromBorder-Drive" style="stroke: #A80036; stroke-width: 1.0;"/><polygon fill="#A80036" points="120.595,197.8812,129.3408,193.3522,123.7185,193.9769,123.0938,188.3546,120.595,197.8812" style="stroke: #A80036; stroke-width: 1.0;"/><!--link Drive to ToBorder--><path d="M127.1127,248.2362 C144.6492,264.8656 167.6637,286.6897 185.9481,304.0284 " fill="none" id="Drive-ToBorder" style="stroke: #A80036; stroke-width: 1.0;"/><polygon fill="#A80036" points="190.0111,307.8812,186.2328,298.7859,186.383,304.4408,180.7281,304.5909,190.0111,307.8812" style="stroke: #A80036; stroke-width: 1.0;"/><!--link Drive to ParkSomewhere--><path d="M94.0762,248.2362 C89.95,264.4464 84.5673,285.5926 80.2105,302.7087 " fill="none" id="Drive-ParkSomewhere" style="stroke: #A80036; stroke-width: 1.0;"/><polygon fill="#A80036" points="78.8939,307.8812,84.9904,300.1461,80.1273,303.0357,77.2376,298.1726,78.8939,307.8812" style="stroke: #A80036; stroke-width: 1.0;"/><!--link ParkSomewhere to Walk--><path d="M82.5945,358.2362 C89.1344,374.5861 97.683,395.9576 104.5602,413.1504 " fill="none" id="ParkSomewhere-Walk" style="stroke: #A80036; stroke-width: 1.0;"/><polygon fill="#A80036" points="106.4525,417.8812,106.8238,408.0393,104.5955,413.2388,99.396,411.0105,106.4525,417.8812" style="stroke: #A80036; stroke-width: 1.0;"/><!--link FromBorder to Bike--><path d="M188.5,138.2362 C188.5,154.4464 188.5,175.5926 188.5,192.7087 " fill="none" id="FromBorder-Bike" style="stroke: #A80036; stroke-width: 1.0;"/><polygon fill="#A80036" points="188.5,197.8812,192.5,188.8812,188.5,192.8812,184.5,188.8812,188.5,197.8812" style="stroke: #A80036; stroke-width: 1.0;"/><!--link Bike to ToBorder--><path d="M194.9238,248.2362 C199.05,264.4464 204.4327,285.5926 208.7895,302.7087 " fill="none" id="Bike-ToBorder" style="stroke: #A80036; stroke-width: 1.0;"/><polygon fill="#A80036" points="210.1061,307.8812,211.7624,298.1726,208.8727,303.0357,204.0096,300.1461,210.1061,307.8812" style="stroke: #A80036; stroke-width: 1.0;"/><!--link Bike to ParkSomewhere--><path d="M163.3297,246.8684 C145.5885,263.692 121.7366,286.3101 102.927,304.1468 " fill="none" id="Bike-ParkSomewhere" style="stroke: #A80036; stroke-width: 1.0;"/><polygon fill="#A80036" points="99.2356,307.6473,108.5186,304.357,102.8637,304.2069,103.0139,298.552,99.2356,307.6473" style="stroke: #A80036; stroke-width: 1.0;"/><!--link FromBorder to RideBus--><path d="M211.2126,138.2362 C226.179,154.8656 245.8207,176.6897 261.4255,194.0284 " fill="none" id="FromBorder-RideBus" style="stroke: #A80036; stroke-width: 1.0;"/><polygon fill="#A80036" points="264.8931,197.8812,261.8455,188.5157,261.5482,194.1648,255.8992,193.8675,264.8931,197.8812" style="stroke: #A80036; stroke-width: 1.0;"/><!--link RideBus to ToBorder--><path d="M271.2112,248.2362 C260.5679,264.7258 246.6277,286.3233 235.4826,303.5903 " fill="none" id="RideBus-ToBorder" style="stroke: #A80036; stroke-width: 1.0;"/><polygon fill="#A80036" points="232.713,307.8812,240.9545,302.4889,235.4246,303.6803,234.2331,298.1504,232.713,307.8812" style="stroke: #A80036; stroke-width: 1.0;"/><!--link RideBus to AlightAtStop--><path d="M301.0358,248.2362 C309.8053,264.5861 321.2682,285.9576 330.4898,303.1504 " fill="none" id="RideBus-AlightAtStop" style="stroke: #A80036; stroke-width: 1.0;"/><polygon fill="#A80036" points="333.0272,307.8812,332.2981,298.0594,330.6638,303.475,325.2482,301.8408,333.0272,307.8812" style="stroke: #A80036; stroke-width: 1.0;"/><!--link AlightAtStop to Walk--><path d="M294.3094,357.9607 C249.0264,379.6178 185.0007,410.2388 147.4109,428.2165 " fill="none" id="AlightAtStop-Walk" style="stroke: #A80036; stroke-width: 1.0;"/><polygon fill="#A80036" points="142.5117,430.5596,152.3567,430.2848,147.0223,428.4022,148.9049,423.0678,142.5117,430.5596" style="stroke: #A80036; stroke-width: 1.0;"/></g></svg>