<svg width="34" height="29" viewBox="0 0 34 29" fill="none" xmlns="http://www.w3.org/2000/svg">
<path d="M21.6927 5.51395C23.2091 5.51395 24.4497 4.27331 24.4497 2.75697C24.4497 1.24064 23.2091 0 21.6927 0C20.1764 0 18.9357 1.24064 18.9357 2.75697C18.9357 4.27331 20.1764 5.51395 21.6927 5.51395ZM7.21861 14.4741C3.35884 14.4741 0.326172 17.5068 0.326172 21.3665C0.326172 25.2263 3.35884 28.259 7.21861 28.259C11.0784 28.259 14.111 25.2263 14.111 21.3665C14.111 17.5068 11.0784 14.4741 7.21861 14.4741ZM7.21861 26.1913C4.59948 26.1913 2.3939 23.9857 2.3939 21.3665C2.3939 18.7474 4.59948 16.5418 7.21861 16.5418C9.83773 16.5418 12.0433 18.7474 12.0433 21.3665C12.0433 23.9857 9.83773 26.1913 7.21861 26.1913ZM15.2138 12.4064L18.5222 9.09801L19.625 10.2008C21.417 11.9928 23.7605 13.0956 26.6553 13.0956V10.3387C24.5875 10.3387 22.9334 9.51156 21.6927 8.27092L19.0736 5.6518C18.3844 5.1004 17.6951 4.8247 16.868 4.8247C16.0409 4.8247 15.3517 5.1004 14.9381 5.6518L11.0784 9.51156C10.527 10.063 10.2513 10.7522 10.2513 11.4414C10.2513 12.2685 10.527 12.9578 11.0784 13.3713L15.4895 17.2311V24.1235H18.2465V15.5769L15.2138 12.4064ZM26.5174 14.4741C22.6577 14.4741 19.625 17.5068 19.625 21.3665C19.625 25.2263 22.6577 28.259 26.5174 28.259C30.3772 28.259 33.4099 25.2263 33.4099 21.3665C33.4099 17.5068 30.3772 14.4741 26.5174 14.4741ZM26.5174 26.1913C23.8983 26.1913 21.6927 23.9857 21.6927 21.3665C21.6927 18.7474 23.8983 16.5418 26.5174 16.5418C29.1366 16.5418 31.3421 18.7474 31.3421 21.3665C31.3421 23.9857 29.1366 26.1913 26.5174 26.1913Z" fill="#F2F2F2"/>
</svg>
