<svg width="26" height="30" viewBox="0 0 26 30" fill="none" xmlns="http://www.w3.org/2000/svg">
<path d="M26 13C26 18.4045 22.702 23.0388 18.0088 25C14.5 26.4663 14 29.5 13 29.5C12 29.5 11.5 26.4663 7.9912 25C3.29797 23.0388 0 18.4045 0 13C0 5.8203 5.8203 0 13 0C20.1797 0 26 5.8203 26 13Z" fill="#D63220"/>
<circle cx="13" cy="13" r="11.5" stroke="#F2F2F2"/>
<path d="M17.6133 7.69438C17.48 7.28875 17.1067 7 16.6667 7H9.33333C8.89333 7 8.52667 7.28875 8.38667 7.69438L7 11.8125V17.3125C7 17.6906 7.3 18 7.66667 18H8.33333C8.7 18 9 17.6906 9 17.3125V16.625H17V17.3125C17 17.6906 17.3 18 17.6667 18H18.3333C18.7 18 19 17.6906 19 17.3125V11.8125L17.6133 7.69438ZM9.33333 14.5625C8.78 14.5625 8.33333 14.1019 8.33333 13.5312C8.33333 12.9606 8.78 12.5 9.33333 12.5C9.88667 12.5 10.3333 12.9606 10.3333 13.5312C10.3333 14.1019 9.88667 14.5625 9.33333 14.5625ZM16.6667 14.5625C16.1133 14.5625 15.6667 14.1019 15.6667 13.5312C15.6667 12.9606 16.1133 12.5 16.6667 12.5C17.22 12.5 17.6667 12.9606 17.6667 13.5312C17.6667 14.1019 17.22 14.5625 16.6667 14.5625ZM8.33333 11.125L9.33333 8.03125H16.6667L17.6667 11.125H8.33333Z" fill="#F2F2F2"/>
</svg>
