<svg width="14" height="21" viewBox="0 0 14 21" fill="none" xmlns="http://www.w3.org/2000/svg">
<path d="M7 19.8175C6.85507 19.6366 6.68691 19.4238 6.50071 19.1829C5.85378 18.3459 4.99226 17.1747 4.1321 15.836C3.27063 14.4954 2.41901 12.9999 1.78482 11.5135C1.14672 10.018 0.751344 8.58331 0.751344 7.35C0.751344 3.66649 3.57908 0.751344 7 0.751344C10.4209 0.751344 13.2487 3.66649 13.2487 7.35C13.2487 8.58331 12.8533 10.018 12.2152 11.5135C11.581 12.9999 10.7294 14.4954 9.8679 15.836C9.00774 17.1747 8.14622 18.3459 7.49929 19.1829C7.31309 19.4238 7.14493 19.6366 7 19.8175ZM3.74866 7.35C3.74866 9.17899 5.17092 10.7263 7 10.7263C8.82908 10.7263 10.2513 9.17899 10.2513 7.35C10.2513 5.52101 8.82908 3.97366 7 3.97366C5.17092 3.97366 3.74866 5.52101 3.74866 7.35Z" fill="#5B5B5B" stroke="white" stroke-width="1.50269" stroke-linejoin="bevel"/>
</svg>
