<svg width="30" height="30" viewBox="0 0 30 30" fill="none" xmlns="http://www.w3.org/2000/svg">
<circle cx="15" cy="15" r="13" fill="#F2F2F2" stroke="#D6D6D6" stroke-width="4"/>
<path d="M11.19 10.2H15.194C16.286 10.2 17.0793 10.4473 17.574 10.942C18.078 11.4367 18.33 12.062 18.33 12.818C18.33 13.7513 17.91 14.4233 17.07 14.834C17.6113 15.03 18.0127 15.338 18.274 15.758C18.5447 16.1687 18.68 16.6167 18.68 17.102C18.68 17.886 18.4093 18.5673 17.868 19.146C17.336 19.7153 16.5147 20 15.404 20H11.19V10.2ZM14.97 14.148C15.5113 14.148 15.922 14.0407 16.202 13.826C16.4913 13.6113 16.636 13.3173 16.636 12.944C16.636 12.1507 16.1693 11.754 15.236 11.754H12.87V14.148H14.97ZM15.502 18.446C16.0247 18.446 16.398 18.32 16.622 18.068C16.8553 17.8067 16.972 17.4987 16.972 17.144C16.972 16.1827 16.3467 15.702 15.096 15.702H12.87V18.446H15.502Z" fill="#2A2A2A"/>
</svg>
