<svg width="26" height="30" viewBox="0 0 26 30" fill="none" xmlns="http://www.w3.org/2000/svg">
<path d="M26 13C26 18.4045 22.702 23.0388 18.0088 25C14.5 26.4663 14 29.5 13 29.5C12 29.5 11.5 26.4663 7.9912 25C3.29797 23.0388 0 18.4045 0 13C0 5.8203 5.8203 0 13 0C20.1797 0 26 5.8203 26 13Z" fill="#4E30A6"/>
<circle cx="13" cy="13" r="11.5" stroke="#F2F2F2"/>
<path d="M13.8462 7H9V19H11.7692V15H13.8462C16.1377 15 18 13.2067 18 11C18 8.79333 16.1377 7 13.8462 7ZM13.9846 12.3333H11.7692V9.66667H13.9846C14.7462 9.66667 15.3692 10.2667 15.3692 11C15.3692 11.7333 14.7462 12.3333 13.9846 12.3333Z" fill="white"/>
</svg>
