<svg width="23" height="27" viewBox="0 0 23 27" fill="none" xmlns="http://www.w3.org/2000/svg">
<path d="M0.678711 19.2988C0.678711 20.5119 1.21632 21.6009 2.0572 22.3591V24.8128C2.0572 25.5709 2.67752 26.1913 3.43568 26.1913H4.81417C5.57234 26.1913 6.19266 25.5709 6.19266 24.8128V23.4343H17.2206V24.8128C17.2206 25.5709 17.8409 26.1913 18.599 26.1913H19.9775C20.7357 26.1913 21.356 25.5709 21.356 24.8128V22.3591C22.1969 21.6009 22.7345 20.5119 22.7345 19.2988V5.51395C22.7345 0.689243 17.7995 0 11.7066 0C5.61369 0 0.678711 0.689243 0.678711 5.51395V19.2988ZM5.50342 20.6773C4.35927 20.6773 3.43568 19.7537 3.43568 18.6096C3.43568 17.4654 4.35927 16.5418 5.50342 16.5418C6.64756 16.5418 7.57115 17.4654 7.57115 18.6096C7.57115 19.7537 6.64756 20.6773 5.50342 20.6773ZM17.9098 20.6773C16.7657 20.6773 15.8421 19.7537 15.8421 18.6096C15.8421 17.4654 16.7657 16.5418 17.9098 16.5418C19.0539 16.5418 19.9775 17.4654 19.9775 18.6096C19.9775 19.7537 19.0539 20.6773 17.9098 20.6773ZM19.9775 12.4064H3.43568V5.51395H19.9775V12.4064Z" fill="#F2F2F2"/>
</svg>
