<svg width="30" height="30" viewBox="0 0 30 30" fill="none" xmlns="http://www.w3.org/2000/svg">
<path d="M20.4545 0C17.1818 0 14.2909 1.65 12.5727 4.15909C12.5864 4.14545 12.5864 4.13182 12.6 4.11818C12.0545 4.09091 11.4818 4.09091 10.9091 4.09091C4.88182 4.09091 0 4.77273 0 9.54545V23.1818C0 24.3818 0.531818 25.4591 1.36364 26.2091V28.6364C1.36364 29.3864 1.97727 30 2.72727 30H4.09091C4.84091 30 5.45455 29.3864 5.45455 28.6364V27.2727H16.3636V28.6364C16.3636 29.3864 16.9773 30 17.7273 30H19.0909C19.8409 30 20.4545 29.3864 20.4545 28.6364V26.2091C21.2864 25.4591 21.8182 24.3818 21.8182 23.1818V18.9818C26.4409 18.3136 30 14.3591 30 9.54545C30 4.26818 25.7318 0 20.4545 0ZM4.77273 24.5455C3.64091 24.5455 2.72727 23.6318 2.72727 22.5C2.72727 21.3682 3.64091 20.4545 4.77273 20.4545C5.90455 20.4545 6.81818 21.3682 6.81818 22.5C6.81818 23.6318 5.90455 24.5455 4.77273 24.5455ZM2.72727 16.3636V9.54545H10.9091C10.9091 12.2182 12.0136 14.6318 13.7864 16.3636H2.72727ZM17.0455 24.5455C15.9136 24.5455 15 23.6318 15 22.5C15 21.3682 15.9136 20.4545 17.0455 20.4545C18.1773 20.4545 19.0909 21.3682 19.0909 22.5C19.0909 23.6318 18.1773 24.5455 17.0455 24.5455ZM20.4545 16.3636C16.6909 16.3636 13.6364 13.3091 13.6364 9.54545C13.6364 5.78182 16.6909 2.72727 20.4545 2.72727C24.2182 2.72727 27.2727 5.78182 27.2727 9.54545C27.2727 13.3091 24.2182 16.3636 20.4545 16.3636ZM21.1364 4.09091H19.0909V10.9091L24.0273 13.8545L25.05 12.1773L21.1364 9.88636V4.09091Z" fill="white"/>
</svg>
