<svg width="26" height="30" viewBox="0 0 26 30" fill="none" xmlns="http://www.w3.org/2000/svg">
<path d="M26 13C26 18.4045 22.702 23.0388 18.0088 25C14.5 26.4663 14 29.5 13 29.5C12 29.5 11.5 26.4663 7.9912 25C3.29797 23.0388 0 18.4045 0 13C0 5.8203 5.8203 0 13 0C20.1797 0 26 5.8203 26 13Z" fill="#DF8C3D"/>
<circle cx="13" cy="13" r="11.5" stroke="#F2F2F2"/>
<path d="M13.6154 8.60465C14.2923 8.60465 14.8462 8.0186 14.8462 7.30233C14.8462 6.58605 14.2923 6 13.6154 6C12.9385 6 12.3846 6.58605 12.3846 7.30233C12.3846 8.0186 12.9385 8.60465 13.6154 8.60465ZM11.3385 10.8186L9.61538 20H10.9077L12.0154 14.7907L13.3077 16.093V20H14.5385V15.1163L13.2462 13.814L13.6154 11.8605C14.4154 12.8372 15.6462 13.4884 17 13.4884V12.186C15.8308 12.186 14.8462 11.5349 14.3538 10.6233L13.7385 9.5814C13.4923 9.1907 13.1231 8.93023 12.6923 8.93023C12.5077 8.93023 12.3846 8.99535 12.2 8.99535L9 10.4279V13.4884H10.2308V11.2744L11.3385 10.8186Z" fill="#F2F2F2"/>
</svg>
