<?xml version="1.0" encoding="UTF-8" standalone="no"?>
<svg
   xmlns:dc="http://purl.org/dc/elements/1.1/"
   xmlns:cc="http://creativecommons.org/ns#"
   xmlns:rdf="http://www.w3.org/1999/02/22-rdf-syntax-ns#"
   xmlns:svg="http://www.w3.org/2000/svg"
   xmlns="http://www.w3.org/2000/svg"
   xmlns:xlink="http://www.w3.org/1999/xlink"
   xmlns:sodipodi="http://sodipodi.sourceforge.net/DTD/sodipodi-0.dtd"
   xmlns:inkscape="http://www.inkscape.org/namespaces/inkscape"
   version="1.1"
   id="Frame_2"
   x="0px"
   y="0px"
   viewBox="0 0 388.11 223.36"
   style="enable-background:new 0 0 388.11 223.36;"
   xml:space="preserve"
   sodipodi:docname="bike2.svg"
   inkscape:version="1.0.1 (1.0.1+r75)"><metadata
   id="metadata188"><rdf:RDF><cc:Work
       rdf:about=""><dc:format>image/svg+xml</dc:format><dc:type
         rdf:resource="http://purl.org/dc/dcmitype/StillImage" /></cc:Work></rdf:RDF></metadata><defs
   id="defs186" /><sodipodi:namedview
   pagecolor="#ffffff"
   bordercolor="#666666"
   borderopacity="1"
   objecttolerance="10"
   gridtolerance="10"
   guidetolerance="10"
   inkscape:pageopacity="0"
   inkscape:pageshadow="2"
   inkscape:window-width="1920"
   inkscape:window-height="960"
   id="namedview184"
   showgrid="false"
   inkscape:zoom="3.2387726"
   inkscape:cx="194.05499"
   inkscape:cy="111.68"
   inkscape:window-x="0"
   inkscape:window-y="27"
   inkscape:window-maximized="1"
   inkscape:current-layer="Frame_2"
   inkscape:document-rotation="0" />
<style
   type="text/css"
   id="style2">
	.st0{fill:#939598;}
	.st1{fill:#231F20;}
	.st2{fill:#BA131F;stroke:#8C1313;stroke-width:0.25;stroke-miterlimit:10;}
	.st3{fill:#414042;}
	.st4{fill:#6D6E71;}
	.st5{fill:#353535;}
	.st6{fill:#F7CA33;stroke:#D3A52A;stroke-width:0.25;stroke-miterlimit:10;}
	.st7{stroke:#000000;stroke-width:10;stroke-miterlimit:10;}
	.st8{fill:#BB8C61;}
	.st9{fill:#8E6442;}
	.st10{clip-path:url(#SVGID_1_);fill:#BB8C61;}
	.st11{clip-path:url(#SVGID_1_);fill:#9B7353;}
	.st12{clip-path:url(#SVGID_1_);}
	.st13{fill:#8B5E3C;}
	.st14{fill:#ED001D;stroke:#8C1313;stroke-width:0.5;stroke-miterlimit:10;}
	.st15{fill:#FFF5DC;stroke:#CEC8BA;stroke-width:0.5;stroke-miterlimit:10;}
	.st16{fill:#ED001D;stroke:#8C1313;stroke-miterlimit:10;}
	.st17{fill:#FFFBF0;}
	.st18{fill:#CEC8BA;}
	.st19{fill:#FFE1D9;stroke:#CEC8BA;stroke-width:0.5;stroke-miterlimit:10;}
	.st20{fill:#FFE1D9;}
	.st21{fill:#FCB1A2;}
	.st22{fill:#FFFBF0;stroke:#CEC8BA;stroke-width:0.5;stroke-miterlimit:10;}
	.st23{fill:#ED001D;}
	.st24{fill:#8C1313;}
</style>
<symbol
   id="Novo_símbolo_1"
   viewBox="-46.88 -26.8 93.75 53.6">
	<g
   id="g14">
		<rect
   x="26.68"
   y="-3.06"
   class="st0"
   width="3.69"
   height="6.19"
   id="rect4" />
		<path
   class="st1"
   d="M40.65-1.59H16.39c-0.89,0-1.62,0.73-1.62,1.62v0c0,0.89,0.73,1.62,1.62,1.62h24.26    c0.89,0,1.62-0.73,1.62-1.62v0C42.27-0.86,41.55-1.59,40.65-1.59z"
   id="path6" />
		<g
   id="g12">
			<path
   class="st2"
   d="M30.4,3.48c-0.01,0-0.02,0-0.02,0H15.38L9.11,1.07l0.39-1.01l6.09,2.34h14.81c0,0,0.01,0,0.02,0     c0.3,0,0.54,0.24,0.54,0.54C30.94,3.24,30.7,3.48,30.4,3.48z"
   id="path8" />
			<path
   class="st2"
   d="M30.4-2.4c-0.01,0-0.02,0-0.02,0H15.58L9.49-0.06L9.11-1.07l6.27-2.41h15.01c0,0,0.01,0,0.02,0     c0.3,0,0.54,0.24,0.54,0.54C30.94-2.64,30.7-2.4,30.4-2.4z"
   id="path10" />
		</g>
	</g>
	<g
   id="g46">
		<path
   class="st1"
   d="M39.01,23.56H21.73c-0.89,0-1.62,0.73-1.62,1.62v0c0,0.89,0.73,1.62,1.62,1.62h17.28    c0.89,0,1.62-0.73,1.62-1.62v0C40.63,24.28,39.9,23.56,39.01,23.56z"
   id="path16" />
		<path
   class="st1"
   d="M38.65-26.8H21.37c-0.89,0-1.62,0.73-1.62,1.62v0c0,0.89,0.73,1.62,1.62,1.62h17.28    c0.89,0,1.62-0.73,1.62-1.62v0C40.27-26.07,39.54-26.8,38.65-26.8z"
   id="path18" />
		<g
   id="g44">
			<g
   id="g24">
				<rect
   x="14.29"
   y="-22.9"
   class="st3"
   width="32.15"
   height="45.79"
   id="rect20" />
				<path
   class="st4"
   d="M46.88-23.56H13.86v47.12h33.02V-23.56z M14.73-22.7H46v45.26H14.73V-22.7z"
   id="path22" />
			</g>
			<rect
   x="18.44"
   y="-15.92"
   class="st5"
   width="23.86"
   height="31.83"
   id="rect26" />
			<g
   id="g30">
				<path
   class="st5"
   d="M14.73,22.56c0.71-1.06,1.33-2.16,1.96-3.26c0.6-1.11,1.22-2.22,1.74-3.38c-0.71,1.06-1.33,2.16-1.96,3.26      C15.87,20.29,15.26,21.4,14.73,22.56z"
   id="path28" />
			</g>
			<g
   id="g34">
				<path
   class="st5"
   d="M42.3-15.92c0.71-1.08,1.33-2.21,1.96-3.33c0.6-1.14,1.22-2.27,1.74-3.45c-0.71,1.08-1.33,2.21-1.96,3.33      C43.44-18.23,42.83-17.1,42.3-15.92z"
   id="path32" />
			</g>
			<g
   id="g38">
				<path
   class="st5"
   d="M14.73-22.7c0.53,1.16,1.14,2.27,1.74,3.38c0.63,1.1,1.25,2.2,1.96,3.26c-0.53-1.16-1.14-2.27-1.74-3.38      C16.06-20.54,15.44-21.65,14.73-22.7z"
   id="path36" />
			</g>
			<g
   id="g42">
				<path
   class="st5"
   d="M42.3,15.77c0.53,1.18,1.14,2.31,1.74,3.45c0.63,1.12,1.25,2.25,1.96,3.33c-0.53-1.18-1.14-2.31-1.74-3.45      C43.63,17.98,43.01,16.86,42.3,15.77z"
   id="path40" />
			</g>
		</g>
	</g>
	<rect
   x="-30.3"
   y="-0.84"
   class="st2"
   width="45.07"
   height="1.68"
   id="rect48" />
	<path
   class="st1"
   d="M16.58,0.01c0-2.42-2.63-6.05-4.38-4.38C9.56-1.85,1.82-2.41,1.82,0.01S9.2,1.77,12.2,4.39   C14.02,5.99,16.58,2.43,16.58,0.01z"
   id="path50" />
	<g
   id="g60">
		<rect
   x="-36.9"
   y="-3.25"
   class="st0"
   width="0.57"
   height="6.5"
   id="rect52" />
		<path
   class="st1"
   d="M-27.98-1.63h-17.28c-0.89,0-1.62,0.73-1.62,1.62v0c0,0.89,0.73,1.62,1.62,1.62h17.28    c0.89,0,1.62-0.73,1.62-1.62v0C-26.36-0.91-27.08-1.63-27.98-1.63z"
   id="path54" />
		<path
   class="st5"
   d="M-32.29,3.32h-4.47c-0.38,0-0.69-0.31-0.69-0.69c0-0.38,0.31-0.69,0.69-0.69h4.47c0,0,1.52,0.07,1.52-1.94    c0-2-1.52-1.94-1.52-1.94h-4.47c-0.38,0-0.69-0.31-0.69-0.69c0-0.38,0.31-0.69,0.69-0.69h4.47c0,0,3.04,0.03,3.04,3.32    C-29.25,3.29-32.29,3.32-32.29,3.32z"
   id="path56" />
		<path
   class="st2"
   d="M-23.17-1.08h-5.92c-0.59,0-1.08,0.48-1.08,1.08v0c0,0.59,0.48,1.08,1.08,1.08h5.92    c0.59,0,1.08-0.48,1.08-1.08v0C-22.09-0.59-22.58-1.08-23.17-1.08z"
   id="path58" />
	</g>
	<g
   id="g78">
		<path
   class="st2"
   d="M-19.66-1.15h-6.83c-0.64,0-1.17,0.52-1.17,1.17v0.24c0,0.64,0.52,1.17,1.17,1.17h6.83    c0.64,0,1.17-0.52,1.17-1.17V0.02C-18.49-0.62-19.01-1.15-19.66-1.15z"
   id="path62" />
		<circle
   class="st2"
   cx="-19.76"
   cy="0.14"
   r="1.26"
   id="circle64" />
		<path
   class="st0"
   d="M-17.89-0.43h-1.65c-0.34,0-0.61,0.27-0.61,0.61v0c0,0.34,0.27,0.61,0.61,0.61h1.65    c0.34,0,0.61-0.27,0.61-0.61v0C-17.28-0.16-17.56-0.43-17.89-0.43z"
   id="path66" />
		<g
   id="g76">
			<path
   class="st2"
   d="M-15.97-9.18h-1.2l-0.5,4.68c-0.33,3.1-0.33,6.24,0,9.34l0.5,4.68h1.2l-0.5-4.68c-0.33-3.1-0.33-6.24,0-9.34     L-15.97-9.18z"
   id="path68" />
			<path
   class="st0"
   d="M-16.88-5.05L-16.88-5.05c-0.2,0-0.36,0.16-0.36,0.36v9.74c0,0.2,0.16,0.36,0.36,0.36h0     c0.2,0,0.36-0.16,0.36-0.36V-4.7C-16.53-4.9-16.68-5.05-16.88-5.05z"
   id="path70" />
			<path
   class="st6"
   d="M-16.32,7.28l-0.91,0.16c-0.22,0.04-0.37,0.25-0.33,0.47l1.26,7.02c0.04,0.22,0.25,0.37,0.47,0.33l0.91-0.16     c0.22-0.04,0.37-0.25,0.33-0.47l-1.26-7.02C-15.89,7.39-16.1,7.24-16.32,7.28z"
   id="path72" />
			<path
   class="st6"
   d="M-16.32-6.94l-0.91-0.16c-0.22-0.04-0.37-0.25-0.33-0.47l1.32-7.36c0.04-0.22,0.25-0.37,0.47-0.33l0.91,0.16     c0.22,0.04,0.37,0.25,0.33,0.47l-1.32,7.36C-15.89-7.04-16.1-6.9-16.32-6.94z"
   id="path74" />
		</g>
	</g>
</symbol>
<g
   id="g181">
	<path
   class="st7"
   d="M254.84,76.85c-4.83-4.47-10.56-7.72-16.47-10.1c-1.4-1.38-2.86-2.68-4.4-3.9c-4.54-3.64-9.73-6.45-15.21-8.42   c-5.49-1.95-11.28-3-17.08-3.4c-5.8-0.43-11.63-0.29-17.41,0.2c-5.79,0.48-11.53,1.34-17.23,2.43c-6.84,1.36-13.62,3.03-20.3,5.01   c-0.34-0.27-0.7-0.52-1.07-0.74c-0.31-0.37-0.6-0.77-1.05-1.03c-0.44-0.28-0.94-0.43-1.44-0.49c-0.99-0.11-1.96,0.09-2.85,0.49   c-0.45-0.06-0.9-0.11-1.35-0.09c-0.47,0.01-0.94,0.05-1.4,0.12c-0.46,0.07-0.92,0.17-1.38,0.3c-0.42,0.13-0.84,0.29-1.24,0.55   c-0.41-0.06-0.83-0.14-1.28-0.09c-0.46,0.03-0.95,0.23-1.26,0.61c-0.24,0.27-0.38,0.58-0.47,0.9c-4.33-1.17-12.17-2.45-14.93,2.6   c-1.53,2.79-1.93,4.75-1.19,5.83c0.31,0.45,0.75,0.66,1.14,0.76c-0.42,0.28-0.91,0.73-1.2,1.39c-0.43,0.98-0.32,2.17,0.33,3.52   c0.88,1.84,1.62,2.77,2.26,2.86c-0.39,1.01-0.93,3.03,0.25,4.43c0.8,0.95,2.22,1.43,4.25,1.43c2.28,0,5.34-0.6,9.15-1.8   c0.63-0.2,1.22-0.41,1.78-0.63c0.02,0.05,0.06,0.09,0.08,0.13c0.01,0.02,0.03,0.04,0.04,0.06c0.02,0.04,0.05,0.08,0.08,0.12   c-0.29,1.33-0.46,2.72-0.46,4.14c0,5.86,2.64,11.1,6.79,14.63c-0.48,0.64-0.83,1.37-1.05,2.13c-0.25,0.83-0.31,1.7-0.36,2.53   c-0.98,0.86-1.88,1.85-2.42,3.08c-0.28,0.62-0.44,1.3-0.47,1.99c-0.06,0.63,0.09,1.25,0.21,1.85c-0.48,0.33-0.94,0.72-1.22,1.29   c-0.3,0.63-0.26,1.38-0.01,1.97c0.47,1.17,1.27,2.08,1.95,3.03c-0.29,1.13-0.54,2.29-0.45,3.49c0.04,0.62,0.2,1.24,0.49,1.8   c0.15,0.28,0.33,0.54,0.53,0.77l0.53,0.55c-0.29,0.67-0.54,1.39-0.47,2.18c0.04,0.42,0.21,0.84,0.49,1.16   c0.27,0.32,0.62,0.48,0.94,0.71c0.71,0.6,1.2,1.43,1.65,2.27c0.45,0.85,0.84,1.74,1.33,2.6c0.49,0.83,1.12,1.72,2.11,2.1   c0.94,0.37,1.95,0.19,2.83-0.13c0.59,0.88,1.16,1.78,1.83,2.63c0.35,0.44,0.71,0.87,1.12,1.26c0.39,0.41,0.86,0.73,1.33,1.06   l0.02,0.01l0.06,0.01l0.72,0.13c0.37,0.43,0.78,0.81,1.22,1.17c0.31,1.7,0.85,3.32,1.57,4.83c-1.38-0.16-2.76-0.32-4.14-0.48   c-0.01-0.06,0-0.12-0.01-0.18c-0.06-0.42-0.2-0.84-0.44-1.2c-0.22-0.34-0.51-0.6-0.78-0.86c0.11-0.65,0.17-1.34-0.02-2.02   c-0.11-0.35-0.3-0.68-0.58-0.93c-0.25-0.25-0.57-0.39-0.88-0.53c-0.49-0.83-1.4-1.37-2.33-1.51c-0.93-0.16-1.87-0.06-2.77,0.1   c-0.64-0.53-1.32-1.04-2.14-1.31c-0.41-0.13-0.86-0.2-1.3-0.11c-0.22,0.03-0.43,0.11-0.63,0.2l-0.54,0.33   c-0.54,0.13-1.09,0.22-1.61,0.48c-0.55,0.28-0.72,0.92-0.81,1.45c-0.1,0.55-0.18,1.11-0.23,1.66c-0.03,0.56-0.09,1.11-0.13,1.67   l-0.22,0.55c-0.34,0.17-0.64,0.41-0.91,0.68c0,0,0,0,0,0c-0.73-0.31-1.49-0.6-2.33-0.87c-7.2-2.27-11.71-2.4-13.4-0.38   c-1.18,1.41-0.64,3.42-0.25,4.43c-0.64,0.08-1.38,1.02-2.26,2.86c-0.65,1.36-0.76,2.54-0.33,3.52c0.29,0.66,0.77,1.11,1.2,1.39   c-0.4,0.1-0.84,0.31-1.14,0.76c-0.74,1.08-0.34,3.05,1.19,5.83c1.54,2.81,4.65,3.66,7.85,3.66c2.48,0,5.01-0.51,6.91-1.02   c0.02,0.19,0.04,0.38,0.07,0.58c0.09,0.44,0.24,0.89,0.56,1.26c0.31,0.38,0.8,0.57,1.26,0.61c0.44,0.05,0.86-0.03,1.28-0.09   c0.39,0.26,0.81,0.42,1.24,0.55c0.45,0.13,0.91,0.23,1.38,0.3c0.46,0.07,0.93,0.11,1.4,0.12c0.45,0.02,0.9-0.03,1.35-0.09   c0.89,0.39,1.87,0.6,2.85,0.49c0.5-0.06,1.01-0.21,1.44-0.49c0.36-0.21,0.63-0.51,0.88-0.82c7.15,2.91,14.45,5.42,21.89,7.5   c5.83,1.6,11.75,2.9,17.74,3.73c5.99,0.87,12.07,1.21,18.12,0.87c3.03-0.21,6.04-0.6,9.01-1.24c2.97-0.65,5.87-1.6,8.66-2.81   c5.17-2.24,9.88-5.45,13.96-9.29c4.3-0.35,12.13-1.91,19.13-8.31c9.79-8.94,14.75-23.98,14.75-44.7   C268.78,97.07,264.09,85.4,254.84,76.85z"
   id="path81" />
	<path
   d="M386.19,103.5c-0.09-1.6-0.21-3.18-0.36-4.71c-0.12-1.21-0.26-2.47-0.44-3.92c3.41-11.11-2.37-20.59-7.04-28.26   c-3.25-5.33-6.31-10.36-5.83-14.69l0.11-0.94l-0.25-0.92c-0.46-1.7-1.04-3.37-1.71-4.96c-6.55-15.37-22.74-25.2-44.49-27.01   c-1.82-0.6-3.55-1.1-5.29-1.55c-7.99-2.04-16.38-2.74-24.57-2.09l-0.48,0.04l-0.46,0.13c-1.96,0.55-3.97,1.16-5.97,1.83   c-23.68,4.07-40.45,16.73-47.25,35.66l-0.05,0.14c-0.42,1.29-0.78,2.6-1.08,3.89c-1.53,6.66-1.51,13.41,0.08,20.08   c0.12,0.76,0.64,4.09,1.2,8.99c0.12,1.08,0.26,2.32,0.34,3.62c-3.99,14.21-6.56,27.12,0.6,40.19c-0.02,0.47-0.07,0.99-0.13,1.59   c-0.12,1.09-0.26,2.17-0.4,3.23c-0.15,1.02-0.3,2.03-0.48,3.01c-0.17,0.94-0.37,1.84-0.61,2.68c-0.18,0.65-0.39,1.32-0.62,1.99   c-8.94,12.43-1.42,24.54,4.11,33.43c1.95,3.15,3.8,6.12,4.97,8.91l0.12,0.26c0.9,1.84,1.97,3.63,3.19,5.34   c7.86,10.98,22.57,19.18,39.39,19.18c7.47,0,15.36-1.62,23.24-5.33c2.03,0.04,4.04-0.01,6-0.14c27.89-1.92,43.02-20.49,48.01-37.52   c0.98-1.51,1.93-3.06,2.83-4.63C386.87,140.12,390.99,122.35,386.19,103.5z"
   id="path83" />
	<path
   d="M383.2,12.9h-24.97c0.06-0.48,0.09-0.96,0.09-1.45c0-6.31-5.14-11.45-11.45-11.45h-68.79c-6.31,0-11.45,5.14-11.45,11.45   c0,0.48,0.03,0.97,0.09,1.45h-24.97v74.98c-1.76,0.4-3.4,1.25-4.88,2.54c-4.7,4.11-13.66,5.98-21.56,7.64   c-6.37,1.33-11.89,2.49-15.79,4.77h-68.72l0-1.22c0.16-2.95,0.4-5.86,0.69-8.63l0.77-7.22c0.85-0.97,1.41-2.14,1.64-3.41   l5.01-27.93c0.69-3.86-1.89-7.57-5.76-8.27l-3.62-0.65c-1.88-0.34-3.77,0.08-5.32,1.16c-1.56,1.08-2.61,2.71-2.94,4.59l-5.01,27.92   c-0.25,1.37-0.09,2.75,0.44,4.02l-0.92,8.61c-0.31,2.86-0.53,5.77-0.69,8.86c-0.58-0.11-1.16-0.16-1.75-0.16h-27.2   c-0.81,0-1.63,0.11-2.42,0.32c-1.14-0.37-2.31-0.56-3.5-0.56H76.7c-4.95-6.64-13.29-6.8-13.66-6.8h-17.8   c-3.93,0-7.19,2.94-7.68,6.8H11.45C5.14,100.28,0,105.41,0,111.72c0,6.31,5.14,11.45,11.45,11.45h26.12   c0.51,3.78,3.76,6.71,7.68,6.71l17.86,0c0.35,0,8.57-0.18,13.52-6.71h3.61c1.94,0,3.84-0.5,5.54-1.45   c0.12,0.01,0.25,0.01,0.38,0.01h27.2c0.6,0,1.19-0.06,1.77-0.17c0.16,3.07,0.38,5.9,0.67,8.6l0.92,8.6   c-0.54,1.27-0.69,2.65-0.44,4.01l5.25,29.29c0.33,1.88,1.38,3.51,2.95,4.6c1.2,0.83,2.6,1.27,4.06,1.27c0.43,0,0.87-0.04,1.26-0.11   l3.62-0.65c1.87-0.34,3.5-1.38,4.58-2.95c1.09-1.56,1.5-3.46,1.16-5.32l-5.25-29.29c-0.23-1.28-0.79-2.46-1.64-3.43l-0.77-7.21   c-0.29-2.74-0.52-5.61-0.69-8.47h68.97c4.02,2.27,9.67,3.46,16.2,4.84c7.87,1.66,16.78,3.54,20.74,7.31   c1.47,1.4,3.19,2.35,5.04,2.78v75.01h23.53c-0.06,0.48-0.09,0.96-0.09,1.45c0,6.31,5.14,11.45,11.45,11.45h68.79   c6.31,0,11.45-5.14,11.45-11.45c0-0.49-0.03-0.97-0.09-1.45h26.4V12.9z"
   id="path85" />
	
		<g
   id="use87">
	<g
   id="g1023">
		<path
   id="rect1013"
   style="fill:#939598"
   d="M 297.801 123.606 L 312.49 123.606 L 312.49 98.9657 L 297.801 98.9657 Z"
   class="st0" />
		<path
   class="st1"
   d="M 353.41 117.754 L 256.841 117.754 C 253.298 117.754 250.392 114.848 250.392 111.306 L 250.392 111.306 C 250.392 107.763 253.298 104.857 256.841 104.857 L 353.41 104.857 C 356.953 104.857 359.859 107.763 359.859 111.306 L 359.859 111.306 C 359.859 114.848 356.993 117.754 353.41 117.754 Z"
   id="path1015" />
		<g
   id="g1021">
			<path
   class="st2"
   d="M 312.609 97.5725 C 312.569 97.5725 312.53 97.5725 312.53 97.5725 L 252.821 97.5725 L 227.862 107.166 L 229.415 111.186 L 253.657 101.872 L 312.609 101.872 C 312.609 101.872 312.649 101.872 312.689 101.872 C 313.883 101.872 314.838 100.916 314.838 99.722 C 314.759 98.5279 313.803 97.5725 312.609 97.5725 Z"
   id="path1017" />
			<path
   class="st2"
   d="M 312.609 120.978 C 312.569 120.978 312.53 120.978 312.53 120.978 L 253.617 120.978 L 229.375 111.664 L 227.862 115.684 L 252.821 125.277 L 312.569 125.277 C 312.569 125.277 312.609 125.277 312.649 125.277 C 313.843 125.277 314.799 124.322 314.799 123.128 C 314.759 121.934 313.803 120.978 312.609 120.978 Z"
   id="path1019" />
		</g>
	</g>
	<g
   id="g1055">
		<path
   class="st1"
   d="M 346.882 17.6421 L 278.097 17.6421 C 274.555 17.6421 271.649 14.7362 271.649 11.1935 L 271.649 11.1935 C 271.649 7.65076 274.555 4.74492 278.097 4.74492 L 346.882 4.74492 C 350.425 4.74492 353.331 7.65076 353.331 11.1935 L 353.331 11.1935 C 353.331 14.776 350.425 17.6421 346.882 17.6421 Z"
   id="path1025" />
		<path
   class="st1"
   d="M 345.449 218.105 L 276.664 218.105 C 273.122 218.105 270.216 215.199 270.216 211.657 L 270.216 211.657 C 270.216 208.114 273.122 205.208 276.664 205.208 L 345.449 205.208 C 348.992 205.208 351.898 208.114 351.898 211.657 L 351.898 211.657 C 351.898 215.199 348.992 218.105 345.449 218.105 Z"
   id="path1027" />
		<g
   id="g1053">
			<g
   id="g1033">
				<path
   id="rect1029"
   style="fill:#414042"
   d="M 248.482 202.581 L 376.458 202.581 L 376.458 20.3091 L 248.482 20.3091 Z"
   class="st3" />
				<path
   class="st4"
   d="M 378.21 205.208 L 246.77 205.208 L 246.77 17.6421 L 378.21 17.6421 Z M 250.233 201.785 L 374.707 201.785 L 374.707 21.6227 L 250.233 21.6227 Z"
   id="path1031" />
			</g>
			<path
   id="rect1035"
   style="fill:#353535"
   d="M 265.001 174.796 L 359.978 174.796 L 359.978 48.0937 L 265.001 48.0937 Z"
   class="st5" />
			<g
   id="g1039">
				<path
   class="st5"
   d="M 250.233 21.6227 C 253.059 25.8421 255.527 30.2208 258.035 34.5994 C 260.424 39.0179 262.892 43.4364 264.961 48.0538 C 262.135 43.8344 259.667 39.4558 257.159 35.0771 C 254.771 30.6586 252.343 26.2402 250.233 21.6227 Z"
   id="path1037" />
			</g>
			<g
   id="g1043">
				<path
   class="st5"
   d="M 359.978 174.796 C 362.805 179.095 365.273 183.593 367.78 188.052 C 370.169 192.589 372.637 197.088 374.707 201.785 C 371.88 197.486 369.412 192.987 366.905 188.529 C 364.516 183.991 362.088 179.493 359.978 174.796 Z"
   id="path1041" />
			</g>
			<g
   id="g1047">
				<path
   class="st5"
   d="M 250.233 201.785 C 252.343 197.167 254.771 192.749 257.159 188.33 C 259.667 183.952 262.135 179.573 264.961 175.353 C 262.852 179.971 260.424 184.389 258.035 188.808 C 255.527 193.187 253.059 197.605 250.233 201.785 Z"
   id="path1045" />
			</g>
			<g
   id="g1051">
				<path
   class="st5"
   d="M 359.978 48.6509 C 362.088 43.9538 364.516 39.4558 366.905 34.9179 C 369.412 30.4596 371.88 25.9615 374.707 21.6625 C 372.597 26.3596 370.169 30.8577 367.78 35.3955 C 365.273 39.8538 362.805 44.3121 359.978 48.6509 Z"
   id="path1049" />
			</g>
		</g>
	</g>
	<path
   id="rect1057"
   style="fill:#ba131f;stroke:#8c1313;stroke-miterlimit:10;stroke-width:0.99515"
   d="M 70.9868 114.769 L 250.392 114.769 L 250.392 108.081 L 70.9868 108.081 Z"
   class="st2" />
	<path
   class="st1"
   d="M 257.597 111.385 C 257.597 121.018 247.128 135.468 240.162 128.82 C 229.654 118.789 198.844 121.018 198.844 111.385 C 198.844 101.752 228.221 104.379 240.162 93.9502 C 247.407 87.5812 257.597 101.752 257.597 111.385 Z"
   id="path1059" />
	<g
   id="g1069">
		<path
   id="rect1061"
   style="fill:#939598"
   d="M 44.7149 124.362 L 46.9838 124.362 L 46.9838 98.4881 L 44.7149 98.4881 Z"
   class="st0" />
		<path
   class="st1"
   d="M 80.2218 117.913 L 11.437 117.913 C 7.89431 117.913 4.98847 115.008 4.98847 111.465 L 4.98847 111.465 C 4.98847 107.922 7.89431 105.016 11.437 105.016 L 80.2218 105.016 C 83.7645 105.016 86.6704 107.922 86.6704 111.465 L 86.6704 111.465 C 86.6704 115.047 83.8044 117.913 80.2218 117.913 Z"
   id="path1063" />
		<path
   class="st5"
   d="M 63.0654 98.2094 L 45.2721 98.2094 C 43.7595 98.2094 42.5255 99.4434 42.5255 100.956 C 42.5255 102.469 43.7595 103.703 45.2721 103.703 L 63.0654 103.703 C 63.0654 103.703 69.1159 103.424 69.1159 111.425 C 69.1159 119.386 63.0654 119.147 63.0654 119.147 L 45.2721 119.147 C 43.7595 119.147 42.5255 120.381 42.5255 121.894 C 42.5255 123.407 43.7595 124.641 45.2721 124.641 L 63.0654 124.641 C 63.0654 124.641 75.1664 124.521 75.1664 111.425 C 75.1664 98.3288 63.0654 98.2094 63.0654 98.2094 Z"
   id="path1065" />
		<path
   class="st2"
   d="M 99.3685 115.724 L 75.8033 115.724 C 73.4548 115.724 71.5043 113.813 71.5043 111.425 L 71.5043 111.425 C 71.5043 109.076 73.415 107.126 75.8033 107.126 L 99.3685 107.126 C 101.717 107.126 103.668 109.037 103.668 111.425 L 103.668 111.425 C 103.668 113.774 101.717 115.724 99.3685 115.724 Z"
   id="path1067" />
	</g>
	<g
   id="g1087">
		<path
   class="st2"
   d="M 113.34 116.003 L 86.1529 116.003 C 83.6053 116.003 81.4956 113.933 81.4956 111.345 L 81.4956 110.39 C 81.4956 107.842 83.5655 105.733 86.1529 105.733 L 113.34 105.733 C 115.888 105.733 117.998 107.803 117.998 110.39 L 117.998 111.345 C 117.998 113.893 115.928 116.003 113.34 116.003 Z"
   id="path1071" />
		<path
   id="circle1073"
   style="fill:#ba131f;stroke:#8c1313;stroke-miterlimit:10;stroke-width:0.99515"
   d="M 117.958 110.868 C 117.958 109.538 117.429 108.262 116.489 107.321 C 115.548 106.381 114.273 105.852 112.942 105.852 C 111.612 105.852 110.336 106.381 109.396 107.321 C 108.455 108.262 107.927 109.538 107.927 110.868 C 107.927 112.198 108.455 113.474 109.396 114.414 C 110.336 115.355 111.612 115.883 112.942 115.883 C 114.273 115.883 115.548 115.355 116.489 114.414 C 117.429 113.474 117.958 112.198 117.958 110.868 Z"
   class="st2" />
		<path
   class="st0"
   d="M 120.386 113.137 L 113.818 113.137 C 112.465 113.137 111.39 112.062 111.39 110.708 L 111.39 110.708 C 111.39 109.355 112.465 108.28 113.818 108.28 L 120.386 108.28 C 121.739 108.28 122.814 109.355 122.814 110.708 L 122.814 110.708 C 122.814 112.062 121.7 113.137 120.386 113.137 Z"
   id="path1075" />
		<g
   id="g1085">
			<path
   class="st2"
   d="M 128.029 147.967 L 123.252 147.967 L 121.262 129.338 C 119.948 116.998 119.948 104.499 121.262 92.1589 L 123.252 73.5297 L 128.029 73.5297 L 126.039 92.1589 C 124.725 104.499 124.725 116.998 126.039 129.338 Z"
   id="path1077" />
			<path
   class="st0"
   d="M 124.406 131.527 L 124.406 131.527 C 123.61 131.527 122.973 130.89 122.973 130.094 L 122.973 91.323 C 122.973 90.5268 123.61 89.89 124.406 89.89 L 124.406 89.89 C 125.203 89.89 125.839 90.5268 125.839 91.323 L 125.839 130.134 C 125.8 130.93 125.203 131.527 124.406 131.527 Z"
   id="path1079" />
			<path
   class="st6"
   d="M 126.636 82.4462 L 123.013 81.8093 C 122.138 81.6501 121.54 80.8142 121.7 79.9385 L 126.715 51.9946 C 126.874 51.1189 127.71 50.5218 128.586 50.681 L 132.208 51.3179 C 133.084 51.4772 133.681 52.3131 133.522 53.1888 L 128.506 81.1326 C 128.347 82.0084 127.511 82.6055 126.636 82.4462 Z"
   id="path1081" />
			<path
   class="st6"
   d="M 126.636 139.05 L 123.013 139.687 C 122.138 139.846 121.54 140.682 121.7 141.558 L 126.954 170.855 C 127.113 171.731 127.949 172.328 128.825 172.169 L 132.447 171.532 C 133.323 171.373 133.92 170.537 133.761 169.661 L 128.506 140.364 C 128.347 139.448 127.511 138.891 126.636 139.05 Z"
   id="path1083" />
		</g>
	</g>
</g>
	<g
   id="g121">
		<g
   id="g93">
			<path
   class="st8"
   d="M245.47,143.91c-10.32,13.48,4.22,26.07,9.23,38.02c0.78,1.6,1.71,3.14,2.76,4.62     c10.59,14.8,34.6,23.1,57.48,11.72c2.32,0.09,4.56,0.05,6.73-0.1c23.88-1.65,38.95-17.2,43.75-34.64     c1.11-1.68,2.17-3.4,3.18-5.16c11.94-17.76,17.75-34.54,12.61-54.1c-0.09-1.68-0.21-3.34-0.37-4.99     c-0.16-1.65-0.36-3.28-0.57-4.9c6.08-16.69-14.27-29.27-12.74-43.01c-0.4-1.48-0.89-2.91-1.49-4.31     c-5.33-12.51-18.98-22.37-40.89-24.04c-1.83-0.61-3.67-1.16-5.52-1.64c-5.57-1.42-11.37-2.17-17.32-2.17     c-1.89,0-3.76,0.08-5.61,0.22c-2.09,0.58-4.11,1.21-6.09,1.88c-23.49,3.93-38.03,16.52-43.77,32.48     c-0.37,1.15-0.69,2.3-0.96,3.47c-1.34,5.83-1.36,11.92,0.12,17.97c0,0,0.6,3.61,1.26,9.41c0.17,1.45,0.33,3.04,0.41,4.74     c-3.82,13.47-6.73,26.05,0.57,38.32c0.04,1.17-0.04,2.32-0.17,3.45c-0.13,1.14-0.27,2.26-0.42,3.38     c-0.15,1.07-0.32,2.14-0.5,3.19c-0.19,1.05-0.42,2.1-0.71,3.12C246.17,141.89,245.84,142.91,245.47,143.91z"
   id="path89" />
			<path
   class="st9"
   d="M245.69,144.03c-1.43,1.88-2.49,3.88-3.09,6.09c-0.57,2.2-0.63,4.53-0.21,6.77     c0.83,4.52,3.14,8.62,5.51,12.55c5.44,7.49,7.88,17.03,15.2,22.93c6.89,6.11,15.82,9.78,24.96,10.7     c9.17,0.95,18.55-0.9,26.78-5.03l0.06-0.03l0.06,0c5.5,0.4,11.08-0.07,16.45-1.39c5.36-1.36,10.49-3.63,15.06-6.73     c4.54-3.14,8.51-7.09,11.63-11.62c3.15-4.51,5.41-9.59,6.85-14.87l0.02-0.08l0.05-0.07c1.1-1.68,2.14-3.4,3.12-5.15l0.01-0.01     l0.01-0.02c2.62-3.99,5.09-8.07,7.24-12.31c2.14-4.25,3.94-8.67,5.19-13.24c1.24-4.57,1.98-9.29,2.01-14.04     c0.04-4.74-0.6-9.48-1.73-14.1l-0.01-0.04l0-0.04l-0.3-4.94l-0.51-4.93l0,0l-0.01-0.07l0.02-0.05c0.68-1.78,1.1-3.66,1.21-5.58     c0.11-1.91-0.12-3.84-0.57-5.71c-0.91-3.75-2.73-7.21-4.66-10.54c-1.92-3.35-4.1-6.54-5.85-9.99c-0.89-1.71-1.68-3.49-2.21-5.36     c-0.54-1.86-0.83-3.82-0.66-5.79l0,0l0.01,0.09c-1.16-4.36-3.28-8.44-6.1-11.95c-2.84-3.51-6.35-6.44-10.23-8.73     c-3.88-2.31-8.11-4.01-12.46-5.21c-4.36-1.2-8.85-1.91-13.35-2.27l-0.03,0l-0.03-0.01c-4.55-1.53-9.24-2.64-14-3.23     c-4.76-0.59-9.58-0.7-14.36-0.31l0.05-0.01c-2.04,0.57-4.06,1.2-6.07,1.88l-0.02,0.01l-0.02,0c-6.46,1.11-12.83,2.93-18.73,5.77     c-5.9,2.83-11.34,6.67-15.74,11.52c-4.38,4.83-7.78,10.63-9.58,16.89c-1.73,6.3-1.81,13.02-0.26,19.36l0,0.01l0,0.01     c0.38,2.36,0.7,4.71,0.99,7.07c0.28,2.36,0.59,4.72,0.7,7.12l0,0.06l-0.02,0.06c-1.78,6.33-3.48,12.73-3.84,19.27     c-0.19,3.26,0,6.55,0.71,9.73c0.71,3.18,1.92,6.25,3.55,9.09l0,0.01l0.03,0.06l0,0.06c0.05,1.4-0.08,2.79-0.25,4.15     c-0.18,1.37-0.32,2.74-0.56,4.1c-0.21,1.36-0.42,2.73-0.76,4.07C246.59,141.39,246.2,142.66,245.69,144.03z M245.25,143.79     c0.44-1.21,0.87-2.57,1.19-3.88c0.34-1.32,0.55-2.68,0.76-4.03c0.23-1.35,0.38-2.72,0.55-4.08c0.18-1.36,0.3-2.72,0.25-4.08     l0.03,0.12l0-0.01c-1.74-2.83-3.05-5.94-3.79-9.19c-0.76-3.25-0.98-6.6-0.82-9.92c0.17-3.32,0.71-6.61,1.41-9.84     c0.71-3.23,1.58-6.42,2.48-9.59l-0.01,0.12c-0.11-2.35-0.4-4.71-0.68-7.07c-0.29-2.35-0.6-4.71-0.97-7.05l0.01,0.03     c-1.57-6.45-1.47-13.31,0.3-19.71c1.86-6.39,5.31-12.24,9.77-17.15c4.46-4.91,9.99-8.79,15.95-11.64     c5.97-2.86,12.39-4.69,18.9-5.79l-0.04,0.01c2.02-0.68,4.05-1.31,6.1-1.88l0.03-0.01l0.03,0c4.82-0.38,9.67-0.26,14.47,0.34     c4.79,0.61,9.52,1.73,14.09,3.28l-0.06-0.01c4.54,0.36,9.06,1.07,13.45,2.28c4.39,1.21,8.66,2.93,12.58,5.27     c3.93,2.32,7.49,5.29,10.37,8.85c2.86,3.56,5.02,7.71,6.19,12.13l0.01,0.04l0,0.05l0,0c-0.25,1.88-0.08,3.81,0.39,5.67     c0.48,1.86,1.21,3.65,2.06,5.38c1.74,3.44,3.83,6.69,5.8,10.01c1.96,3.32,3.77,6.77,4.78,10.51c1.02,3.73,0.98,7.78-0.3,11.49     l0.01-0.12l0,0l0.64,4.94l0.43,4.96l-0.01-0.08c1.3,4.64,2,9.46,2.02,14.3c0.02,4.84-0.63,9.68-1.91,14.34     c-1.27,4.67-3.09,9.16-5.25,13.47c-2.16,4.31-4.66,8.43-7.38,12.4l0.02-0.03c-1.02,1.76-2.1,3.48-3.23,5.17l0.07-0.15     c-1.52,5.38-4.05,10.46-7.34,14.95c-3.28,4.5-7.4,8.35-12.02,11.41c-4.61,3.08-9.79,5.26-15.15,6.61     c-5.36,1.37-10.92,1.91-16.47,1.88l0.12-0.03c-8.31,4.17-17.79,6.04-27.06,5.08c-9.24-0.93-18.26-4.63-25.24-10.82     c-3.47-3.09-6.44-6.8-8.43-11.04c-1.85-4.22-4.49-8.04-6.87-12.01c-2.37-3.95-4.72-8.08-5.57-12.72     c-0.44-2.3-0.37-4.71,0.22-6.99C242.72,147.74,243.88,145.58,245.25,143.79z"
   id="path91" />
		</g>
		<g
   id="g119">
			<g
   id="g117">
				<defs
   id="defs96">
					<path
   id="SVGID_3_"
   d="M297.47,94.1c0,0,6.8,2.61,12.55-2.61c5.75-5.23,9.94,3.27,9.94,3.27s-0.78,4.84,7.06,5.62       s3.14,8.63,3.14,8.63s6.72,3.66,1.4,9.41s-13.17,1.83-12.9,9.41c0.26,7.58-10.72,5.75-13.33,1.57       c-2.61-4.18-7.84-2.87-7.84-2.87s-7.84-1.57-5.75-10.46c2.09-8.89,2.09-8.89,2.09-8.89S287.21,95.04,297.47,94.1z" />
				</defs>
				<clipPath
   id="SVGID_1_">
					<use
   xlink:href="#SVGID_3_"
   style="overflow:visible;"
   id="use98" />
				</clipPath>
				<path
   class="st10"
   d="M297.47,94.1c0,0,6.8,2.61,12.55-2.61c5.75-5.23,9.94,3.27,9.94,3.27s-0.78,4.84,7.06,5.62      s3.14,8.63,3.14,8.63s6.72,3.66,1.4,9.41s-13.17,1.83-12.9,9.41c0.26,7.58-10.72,5.75-13.33,1.57      c-2.61-4.18-7.84-2.87-7.84-2.87s-7.84-1.57-5.75-10.46c2.09-8.89,2.09-8.89,2.09-8.89S287.21,95.04,297.47,94.1z"
   clip-path="url(#SVGID_1_)"
   id="path101" />
				<path
   id="polyline103"
   clip-path="url(#SVGID_1_)"
   style="fill:#9b7353"
   d="m 319.95,94.75 -7.47,16.65 31.14,-4.23"
   class="st11" />
				<path
   id="polyline105"
   clip-path="url(#SVGID_1_)"
   style="fill:#9b7353"
   d="m 325.44,121.81 -12.96,-10.41 6.48,17.99"
   class="st11" />
				<path
   id="polyline107"
   clip-path="url(#SVGID_1_)"
   style="fill:#9b7353"
   d="m 305.31,129.39 7.17,-17.99 -15.01,15.12"
   class="st11" />
				<path
   id="polyline109"
   clip-path="url(#SVGID_1_)"
   style="fill:#9b7353"
   d="m 291.72,116.06 20.76,-4.66 -18.67,-4.23"
   class="st11" />
				<path
   id="polyline111"
   clip-path="url(#SVGID_1_)"
   style="fill:#9b7353"
   d="m 297.47,94.1 15.01,17.3 -2.46,-19.92"
   class="st11" />
				<g
   class="st12"
   clip-path="url(#SVGID_1_)"
   id="g115">
					<path
   class="st13"
   d="M297.5,93.85c2.1,0.69,4.23,0.81,6.33,0.45c2.09-0.37,4.06-1.32,5.67-2.71c0.8-0.7,1.69-1.46,2.78-1.8       c1.07-0.39,2.31-0.32,3.34,0.13c1.05,0.45,1.92,1.18,2.66,2c0.74,0.83,1.37,1.73,1.88,2.72l0,0l0.02,0.04l0,0.11       c-0.02,0.81,0.28,1.67,0.77,2.31c0.48,0.66,1.16,1.15,1.9,1.5c0.76,0.34,1.57,0.57,2.41,0.71c0.42,0.07,0.85,0.12,1.27,0.15       c0.41,0.02,0.89,0.05,1.4,0.11c0.98,0.12,2.04,0.46,2.89,1.23c0.86,0.76,1.35,1.91,1.39,2.96c0.04,2.11-0.84,3.84-1.87,5.38       l0,0l-0.09-0.35c1.07,0.56,2.01,1.31,2.75,2.29c0.73,0.97,1.22,2.25,1.08,3.54c-0.11,1.29-0.71,2.45-1.43,3.42       c-0.72,0.98-1.6,1.85-2.61,2.55c-2.03,1.42-4.46,1.99-6.63,2.52c-1.08,0.28-2.14,0.61-2.85,1.2c-0.72,0.57-1.06,1.46-1.14,2.5       c-0.06,0.51-0.01,1.02-0.04,1.7c-0.06,0.64-0.15,1.29-0.41,1.92c-0.49,1.26-1.58,2.29-2.8,2.75c-1.21,0.49-2.49,0.59-3.71,0.5       c-1.22-0.11-2.41-0.4-3.53-0.86c-1.12-0.46-2.19-1.08-3.09-1.93c-0.22-0.22-0.44-0.45-0.63-0.7c-0.19-0.25-0.38-0.54-0.51-0.75       c-0.29-0.44-0.63-0.85-1.03-1.21c-1.58-1.44-3.99-1.82-6.16-1.48l0,0l-0.06,0.01l-0.05-0.01c-1.89-0.47-3.63-1.51-4.81-3.08       c-1.19-1.56-1.61-3.6-1.46-5.5c0.06-0.96,0.26-1.91,0.48-2.82l0.65-2.75l1.29-5.5l0,0l0.02,0.18       c-0.87-1.16-1.52-2.45-2.03-3.82c-0.48-1.37-0.81-2.85-0.71-4.42c0.06-0.78,0.21-1.59,0.58-2.34c0.36-0.76,0.93-1.42,1.6-1.89       c0.67-0.48,1.43-0.78,2.18-0.91c0.37-0.1,0.75-0.09,1.12-0.12C296.72,93.77,297.14,93.81,297.5,93.85z M297.43,94.34       c-1.21,0.49-2.54,0.96-3.35,1.78c-0.83,0.79-1.31,1.83-1.43,3.07c-0.12,1.23,0.03,2.56,0.3,3.88c0.26,1.32,0.65,2.65,1.07,3.98       l0.04,0.13l-0.02,0.04l0,0l-1.29,5.5l-0.65,2.75c-0.23,0.92-0.42,1.81-0.47,2.74c-0.14,1.83,0.26,3.72,1.36,5.17       c1.08,1.45,2.77,2.45,4.51,2.89l-0.11,0l0,0c1.17-0.29,2.36-0.36,3.55-0.18c1.19,0.18,2.37,0.63,3.34,1.41       c0.48,0.39,0.92,0.84,1.27,1.35c0.19,0.27,0.32,0.46,0.49,0.66c0.16,0.2,0.35,0.38,0.54,0.56c0.8,0.7,1.77,1.22,2.79,1.59       c2.02,0.72,4.37,0.95,6.23,0.18c0.93-0.38,1.62-1.09,1.96-1.98c0.18-0.44,0.25-0.94,0.29-1.45c0.02-0.47-0.03-1.11,0.03-1.75       c0.06-0.63,0.16-1.28,0.44-1.91c0.27-0.63,0.71-1.22,1.24-1.66c1.09-0.88,2.33-1.18,3.45-1.48c2.26-0.55,4.43-1,6.24-2.2       c0.91-0.58,1.72-1.3,2.4-2.14c0.68-0.83,1.21-1.78,1.35-2.79c0.15-1.01-0.11-2.05-0.69-2.96c-0.58-0.9-1.41-1.7-2.32-2.31       l-0.23-0.15l0.13-0.2l0,0c0.68-1.6,1.15-3.43,0.86-4.95c-0.16-0.75-0.54-1.33-1.11-1.7c-0.57-0.36-1.28-0.61-2.07-0.82       c-0.74-0.17-1.79-0.3-2.69-0.57c-0.92-0.26-1.84-0.62-2.67-1.14c-0.83-0.53-1.58-1.24-2.06-2.12c-0.47-0.89-0.67-1.88-0.5-2.87       l0.02,0.15l0,0c-1-1.83-2.39-3.63-4.29-4.48c-0.94-0.41-2.02-0.47-2.99-0.12c-1,0.32-1.8,0.99-2.62,1.71       c-1.67,1.44-3.73,2.43-5.91,2.82C301.77,95.18,299.44,95.02,297.43,94.34z"
   id="path113" />
				</g>
			</g>
		</g>
	</g>
	<g
   id="g179">
		<path
   class="st14"
   d="M193.32,103.01h-40.56c-10.48,0-18.97-8.49-18.97-18.97v0c0-10.48,8.49-18.97,18.97-18.97h40.56    c10.48,0,18.97,8.49,18.97,18.97v0C212.3,94.51,203.8,103.01,193.32,103.01z"
   id="path123" />
		<path
   class="st14"
   d="M212.7,155.85h-40.56c-10.48,0-18.97-8.49-18.97-18.97v0c0-10.48,8.49-18.97,18.97-18.97h40.56    c10.48,0,18.97,8.49,18.97,18.97v0C231.67,147.35,223.18,155.85,212.7,155.85z"
   id="path125" />
		<path
   class="st15"
   d="M134.82,162.13c0,0-13.81,5.31-17.57-1.55c-3.76-6.87,0.65-6.29,0.65-6.29s-3.43-1.06-1.55-4.99    s2.53-2.45,2.53-2.45s-5.31-10.13,13.08-4.33S134.82,162.13,134.82,162.13z"
   id="path127" />
		<path
   class="st15"
   d="M134.82,60.36c0,0-13.81-5.31-17.57,1.55s0.65,6.29,0.65,6.29s-3.43,1.06-1.55,4.99s2.53,2.45,2.53,2.45    s-5.31,10.13,13.08,4.33C150.35,74.17,134.82,60.36,134.82,60.36z"
   id="path129" />
		<path
   class="st16"
   d="M198.03,61.12c0,0,70.25-5.5,70.25,50.4s-36.61,52.57-36.61,52.57s-80.48-6.61-80.48-52.32    S198.03,61.12,198.03,61.12z"
   id="path131" />
		<g
   id="g153">
			<g
   id="g137">
				<path
   class="st17"
   d="M201.81,113.62c0,10.15-6.63,18.98-16.43,23.57c-0.39,0.18-0.79,0.36-1.19,0.53      c-1.62,2.32-4.05,1.85-6.17,1.5c-0.35-0.06-0.7-0.11-1.03-0.15c-0.25,0.33-0.51,0.62-0.78,0.89c-0.27,0.27-0.55,0.5-0.83,0.71      c-0.46,2.46-2.31,2.07-4.52,1.43c-0.37-0.11-0.75-0.22-1.14-0.3c-0.26,0.08-0.63,0.15-1.08,0.21c-0.22,0.03-0.47,0.06-0.73,0.08      c-0.32,0.02-0.64,0.05-0.96,0.1c-2.23,3.4-8.73,3.4-10.86-0.52c-0.25-0.08-0.5-0.17-0.74-0.27c-1.2-0.5-2.23-1.26-3.22-2.42      c-0.26-0.08-0.52-0.13-0.79-0.15c-0.25-0.15-0.49-0.33-0.73-0.52c-1.17-0.96-2.16-2.38-2.99-3.64c-0.2-0.3-0.39-0.6-0.57-0.86      c-5.08,2.03-5.08-4.47-7.86-6.79c-0.24-0.13-0.47-0.27-0.67-0.44c-0.77-0.65-1.01-1.66-0.17-3.49      c-0.24-0.21-0.46-0.43-0.65-0.67c-0.97-1.18-1.34-2.77-0.46-5.95c-0.13-0.18-0.26-0.36-0.4-0.54c-1.59-2.12-2.9-3.95-0.32-5.59      c-0.1-0.35-0.17-0.7-0.21-1.04c-0.25-2.05,0.63-3.99,2.84-5.89c0.03-0.33,0.04-0.66,0.07-1c0.23-2.72,1.7-5.68,6.09-5.9      c-0.09-0.26-0.18-0.5-0.18-0.73c-2.36-5.18,6.64-2.4,7.93-7.09c0.31-0.2,0.63-0.38,0.97-0.54c2.32-1.1,5-1.14,6.12-1.24      c0.35-0.11,0.68-0.17,1.02-0.18c2.33-0.08,4.77,1.93,7.59-1.97c0.41-0.15,0.84-0.28,1.28-0.38c2.18-0.49,4.44-0.25,4.47,1.23      c0.59,0.36,1.18,0.71,1.76,0.97c0.58,0.26,1.17,0.43,1.76,0.41c0.42-0.01,0.83-0.02,1.23-0.03c0.23-0.01,0.46-0.01,0.69-0.02      c1.61-0.06,3.16-0.16,4.32-0.33c0.39,0.04,0.73,0.11,1.04,0.23c2.49,0.91,3.17,4.39,5.2,6.18c0.35,0.25,0.68,0.5,1.02,0.76      C197.85,98.72,201.81,105.77,201.81,113.62z"
   id="path133" />
				<path
   class="st18"
   d="M201.81,113.62c0.03,5.29-1.89,10.51-5.11,14.68c-1.6,2.1-3.51,3.96-5.63,5.54      c-2.11,1.59-4.43,2.89-6.85,3.95l0.03-0.03c-0.38,0.54-0.87,1.02-1.46,1.33c-0.59,0.31-1.26,0.46-1.91,0.49      c-0.66,0.03-1.32-0.04-1.97-0.13c-0.65-0.1-1.29-0.2-1.93-0.29l0.09-0.04l-0.76,0.87c-0.28,0.26-0.58,0.5-0.87,0.76l0.04-0.06      c-0.1,0.56-0.31,1.15-0.77,1.56c-0.47,0.4-1.11,0.48-1.68,0.44c-0.58-0.04-1.14-0.18-1.69-0.33l-1.64-0.43l0.06,0      c-0.47,0.08-0.93,0.21-1.4,0.25l-1.39,0.15l0.08-0.05c-0.6,0.92-1.51,1.59-2.51,2c-1,0.41-2.09,0.59-3.17,0.55      c-1.08-0.04-2.15-0.3-3.11-0.82c-0.96-0.51-1.79-1.28-2.31-2.25l0.09,0.07c-0.78-0.25-1.55-0.59-2.23-1.06      c-0.68-0.47-1.28-1.04-1.82-1.66l0.08,0.05l-0.75-0.14l-0.06-0.01l-0.02-0.01c-0.47-0.33-0.94-0.65-1.33-1.06      c-0.4-0.39-0.77-0.82-1.12-1.26c-0.69-0.88-1.29-1.83-1.9-2.74l0.22,0.07c-0.92,0.35-1.99,0.57-2.97,0.18      c-0.99-0.39-1.62-1.27-2.11-2.1c-0.5-0.85-0.89-1.75-1.33-2.6c-0.45-0.85-0.95-1.68-1.65-2.27l0.03,0.02      c-0.33-0.23-0.7-0.4-0.97-0.73c-0.28-0.32-0.45-0.74-0.49-1.16c-0.07-0.84,0.22-1.61,0.53-2.32l0.05,0.26l-0.65-0.66      c-0.2-0.24-0.38-0.5-0.53-0.77c-0.3-0.56-0.45-1.18-0.49-1.8c-0.09-1.24,0.17-2.45,0.48-3.61l0.04,0.2      c-0.7-0.98-1.53-1.91-2.02-3.12c-0.25-0.59-0.29-1.35,0.01-1.97c0.31-0.62,0.84-1.04,1.36-1.39l-0.1,0.27      c-0.13-0.66-0.31-1.33-0.25-2.02c0.03-0.69,0.2-1.37,0.47-1.99c0.55-1.26,1.48-2.28,2.49-3.15l-0.08,0.15      c0.06-0.85,0.11-1.75,0.37-2.61c0.25-0.86,0.65-1.68,1.23-2.37c0.58-0.69,1.34-1.22,2.17-1.56c0.83-0.34,1.72-0.49,2.6-0.55      l-0.17,0.26c-0.08-0.24-0.18-0.49-0.18-0.79l0.02,0.08c-0.21-0.48-0.39-0.99-0.4-1.55c-0.03-0.56,0.26-1.14,0.71-1.48      c0.9-0.65,1.95-0.82,2.93-1.08c0.99-0.24,1.98-0.49,2.86-0.95c0.88-0.45,1.6-1.2,1.85-2.15l0.02-0.07l0.05-0.03      c0.55-0.3,1.09-0.63,1.68-0.84c0.58-0.22,1.19-0.39,1.8-0.52c1.22-0.26,2.46-0.35,3.68-0.43l-0.03,0.01      c0.79-0.27,1.65-0.19,2.43-0.05c0.79,0.14,1.56,0.34,2.33,0.32c0.77-0.01,1.53-0.25,2.16-0.69c0.64-0.44,1.16-1.04,1.63-1.66      l0.03-0.04l0.03-0.01c0.53-0.14,1.05-0.34,1.59-0.44c0.54-0.1,1.09-0.17,1.65-0.17c0.55,0,1.12,0.06,1.65,0.27      c0.53,0.18,1.02,0.69,1.02,1.3l-0.05-0.09l1.1,0.61c0.37,0.2,0.72,0.42,1.12,0.55c0.77,0.32,1.62,0.2,2.46,0.2      c0.84,0,1.67-0.1,2.51-0.15l2.51-0.18l0.01,0l0.01,0c0.78,0.06,1.55,0.37,2.16,0.88c0.61,0.5,1.07,1.14,1.49,1.8      c0.83,1.3,1.49,2.74,2.63,3.78l0,0c3.3,2.38,6.16,5.41,8.16,8.96C200.71,105.49,201.82,109.55,201.81,113.62z M201.81,113.62      c0-4.07-1.14-8.11-3.16-11.63c-2.01-3.53-4.88-6.54-8.18-8.9l0,0l0,0c-1.17-1.06-1.84-2.5-2.67-3.79      c-0.41-0.65-0.87-1.28-1.46-1.75c-0.59-0.49-1.31-0.77-2.08-0.83l0.02,0l-2.52,0.2c-0.84,0.06-1.68,0.16-2.52,0.16l-1.26,0.03      c-0.43,0.01-0.86-0.09-1.27-0.23c-0.41-0.13-0.77-0.35-1.15-0.55l-1.11-0.61l-0.05-0.03l0-0.06c-0.01-0.52-0.39-0.93-0.88-1.1      c-0.49-0.19-1.03-0.25-1.56-0.24c-0.54,0-1.07,0.07-1.6,0.17c-0.53,0.1-1.04,0.3-1.55,0.44l0.06-0.04      c-0.48,0.64-1.02,1.26-1.69,1.73c-0.67,0.47-1.49,0.74-2.3,0.75c-0.82,0.02-1.61-0.18-2.39-0.31c-0.77-0.13-1.56-0.2-2.29,0.05      l-0.02,0.01l-0.02,0c-1.23,0.09-2.45,0.18-3.65,0.45c-0.6,0.13-1.18,0.3-1.75,0.51c-0.57,0.2-1.09,0.52-1.62,0.81l0.07-0.09      c-0.27,1.05-1.07,1.9-2.01,2.37c-0.93,0.49-1.95,0.74-2.93,0.99c-0.97,0.26-2.01,0.46-2.78,1.03c-0.37,0.29-0.59,0.71-0.56,1.18      c0.01,0.47,0.18,0.94,0.37,1.39l0.02,0.04l0,0.04c0,0.2,0.08,0.43,0.17,0.66l0.09,0.25l-0.26,0.01      c-1.68,0.08-3.4,0.67-4.47,1.98c-0.53,0.64-0.9,1.41-1.14,2.22c-0.24,0.81-0.28,1.66-0.34,2.53l-0.01,0.09l-0.07,0.06      c-0.97,0.85-1.85,1.83-2.35,3c-0.25,0.58-0.4,1.2-0.43,1.83c-0.06,0.63,0.11,1.25,0.24,1.87l0.04,0.18l-0.14,0.09      c-0.49,0.32-0.94,0.71-1.18,1.19c-0.22,0.49-0.2,1.05,0.02,1.58c0.43,1.07,1.23,2.02,1.94,3.01l0.07,0.09l-0.03,0.11      c-0.31,1.13-0.56,2.3-0.48,3.44c0.04,0.57,0.18,1.12,0.43,1.62c0.13,0.25,0.29,0.48,0.47,0.7l0.6,0.62l0.12,0.12l-0.06,0.14      c-0.3,0.67-0.56,1.4-0.5,2.09c0.03,0.34,0.16,0.66,0.39,0.92c0.21,0.27,0.57,0.43,0.85,0.64l0.03,0.02      c0.78,0.67,1.29,1.55,1.75,2.41c0.45,0.87,0.84,1.76,1.31,2.59c0.47,0.81,1.06,1.62,1.91,1.95c0.85,0.35,1.81,0.16,2.69-0.16      l0.14-0.05l0.08,0.12c0.62,0.93,1.2,1.87,1.88,2.74c0.34,0.43,0.69,0.85,1.08,1.23c0.38,0.4,0.82,0.7,1.26,1.02l-0.08-0.02      l0.83,0.16l0.04,0.01l0.04,0.04c0.51,0.61,1.09,1.16,1.74,1.61c0.65,0.46,1.38,0.78,2.13,1.03l0.06,0.02l0.03,0.05      c0.49,0.91,1.27,1.65,2.18,2.13c0.91,0.49,1.95,0.75,2.99,0.8c1.04,0.05,2.09-0.12,3.05-0.51c0.96-0.39,1.83-1.03,2.4-1.89      l0.03-0.05l0.05-0.01l1.4-0.15c0.46-0.04,0.91-0.16,1.36-0.24l0.04-0.01l0.02,0l1.65,0.44c0.54,0.15,1.09,0.28,1.64,0.33      c0.54,0.05,1.12-0.03,1.53-0.38c0.41-0.35,0.61-0.89,0.71-1.43l0.01-0.03l0.03-0.03c0.28-0.25,0.57-0.48,0.85-0.73l0.75-0.84      l0.04-0.04l0.05,0.01c1.3,0.16,2.58,0.49,3.87,0.44c0.64-0.03,1.28-0.17,1.85-0.46c0.57-0.29,1.04-0.75,1.41-1.28l0.01-0.02      l0.02-0.01c2.41-1.04,4.73-2.32,6.84-3.9c2.11-1.57,4.02-3.41,5.63-5.5C199.87,124.1,201.81,118.91,201.81,113.62z"
   id="path135" />
			</g>
			<path
   class="st19"
   d="M187.96,113.23c0,11.79-7.79,21.35-17.4,21.35c-1.13,0-2.24-0.13-3.32-0.39c-0.36-0.08-0.71-0.18-1.05-0.31     c1.63-7.79-8.12-1.29-8.04-8.24c-0.12-0.31-0.25-0.62-0.39-0.91c-0.69-1.47-1.69-2.67-3.69-3.45c-0.15-0.33-0.22-0.68-0.23-1.06     c-0.13-3.01,3.25-7.35-0.65-8.22c0.01-0.4,0.04-0.8,0.08-1.2c0.04-0.4,0.08-0.79,0.14-1.18c-1.84-3.03,7.91-6.28,4.09-10.5     c-0.22-0.46-0.36-0.84-0.42-1.15c-0.69-3.39,7.61,1.5,8.87-5.33c0.36-0.14,0.74-0.24,1.11-0.34c1.13-0.28,2.31-0.43,3.51-0.43     C180.17,91.88,187.96,101.44,187.96,113.23z"
   id="path139" />
			<g
   id="g145">
				<path
   class="st20"
   d="M156.19,117.07c-1.02,0.45-2.23,0.71-3.54,0.71c-3.63,0-6.58-2.04-6.58-4.56c0-2.52,2.95-4.56,6.58-4.56      c1.29,0,2.5,0.26,3.52,0.71"
   id="path141" />
				<path
   class="st21"
   d="M156.19,117.07c-1.87,0.93-4.1,1.07-6.14,0.54c-1.02-0.28-2.01-0.75-2.81-1.49      c-0.81-0.71-1.39-1.76-1.41-2.88c0.01-1.13,0.59-2.18,1.4-2.89c0.8-0.74,1.79-1.21,2.8-1.5c2.05-0.53,4.27-0.4,6.15,0.53      c-1.94-0.73-4.1-0.74-6.04-0.16c-0.95,0.33-1.89,0.77-2.6,1.46c-0.74,0.66-1.21,1.6-1.21,2.56c0.01,0.96,0.48,1.89,1.22,2.55      c0.72,0.69,1.65,1.13,2.61,1.46C152.09,117.82,154.25,117.81,156.19,117.07z"
   id="path143" />
			</g>
			<path
   class="st22"
   d="M197.96,92.33c0,0,0.19-1.44-1.45-2.89c-0.23-0.22-0.51-0.43-0.82-0.65c-2.42-2.89-4.85-3.37-8.98-2.74     c-0.41,0.06-0.84,0.11-1.3,0.1c-0.23,0.07-0.45,0.14-0.67,0.2c-0.22,0.06-0.44,0.11-0.67,0.15c-5.89-1.17-8.81-1.17-10.45,1.31     c-0.33,0.09-0.65,0.2-0.97,0.33c-1.58,0.64-2.99,1.78-4.22,3.87c-0.3,0.28-0.61,0.56-0.91,0.84c-0.28,0.27-0.57,0.54-0.89,0.8     c-0.54,0.08-1.02,0.2-1.47,0.36s-0.84,0.35-1.2,0.58c-0.31,0-0.59,0.02-0.84,0.06c-0.25,0.04-0.48,0.1-0.68,0.19     c-2.74,2.01-2.74,8.51-4.76,11.95c0,0.39,0.01,0.76,0.01,1.13c0,0.36,0.01,0.72,0.01,1.06s0.01,0.67,0.02,0.99     c-1.28,6.39-1.28,9.64,0.73,11.84c0.11,0.37,0.2,0.74,0.3,1.12c0.16,0.36,0.35,0.7,0.57,1c1.35,7.5,7.19,4.42,6.41,9.34     c0.14,0.29,0.31,0.55,0.5,0.78c0.79,0.91,2.07,1.27,3.42,1.51c0.39,0.07,0.78,0.12,1.15,0.21c0.58,0.68,1.35,1.1,2.27,1.42     c0.31,0.11,0.64,0.2,0.98,0.29c2.88,0.07,5.18,3.1,7.3,3.86c0.3,0.11,0.6,0.17,0.9,0.17c2.34-0.43,4.24-0.65,5.83-1.02     c0.32-0.07,0.63-0.15,0.93-0.24c3.76,0.4,9.6,0.4,8.96-6.46c0-0.24,0-0.52,0-0.82C198.02,124.23,197.96,92.33,197.96,92.33z"
   id="path147" />
			<path
   class="st22"
   d="M266,103.83c-1.01,0.05-1.01,2.56-1.16,2.38c-0.06,0.31-0.13,0.57-0.22,0.7c-0.1,0.36-0.23,0.69-0.38,1     c-0.11,0.23-0.23,0.46-0.36,0.68c-1.39,2.8-3.9,2.8-8.57,2.76c-0.33,0.01-0.66-0.01-0.99-0.07c-0.99-0.17-1.95-0.68-2.82-1.78     c-0.34-0.07-0.65-0.13-0.93-0.21c-3.09-0.85-3.03-3.43-2.23-9.05c0.11-0.21,0.24-0.44,0.39-0.69c0.16-0.26,0.34-0.54,0.53-0.87     c0.71-4.81,5.72-2.31,7.61-4.03c0.36,0.01,0.73,0.06,1.11,0.17c0.38,0.11,0.78,0.29,1.2,0.55c0.21,0.13,0.43,0.27,0.65,0.44     c0.52-0.19,0.93-0.27,1.26-0.25c0.33,0.02,0.58,0.14,0.78,0.33c0.62,5.49,5.62,2.98,4.42,7.27     C266.22,103.34,266.12,103.56,266,103.83z"
   id="path149" />
			<path
   class="st14"
   d="M255.86,105.29c1.87-0.69,1.76-3.96-0.24-3.88c-39.67,1.6-52.25-10.1-61.57-10.94     c-0.93-0.11-3.82-0.25-3.82-0.25c-15.08,0-27.3,10.3-27.3,23.01c0,12.71,12.22,23.01,27.3,23.01c3.61,0,7.04-0.6,10.19-1.67     C227.14,128.3,245,109.3,255.86,105.29z"
   id="path151" />
		</g>
		<g
   id="g159">
			<path
   class="st23"
   d="M253.28,132.27c0,0-8.36,36.6-40.82,43.89s-78.73-16.12-78.73-16.12l15.14-15.24c0,0,24.9,2.71,44.92,5.34"
   id="path155" />
			<path
   class="st24"
   d="M253.28,132.27c-1.46,5.85-3.77,11.48-6.64,16.79c-2.89,5.3-6.45,10.27-10.77,14.53     c-4.3,4.26-9.36,7.81-14.94,10.22c-2.79,1.21-5.69,2.16-8.66,2.81c-2.97,0.64-5.99,1.03-9.01,1.24c-6.06,0.34-12.14,0-18.12-0.87     c-5.99-0.84-11.91-2.14-17.74-3.73c-11.64-3.27-22.97-7.55-33.86-12.83l-0.54-0.26l0.43-0.43l15.2-15.18l0.12-0.12l0.16,0.02     c7.49,0.87,14.98,1.74,22.46,2.7c7.48,0.95,14.96,1.94,22.42,2.99c-7.48-0.91-14.98-1.75-22.47-2.57l-22.49-2.42l0.28-0.1     l-15.08,15.3l-0.11-0.69c10.82,5.2,22.15,9.45,33.73,12.65c5.8,1.59,11.67,2.91,17.61,3.76c5.94,0.88,11.95,1.24,17.94,0.92     c2.99-0.2,5.96-0.57,8.89-1.19c2.92-0.63,5.79-1.52,8.54-2.68c5.51-2.32,10.54-5.76,14.83-9.94c4.3-4.18,7.91-9.05,10.89-14.27     C249.31,143.67,251.72,138.09,253.28,132.27z"
   id="path157" />
		</g>
		<g
   id="g165">
			<path
   class="st17"
   d="M135.27,142.46c-1.65,0.87-2.17,2.45-1.43,4.62c0.05,0.14,0.1,0.27,0.15,0.42     c-3.76,1.42-1.62,3.34-0.43,5.15c0.15,0.23,0.28,0.45,0.38,0.67c-1.11,0.62-1.82,2.03-2,3.5c-0.03,0.24-0.05,0.49-0.05,0.74     c-0.45,0.82-0.84,2.66-0.28,4.33c0.08,0.24,0.18,0.47,0.3,0.7c0,2.73,1.14,3.13,2.42,3c0.21-0.02,0.43-0.06,0.65-0.09     c0.83,0.62,3.02,1.06,4.68,0.95c0.24-0.02,0.47-0.04,0.68-0.08c1.17,0.54,3.32,0.96,4.67-0.4c0.17-0.17,0.33-0.37,0.49-0.59     c3.12-1.81,3.42-4.01,1.65-7.32c0.02-0.29,0.04-0.57,0.05-0.84c2.17-2.05,2.74-3.92,1.53-6.26c-0.12-0.23-0.26-0.47-0.41-0.71     c0.99-0.87,1.62-1.77,1.85-2.74c0.05-0.19,0.08-0.39,0.09-0.59c0.55-2.24,0.13-3.26-0.57-3.98c-0.14-0.15-0.29-0.28-0.44-0.43     c0.32-1.72-0.01-2.65-0.9-3.19c-0.15-0.09-0.31-0.17-0.49-0.24c-0.94-1.6-2.78-1.7-4.37-1.5c-0.23,0.03-0.45,0.06-0.66,0.1     c-1.47-1.25-2.75-1.86-4-1.28c-0.18,0.08-0.36,0.19-0.53,0.33c-2.23,0.48-2.23,0.48-2.65,3.39c-0.01,0.14-0.02,0.29-0.04,0.63     c-0.01,0.17-0.02,0.39-0.11,1.17C135.45,142.08,135.38,142.27,135.27,142.46z"
   id="path161" />
			<path
   class="st18"
   d="M135.27,142.46c-0.85,0.44-1.54,1.26-1.67,2.22c-0.15,0.95,0.11,1.91,0.46,2.8l0.02,0.06l-0.06,0.03     c-0.57,0.24-1.14,0.5-1.58,0.93c-0.21,0.21-0.38,0.47-0.44,0.75c-0.05,0.28-0.03,0.59,0.09,0.87c0.2,0.57,0.58,1.07,0.94,1.57     c0.37,0.5,0.73,1.02,1.04,1.59l0.06,0.11l-0.11,0.06c-0.68,0.39-1.17,1.06-1.49,1.79c-0.16,0.37-0.28,0.75-0.35,1.14     c-0.09,0.39-0.09,0.79-0.12,1.19l0,0.04l-0.02,0.03c-0.37,0.74-0.52,1.61-0.53,2.45c0,0.42,0.04,0.84,0.13,1.25     c0.08,0.42,0.27,0.79,0.43,1.18l0.02,0.04l0,0.04c0.02,0.83,0.09,1.75,0.6,2.35c0.25,0.3,0.62,0.44,1.02,0.48     c0.4,0.04,0.82-0.04,1.24-0.11l0.08-0.01l0.07,0.05c0.71,0.47,1.64,0.66,2.52,0.8c0.45,0.06,0.9,0.1,1.35,0.11     c0.45,0.02,0.9-0.04,1.33-0.1l0.07-0.01l0.06,0.03c0.84,0.37,1.78,0.56,2.68,0.45c0.45-0.06,0.88-0.19,1.26-0.43     c0.38-0.22,0.65-0.6,0.95-0.95l0.04-0.04l0.04-0.02c1.19-0.7,2.34-1.69,2.55-3.05c0.22-1.34-0.34-2.72-0.98-3.96l-0.03-0.06     l0-0.07l0.06-0.83l0.01-0.09l0.07-0.06c0.92-0.88,1.79-1.91,2.03-3.14c0.13-0.61,0.07-1.24-0.11-1.84     c-0.17-0.61-0.49-1.17-0.81-1.73l-0.09-0.15l0.12-0.11c0.48-0.43,0.93-0.9,1.27-1.43c0.17-0.27,0.31-0.55,0.42-0.84     c0.11-0.29,0.14-0.61,0.2-0.92l0-0.03c0.18-0.77,0.32-1.56,0.22-2.33c-0.05-0.38-0.17-0.74-0.38-1.06     c-0.2-0.32-0.5-0.58-0.79-0.86l-0.06-0.06l0.02-0.09c0.12-0.66,0.19-1.34,0.02-1.96c-0.09-0.3-0.25-0.58-0.48-0.8     c-0.22-0.23-0.53-0.36-0.82-0.5l-0.05-0.03l-0.02-0.04c-0.44-0.79-1.26-1.28-2.15-1.43c-0.89-0.16-1.83-0.07-2.73,0.09     l-0.06,0.01l-0.05-0.04c-0.64-0.54-1.31-1.06-2.09-1.34c-0.39-0.13-0.8-0.2-1.2-0.13c-0.2,0.02-0.39,0.1-0.58,0.17l-0.53,0.31     l-0.02,0.01l-0.01,0c-0.54,0.12-1.11,0.2-1.6,0.44c-0.5,0.24-0.68,0.82-0.79,1.36c-0.11,0.55-0.2,1.1-0.27,1.65     c-0.04,0.56-0.11,1.11-0.17,1.67l0,0L135.27,142.46z M135.27,142.46l0.22-0.55l0,0c0.04-0.56,0.1-1.11,0.13-1.67     c0.06-0.56,0.14-1.11,0.23-1.66c0.1-0.53,0.26-1.17,0.81-1.45c0.52-0.27,1.08-0.35,1.62-0.49l-0.03,0.01l0.55-0.34     c0.2-0.09,0.41-0.17,0.63-0.2c0.44-0.08,0.89-0.02,1.3,0.11c0.83,0.28,1.53,0.81,2.19,1.35l-0.11-0.03     c0.92-0.16,1.88-0.26,2.83-0.11c0.94,0.15,1.87,0.7,2.36,1.56l-0.07-0.06c0.32,0.15,0.66,0.29,0.92,0.56     c0.28,0.25,0.47,0.58,0.58,0.93c0.2,0.71,0.12,1.43,0.01,2.11l-0.05-0.15c0.29,0.28,0.61,0.55,0.84,0.92     c0.24,0.36,0.38,0.78,0.44,1.2c0.12,0.84-0.03,1.67-0.21,2.46l0-0.03c-0.05,0.34-0.08,0.69-0.21,1.01     c-0.11,0.33-0.27,0.64-0.45,0.93c-0.37,0.58-0.83,1.08-1.33,1.52l0.04-0.25c0.34,0.57,0.68,1.16,0.87,1.82     c0.2,0.65,0.27,1.36,0.13,2.04c-0.26,1.38-1.19,2.48-2.13,3.39l0.07-0.16l-0.05,0.85l-0.03-0.13c0.34,0.65,0.65,1.31,0.87,2.03     c0.21,0.71,0.32,1.48,0.2,2.24c-0.12,0.77-0.53,1.47-1.04,2.01c-0.52,0.55-1.13,0.98-1.76,1.35l0.07-0.06     c-0.32,0.38-0.62,0.8-1.08,1.06c-0.44,0.28-0.94,0.43-1.44,0.49c-1.01,0.11-2.01-0.1-2.92-0.51l0.13,0.02     c-0.47,0.07-0.95,0.12-1.42,0.1c-0.47-0.01-0.94-0.05-1.4-0.12c-0.46-0.07-0.92-0.17-1.38-0.3c-0.45-0.14-0.9-0.3-1.32-0.59     l0.15,0.04c-0.44,0.06-0.87,0.15-1.34,0.1c-0.46-0.03-0.95-0.23-1.26-0.61c-0.32-0.36-0.47-0.82-0.56-1.26     c-0.09-0.44-0.11-0.89-0.11-1.33l0.02,0.08c-0.18-0.41-0.37-0.82-0.45-1.26c-0.09-0.44-0.14-0.88-0.13-1.33     c0.02-0.89,0.17-1.78,0.58-2.59l-0.02,0.07c0.03-0.42,0.04-0.84,0.14-1.25c0.08-0.41,0.21-0.81,0.38-1.2     c0.34-0.76,0.86-1.48,1.62-1.91l-0.06,0.17c-0.28-0.54-0.62-1.05-1-1.55c-0.35-0.51-0.73-1.03-0.94-1.65     c-0.12-0.3-0.14-0.65-0.08-0.97c0.07-0.33,0.27-0.61,0.5-0.83c0.47-0.45,1.07-0.69,1.65-0.93l-0.04,0.08     c-0.33-0.9-0.58-1.89-0.4-2.86C133.69,143.68,134.41,142.88,135.27,142.46z"
   id="path163" />
		</g>
		<g
   id="g171">
			<path
   class="st23"
   d="M253.28,91.19c0,0-8.52-30.94-40.99-38.23s-78.56,10.46-78.56,10.46l15.14,15.24     c0.18-0.02,24.04,2.15,43.55-0.42"
   id="path167" />
			<path
   class="st24"
   d="M253.28,91.19c-0.87-2.76-2.04-5.42-3.36-7.98c-1.32-2.57-2.82-5.05-4.48-7.4     c-3.32-4.71-7.3-8.96-11.85-12.49c-4.53-3.55-9.68-6.27-15.1-8.15c-5.44-1.85-11.14-2.89-16.88-3.26     c-5.74-0.41-11.52-0.25-17.26,0.26c-5.75,0.49-11.45,1.39-17.12,2.46c-11.32,2.2-22.51,5.26-33.35,9.2l0.15-0.71l15.08,15.3     l-0.29-0.1l5.5,0.39c1.81,0.12,3.63,0.21,5.44,0.29c3.63,0.16,7.26,0.24,10.89,0.28c7.26,0.05,14.54-0.2,21.76-1.04     c-7.21,0.99-14.49,1.38-21.76,1.46c-3.64,0.04-7.28-0.01-10.91-0.13c-1.82-0.06-3.64-0.14-5.45-0.23l-2.73-0.15l-2.65-0.18     l-0.2-0.01l-0.09-0.09l-15.2-15.18l-0.48-0.48l0.63-0.23c10.9-4.01,22.09-7.11,33.47-9.36c5.7-1.09,11.44-1.95,17.23-2.43     c5.78-0.5,11.61-0.64,17.41-0.2c5.79,0.4,11.58,1.44,17.08,3.4c5.48,1.97,10.67,4.79,15.21,8.43c4.57,3.61,8.52,7.96,11.76,12.77     c1.62,2.4,3.08,4.91,4.35,7.52C251.35,85.73,252.47,88.42,253.28,91.19z"
   id="path169" />
		</g>
		<g
   id="g177">
			<path
   class="st17"
   d="M135.27,81.01c-1.65-0.87-2.17-2.45-1.43-4.62c0.05-0.14,0.1-0.27,0.15-0.42     c-3.76-1.42-1.62-3.34-0.43-5.15c0.15-0.23,0.28-0.45,0.38-0.67c-1.11-0.62-1.82-2.03-2-3.5c-0.03-0.24-0.05-0.49-0.05-0.74     c-0.45-0.82-0.84-2.66-0.28-4.33c0.08-0.24,0.18-0.47,0.3-0.7c0-2.73,1.14-3.13,2.42-3c0.21,0.02,0.43,0.06,0.65,0.09     c0.83-0.62,3.02-1.06,4.68-0.95c0.24,0.02,0.47,0.04,0.68,0.08c1.17-0.54,3.32-0.96,4.67,0.4c0.17,0.17,0.33,0.37,0.49,0.59     c3.12,1.81,3.42,4.01,1.65,7.32c0.02,0.29,0.04,0.57,0.05,0.84c2.17,2.05,2.74,3.92,1.53,6.26c-0.12,0.23-0.26,0.47-0.41,0.71     c0.99,0.87,1.62,1.77,1.85,2.74c0.05,0.19,0.08,0.39,0.09,0.59c0.55,2.24,0.13,3.26-0.57,3.98c-0.14,0.15-0.29,0.28-0.44,0.43     c0.32,1.72-0.01,2.65-0.9,3.19c-0.15,0.09-0.31,0.17-0.49,0.24c-0.94,1.6-2.78,1.7-4.37,1.5c-0.23-0.03-0.45-0.06-0.66-0.1     c-1.47,1.25-2.75,1.86-4,1.28c-0.18-0.08-0.36-0.19-0.53-0.33c-2.23-0.48-2.23-0.48-2.65-3.39c-0.01-0.14-0.02-0.29-0.04-0.63     c-0.01-0.17-0.02-0.39-0.11-1.17C135.45,81.38,135.38,81.2,135.27,81.01z"
   id="path173" />
			<path
   class="st18"
   d="M135.27,81.01c-0.86-0.42-1.58-1.23-1.74-2.2c-0.18-0.97,0.07-1.96,0.4-2.86l0.04,0.08     c-0.58-0.23-1.18-0.48-1.65-0.93c-0.23-0.22-0.43-0.5-0.5-0.83c-0.06-0.32-0.04-0.67,0.08-0.97c0.21-0.62,0.58-1.14,0.94-1.65     c0.37-0.51,0.72-1.02,1-1.55l0.06,0.17c-0.76-0.42-1.28-1.14-1.62-1.91c-0.17-0.38-0.3-0.79-0.38-1.2     c-0.09-0.41-0.11-0.83-0.14-1.25l0.02,0.07c-0.41-0.81-0.57-1.7-0.58-2.59c0-0.44,0.04-0.89,0.13-1.33     c0.08-0.44,0.28-0.85,0.45-1.26l-0.02,0.08c0.01-0.44,0.03-0.89,0.11-1.33c0.09-0.44,0.24-0.89,0.56-1.26     c0.31-0.38,0.8-0.57,1.26-0.61c0.47-0.05,0.91,0.04,1.34,0.1l-0.15,0.03c0.41-0.29,0.86-0.46,1.32-0.59     c0.45-0.13,0.91-0.23,1.38-0.3c0.46-0.07,0.93-0.11,1.4-0.12c0.47-0.02,0.95,0.03,1.42,0.1l-0.13,0.02     c0.91-0.41,1.91-0.62,2.92-0.51c0.5,0.06,1.01,0.21,1.44,0.49c0.46,0.27,0.76,0.68,1.08,1.06l-0.07-0.06     c0.63,0.37,1.25,0.8,1.76,1.35c0.51,0.55,0.92,1.25,1.04,2.01c0.13,0.76,0.01,1.53-0.2,2.24c-0.21,0.71-0.52,1.38-0.87,2.03     l0.03-0.13l0.05,0.85l-0.07-0.16c0.94,0.91,1.87,2,2.13,3.39c0.14,0.68,0.07,1.39-0.13,2.04c-0.19,0.66-0.53,1.25-0.87,1.82     l-0.04-0.25c0.5,0.45,0.97,0.95,1.33,1.52c0.18,0.29,0.33,0.6,0.45,0.93c0.12,0.33,0.15,0.67,0.21,1.01l0-0.03     c0.18,0.79,0.33,1.62,0.21,2.46c-0.06,0.42-0.2,0.84-0.44,1.2c-0.24,0.37-0.55,0.64-0.84,0.92l0.05-0.15     c0.12,0.68,0.2,1.4-0.01,2.11c-0.11,0.35-0.3,0.68-0.58,0.93c-0.26,0.27-0.6,0.4-0.92,0.56l0.07-0.06     c-0.49,0.86-1.42,1.41-2.36,1.56c-0.95,0.16-1.91,0.06-2.83-0.11l0.11-0.03c-0.65,0.54-1.35,1.07-2.19,1.35     c-0.41,0.13-0.86,0.2-1.3,0.11c-0.22-0.03-0.43-0.11-0.63-0.2l-0.55-0.34l0.03,0.01c-0.54-0.13-1.1-0.22-1.62-0.49     c-0.55-0.28-0.72-0.92-0.81-1.45c-0.1-0.55-0.18-1.11-0.23-1.66c-0.03-0.56-0.09-1.12-0.13-1.67l0,0L135.27,81.01z M135.27,81.01     l0.23,0.54l0,0c0.06,0.56,0.13,1.11,0.17,1.67c0.07,0.55,0.16,1.11,0.27,1.65c0.11,0.53,0.28,1.12,0.79,1.36     c0.49,0.24,1.05,0.32,1.6,0.44l0.01,0l0.02,0.01l0.53,0.31c0.19,0.08,0.38,0.15,0.58,0.17c0.4,0.07,0.81,0,1.2-0.13     c0.78-0.28,1.45-0.8,2.09-1.34l0.05-0.04l0.06,0.01c0.91,0.15,1.84,0.24,2.73,0.09c0.89-0.15,1.71-0.65,2.15-1.43l0.02-0.04     l0.05-0.03c0.29-0.14,0.6-0.27,0.82-0.5c0.23-0.21,0.39-0.49,0.48-0.8c0.17-0.62,0.1-1.3-0.02-1.96l-0.02-0.09l0.06-0.06     c0.29-0.28,0.59-0.55,0.79-0.86c0.2-0.32,0.33-0.68,0.38-1.06c0.11-0.76-0.04-1.56-0.22-2.33l0-0.03     c-0.05-0.31-0.08-0.62-0.2-0.92c-0.11-0.29-0.25-0.58-0.42-0.84c-0.34-0.53-0.79-1-1.27-1.43l-0.12-0.11l0.09-0.15     c0.32-0.56,0.64-1.12,0.81-1.73c0.18-0.6,0.24-1.23,0.11-1.84c-0.24-1.23-1.1-2.26-2.03-3.14L147,66.36L147,66.26l-0.06-0.83     l0-0.07l0.03-0.06c0.64-1.24,1.21-2.62,0.98-3.96c-0.2-1.35-1.35-2.34-2.55-3.05l-0.04-0.02l-0.04-0.04     c-0.29-0.35-0.56-0.73-0.95-0.95c-0.37-0.24-0.81-0.38-1.26-0.43c-0.9-0.11-1.85,0.08-2.68,0.45l-0.06,0.03l-0.07-0.01     c-0.44-0.06-0.88-0.12-1.33-0.1c-0.45,0.01-0.9,0.04-1.35,0.11c-0.88,0.14-1.82,0.33-2.52,0.8l-0.07,0.05l-0.08-0.01     c-0.42-0.06-0.84-0.15-1.24-0.11c-0.4,0.03-0.77,0.18-1.02,0.48c-0.52,0.6-0.58,1.52-0.6,2.35l0,0.04l-0.02,0.04     c-0.16,0.38-0.35,0.76-0.43,1.18c-0.09,0.41-0.13,0.83-0.13,1.25c0.01,0.84,0.15,1.71,0.53,2.45l0.02,0.03l0,0.04     c0.03,0.4,0.03,0.8,0.12,1.19c0.08,0.39,0.19,0.78,0.35,1.14c0.31,0.73,0.8,1.4,1.49,1.79l0.11,0.06l-0.06,0.11     c-0.3,0.57-0.66,1.09-1.04,1.59c-0.36,0.5-0.74,1-0.94,1.57c-0.12,0.28-0.14,0.58-0.09,0.87c0.06,0.29,0.23,0.54,0.44,0.75     c0.43,0.43,1.01,0.69,1.58,0.93l0.06,0.03l-0.02,0.06c-0.35,0.89-0.61,1.85-0.46,2.8C133.73,79.75,134.42,80.56,135.27,81.01z"
   id="path175" />
		</g>
	</g>
</g>
</svg>
