<?xml version="1.0" encoding="UTF-8" standalone="no"?>
<svg
   xmlns:dc="http://purl.org/dc/elements/1.1/"
   xmlns:cc="http://creativecommons.org/ns#"
   xmlns:rdf="http://www.w3.org/1999/02/22-rdf-syntax-ns#"
   xmlns:svg="http://www.w3.org/2000/svg"
   xmlns="http://www.w3.org/2000/svg"
   xmlns:xlink="http://www.w3.org/1999/xlink"
   version="1.1"
   id="Frame_1"
   x="0px"
   y="0px"
   viewBox="0 0 388.11 223.36"
   style="enable-background:new 0 0 388.11 223.36;"
   xml:space="preserve"><metadata
   id="metadata186"><rdf:RDF><cc:Work
       rdf:about=""><dc:format>image/svg+xml</dc:format><dc:type
         rdf:resource="http://purl.org/dc/dcmitype/StillImage" /><dc:title></dc:title></cc:Work></rdf:RDF></metadata><defs
   id="defs184" />
<style
   type="text/css"
   id="style2">
	.st0{fill:#939598;}
	.st1{fill:#231F20;}
	.st2{fill:#BA131F;stroke:#8C1313;stroke-width:0.25;stroke-miterlimit:10;}
	.st3{fill:#414042;}
	.st4{fill:#6D6E71;}
	.st5{fill:#353535;}
	.st6{fill:#F7CA33;stroke:#D3A52A;stroke-width:0.25;stroke-miterlimit:10;}
	.st7{fill:#BB8C61;}
	.st8{fill:#8E6442;}
	.st9{clip-path:url(#SVGID_1_);fill:#BB8C61;}
	.st10{clip-path:url(#SVGID_1_);fill:#9B7353;}
	.st11{clip-path:url(#SVGID_1_);}
	.st12{fill:#8B5E3C;}
	.st13{fill:#ED001D;stroke:#8C1313;stroke-width:0.6;stroke-miterlimit:10;}
	.st14{fill:#FFF5DC;stroke:#CEC8BA;stroke-width:0.6;stroke-miterlimit:10;}
	.st15{fill:#ED001D;stroke:#8C1313;stroke-miterlimit:10;}
	.st16{fill:#FFFBF0;}
	.st17{fill:#CEC8BA;}
	.st18{fill:#FFE1D9;stroke:#CEC8BA;stroke-width:0.6;stroke-miterlimit:10;}
	.st19{fill:#FFE1D9;}
	.st20{fill:#FCB1A2;}
	.st21{fill:#FFFBF0;stroke:#CEC8BA;stroke-width:0.6;stroke-miterlimit:10;}
	.st22{fill:#ED001D;}
	.st23{fill:#8C1313;}
</style>
<symbol
   id="Novo_símbolo_1"
   viewBox="-46.88 -26.8 93.75 53.6">
	<g
   id="g14">
		<rect
   x="26.68"
   y="-3.06"
   class="st0"
   width="3.69"
   height="6.19"
   id="rect4" />
		<path
   class="st1"
   d="M40.65-1.59H16.39c-0.89,0-1.62,0.73-1.62,1.62v0c0,0.89,0.73,1.62,1.62,1.62h24.26    c0.89,0,1.62-0.73,1.62-1.62v0C42.27-0.86,41.55-1.59,40.65-1.59z"
   id="path6" />
		<g
   id="g12">
			<path
   class="st2"
   d="M30.4,3.48c-0.01,0-0.02,0-0.02,0H15.38L9.11,1.07l0.39-1.01l6.09,2.34h14.81c0,0,0.01,0,0.02,0     c0.3,0,0.54,0.24,0.54,0.54C30.94,3.24,30.7,3.48,30.4,3.48z"
   id="path8" />
			<path
   class="st2"
   d="M30.4-2.4c-0.01,0-0.02,0-0.02,0H15.58L9.49-0.06L9.11-1.07l6.27-2.41h15.01c0,0,0.01,0,0.02,0     c0.3,0,0.54,0.24,0.54,0.54C30.94-2.64,30.7-2.4,30.4-2.4z"
   id="path10" />
		</g>
	</g>
	<g
   id="g46">
		<path
   class="st1"
   d="M39.01,23.56H21.73c-0.89,0-1.62,0.73-1.62,1.62v0c0,0.89,0.73,1.62,1.62,1.62h17.28    c0.89,0,1.62-0.73,1.62-1.62v0C40.63,24.28,39.9,23.56,39.01,23.56z"
   id="path16" />
		<path
   class="st1"
   d="M38.65-26.8H21.37c-0.89,0-1.62,0.73-1.62,1.62v0c0,0.89,0.73,1.62,1.62,1.62h17.28    c0.89,0,1.62-0.73,1.62-1.62v0C40.27-26.07,39.54-26.8,38.65-26.8z"
   id="path18" />
		<g
   id="g44">
			<g
   id="g24">
				<rect
   x="14.29"
   y="-22.9"
   class="st3"
   width="32.15"
   height="45.79"
   id="rect20" />
				<path
   class="st4"
   d="M46.88-23.56H13.86v47.12h33.02V-23.56z M14.73-22.7H46v45.26H14.73V-22.7z"
   id="path22" />
			</g>
			<rect
   x="18.44"
   y="-15.92"
   class="st5"
   width="23.86"
   height="31.83"
   id="rect26" />
			<g
   id="g30">
				<path
   class="st5"
   d="M14.73,22.56c0.71-1.06,1.33-2.16,1.96-3.26c0.6-1.11,1.22-2.22,1.74-3.38c-0.71,1.06-1.33,2.16-1.96,3.26      C15.87,20.29,15.26,21.4,14.73,22.56z"
   id="path28" />
			</g>
			<g
   id="g34">
				<path
   class="st5"
   d="M42.3-15.92c0.71-1.08,1.33-2.21,1.96-3.33c0.6-1.14,1.22-2.27,1.74-3.45c-0.71,1.08-1.33,2.21-1.96,3.33      C43.44-18.23,42.83-17.1,42.3-15.92z"
   id="path32" />
			</g>
			<g
   id="g38">
				<path
   class="st5"
   d="M14.73-22.7c0.53,1.16,1.14,2.27,1.74,3.38c0.63,1.1,1.25,2.2,1.96,3.26c-0.53-1.16-1.14-2.27-1.74-3.38      C16.06-20.54,15.44-21.65,14.73-22.7z"
   id="path36" />
			</g>
			<g
   id="g42">
				<path
   class="st5"
   d="M42.3,15.77c0.53,1.18,1.14,2.31,1.74,3.45c0.63,1.12,1.25,2.25,1.96,3.33c-0.53-1.18-1.14-2.31-1.74-3.45      C43.63,17.98,43.01,16.86,42.3,15.77z"
   id="path40" />
			</g>
		</g>
	</g>
	<rect
   x="-30.3"
   y="-0.84"
   class="st2"
   width="45.07"
   height="1.68"
   id="rect48" />
	<path
   class="st1"
   d="M16.58,0.01c0-2.42-2.63-6.05-4.38-4.38C9.56-1.85,1.82-2.41,1.82,0.01S9.2,1.77,12.2,4.39   C14.02,5.99,16.58,2.43,16.58,0.01z"
   id="path50" />
	<g
   id="g60">
		<rect
   x="-36.9"
   y="-3.25"
   class="st0"
   width="0.57"
   height="6.5"
   id="rect52" />
		<path
   class="st1"
   d="M-27.98-1.63h-17.28c-0.89,0-1.62,0.73-1.62,1.62v0c0,0.89,0.73,1.62,1.62,1.62h17.28    c0.89,0,1.62-0.73,1.62-1.62v0C-26.36-0.91-27.08-1.63-27.98-1.63z"
   id="path54" />
		<path
   class="st5"
   d="M-32.29,3.32h-4.47c-0.38,0-0.69-0.31-0.69-0.69c0-0.38,0.31-0.69,0.69-0.69h4.47c0,0,1.52,0.07,1.52-1.94    c0-2-1.52-1.94-1.52-1.94h-4.47c-0.38,0-0.69-0.31-0.69-0.69c0-0.38,0.31-0.69,0.69-0.69h4.47c0,0,3.04,0.03,3.04,3.32    C-29.25,3.29-32.29,3.32-32.29,3.32z"
   id="path56" />
		<path
   class="st2"
   d="M-23.17-1.08h-5.92c-0.59,0-1.08,0.48-1.08,1.08v0c0,0.59,0.48,1.08,1.08,1.08h5.92    c0.59,0,1.08-0.48,1.08-1.08v0C-22.09-0.59-22.58-1.08-23.17-1.08z"
   id="path58" />
	</g>
	<g
   id="g78">
		<path
   class="st2"
   d="M-19.66-1.15h-6.83c-0.64,0-1.17,0.52-1.17,1.17v0.24c0,0.64,0.52,1.17,1.17,1.17h6.83    c0.64,0,1.17-0.52,1.17-1.17V0.02C-18.49-0.62-19.01-1.15-19.66-1.15z"
   id="path62" />
		<circle
   class="st2"
   cx="-19.76"
   cy="0.14"
   r="1.26"
   id="circle64" />
		<path
   class="st0"
   d="M-17.89-0.43h-1.65c-0.34,0-0.61,0.27-0.61,0.61v0c0,0.34,0.27,0.61,0.61,0.61h1.65    c0.34,0,0.61-0.27,0.61-0.61v0C-17.28-0.16-17.56-0.43-17.89-0.43z"
   id="path66" />
		<g
   id="g76">
			<path
   class="st2"
   d="M-15.97-9.18h-1.2l-0.5,4.68c-0.33,3.1-0.33,6.24,0,9.34l0.5,4.68h1.2l-0.5-4.68c-0.33-3.1-0.33-6.24,0-9.34     L-15.97-9.18z"
   id="path68" />
			<path
   class="st0"
   d="M-16.88-5.05L-16.88-5.05c-0.2,0-0.36,0.16-0.36,0.36v9.74c0,0.2,0.16,0.36,0.36,0.36h0     c0.2,0,0.36-0.16,0.36-0.36V-4.7C-16.53-4.9-16.68-5.05-16.88-5.05z"
   id="path70" />
			<path
   class="st6"
   d="M-16.32,7.28l-0.91,0.16c-0.22,0.04-0.37,0.25-0.33,0.47l1.26,7.02c0.04,0.22,0.25,0.37,0.47,0.33l0.91-0.16     c0.22-0.04,0.37-0.25,0.33-0.47l-1.26-7.02C-15.89,7.39-16.1,7.24-16.32,7.28z"
   id="path72" />
			<path
   class="st6"
   d="M-16.32-6.94l-0.91-0.16c-0.22-0.04-0.37-0.25-0.33-0.47l1.32-7.36c0.04-0.22,0.25-0.37,0.47-0.33l0.91,0.16     c0.22,0.04,0.37,0.25,0.33,0.47l-1.32,7.36C-15.89-7.04-16.1-6.9-16.32-6.94z"
   id="path74" />
		</g>
	</g>
</symbol>
<path
   d="M257.4,68.16c-4.3-3.85-9.43-6.88-15.26-9c-0.91-1.02-1.82-1.99-2.73-2.89c-4.91-4.86-10.45-8.65-16.47-11.26  c-3.14-1.36-6.37-2.4-9.59-3.1c-3.05-0.66-6.22-1.09-9.78-1.34c-6.12-0.35-12.56-0.04-19.1,0.91c-5.88,0.82-11.89,2.09-18.4,3.87  c-6.68,1.87-13.33,4.1-19.81,6.64c-0.76-0.33-1.59-0.55-2.48-0.66c-1.35-0.15-2.71-0.03-4.05,0.37c-0.28-0.01-0.58-0.02-0.88-0.01  c-0.65,0.02-1.32,0.07-1.99,0.17c-0.73,0.11-1.41,0.26-2.1,0.46c-0.19,0.06-0.42,0.13-0.67,0.22c-0.25-0.01-0.52,0.01-0.81,0.03  c-1.09,0.09-2.14,0.43-3.05,0.98c-11.31-2.14-15.87,2.58-17.61,5.76c-0.81,1.48-3.06,5.58-1.79,9.37c-0.48,1.64-0.58,3.95,0.76,6.74  c0.38,0.8,0.81,1.61,1.32,2.36c-0.13,2.26,0.5,4.35,1.88,5.99c1.8,2.15,4.53,3.23,8.12,3.23c2.24,0,4.89-0.42,8.05-1.27  c0.54,2.95,2.18,4.35,3.44,4.99c0.73,0.37,1.41,0.58,1.95,0.72l0.06,0.04c-0.87,1.12-1.52,2.42-1.93,3.84  c-0.17,0.57-0.28,1.13-0.36,1.66c-0.95,1.06-1.68,2.17-2.19,3.33c-0.53,1.19-0.84,2.45-0.91,3.73c-0.01,0.14-0.02,0.27-0.02,0.4  c-0.18,0.27-0.35,0.56-0.5,0.86c-0.92,1.89-0.96,4.12-0.15,6.06c0.36,0.9,0.81,1.66,1.25,2.32c-0.11,0.83-0.16,1.72-0.1,2.65  c0.09,1.35,0.46,2.67,1.1,3.88c0,0.01,0.01,0.01,0.01,0.02c-0.05,0.48-0.05,0.99-0.01,1.53c0.14,1.47,0.74,2.88,1.7,3.98  c0.56,0.65,1.14,1.07,1.55,1.34c0.08,0.12,0.2,0.32,0.4,0.68c0.15,0.28,0.29,0.57,0.43,0.85c0.29,0.59,0.62,1.25,1.03,1.97  c0.11,0.19,0.24,0.4,0.38,0.61c-0.51,0.13-0.93,0.3-1.26,0.44l-0.33,0.15l-0.15,0.09c-0.54,0.14-1.22,0.34-1.93,0.71  c-1.14,0.58-2.56,1.75-3.24,4.08c-6.02-1.67-12.71-2.49-16.39,1.91c-1.37,1.64-2.01,3.73-1.87,5.99c-0.51,0.75-0.94,1.56-1.32,2.36  c-1.34,2.8-1.24,5.1-0.76,6.75c-1.26,3.79,0.98,7.89,1.79,9.37c1.57,2.87,4.98,6.29,12.28,6.29c1.34,0,2.77-0.12,4.26-0.35  c1.11,1.01,2.56,1.65,4.11,1.77c0.29,0.03,0.56,0.03,0.81,0.03c0.25,0.09,0.49,0.17,0.69,0.23c0.66,0.2,1.33,0.34,2.07,0.46  c0.67,0.1,1.34,0.16,1.98,0.17c0.31,0.01,0.6,0.01,0.88-0.01c1.35,0.39,2.71,0.51,4.09,0.36c0.87-0.1,1.68-0.32,2.44-0.65  c6.48,2.54,13.14,4.77,19.84,6.65c6.49,1.78,12.5,3.04,18.35,3.86c4.81,0.7,9.55,1.05,14.17,1.05c1.69,0,3.36-0.05,5.02-0.14  c3.49-0.24,6.67-0.68,9.73-1.34c3.22-0.7,6.44-1.74,9.59-3.1c6.02-2.61,11.57-6.4,16.46-11.25c1.32-1.3,2.62-2.71,3.86-4.2  c5.38-2.02,10.13-4.83,14.14-8.36c10.88-9.58,16.4-24.07,16.4-43.07C273.79,92.46,268.27,77.89,257.4,68.16z"
   id="path81" />
<path
   d="M386.19,103.5c-0.09-1.6-0.21-3.18-0.36-4.71c-0.12-1.21-0.26-2.47-0.44-3.92c3.41-11.11-2.37-20.59-7.04-28.26  c-3.25-5.33-6.31-10.36-5.83-14.69l0.11-0.94l-0.25-0.92c-0.46-1.7-1.04-3.37-1.71-4.96c-6.55-15.37-22.74-25.2-44.49-27.01  c-1.82-0.6-3.55-1.1-5.29-1.55c-7.99-2.04-16.38-2.74-24.57-2.09l-0.48,0.04l-0.46,0.13c-1.96,0.55-3.97,1.16-5.97,1.83  c-23.68,4.07-40.45,16.73-47.25,35.66l-0.05,0.14c-0.42,1.29-0.78,2.6-1.08,3.89c-1.53,6.66-1.51,13.41,0.08,20.08  c0.12,0.76,0.64,4.09,1.2,8.99c0.12,1.08,0.26,2.32,0.34,3.62c-3.99,14.21-6.56,27.12,0.6,40.19c-0.02,0.47-0.07,0.99-0.13,1.59  c-0.12,1.09-0.26,2.17-0.4,3.23c-0.15,1.02-0.3,2.03-0.48,3.01c-0.17,0.94-0.37,1.84-0.61,2.68c-0.18,0.65-0.39,1.32-0.62,1.99  c-8.94,12.43-1.42,24.54,4.11,33.43c1.95,3.15,3.8,6.12,4.97,8.91l0.12,0.26c0.9,1.84,1.97,3.63,3.19,5.34  c7.86,10.98,22.57,19.18,39.39,19.18c7.47,0,15.36-1.62,23.24-5.33c2.03,0.04,4.04-0.01,6-0.14c27.89-1.92,43.02-20.49,48.01-37.52  c0.98-1.51,1.93-3.06,2.83-4.63C386.87,140.12,390.99,122.35,386.19,103.5z"
   id="path83" />
<path
   d="M383.2,12.9h-24.97c0.06-0.48,0.09-0.96,0.09-1.45c0-6.31-5.14-11.45-11.45-11.45h-68.79c-6.31,0-11.45,5.14-11.45,11.45  c0,0.48,0.03,0.97,0.09,1.45h-24.97v74.98c-1.76,0.4-3.4,1.25-4.88,2.54c-4.7,4.11-13.66,5.98-21.56,7.64  c-6.37,1.33-11.89,2.49-15.79,4.77h-68.72l0-1.22c0.16-2.95,0.4-5.86,0.69-8.63l0.77-7.22c0.85-0.97,1.41-2.14,1.64-3.41l5.01-27.93  c0.69-3.86-1.89-7.57-5.76-8.27l-3.62-0.65c-1.88-0.34-3.77,0.08-5.32,1.16c-1.56,1.08-2.61,2.71-2.94,4.59l-5.01,27.92  c-0.25,1.37-0.09,2.75,0.44,4.02l-0.92,8.61c-0.31,2.86-0.53,5.77-0.69,8.86c-0.58-0.11-1.16-0.16-1.75-0.16h-27.2  c-0.81,0-1.63,0.11-2.42,0.32c-1.14-0.37-2.31-0.56-3.5-0.56H76.7c-4.95-6.64-13.29-6.8-13.66-6.8h-17.8c-3.93,0-7.19,2.94-7.68,6.8  H11.45C5.14,100.28,0,105.41,0,111.72c0,6.31,5.14,11.45,11.45,11.45h26.12c0.51,3.78,3.76,6.71,7.68,6.71l17.86,0  c0.35,0,8.57-0.18,13.52-6.71h3.61c1.94,0,3.84-0.5,5.54-1.45c0.12,0.01,0.25,0.01,0.38,0.01h27.2c0.6,0,1.19-0.06,1.77-0.17  c0.16,3.07,0.38,5.9,0.67,8.6l0.92,8.6c-0.54,1.27-0.69,2.65-0.44,4.01l5.25,29.29c0.33,1.88,1.38,3.51,2.95,4.6  c1.2,0.83,2.6,1.27,4.06,1.27c0.43,0,0.87-0.04,1.26-0.11l3.62-0.65c1.87-0.34,3.5-1.38,4.58-2.95c1.09-1.56,1.5-3.46,1.16-5.32  l-5.25-29.29c-0.23-1.28-0.79-2.46-1.64-3.43l-0.77-7.21c-0.29-2.74-0.52-5.61-0.69-8.47h68.97c4.02,2.27,9.67,3.46,16.2,4.84  c7.87,1.66,16.78,3.54,20.74,7.31c1.47,1.4,3.19,2.35,5.04,2.78v75.01h23.53c-0.06,0.48-0.09,0.96-0.09,1.45  c0,6.31,5.14,11.45,11.45,11.45h68.79c6.31,0,11.45-5.14,11.45-11.45c0-0.49-0.03-0.97-0.09-1.45h26.4V12.9z"
   id="path85" />
<g
   id="use87">
	<g
   id="g1231">
		<path
   id="rect1221"
   style="fill:#939598"
   d="M 297.801 123.606 L 312.49 123.606 L 312.49 98.9657 L 297.801 98.9657 Z"
   class="st0" />
		<path
   class="st1"
   d="M 353.41 117.754 L 256.841 117.754 C 253.298 117.754 250.392 114.848 250.392 111.306 L 250.392 111.306 C 250.392 107.763 253.298 104.857 256.841 104.857 L 353.41 104.857 C 356.953 104.857 359.859 107.763 359.859 111.306 L 359.859 111.306 C 359.859 114.848 356.993 117.754 353.41 117.754 Z"
   id="path1223" />
		<g
   id="g1229">
			<path
   class="st2"
   d="M 312.609 97.5725 C 312.569 97.5725 312.53 97.5725 312.53 97.5725 L 252.821 97.5725 L 227.862 107.166 L 229.415 111.186 L 253.657 101.872 L 312.609 101.872 C 312.609 101.872 312.649 101.872 312.689 101.872 C 313.883 101.872 314.838 100.916 314.838 99.722 C 314.759 98.5279 313.803 97.5725 312.609 97.5725 Z"
   id="path1225" />
			<path
   class="st2"
   d="M 312.609 120.978 C 312.569 120.978 312.53 120.978 312.53 120.978 L 253.617 120.978 L 229.375 111.664 L 227.862 115.684 L 252.821 125.277 L 312.569 125.277 C 312.569 125.277 312.609 125.277 312.649 125.277 C 313.843 125.277 314.799 124.322 314.799 123.128 C 314.759 121.934 313.803 120.978 312.609 120.978 Z"
   id="path1227" />
		</g>
	</g>
	<g
   id="g1263">
		<path
   class="st1"
   d="M 346.882 17.6421 L 278.097 17.6421 C 274.555 17.6421 271.649 14.7362 271.649 11.1935 L 271.649 11.1935 C 271.649 7.65076 274.555 4.74492 278.097 4.74492 L 346.882 4.74492 C 350.425 4.74492 353.331 7.65076 353.331 11.1935 L 353.331 11.1935 C 353.331 14.776 350.425 17.6421 346.882 17.6421 Z"
   id="path1233" />
		<path
   class="st1"
   d="M 345.449 218.105 L 276.664 218.105 C 273.122 218.105 270.216 215.199 270.216 211.657 L 270.216 211.657 C 270.216 208.114 273.122 205.208 276.664 205.208 L 345.449 205.208 C 348.992 205.208 351.898 208.114 351.898 211.657 L 351.898 211.657 C 351.898 215.199 348.992 218.105 345.449 218.105 Z"
   id="path1235" />
		<g
   id="g1261">
			<g
   id="g1241">
				<path
   id="rect1237"
   style="fill:#414042"
   d="M 248.482 202.581 L 376.458 202.581 L 376.458 20.3091 L 248.482 20.3091 Z"
   class="st3" />
				<path
   class="st4"
   d="M 378.21 205.208 L 246.77 205.208 L 246.77 17.6421 L 378.21 17.6421 Z M 250.233 201.785 L 374.707 201.785 L 374.707 21.6227 L 250.233 21.6227 Z"
   id="path1239" />
			</g>
			<path
   id="rect1243"
   style="fill:#353535"
   d="M 265.001 174.796 L 359.978 174.796 L 359.978 48.0937 L 265.001 48.0937 Z"
   class="st5" />
			<g
   id="g1247">
				<path
   class="st5"
   d="M 250.233 21.6227 C 253.059 25.8421 255.527 30.2208 258.035 34.5994 C 260.424 39.0179 262.892 43.4364 264.961 48.0538 C 262.135 43.8344 259.667 39.4558 257.159 35.0771 C 254.771 30.6586 252.343 26.2402 250.233 21.6227 Z"
   id="path1245" />
			</g>
			<g
   id="g1251">
				<path
   class="st5"
   d="M 359.978 174.796 C 362.805 179.095 365.273 183.593 367.78 188.052 C 370.169 192.589 372.637 197.088 374.707 201.785 C 371.88 197.486 369.412 192.987 366.905 188.529 C 364.516 183.991 362.088 179.493 359.978 174.796 Z"
   id="path1249" />
			</g>
			<g
   id="g1255">
				<path
   class="st5"
   d="M 250.233 201.785 C 252.343 197.167 254.771 192.749 257.159 188.33 C 259.667 183.952 262.135 179.573 264.961 175.353 C 262.852 179.971 260.424 184.389 258.035 188.808 C 255.527 193.187 253.059 197.605 250.233 201.785 Z"
   id="path1253" />
			</g>
			<g
   id="g1259">
				<path
   class="st5"
   d="M 359.978 48.6509 C 362.088 43.9538 364.516 39.4558 366.905 34.9179 C 369.412 30.4596 371.88 25.9615 374.707 21.6625 C 372.597 26.3596 370.169 30.8577 367.78 35.3955 C 365.273 39.8538 362.805 44.3121 359.978 48.6509 Z"
   id="path1257" />
			</g>
		</g>
	</g>
	<path
   id="rect1265"
   style="fill:#ba131f;stroke:#8c1313;stroke-miterlimit:10;stroke-width:0.99515"
   d="M 70.9868 114.769 L 250.392 114.769 L 250.392 108.081 L 70.9868 108.081 Z"
   class="st2" />
	<path
   class="st1"
   d="M 257.597 111.385 C 257.597 121.018 247.128 135.468 240.162 128.82 C 229.654 118.789 198.844 121.018 198.844 111.385 C 198.844 101.752 228.221 104.379 240.162 93.9502 C 247.407 87.5812 257.597 101.752 257.597 111.385 Z"
   id="path1267" />
	<g
   id="g1277">
		<path
   id="rect1269"
   style="fill:#939598"
   d="M 44.7149 124.362 L 46.9838 124.362 L 46.9838 98.4881 L 44.7149 98.4881 Z"
   class="st0" />
		<path
   class="st1"
   d="M 80.2218 117.913 L 11.437 117.913 C 7.89431 117.913 4.98847 115.008 4.98847 111.465 L 4.98847 111.465 C 4.98847 107.922 7.89431 105.016 11.437 105.016 L 80.2218 105.016 C 83.7645 105.016 86.6704 107.922 86.6704 111.465 L 86.6704 111.465 C 86.6704 115.047 83.8044 117.913 80.2218 117.913 Z"
   id="path1271" />
		<path
   class="st5"
   d="M 63.0654 98.2094 L 45.2721 98.2094 C 43.7595 98.2094 42.5255 99.4434 42.5255 100.956 C 42.5255 102.469 43.7595 103.703 45.2721 103.703 L 63.0654 103.703 C 63.0654 103.703 69.1159 103.424 69.1159 111.425 C 69.1159 119.386 63.0654 119.147 63.0654 119.147 L 45.2721 119.147 C 43.7595 119.147 42.5255 120.381 42.5255 121.894 C 42.5255 123.407 43.7595 124.641 45.2721 124.641 L 63.0654 124.641 C 63.0654 124.641 75.1664 124.521 75.1664 111.425 C 75.1664 98.3288 63.0654 98.2094 63.0654 98.2094 Z"
   id="path1273" />
		<path
   class="st2"
   d="M 99.3685 115.724 L 75.8033 115.724 C 73.4548 115.724 71.5043 113.813 71.5043 111.425 L 71.5043 111.425 C 71.5043 109.076 73.415 107.126 75.8033 107.126 L 99.3685 107.126 C 101.717 107.126 103.668 109.037 103.668 111.425 L 103.668 111.425 C 103.668 113.774 101.717 115.724 99.3685 115.724 Z"
   id="path1275" />
	</g>
	<g
   id="g1295">
		<path
   class="st2"
   d="M 113.34 116.003 L 86.1529 116.003 C 83.6053 116.003 81.4956 113.933 81.4956 111.345 L 81.4956 110.39 C 81.4956 107.842 83.5655 105.733 86.1529 105.733 L 113.34 105.733 C 115.888 105.733 117.998 107.803 117.998 110.39 L 117.998 111.345 C 117.998 113.893 115.928 116.003 113.34 116.003 Z"
   id="path1279" />
		<path
   id="circle1281"
   style="fill:#ba131f;stroke:#8c1313;stroke-miterlimit:10;stroke-width:0.99515"
   d="M 117.958 110.868 C 117.958 109.538 117.429 108.262 116.489 107.321 C 115.548 106.381 114.273 105.852 112.942 105.852 C 111.612 105.852 110.336 106.381 109.396 107.321 C 108.455 108.262 107.927 109.538 107.927 110.868 C 107.927 112.198 108.455 113.474 109.396 114.414 C 110.336 115.355 111.612 115.883 112.942 115.883 C 114.273 115.883 115.548 115.355 116.489 114.414 C 117.429 113.474 117.958 112.198 117.958 110.868 Z"
   class="st2" />
		<path
   class="st0"
   d="M 120.386 113.137 L 113.818 113.137 C 112.465 113.137 111.39 112.062 111.39 110.708 L 111.39 110.708 C 111.39 109.355 112.465 108.28 113.818 108.28 L 120.386 108.28 C 121.739 108.28 122.814 109.355 122.814 110.708 L 122.814 110.708 C 122.814 112.062 121.7 113.137 120.386 113.137 Z"
   id="path1283" />
		<g
   id="g1293">
			<path
   class="st2"
   d="M 128.029 147.967 L 123.252 147.967 L 121.262 129.338 C 119.948 116.998 119.948 104.499 121.262 92.1589 L 123.252 73.5297 L 128.029 73.5297 L 126.039 92.1589 C 124.725 104.499 124.725 116.998 126.039 129.338 Z"
   id="path1285" />
			<path
   class="st0"
   d="M 124.406 131.527 L 124.406 131.527 C 123.61 131.527 122.973 130.89 122.973 130.094 L 122.973 91.323 C 122.973 90.5268 123.61 89.89 124.406 89.89 L 124.406 89.89 C 125.203 89.89 125.839 90.5268 125.839 91.323 L 125.839 130.134 C 125.8 130.93 125.203 131.527 124.406 131.527 Z"
   id="path1287" />
			<path
   class="st6"
   d="M 126.636 82.4462 L 123.013 81.8093 C 122.138 81.6501 121.54 80.8142 121.7 79.9385 L 126.715 51.9946 C 126.874 51.1189 127.71 50.5218 128.586 50.681 L 132.208 51.3179 C 133.084 51.4772 133.681 52.3131 133.522 53.1888 L 128.506 81.1326 C 128.347 82.0084 127.511 82.6055 126.636 82.4462 Z"
   id="path1289" />
			<path
   class="st6"
   d="M 126.636 139.05 L 123.013 139.687 C 122.138 139.846 121.54 140.682 121.7 141.558 L 126.954 170.855 C 127.113 171.731 127.949 172.328 128.825 172.169 L 132.447 171.532 C 133.323 171.373 133.92 170.537 133.761 169.661 L 128.506 140.364 C 128.347 139.448 127.511 138.891 126.636 139.05 Z"
   id="path1291" />
		</g>
	</g>
</g>
<g
   id="g121">
	<g
   id="g93">
		<path
   class="st7"
   d="M245.47,143.91c-10.32,13.48,4.22,26.07,9.23,38.02c0.78,1.6,1.71,3.14,2.76,4.62    c10.59,14.8,34.6,23.1,57.48,11.72c2.32,0.09,4.56,0.05,6.73-0.1c23.88-1.65,38.95-17.2,43.75-34.64c1.11-1.68,2.17-3.4,3.18-5.16    c11.94-17.76,17.75-34.54,12.61-54.1c-0.09-1.68-0.21-3.34-0.37-4.99c-0.16-1.65-0.36-3.28-0.57-4.9    c6.08-16.69-14.27-29.27-12.74-43.01c-0.4-1.48-0.89-2.91-1.49-4.31c-5.33-12.51-18.98-22.37-40.89-24.04    c-1.83-0.61-3.67-1.16-5.52-1.64c-5.57-1.42-11.37-2.17-17.32-2.17c-1.89,0-3.76,0.08-5.61,0.22c-2.09,0.58-4.11,1.21-6.09,1.88    c-23.49,3.93-38.03,16.52-43.77,32.48c-0.37,1.15-0.69,2.3-0.96,3.47c-1.34,5.83-1.36,11.92,0.12,17.97c0,0,0.6,3.61,1.26,9.41    c0.17,1.45,0.33,3.04,0.41,4.74c-3.82,13.47-6.73,26.05,0.57,38.32c0.04,1.17-0.04,2.32-0.17,3.45c-0.13,1.14-0.27,2.26-0.42,3.38    c-0.15,1.07-0.32,2.14-0.5,3.19c-0.19,1.05-0.42,2.1-0.71,3.12C246.17,141.89,245.84,142.91,245.47,143.91z"
   id="path89" />
		<path
   class="st8"
   d="M245.69,144.03c-1.43,1.88-2.49,3.88-3.09,6.09c-0.57,2.2-0.63,4.53-0.21,6.77    c0.83,4.52,3.14,8.62,5.51,12.55c5.44,7.49,7.88,17.03,15.2,22.93c6.89,6.11,15.82,9.77,24.96,10.7    c9.17,0.95,18.55-0.9,26.78-5.03l0.06-0.03l0.06,0c5.5,0.4,11.08-0.07,16.45-1.39c5.36-1.36,10.49-3.63,15.06-6.73    c4.54-3.14,8.51-7.09,11.63-11.62c3.15-4.51,5.41-9.59,6.85-14.87l0.02-0.08l0.05-0.07c1.1-1.68,2.14-3.4,3.12-5.15l0.01-0.01    l0.01-0.02c2.62-3.99,5.09-8.07,7.24-12.31c2.14-4.25,3.94-8.67,5.19-13.24c1.24-4.57,1.98-9.29,2.01-14.04    c0.04-4.74-0.6-9.48-1.73-14.1l-0.01-0.04l0-0.04l-0.3-4.94l-0.51-4.93l0,0l-0.01-0.07l0.02-0.05c0.68-1.78,1.1-3.66,1.21-5.58    c0.11-1.91-0.12-3.84-0.57-5.71c-0.91-3.75-2.73-7.21-4.66-10.54c-1.92-3.35-4.1-6.54-5.85-9.99c-0.89-1.71-1.68-3.49-2.21-5.36    c-0.54-1.86-0.83-3.82-0.66-5.79l0,0l0.01,0.09c-1.16-4.36-3.28-8.44-6.1-11.95c-2.84-3.51-6.35-6.44-10.23-8.73    c-3.88-2.31-8.11-4.01-12.46-5.21c-4.36-1.2-8.85-1.91-13.35-2.27l-0.03,0l-0.03-0.01c-4.55-1.53-9.24-2.64-14-3.23    c-4.76-0.59-9.58-0.7-14.36-0.31l0.05-0.01c-2.04,0.57-4.06,1.2-6.07,1.88l-0.02,0.01l-0.02,0c-6.46,1.11-12.83,2.93-18.73,5.77    c-5.9,2.83-11.34,6.67-15.74,11.52c-4.38,4.83-7.78,10.63-9.58,16.89c-1.73,6.3-1.81,13.02-0.26,19.36l0,0.01l0,0.01    c0.38,2.36,0.7,4.71,0.99,7.07c0.28,2.36,0.59,4.72,0.7,7.12l0,0.06l-0.02,0.06c-1.78,6.33-3.48,12.73-3.84,19.27    c-0.19,3.26,0,6.55,0.71,9.73c0.71,3.18,1.92,6.25,3.55,9.09l0,0.01l0.03,0.06l0,0.06c0.05,1.4-0.08,2.79-0.25,4.15    c-0.18,1.37-0.32,2.74-0.56,4.1c-0.21,1.36-0.42,2.73-0.76,4.07C246.59,141.39,246.2,142.66,245.69,144.03z M245.25,143.79    c0.44-1.21,0.87-2.57,1.19-3.88c0.34-1.32,0.55-2.68,0.76-4.03c0.23-1.35,0.38-2.72,0.55-4.08c0.18-1.36,0.3-2.72,0.25-4.08    l0.03,0.12l0-0.01c-1.74-2.83-3.05-5.94-3.79-9.19c-0.76-3.25-0.98-6.6-0.82-9.92c0.17-3.32,0.71-6.61,1.41-9.84    c0.71-3.23,1.58-6.42,2.48-9.59l-0.01,0.12c-0.11-2.35-0.4-4.71-0.68-7.07c-0.29-2.35-0.6-4.71-0.97-7.05l0.01,0.03    c-1.57-6.45-1.47-13.31,0.3-19.71c1.86-6.39,5.31-12.24,9.77-17.15c4.46-4.91,9.99-8.79,15.95-11.64    c5.97-2.86,12.39-4.69,18.9-5.79l-0.04,0.01c2.02-0.68,4.05-1.31,6.1-1.88l0.03-0.01l0.03,0c4.82-0.38,9.67-0.26,14.47,0.34    c4.79,0.61,9.52,1.73,14.09,3.28l-0.06-0.01c4.54,0.36,9.06,1.07,13.45,2.28c4.39,1.21,8.66,2.93,12.58,5.27    c3.93,2.32,7.49,5.29,10.37,8.85c2.86,3.56,5.02,7.71,6.19,12.13l0.01,0.04l0,0.05l0,0c-0.25,1.88-0.08,3.81,0.39,5.67    c0.48,1.86,1.21,3.65,2.06,5.38c1.74,3.44,3.83,6.69,5.8,10.01c1.96,3.32,3.77,6.77,4.78,10.51c1.02,3.73,0.98,7.78-0.3,11.49    l0.01-0.12l0,0l0.64,4.94l0.43,4.96l-0.01-0.08c1.3,4.64,2,9.46,2.02,14.3c0.02,4.84-0.63,9.68-1.91,14.34    c-1.27,4.67-3.09,9.16-5.25,13.47c-2.16,4.31-4.66,8.43-7.38,12.4l0.02-0.03c-1.02,1.76-2.1,3.48-3.23,5.17l0.07-0.15    c-1.52,5.38-4.05,10.46-7.34,14.95c-3.28,4.5-7.4,8.35-12.02,11.41c-4.61,3.08-9.79,5.26-15.15,6.61    c-5.36,1.37-10.92,1.91-16.47,1.88l0.12-0.03c-8.31,4.17-17.79,6.04-27.06,5.08c-9.24-0.93-18.26-4.63-25.24-10.82    c-3.47-3.09-6.44-6.8-8.43-11.04c-1.85-4.22-4.49-8.04-6.87-12.01c-2.37-3.95-4.72-8.08-5.57-12.72c-0.44-2.3-0.37-4.71,0.22-6.99    C242.72,147.74,243.88,145.58,245.25,143.79z"
   id="path91" />
	</g>
	<g
   id="g119">
		<g
   id="g117">
			<defs
   id="defs96">
				<path
   id="SVGID_3_"
   d="M297.47,94.1c0,0,6.8,2.61,12.55-2.61c5.75-5.23,9.94,3.27,9.94,3.27s-0.78,4.84,7.06,5.62      s3.14,8.63,3.14,8.63s6.72,3.66,1.4,9.41s-13.17,1.83-12.9,9.41c0.26,7.58-10.72,5.75-13.33,1.57      c-2.61-4.18-7.84-2.87-7.84-2.87s-7.84-1.57-5.75-10.46c2.09-8.89,2.09-8.89,2.09-8.89S287.21,95.04,297.47,94.1z" />
			</defs>
			<clipPath
   id="SVGID_1_">
				<use
   xlink:href="#SVGID_3_"
   style="overflow:visible;"
   id="use98" />
			</clipPath>
			<path
   class="st9"
   d="M297.47,94.1c0,0,6.8,2.61,12.55-2.61c5.75-5.23,9.94,3.27,9.94,3.27s-0.78,4.84,7.06,5.62     s3.14,8.63,3.14,8.63s6.72,3.66,1.4,9.41s-13.17,1.83-12.9,9.41c0.26,7.58-10.72,5.75-13.33,1.57c-2.61-4.18-7.84-2.87-7.84-2.87     s-7.84-1.57-5.75-10.46c2.09-8.89,2.09-8.89,2.09-8.89S287.21,95.04,297.47,94.1z"
   clip-path="url(#SVGID_1_)"
   id="path101" />
			<polyline
   class="st10"
   points="319.95,94.75 312.48,111.4 343.62,107.17    "
   clip-path="url(#SVGID_1_)"
   id="polyline103" />
			<polyline
   class="st10"
   points="325.44,121.81 312.48,111.4 318.96,129.39    "
   clip-path="url(#SVGID_1_)"
   id="polyline105" />
			<polyline
   class="st10"
   points="305.31,129.39 312.48,111.4 297.47,126.52    "
   clip-path="url(#SVGID_1_)"
   id="polyline107" />
			<polyline
   class="st10"
   points="291.72,116.06 312.48,111.4 293.81,107.17    "
   clip-path="url(#SVGID_1_)"
   id="polyline109" />
			<polyline
   class="st10"
   points="297.47,94.1 312.48,111.4 310.02,91.48    "
   clip-path="url(#SVGID_1_)"
   id="polyline111" />
			<g
   class="st11"
   clip-path="url(#SVGID_1_)"
   id="g115">
				<path
   class="st12"
   d="M297.5,93.85c2.1,0.69,4.23,0.81,6.33,0.45c2.09-0.37,4.06-1.32,5.67-2.71c0.8-0.7,1.69-1.46,2.78-1.8      c1.07-0.39,2.31-0.32,3.34,0.13c1.05,0.45,1.92,1.18,2.66,2c0.74,0.83,1.37,1.73,1.88,2.72l0,0l0.02,0.04l0,0.11      c-0.02,0.81,0.28,1.67,0.77,2.31c0.48,0.66,1.16,1.15,1.9,1.5c0.76,0.34,1.57,0.57,2.41,0.71c0.42,0.07,0.85,0.12,1.27,0.15      c0.41,0.02,0.89,0.05,1.4,0.11c0.98,0.12,2.04,0.46,2.89,1.23c0.86,0.76,1.35,1.91,1.39,2.96c0.04,2.11-0.84,3.84-1.87,5.38l0,0      l-0.09-0.35c1.07,0.56,2.01,1.31,2.75,2.29c0.73,0.97,1.22,2.25,1.08,3.54c-0.11,1.29-0.71,2.45-1.43,3.42      c-0.72,0.98-1.6,1.85-2.61,2.55c-2.03,1.42-4.46,1.99-6.63,2.52c-1.08,0.28-2.14,0.61-2.85,1.2c-0.72,0.57-1.06,1.46-1.14,2.5      c-0.06,0.51-0.01,1.02-0.04,1.7c-0.06,0.64-0.15,1.29-0.41,1.92c-0.49,1.26-1.58,2.29-2.8,2.75c-1.21,0.49-2.49,0.59-3.71,0.5      c-1.22-0.11-2.41-0.4-3.53-0.86c-1.12-0.46-2.19-1.08-3.09-1.93c-0.22-0.22-0.44-0.45-0.63-0.7c-0.19-0.25-0.38-0.54-0.51-0.75      c-0.29-0.44-0.63-0.85-1.03-1.21c-1.58-1.44-3.99-1.82-6.16-1.48l0,0l-0.06,0.01l-0.05-0.01c-1.89-0.47-3.63-1.51-4.81-3.08      c-1.19-1.56-1.61-3.6-1.46-5.5c0.06-0.96,0.26-1.91,0.48-2.82l0.65-2.75l1.29-5.5l0,0l0.02,0.18c-0.87-1.16-1.52-2.45-2.03-3.82      c-0.48-1.37-0.81-2.85-0.71-4.42c0.06-0.78,0.21-1.59,0.58-2.34c0.36-0.76,0.93-1.42,1.6-1.89c0.67-0.48,1.43-0.78,2.18-0.91      c0.37-0.1,0.75-0.09,1.12-0.12C296.72,93.77,297.14,93.81,297.5,93.85z M297.43,94.34c-1.21,0.49-2.54,0.96-3.35,1.78      c-0.83,0.79-1.31,1.83-1.43,3.07c-0.12,1.23,0.03,2.56,0.3,3.88c0.26,1.32,0.65,2.65,1.07,3.98l0.04,0.13l-0.02,0.04l0,0      l-1.29,5.5l-0.65,2.75c-0.23,0.92-0.42,1.81-0.47,2.74c-0.14,1.83,0.26,3.72,1.36,5.17c1.08,1.45,2.77,2.45,4.51,2.89l-0.11,0      l0,0c1.17-0.29,2.36-0.36,3.55-0.18c1.19,0.18,2.37,0.63,3.34,1.41c0.48,0.39,0.92,0.84,1.27,1.35      c0.19,0.27,0.32,0.46,0.49,0.66c0.16,0.2,0.35,0.38,0.54,0.56c0.8,0.7,1.77,1.22,2.79,1.59c2.02,0.72,4.37,0.95,6.23,0.18      c0.93-0.38,1.62-1.09,1.96-1.98c0.18-0.44,0.25-0.94,0.29-1.45c0.02-0.47-0.03-1.11,0.03-1.75c0.06-0.63,0.16-1.28,0.44-1.91      c0.27-0.63,0.71-1.22,1.24-1.66c1.09-0.88,2.33-1.18,3.45-1.48c2.26-0.55,4.43-1,6.24-2.2c0.91-0.58,1.72-1.3,2.4-2.14      c0.68-0.83,1.21-1.78,1.35-2.79c0.15-1.01-0.11-2.05-0.69-2.96c-0.58-0.9-1.41-1.7-2.32-2.31l-0.23-0.15l0.13-0.2l0,0      c0.68-1.6,1.15-3.43,0.86-4.95c-0.16-0.75-0.54-1.33-1.11-1.7c-0.57-0.36-1.28-0.61-2.07-0.82c-0.74-0.17-1.79-0.3-2.69-0.57      c-0.92-0.26-1.84-0.62-2.67-1.14c-0.83-0.53-1.58-1.24-2.06-2.12c-0.47-0.89-0.67-1.88-0.5-2.87l0.02,0.15l0,0      c-1-1.83-2.39-3.63-4.29-4.48c-0.94-0.41-2.02-0.47-2.99-0.12c-1,0.32-1.8,0.99-2.62,1.71c-1.67,1.44-3.73,2.43-5.91,2.82      C301.77,95.18,299.44,95.02,297.43,94.34z"
   id="path113" />
			</g>
		</g>
	</g>
</g>
<g
   id="g179">
	<path
   class="st13"
   d="M205.61,102.96h-40.56c-10.48,0-18.97-8.49-18.97-18.97v0c0-10.48,8.49-18.97,18.97-18.97h40.56   c10.48,0,18.97,8.49,18.97,18.97v0C224.58,94.46,216.09,102.96,205.61,102.96z"
   id="path123" />
	<path
   class="st13"
   d="M208.25,155.8h-40.56c-10.48,0-18.97-8.49-18.97-18.97v0c0-10.48,8.49-18.97,18.97-18.97h40.56   c10.48,0,18.97,8.49,18.97,18.97v0C227.22,147.3,218.72,155.8,208.25,155.8z"
   id="path125" />
	<path
   class="st14"
   d="M134.82,162.07c0,0-13.81,5.31-17.57-1.55c-3.76-6.87,0.65-6.29,0.65-6.29s-3.43-1.06-1.55-4.99   s2.53-2.45,2.53-2.45s-5.31-10.13,13.08-4.33S134.82,162.07,134.82,162.07z"
   id="path127" />
	<path
   class="st14"
   d="M134.82,60.31c0,0-13.81-5.31-17.57,1.55c-3.76,6.87,0.65,6.29,0.65,6.29s-3.43,1.06-1.55,4.99   c1.88,3.92,2.53,2.45,2.53,2.45s-5.31,10.13,13.08,4.33S134.82,60.31,134.82,60.31z"
   id="path129" />
	<path
   class="st15"
   d="M217.6,61.22c0,0,50.69-5.66,50.69,50.24s-50.69,49.43-50.69,49.43s-66.4-3.47-66.4-49.17   S217.6,61.22,217.6,61.22z"
   id="path131" />
	<g
   id="g153">
		<g
   id="g137">
			<path
   class="st16"
   d="M201.81,109.6c0,10.15-6.63,18.98-16.43,23.57c-0.39,0.18-0.79,0.36-1.19,0.53     c-1.62,2.32-4.05,1.85-6.17,1.5c-0.35-0.06-0.7-0.11-1.03-0.15c-0.25,0.33-0.51,0.62-0.78,0.89c-0.27,0.27-0.55,0.5-0.83,0.71     c-0.46,2.46-2.31,2.07-4.52,1.43c-0.37-0.11-0.75-0.22-1.14-0.3c-0.26,0.08-0.63,0.15-1.08,0.21c-0.22,0.03-0.47,0.06-0.73,0.08     c-0.32,0.02-0.64,0.05-0.96,0.1c-2.23,3.4-8.73,3.4-10.86-0.52c-0.25-0.08-0.5-0.17-0.74-0.27c-1.2-0.5-2.23-1.26-3.22-2.42     c-0.26-0.08-0.52-0.13-0.79-0.15c-0.25-0.15-0.49-0.33-0.73-0.52c-1.17-0.96-2.16-2.38-2.99-3.64c-0.2-0.3-0.39-0.6-0.57-0.86     c-5.08,2.03-5.08-4.47-7.86-6.79c-0.24-0.13-0.47-0.27-0.67-0.44c-0.77-0.65-1.01-1.66-0.17-3.49c-0.24-0.21-0.46-0.43-0.65-0.67     c-0.97-1.18-1.34-2.77-0.46-5.95c-0.13-0.18-0.26-0.36-0.4-0.54c-1.59-2.12-2.9-3.95-0.32-5.59c-0.1-0.35-0.17-0.7-0.21-1.04     c-0.25-2.05,0.63-3.99,2.84-5.89c0.03-0.33,0.04-0.66,0.07-1c0.23-2.72,1.7-5.68,6.09-5.9c-0.09-0.26-0.18-0.5-0.18-0.73     c-2.36-5.18,6.64-2.4,7.93-7.09c0.31-0.2,0.63-0.38,0.97-0.54c2.32-1.1,5-1.14,6.12-1.24c0.35-0.11,0.68-0.17,1.02-0.18     c2.33-0.08,4.77,1.93,7.59-1.97c0.41-0.15,0.84-0.28,1.28-0.38c2.18-0.49,4.44-0.25,4.47,1.23c0.59,0.36,1.18,0.71,1.76,0.97     c0.58,0.26,1.17,0.43,1.76,0.41c0.42-0.01,0.83-0.02,1.23-0.03c0.23-0.01,0.46-0.01,0.69-0.02c1.61-0.06,3.16-0.16,4.32-0.33     c0.39,0.04,0.73,0.11,1.04,0.23c2.49,0.91,3.17,4.39,5.2,6.18c0.35,0.25,0.68,0.5,1.02,0.76     C197.85,94.7,201.81,101.76,201.81,109.6z"
   id="path133" />
			<path
   class="st17"
   d="M201.81,109.6c0.03,5.29-1.89,10.51-5.11,14.68c-1.6,2.1-3.51,3.96-5.62,5.55     c-2.11,1.59-4.43,2.89-6.85,3.95l0.04-0.03c-0.38,0.54-0.87,1.03-1.46,1.34c-0.59,0.32-1.26,0.46-1.92,0.5     c-0.66,0.03-1.32-0.04-1.97-0.13c-0.65-0.1-1.29-0.2-1.93-0.29l0.1-0.04l-0.76,0.87c-0.28,0.26-0.58,0.51-0.87,0.76l0.05-0.08     c-0.1,0.56-0.31,1.16-0.78,1.57c-0.47,0.41-1.13,0.49-1.69,0.44c-0.58-0.04-1.14-0.18-1.69-0.33l-1.64-0.43l0.07,0     c-0.47,0.08-0.94,0.21-1.41,0.25l-1.39,0.15l0.1-0.07c-0.6,0.92-1.52,1.6-2.52,2.01c-1,0.42-2.1,0.59-3.18,0.55     c-1.08-0.04-2.16-0.3-3.13-0.82c-0.96-0.51-1.8-1.29-2.33-2.26l0.11,0.09c-0.39-0.14-0.78-0.26-1.16-0.45     c-0.38-0.18-0.73-0.39-1.08-0.62c-0.69-0.47-1.29-1.04-1.82-1.67l0.1,0.06l-0.75-0.14l-0.07-0.01l-0.02-0.02     c-0.47-0.33-0.95-0.65-1.34-1.06c-0.41-0.4-0.77-0.82-1.12-1.27c-0.7-0.88-1.29-1.83-1.91-2.74l0.26,0.08     c-0.92,0.35-2,0.58-3,0.18c-1.01-0.39-1.64-1.28-2.13-2.12c-0.5-0.86-0.89-1.75-1.34-2.6c-0.45-0.84-0.94-1.67-1.64-2.26     l0.04,0.03c-0.33-0.24-0.7-0.4-0.99-0.74c-0.29-0.32-0.46-0.75-0.5-1.18c-0.07-0.86,0.22-1.63,0.53-2.34l0.07,0.31l-0.65-0.67     c-0.2-0.24-0.38-0.5-0.54-0.78c-0.3-0.57-0.46-1.2-0.5-1.82c-0.09-1.25,0.17-2.46,0.48-3.62l0.04,0.25     c-0.7-0.98-1.53-1.91-2.03-3.13c-0.25-0.6-0.3-1.37,0.01-2.01c0.32-0.63,0.85-1.06,1.38-1.4l-0.12,0.32     c-0.14-0.67-0.31-1.34-0.25-2.04c0.03-0.69,0.2-1.38,0.48-2.01c0.56-1.27,1.49-2.29,2.5-3.16l-0.09,0.18     c0.06-0.85,0.11-1.75,0.37-2.62c0.25-0.86,0.66-1.69,1.24-2.39c0.59-0.7,1.36-1.23,2.19-1.57c0.84-0.34,1.73-0.5,2.61-0.55     l-0.21,0.31c-0.08-0.24-0.18-0.49-0.19-0.81l0.02,0.1c-0.21-0.48-0.39-1-0.4-1.57c-0.04-0.57,0.27-1.17,0.72-1.5     c0.91-0.66,1.96-0.83,2.94-1.09c0.99-0.24,1.98-0.49,2.85-0.95c0.88-0.44,1.58-1.19,1.83-2.13l0.02-0.08l0.06-0.03     c0.55-0.3,1.09-0.63,1.69-0.84c0.59-0.22,1.19-0.39,1.8-0.52c1.22-0.26,2.47-0.35,3.69-0.43l-0.04,0.01     c0.8-0.27,1.66-0.19,2.44-0.05c0.79,0.14,1.56,0.34,2.33,0.32c0.77-0.01,1.52-0.24,2.15-0.69c0.63-0.44,1.15-1.03,1.63-1.66     l0.03-0.04l0.04-0.01c0.53-0.14,1.05-0.34,1.6-0.44c0.54-0.1,1.09-0.16,1.65-0.17c0.55,0,1.12,0.06,1.65,0.27     c0.54,0.18,1.03,0.7,1.03,1.32l-0.06-0.11l1.09,0.61c0.37,0.2,0.72,0.42,1.12,0.55c0.77,0.32,1.61,0.2,2.45,0.2     c0.84,0,1.67-0.1,2.51-0.15l2.51-0.18l0.02,0l0.01,0c0.78,0.06,1.56,0.37,2.16,0.88c0.61,0.5,1.08,1.15,1.49,1.8     c0.83,1.3,1.49,2.74,2.63,3.77l-0.01,0c3.3,2.38,6.16,5.42,8.16,8.97C200.72,101.47,201.83,105.53,201.81,109.6z M201.81,109.6     c-0.01-4.07-1.14-8.11-3.17-11.63c-2.02-3.53-4.88-6.54-8.18-8.89l0,0l0,0c-1.18-1.06-1.85-2.5-2.68-3.79     c-0.41-0.65-0.87-1.27-1.46-1.75c-0.58-0.48-1.31-0.77-2.07-0.83l0.02,0l-2.52,0.2c-0.84,0.06-1.68,0.16-2.52,0.17l-1.26,0.03     c-0.44,0.01-0.87-0.09-1.28-0.23c-0.41-0.13-0.78-0.35-1.15-0.55l-1.11-0.61l-0.06-0.03l0-0.07c-0.01-0.51-0.38-0.91-0.87-1.08     c-0.48-0.19-1.02-0.24-1.55-0.24c-0.53,0-1.07,0.07-1.6,0.17c-0.53,0.1-1.03,0.29-1.55,0.44l0.07-0.05     c-0.48,0.64-1.02,1.26-1.69,1.74c-0.67,0.48-1.5,0.74-2.32,0.76c-0.83,0.02-1.62-0.18-2.39-0.31c-0.77-0.13-1.55-0.2-2.27,0.05     l-0.02,0.01l-0.02,0c-1.24,0.09-2.45,0.18-3.64,0.45c-0.59,0.13-1.18,0.3-1.74,0.51c-0.57,0.2-1.09,0.52-1.61,0.81l0.08-0.11     c-0.27,1.06-1.08,1.92-2.02,2.39c-0.94,0.5-1.95,0.75-2.94,1c-0.97,0.26-2.01,0.46-2.77,1.02c-0.8,0.56-0.59,1.66-0.18,2.53     l0.02,0.04l0,0.05c0,0.19,0.08,0.41,0.16,0.65l0.1,0.3l-0.31,0.02c-1.68,0.09-3.38,0.67-4.44,1.97c-0.53,0.64-0.9,1.4-1.13,2.2     c-0.23,0.81-0.28,1.65-0.34,2.53l-0.01,0.1l-0.08,0.07c-0.97,0.85-1.84,1.82-2.34,2.98c-0.25,0.57-0.4,1.19-0.42,1.81     c-0.05,0.62,0.11,1.24,0.24,1.86l0.04,0.21l-0.17,0.11c-0.48,0.32-0.93,0.7-1.16,1.17c-0.22,0.47-0.2,1.02,0.02,1.55     c0.42,1.06,1.22,2,1.94,3l0.08,0.11l-0.04,0.13c-0.31,1.13-0.56,2.29-0.48,3.43c0.03,0.57,0.17,1.11,0.43,1.6     c0.13,0.24,0.29,0.48,0.47,0.69l0.59,0.61l0.14,0.15l-0.08,0.17c-0.3,0.67-0.56,1.39-0.5,2.07c0.03,0.34,0.16,0.64,0.37,0.89     c0.21,0.26,0.56,0.42,0.84,0.63l0.04,0.03c0.79,0.68,1.3,1.56,1.75,2.43c0.45,0.87,0.84,1.76,1.31,2.59     c0.47,0.81,1.05,1.61,1.89,1.93c0.83,0.34,1.79,0.16,2.66-0.16l0.17-0.06l0.09,0.14c0.62,0.93,1.2,1.87,1.88,2.73     c0.34,0.43,0.69,0.85,1.08,1.23c0.38,0.4,0.82,0.7,1.26,1.01l-0.09-0.03l0.83,0.16l0.05,0.01l0.04,0.05     c0.51,0.61,1.09,1.16,1.74,1.61c0.65,0.46,1.37,0.78,2.13,1.03l0.07,0.02l0.03,0.06c0.49,0.9,1.26,1.64,2.17,2.12     c0.91,0.49,1.94,0.75,2.97,0.79c1.04,0.05,2.08-0.12,3.04-0.51c0.96-0.39,1.82-1.02,2.39-1.88l0.04-0.06l0.06-0.01l1.4-0.15     c0.46-0.04,0.9-0.16,1.36-0.23l0.05-0.01l0.02,0.01l1.65,0.45c0.54,0.15,1.09,0.28,1.64,0.33c0.54,0.05,1.11-0.03,1.51-0.37     c0.4-0.34,0.6-0.88,0.7-1.42l0.01-0.04l0.04-0.03c0.28-0.24,0.57-0.48,0.85-0.73l0.75-0.84l0.05-0.05l0.06,0.01     c1.31,0.16,2.58,0.49,3.87,0.44c0.64-0.03,1.28-0.17,1.84-0.46c0.57-0.29,1.04-0.75,1.41-1.27l0.02-0.02l0.02-0.01     c2.41-1.04,4.73-2.32,6.84-3.89c2.11-1.57,4.02-3.41,5.63-5.49C199.87,120.09,201.81,114.89,201.81,109.6z"
   id="path135" />
		</g>
		<path
   class="st18"
   d="M187.97,109.21c0,11.79-7.79,21.35-17.4,21.35c-1.13,0-2.24-0.13-3.32-0.39c-0.36-0.08-0.71-0.18-1.05-0.31    c1.63-7.79-8.12-1.29-8.04-8.24c-0.12-0.31-0.25-0.62-0.39-0.91c-0.69-1.47-1.69-2.67-3.69-3.45c-0.15-0.33-0.22-0.68-0.23-1.06    c-0.13-3.01,3.25-7.35-0.65-8.22c0.01-0.4,0.04-0.8,0.08-1.2c0.04-0.4,0.08-0.79,0.14-1.18c-1.84-3.03,7.91-6.28,4.09-10.5    c-0.22-0.46-0.36-0.84-0.42-1.15c-0.69-3.39,7.61,1.5,8.87-5.33c0.36-0.14,0.74-0.24,1.11-0.34c1.13-0.28,2.31-0.43,3.51-0.43    C180.18,87.86,187.97,97.42,187.97,109.21z"
   id="path139" />
		<g
   id="g145">
			<path
   class="st19"
   d="M156.2,113.05c-1.02,0.45-2.23,0.71-3.54,0.71c-3.63,0-6.58-2.04-6.58-4.56c0-2.52,2.95-4.56,6.58-4.56     c1.29,0,2.5,0.26,3.52,0.71"
   id="path141" />
			<path
   class="st20"
   d="M156.2,113.05c-1.86,0.95-4.1,1.1-6.16,0.58c-1.02-0.28-2.02-0.75-2.83-1.49     c-0.82-0.71-1.41-1.77-1.43-2.92c0.01-1.15,0.6-2.21,1.42-2.93c0.8-0.74,1.8-1.22,2.82-1.5c2.06-0.53,4.29-0.38,6.16,0.57     c-1.95-0.71-4.1-0.71-6.03-0.12c-0.95,0.33-1.88,0.77-2.58,1.46c-0.73,0.66-1.19,1.58-1.19,2.52c0,0.94,0.47,1.86,1.2,2.52     c0.71,0.69,1.64,1.12,2.59,1.45C152.1,113.77,154.25,113.77,156.2,113.05z"
   id="path143" />
		</g>
		<path
   class="st21"
   d="M197.97,88.31c0,0,0.19-1.44-1.45-2.89c-0.23-0.22-0.51-0.43-0.82-0.65c-2.42-2.89-4.85-3.37-8.98-2.74    c-0.41,0.06-0.84,0.11-1.3,0.1c-0.23,0.07-0.45,0.14-0.67,0.2c-0.22,0.06-0.44,0.11-0.67,0.15c-5.89-1.17-8.81-1.17-10.45,1.31    c-0.33,0.09-0.65,0.2-0.97,0.33c-1.58,0.64-2.99,1.78-4.22,3.87c-0.3,0.28-0.61,0.56-0.91,0.84c-0.28,0.27-0.57,0.54-0.89,0.8    c-0.54,0.08-1.02,0.2-1.47,0.36c-0.44,0.16-0.84,0.35-1.2,0.58c-0.31,0-0.59,0.02-0.84,0.06c-0.25,0.04-0.48,0.1-0.68,0.19    c-2.74,2.01-2.74,8.51-4.76,11.95c0,0.39,0.01,0.76,0.01,1.13c0,0.36,0.01,0.72,0.01,1.06c0.01,0.34,0.01,0.67,0.02,0.99    c-1.28,6.39-1.28,9.64,0.73,11.84c0.11,0.37,0.2,0.74,0.3,1.12c0.16,0.36,0.35,0.7,0.57,1c1.35,7.5,7.19,4.42,6.41,9.34    c0.14,0.29,0.31,0.55,0.5,0.78c0.79,0.91,2.07,1.27,3.42,1.51c0.39,0.07,0.78,0.12,1.15,0.21c0.58,0.68,1.35,1.1,2.27,1.42    c0.31,0.11,0.64,0.2,0.98,0.29c2.88,0.07,5.18,3.1,7.3,3.86c0.3,0.11,0.6,0.17,0.9,0.17c2.34-0.43,4.24-0.65,5.83-1.02    c0.32-0.07,0.63-0.15,0.93-0.24c3.76,0.4,9.6,0.4,8.96-6.46c0-0.24,0-0.52,0-0.82C198.03,120.21,197.97,88.31,197.97,88.31z"
   id="path147" />
		<path
   class="st21"
   d="M266.01,110.03c-1.01,0.05-1.01,2.56-1.16,2.38c-0.06,0.31-0.13,0.57-0.22,0.7c-0.1,0.36-0.23,0.69-0.38,1    c-0.11,0.23-0.23,0.46-0.36,0.68c-1.39,2.8-3.9,2.8-8.57,2.76c-0.33,0.01-0.66-0.01-0.99-0.07c-0.99-0.17-1.95-0.68-2.82-1.78    c-0.34-0.07-0.65-0.13-0.93-0.21c-3.09-0.85-3.03-3.43-2.23-9.05c0.11-0.21,0.24-0.44,0.39-0.69c0.16-0.26,0.34-0.54,0.53-0.87    c0.71-4.81,5.72-2.31,7.61-4.03c0.36,0.01,0.73,0.06,1.11,0.17c0.38,0.11,0.78,0.29,1.2,0.55c0.21,0.13,0.43,0.27,0.65,0.44    c0.52-0.19,0.93-0.27,1.26-0.25c0.33,0.02,0.58,0.14,0.78,0.33c0.62,5.49,5.62,2.98,4.42,7.27    C266.22,109.54,266.13,109.76,266.01,110.03z"
   id="path149" />
		<path
   class="st13"
   d="M255.87,111.49c1.87-0.69,1.7-3.38-0.24-3.88c-38.58-10.05-52.25-20.32-61.57-21.16    c-0.93-0.11-3.82-0.25-3.82-0.25c-15.08,0-27.3,10.3-27.3,23.01c0,12.71,12.22,23.01,27.3,23.01c3.61,0,7.04-0.6,10.19-1.67    C221.53,124,245.01,115.5,255.87,111.49z"
   id="path151" />
	</g>
	<g
   id="g159">
		<path
   class="st22"
   d="M253.29,132.22c0,0-8.36,36.6-40.82,43.89c-32.47,7.28-78.73-16.12-78.73-16.12l15.14-15.24    c0,0,24.9,2.71,44.92,5.34"
   id="path155" />
		<path
   class="st23"
   d="M253.29,132.22c-1.46,5.85-3.77,11.48-6.64,16.79c-2.89,5.3-6.45,10.27-10.77,14.53    c-4.3,4.26-9.36,7.81-14.94,10.22c-2.79,1.21-5.69,2.16-8.66,2.81c-2.97,0.64-5.99,1.03-9.01,1.24c-6.06,0.34-12.14,0-18.12-0.87    c-5.99-0.84-11.91-2.14-17.74-3.73c-11.64-3.27-22.97-7.55-33.86-12.83l-0.54-0.26l0.43-0.43l15.2-15.18l0.12-0.12l0.16,0.02    c7.49,0.87,14.98,1.74,22.46,2.7c7.48,0.95,14.96,1.94,22.42,2.99c-7.48-0.91-14.98-1.75-22.47-2.57l-22.49-2.42l0.28-0.1    l-15.08,15.3l-0.11-0.69c10.82,5.2,22.15,9.45,33.73,12.65c5.8,1.59,11.67,2.91,17.61,3.76c5.94,0.88,11.95,1.24,17.94,0.92    c2.99-0.2,5.96-0.57,8.89-1.19c2.92-0.63,5.79-1.52,8.54-2.68c5.51-2.32,10.54-5.76,14.83-9.94c4.3-4.18,7.91-9.05,10.89-14.27    C249.32,143.61,251.72,138.04,253.29,132.22z"
   id="path157" />
	</g>
	<g
   id="g165">
		<path
   class="st16"
   d="M135.28,142.4c-1.65,0.87-2.17,2.45-1.43,4.62c0.05,0.14,0.1,0.27,0.15,0.42c-3.76,1.42-1.62,3.34-0.43,5.15    c0.15,0.23,0.28,0.45,0.38,0.67c-1.11,0.62-1.82,2.03-2,3.5c-0.03,0.24-0.05,0.49-0.05,0.74c-0.45,0.82-0.84,2.66-0.28,4.33    c0.08,0.24,0.18,0.47,0.3,0.7c0,2.73,1.14,3.13,2.42,3c0.21-0.02,0.43-0.06,0.65-0.09c0.83,0.62,3.02,1.06,4.68,0.95    c0.24-0.02,0.47-0.04,0.68-0.08c1.17,0.54,3.32,0.96,4.67-0.4c0.17-0.17,0.33-0.37,0.49-0.59c3.12-1.81,3.42-4.01,1.65-7.32    c0.02-0.29,0.04-0.57,0.05-0.84c2.17-2.05,2.74-3.92,1.53-6.26c-0.12-0.23-0.26-0.47-0.41-0.71c0.99-0.87,1.62-1.77,1.85-2.74    c0.05-0.19,0.08-0.39,0.09-0.59c0.55-2.24,0.13-3.26-0.57-3.98c-0.14-0.15-0.29-0.28-0.44-0.43c0.32-1.72-0.01-2.65-0.9-3.19    c-0.15-0.09-0.31-0.17-0.49-0.24c-0.94-1.6-2.78-1.7-4.37-1.5c-0.23,0.03-0.45,0.06-0.66,0.1c-1.47-1.25-2.75-1.86-4-1.28    c-0.18,0.08-0.36,0.19-0.53,0.33c-2.23,0.48-2.23,0.48-2.65,3.39c-0.01,0.14-0.02,0.29-0.04,0.63c-0.01,0.17-0.02,0.39-0.11,1.17    C135.46,142.03,135.39,142.21,135.28,142.4z"
   id="path161" />
		<path
   class="st17"
   d="M135.28,142.4c-0.85,0.45-1.54,1.26-1.67,2.22c-0.15,0.95,0.11,1.91,0.46,2.8l0.03,0.07l-0.07,0.03    c-0.57,0.24-1.14,0.51-1.57,0.93c-0.21,0.21-0.37,0.46-0.43,0.75c-0.04,0.28-0.03,0.58,0.09,0.86c0.2,0.56,0.58,1.06,0.94,1.57    c0.38,0.5,0.74,1.02,1.05,1.59l0.07,0.13l-0.14,0.08c-0.67,0.39-1.16,1.05-1.46,1.78c-0.16,0.36-0.27,0.75-0.35,1.13    c-0.09,0.39-0.09,0.79-0.12,1.18l0,0.05l-0.02,0.04c-0.36,0.73-0.51,1.59-0.51,2.42c0,0.42,0.05,0.84,0.14,1.24    c0.08,0.41,0.27,0.78,0.43,1.16l0.03,0.06l0,0.05c0.02,0.83,0.1,1.73,0.59,2.3c0.24,0.28,0.59,0.42,0.98,0.45    c0.39,0.04,0.81-0.04,1.22-0.1l0.11-0.02l0.1,0.06c0.68,0.45,1.62,0.65,2.49,0.79c0.45,0.06,0.89,0.1,1.34,0.11    c0.45,0.02,0.89-0.04,1.32-0.1l0.09-0.01l0.08,0.03c0.83,0.37,1.76,0.56,2.65,0.45c0.44-0.06,0.87-0.19,1.23-0.42    c0.38-0.21,0.64-0.59,0.93-0.94l0.04-0.05l0.04-0.03c1.19-0.7,2.32-1.68,2.52-3.01c0.22-1.32-0.34-2.69-0.98-3.93l-0.04-0.07    l0.01-0.09l0.05-0.83l0.01-0.12l0.08-0.08c0.92-0.87,1.77-1.9,2-3.11c0.13-0.6,0.07-1.22-0.11-1.81c-0.17-0.6-0.48-1.16-0.81-1.71    l-0.11-0.2l0.16-0.15c0.48-0.42,0.92-0.89,1.26-1.42c0.17-0.26,0.31-0.54,0.41-0.83c0.11-0.29,0.14-0.6,0.19-0.9l0.01-0.04    c0.18-0.76,0.32-1.55,0.22-2.3c-0.05-0.37-0.17-0.72-0.36-1.03c-0.19-0.31-0.49-0.57-0.77-0.86l-0.09-0.09l0.02-0.12    c0.12-0.65,0.19-1.33,0.03-1.93c-0.09-0.3-0.24-0.57-0.47-0.77c-0.21-0.22-0.52-0.35-0.8-0.49l-0.07-0.04l-0.03-0.05    c-0.43-0.77-1.23-1.27-2.11-1.42c-0.89-0.16-1.81-0.08-2.72,0.07l-0.07,0.01l-0.06-0.05c-0.63-0.54-1.31-1.06-2.08-1.34    c-0.38-0.13-0.79-0.2-1.19-0.13c-0.2,0.02-0.39,0.09-0.58,0.17l-0.53,0.31l-0.02,0.01l-0.01,0c-0.54,0.12-1.11,0.2-1.59,0.43    c-0.5,0.23-0.67,0.81-0.78,1.35c-0.11,0.54-0.2,1.1-0.27,1.65c-0.04,0.56-0.11,1.11-0.17,1.67l0,0L135.28,142.4z M135.28,142.4    l0.22-0.55l0,0c0.04-0.56,0.1-1.11,0.13-1.67c0.06-0.56,0.13-1.11,0.23-1.67c0.1-0.53,0.26-1.17,0.81-1.46    c0.52-0.27,1.08-0.36,1.62-0.49l-0.04,0.02l0.56-0.35c0.2-0.09,0.41-0.17,0.63-0.2c0.44-0.09,0.89-0.02,1.31,0.11    c0.84,0.28,1.54,0.81,2.2,1.35l-0.13-0.04c0.92-0.17,1.88-0.27,2.84-0.12c0.95,0.14,1.9,0.7,2.4,1.57l-0.1-0.08    c0.33,0.15,0.67,0.29,0.94,0.56c0.28,0.25,0.48,0.6,0.59,0.95c0.21,0.72,0.13,1.45,0.01,2.14l-0.07-0.21    c0.29,0.28,0.61,0.55,0.85,0.93c0.24,0.37,0.39,0.8,0.45,1.22c0.13,0.86-0.03,1.69-0.21,2.49l0.01-0.04    c-0.05,0.35-0.09,0.7-0.21,1.03c-0.12,0.33-0.27,0.65-0.46,0.94c-0.37,0.59-0.84,1.09-1.35,1.54l0.05-0.34    c0.34,0.58,0.68,1.17,0.87,1.83c0.2,0.66,0.27,1.38,0.13,2.07c-0.27,1.41-1.2,2.5-2.15,3.42l0.09-0.2l-0.05,0.85l-0.03-0.16    c0.34,0.65,0.65,1.32,0.87,2.04c0.21,0.71,0.33,1.49,0.2,2.27c-0.12,0.78-0.53,1.49-1.05,2.04c-0.52,0.56-1.14,0.99-1.78,1.36    l0.09-0.08c-0.32,0.38-0.63,0.81-1.09,1.08c-0.45,0.28-0.96,0.44-1.47,0.5c-1.02,0.11-2.03-0.1-2.95-0.51l0.17,0.02    c-0.48,0.07-0.96,0.12-1.43,0.1c-0.47-0.01-0.94-0.05-1.41-0.12c-0.47-0.07-0.93-0.17-1.39-0.3c-0.46-0.14-0.91-0.3-1.34-0.6    l0.2,0.05c-0.44,0.06-0.88,0.15-1.36,0.1c-0.47-0.03-0.99-0.24-1.31-0.63c-0.34-0.38-0.49-0.85-0.58-1.29    c-0.09-0.45-0.1-0.9-0.11-1.34l0.03,0.11c-0.18-0.42-0.37-0.83-0.45-1.28c-0.09-0.44-0.13-0.89-0.13-1.34    c0.02-0.9,0.17-1.79,0.6-2.61l-0.02,0.1c0.03-0.42,0.04-0.85,0.14-1.26c0.09-0.41,0.21-0.82,0.39-1.2    c0.34-0.77,0.87-1.49,1.64-1.92l-0.07,0.21c-0.28-0.53-0.62-1.04-0.99-1.55c-0.35-0.52-0.73-1.03-0.94-1.66    c-0.12-0.3-0.14-0.66-0.07-0.98c0.08-0.33,0.28-0.62,0.51-0.84c0.48-0.45,1.07-0.7,1.66-0.93l-0.04,0.1    c-0.33-0.9-0.57-1.89-0.39-2.86C133.7,143.63,134.42,142.83,135.28,142.4z"
   id="path163" />
	</g>
	<g
   id="g171">
		<path
   class="st22"
   d="M253.29,91.14c0,0-8.36-36.6-40.82-43.89s-78.73,16.12-78.73,16.12l15.14,15.24c0,0,24.9-2.71,44.92-5.34"
   id="path167" />
		<path
   class="st23"
   d="M253.29,91.14c-1.57-5.82-3.97-11.4-6.92-16.63c-2.98-5.22-6.59-10.09-10.89-14.27    c-4.3-4.17-9.32-7.61-14.83-9.94c-2.75-1.16-5.62-2.06-8.54-2.68c-2.93-0.62-5.9-0.99-8.89-1.19c-5.98-0.32-12,0.04-17.94,0.92    c-5.94,0.85-11.82,2.17-17.61,3.76c-11.58,3.2-22.91,7.45-33.73,12.65l0.11-0.69l15.08,15.3l-0.28-0.1l22.49-2.42    c7.49-0.81,14.99-1.66,22.47-2.57c-7.47,1.05-14.94,2.03-22.42,2.99c-7.48,0.96-14.97,1.83-22.46,2.7l-0.16,0.02l-0.12-0.12    l-15.2-15.18L133,63.25l0.54-0.26c10.89-5.28,22.22-9.57,33.86-12.83c5.83-1.6,11.75-2.9,17.74-3.73    c5.99-0.87,12.07-1.21,18.12-0.87c3.03,0.21,6.04,0.6,9.01,1.24c2.97,0.65,5.87,1.6,8.66,2.81c5.58,2.42,10.64,5.96,14.94,10.22    c4.32,4.26,7.88,9.23,10.77,14.53C249.52,79.66,251.83,85.29,253.29,91.14z"
   id="path169" />
	</g>
	<g
   id="g177">
		<path
   class="st16"
   d="M135.28,80.95c-1.65-0.87-2.17-2.45-1.43-4.62c0.05-0.14,0.1-0.27,0.15-0.42c-3.76-1.42-1.62-3.34-0.43-5.15    c0.15-0.23,0.28-0.45,0.38-0.67c-1.11-0.62-1.82-2.03-2-3.5c-0.03-0.24-0.05-0.49-0.05-0.74c-0.45-0.82-0.84-2.66-0.28-4.33    c0.08-0.24,0.18-0.47,0.3-0.7c0-2.73,1.14-3.13,2.42-3c0.21,0.02,0.43,0.06,0.65,0.09c0.83-0.62,3.02-1.06,4.68-0.95    c0.24,0.02,0.47,0.04,0.68,0.08c1.17-0.54,3.32-0.96,4.67,0.4c0.17,0.17,0.33,0.37,0.49,0.59c3.12,1.81,3.42,4.01,1.65,7.32    c0.02,0.29,0.04,0.57,0.05,0.84c2.17,2.05,2.74,3.92,1.53,6.26c-0.12,0.23-0.26,0.47-0.41,0.71c0.99,0.87,1.62,1.77,1.85,2.74    c0.05,0.19,0.08,0.39,0.09,0.59c0.55,2.24,0.13,3.26-0.57,3.98c-0.14,0.15-0.29,0.28-0.44,0.43c0.32,1.72-0.01,2.65-0.9,3.19    c-0.15,0.09-0.31,0.17-0.49,0.24c-0.94,1.6-2.78,1.7-4.37,1.5c-0.23-0.03-0.45-0.06-0.66-0.1c-1.47,1.25-2.75,1.86-4,1.28    c-0.18-0.08-0.36-0.19-0.53-0.33c-2.23-0.48-2.23-0.48-2.65-3.39c-0.01-0.14-0.02-0.29-0.04-0.63c-0.01-0.17-0.02-0.39-0.11-1.17    C135.46,81.33,135.39,81.15,135.28,80.95z"
   id="path173" />
		<path
   class="st17"
   d="M135.28,80.95c-0.86-0.42-1.58-1.22-1.74-2.2c-0.18-0.97,0.06-1.96,0.39-2.86l0.04,0.1    c-0.58-0.23-1.18-0.48-1.66-0.93c-0.24-0.22-0.44-0.51-0.51-0.84c-0.06-0.33-0.04-0.68,0.07-0.98c0.21-0.63,0.59-1.15,0.94-1.66    c0.37-0.51,0.71-1.02,0.99-1.55l0.07,0.21c-0.77-0.43-1.3-1.15-1.64-1.92c-0.17-0.39-0.3-0.79-0.39-1.2    c-0.1-0.41-0.11-0.84-0.14-1.26l0.02,0.1c-0.42-0.83-0.58-1.72-0.6-2.61c-0.01-0.45,0.03-0.9,0.13-1.34    c0.08-0.45,0.28-0.86,0.45-1.28l-0.03,0.11c0-0.44,0.02-0.89,0.11-1.34c0.09-0.45,0.24-0.91,0.58-1.29    c0.32-0.39,0.84-0.6,1.31-0.63c0.48-0.05,0.92,0.04,1.36,0.1l-0.2,0.05c0.43-0.3,0.88-0.46,1.34-0.6c0.46-0.14,0.92-0.23,1.39-0.3    c0.47-0.07,0.94-0.11,1.41-0.12c0.47-0.02,0.95,0.04,1.43,0.1l-0.17,0.02c0.92-0.41,1.93-0.63,2.95-0.51    c0.51,0.06,1.02,0.22,1.47,0.5c0.47,0.27,0.78,0.69,1.09,1.08l-0.09-0.08c0.64,0.37,1.25,0.81,1.78,1.36    c0.52,0.55,0.93,1.26,1.05,2.04c0.13,0.77,0.02,1.55-0.2,2.27c-0.21,0.72-0.53,1.39-0.87,2.04l0.03-0.16l0.05,0.85l-0.09-0.2    c0.95,0.92,1.88,2.01,2.15,3.42c0.14,0.69,0.07,1.41-0.13,2.07c-0.19,0.67-0.53,1.26-0.87,1.83l-0.05-0.34    c0.5,0.45,0.97,0.95,1.35,1.54c0.19,0.29,0.34,0.61,0.46,0.94c0.13,0.33,0.16,0.68,0.21,1.03l-0.01-0.04    c0.18,0.8,0.34,1.63,0.21,2.49c-0.06,0.43-0.21,0.85-0.45,1.22c-0.24,0.38-0.56,0.65-0.85,0.93l0.07-0.21    c0.12,0.69,0.19,1.41-0.01,2.14c-0.11,0.36-0.31,0.7-0.59,0.95c-0.27,0.27-0.62,0.41-0.94,0.56l0.1-0.08    c-0.5,0.87-1.44,1.42-2.4,1.57c-0.96,0.16-1.92,0.05-2.84-0.12l0.13-0.04c-0.66,0.54-1.36,1.07-2.2,1.35    c-0.42,0.13-0.87,0.2-1.31,0.11c-0.22-0.03-0.43-0.11-0.63-0.2l-0.56-0.35l0.04,0.02c-0.54-0.14-1.1-0.22-1.62-0.49    c-0.56-0.28-0.72-0.93-0.81-1.46c-0.1-0.55-0.18-1.11-0.23-1.67c-0.02-0.56-0.08-1.12-0.13-1.67l0,0L135.28,80.95z M135.28,80.95    l0.23,0.54l0,0c0.06,0.56,0.13,1.11,0.17,1.67c0.07,0.55,0.16,1.11,0.27,1.65c0.11,0.53,0.28,1.11,0.78,1.35    c0.48,0.24,1.05,0.31,1.59,0.43l0.01,0l0.02,0.01l0.53,0.31c0.19,0.08,0.38,0.15,0.58,0.17c0.4,0.07,0.81,0,1.19-0.13    c0.77-0.28,1.44-0.8,2.08-1.34l0.06-0.05l0.07,0.01c0.91,0.15,1.84,0.23,2.72,0.07c0.88-0.15,1.68-0.64,2.11-1.42l0.03-0.05    l0.07-0.04c0.29-0.14,0.59-0.27,0.8-0.49c0.23-0.21,0.38-0.48,0.47-0.77c0.17-0.6,0.1-1.28-0.03-1.93l-0.02-0.12l0.09-0.09    c0.29-0.28,0.59-0.55,0.77-0.86c0.2-0.31,0.31-0.66,0.36-1.03c0.1-0.75-0.03-1.53-0.22-2.3l-0.01-0.04    c-0.05-0.3-0.08-0.61-0.19-0.9c-0.1-0.29-0.24-0.57-0.41-0.83c-0.34-0.53-0.78-0.99-1.26-1.42l-0.16-0.15l0.11-0.2    c0.32-0.55,0.64-1.11,0.81-1.71c0.18-0.59,0.24-1.22,0.11-1.81c-0.23-1.21-1.08-2.23-2-3.11l-0.08-0.08l-0.01-0.12l-0.05-0.83    l-0.01-0.09l0.04-0.07c0.64-1.24,1.2-2.61,0.98-3.93c-0.2-1.33-1.33-2.31-2.52-3.01l-0.04-0.03l-0.04-0.05    c-0.29-0.35-0.56-0.72-0.93-0.94c-0.36-0.23-0.79-0.37-1.23-0.42c-0.88-0.11-1.82,0.08-2.65,0.45l-0.08,0.03l-0.09-0.01    c-0.43-0.06-0.87-0.12-1.32-0.1c-0.45,0.01-0.9,0.04-1.34,0.11c-0.87,0.14-1.81,0.34-2.49,0.79l-0.1,0.06l-0.11-0.02    c-0.42-0.06-0.84-0.14-1.22-0.1c-0.39,0.03-0.74,0.17-0.98,0.45c-0.49,0.57-0.57,1.47-0.59,2.3l0,0.05l-0.03,0.06    c-0.16,0.38-0.35,0.75-0.43,1.16c-0.09,0.4-0.14,0.82-0.14,1.24c0,0.83,0.15,1.7,0.51,2.42l0.02,0.04l0,0.05    c0.03,0.39,0.03,0.79,0.12,1.18c0.08,0.39,0.19,0.77,0.35,1.13c0.31,0.72,0.79,1.39,1.46,1.78l0.14,0.08l-0.07,0.13    c-0.31,0.58-0.67,1.1-1.05,1.59c-0.36,0.5-0.74,1-0.94,1.57c-0.12,0.28-0.14,0.57-0.09,0.86c0.06,0.28,0.22,0.53,0.43,0.75    c0.43,0.42,1,0.69,1.57,0.93l0.07,0.03l-0.03,0.07c-0.35,0.89-0.61,1.84-0.46,2.8C133.74,79.7,134.43,80.51,135.28,80.95z"
   id="path175" />
	</g>
</g>
</svg>
