<?xml version="1.0" encoding="UTF-8" standalone="no"?>
<svg
   xmlns:dc="http://purl.org/dc/elements/1.1/"
   xmlns:cc="http://creativecommons.org/ns#"
   xmlns:rdf="http://www.w3.org/1999/02/22-rdf-syntax-ns#"
   xmlns:svg="http://www.w3.org/2000/svg"
   xmlns="http://www.w3.org/2000/svg"
   xmlns:xlink="http://www.w3.org/1999/xlink"
   xmlns:sodipodi="http://sodipodi.sourceforge.net/DTD/sodipodi-0.dtd"
   xmlns:inkscape="http://www.inkscape.org/namespaces/inkscape"
   sodipodi:docname="cargo_bike1.svg"
   xml:space="preserve"
   style="enable-background:new 0 0 386.17 221.34;"
   viewBox="0 0 386.17 221.34"
   y="0px"
   x="0px"
   id="Frame_1"
   version="1.1"
   inkscape:version="1.0.1 (1.0.1+r75)"><metadata
   id="metadata172"><rdf:RDF><cc:Work
       rdf:about=""><dc:format>image/svg+xml</dc:format><dc:type
         rdf:resource="http://purl.org/dc/dcmitype/StillImage" /></cc:Work></rdf:RDF></metadata><defs
   id="defs170" /><sodipodi:namedview
   pagecolor="#ffffff"
   bordercolor="#666666"
   borderopacity="1"
   objecttolerance="10"
   gridtolerance="10"
   guidetolerance="10"
   inkscape:pageopacity="0"
   inkscape:pageshadow="2"
   inkscape:window-width="1920"
   inkscape:window-height="960"
   id="namedview168"
   showgrid="false"
   inkscape:zoom="3.255043"
   inkscape:cx="193.08501"
   inkscape:cy="110.67"
   inkscape:window-x="0"
   inkscape:window-y="27"
   inkscape:window-maximized="1"
   inkscape:current-layer="Frame_1"
   inkscape:document-rotation="0" />
<style
   type="text/css"
   id="style2">
	.st0{fill:#BA131F;stroke:#8C1313;stroke-width:0.25;stroke-miterlimit:10;}
	.st1{fill:#939598;}
	.st2{fill:#F7CA33;stroke:#D3A52A;stroke-width:0.25;stroke-miterlimit:10;}
	.st3{fill:#231F20;}
	.st4{fill:#414042;}
	.st5{fill:#6D6E71;}
	.st6{fill:#353535;}
	.st7{fill:#ED001D;stroke:#8C1313;stroke-width:0.6;stroke-miterlimit:10;}
	.st8{fill:#FFF5DC;stroke:#CEC8BA;stroke-width:0.6;stroke-miterlimit:10;}
	.st9{fill:#ED001D;stroke:#8C1313;stroke-miterlimit:10;}
	.st10{fill:#FFFBF0;}
	.st11{fill:#CEC8BA;}
	.st12{fill:#FFE1D9;stroke:#CEC8BA;stroke-width:0.6;stroke-miterlimit:10;}
	.st13{fill:#FFE1D9;}
	.st14{fill:#FCB1A2;}
	.st15{fill:#FFFBF0;stroke:#CEC8BA;stroke-width:0.6;stroke-miterlimit:10;}
	.st16{fill:#ED001D;}
	.st17{fill:#8C1313;}
	.st18{fill:#BB8C61;}
	.st19{fill:#8E6442;}
	.st20{clip-path:url(#SVGID_1_);fill:#BB8C61;}
	.st21{clip-path:url(#SVGID_1_);fill:#9B7353;}
	.st22{clip-path:url(#SVGID_1_);}
	.st23{fill:#8B5E3C;}
</style>
<symbol
   id="Novo_símbolo"
   viewBox="-47.32 -26.8 94.65 53.6">
	<rect
   x="-27.69"
   y="-0.84"
   class="st0"
   width="45.07"
   height="1.68"
   id="rect4" />
	<g
   id="g22">
		<path
   class="st0"
   d="M-12.78-1.15h-8.11c-0.64,0-1.17,0.52-1.17,1.17v0.24c0,0.64,0.52,1.17,1.17,1.17h8.11    c0.64,0,1.17-0.52,1.17-1.17V0.02C-11.62-0.62-12.14-1.15-12.78-1.15z"
   id="path6" />
		<circle
   class="st0"
   cx="-12.88"
   cy="0.14"
   r="1.26"
   id="circle8" />
		<path
   class="st1"
   d="M-11.02-0.43h-1.65c-0.34,0-0.61,0.27-0.61,0.61v0c0,0.34,0.27,0.61,0.61,0.61h1.65    c0.34,0,0.61-0.27,0.61-0.61v0C-10.41-0.16-10.68-0.43-11.02-0.43z"
   id="path10" />
		<g
   id="g20">
			<path
   class="st0"
   d="M-9.09-9.18h-1.2l-0.5,4.68c-0.33,3.1-0.33,6.24,0,9.34l0.5,4.68h1.2l-0.5-4.68c-0.33-3.1-0.33-6.24,0-9.34     L-9.09-9.18z"
   id="path12" />
			<path
   class="st1"
   d="M-10.01-5.05L-10.01-5.05c-0.2,0-0.36,0.16-0.36,0.36v9.74c0,0.2,0.16,0.36,0.36,0.36h0     c0.2,0,0.36-0.16,0.36-0.36V-4.7C-9.65-4.9-9.81-5.05-10.01-5.05z"
   id="path14" />
			<path
   class="st2"
   d="M-9.45,7.28l-0.91,0.16c-0.22,0.04-0.37,0.25-0.33,0.47l1.26,7.02c0.04,0.22,0.25,0.37,0.47,0.33l0.91-0.16     c0.22-0.04,0.37-0.25,0.33-0.47l-1.26-7.02C-9.02,7.39-9.23,7.24-9.45,7.28z"
   id="path16" />
			<path
   class="st2"
   d="M-9.45-6.94l-0.91-0.16c-0.22-0.04-0.37-0.25-0.33-0.47l1.32-7.36c0.04-0.22,0.25-0.37,0.47-0.33l0.91,0.16     c0.22,0.04,0.37,0.25,0.33,0.47l-1.32,7.36C-9.02-7.04-9.23-6.9-9.45-6.94z"
   id="path18" />
		</g>
	</g>
	<g
   id="g34">
		<rect
   x="31.73"
   y="-3.06"
   class="st1"
   width="3.69"
   height="6.19"
   id="rect24" />
		<path
   class="st3"
   d="M45.7-1.59H21.45c-0.89,0-1.62,0.73-1.62,1.62v0c0,0.89,0.73,1.62,1.62,1.62H45.7c0.89,0,1.62-0.73,1.62-1.62    v0C47.32-0.86,46.6-1.59,45.7-1.59z"
   id="path26" />
		<g
   id="g32">
			<path
   class="st0"
   d="M35.46,3.48c-0.01,0-0.02,0-0.02,0H20.43l-6.27-2.41l0.39-1.01l6.09,2.34h14.81c0,0,0.01,0,0.02,0     c0.3,0,0.54,0.24,0.54,0.54C36,3.24,35.76,3.48,35.46,3.48z"
   id="path28" />
			<path
   class="st0"
   d="M35.46-2.4c-0.01,0-0.02,0-0.02,0H20.63l-6.09,2.34l-0.39-1.01l6.27-2.41h15.01c0,0,0.01,0,0.02,0     c0.3,0,0.54,0.24,0.54,0.54C36-2.64,35.76-2.4,35.46-2.4z"
   id="path30" />
		</g>
	</g>
	<path
   class="st3"
   d="M19.2,0.01c0-2.42-2.63-6.05-4.38-4.38C12.18-1.85,4.44-2.41,4.44,0.01s7.38,1.76,10.38,4.38   C16.64,5.99,19.2,2.43,19.2,0.01z"
   id="path36" />
	<path
   class="st3"
   d="M-22.17,23.56h-17.28c-0.89,0-1.62,0.73-1.62,1.62v0c0,0.89,0.73,1.62,1.62,1.62h17.28   c0.89,0,1.62-0.73,1.62-1.62v0C-20.55,24.28-21.28,23.56-22.17,23.56z"
   id="path38" />
	<path
   class="st3"
   d="M-22.53-26.8h-17.28c-0.89,0-1.62,0.73-1.62,1.62v0c0,0.89,0.73,1.62,1.62,1.62h17.28   c0.89,0,1.62-0.73,1.62-1.62v0C-20.91-26.07-21.64-26.8-22.53-26.8z"
   id="path40" />
	<g
   id="g66">
		<g
   id="g46">
			<rect
   x="-46.89"
   y="-22.9"
   class="st4"
   width="32.15"
   height="45.79"
   id="rect42" />
			<path
   class="st5"
   d="M-14.31-23.56h-33.02v47.12h33.02V-23.56z M-46.45-22.7h31.27v45.26h-31.27V-22.7z"
   id="path44" />
		</g>
		<rect
   x="-42.75"
   y="-15.92"
   class="st6"
   width="23.86"
   height="31.83"
   id="rect48" />
		<g
   id="g52">
			<path
   class="st6"
   d="M-46.45,22.56c0.71-1.06,1.33-2.16,1.96-3.26c0.6-1.11,1.22-2.22,1.74-3.38c-0.71,1.06-1.33,2.16-1.96,3.26     C-45.31,20.29-45.92,21.4-46.45,22.56z"
   id="path50" />
		</g>
		<g
   id="g56">
			<path
   class="st6"
   d="M-18.88-15.92c0.71-1.08,1.33-2.21,1.96-3.33c0.6-1.14,1.22-2.27,1.74-3.45c-0.71,1.08-1.33,2.21-1.96,3.33     C-17.74-18.23-18.36-17.1-18.88-15.92z"
   id="path54" />
		</g>
		<g
   id="g60">
			<path
   class="st6"
   d="M-46.45-22.7c0.53,1.16,1.14,2.27,1.74,3.38c0.63,1.1,1.25,2.2,1.96,3.26c-0.53-1.16-1.14-2.27-1.74-3.38     C-45.12-20.54-45.74-21.65-46.45-22.7z"
   id="path58" />
		</g>
		<g
   id="g64">
			<path
   class="st6"
   d="M-18.88,15.77c0.53,1.18,1.14,2.31,1.74,3.45c0.63,1.12,1.25,2.25,1.96,3.33c-0.53-1.18-1.14-2.31-1.74-3.45     C-17.55,17.98-18.17,16.86-18.88,15.77z"
   id="path62" />
		</g>
	</g>
</symbol>
<g
   id="g165">
	<path
   d="M374.78,99.15H342c0-0.03,0-0.05,0-0.08c0-4.2-3.42-7.62-7.62-7.62h-29.31c-2.54-9.98-7.28-18.12-14.19-24.3   c-4.3-3.85-9.43-6.88-15.26-9c-0.91-1.03-1.82-2-2.73-2.89c-4.91-4.86-10.45-8.65-16.47-11.26c-3.14-1.36-6.37-2.4-9.59-3.1   c-3.05-0.66-6.22-1.09-9.78-1.34c-6.12-0.35-12.56-0.04-19.1,0.91c-5.88,0.82-11.89,2.09-18.4,3.87   c-6.68,1.87-13.33,4.1-19.81,6.64c-0.76-0.33-1.59-0.55-2.48-0.66c-1.35-0.15-2.71-0.03-4.05,0.37c-0.28-0.01-0.57-0.02-0.88-0.01   c-0.65,0.02-1.32,0.07-1.99,0.17c-0.3,0.05-0.59,0.1-0.87,0.16c-0.21-0.83-0.56-1.63-1.06-2.35c-1.08-1.56-2.71-2.6-4.58-2.93   l-3.61-0.65c-3.84-0.67-7.53,1.9-8.22,5.74l-0.45,2.52c-2.9,1.31-4.54,3.34-5.44,4.97c-0.81,1.48-3.06,5.58-1.79,9.37   c-0.26,0.9-0.4,1.99-0.26,3.25c-0.29-0.51-0.58-1-0.87-1.5V12.78h-24.73c0.06-0.45,0.08-0.92,0.08-1.39   c0-6.28-5.11-11.39-11.39-11.39H39c-6.28,0-11.39,5.11-11.39,11.39c0,0.47,0.03,0.93,0.08,1.39H2.97v87.53   c-1.3,6.87-1.66,13.5,0,20.1v22.9c-4.71,7.87-3.13,15.56,0,22.31v42.95h23.31c-0.06,0.45-0.08,0.92-0.08,1.39   c0,6.28,5.11,11.39,11.39,11.39h68.14c6.28,0,11.39-5.11,11.39-11.39c0-0.47-0.03-0.93-0.08-1.39h26.15v-59.68   c1.24-2.43,2.34-4.84,3.29-7.21c-0.09,0.62-0.12,1.25-0.08,1.91c-0.51,0.75-0.94,1.56-1.32,2.36c-1.34,2.8-1.24,5.1-0.76,6.75   c-1.26,3.79,0.98,7.89,1.79,9.37c0.97,1.77,2.65,3.76,5.52,5.01l0.62,3.45c0.61,3.39,3.55,5.85,6.99,5.85c0.4,0,0.8-0.03,1.25-0.11   l3.59-0.64c2.82-0.51,4.94-2.63,5.62-5.24c0.22,0.04,0.43,0.09,0.65,0.12c0.67,0.1,1.34,0.16,1.98,0.17   c0.31,0.01,0.6,0.01,0.88-0.01c1.35,0.39,2.71,0.51,4.09,0.36c0.87-0.1,1.68-0.32,2.44-0.65c6.48,2.54,13.14,4.77,19.84,6.65   c6.49,1.78,12.5,3.04,18.35,3.86c4.81,0.7,9.55,1.05,14.17,1.05c1.69,0,3.36-0.05,5.02-0.14c3.49-0.24,6.67-0.68,9.73-1.34   c3.22-0.7,6.44-1.74,9.59-3.1c6.02-2.61,11.57-6.4,16.46-11.25c1.32-1.3,2.62-2.71,3.86-4.2c5.38-2.02,10.13-4.83,14.14-8.36   c6.81-5.99,11.51-13.91,14.09-23.65l29.41,0.02c4.2,0,7.62-3.42,7.62-7.62c0-0.11,0-0.23-0.01-0.34h32.79   c6.28,0,11.39-5.11,11.39-11.39S381.06,99.15,374.78,99.15z"
   id="path69" />
	
		<g
   id="use71">
	<path
   id="rect1086"
   style="fill:#ba131f;stroke:#8c1313;stroke-miterlimit:10;stroke-width:0.98575"
   d="M 85.3863 113.983 L 263.097 113.983 L 263.097 107.359 L 85.3863 107.359 Z"
   class="st0" />
	<g
   id="g1104">
		<path
   class="st0"
   d="M 144.176 115.205 L 112.199 115.205 C 109.675 115.205 107.585 113.155 107.585 110.592 L 107.585 109.646 C 107.585 107.122 109.636 105.033 112.199 105.033 L 144.176 105.033 C 146.7 105.033 148.79 107.083 148.79 109.646 L 148.79 110.592 C 148.75 113.116 146.7 115.205 144.176 115.205 Z"
   id="path1088" />
		<path
   id="circle1090"
   style="fill:#ba131f;stroke:#8c1313;stroke-miterlimit:10;stroke-width:0.98575"
   d="M 148.75 110.119 C 148.75 108.801 148.227 107.538 147.295 106.606 C 146.363 105.674 145.1 105.151 143.782 105.151 C 142.465 105.151 141.201 105.674 140.269 106.606 C 139.337 107.538 138.814 108.801 138.814 110.119 C 138.814 111.437 139.337 112.7 140.269 113.632 C 141.201 114.564 142.465 115.087 143.782 115.087 C 145.1 115.087 146.363 114.564 147.295 113.632 C 148.227 112.7 148.75 111.437 148.75 110.119 Z"
   class="st0" />
		<path
   class="st1"
   d="M 151.116 112.366 L 144.61 112.366 C 143.27 112.366 142.205 111.302 142.205 109.961 L 142.205 109.961 C 142.205 108.621 143.27 107.556 144.61 107.556 L 151.116 107.556 C 152.457 107.556 153.521 108.621 153.521 109.961 L 153.521 109.961 C 153.521 111.302 152.457 112.366 151.116 112.366 Z"
   id="path1092" />
		<g
   id="g1102">
			<path
   class="st0"
   d="M 158.726 146.868 L 153.995 146.868 L 152.023 128.415 C 150.722 116.191 150.722 103.81 152.023 91.5869 L 153.995 73.1336 L 158.726 73.1336 L 156.755 91.5869 C 155.453 103.81 155.453 116.191 156.755 128.415 Z"
   id="path1094" />
			<path
   class="st1"
   d="M 155.099 130.583 L 155.099 130.583 C 154.31 130.583 153.679 129.952 153.679 129.164 L 153.679 90.7588 C 153.679 89.9703 154.31 89.3394 155.099 89.3394 L 155.099 89.3394 C 155.887 89.3394 156.518 89.9703 156.518 90.7588 L 156.518 129.203 C 156.518 129.992 155.887 130.583 155.099 130.583 Z"
   id="path1096" />
			<path
   class="st2"
   d="M 157.307 81.966 L 153.719 81.3351 C 152.851 81.1774 152.26 80.3493 152.417 79.4819 L 157.386 51.802 C 157.543 50.9346 158.371 50.3431 159.239 50.5008 L 162.827 51.1317 C 163.694 51.2894 164.286 52.1175 164.128 52.9849 L 159.16 80.6648 C 159.002 81.5322 158.174 82.1237 157.307 81.966 Z"
   id="path1098" />
			<path
   class="st2"
   d="M 157.307 138.035 L 153.719 138.666 C 152.851 138.824 152.26 139.652 152.417 140.52 L 157.622 169.54 C 157.78 170.407 158.608 170.999 159.475 170.841 L 163.063 170.21 C 163.931 170.053 164.522 169.225 164.365 168.357 L 159.16 139.337 C 159.002 138.43 158.174 137.878 157.307 138.035 Z"
   id="path1100" />
		</g>
	</g>
	<g
   id="g1116">
		<path
   id="rect1106"
   style="fill:#939598"
   d="M 319.679 122.737 L 334.229 122.737 L 334.229 98.3294 L 319.679 98.3294 Z"
   class="st1" />
		<path
   class="st3"
   d="M 374.763 116.94 L 279.145 116.94 C 275.636 116.94 272.758 114.062 272.758 110.553 L 272.758 110.553 C 272.758 107.043 275.636 104.165 279.145 104.165 L 374.763 104.165 C 378.272 104.165 381.151 107.043 381.151 110.553 L 381.151 110.553 C 381.151 114.062 378.312 116.94 374.763 116.94 Z"
   id="path1108" />
		<g
   id="g1114">
			<path
   class="st0"
   d="M 334.387 96.9494 C 334.347 96.9494 334.308 96.9494 334.308 96.9494 L 275.123 96.9494 L 250.401 106.452 L 251.939 110.434 L 275.952 101.208 L 334.347 101.208 C 334.347 101.208 334.387 101.208 334.426 101.208 C 335.609 101.208 336.555 100.261 336.555 99.0786 C 336.516 97.8957 335.57 96.9494 334.387 96.9494 Z"
   id="path1110" />
			<path
   class="st0"
   d="M 334.387 120.134 C 334.347 120.134 334.308 120.134 334.308 120.134 L 275.912 120.134 L 251.899 110.908 L 250.361 114.89 L 275.084 124.393 L 334.268 124.393 C 334.268 124.393 334.308 124.393 334.347 124.393 C 335.53 124.393 336.477 123.446 336.477 122.263 C 336.516 121.081 335.57 120.134 334.387 120.134 Z"
   id="path1112" />
		</g>
	</g>
	<path
   class="st3"
   d="M 270.274 110.632 C 270.274 120.174 259.904 134.487 253.003 127.902 C 242.594 117.966 212.075 120.174 212.075 110.632 C 212.075 101.09 241.174 103.692 253.003 93.3612 C 260.18 87.0524 270.274 101.09 270.274 110.632 Z"
   id="path1118" />
	<path
   class="st3"
   d="M 107.152 17.7739 L 39.0166 17.7739 C 35.5074 17.7739 32.629 14.8955 32.629 11.3863 L 32.629 11.3863 C 32.629 7.87699 35.5074 4.9986 39.0166 4.9986 L 107.152 4.9986 C 110.661 4.9986 113.539 7.87699 113.539 11.3863 L 113.539 11.3863 C 113.539 14.935 110.661 17.7739 107.152 17.7739 Z"
   id="path1120" />
	<path
   class="st3"
   d="M 105.732 216.343 L 37.5972 216.343 C 34.0879 216.343 31.2095 213.465 31.2095 209.956 L 31.2095 209.956 C 31.2095 206.446 34.0879 203.568 37.5972 203.568 L 105.732 203.568 C 109.241 203.568 112.12 206.446 112.12 209.956 L 112.12 209.956 C 112.12 213.465 109.241 216.343 105.732 216.343 Z"
   id="path1122" />
	<g
   id="g1148">
		<g
   id="g1128">
			<path
   id="rect1124"
   style="fill:#414042"
   d="M 9.68073 200.966 L 136.448 200.966 L 136.448 20.4157 L 9.68073 20.4157 Z"
   class="st4" />
			<path
   class="st5"
   d="M 138.144 203.568 L 7.94581 203.568 L 7.94581 17.7739 L 138.144 17.7739 Z M 11.4156 200.177 L 134.713 200.177 L 134.713 21.7169 L 11.4156 21.7169 Z"
   id="path1126" />
		</g>
		<path
   id="rect1130"
   style="fill:#353535"
   d="M 26.0048 173.444 L 120.085 173.444 L 120.085 47.9379 L 26.0048 47.9379 Z"
   class="st6" />
		<g
   id="g1134">
			<path
   class="st6"
   d="M 11.4156 21.7169 C 14.2152 25.8965 16.6598 30.2338 19.1439 34.5711 C 21.5097 38.9478 23.9544 43.3246 26.0048 47.8984 C 23.2052 43.7189 20.7606 39.3816 18.2765 35.0443 C 15.9107 30.6675 13.5054 26.2908 11.4156 21.7169 Z"
   id="path1132" />
		</g>
		<g
   id="g1138">
			<path
   class="st6"
   d="M 120.124 173.444 C 122.924 177.702 125.368 182.158 127.852 186.574 C 130.218 191.069 132.663 195.524 134.713 200.177 C 131.914 195.919 129.469 191.463 126.985 187.047 C 124.619 182.552 122.175 178.096 120.124 173.444 Z"
   id="path1136" />
		</g>
		<g
   id="g1142">
			<path
   class="st6"
   d="M 11.4156 200.177 C 13.5054 195.603 15.9107 191.226 18.2765 186.85 C 20.7606 182.512 23.2052 178.175 26.0048 173.996 C 23.915 178.569 21.5097 182.946 19.1439 187.323 C 16.6598 191.66 14.2152 196.037 11.4156 200.177 Z"
   id="path1140" />
		</g>
		<g
   id="g1146">
			<path
   class="st6"
   d="M 120.124 48.4899 C 122.214 43.8372 124.619 39.3816 126.985 34.8865 C 129.469 30.4704 131.914 26.0148 134.713 21.7564 C 132.623 26.4091 130.218 30.8647 127.852 35.3597 C 125.368 39.7759 122.924 44.192 120.124 48.4899 Z"
   id="path1144" />
		</g>
	</g>
</g>
	<g
   id="g129">
		<path
   class="st7"
   d="M239.09,101.95h-40.56c-10.48,0-18.97-8.49-18.97-18.97v0c0-10.48,8.49-18.97,18.97-18.97h40.56    c10.48,0,18.97,8.49,18.97,18.97v0C258.07,93.45,249.57,101.95,239.09,101.95z"
   id="path73" />
		<path
   class="st7"
   d="M241.73,154.79h-40.56c-10.48,0-18.97-8.49-18.97-18.97v0c0-10.48,8.49-18.97,18.97-18.97h40.56    c10.48,0,18.97,8.49,18.97,18.97v0C260.7,146.29,252.21,154.79,241.73,154.79z"
   id="path75" />
		<path
   class="st8"
   d="M168.31,161.07c0,0-13.81,5.31-17.57-1.55c-3.76-6.87,0.65-6.29,0.65-6.29s-3.43-1.06-1.55-4.99    c1.88-3.92,2.53-2.45,2.53-2.45s-5.31-10.13,13.08-4.33S168.31,161.07,168.31,161.07z"
   id="path77" />
		<path
   class="st8"
   d="M168.31,59.3c0,0-13.81-5.31-17.57,1.55s0.65,6.29,0.65,6.29s-3.43,1.06-1.55,4.99    c1.88,3.92,2.53,2.45,2.53,2.45s-5.31,10.13,13.08,4.33S168.31,59.3,168.31,59.3z"
   id="path79" />
		<path
   class="st9"
   d="M251.09,60.22c0,0,50.69-5.66,50.69,50.24s-50.69,49.43-50.69,49.43s-66.4-3.47-66.4-49.17    S251.09,60.22,251.09,60.22z"
   id="path81" />
		<g
   id="g103">
			<g
   id="g87">
				<path
   class="st10"
   d="M235.3,108.59c0,10.15-6.63,18.98-16.43,23.57c-0.39,0.18-0.79,0.36-1.19,0.53      c-1.62,2.32-4.05,1.85-6.17,1.5c-0.35-0.06-0.7-0.11-1.03-0.15c-0.25,0.33-0.51,0.62-0.78,0.89c-0.27,0.27-0.55,0.5-0.83,0.71      c-0.46,2.46-2.31,2.07-4.52,1.43c-0.37-0.11-0.75-0.22-1.14-0.3c-0.26,0.08-0.63,0.15-1.08,0.21c-0.22,0.03-0.47,0.06-0.73,0.08      c-0.32,0.02-0.64,0.05-0.96,0.1c-2.23,3.4-8.73,3.4-10.86-0.52c-0.25-0.08-0.5-0.17-0.74-0.27c-1.2-0.5-2.23-1.26-3.22-2.42      c-0.26-0.08-0.52-0.13-0.79-0.15c-0.25-0.15-0.49-0.33-0.73-0.52c-1.17-0.96-2.16-2.38-2.99-3.64c-0.2-0.3-0.39-0.6-0.57-0.86      c-5.08,2.03-5.08-4.47-7.86-6.79c-0.24-0.13-0.47-0.27-0.67-0.44c-0.77-0.65-1.01-1.66-0.17-3.49      c-0.24-0.21-0.46-0.43-0.65-0.67c-0.97-1.18-1.34-2.77-0.46-5.95c-0.13-0.18-0.26-0.36-0.4-0.54c-1.59-2.12-2.9-3.95-0.32-5.59      c-0.1-0.35-0.17-0.7-0.21-1.04c-0.25-2.05,0.63-3.99,2.84-5.89c0.03-0.33,0.04-0.66,0.07-1c0.23-2.72,1.7-5.68,6.09-5.9      c-0.09-0.26-0.18-0.5-0.18-0.73c-2.36-5.18,6.64-2.4,7.93-7.09c0.31-0.2,0.63-0.38,0.97-0.54c2.32-1.1,5-1.14,6.12-1.24      c0.35-0.11,0.68-0.17,1.02-0.18c2.33-0.08,4.77,1.93,7.59-1.97c0.41-0.15,0.84-0.28,1.28-0.38c2.18-0.49,4.44-0.25,4.47,1.23      c0.59,0.36,1.18,0.71,1.76,0.97c0.58,0.26,1.17,0.43,1.76,0.41c0.42-0.01,0.83-0.02,1.23-0.03c0.23-0.01,0.46-0.01,0.69-0.02      c1.61-0.06,3.16-0.16,4.32-0.33c0.39,0.04,0.73,0.11,1.04,0.23c2.49,0.91,3.17,4.39,5.2,6.18c0.35,0.25,0.68,0.5,1.02,0.76      C231.34,93.69,235.3,100.75,235.3,108.59z"
   id="path83" />
				<path
   class="st11"
   d="M235.3,108.59c0.03,5.29-1.89,10.51-5.11,14.68c-1.6,2.1-3.51,3.96-5.62,5.55      c-2.11,1.59-4.43,2.89-6.85,3.95l0.04-0.03c-0.38,0.54-0.87,1.03-1.46,1.34c-0.59,0.32-1.26,0.46-1.92,0.5      c-0.66,0.03-1.32-0.04-1.97-0.13c-0.65-0.1-1.29-0.2-1.93-0.29l0.1-0.04l-0.76,0.87c-0.28,0.26-0.58,0.51-0.87,0.76l0.05-0.08      c-0.1,0.56-0.31,1.16-0.78,1.57c-0.47,0.41-1.13,0.49-1.69,0.44c-0.58-0.04-1.14-0.18-1.69-0.33l-1.64-0.43l0.07,0      c-0.47,0.08-0.94,0.21-1.41,0.25l-1.39,0.15l0.1-0.07c-0.6,0.92-1.52,1.6-2.52,2.01c-1,0.42-2.1,0.59-3.18,0.55      c-1.08-0.04-2.16-0.3-3.13-0.82c-0.96-0.51-1.8-1.29-2.33-2.26l0.11,0.09c-0.39-0.14-0.78-0.26-1.16-0.45      c-0.38-0.18-0.73-0.39-1.08-0.62c-0.69-0.47-1.29-1.04-1.82-1.67l0.1,0.06l-0.75-0.14l-0.07-0.01l-0.02-0.02      c-0.47-0.33-0.95-0.65-1.34-1.06c-0.41-0.4-0.77-0.82-1.12-1.27c-0.7-0.88-1.29-1.83-1.91-2.74l0.26,0.08      c-0.92,0.35-2,0.58-3,0.18c-1.01-0.39-1.64-1.28-2.13-2.12c-0.5-0.86-0.89-1.75-1.34-2.6c-0.45-0.84-0.94-1.67-1.64-2.26      l0.04,0.03c-0.33-0.24-0.7-0.4-0.99-0.74c-0.29-0.32-0.46-0.75-0.5-1.18c-0.07-0.86,0.22-1.63,0.53-2.34l0.07,0.31l-0.65-0.67      c-0.2-0.24-0.38-0.5-0.54-0.78c-0.3-0.57-0.46-1.2-0.5-1.82c-0.09-1.25,0.17-2.46,0.48-3.62l0.04,0.25      c-0.7-0.98-1.53-1.91-2.03-3.13c-0.25-0.6-0.3-1.37,0.01-2.01c0.32-0.63,0.85-1.06,1.38-1.4l-0.12,0.32      c-0.14-0.67-0.31-1.34-0.25-2.04c0.03-0.69,0.2-1.38,0.48-2.01c0.56-1.27,1.49-2.29,2.5-3.16l-0.09,0.18      c0.06-0.85,0.11-1.75,0.37-2.62c0.25-0.86,0.66-1.69,1.24-2.39c0.59-0.7,1.36-1.23,2.19-1.57c0.84-0.34,1.73-0.5,2.61-0.55      l-0.21,0.31c-0.08-0.24-0.18-0.49-0.19-0.81l0.02,0.1c-0.21-0.48-0.39-1-0.4-1.57c-0.04-0.57,0.27-1.17,0.72-1.5      c0.91-0.66,1.96-0.83,2.94-1.09c0.99-0.24,1.98-0.49,2.85-0.95c0.88-0.44,1.58-1.19,1.83-2.13l0.02-0.08l0.06-0.03      c0.55-0.3,1.09-0.63,1.69-0.84c0.59-0.22,1.19-0.39,1.8-0.52c1.22-0.26,2.47-0.35,3.69-0.43l-0.04,0.01      c0.8-0.27,1.66-0.19,2.44-0.05c0.79,0.14,1.56,0.34,2.33,0.32c0.77-0.01,1.52-0.24,2.15-0.69c0.63-0.44,1.15-1.03,1.63-1.66      l0.03-0.04l0.04-0.01c0.53-0.14,1.05-0.34,1.6-0.44c0.54-0.1,1.09-0.16,1.65-0.17c0.55,0,1.12,0.06,1.65,0.27      c0.54,0.18,1.03,0.7,1.03,1.32l-0.06-0.11l1.09,0.61c0.37,0.2,0.72,0.42,1.12,0.55c0.77,0.32,1.61,0.2,2.45,0.2      c0.84,0,1.67-0.1,2.51-0.15l2.51-0.18l0.02,0l0.01,0c0.78,0.06,1.56,0.37,2.16,0.88c0.61,0.5,1.08,1.15,1.49,1.8      c0.83,1.3,1.49,2.74,2.63,3.77l-0.01,0c3.3,2.38,6.16,5.42,8.16,8.97C234.2,100.47,235.32,104.52,235.3,108.59z M235.3,108.59      c-0.01-4.07-1.14-8.11-3.17-11.63c-2.02-3.53-4.88-6.54-8.18-8.89l0,0l0,0c-1.18-1.06-1.85-2.5-2.68-3.79      c-0.41-0.65-0.87-1.27-1.46-1.75c-0.58-0.48-1.31-0.77-2.07-0.83l0.02,0l-2.52,0.2c-0.84,0.06-1.68,0.16-2.52,0.17l-1.26,0.03      c-0.44,0.01-0.87-0.09-1.28-0.23c-0.41-0.13-0.78-0.35-1.15-0.55l-1.11-0.61l-0.06-0.03l0-0.07c-0.01-0.51-0.38-0.91-0.87-1.08      c-0.48-0.19-1.02-0.24-1.55-0.24c-0.53,0-1.07,0.07-1.6,0.17c-0.53,0.1-1.03,0.29-1.55,0.44l0.07-0.05      c-0.48,0.64-1.02,1.26-1.69,1.74c-0.67,0.48-1.5,0.74-2.32,0.76c-0.83,0.02-1.62-0.18-2.39-0.31c-0.77-0.13-1.55-0.2-2.27,0.05      l-0.02,0.01l-0.02,0c-1.24,0.09-2.45,0.18-3.64,0.45c-0.59,0.13-1.18,0.3-1.74,0.51c-0.57,0.2-1.09,0.52-1.61,0.81l0.08-0.11      c-0.27,1.06-1.08,1.92-2.02,2.39c-0.94,0.5-1.95,0.75-2.94,1c-0.97,0.26-2.01,0.46-2.77,1.02c-0.8,0.56-0.59,1.66-0.18,2.53      l0.02,0.04l0,0.05c0,0.19,0.08,0.41,0.16,0.65l0.1,0.3l-0.31,0.02c-1.68,0.09-3.38,0.67-4.44,1.97c-0.53,0.64-0.9,1.4-1.13,2.2      c-0.23,0.81-0.28,1.65-0.34,2.53l-0.01,0.1l-0.08,0.07c-0.97,0.85-1.84,1.82-2.34,2.98c-0.25,0.57-0.4,1.19-0.42,1.81      c-0.05,0.62,0.11,1.24,0.24,1.86l0.04,0.21l-0.17,0.11c-0.48,0.32-0.93,0.7-1.16,1.17c-0.22,0.47-0.2,1.02,0.02,1.55      c0.42,1.06,1.22,2,1.94,3l0.08,0.11l-0.04,0.13c-0.31,1.13-0.56,2.29-0.48,3.43c0.03,0.57,0.17,1.11,0.43,1.6      c0.13,0.24,0.29,0.48,0.47,0.69l0.59,0.61l0.14,0.15l-0.08,0.17c-0.3,0.67-0.56,1.39-0.5,2.07c0.03,0.34,0.16,0.64,0.37,0.89      c0.21,0.26,0.56,0.42,0.84,0.63l0.04,0.03c0.79,0.68,1.3,1.56,1.75,2.43c0.45,0.87,0.84,1.76,1.31,2.59      c0.47,0.81,1.05,1.61,1.89,1.93c0.83,0.34,1.79,0.16,2.66-0.16l0.17-0.06l0.09,0.14c0.62,0.93,1.2,1.87,1.88,2.73      c0.34,0.43,0.69,0.85,1.08,1.23c0.38,0.4,0.82,0.7,1.26,1.01l-0.09-0.03l0.83,0.16l0.05,0.01l0.04,0.05      c0.51,0.61,1.09,1.16,1.74,1.61c0.65,0.46,1.37,0.78,2.13,1.03l0.07,0.02l0.03,0.06c0.49,0.9,1.26,1.64,2.17,2.12      c0.91,0.49,1.94,0.75,2.97,0.79c1.04,0.05,2.08-0.12,3.04-0.51c0.96-0.39,1.82-1.02,2.39-1.88l0.04-0.06l0.06-0.01l1.4-0.15      c0.46-0.04,0.9-0.16,1.36-0.23l0.05-0.01l0.02,0.01l1.65,0.45c0.54,0.15,1.09,0.28,1.64,0.33c0.54,0.05,1.11-0.03,1.51-0.37      c0.4-0.34,0.6-0.88,0.7-1.42l0.01-0.04l0.04-0.03c0.28-0.24,0.57-0.48,0.85-0.73l0.75-0.84l0.05-0.05l0.06,0.01      c1.31,0.16,2.58,0.49,3.87,0.44c0.64-0.03,1.28-0.17,1.84-0.46c0.57-0.29,1.04-0.75,1.41-1.27l0.02-0.02l0.02-0.01      c2.41-1.04,4.73-2.32,6.84-3.89c2.11-1.57,4.02-3.41,5.63-5.49C233.35,119.08,235.3,113.88,235.3,108.59z"
   id="path85" />
			</g>
			<path
   class="st12"
   d="M221.45,108.2c0,11.79-7.79,21.35-17.4,21.35c-1.13,0-2.24-0.13-3.32-0.39c-0.36-0.08-0.71-0.18-1.05-0.31     c1.63-7.79-8.12-1.29-8.04-8.24c-0.12-0.31-0.25-0.62-0.39-0.91c-0.69-1.47-1.69-2.67-3.69-3.45c-0.15-0.33-0.22-0.68-0.23-1.06     c-0.13-3.01,3.25-7.35-0.65-8.22c0.01-0.4,0.04-0.8,0.08-1.2c0.04-0.4,0.08-0.79,0.14-1.18c-1.84-3.03,7.91-6.28,4.09-10.5     c-0.22-0.46-0.36-0.84-0.42-1.15c-0.69-3.39,7.61,1.5,8.87-5.33c0.36-0.14,0.74-0.24,1.11-0.34c1.13-0.28,2.31-0.43,3.51-0.43     C213.66,86.85,221.45,96.41,221.45,108.2z"
   id="path89" />
			<g
   id="g95">
				<path
   class="st13"
   d="M189.68,112.05c-1.02,0.45-2.23,0.71-3.54,0.71c-3.63,0-6.58-2.04-6.58-4.56c0-2.52,2.95-4.56,6.58-4.56      c1.29,0,2.5,0.26,3.52,0.71"
   id="path91" />
				<path
   class="st14"
   d="M189.68,112.05c-1.86,0.95-4.1,1.1-6.16,0.58c-1.02-0.28-2.02-0.75-2.83-1.49      c-0.82-0.71-1.41-1.77-1.43-2.92c0.01-1.15,0.6-2.21,1.42-2.93c0.8-0.74,1.8-1.22,2.82-1.5c2.06-0.53,4.29-0.38,6.16,0.57      c-1.95-0.71-4.1-0.71-6.03-0.12c-0.95,0.33-1.88,0.77-2.58,1.46c-0.73,0.66-1.19,1.58-1.19,2.52c0,0.94,0.47,1.86,1.2,2.52      c0.71,0.69,1.64,1.12,2.59,1.45C185.58,112.77,187.73,112.76,189.68,112.05z"
   id="path93" />
			</g>
			<path
   class="st15"
   d="M231.45,87.3c0,0,0.19-1.44-1.45-2.89c-0.23-0.22-0.51-0.43-0.82-0.65c-2.42-2.89-4.85-3.37-8.98-2.74     c-0.41,0.06-0.84,0.11-1.3,0.1c-0.23,0.07-0.45,0.14-0.67,0.2c-0.22,0.06-0.44,0.11-0.67,0.15c-5.89-1.17-8.81-1.17-10.45,1.31     c-0.33,0.09-0.65,0.2-0.97,0.33c-1.58,0.64-2.99,1.78-4.22,3.87c-0.3,0.28-0.61,0.56-0.91,0.84c-0.28,0.27-0.57,0.54-0.89,0.8     c-0.54,0.08-1.02,0.2-1.47,0.36c-0.44,0.16-0.84,0.35-1.2,0.58c-0.31,0-0.59,0.02-0.84,0.06c-0.25,0.04-0.48,0.1-0.68,0.19     c-2.74,2.01-2.74,8.51-4.76,11.95c0,0.39,0.01,0.76,0.01,1.13c0,0.36,0.01,0.72,0.01,1.06c0.01,0.34,0.01,0.67,0.02,0.99     c-1.28,6.39-1.28,9.64,0.73,11.84c0.11,0.37,0.2,0.74,0.3,1.12c0.16,0.36,0.35,0.7,0.57,1c1.35,7.5,7.19,4.42,6.41,9.34     c0.14,0.29,0.31,0.55,0.5,0.78c0.79,0.91,2.07,1.27,3.42,1.51c0.39,0.07,0.78,0.12,1.15,0.21c0.58,0.68,1.35,1.1,2.27,1.42     c0.31,0.11,0.64,0.2,0.98,0.29c2.88,0.07,5.18,3.1,7.3,3.86c0.3,0.11,0.6,0.17,0.9,0.17c2.34-0.43,4.24-0.65,5.83-1.02     c0.32-0.07,0.63-0.15,0.93-0.24c3.76,0.4,9.6,0.4,8.96-6.46c0-0.24,0-0.52,0-0.82C231.51,119.21,231.45,87.3,231.45,87.3z"
   id="path97" />
			<path
   class="st15"
   d="M299.49,109.02c-1.01,0.05-1.01,2.56-1.16,2.38c-0.06,0.31-0.13,0.57-0.22,0.7c-0.1,0.36-0.23,0.69-0.38,1     c-0.11,0.23-0.23,0.46-0.36,0.68c-1.39,2.8-3.9,2.8-8.57,2.76c-0.33,0.01-0.66-0.01-0.99-0.07c-0.99-0.17-1.95-0.68-2.82-1.78     c-0.34-0.07-0.65-0.13-0.93-0.21c-3.09-0.85-3.03-3.43-2.23-9.05c0.11-0.21,0.24-0.44,0.39-0.69c0.16-0.26,0.34-0.54,0.53-0.87     c0.71-4.81,5.72-2.31,7.61-4.03c0.36,0.01,0.73,0.06,1.11,0.17c0.38,0.11,0.78,0.29,1.2,0.55c0.21,0.13,0.43,0.27,0.65,0.44     c0.52-0.19,0.93-0.27,1.26-0.25c0.33,0.02,0.58,0.14,0.78,0.33c0.62,5.49,5.62,2.98,4.42,7.27     C299.71,108.53,299.61,108.75,299.49,109.02z"
   id="path99" />
			<path
   class="st7"
   d="M289.35,110.48c1.87-0.69,1.7-3.38-0.24-3.88c-38.58-10.05-52.25-20.32-61.57-21.16     c-0.93-0.11-3.82-0.25-3.82-0.25c-15.08,0-27.3,10.3-27.3,23.01c0,12.71,12.22,23.01,27.3,23.01c3.61,0,7.04-0.6,10.19-1.67     C255.02,123,278.49,114.49,289.35,110.48z"
   id="path101" />
		</g>
		<g
   id="g109">
			<path
   class="st16"
   d="M286.77,131.21c0,0-8.36,36.6-40.82,43.89c-32.47,7.28-78.73-16.12-78.73-16.12l15.14-15.24     c0,0,24.9,2.71,44.92,5.34"
   id="path105" />
			<path
   class="st17"
   d="M286.77,131.21c-1.46,5.85-3.77,11.48-6.64,16.79c-2.89,5.3-6.45,10.27-10.77,14.53     c-4.3,4.26-9.36,7.81-14.94,10.22c-2.79,1.21-5.69,2.16-8.66,2.81c-2.97,0.64-5.99,1.03-9.01,1.24c-6.06,0.34-12.14,0-18.12-0.87     c-5.99-0.84-11.91-2.14-17.74-3.73c-11.64-3.27-22.97-7.55-33.86-12.83l-0.54-0.26l0.43-0.43l15.2-15.18l0.12-0.12l0.16,0.02     c7.49,0.87,14.98,1.74,22.46,2.7c7.48,0.95,14.96,1.94,22.42,2.99c-7.48-0.91-14.98-1.75-22.47-2.57l-22.49-2.42l0.28-0.1     l-15.08,15.3l-0.11-0.69c10.82,5.2,22.15,9.45,33.73,12.65c5.8,1.59,11.67,2.91,17.61,3.76c5.94,0.88,11.95,1.24,17.94,0.92     c2.99-0.2,5.96-0.57,8.89-1.19c2.92-0.63,5.79-1.52,8.54-2.68c5.51-2.32,10.54-5.76,14.83-9.94c4.3-4.18,7.91-9.05,10.89-14.27     C282.8,142.61,285.21,137.03,286.77,131.21z"
   id="path107" />
		</g>
		<g
   id="g115">
			<path
   class="st10"
   d="M168.76,141.4c-1.65,0.87-2.17,2.45-1.43,4.62c0.05,0.14,0.1,0.27,0.15,0.42     c-3.76,1.42-1.62,3.34-0.43,5.15c0.15,0.23,0.28,0.45,0.38,0.67c-1.11,0.62-1.82,2.03-2,3.5c-0.03,0.24-0.05,0.49-0.05,0.74     c-0.45,0.82-0.84,2.66-0.28,4.33c0.08,0.24,0.18,0.47,0.3,0.7c0,2.73,1.14,3.13,2.42,3c0.21-0.02,0.43-0.06,0.65-0.09     c0.83,0.62,3.02,1.06,4.68,0.95c0.24-0.02,0.47-0.04,0.68-0.08c1.17,0.54,3.32,0.96,4.67-0.4c0.17-0.17,0.33-0.37,0.49-0.59     c3.12-1.81,3.42-4.01,1.65-7.32c0.02-0.29,0.04-0.57,0.05-0.84c2.17-2.05,2.74-3.92,1.53-6.26c-0.12-0.23-0.26-0.47-0.41-0.71     c0.99-0.87,1.62-1.77,1.85-2.74c0.05-0.19,0.08-0.39,0.09-0.59c0.55-2.24,0.13-3.26-0.57-3.98c-0.14-0.15-0.29-0.28-0.44-0.43     c0.32-1.72-0.01-2.65-0.9-3.19c-0.15-0.09-0.31-0.17-0.49-0.24c-0.94-1.6-2.78-1.7-4.37-1.5c-0.23,0.03-0.45,0.06-0.66,0.1     c-1.47-1.25-2.75-1.86-4-1.28c-0.18,0.08-0.36,0.19-0.53,0.33c-2.23,0.48-2.23,0.48-2.65,3.39c-0.01,0.14-0.02,0.29-0.04,0.63     c-0.01,0.17-0.02,0.39-0.11,1.17C168.94,141.02,168.87,141.21,168.76,141.4z"
   id="path111" />
			<path
   class="st11"
   d="M168.76,141.4c-0.85,0.45-1.54,1.26-1.67,2.22c-0.15,0.95,0.11,1.91,0.46,2.8l0.03,0.07l-0.07,0.03     c-0.57,0.24-1.14,0.51-1.57,0.93c-0.21,0.21-0.37,0.46-0.43,0.75c-0.04,0.28-0.03,0.58,0.09,0.86c0.2,0.56,0.58,1.06,0.94,1.57     c0.38,0.5,0.74,1.02,1.05,1.59l0.07,0.13l-0.14,0.08c-0.67,0.39-1.16,1.05-1.46,1.78c-0.16,0.36-0.27,0.75-0.35,1.13     c-0.09,0.39-0.09,0.79-0.12,1.18l0,0.05l-0.02,0.04c-0.36,0.73-0.51,1.59-0.51,2.42c0,0.42,0.05,0.84,0.14,1.24     c0.08,0.41,0.27,0.78,0.43,1.16l0.03,0.06l0,0.05c0.02,0.83,0.1,1.73,0.59,2.3c0.24,0.28,0.59,0.42,0.98,0.45     c0.39,0.04,0.81-0.04,1.22-0.1l0.11-0.02l0.1,0.06c0.68,0.45,1.62,0.65,2.49,0.79c0.45,0.06,0.89,0.1,1.34,0.11     c0.45,0.02,0.89-0.04,1.32-0.1l0.09-0.01l0.08,0.03c0.83,0.37,1.76,0.56,2.65,0.45c0.44-0.06,0.87-0.19,1.23-0.42     c0.38-0.21,0.64-0.59,0.93-0.94l0.04-0.05l0.04-0.03c1.19-0.7,2.32-1.68,2.52-3.01c0.22-1.32-0.34-2.69-0.98-3.93l-0.04-0.07     l0.01-0.09l0.05-0.83l0.01-0.12l0.08-0.08c0.92-0.87,1.77-1.9,2-3.11c0.13-0.6,0.07-1.22-0.11-1.81     c-0.17-0.6-0.48-1.16-0.81-1.71l-0.11-0.2l0.16-0.15c0.48-0.42,0.92-0.89,1.26-1.42c0.17-0.26,0.31-0.54,0.41-0.83     c0.11-0.29,0.14-0.6,0.19-0.9l0.01-0.04c0.18-0.76,0.32-1.55,0.22-2.3c-0.05-0.37-0.17-0.72-0.36-1.03     c-0.19-0.31-0.49-0.57-0.77-0.86l-0.09-0.09l0.02-0.12c0.12-0.65,0.19-1.33,0.03-1.93c-0.09-0.3-0.24-0.57-0.47-0.77     c-0.21-0.22-0.52-0.35-0.8-0.49l-0.07-0.04l-0.03-0.05c-0.43-0.77-1.23-1.27-2.11-1.42c-0.89-0.16-1.81-0.08-2.72,0.07     l-0.07,0.01l-0.06-0.05c-0.64-0.54-1.31-1.06-2.08-1.34c-0.38-0.13-0.79-0.2-1.19-0.13c-0.2,0.02-0.39,0.09-0.58,0.17l-0.53,0.31     l-0.02,0.01l-0.01,0c-0.54,0.12-1.11,0.2-1.59,0.43c-0.5,0.23-0.67,0.81-0.78,1.35c-0.11,0.54-0.2,1.1-0.27,1.65     c-0.04,0.56-0.11,1.11-0.17,1.67l0,0L168.76,141.4z M168.76,141.4l0.22-0.55l0,0c0.04-0.56,0.1-1.11,0.13-1.67     c0.06-0.56,0.13-1.11,0.23-1.67c0.1-0.53,0.26-1.17,0.81-1.46c0.52-0.27,1.08-0.36,1.62-0.49l-0.04,0.02l0.56-0.35     c0.2-0.09,0.41-0.17,0.63-0.2c0.44-0.09,0.89-0.02,1.31,0.11c0.84,0.28,1.54,0.81,2.2,1.35l-0.13-0.04     c0.92-0.17,1.88-0.27,2.84-0.12c0.95,0.14,1.9,0.7,2.4,1.57l-0.1-0.08c0.33,0.15,0.67,0.29,0.94,0.56     c0.28,0.25,0.48,0.6,0.59,0.95c0.21,0.72,0.13,1.45,0.01,2.14l-0.07-0.21c0.29,0.28,0.61,0.55,0.85,0.93     c0.24,0.37,0.39,0.8,0.45,1.22c0.13,0.86-0.03,1.69-0.21,2.49l0.01-0.04c-0.05,0.35-0.09,0.7-0.21,1.03     c-0.12,0.33-0.27,0.65-0.46,0.94c-0.37,0.59-0.84,1.09-1.35,1.54l0.05-0.34c0.34,0.58,0.68,1.17,0.87,1.83     c0.2,0.66,0.27,1.38,0.13,2.07c-0.27,1.41-1.2,2.5-2.15,3.42l0.09-0.2l-0.05,0.85l-0.03-0.16c0.34,0.65,0.65,1.32,0.87,2.04     c0.21,0.71,0.33,1.49,0.2,2.27c-0.12,0.78-0.53,1.49-1.05,2.04c-0.52,0.56-1.14,0.99-1.78,1.36l0.09-0.08     c-0.32,0.38-0.63,0.81-1.09,1.08c-0.45,0.28-0.96,0.44-1.47,0.5c-1.02,0.11-2.03-0.1-2.95-0.51l0.17,0.02     c-0.48,0.07-0.96,0.12-1.43,0.1c-0.47-0.01-0.94-0.05-1.41-0.12c-0.47-0.07-0.93-0.17-1.39-0.3c-0.46-0.14-0.91-0.3-1.34-0.6     l0.2,0.05c-0.44,0.06-0.88,0.15-1.36,0.1c-0.47-0.03-0.99-0.24-1.31-0.63c-0.34-0.38-0.49-0.85-0.58-1.29     c-0.09-0.45-0.1-0.9-0.11-1.34l0.03,0.11c-0.18-0.42-0.37-0.83-0.45-1.28c-0.09-0.44-0.13-0.89-0.13-1.34     c0.02-0.9,0.17-1.79,0.6-2.61l-0.02,0.1c0.03-0.42,0.04-0.85,0.14-1.26c0.09-0.41,0.21-0.82,0.39-1.2     c0.34-0.77,0.87-1.49,1.64-1.92l-0.07,0.21c-0.28-0.53-0.62-1.04-0.99-1.55c-0.35-0.52-0.73-1.03-0.94-1.66     c-0.12-0.3-0.14-0.66-0.07-0.98c0.08-0.33,0.28-0.62,0.51-0.84c0.48-0.45,1.07-0.7,1.66-0.93l-0.04,0.1     c-0.33-0.9-0.57-1.89-0.39-2.86C167.18,142.62,167.9,141.82,168.76,141.4z"
   id="path113" />
		</g>
		<g
   id="g121">
			<path
   class="st16"
   d="M286.77,90.13c0,0-8.36-36.6-40.82-43.89s-78.73,16.12-78.73,16.12l15.14,15.24c0,0,24.9-2.71,44.92-5.34"
   id="path117" />
			<path
   class="st17"
   d="M286.77,90.13c-1.57-5.82-3.97-11.4-6.92-16.63c-2.98-5.22-6.59-10.09-10.89-14.27     c-4.3-4.17-9.32-7.61-14.83-9.94c-2.75-1.16-5.62-2.06-8.54-2.68c-2.93-0.62-5.9-0.99-8.89-1.19c-5.98-0.32-12,0.04-17.94,0.92     c-5.94,0.85-11.82,2.17-17.61,3.76c-11.58,3.2-22.91,7.45-33.73,12.65l0.11-0.69l15.08,15.3l-0.28-0.1l22.49-2.42     c7.49-0.81,14.99-1.66,22.47-2.57c-7.47,1.05-14.94,2.03-22.42,2.99c-7.48,0.96-14.97,1.83-22.46,2.7l-0.16,0.02l-0.12-0.12     l-15.2-15.18l-0.43-0.43l0.54-0.26c10.89-5.28,22.22-9.57,33.86-12.83c5.83-1.6,11.75-2.9,17.74-3.73     c5.99-0.87,12.07-1.21,18.12-0.87c3.03,0.21,6.04,0.6,9.01,1.24c2.97,0.65,5.87,1.6,8.66,2.81c5.58,2.42,10.64,5.96,14.94,10.22     c4.32,4.26,7.88,9.23,10.77,14.53C283,78.65,285.31,84.28,286.77,90.13z"
   id="path119" />
		</g>
		<g
   id="g127">
			<path
   class="st10"
   d="M168.76,79.95c-1.65-0.87-2.17-2.45-1.43-4.62c0.05-0.14,0.1-0.27,0.15-0.42     c-3.76-1.42-1.62-3.34-0.43-5.15c0.15-0.23,0.28-0.45,0.38-0.67c-1.11-0.62-1.82-2.03-2-3.5c-0.03-0.24-0.05-0.49-0.05-0.74     c-0.45-0.82-0.84-2.66-0.28-4.33c0.08-0.24,0.18-0.47,0.3-0.7c0-2.73,1.14-3.13,2.42-3c0.21,0.02,0.43,0.06,0.65,0.09     c0.83-0.62,3.02-1.06,4.68-0.95c0.24,0.02,0.47,0.04,0.68,0.08c1.17-0.54,3.32-0.96,4.67,0.4c0.17,0.17,0.33,0.37,0.49,0.59     c3.12,1.81,3.42,4.01,1.65,7.32c0.02,0.29,0.04,0.57,0.05,0.84c2.17,2.05,2.74,3.92,1.53,6.26c-0.12,0.23-0.26,0.47-0.41,0.71     c0.99,0.87,1.62,1.77,1.85,2.74c0.05,0.19,0.08,0.39,0.09,0.59c0.55,2.24,0.13,3.26-0.57,3.98c-0.14,0.15-0.29,0.28-0.44,0.43     c0.32,1.72-0.01,2.65-0.9,3.19c-0.15,0.09-0.31,0.17-0.49,0.24c-0.94,1.6-2.78,1.7-4.37,1.5c-0.23-0.03-0.45-0.06-0.66-0.1     c-1.47,1.25-2.75,1.86-4,1.28c-0.18-0.08-0.36-0.19-0.53-0.33c-2.23-0.48-2.23-0.48-2.65-3.39c-0.01-0.14-0.02-0.29-0.04-0.63     c-0.01-0.17-0.02-0.39-0.11-1.17C168.94,80.32,168.87,80.14,168.76,79.95z"
   id="path123" />
			<path
   class="st11"
   d="M168.76,79.95c-0.86-0.42-1.58-1.22-1.74-2.2c-0.18-0.97,0.06-1.96,0.39-2.86l0.04,0.1     c-0.58-0.23-1.18-0.48-1.66-0.93c-0.24-0.22-0.44-0.51-0.51-0.84c-0.06-0.33-0.04-0.68,0.07-0.98c0.21-0.63,0.59-1.15,0.94-1.66     c0.37-0.51,0.71-1.02,0.99-1.55l0.07,0.21c-0.77-0.43-1.3-1.15-1.64-1.92c-0.17-0.39-0.3-0.79-0.39-1.2     c-0.1-0.41-0.11-0.84-0.14-1.26l0.02,0.1c-0.42-0.83-0.58-1.72-0.6-2.61c-0.01-0.45,0.03-0.9,0.13-1.34     c0.08-0.45,0.28-0.86,0.45-1.28l-0.03,0.11c0-0.44,0.02-0.89,0.11-1.34c0.09-0.45,0.24-0.91,0.58-1.29     c0.32-0.39,0.84-0.6,1.31-0.63c0.48-0.05,0.92,0.04,1.36,0.1l-0.2,0.05c0.43-0.3,0.88-0.46,1.34-0.6     c0.46-0.14,0.92-0.23,1.39-0.3c0.47-0.07,0.94-0.11,1.41-0.12c0.47-0.02,0.95,0.04,1.43,0.1l-0.17,0.02     c0.92-0.41,1.93-0.63,2.95-0.51c0.51,0.06,1.02,0.22,1.47,0.5c0.47,0.27,0.78,0.69,1.09,1.08l-0.09-0.08     c0.64,0.37,1.25,0.81,1.78,1.36c0.52,0.55,0.93,1.26,1.05,2.04c0.13,0.77,0.02,1.55-0.2,2.27c-0.21,0.72-0.53,1.39-0.87,2.04     l0.03-0.16l0.05,0.85l-0.09-0.2c0.95,0.92,1.88,2.01,2.15,3.42c0.14,0.69,0.07,1.41-0.13,2.07c-0.19,0.67-0.53,1.26-0.87,1.83     l-0.05-0.34c0.5,0.45,0.97,0.95,1.35,1.54c0.19,0.29,0.34,0.61,0.46,0.94c0.13,0.33,0.16,0.68,0.21,1.03l-0.01-0.04     c0.18,0.8,0.34,1.63,0.21,2.49c-0.06,0.43-0.21,0.85-0.45,1.22c-0.24,0.38-0.57,0.65-0.85,0.93l0.07-0.21     c0.12,0.69,0.19,1.41-0.01,2.14c-0.11,0.36-0.31,0.7-0.59,0.95c-0.27,0.27-0.62,0.41-0.94,0.56l0.1-0.08     c-0.5,0.87-1.44,1.42-2.4,1.57c-0.96,0.16-1.92,0.05-2.84-0.12l0.13-0.04c-0.66,0.54-1.36,1.07-2.2,1.35     c-0.42,0.13-0.87,0.2-1.31,0.11c-0.22-0.03-0.43-0.11-0.63-0.2l-0.56-0.35l0.04,0.02c-0.54-0.14-1.1-0.22-1.62-0.49     c-0.56-0.28-0.72-0.93-0.81-1.46c-0.1-0.55-0.18-1.11-0.23-1.67c-0.02-0.56-0.08-1.12-0.13-1.67l0,0L168.76,79.95z M168.76,79.95     l0.23,0.54l0,0c0.06,0.56,0.13,1.11,0.17,1.67c0.07,0.55,0.16,1.11,0.27,1.65c0.11,0.53,0.28,1.11,0.78,1.35     c0.48,0.24,1.05,0.31,1.59,0.43l0.01,0l0.02,0.01l0.53,0.31c0.19,0.08,0.38,0.15,0.58,0.17c0.4,0.07,0.81,0,1.19-0.13     c0.77-0.28,1.44-0.8,2.08-1.34l0.06-0.05l0.07,0.01c0.91,0.15,1.84,0.23,2.72,0.07c0.88-0.15,1.68-0.64,2.11-1.42l0.03-0.05     l0.07-0.04c0.29-0.14,0.59-0.27,0.8-0.49c0.23-0.21,0.38-0.48,0.47-0.77c0.17-0.6,0.1-1.28-0.03-1.93l-0.02-0.12l0.09-0.09     c0.29-0.28,0.59-0.55,0.77-0.86c0.2-0.31,0.31-0.66,0.36-1.03c0.1-0.75-0.03-1.53-0.22-2.3l-0.01-0.04     c-0.05-0.3-0.08-0.61-0.19-0.9c-0.1-0.29-0.24-0.57-0.41-0.83c-0.34-0.53-0.78-0.99-1.26-1.42l-0.16-0.15l0.11-0.2     c0.32-0.55,0.64-1.11,0.81-1.71c0.18-0.59,0.24-1.22,0.11-1.81c-0.23-1.21-1.08-2.23-2-3.11l-0.08-0.08l-0.01-0.12l-0.05-0.83     l-0.01-0.09l0.04-0.07c0.64-1.24,1.2-2.61,0.98-3.93c-0.2-1.33-1.33-2.31-2.52-3.01l-0.04-0.03l-0.04-0.05     c-0.29-0.35-0.56-0.72-0.93-0.94c-0.36-0.23-0.79-0.37-1.23-0.42c-0.88-0.11-1.82,0.08-2.65,0.45l-0.08,0.03l-0.09-0.01     c-0.43-0.06-0.87-0.12-1.32-0.1c-0.45,0.01-0.9,0.04-1.34,0.11c-0.87,0.14-1.81,0.34-2.49,0.79l-0.1,0.06l-0.11-0.02     c-0.42-0.06-0.84-0.14-1.22-0.1c-0.39,0.03-0.74,0.17-0.98,0.45c-0.49,0.57-0.57,1.47-0.59,2.3l0,0.05l-0.03,0.06     c-0.16,0.38-0.35,0.75-0.43,1.16c-0.09,0.4-0.14,0.82-0.14,1.24c0,0.83,0.15,1.7,0.51,2.42l0.02,0.04l0,0.05     c0.03,0.39,0.03,0.79,0.12,1.18c0.08,0.39,0.19,0.77,0.35,1.13c0.31,0.72,0.79,1.39,1.46,1.78l0.14,0.08l-0.07,0.13     c-0.31,0.58-0.67,1.1-1.05,1.59c-0.36,0.5-0.74,1-0.94,1.57c-0.12,0.28-0.14,0.57-0.09,0.86c0.06,0.28,0.22,0.53,0.43,0.75     c0.43,0.42,1,0.69,1.57,0.93l0.07,0.03l-0.03,0.07c-0.35,0.89-0.61,1.84-0.46,2.8C167.23,78.69,167.91,79.5,168.76,79.95z"
   id="path125" />
		</g>
	</g>
	<g
   id="g163">
		<g
   id="g135">
			<path
   class="st18"
   d="M8.59,143.91c-10.32,13.48,4.22,26.07,9.23,38.02c0.78,1.6,1.71,3.14,2.76,4.62     c10.59,14.8,34.6,23.1,57.48,11.72c2.32,0.09,4.56,0.05,6.73-0.1c23.88-1.65,38.95-17.2,43.75-34.64     c1.11-1.68,2.17-3.4,3.18-5.16c11.94-17.76,17.75-34.54,12.61-54.1c-0.09-1.68-0.21-3.34-0.37-4.99     c-0.16-1.65-0.36-3.28-0.57-4.9c6.08-16.69-14.27-29.27-12.74-43.01c-0.4-1.48-0.89-2.91-1.49-4.31     c-5.33-12.51-18.98-22.37-40.89-24.04c-1.83-0.61-3.67-1.16-5.52-1.64c-5.57-1.42-11.37-2.17-17.32-2.17     c-1.89,0-3.76,0.08-5.61,0.22c-2.09,0.58-4.11,1.21-6.09,1.88C30.25,25.26,15.71,37.84,9.98,53.8c-0.37,1.15-0.69,2.3-0.96,3.47     c-1.34,5.83-1.36,11.92,0.12,17.97c0,0,0.6,3.61,1.26,9.41c0.17,1.45,0.33,3.04,0.41,4.74c-3.82,13.47-6.73,26.05,0.57,38.32     c0.04,1.17-0.04,2.32-0.17,3.45c-0.13,1.14-0.27,2.26-0.42,3.38c-0.15,1.07-0.32,2.14-0.5,3.19c-0.19,1.05-0.42,2.1-0.71,3.12     C9.29,141.89,8.96,142.91,8.59,143.91z"
   id="path131" />
			<path
   class="st19"
   d="M8.81,144.03c-1.43,1.88-2.49,3.88-3.09,6.09c-0.57,2.2-0.63,4.53-0.21,6.77     c0.83,4.52,3.14,8.62,5.51,12.55c5.44,7.49,7.88,17.03,15.2,22.93c6.89,6.11,15.82,9.77,24.96,10.7     c9.17,0.95,18.55-0.9,26.78-5.03l0.06-0.03l0.06,0c5.5,0.4,11.08-0.07,16.45-1.39c5.36-1.36,10.49-3.63,15.06-6.73     c4.54-3.14,8.51-7.09,11.63-11.62c3.15-4.51,5.41-9.59,6.85-14.87l0.02-0.08l0.05-0.07c1.1-1.68,2.14-3.4,3.12-5.15l0.01-0.01     l0.01-0.02c2.62-3.99,5.09-8.07,7.24-12.31c2.14-4.25,3.94-8.67,5.19-13.24c1.24-4.57,1.98-9.29,2.01-14.04     c0.04-4.74-0.6-9.48-1.73-14.1l-0.01-0.04l0-0.04l-0.3-4.94l-0.51-4.93l0,0l-0.01-0.07l0.02-0.05c0.68-1.78,1.1-3.66,1.21-5.58     c0.11-1.91-0.12-3.84-0.57-5.71c-0.91-3.75-2.73-7.21-4.66-10.54c-1.92-3.35-4.1-6.54-5.85-9.99c-0.89-1.71-1.68-3.49-2.21-5.36     c-0.54-1.86-0.83-3.82-0.66-5.79l0,0l0.01,0.09c-1.16-4.36-3.28-8.44-6.1-11.95c-2.84-3.51-6.35-6.44-10.23-8.73     c-3.88-2.31-8.11-4.01-12.46-5.21c-4.36-1.2-8.85-1.91-13.35-2.27l-0.03,0l-0.03-0.01c-4.55-1.53-9.24-2.64-14-3.23     c-4.76-0.59-9.58-0.7-14.36-0.31l0.05-0.01c-2.04,0.57-4.06,1.2-6.07,1.88l-0.02,0.01l-0.02,0c-6.46,1.11-12.83,2.93-18.73,5.77     c-5.9,2.83-11.34,6.67-15.74,11.52c-4.38,4.83-7.78,10.63-9.58,16.89c-1.73,6.3-1.81,13.02-0.26,19.36l0,0.01l0,0.01     c0.38,2.36,0.7,4.71,0.99,7.07c0.28,2.36,0.59,4.72,0.7,7.12l0,0.06l-0.02,0.06c-1.78,6.33-3.48,12.73-3.84,19.27     c-0.19,3.26,0,6.55,0.71,9.73c0.71,3.18,1.92,6.25,3.55,9.09l0,0.01l0.03,0.06l0,0.06c0.05,1.4-0.08,2.79-0.25,4.15     c-0.18,1.37-0.32,2.74-0.56,4.1c-0.21,1.36-0.42,2.73-0.76,4.07C9.71,141.39,9.32,142.66,8.81,144.03z M8.37,143.79     c0.44-1.21,0.87-2.57,1.19-3.88c0.34-1.32,0.55-2.68,0.76-4.03c0.23-1.35,0.38-2.72,0.55-4.08c0.18-1.36,0.3-2.72,0.25-4.08     l0.03,0.12l0-0.01c-1.74-2.83-3.05-5.94-3.79-9.19c-0.76-3.25-0.98-6.6-0.82-9.92c0.17-3.32,0.71-6.61,1.41-9.84     c0.71-3.23,1.58-6.42,2.48-9.59l-0.01,0.12c-0.11-2.35-0.4-4.71-0.68-7.07c-0.29-2.35-0.6-4.71-0.97-7.05l0.01,0.03     c-1.57-6.45-1.47-13.31,0.3-19.71c1.86-6.39,5.31-12.24,9.77-17.15c4.46-4.91,9.99-8.79,15.95-11.64     c5.97-2.86,12.39-4.69,18.9-5.79l-0.04,0.01c2.02-0.68,4.05-1.31,6.1-1.88l0.03-0.01l0.03,0c4.82-0.38,9.67-0.26,14.47,0.34     c4.79,0.61,9.52,1.73,14.09,3.28l-0.06-0.01c4.54,0.36,9.06,1.07,13.45,2.28c4.39,1.21,8.66,2.93,12.58,5.27     c3.93,2.32,7.49,5.29,10.37,8.85c2.86,3.56,5.02,7.71,6.19,12.13l0.01,0.04l0,0.05l0,0c-0.25,1.88-0.08,3.81,0.39,5.67     c0.48,1.86,1.21,3.65,2.06,5.38c1.74,3.44,3.83,6.69,5.8,10.01c1.96,3.32,3.77,6.77,4.78,10.51c1.02,3.73,0.98,7.78-0.3,11.49     l0.01-0.12l0,0l0.64,4.94l0.43,4.96l-0.01-0.08c1.3,4.64,2,9.46,2.02,14.3c0.02,4.84-0.63,9.68-1.91,14.34     c-1.27,4.67-3.09,9.16-5.25,13.47c-2.16,4.31-4.66,8.43-7.38,12.4l0.02-0.03c-1.02,1.76-2.1,3.48-3.23,5.17l0.07-0.15     c-1.52,5.38-4.05,10.46-7.34,14.95c-3.28,4.5-7.4,8.35-12.02,11.41c-4.61,3.08-9.79,5.26-15.15,6.61     c-5.36,1.37-10.92,1.91-16.47,1.88l0.12-0.03c-8.31,4.17-17.79,6.04-27.06,5.08c-9.24-0.93-18.26-4.63-25.24-10.82     c-3.47-3.09-6.44-6.8-8.43-11.04c-1.85-4.22-4.49-8.04-6.87-12.01c-2.37-3.95-4.72-8.08-5.57-12.72     c-0.44-2.3-0.37-4.71,0.22-6.99C5.84,147.74,6.99,145.58,8.37,143.79z"
   id="path133" />
		</g>
		<g
   id="g161">
			<g
   id="g159">
				<defs
   id="defs138">
					<path
   id="SVGID_3_"
   d="M60.58,94.1c0,0,6.8,2.61,12.55-2.61c5.75-5.23,9.94,3.27,9.94,3.27s-0.78,4.84,7.06,5.62       s3.14,8.63,3.14,8.63s6.72,3.66,1.4,9.41c-5.32,5.75-13.17,1.83-12.9,9.41c0.26,7.58-10.72,5.75-13.33,1.57       c-2.61-4.18-7.84-2.87-7.84-2.87s-7.84-1.57-5.75-10.46s2.09-8.89,2.09-8.89S50.33,95.04,60.58,94.1z" />
				</defs>
				<clipPath
   id="SVGID_1_">
					<use
   xlink:href="#SVGID_3_"
   style="overflow:visible;"
   id="use140" />
				</clipPath>
				<path
   class="st20"
   d="M60.58,94.1c0,0,6.8,2.61,12.55-2.61c5.75-5.23,9.94,3.27,9.94,3.27s-0.78,4.84,7.06,5.62      s3.14,8.63,3.14,8.63s6.72,3.66,1.4,9.41c-5.32,5.75-13.17,1.83-12.9,9.41c0.26,7.58-10.72,5.75-13.33,1.57      c-2.61-4.18-7.84-2.87-7.84-2.87s-7.84-1.57-5.75-10.46s2.09-8.89,2.09-8.89S50.33,95.04,60.58,94.1z"
   clip-path="url(#SVGID_1_)"
   id="path143" />
				<path
   id="polyline145"
   clip-path="url(#SVGID_1_)"
   style="fill:#9b7353"
   d="m 83.07,94.75 -7.48,16.65 31.14,-4.23"
   class="st21" />
				<path
   id="polyline147"
   clip-path="url(#SVGID_1_)"
   style="fill:#9b7353"
   d="M 88.56,121.81 75.59,111.4 82.07,129.39"
   class="st21" />
				<path
   id="polyline149"
   clip-path="url(#SVGID_1_)"
   style="fill:#9b7353"
   d="M 68.42,129.39 75.59,111.4 60.58,126.52"
   class="st21" />
				<path
   id="polyline151"
   clip-path="url(#SVGID_1_)"
   style="fill:#9b7353"
   d="M 54.83,116.06 75.59,111.4 56.92,107.17"
   class="st21" />
				<path
   id="polyline153"
   clip-path="url(#SVGID_1_)"
   style="fill:#9b7353"
   d="M 60.58,94.1 75.59,111.4 73.13,91.48"
   class="st21" />
				<g
   class="st22"
   clip-path="url(#SVGID_1_)"
   id="g157">
					<path
   class="st23"
   d="M60.62,93.85c2.1,0.69,4.23,0.81,6.33,0.45c2.09-0.37,4.06-1.32,5.67-2.71c0.8-0.7,1.69-1.46,2.78-1.8       c1.07-0.39,2.31-0.32,3.34,0.13c1.05,0.45,1.92,1.18,2.66,2c0.74,0.83,1.37,1.73,1.88,2.72l0,0l0.02,0.04l0,0.11       c-0.02,0.81,0.28,1.67,0.77,2.31c0.48,0.66,1.16,1.15,1.9,1.5c0.76,0.34,1.57,0.57,2.41,0.71c0.42,0.07,0.85,0.12,1.27,0.15       c0.41,0.02,0.89,0.05,1.4,0.11c0.98,0.12,2.04,0.46,2.89,1.23c0.86,0.76,1.35,1.91,1.39,2.96c0.04,2.11-0.84,3.84-1.87,5.38       l0,0l-0.09-0.35c1.07,0.56,2.01,1.31,2.75,2.29c0.73,0.97,1.22,2.25,1.08,3.54c-0.11,1.29-0.71,2.45-1.43,3.42       c-0.72,0.98-1.6,1.85-2.61,2.55c-2.03,1.42-4.46,1.99-6.63,2.52c-1.08,0.28-2.14,0.61-2.85,1.2c-0.72,0.57-1.06,1.46-1.14,2.5       c-0.06,0.51-0.01,1.02-0.04,1.7c-0.06,0.64-0.15,1.29-0.41,1.92c-0.49,1.26-1.58,2.29-2.8,2.75c-1.21,0.49-2.49,0.59-3.71,0.5       c-1.22-0.11-2.41-0.4-3.53-0.86c-1.12-0.46-2.19-1.08-3.09-1.93c-0.22-0.22-0.44-0.45-0.63-0.7c-0.19-0.25-0.38-0.54-0.51-0.75       c-0.29-0.44-0.63-0.85-1.03-1.21c-1.58-1.44-3.99-1.82-6.16-1.48l0,0l-0.06,0.01l-0.05-0.01c-1.89-0.47-3.63-1.51-4.81-3.08       c-1.19-1.56-1.61-3.6-1.46-5.5c0.06-0.96,0.26-1.91,0.48-2.82l0.65-2.75l1.29-5.5l0,0l0.02,0.18       c-0.87-1.16-1.52-2.45-2.03-3.82c-0.48-1.37-0.81-2.85-0.71-4.42c0.06-0.78,0.21-1.59,0.58-2.34c0.36-0.76,0.93-1.42,1.6-1.89       c0.67-0.48,1.43-0.78,2.18-0.91c0.37-0.1,0.75-0.09,1.12-0.12C59.84,93.77,60.26,93.81,60.62,93.85z M60.55,94.34       c-1.21,0.49-2.54,0.96-3.35,1.78c-0.83,0.79-1.31,1.83-1.43,3.07c-0.12,1.23,0.03,2.56,0.3,3.88c0.26,1.32,0.65,2.65,1.07,3.98       l0.04,0.13l-0.02,0.04l0,0l-1.29,5.5l-0.65,2.75c-0.23,0.92-0.42,1.81-0.47,2.74c-0.14,1.83,0.26,3.72,1.36,5.17       c1.08,1.45,2.77,2.45,4.51,2.89l-0.11,0l0,0c1.17-0.29,2.36-0.36,3.55-0.18c1.19,0.18,2.37,0.63,3.34,1.41       c0.48,0.39,0.92,0.84,1.27,1.35c0.19,0.27,0.32,0.46,0.49,0.66c0.16,0.2,0.35,0.38,0.54,0.56c0.8,0.7,1.77,1.22,2.79,1.59       c2.02,0.72,4.37,0.95,6.23,0.18c0.93-0.38,1.62-1.09,1.96-1.98c0.18-0.44,0.25-0.94,0.29-1.45c0.02-0.47-0.03-1.11,0.03-1.75       c0.06-0.63,0.16-1.28,0.44-1.91c0.27-0.63,0.71-1.22,1.24-1.66c1.09-0.88,2.33-1.18,3.45-1.48c2.26-0.55,4.43-1,6.24-2.2       c0.91-0.58,1.72-1.3,2.4-2.14c0.68-0.83,1.21-1.78,1.35-2.79c0.15-1.01-0.11-2.05-0.69-2.96c-0.58-0.9-1.41-1.7-2.32-2.31       l-0.23-0.15l0.13-0.2l0,0c0.68-1.6,1.15-3.43,0.86-4.95c-0.16-0.75-0.54-1.33-1.11-1.7c-0.57-0.36-1.28-0.61-2.07-0.82       c-0.74-0.17-1.79-0.3-2.69-0.57c-0.92-0.26-1.84-0.62-2.67-1.14c-0.83-0.53-1.58-1.24-2.06-2.12c-0.47-0.89-0.67-1.88-0.5-2.87       l0.02,0.15l0,0c-1-1.83-2.39-3.63-4.29-4.48c-0.94-0.41-2.02-0.47-2.99-0.12c-1,0.32-1.8,0.99-2.62,1.71       c-1.67,1.44-3.73,2.43-5.91,2.82C64.88,95.18,62.56,95.02,60.55,94.34z"
   id="path155" />
				</g>
			</g>
		</g>
	</g>
</g>
</svg>
