<svg width="128" height="128" viewBox="0 0 128 128" fill="none" xmlns="http://www.w3.org/2000/svg">
<path d="M113.827 0H14.1732C6.34557 0 0 6.34557 0 14.1732V113.827C0 121.654 6.34557 128 14.1732 128H113.827C121.654 128 128 121.654 128 113.827V14.1732C128 6.34557 121.654 0 113.827 0Z" fill="#204A87"/>
<path d="M23.5209 11.5117H68.4506C81.8099 11.5118 92.052 14.4884 99.1771 20.4414C106.349 26.3477 109.935 34.7852 109.935 45.7539C109.935 56.7696 106.349 65.254 99.1771 71.207C92.052 77.1133 81.8099 80.0664 68.4506 80.0664H50.5912V116.488H23.5209V11.5117ZM50.5912 31.1289V60.4492H65.5677C70.8177 60.4493 74.8724 59.1837 77.7318 56.6523C80.5911 54.0743 82.0208 50.4415 82.0209 45.7539C82.0208 41.0665 80.5911 37.4571 77.7318 34.9258C74.8724 32.3946 70.8177 31.129 65.5677 31.1289H50.5912Z" fill="white"/>
</svg>
