<svg width="121" height="121" viewBox="0 0 121 121" fill="none" xmlns="http://www.w3.org/2000/svg">
<circle cx="60.5" cy="60.5" r="57" fill="white" stroke="#FF0000" stroke-width="7"/>
<path d="M54.9961 72.9512V98H40.3477V26.9062H68.082C73.4206 26.9062 78.1081 27.8828 82.1445 29.8359C86.2135 31.7891 89.3385 34.5723 91.5195 38.1855C93.7005 41.7663 94.791 45.8516 94.791 50.4414C94.791 57.4076 92.3984 62.9089 87.6133 66.9453C82.8607 70.9492 76.2689 72.9512 67.8379 72.9512H54.9961ZM54.9961 61.0859H68.082C71.9557 61.0859 74.9017 60.1745 76.9199 58.3516C78.9707 56.5286 79.9961 53.9245 79.9961 50.5391C79.9961 47.056 78.9707 44.2402 76.9199 42.0918C74.8691 39.9434 72.0371 38.8366 68.4238 38.7715H54.9961V61.0859Z" fill="black"/>
</svg>
