<svg width="30" height="24" viewBox="0 0 30 24" fill="none" xmlns="http://www.w3.org/2000/svg">
<path d="M8.25 4.92773C8.25 5.76758 8.10156 6.50391 7.80469 7.13672C7.50781 7.76953 7.08203 8.25781 6.52734 8.60156C5.97656 8.94531 5.34375 9.11719 4.62891 9.11719C3.92188 9.11719 3.29102 8.94727 2.73633 8.60742C2.18164 8.26758 1.75195 7.7832 1.44727 7.1543C1.14258 6.52148 0.988281 5.79492 0.984375 4.97461V4.55273C0.984375 3.71289 1.13477 2.97461 1.43555 2.33789C1.74023 1.69727 2.16797 1.20703 2.71875 0.867188C3.27344 0.523437 3.90625 0.351562 4.61719 0.351562C5.32812 0.351562 5.95898 0.523437 6.50977 0.867188C7.06445 1.20703 7.49219 1.69727 7.79297 2.33789C8.09766 2.97461 8.25 3.71094 8.25 4.54688V4.92773ZM6.46875 4.54102C6.46875 3.64648 6.30859 2.9668 5.98828 2.50195C5.66797 2.03711 5.21094 1.80469 4.61719 1.80469C4.02734 1.80469 3.57227 2.03516 3.25195 2.49609C2.93164 2.95312 2.76953 3.625 2.76562 4.51172V4.92773C2.76562 5.79883 2.92578 6.47461 3.24609 6.95508C3.56641 7.43555 4.02734 7.67578 4.62891 7.67578C5.21875 7.67578 5.67188 7.44531 5.98828 6.98438C6.30469 6.51953 6.46484 5.84375 6.46875 4.95703V4.54102ZM16.4648 9H14.707L11.2852 3.38672V9H9.52734V0.46875H11.2852L14.7129 6.09375V0.46875H16.4648V9ZM19.7578 7.58789H23.4902V9H18V0.46875H19.7578V7.58789ZM25.8047 4.3125L27.5801 0.46875H29.502L26.7012 5.90625V9H24.9141V5.90625L22.1133 0.46875H24.041L25.8047 4.3125ZM4.28906 23V14.4688H7.27734C8.3125 14.4688 9.09766 14.668 9.63281 15.0664C10.168 15.4609 10.4355 16.041 10.4355 16.8066C10.4355 17.2246 10.3281 17.5938 10.1133 17.9141C9.89844 18.2305 9.59961 18.4629 9.2168 18.6113C9.6543 18.7207 9.99805 18.9414 10.248 19.2734C10.502 19.6055 10.6289 20.0117 10.6289 20.4922C10.6289 21.3125 10.3672 21.9336 9.84375 22.3555C9.32031 22.7773 8.57422 22.9922 7.60547 23H4.28906ZM6.04688 19.2852V21.5879H7.55273C7.9668 21.5879 8.28906 21.4902 8.51953 21.2949C8.75391 21.0957 8.87109 20.8223 8.87109 20.4746C8.87109 19.6934 8.4668 19.2969 7.6582 19.2852H6.04688ZM6.04688 18.043H7.34766C8.23438 18.0273 8.67773 17.6738 8.67773 16.9824C8.67773 16.5957 8.56445 16.3184 8.33789 16.1504C8.11523 15.9785 7.76172 15.8926 7.27734 15.8926H6.04688V18.043ZM18.4102 14.4688V20.0879C18.4102 21.0215 18.1172 21.7598 17.5312 22.3027C16.9492 22.8457 16.1523 23.1172 15.1406 23.1172C14.1445 23.1172 13.3535 22.8535 12.7676 22.3262C12.1816 21.7988 11.8828 21.0742 11.8711 20.1523V14.4688H13.6289V20.0996C13.6289 20.6582 13.7617 21.0664 14.0273 21.3242C14.2969 21.5781 14.668 21.7051 15.1406 21.7051C16.1289 21.7051 16.6309 21.1855 16.6465 20.1465V14.4688H18.4102ZM24.2754 20.7617C24.2754 20.4297 24.1582 20.1758 23.9238 20C23.6895 19.8203 23.2676 19.6328 22.6582 19.4375C22.0488 19.2383 21.5664 19.043 21.2109 18.8516C20.2422 18.3281 19.7578 17.623 19.7578 16.7363C19.7578 16.2754 19.8867 15.8652 20.1445 15.5059C20.4062 15.1426 20.7793 14.8594 21.2637 14.6562C21.752 14.4531 22.2988 14.3516 22.9043 14.3516C23.5137 14.3516 24.0566 14.4629 24.5332 14.6855C25.0098 14.9043 25.3789 15.2148 25.6406 15.6172C25.9062 16.0195 26.0391 16.4766 26.0391 16.9883H24.2812C24.2812 16.5977 24.1582 16.2949 23.9121 16.0801C23.666 15.8613 23.3203 15.752 22.875 15.752C22.4453 15.752 22.1113 15.8438 21.873 16.0273C21.6348 16.207 21.5156 16.4453 21.5156 16.7422C21.5156 17.0195 21.6543 17.252 21.9316 17.4395C22.2129 17.627 22.625 17.8027 23.168 17.9668C24.168 18.2676 24.8965 18.6406 25.3535 19.0859C25.8105 19.5312 26.0391 20.0859 26.0391 20.75C26.0391 21.4883 25.7598 22.0684 25.2012 22.4902C24.6426 22.9082 23.8906 23.1172 22.9453 23.1172C22.2891 23.1172 21.6914 22.998 21.1523 22.7598C20.6133 22.5176 20.2012 22.1875 19.916 21.7695C19.6348 21.3516 19.4941 20.8672 19.4941 20.3164H21.2578C21.2578 21.2578 21.8203 21.7285 22.9453 21.7285C23.3633 21.7285 23.6895 21.6445 23.9238 21.4766C24.1582 21.3047 24.2754 21.0664 24.2754 20.7617Z" fill="white"/>
</svg>
