<svg width="21" height="21" viewBox="0 0 21 21" fill="none" xmlns="http://www.w3.org/2000/svg">
<circle cx="10.5" cy="10.5" r="9.5" fill="#F2F2F2" stroke="#EE702E" stroke-width="2"/>
<path d="M14.3907 14.0722L14.3907 6.63816C14.3907 6.21263 14.1 5.86913 13.7399 5.86913C13.3799 5.86913 13.0892 6.21263 13.0892 6.63816L13.0892 9.45796H12.6554L12.6554 5.10009C12.6554 4.67455 12.3647 4.33105 12.0047 4.33105C11.6446 4.33105 11.354 4.67455 11.354 5.10009L11.354 9.45796H10.9201L10.9201 4.5874C10.9201 4.16186 10.6295 3.81836 10.2694 3.81836C9.90935 3.81836 9.61869 4.16186 9.61869 4.5874L9.61869 9.45796H9.18488L9.18488 5.86913C9.18488 5.44359 8.89422 5.10009 8.53415 5.10009C8.17409 5.10009 7.88343 5.44359 7.88343 5.86913L7.88343 11.9753C7.88343 11.9753 6.03104 10.7192 6.01368 10.7141C6.01368 10.7141 5.67485 10.487 5.39888 10.5386C5.12292 10.5901 4.92563 10.9172 4.92563 10.9172C4.92563 10.9172 4.83236 11.0885 4.84672 11.4216C4.88619 12.3369 8.25217 15.5129 8.25217 15.5129C8.57754 15.9025 9.02003 16.123 9.48855 16.123L12.6554 16.123C13.6098 16.123 14.3907 15.2001 14.3907 14.0722Z" fill="#EE702E"/>
</svg>
