<svg width="605" height="622" viewBox="0 0 605 622" fill="none" xmlns="http://www.w3.org/2000/svg">
<g clip-path="url(#clip0_1_2)">
<path d="M305.721 578.407C457.9 578.407 581.265 455.042 581.265 302.864C581.265 150.685 457.9 27.3202 305.721 27.3202C153.543 27.3202 30.1777 150.685 30.1777 302.864C30.1777 455.042 153.543 578.407 305.721 578.407Z" fill="white"/>
<path d="M229.996 130.8V319.609L65.902 225.204L229.996 130.8Z" fill="black"/>
<path d="M402.563 558.562V311.131C402.563 263.95 372.627 224.947 316.073 224.947H183.084" stroke="black" stroke-width="71.2974" stroke-linejoin="round"/>
<path d="M324.793 608.829C348.009 606.542 365.164 603.697 381.761 599.382C448.824 581.947 507.101 542.358 547.191 486.992C587.596 431.197 607.86 360.532 604.218 288.112C600.19 208.003 568.751 136.912 513.687 83.3824C466.324 37.3454 406.637 9.6424 336.797 1.2804C322.539 -0.4268 282.055 -0.4268 267.797 1.2804C229.03 5.9219 196.195 15.5924 163.187 32.0884C133.491 46.9304 108.771 64.9934 85.2331 89.0514C62.3651 112.423 46.8421 134.373 32.2881 163.913C15.6311 197.723 6.38807 228.981 1.67307 267.453C-0.323027 283.738 -0.591028 322.017 1.18307 337.417C6.01987 379.402 16.1411 413.711 34.0061 448.687C47.7471 475.585 63.3971 497.362 84.7621 519.311C132.165 568.01 190.932 597.107 261.792 606.962C272.236 608.415 315.879 609.71 324.792 608.832L324.793 608.829ZM287.793 556.397C252.299 554.145 223.729 546.651 192.793 531.479C170.29 520.442 145.88 504.024 146.49 500.335C146.879 497.982 143.993 500.931 291.25 352.435C495.88 146.085 494.54 147.424 496.85 147.424C500.798 147.424 516.439 171.243 527.386 193.924C535.56 210.861 540.329 223.575 544.362 239.184C564.959 318.895 547.148 401.694 495.802 464.934C485.999 477.008 465.038 497.263 453.039 506.257C413.855 535.628 367.13 553.189 319.789 556.337C313.189 556.776 306.889 557.199 305.789 557.277C304.689 557.355 296.589 556.961 287.789 556.403L287.793 556.397ZM98.7531 451.828C60.2001 397.875 44.2231 329.338 54.8331 263.418C65.8841 194.755 106.861 131.438 165.083 93.0575C193.13 74.5695 226.487 61.4105 260.794 55.2995C276.047 52.5826 313.291 51.5467 329.248 53.3955C358.503 56.7849 383.524 63.9255 409.794 76.3815C430.8 86.3421 458.294 104.539 458.294 108.481C458.294 109.519 396.954 172.091 312.114 257.591C90.8641 480.581 108.764 462.781 106.824 461.691C105.888 461.168 102.257 456.729 98.754 451.827L98.7531 451.828Z" fill="#dd0000"/>
</g>
<defs>
<clipPath id="clip0_1_2">
<rect width="604.636" height="621.847" fill="white"/>
</clipPath>
</defs>
</svg>
