<svg width="605" height="610" viewBox="0 0 605 610" fill="none" xmlns="http://www.w3.org/2000/svg">
<g clip-path="url(#clip0_2_40)">
<path d="M302.724 580.441C454.903 580.441 578.268 457.076 578.268 304.898C578.268 152.719 454.903 29.3543 302.724 29.3543C150.546 29.3543 27.1807 152.719 27.1807 304.898C27.1807 457.076 150.546 580.441 302.724 580.441Z" fill="white"/>
<path d="M303.562 63.4664L223.281 200.011H275.397V562.571L331.76 562.944V200.011H383.875L303.562 63.4664Z" fill="black"/>
<path d="M279.843 608.829C256.627 606.542 239.472 603.697 222.875 599.382C155.812 581.947 97.5348 542.358 57.4448 486.992C17.0398 431.197 -3.22419 360.532 0.417814 288.112C4.44621 208.003 35.8848 136.912 90.9488 83.3824C138.312 37.3454 197.999 9.6424 267.839 1.2804C282.097 -0.4268 322.581 -0.4268 336.839 1.2804C375.606 5.9219 408.441 15.5924 441.449 32.0884C471.145 46.9304 495.865 64.9934 519.403 89.0514C542.271 112.423 557.794 134.373 572.348 163.913C589.005 197.723 598.248 228.981 602.963 267.453C604.959 283.738 605.227 322.017 603.453 337.417C598.616 379.402 588.495 413.711 570.63 448.687C556.889 475.585 541.239 497.362 519.874 519.311C472.471 568.01 413.704 597.107 342.844 606.962C332.4 608.415 288.757 609.71 279.844 608.832L279.843 608.829ZM316.843 556.397C352.337 554.145 380.907 546.651 411.843 531.479C434.346 520.442 458.756 504.024 458.146 500.335C457.757 497.982 460.643 500.931 313.386 352.435C108.756 146.085 110.096 147.424 107.786 147.424C103.838 147.424 88.1968 171.243 77.2498 193.924C69.076 210.861 64.3068 223.575 60.2738 239.184C39.6768 318.895 57.4875 401.694 108.834 464.934C118.637 477.008 139.598 497.263 151.597 506.257C190.781 535.628 237.506 553.189 284.847 556.337C291.447 556.776 297.747 557.199 298.847 557.277C299.947 557.355 308.047 556.961 316.847 556.403L316.843 556.397ZM505.883 451.828C544.436 397.875 560.413 329.338 549.803 263.418C538.752 194.755 497.775 131.438 439.553 93.0575C411.506 74.5695 378.149 61.4105 343.842 55.2995C328.589 52.5826 291.345 51.5467 275.388 53.3955C246.133 56.7849 221.112 63.9255 194.842 76.3815C173.836 86.3421 146.342 104.539 146.342 108.481C146.342 109.519 207.682 172.091 292.522 257.591C513.772 480.581 495.872 462.781 497.812 461.691C498.748 461.168 502.379 456.729 505.882 451.827L505.883 451.828Z" fill="#dd0000"/>
</g>
<defs>
<clipPath id="clip0_2_40">
<rect width="604.636" height="609.117" fill="white"/>
</clipPath>
</defs>
</svg>
