<svg width="605" height="628" viewBox="0 0 605 628" fill="none" xmlns="http://www.w3.org/2000/svg">
<g clip-path="url(#clip0_2_26)">
<path d="M298.915 578.55C146.736 578.55 23.3712 455.185 23.3712 303.007C23.3712 150.828 146.736 27.463 298.915 27.463C451.093 27.463 574.458 150.828 574.458 303.007C574.458 455.185 451.093 578.55 298.915 578.55Z" fill="white"/>
<path d="M317.151 377.825H476.324L396.737 515.674L317.151 377.825Z" fill="black"/>
<path d="M206.654 576.736V286.912C206.654 120.691 397.978 131.012 397.978 286.912V450.054" stroke="black" stroke-width="63.1258"/>
<path d="M324.793 611.829C348.009 609.542 365.164 606.697 381.761 602.382C448.824 584.947 507.101 545.358 547.191 489.992C587.596 434.197 607.86 363.532 604.218 291.112C600.19 211.003 568.751 139.912 513.687 86.3824C466.324 40.3454 406.637 12.6424 336.797 4.2804C322.539 2.5732 282.055 2.5732 267.797 4.2804C229.03 8.9219 196.195 18.5924 163.187 35.0884C133.491 49.9304 108.771 67.9934 85.2331 92.0514C62.3651 115.423 46.8421 137.373 32.2881 166.913C15.6311 200.723 6.3881 231.981 1.6731 270.453C-0.323004 286.738 -0.590994 325.017 1.18311 340.417C6.01991 382.402 16.1411 416.711 34.0061 451.687C47.7471 478.585 63.3971 500.362 84.7621 522.311C132.165 571.01 190.932 600.107 261.792 609.962C272.236 611.415 315.879 612.71 324.792 611.832L324.793 611.829ZM287.793 559.397C252.299 557.145 223.729 549.651 192.793 534.479C170.29 523.442 145.88 507.024 146.49 503.335C146.879 500.982 143.993 503.931 291.25 355.435C495.88 149.085 494.54 150.424 496.85 150.424C500.798 150.424 516.439 174.243 527.386 196.924C535.56 213.861 540.329 226.575 544.362 242.184C564.959 321.895 547.148 404.694 495.802 467.934C485.999 480.008 465.038 500.263 453.039 509.257C413.855 538.628 367.13 556.189 319.789 559.337C313.189 559.776 306.889 560.199 305.789 560.277C304.689 560.355 296.589 559.961 287.789 559.403L287.793 559.397ZM98.7531 454.828C60.2001 400.875 44.2231 332.338 54.8331 266.418C65.8841 197.755 106.861 134.438 165.083 96.0575C193.13 77.5695 226.487 64.4105 260.794 58.2995C276.047 55.5826 313.291 54.5467 329.248 56.3955C358.503 59.7849 383.524 66.9255 409.794 79.3815C430.8 89.3421 458.294 107.539 458.294 111.481C458.294 112.519 396.954 175.091 312.114 260.591C90.8641 483.581 108.764 465.781 106.824 464.691C105.888 464.168 102.257 459.729 98.754 454.827L98.7531 454.828Z" fill="#dd0000"/>
</g>
<defs>
<clipPath id="clip0_2_26">
<rect width="604.64" height="627.92" fill="white"/>
</clipPath>
</defs>
</svg>
