<svg width="605" height="628" viewBox="0 0 605 628" fill="none" xmlns="http://www.w3.org/2000/svg">
<g clip-path="url(#clip0_2_32)">
<path d="M302.32 579.115C454.498 579.115 577.863 455.75 577.863 303.571C577.863 151.393 454.498 28.0279 302.32 28.0279C150.142 28.0279 26.7765 151.393 26.7765 303.571C26.7765 455.75 150.142 579.115 302.32 579.115Z" fill="white"/>
<path d="M287.485 374.825H128.312L207.898 512.674L287.485 374.825Z" fill="black"/>
<path d="M397.982 573.736V283.912C397.982 117.691 206.658 128.012 206.658 283.912V447.054" stroke="black" stroke-width="63.1258"/>
<path d="M279.836 608.823C256.62 606.536 239.465 603.691 222.868 599.376C155.805 581.941 97.528 542.352 57.438 486.986C17.033 431.191 -3.231 360.526 0.411001 288.106C4.4394 207.997 35.878 136.906 90.942 83.3759C138.305 37.3389 197.992 9.6359 267.832 1.2739C282.09 -0.4333 322.574 -0.4333 336.832 1.2739C375.599 5.9154 408.434 15.5859 441.442 32.0819C471.138 46.9239 495.858 64.9869 519.396 89.0449C542.264 112.417 557.787 134.367 572.341 163.907C588.998 197.717 598.241 228.975 602.956 267.447C604.952 283.732 605.22 322.011 603.446 337.411C598.609 379.396 588.488 413.705 570.623 448.681C556.882 475.579 541.232 497.356 519.867 519.305C472.464 568.004 413.697 597.101 342.837 606.956C332.393 608.408 288.75 609.703 279.837 608.825L279.836 608.823ZM316.836 556.391C352.33 554.139 380.9 546.645 411.836 531.473C434.339 520.436 458.749 504.017 458.139 500.328C457.75 497.976 460.636 500.925 313.379 352.428C108.749 146.078 110.089 147.418 107.779 147.418C103.831 147.418 88.19 171.236 77.243 193.918C69.0692 210.854 64.3 223.568 60.267 239.177C39.67 318.888 57.4807 401.687 108.827 464.927C118.63 477.001 139.591 497.257 151.59 506.251C190.774 535.622 237.499 553.183 284.84 556.331C291.44 556.77 297.74 557.192 298.84 557.27C299.94 557.348 308.04 556.954 316.84 556.396L316.836 556.391ZM505.876 451.821C544.429 397.868 560.406 329.331 549.796 263.411C538.745 194.748 497.768 131.431 439.546 93.051C411.499 74.563 378.142 61.404 343.835 55.293C328.582 52.5761 291.338 51.5402 275.381 53.389C246.126 56.7784 221.105 63.919 194.835 76.375C173.829 86.3356 146.335 104.533 146.335 108.475C146.335 109.513 207.675 172.085 292.515 257.585C513.765 480.575 495.865 462.775 497.805 461.685C498.741 461.161 502.372 456.722 505.875 451.82L505.876 451.821Z" fill="#dd0000"/>
</g>
<defs>
<clipPath id="clip0_2_32">
<rect width="604.64" height="627.92" fill="white"/>
</clipPath>
</defs>
</svg>
