<svg width="162" height="114" viewBox="0 0 162 114" fill="none" xmlns="http://www.w3.org/2000/svg">
<rect x="12" y="12" width="138" height="90" fill="#108833" stroke="#A8882A" stroke-width="24"/>
<mask id="path-2-inside-1_679_25" fill="white">
<path fill-rule="evenodd" clip-rule="evenodd" d="M81.4382 66.9456C82.6679 62.412 81.7588 57.3714 78.55 53.4652C75.3413 49.5591 70.5734 47.6886 65.8874 48.0144C64.6577 52.5481 65.5668 57.5886 68.7756 61.4949C71.9843 65.4009 76.7522 67.2715 81.4382 66.9456Z"/>
</mask>
<path fill-rule="evenodd" clip-rule="evenodd" d="M81.4382 66.9456C82.6679 62.412 81.7588 57.3714 78.55 53.4652C75.3413 49.5591 70.5734 47.6886 65.8874 48.0144C64.6577 52.5481 65.5668 57.5886 68.7756 61.4949C71.9843 65.4009 76.7522 67.2715 81.4382 66.9456Z" fill="#A8EAAA"/>
<path d="M81.4382 66.9456L81.5076 67.9432L82.2171 67.8939L82.4033 67.2074L81.4382 66.9456ZM65.8874 48.0144L65.8181 47.0169L65.1085 47.0662L64.9223 47.7527L65.8874 48.0144ZM68.7756 61.4949L68.0029 62.1296L68.0029 62.1296L68.7756 61.4949ZM77.7773 54.1C80.772 57.7455 81.6217 62.4492 80.4731 66.6838L82.4033 67.2074C83.7141 62.3748 82.7456 56.9973 79.3227 52.8304L77.7773 54.1ZM65.9568 49.012C70.3337 48.7077 74.7827 50.4545 77.7773 54.1L79.3227 52.8304C75.8999 48.6637 70.813 46.6695 65.8181 47.0169L65.9568 49.012ZM69.5483 60.8601C66.5536 57.2145 65.7039 52.5109 66.8526 48.2762L64.9223 47.7527C63.6115 52.5852 64.58 57.9627 68.0029 62.1296L69.5483 60.8601ZM81.3688 65.948C76.9919 66.2524 72.5429 64.5055 69.5483 60.8601L68.0029 62.1296C71.4257 66.2963 76.5126 68.2906 81.5076 67.9432L81.3688 65.948Z" fill="black" mask="url(#path-2-inside-1_679_25)"/>
<mask id="path-4-inside-2_679_25" fill="white">
<path fill-rule="evenodd" clip-rule="evenodd" d="M80.132 66.9852C78.9023 62.4516 79.8114 57.411 83.0202 53.5047C86.2289 49.5987 90.9968 47.7281 95.6828 48.054C96.9125 52.5876 96.0034 57.6282 92.7946 61.5344C89.5858 65.4405 84.8179 67.311 80.132 66.9852Z"/>
</mask>
<path fill-rule="evenodd" clip-rule="evenodd" d="M80.132 66.9852C78.9023 62.4516 79.8114 57.411 83.0202 53.5047C86.2289 49.5987 90.9968 47.7281 95.6828 48.054C96.9125 52.5876 96.0034 57.6282 92.7946 61.5344C89.5858 65.4405 84.8179 67.311 80.132 66.9852Z" fill="#A8EAAA"/>
<path d="M80.132 66.9852L80.0626 67.9828L79.3531 67.9334L79.1669 67.247L80.132 66.9852ZM95.6828 48.054L95.7521 47.0564L96.4617 47.1057L96.6479 47.7922L95.6828 48.054ZM92.7946 61.5344L92.0218 60.8997L92.7946 61.5344ZM83.7929 54.1395C80.7982 57.7851 79.9485 62.4887 81.0971 66.7234L79.1669 67.247C77.856 62.4144 78.8245 57.0369 82.2475 52.87L83.7929 54.1395ZM95.6134 49.0516C91.2364 48.7472 86.7875 50.4941 83.7929 54.1395L82.2475 52.87C85.6703 48.7033 90.7572 46.709 95.7521 47.0564L95.6134 49.0516ZM92.0218 60.8997C95.0166 57.2541 95.8663 52.5504 94.7176 48.3158L96.6479 47.7922C97.9587 52.6248 96.9902 58.0023 93.5673 62.1692L92.0218 60.8997ZM80.2014 65.9876C84.5783 66.292 89.0272 64.5451 92.0218 60.8997L93.5673 62.1692C90.1445 66.3359 85.0576 68.3301 80.0626 67.9828L80.2014 65.9876Z" fill="black" mask="url(#path-4-inside-2_679_25)"/>
</svg>
