<svg width="298" height="298" viewBox="0 0 298 298" xmlns="http://www.w3.org/2000/svg" xmlns:usvg="https://github.com/RazrFalcon/usvg" usvg:version="0.8.0">
    <defs/>
    <path d="M 289.5 140.5 L 264.894 140.5 L 275.925 129.47 C 278.855 126.541 278.855 121.792 275.926 118.864 C 272.997 115.935 268.248 115.934 265.32 118.863 L 243.681 140.5 L 207.312 140.5 L 223.494 123.108 C 226.315 120.076 226.144 115.331 223.111 112.508 C 221.868 111.352 220.336 110.706 218.766 110.547 C 217.814 110.5 197.271 110.544 197.271 110.544 L 221.315 86.5 L 251.5 86.5 C 255.643 86.5 259 83.143 259 79 C 259 74.857 255.643 71.5 251.5 71.5 L 236.314 71.5 L 254.004 53.81 C 256.933 50.88 256.933 46.132 254.004 43.202 C 251.074 40.274 246.16 40.274 243.23 43.202 L 225.167 61.1 L 225.167 45.5 C 225.167 41.357 221.81 38 217.667 38 C 213.524 38 210.167 41.357 210.167 45.5 L 210.167 76.101 L 185.33 101.105 L 184.915 78.46 C 184.914 78.424 184.95 78.39 184.949 78.354 C 184.914 76.53 184.245 74.713 182.879 73.295 C 180.006 70.313 175.101 70.225 172.118 73.101 L 156.167 88.327 L 156.167 53.107 L 177.637 31.803 C 180.566 28.873 180.649 24.125 177.72 21.196 C 174.79 18.268 169.917 18.268 166.988 21.196 L 156.167 31.892 L 156.167 7.5 C 156.167 3.357 152.81 0 148.667 0 C 144.524 0 141.167 3.357 141.167 7.5 L 141.167 31.893 L 130.637 21.197 C 127.707 18.269 123.043 18.269 120.113 21.197 C 117.184 24.127 117.059 28.875 119.988 31.804 L 141.167 53.108 L 141.167 88.529 L 124.991 73.054 C 121.982 70.207 117.321 70.336 114.471 73.343 C 113.396 74.479 112.788 75.863 112.557 77.298 C 112.415 77.881 112.354 78.486 112.356 79.109 L 112.268 100.338 L 87.168 75.394 L 87.168 45.5 C 87.168 41.357 83.811 38 79.668 38 C 75.525 38 72.168 41.357 72.168 45.5 L 72.168 60.394 L 55.142 43.202 C 52.212 40.274 47.548 40.274 44.618 43.202 C 41.689 46.132 41.731 50.88 44.66 53.81 L 62.392 71.5 L 46.5 71.5 C 42.357 71.5 39 74.857 39 79 C 39 83.143 42.357 86.5 46.5 86.5 L 77.392 86.5 L 102.136 111.244 L 79.079 112.075 C 75.058 112.221 71.555 115.51 71.516 119.493 C 71.512 119.605 71.167 119.718 71.167 119.83 C 71.167 119.833 71.167 119.837 71.167 119.841 C 71.167 119.849 71.512 119.858 71.512 119.865 C 71.557 121.74 72.467 123.601 73.907 125.023 L 89.748 140.5 L 55.025 140.5 L 33.387 118.862 C 30.457 115.934 25.709 115.934 22.78 118.862 C 19.851 121.792 19.851 126.54 22.78 129.469 L 33.81 140.499 L 8.5 140.499 C 4.357 140.499 1 143.856 1 147.999 C 1 152.142 4.357 155.499 8.5 155.499 L 33.52 155.499 L 22.78 166.239 C 19.851 169.169 19.851 173.917 22.78 176.846 C 24.245 178.31 26.165 179.042 28.084 179.042 C 30.003 179.042 31.923 178.31 33.388 176.846 L 54.734 155.5 L 89.761 155.5 L 74.508 171.894 C 71.687 174.926 71.858 179.671 74.891 182.494 C 76.335 183.838 78.168 184.503 79.997 184.503 C 80.031 184.503 80.065 184.498 80.1 184.498 C 80.122 184.498 80.144 184.501 80.165 184.501 C 80.183 184.501 80.202 184.501 80.22 184.501 L 102.225 184.376 L 77.101 209.5 L 46.5 209.5 C 42.357 209.5 39 212.857 39 217 C 39 221.143 42.357 224.5 46.5 224.5 L 62.101 224.5 L 44.702 241.899 C 41.773 244.829 41.773 249.577 44.702 252.506 C 46.167 253.97 48.087 254.702 50.006 254.702 C 51.925 254.702 53.678 253.97 55.143 252.506 L 72.168 235.315 L 72.168 250.5 C 72.168 254.643 75.525 258 79.668 258 C 83.811 258 87.168 254.643 87.168 250.5 L 87.168 220.315 L 112.613 195.037 L 113.59 219.427 C 113.738 223.473 117.107 226.733 121.122 226.652 C 122.486 226.625 123.966 226.187 125.434 225.109 C 126.497 224.328 141.168 209.297 141.168 209.297 L 141.168 244.682 L 120.197 265.819 C 117.267 268.748 117.351 273.497 120.279 276.426 C 121.744 277.891 123.704 278.623 125.624 278.623 C 127.543 278.623 129.317 277.891 130.781 276.427 L 141.168 265.895 L 141.168 290.5 C 141.168 294.643 144.525 298 148.668 298 C 152.811 298 156.168 294.643 156.168 290.5 L 156.168 265.19 L 167.572 276.427 C 169.037 277.891 171.04 278.623 172.959 278.623 C 174.878 278.623 176.84 277.891 178.304 276.427 C 181.233 273.497 181.087 268.749 178.158 265.82 L 156.168 243.975 L 156.168 208.275 C 156.168 208.275 169.897 221.171 172.064 223.251 C 174.231 225.331 176.006 226.501 178.589 226.501 C 178.604 226.501 178.619 226.501 178.635 226.501 C 182.777 226.501 186.115 222.897 186.09 218.755 L 185.784 195.059 L 210.168 219.61 L 210.168 250.5 C 210.168 254.643 213.525 258 217.668 258 C 221.811 258 225.168 254.643 225.168 250.5 L 225.168 234.609 L 243.232 252.506 C 244.697 253.97 246.699 254.702 248.619 254.702 C 250.538 254.702 252.499 253.97 253.964 252.506 C 256.893 249.576 256.914 244.828 253.985 241.899 L 236.605 224.5 L 251.5 224.5 C 255.643 224.5 259 221.143 259 217 C 259 212.857 255.643 209.5 251.5 209.5 L 221.606 209.5 L 195.864 183.758 L 218.923 182.927 C 219.005 182.924 219.085 182.911 219.166 182.906 C 219.196 182.904 219.226 182.901 219.256 182.898 C 223.233 182.579 226.293 179.189 226.148 175.162 C 226.061 172.738 224.828 170.631 222.993 169.325 L 209.138 155.5 L 243.973 155.5 L 265.318 176.846 C 266.783 178.311 268.702 179.043 270.622 179.043 C 272.541 179.043 274.461 178.311 275.925 176.847 C 278.855 173.918 278.855 169.169 275.926 166.241 L 265.186 155.501 L 289.5 155.501 C 293.643 155.501 297 152.144 297 148.001 C 297 143.858 293.643 140.5 289.5 140.5 Z M 200.795 125.483 L 186.823 140.5 L 167.316 140.5 L 182.318 125.498 L 200.795 125.483 Z M 170.21 95.784 L 170.566 115.786 L 156.167 130.101 L 156.167 109.16 L 170.21 95.784 Z M 127.263 95.865 L 141.167 109.188 L 141.167 129.393 L 127.242 115.385 L 127.263 95.865 Z M 96.862 126.444 L 116.624 125.732 L 131.392 140.5 L 111.093 140.5 L 96.862 126.444 Z M 97.246 169.477 L 110.25 155.5 L 131.101 155.5 L 117.26 169.341 L 97.246 169.477 Z M 127.863 201.599 L 127.009 180.557 L 141.167 166.316 L 141.167 187.92 L 127.863 201.599 Z M 170.819 201.264 L 156.167 187.786 L 156.167 165.607 L 170.609 179.966 L 170.819 201.264 Z M 200.991 168.564 L 181.377 169.27 L 167.607 155.5 L 187.899 155.5 L 200.991 168.564 Z" fill="white"/>
</svg>
