<svg width="615.3" height="500" viewBox="0 0 615.3 500" xmlns="http://www.w3.org/2000/svg">
    <defs/>
    <g enable-background="new 0 0 615.3 500">
        <path fill="#dc241f" stroke="none" d="M 469.5 250 C 469.5 339.1 397.2 411.3 308.2 411.3 C 219.1 411.3 146.9 339.1 146.9 250 C 146.9 160.9 219 88.7 308.1 88.7 C 397.2 88.7 469.5 160.9 469.5 250 M 308.1 0 C 170 0 58.1 111.9 58.1 250 C 58.1 388.1 170 500 308.1 500 C 446.2 500 558.1 388.1 558.1 250 C 558.1 111.9 446.2 0 308.1 0"/>
        <path fill="#0019a8" stroke="none" d="M 0 199.5 L 615.3 199.5 L 615.3 300.6 L 0 300.6 Z"/>
        <path fill="#ffffff" stroke="none" d="M 71.9 268.6 C 67.7 273.8 61.4 277.1 53.6 277.1 C 45.8 277.1 39.6 273.9 35.2 268.5 C 31.8 264.4 30.3 259.5 30.3 252.5 L 30.3 224 L 40.5 224 L 40.5 252.6 C 40.5 261.5 45.6 267.3 53.6 267.3 C 61.8 267.3 66.8 261.4 66.8 252.6 L 66.8 224 L 76.9 224 L 76.9 252.2 C 76.9 259.4 75.6 264.1 71.9 268.6"/>
        <path fill="#ffffff" stroke="none" d="M 122.6 276.1 L 94.9 240.2 L 94.9 276.1 L 84.7 276.1 L 84.7 224 L 94.9 224 L 122.6 260.1 L 122.6 224 L 132.8 224 L 132.8 276.1 Z"/>
        <path fill="#ffffff" stroke="none" d="M 155.4 276.1 L 140.9 276.1 L 140.9 224 L 158.7 224 C 176.7 224 186.4 235.9 186.4 249.4 C 186.3 263.4 176.1 276.1 155.4 276.1 M 156.8 232.8 L 151 232.8 L 151 267 L 156 267 C 168.1 267 176.1 260.2 176.1 249.8 C 176 239.3 168.8 232.8 156.8 232.8"/>
        <path fill="#ffffff" stroke="none" d="M 192.7 276.1 L 192.7 224 L 225 224 L 225 233.1 L 202.8 233.1 L 202.8 243.9 L 221.1 243.9 L 221.1 253.1 L 202.8 253.1 L 202.8 266.8 L 226.9 266.8 L 226.9 276.1 Z"/>
        <path fill="#ffffff" stroke="none" d="M 261.6 276.1 L 247.2 255.3 L 242.5 255.3 L 242.5 276.1 L 232.4 276.1 L 232.4 224 L 249.3 224 C 260 224 267 229.6 267 239.2 C 267 245.6 263.4 250.7 257.2 252.9 L 273.6 276 L 261.6 276 Z M 248.4 232.8 L 242.6 232.8 L 242.6 246.5 L 247.4 246.5 C 253.3 246.5 256.8 243.9 256.8 239.3 C 256.9 235.3 253.7 232.8 248.4 232.8"/>
        <path fill="#ffffff" stroke="none" d="M 301.4 277.1 C 285.1 277.1 273.1 265.7 273.1 250 C 273.1 234.7 285.1 223 301.3 223 C 307.4 223 313.6 224.6 319.4 227.6 L 319.4 238.2 C 314.5 234.7 308.2 232.3 302 232.3 C 290.7 232.3 283.4 240.4 283.4 250.2 C 283.4 260.2 290.8 268 301.7 268 C 304.4 268 307 267.8 309.7 266.8 L 309.7 255.6 L 301.2 255.6 L 301.2 246.7 L 319.9 246.7 L 319.9 271.5 C 313.6 275.3 308.1 277.1 301.4 277.1"/>
        <path fill="#ffffff" stroke="none" d="M 356.8 276.1 L 342.4 255.3 L 337.7 255.3 L 337.7 276.1 L 327.6 276.1 L 327.6 224 L 344.5 224 C 355.2 224 362.2 229.6 362.2 239.2 C 362.2 245.6 358.6 250.7 352.4 252.9 L 368.8 276 L 356.8 276 Z M 343.5 232.8 L 337.7 232.8 L 337.7 246.5 L 342.5 246.5 C 348.4 246.5 351.9 243.9 351.9 239.3 C 352 235.3 348.8 232.8 343.5 232.8"/>
        <path fill="#ffffff" stroke="none" d="M 395.5 277.1 C 380.5 277.1 368.2 265.8 368.2 250 C 368.2 234.3 380.6 223 395.5 223 C 410.4 223 422.8 234.3 422.8 250.1 C 422.9 265.8 410.4 277.1 395.5 277.1 M 395.5 233 C 385.7 233 378.5 240.4 378.5 250.1 C 378.5 259.7 385.7 267.1 395.5 267.1 C 405.3 267.1 412.5 259.7 412.5 250.1 C 412.6 240.4 405.3 233 395.5 233"/>
        <path fill="#ffffff" stroke="none" d="M 470.5 268.6 C 466.3 273.8 460 277.1 452.2 277.1 C 444.4 277.1 438.2 273.9 433.8 268.5 C 430.4 264.4 428.9 259.5 428.9 252.5 L 428.9 224 L 439 224 L 439 252.6 C 439 261.5 444.2 267.3 452.1 267.3 C 460.3 267.3 465.3 261.4 465.3 252.6 L 465.3 224 L 475.4 224 L 475.4 252.2 C 475.5 259.4 474.2 264.1 470.5 268.6"/>
        <path fill="#ffffff" stroke="none" d="M 521.3 276.1 L 493.5 240.2 L 493.5 276.1 L 483.3 276.1 L 483.3 224 L 493.5 224 L 521.3 260.1 L 521.3 224 L 531.4 224 L 531.4 276.1 Z"/>
        <path fill="#ffffff" stroke="none" d="M 554 276.1 L 539.5 276.1 L 539.5 224 L 557.3 224 C 575.3 224 585 235.9 585 249.4 C 585 263.4 574.7 276.1 554 276.1 M 555.5 232.8 L 549.6 232.8 L 549.6 267 L 554.6 267 C 566.7 267 574.7 260.2 574.7 249.8 C 574.7 239.3 567.4 232.8 555.5 232.8"/>
    </g>
</svg>
