<?xml version="1.0" encoding="UTF-8" standalone="no"?>
<svg
   xmlns:dc="http://purl.org/dc/elements/1.1/"
   xmlns:cc="http://creativecommons.org/ns#"
   xmlns:rdf="http://www.w3.org/1999/02/22-rdf-syntax-ns#"
   xmlns:svg="http://www.w3.org/2000/svg"
   xmlns="http://www.w3.org/2000/svg"
   height="100px"
   width="100px"
   fill="#000000"
   version="1.1"
   x="0px"
   y="0px"
   viewBox="0 0 100 100"
   enable-background="new 0 0 100 100"
   xml:space="preserve"
   id="svg116"><metadata
     id="metadata122"><rdf:RDF><cc:Work
         rdf:about=""><dc:format>image/svg+xml</dc:format><dc:type
           rdf:resource="http://purl.org/dc/dcmitype/StillImage" /><dc:title></dc:title></cc:Work></rdf:RDF></metadata><defs
     id="defs120" /><path
     d="M74.681,79.083c-4.612,0-9.051-1.306-12.926-3.791c-3.43,2.454-7.566,3.791-11.806,3.791c-7.109,0-13.713-3.789-17.365-9.81  c-2.301,1.096-4.811,1.668-7.367,1.668c-9.475,0-17.183-7.709-17.183-17.185c0-7.059,4.323-13.326,10.744-15.916  c-0.897-2.809-1.352-5.712-1.352-8.656c0-15.776,12.835-28.611,28.611-28.611c8.155,0,15.789,3.422,21.222,9.453  c2.755-1.684,5.881-2.565,9.144-2.565c9.733,0,17.652,7.92,17.652,17.654c0,4.133-1.474,8.136-4.105,11.291  c5.551,4.554,8.803,11.35,8.803,18.605C98.752,68.285,87.954,79.083,74.681,79.083z M61.601,70.28l1.264,0.925  c3.468,2.537,7.554,3.878,11.816,3.878c11.067,0,20.071-9.004,20.071-20.07c0-6.708-3.335-12.946-8.921-16.687l-2.12-1.419  l1.884-1.72c2.835-2.587,4.46-6.258,4.46-10.071c0-7.529-6.124-13.654-13.652-13.654c-3.015,0-5.88,0.976-8.286,2.822l-1.562,1.2  l-1.224-1.544c-4.712-5.952-11.744-9.365-19.293-9.365c-13.571,0-24.611,11.041-24.611,24.611c0,3.134,0.6,6.215,1.782,9.16  l0.845,2.103l-2.192,0.576c-5.786,1.521-9.826,6.757-9.826,12.732c0,7.27,5.914,13.185,13.183,13.185c2.507,0,4.96-0.72,7.094-2.081  l1.917-1.225l0.968,2.059c2.683,5.703,8.474,9.389,14.753,9.389c3.814,0,7.526-1.349,10.45-3.797L61.601,70.28z"
     id="path110" /><path
     d="M27.5,92.859c-4.564,0-8.277-3.713-8.277-8.277s3.713-8.277,8.277-8.277c4.565,0,8.279,3.713,8.279,8.277  S32.065,92.859,27.5,92.859z M27.5,79.305c-2.91,0-5.277,2.367-5.277,5.277s2.367,5.277,5.277,5.277  c2.911,0,5.279-2.367,5.279-5.277S30.411,79.305,27.5,79.305z"
     id="path112" /><path
     d="M11.675,98.5c-3.049,0-5.53-2.48-5.53-5.53s2.48-5.53,5.53-5.53c3.05,0,5.531,2.48,5.531,5.53S14.725,98.5,11.675,98.5z   M11.675,90.439c-1.395,0-2.53,1.135-2.53,2.53s1.135,2.53,2.53,2.53c1.396,0,2.531-1.135,2.531-2.53S13.07,90.439,11.675,90.439z"
     id="path114" /><path
     style="fill:#ffffff;stroke-width:0.330676"
     d="m 45.427925,74.166559 c -1.000295,-0.323404 -2.485436,-0.931143 -3.300316,-1.350529 -2.107555,-1.084683 -5.286451,-4.437134 -6.594132,-6.954148 -0.614178,-1.182166 -1.148738,-2.191279 -1.18791,-2.242475 -0.03917,-0.0512 -1.170166,0.495429 -2.51332,1.214725 -5.72108,3.063793 -11.029157,2.428859 -15.546999,-1.859681 -2.591867,-2.460317 -3.704053,-4.962019 -3.864097,-8.691734 -0.09476,-2.208279 0.02363,-3.227313 0.548379,-4.720327 1.415498,-4.027343 4.790799,-7.126182 9.108933,-8.362843 1.687095,-0.48316 2.149834,-0.744338 1.997825,-1.127598 -1.919059,-4.838552 -2.263492,-6.464222 -2.277565,-10.74974 -0.01186,-3.612762 0.10958,-4.692708 0.760992,-6.7672 2.699368,-8.596419 9.068541,-14.7860317 17.577397,-17.0818533 2.917449,-0.7871729 8.988495,-0.7901451 11.848328,-0.0058 5.258135,1.4421094 9.3678,4.1274638 13.148893,8.5918043 l 1.353902,1.598554 2.212247,-1.483677 c 7.618033,-5.1091482 17.125854,-2.013732 20.385586,6.636839 0.591063,1.56854 0.692631,2.414179 0.585402,4.8739 -0.169706,3.892809 -1.124112,6.021819 -4.065156,9.068214 l -2.16171,2.23914 1.906905,1.264903 c 10.813174,7.172681 12.316968,21.638146 3.201437,30.795613 -3.779359,3.796743 -8.467661,5.737483 -13.860215,5.737483 -4.240388,0 -8.21563,-1.261396 -11.572459,-3.672085 l -1.488299,-1.068817 -1.2405,0.982107 c -1.929404,1.527507 -3.380654,2.321291 -5.611525,3.069309 -2.615457,0.876975 -6.753186,0.906138 -9.352023,0.06592 z"
     id="path128" /><path
     style="fill:#ffffff;stroke-width:0.330676"
     d="m 25.42204,89.20676 c -1.907853,-0.842147 -3.349346,-3.406862 -2.964595,-5.274635 0.811428,-3.939079 5.204882,-5.732153 8.092213,-3.302625 2.060851,1.734092 2.544503,4.147223 1.281578,6.394295 -1.268431,2.25687 -4.075664,3.21301 -6.409196,2.182965 z"
     id="path130" /><path
     style="fill:#00ffff;stroke-width:0.330676"
     d="m 10.103258,94.526693 c -0.9327719,-0.992891 -0.9143588,-2.242605 0.04634,-3.145135 0.992891,-0.932772 2.242605,-0.914359 3.145135,0.04634 0.932772,0.99289 0.914359,2.242605 -0.04634,3.145135 -0.99289,0.932772 -2.242605,0.914359 -3.145135,-0.04634 z"
     id="path132" /></svg>
