<svg width="9.9921875" height="18" viewBox="0 0 9.9921875 18" xmlns="http://www.w3.org/2000/svg">
    <defs/>
    <path id="rect32" fill="#000000" stroke="none" d="M 0 -0 L 9.9921875 -0 L 9.9921875 18 L 0 18 Z"/>
    <path id="path2" fill="none" stroke="none" visibility="hidden" d="M -7 -3 L 17 -3 L 17 21 L -7 21 Z"/>
    <path id="path14" fill="#727272" stroke="none" d="M 4.532531 5.9254498 C 3.916537 5.7763328 3.356733 5.2722672 3.13676 4.6686522 C 3.028041 4.3703225 3.003785 3.7724064 3.088498 3.4789584 C 3.184868 3.1451339 3.357583 2.8556656 3.614474 2.5974344 C 4.219799 1.9889524 5.154898 1.850116 5.929548 2.2537098 C 6.228998 2.4097239 6.617676 2.8087687 6.767194 3.1136983 C 7.056218 3.7031386 7.056749 4.2634631 6.768894 4.8632151 C 6.368587 5.6971393 5.430371 6.1427844 4.532574 5.9254498 Z"/>
    <path id="path20" fill="#BDBDBD" stroke="none" d="M 4.665561 10.964186 C 3.607238 10.786831 2.8681283 9.766823 3.03079 8.70812 C 3.06489 8.486208 3.1089 8.345599 3.209304 8.137808 C 3.485438 7.56635 4.004879 7.165081 4.628504 7.041473 C 4.818239 7.003863 5.187645 7.003963 5.367174 7.041661 C 5.786025 7.129621 6.10537 7.301261 6.399908 7.596735 C 6.645595 7.843204 6.783897 8.065672 6.891683 8.387787 C 7.274678 9.532351 6.519603 10.770834 5.320299 10.965189 C 5.139881 10.994429 4.843307 10.993969 4.665561 10.964189 Z"/>
    <path id="path22" fill="#979797" stroke="none" d="M 4.665561 15.964186 C 3.607238 15.786831 2.8681283 14.766823 3.03079 13.70812 C 3.06489 13.486208 3.1089 13.345599 3.209304 13.137808 C 3.485438 12.56635 4.004879 12.165081 4.628504 12.041473 C 4.818239 12.003863 5.187645 12.003963 5.367174 12.041661 C 5.786025 12.129621 6.10537 12.301261 6.399908 12.596735 C 6.645595 12.843204 6.783897 13.065672 6.891683 13.387787 C 7.274678 14.532351 6.519603 15.770834 5.320299 15.965189 C 5.139881 15.994429 4.843307 15.993969 4.665561 15.964189 Z"/>
</svg>
