<svg width="40" height="40" viewBox="0 0 40 40" fill="none" xmlns="http://www.w3.org/2000/svg">
<path d="M5.22041 3.26611H3.01807C2.38268 3.26611 1.86768 3.78119 1.86768 4.4165V35.8002C1.86768 36.3158 2.28572 36.7338 2.80127 36.7338H5.43721C5.95283 36.7338 6.3708 36.3157 6.3708 35.8002V4.4165C6.3708 3.78111 5.85572 3.26611 5.22041 3.26611Z" fill="#D4D2D3"/>
<path d="M34.7793 3.26611H36.9816C37.617 3.26611 38.132 3.78119 38.132 4.4165V35.8002C38.132 36.3158 37.714 36.7338 37.1984 36.7338H34.5625C34.0469 36.7338 33.6289 36.3157 33.6289 35.8002V4.4165C33.6289 3.78111 34.144 3.26611 34.7793 3.26611Z" fill="#D4D2D3"/>
<path d="M5.81445 3.27881L2.01609 5.02623L0 9.09342V15.3676L7.93016 10.4966L12.0887 3.27881H5.81445Z" fill="white"/>
<path d="M17.8708 3.27881L7.92999 10.4966L3.4353 17.7144H9.70952L18.7901 11.8541L24.145 3.27881H17.8708Z" fill="white"/>
<path d="M29.9275 3.27881L18.7904 11.8541L15.4919 17.7144H21.7662L30.8831 11.5369L36.2017 3.27881H29.9275Z" fill="white"/>
<path d="M29.9273 12.8218L27.5483 17.7143H33.8225L38.3064 15.3675L39.9999 11.5369V5.2627L29.9273 12.8218Z" fill="white"/>
<path d="M39.9999 11.5371V15.8468C39.9999 16.8783 39.1636 17.7145 38.1322 17.7145H33.8225L39.9999 11.5371Z" fill="#FF6D00"/>
<path d="M39.9999 5.14662V5.26279L27.5484 17.7144H21.7661L36.2016 3.27881H38.1322C39.1636 3.27881 39.9999 4.11514 39.9999 5.14662Z" fill="#FF6D00"/>
<path d="M29.9275 3.27881L15.4919 17.7144H9.70972L24.1452 3.27881H29.9275Z" fill="#FF6D00"/>
<path d="M17.871 3.27881L3.43547 17.7144H1.86773C0.836328 17.7144 0 16.878 0 15.8465V15.3675L12.0887 3.27881H17.871Z" fill="#FF6D00"/>
<path d="M5.81445 3.27881L0 9.09342V5.14662C0 4.11514 0.836328 3.27889 1.86773 3.27889H5.81445V3.27881Z" fill="#FF6D00"/>
</svg>
