<svg width="21" height="21" viewBox="0 0 21 21" fill="none" xmlns="http://www.w3.org/2000/svg">
<circle cx="10.5" cy="10.5" r="9.5" fill="#F2F2F2" stroke="#72CE36" stroke-width="2"/>
<path d="M11.3342 6.32733C11.9873 6.32733 12.5216 5.76281 12.5216 5.07285C12.5216 4.38288 11.9873 3.81836 11.3342 3.81836C10.6811 3.81836 10.1468 4.38288 10.1468 5.07285C10.1468 5.76281 10.6811 6.32733 11.3342 6.32733ZM9.13749 8.45996L7.48082 17.1543C7.48082 17.1543 7.8503 17.3031 8.09851 17.3041C8.35105 17.3051 8.72759 17.1543 8.72759 17.1543L9.79056 12.2861C9.79056 12.2861 10.6829 12.9478 11.0373 13.5406C11.7914 14.8021 11.0373 17.1543 11.0373 17.1543C11.0373 17.1543 11.3919 17.3041 11.631 17.3041C11.8702 17.3041 12.2247 17.1543 12.2247 17.1543C12.2247 17.1543 13.2255 14.1404 12.2247 12.5998C11.8485 12.0205 10.978 11.3453 10.978 11.3453L11.3342 9.46355C12.106 10.4044 13.2934 11.0317 14.5995 11.0317C14.5995 11.0317 15.2726 11.0108 15.2726 10.4114C15.2726 9.92631 14.5995 9.77717 14.5995 9.77717C13.4715 9.77717 12.5216 9.14993 12.0466 8.27179L11.4529 7.2682C11.2154 6.89185 10.8592 6.64095 10.4436 6.64095C10.2655 6.64095 10.1468 6.70368 9.96867 6.70368C9.96867 6.70368 7.43237 6.88343 6.88143 8.08361C6.43193 9.06281 6.88143 11.0317 6.88143 11.0317C6.88143 11.0317 7.03127 11.6101 7.48079 11.6101C7.93032 11.6101 8.06883 11.0317 8.06883 11.0317C8.06883 11.0317 7.63066 9.51234 8.06883 8.89903C8.33111 8.53191 9.13749 8.45996 9.13749 8.45996Z" fill="#72CE36"/>
</svg>
