<?xml version="1.0" encoding="utf-8"?>
<!-- Generator: Adobe Illustrator 25.0.0, SVG Export Plug-In . SVG Version: 6.00 Build 0)  -->
<svg version="1.1" id="Camada_1" xmlns="http://www.w3.org/2000/svg" xmlns:xlink="http://www.w3.org/1999/xlink" x="0px" y="0px"
	 viewBox="0 0 242.45 156.15" style="enable-background:new 0 0 242.45 156.15;" xml:space="preserve">
<style type="text/css">
	.st0{fill:#231F20;}
	.st1{fill:#F7CA33;stroke:#D3A52A;stroke-width:0.25;stroke-miterlimit:10;}
	.st2{fill:#F7CA33;}
	.st3{fill:#D3A52A;}
	.st4{fill:#808285;stroke:#6D6E71;stroke-width:0.25;stroke-miterlimit:10;}
	.st5{fill:#BA131F;}
	.st6{fill:#8C1313;}
	.st7{fill:#6D6E71;}
	.st8{fill:#CC3333;}
	.st9{fill:#961212;}
	.st10{fill:#F4EAD3;}
	.st11{fill:#CBBC9B;}
	.st12{fill:#6D6E71;stroke:#58595B;stroke-width:0.25;stroke-miterlimit:10;}
	.st13{fill:#414042;stroke:#231F20;stroke-width:0.05;stroke-miterlimit:10;}
	.st14{fill:#FFF200;stroke:#231F20;stroke-width:0.05;stroke-miterlimit:10;}
	.st15{fill:#FF0013;stroke:#231F20;stroke-width:0.05;stroke-miterlimit:10;}
	.st16{fill:#58FF00;stroke:#231F20;stroke-width:0.05;stroke-miterlimit:10;}
	.st17{fill:#03F9FF;stroke:#231F20;stroke-width:0.05;stroke-miterlimit:10;}
	.st18{fill:#939598;stroke:#808285;stroke-width:0.25;stroke-miterlimit:10;}
	.st19{fill:#A7A9AC;stroke:#BCBEC0;stroke-width:0.15;stroke-miterlimit:10;}
	.st20{fill:#ED1C24;stroke:#D31A28;stroke-width:0.25;stroke-miterlimit:10;}
	.st21{fill:#231F20;stroke:#231F20;stroke-width:0.25;stroke-miterlimit:10;}
	.st22{fill:#BCBEC0;stroke:#A7A9AC;stroke-width:0.05;stroke-miterlimit:10;}
	.st23{fill:#414042;}
	.st24{fill:#BB8C61;}
	.st25{fill:#8E6442;}
	.st26{clip-path:url(#SVGID_1_);fill:#BB8C61;}
	.st27{clip-path:url(#SVGID_1_);fill:#9B7353;}
	.st28{clip-path:url(#SVGID_1_);}
	.st29{fill:#8B5E3C;}
	.st30{fill:#FFF5DC;}
	.st31{fill:#CEC8BA;}
	.st32{fill:#ED001D;stroke:#8C1313;stroke-width:0.5;stroke-miterlimit:10;}
	.st33{fill:#ED001D;}
	.st34{fill:#F7CA33;stroke:#D3A52A;stroke-width:0.15;stroke-miterlimit:10;}
	.st35{fill:#FFFBF0;}
	.st36{fill:#FFE1D9;stroke:#CEC8BA;stroke-width:0.25;stroke-miterlimit:10;}
	.st37{fill:#FFE1D9;}
	.st38{fill:#FCB1A2;}
	.st39{fill:#FFFBF0;stroke:#CEC8BA;stroke-width:0.25;stroke-miterlimit:10;}
	.st40{fill:#ED001D;stroke:#8C1313;stroke-width:0.25;stroke-miterlimit:10;}
</style>
<g>
	<path class="st0" d="M242.45,20.34h-25.15c-1.97-3.99-6.06-6.58-10.59-6.58h-0.86c-0.79-0.87-1.97-1.5-3.45-1.81
		c-0.52-0.11-2.43-0.4-2.79-0.46c-3.55-0.58-7.19-0.78-10.83-0.59c-4.6-4.27-10.59-6.92-17.41-7.71c-1.09-0.5-2.13-0.92-3.16-1.28
		c-4.72-1.67-9.69-2.25-14.54-1.71l-0.26,0.03l-0.24,0.09c-1.17,0.45-2.37,0.96-3.56,1.51c-7.82,1.86-14.3,5.87-19.27,11.93H53.57
		c-0.64-0.78-1.64-1.34-2.92-1.6c-0.37-0.08-2.03-0.33-2.03-0.33c-3.98-0.64-8.01-0.64-11.99,0l-1.8,0.29
		c-2.19,0.09-3.95,1.79-3.95,3.86v3.74c0,0.21,0.02,0.42,0.05,0.62H8.67c-1.35-0.08-5.54-0.18-7.53,1.68C0.4,22.72,0,23.61,0,24.61
		c0,1,0.4,1.89,1.14,2.59c1.99,1.86,6.18,1.77,7.53,1.68h18.31c-16.15,30.83-16.15,67.56,0,98.39H8.67
		c-1.35-0.09-5.54-0.18-7.53,1.68C0.4,129.65,0,130.54,0,131.54s0.4,1.89,1.14,2.59c1.99,1.86,6.18,1.76,7.53,1.68h22.35
		c-0.04,0.2-0.05,0.41-0.05,0.62v3.74c0,1.91,1.39,3.34,3.72,3.83c0.37,0.08,2.03,0.33,2.03,0.33c3.98,0.64,8.01,0.64,11.99,0
		l1.8-0.29c1.3-0.05,2.47-0.69,3.19-1.64h31.33l-0.05,0.01h44.54c3.89,6.7,9.93,11.44,16.72,13.1c1.78,0.43,3.57,0.65,5.36,0.65
		c4.67,0,9.33-1.47,13.72-4.36c1.22,0.04,2.44,0,3.62-0.11c5.78-0.55,10.97-2.85,15.44-6.84c5.07,0.71,10.19,0.65,15.24-0.18
		l2.55-0.42c1.52-0.05,2.89-0.75,3.77-1.85h0.78c4.53,0,8.62-2.59,10.59-6.58h25.15v-8.54h-22.74l1.17-4.67h9.22v-9.3h-6.89
		l0.04-0.15c5.74-22.95,5.74-47.22,0-70.17l-0.04-0.15h6.89v-9.3h-9.22l-1.17-4.67h22.74V20.34z"/>
	<g>
		<g>
			<g>
				<rect x="8.61" y="129.27" class="st1" width="231.84" height="4.54"/>
				<g>
					<path class="st2" d="M8.61,129.27c0,0-6.61-0.45-6.61,2.27c0,2.72,6.61,2.27,6.61,2.27s22.31,0,22.31-2.27
						S8.61,129.27,8.61,129.27z"/>
					<path class="st3" d="M8.6,129.59c-1.25-0.05-2.5,0-3.71,0.22c-0.6,0.12-1.19,0.27-1.69,0.54c-0.5,0.28-0.86,0.68-0.86,1.18
						c-0.02,0.5,0.31,0.94,0.82,1.21c0.5,0.28,1.09,0.45,1.69,0.57c1.21,0.22,2.46,0.28,3.71,0.23c5.07,0.01,10.11-0.06,15.15-0.44
						c1.26-0.1,2.51-0.22,3.76-0.4c0.62-0.09,1.24-0.2,1.85-0.36c0.3-0.08,0.6-0.17,0.88-0.29c0.27-0.11,0.57-0.3,0.59-0.51
						c0.01-0.2-0.3-0.39-0.56-0.51c-0.28-0.12-0.58-0.21-0.88-0.29c-0.6-0.16-1.22-0.26-1.84-0.36c-1.24-0.19-2.5-0.3-3.76-0.4
						C18.71,129.61,13.66,129.57,8.6,129.59z M8.62,128.95c5.04,0.08,10.11,0.27,15.16,0.69c1.26,0.11,2.52,0.25,3.78,0.45
						c0.63,0.1,1.25,0.22,1.87,0.39c0.31,0.09,0.62,0.18,0.92,0.32c0.15,0.07,0.3,0.15,0.43,0.26c0.13,0.1,0.28,0.27,0.27,0.5
						c-0.08,0.46-0.47,0.58-0.74,0.72c-0.3,0.13-0.61,0.23-0.92,0.31c-0.62,0.17-1.24,0.28-1.87,0.38c-1.25,0.2-2.51,0.33-3.77,0.45
						c-5.04,0.43-10.12,0.57-15.15,0.66c-1.28,0.07-2.56,0.04-3.85-0.17c-0.64-0.12-1.28-0.28-1.9-0.61l-0.44-0.29l-0.39-0.4
						c-0.09-0.17-0.19-0.34-0.26-0.52c-0.03-0.19-0.07-0.38-0.09-0.57c0.03-0.19,0.05-0.39,0.09-0.57c0.09-0.17,0.17-0.36,0.28-0.51
						c0.13-0.13,0.25-0.28,0.39-0.4l0.44-0.3c0.62-0.32,1.26-0.49,1.9-0.61C6.05,128.9,7.35,128.88,8.62,128.95z"/>
				</g>
			</g>
			<g>
				<rect x="8.61" y="22.34" class="st1" width="231.84" height="4.54"/>
				<g>
					<path class="st2" d="M8.61,22.34c0,0-6.61-0.45-6.61,2.27s6.61,2.27,6.61,2.27s22.31,0,22.31-2.27S8.61,22.34,8.61,22.34z"/>
					<path class="st3" d="M8.6,22.66c-1.25-0.05-2.5,0-3.7,0.22C4.3,23,3.71,23.16,3.21,23.42c-0.5,0.27-0.85,0.67-0.84,1.17
						c-0.02,0.49,0.3,0.92,0.81,1.19c0.5,0.28,1.09,0.44,1.68,0.57c1.2,0.23,2.46,0.28,3.71,0.23c5.07,0.02,10.11-0.05,15.15-0.43
						c1.26-0.1,2.51-0.22,3.76-0.4c0.62-0.09,1.24-0.2,1.85-0.35c0.3-0.08,0.6-0.17,0.88-0.29c0.27-0.11,0.57-0.29,0.59-0.5
						c0.01-0.21-0.3-0.39-0.56-0.51c-0.28-0.12-0.58-0.21-0.88-0.29c-0.6-0.16-1.22-0.26-1.85-0.36c-1.24-0.18-2.5-0.3-3.76-0.4
						C18.71,22.68,13.66,22.65,8.6,22.66z M8.62,22.01c5.04,0.08,10.11,0.28,15.16,0.7c1.26,0.12,2.52,0.25,3.77,0.45
						c0.63,0.1,1.25,0.22,1.87,0.39c0.31,0.09,0.62,0.18,0.91,0.32c0.15,0.07,0.3,0.15,0.43,0.26c0.13,0.1,0.28,0.27,0.27,0.5
						c-0.08,0.45-0.46,0.58-0.74,0.73c-0.3,0.13-0.61,0.23-0.92,0.31c-0.62,0.17-1.24,0.28-1.87,0.38c-1.25,0.2-2.51,0.34-3.78,0.45
						c-5.04,0.43-10.12,0.58-15.15,0.66C7.31,27.24,6.02,27.21,4.74,27c-0.64-0.12-1.29-0.28-1.9-0.61l-0.45-0.29L2,25.69
						c-0.09-0.17-0.2-0.34-0.27-0.52c-0.03-0.19-0.07-0.39-0.09-0.58c0.03-0.19,0.05-0.39,0.1-0.58c0.09-0.17,0.17-0.36,0.28-0.52
						c0.13-0.14,0.26-0.28,0.39-0.4l0.45-0.3c0.62-0.32,1.27-0.49,1.91-0.61C6.05,21.96,7.35,21.94,8.62,22.01z"/>
				</g>
			</g>
		</g>
		<g>
			<rect x="215.94" y="35.54" class="st4" width="12.15" height="5.3"/>
			<g>
				<rect x="215.94" y="115.3" class="st4" width="12.15" height="5.3"/>
			</g>
		</g>
		<g>
			<path class="st5" d="M36.16,15.76H206.7c4.5,0,8.43,3.06,9.52,7.43c1.27,5.07,5.07,20.28,5.07,20.28
				c5.68,22.72,5.68,46.49,0,69.2c0,0-3.8,15.21-5.07,20.28c-1.09,4.37-5.02,7.43-9.52,7.43H36.16l-7.26-13.75
				c-16.04-30.39-16.04-66.73,0-97.12L36.16,15.76z"/>
			<path class="st6" d="M36.16,15.76l119.68-0.1l29.93-0.03l14.97-0.01l3.74,0c1.24,0.02,2.5-0.07,3.76,0.12
				c2.5,0.38,4.83,1.77,6.37,3.78c6.33,18.8,11.22,38.51,11.13,58.55c-0.02,9.99-1.04,19.98-3.12,29.75
				c-1.06,4.88-2.33,9.7-3.52,14.55l-1.81,7.26l-0.92,3.63c-0.34,1.23-0.92,2.39-1.69,3.41c-1.55,2.03-3.9,3.45-6.43,3.83
				c-1.28,0.19-2.53,0.1-3.77,0.12l-3.74,0l-14.96-0.01l-29.93-0.02l-119.7-0.1l-0.07,0l-0.03-0.06c-2.55-4.88-5.16-9.73-7.67-14.63
				c-1.19-2.48-2.48-4.92-3.47-7.5c-0.51-1.28-1.09-2.53-1.55-3.83l-1.34-3.91c-0.48-1.29-0.84-2.62-1.2-3.95
				c-0.36-1.33-0.75-2.65-1.09-3.99l-0.86-4.04c-0.14-0.67-0.3-1.34-0.42-2.02l-0.31-2.04l-0.61-4.09l-0.37-4.12L17,84.27
				l-0.06-2.06l-0.12-4.13l0.13-4.13l0.06-2.06l0.18-2.06l0.38-4.11l0.61-4.08l0.31-2.04c0.12-0.68,0.28-1.35,0.42-2.02l0.87-4.04
				c0.33-1.33,0.73-2.65,1.09-3.98c0.36-1.33,0.72-2.66,1.21-3.95l1.35-3.9c0.46-1.3,1.04-2.55,1.55-3.83
				c0.99-2.57,2.28-5.01,3.48-7.49C30.99,25.48,33.6,20.63,36.16,15.76z M36.16,15.76c-2.56,4.88-5.16,9.73-7.67,14.63
				c-1.19,2.48-2.48,4.92-3.46,7.49c-0.51,1.28-1.08,2.53-1.55,3.83l-1.34,3.9c-0.48,1.29-0.84,2.62-1.2,3.95
				c-0.36,1.33-0.75,2.65-1.09,3.98l-0.86,4.04c-0.14,0.67-0.3,1.34-0.42,2.02l-0.31,2.04l-0.61,4.08l-0.37,4.11l-0.18,2.06
				l-0.06,2.06l-0.12,4.13l0.13,4.13l0.06,2.06l0.18,2.06l0.37,4.11l0.61,4.08l0.31,2.04c0.12,0.68,0.28,1.35,0.42,2.02l0.87,4.03
				c0.33,1.33,0.73,2.65,1.09,3.98c0.36,1.33,0.72,2.65,1.2,3.94l1.35,3.9c0.46,1.29,1.04,2.55,1.55,3.82
				c0.99,2.57,2.28,5,3.47,7.48c2.52,4.89,5.13,9.74,7.69,14.61l-0.1-0.06l119.7-0.1l29.93-0.02l14.96-0.01l3.74,0
				c1.25-0.02,2.5,0.06,3.7-0.12c2.4-0.36,4.64-1.7,6.12-3.64c0.74-0.97,1.29-2.07,1.61-3.25l0.92-3.62l1.82-7.26
				c1.2-4.84,2.48-9.67,3.54-14.53c2.09-9.74,3.11-19.7,3.15-29.66c-0.02-9.96-1.03-19.92-3.11-29.67
				c-1.06-4.87-2.33-9.69-3.52-14.54l-1.81-7.26l-0.91-3.62c-0.33-1.18-0.88-2.3-1.62-3.28c-1.49-1.95-3.75-3.31-6.18-3.68
				c-1.21-0.19-2.47-0.1-3.71-0.12l-3.74,0l-14.96-0.01l-29.92-0.03L36.16,15.76z"/>
		</g>
		<ellipse class="st7" cx="63.14" cy="78.07" rx="12.46" ry="8.41"/>
		<g>
			<path class="st8" d="M99.1,15.76c0,0,20.01,5.83,78.76,5.83v-5.83H99.1z"/>
			<path class="st9" d="M99.1,15.76c6.41,1.54,12.98,2.32,19.52,3.03c6.55,0.68,13.12,1.22,19.71,1.57
				c3.29,0.22,6.58,0.31,9.87,0.48l9.88,0.3l9.89,0.16l9.89,0.04l-0.24,0.24l0-5.83l0.24,0.24L99.1,15.76z M99.1,15.76l78.76-0.24
				l0.24,0v0.25l0,5.83v0.25l-0.24,0l-9.89-0.08l-9.89-0.2l-9.89-0.34c-3.29-0.18-6.59-0.28-9.88-0.52
				c-6.58-0.38-13.16-0.93-19.71-1.66C112.06,18.24,105.5,17.38,99.1,15.76z"/>
		</g>
		<g>
			<path class="st8" d="M99.1,140.4c0,0,20.01-5.83,78.76-5.83v5.83H99.1z"/>
			<path class="st9" d="M99.1,140.4c6.4-1.62,12.96-2.48,19.5-3.27c6.55-0.73,13.13-1.28,19.71-1.66c3.29-0.23,6.59-0.34,9.88-0.52
				l9.89-0.34l9.89-0.2l9.89-0.08l0.24,0v0.25l0,5.83v0.25l-0.24,0L99.1,140.4z M99.1,140.4l78.76-0.24l-0.24,0.24l0-5.83l0.24,0.24
				l-9.89,0.04l-9.89,0.16l-9.88,0.3c-3.29,0.16-6.59,0.26-9.87,0.48c-6.58,0.35-13.15,0.89-19.71,1.57
				C112.08,138.08,105.51,138.86,99.1,140.4z"/>
		</g>
		<g>
			<path class="st8" d="M201.02,140.39h-20.77c0,0,3.46-17.86,3.46-62.31c0-36.14-3.46-62.31-3.46-62.31h20.77
				c0,0,3.46,25.76,3.46,62.31C204.48,123.46,201.02,140.39,201.02,140.39z"/>
			<path class="st9" d="M201.02,140.39l-20.77,0.07l-0.08,0l0.01-0.08c0.85-5.13,1.33-10.32,1.76-15.5
				c0.42-5.19,0.74-10.38,0.96-15.58c0.47-10.4,0.64-20.8,0.63-31.21c-0.02-10.41-0.32-20.81-0.88-31.2
				c-0.59-10.39-1.38-20.77-2.65-31.09l-0.03-0.28l0.28,0l20.77,0.02l0.2,0l0.02,0.2c1.26,10.35,2.03,20.73,2.59,31.13
				c0.53,10.4,0.8,20.81,0.8,31.22c-0.02,10.41-0.19,20.82-0.7,31.22c-0.24,5.2-0.58,10.4-1.02,15.58
				C202.45,130.07,201.94,135.26,201.02,140.39z M201.02,140.39c0.89-5.13,1.36-10.32,1.79-15.5c0.41-5.19,0.71-10.38,0.92-15.58
				c0.44-10.4,0.61-20.81,0.6-31.21c-0.02-10.41-0.31-20.81-0.87-31.2c-0.59-10.39-1.38-20.77-2.66-31.09l0.22,0.2l-20.77,0.02
				l0.25-0.28c1.25,10.35,2.02,20.74,2.58,31.13c0.54,10.4,0.81,20.81,0.81,31.22c-0.01,10.41-0.21,20.82-0.7,31.22
				c-0.24,5.2-0.56,10.4-1,15.59c-0.46,5.19-0.98,10.37-1.87,15.51l-0.07-0.08L201.02,140.39z"/>
		</g>
		<g>
			<path class="st1" d="M180.82,13.9l2.69-0.44c5.21-0.85,10.56-0.85,15.77,0c0,0,2.2,0.34,2.69,0.44c1.65,0.35,2.96,1.19,2.96,2.65
				v5.3c0,1.46-1.32,2.65-2.96,2.65l-3.68-0.6c-4.56-0.75-9.24-0.75-13.8,0l-3.68,0.6c-1.63,0-2.96-1.19-2.96-2.65v-5.3
				C177.86,15.09,179.18,13.9,180.82,13.9z"/>
			<path class="st1" d="M201.97,142.24l-2.69,0.44c-5.21,0.85-10.56,0.85-15.77,0c0,0-2.2-0.34-2.69-0.44
				c-1.65-0.35-2.96-1.19-2.96-2.65v-5.3c0-1.46,1.32-2.65,2.96-2.65l3.68,0.6c4.56,0.75,9.24,0.75,13.8,0l3.68-0.6
				c1.63,0,2.96,1.19,2.96,2.65v5.3C204.93,141.06,203.61,142.24,201.97,142.24z"/>
		</g>
		<g>
			<g>
				<path class="st10" d="M121.82,58.58H88.84c-1.66,0-3-1.34-3-3V22.6c0-1.66,1.34-3,3-3h32.98c1.66,0,3,1.34,3,3v32.98
					C124.82,57.24,123.47,58.58,121.82,58.58z"/>
				<path class="st11" d="M121.82,58.92l-18.85,0.13l-9.42,0.06l-4.71,0.02c-0.93,0.01-1.86-0.37-2.52-1.03
					c-0.66-0.65-1.05-1.58-1.05-2.52c-0.02-6.28-0.07-12.56-0.02-18.85l0.04-9.42l0.02-4.71c0-0.92,0.38-1.84,1.04-2.49
					c0.65-0.65,1.57-1.03,2.49-1.02l18.85,0.09l9.42,0.05l4.71,0.03c0.88,0,1.75,0.37,2.36,0.99c0.62,0.62,0.97,1.49,0.96,2.36
					c-0.03,6.28-0.09,12.56-0.06,18.85l0.03,9.42l0.03,4.71c0.01,0.87-0.34,1.74-0.96,2.35C123.56,58.56,122.69,58.92,121.82,58.92z
					 M121.82,58.24c0.7,0.01,1.39-0.27,1.89-0.77c0.5-0.49,0.79-1.18,0.8-1.89l0.03-4.71l0.03-9.42c0.03-6.28-0.04-12.56-0.06-18.85
					c0-0.7-0.29-1.39-0.79-1.89c-0.5-0.49-1.19-0.77-1.89-0.77l-4.71,0.03l-9.42,0.05l-18.85,0.09c-1.33-0.03-2.51,1.17-2.47,2.49
					l0.02,4.71l0.04,9.42c0.05,6.28-0.01,12.56-0.02,18.85c-0.04,1.3,1.12,2.48,2.43,2.45l4.71,0.02l9.42,0.06L121.82,58.24z"/>
			</g>
			<g>
				<path class="st10" d="M121.82,97.56H88.84c-1.66,0-3-1.34-3-3V61.58c0-1.66,1.34-3,3-3h32.98c1.66,0,3,1.34,3,3v32.98
					C124.82,96.22,123.47,97.56,121.82,97.56z"/>
				<path class="st11" d="M121.82,97.85l-18.85,0.11l-9.42,0.06l-4.71,0.02c-0.91,0.01-1.82-0.37-2.46-1.01
					c-0.65-0.64-1.03-1.55-1.03-2.46l-0.06-18.85l0.02-9.42l0.02-4.71c0-0.92,0.38-1.83,1.03-2.48c0.65-0.65,1.56-1.03,2.48-1.02
					l18.85,0.06l9.42,0.04l4.71,0.02c0.88,0,1.76,0.37,2.37,0.99c0.62,0.62,0.98,1.5,0.97,2.37l-0.09,18.85l0.02,9.42l0.01,4.71
					c0.01,0.86-0.35,1.72-0.96,2.32C123.54,97.5,122.68,97.86,121.82,97.85z M121.82,97.27c0.71,0,1.42-0.29,1.92-0.79
					c0.51-0.5,0.8-1.2,0.8-1.92l0.01-4.71l0.02-9.42l-0.09-18.85c0-0.7-0.29-1.38-0.79-1.87c-0.49-0.49-1.18-0.77-1.87-0.76
					l-4.71,0.02l-9.42,0.04l-18.85,0.06c-1.34-0.03-2.53,1.17-2.49,2.5l0.02,4.71l0.02,9.42l-0.06,18.85
					c-0.04,1.34,1.16,2.55,2.51,2.52l4.71,0.02l9.42,0.06L121.82,97.27z"/>
			</g>
			<g>
				<path class="st10" d="M121.82,136.54H88.84c-1.66,0-3-1.34-3-3v-32.98c0-1.66,1.34-3,3-3h32.98c1.66,0,3,1.34,3,3v32.98
					C124.82,135.2,123.47,136.54,121.82,136.54z"/>
				<path class="st11" d="M121.82,136.81l-18.85,0.02l-9.42,0.01l-4.71,0c-0.86,0-1.73-0.35-2.34-0.97
					c-0.62-0.61-0.97-1.47-0.97-2.34l-0.01-18.85l0.01-9.42l0-4.71c0-0.86,0.35-1.72,0.97-2.33c0.61-0.61,1.47-0.97,2.33-0.96
					l18.85,0.02l9.42,0.01l4.71,0c0.86,0,1.71,0.35,2.31,0.96c0.61,0.6,0.96,1.45,0.95,2.31l-0.01,18.85l0.01,9.42l0,4.71
					c0,0.86-0.35,1.71-0.96,2.31C123.53,136.46,122.68,136.82,121.82,136.81z M121.82,136.27c0.72,0,1.42-0.29,1.93-0.8
					c0.51-0.5,0.8-1.21,0.8-1.93l0-4.71l0.01-9.42l-0.01-18.85c0-0.72-0.29-1.43-0.8-1.94c-0.51-0.51-1.22-0.8-1.94-0.8l-4.71,0
					l-9.42,0.01l-18.85,0.02c-0.71,0-1.41,0.29-1.91,0.79c-0.5,0.5-0.79,1.2-0.79,1.91l0,4.71l0.01,9.42l-0.01,18.85
					c0,0.71,0.29,1.41,0.79,1.91c0.5,0.5,1.2,0.79,1.91,0.79l4.71,0l9.42,0.01L121.82,136.27z"/>
			</g>
		</g>
		<g>
			<path class="st10" d="M128.57,86.78c0,10.54-0.62,21.06-1.85,31.53l-1.61,13.72c0,2.71-2.2,4.91-4.91,4.91h-1.42
				c-2.71,0-4.91-2.29-4.91-8.37l1.73-25.97c0-2.71,2.2-4.91,4.91-4.91c-2.71,0-4.91-2.2-4.91-4.91V63.36c0-2.71,2.2-4.91,4.91-4.91
				c-2.71,0-4.91-2.2-4.91-4.91l-1.73-25.97c0-6.9,2.2-8.37,4.91-8.37h1.42c2.71,0,4.91,2.2,4.91,4.91l1.61,13.72
				c1.23,10.46,1.85,20.99,1.85,31.53V86.78z"/>
			<g>
				<path class="st11" d="M128.83,86.78c0.01,7.58-0.31,15.15-0.94,22.7c-0.31,3.77-0.72,7.54-1.17,11.3l-1.32,11.28l0-0.03
					c-0.01,1.19-0.42,2.37-1.17,3.29c-0.75,0.92-1.82,1.57-2.99,1.81c-0.59,0.12-1.19,0.11-1.73,0.11
					c-0.54-0.01-1.14,0.03-1.74-0.11c-1.19-0.25-2.21-1.07-2.82-2.08c-1.22-2.05-1.39-4.41-1.4-6.66l0.44-6.7l0.88-13.39l0.22-3.35
					c0.09-1.13,0.1-2.2,0.26-3.4c0.24-1.17,0.9-2.25,1.82-3.01c0.93-0.76,2.12-1.18,3.32-1.19v0.7c-2.01,0.02-3.96-1.23-4.78-3.07
					c-0.44-0.89-0.51-1.99-0.48-2.89l0-2.8l-0.01-11.21l0-11.21l0-2.8c-0.03-0.89,0.04-2,0.48-2.89c0.82-1.84,2.77-3.1,4.79-3.08
					v0.72c-1.2-0.01-2.4-0.43-3.33-1.19c-0.93-0.77-1.58-1.85-1.82-3.03c-0.15-1.21-0.17-2.28-0.26-3.41l-0.22-3.36l-0.88-13.43
					l-0.44-6.72c0.01-1.14,0.05-2.28,0.22-3.42c0.18-1.13,0.45-2.28,1.08-3.3c0.59-1.05,1.73-1.8,2.91-1.97
					c0.59-0.1,1.18-0.07,1.73-0.08c0.55,0,1.15-0.02,1.74,0.1c1.17,0.24,2.25,0.89,3.01,1.81c0.76,0.92,1.17,2.11,1.18,3.31l0-0.04
					l1.81,15.6c0.57,5.21,0.99,10.44,1.26,15.67c0.27,5.23,0.37,10.48,0.35,15.72L128.83,86.78z M128.32,86.78l-0.01-15.71
					c0.02-5.23-0.1-10.46-0.38-15.69c-0.28-5.22-0.7-10.44-1.28-15.64l-1.84-15.6l0-0.02l0-0.02c-0.01-1.05-0.37-2.1-1.04-2.91
					c-0.67-0.81-1.62-1.38-2.65-1.59c-0.51-0.11-1.04-0.09-1.62-0.09c-0.57,0-1.11-0.01-1.63,0.07c-1.04,0.16-1.95,0.76-2.47,1.68
					c-1.07,1.84-1.16,4.19-1.19,6.36l0.45,6.72l0.91,13.43l0.23,3.36c0.09,1.1,0.12,2.29,0.25,3.3c0.21,1.02,0.78,1.96,1.58,2.62
					c0.81,0.66,1.84,1.02,2.88,1.03v0.72c-1.74-0.02-3.43,1.07-4.13,2.66c-0.38,0.81-0.44,1.62-0.41,2.59l0,2.8l0,11.21l-0.01,11.21
					l0,2.8c-0.03,0.96,0.03,1.78,0.41,2.59c0.71,1.59,2.39,2.68,4.14,2.67v0.7c-1.04,0.01-2.07,0.36-2.88,1.02
					c-0.81,0.66-1.37,1.6-1.59,2.62c-0.13,1.01-0.16,2.19-0.25,3.29l-0.23,3.35l-0.91,13.39l-0.45,6.7
					c-0.01,2.17,0.19,4.48,1.29,6.31c0.54,0.91,1.41,1.59,2.42,1.81c0.5,0.12,1.03,0.09,1.61,0.1c0.57,0,1.1,0.01,1.61-0.09
					c1.03-0.21,1.97-0.79,2.64-1.6c0.67-0.81,1.03-1.86,1.04-2.91l0-0.02l0-0.02l1.34-11.27c0.45-3.76,0.88-7.51,1.19-11.28
					C127.98,101.9,128.31,94.34,128.32,86.78z"/>
			</g>
		</g>
		<path class="st12" d="M61.49,91.1h-4.26c-2.56,0-4.63-2.07-4.63-4.63v-16.8c0-2.56,2.07-4.63,4.63-4.63h4.09
			c5.23,0,9.56-4.12,9.8-9.34c0.89-19,2.74-29.83,3.64-34.14c0.24-1.15-0.64-2.21-1.81-2.21l-24.15,0c-0.86,0-1.61,0.58-1.8,1.42
			c-1.09,4.75-4.3,21.77-4.3,57.31c0,29.39,3.39,51.38,4.38,57.2c0.15,0.89,0.92,1.53,1.82,1.53l24.18,0c1.14,0,2.01-1.01,1.83-2.14
			c-0.79-4.78-2.63-17.27-3.62-34.28C70.99,95.18,66.7,91.1,61.49,91.1z"/>
		<g>
			
				<rect x="53.53" y="29.33" transform="matrix(0.9922 0.1245 -0.1245 0.9922 4.3835 -6.715)" class="st13" width="4.76" height="4.76"/>
			
				<rect x="52.94" y="34.05" transform="matrix(0.9922 0.1245 -0.1245 0.9922 4.9666 -6.6045)" class="st13" width="4.76" height="4.76"/>
			
				<rect x="54.12" y="24.61" transform="matrix(0.9922 0.1245 -0.1245 0.9922 3.8004 -6.8255)" class="st13" width="4.76" height="4.76"/>
			
				<rect x="52.35" y="38.77" transform="matrix(0.9922 0.1245 -0.1245 0.9922 5.5497 -6.494)" class="st14" width="4.76" height="4.76"/>
			
				<rect x="58.25" y="29.92" transform="matrix(0.9922 0.1245 -0.1245 0.9922 4.494 -7.2981)" class="st15" width="4.76" height="4.76"/>
			
				<rect x="57.66" y="34.64" transform="matrix(0.9922 0.1245 -0.1245 0.9922 5.0771 -7.1876)" class="st13" width="4.76" height="4.76"/>
			
				<rect x="58.84" y="25.2" transform="matrix(0.9922 0.1245 -0.1245 0.9922 3.9109 -7.4086)" class="st13" width="4.76" height="4.76"/>
			
				<rect x="57.07" y="39.36" transform="matrix(0.9922 0.1245 -0.1245 0.9922 5.6602 -7.0771)" class="st13" width="4.76" height="4.76"/>
			
				<rect x="62.97" y="30.51" transform="matrix(0.9922 0.1245 -0.1245 0.9922 4.6045 -7.8812)" class="st13" width="4.76" height="4.76"/>
			
				<rect x="62.38" y="35.23" transform="matrix(0.9922 0.1245 -0.1245 0.9922 5.1876 -7.7707)" class="st16" width="4.76" height="4.76"/>
			
				<rect x="63.56" y="25.79" transform="matrix(0.9922 0.1245 -0.1245 0.9922 4.0214 -7.9917)" class="st17" width="4.76" height="4.76"/>
			
				<rect x="61.79" y="39.95" transform="matrix(0.9922 0.1245 -0.1245 0.9922 5.7707 -7.6602)" class="st13" width="4.76" height="4.76"/>
		</g>
		<g>
			
				<rect x="52.68" y="55.97" transform="matrix(-1 3.856409e-07 -3.856409e-07 -1 116.5336 119.0534)" class="st18" width="11.18" height="7.12"/>
			
				<rect x="51.8" y="58.68" transform="matrix(-1 3.856408e-07 -3.856408e-07 -1 110.0665 119.0534)" class="st19" width="6.47" height="1.69"/>
			<circle class="st20" cx="50.84" cy="59.53" r="2.09"/>
		</g>
		<g>
			<rect x="52.68" y="47.76" class="st18" width="11.18" height="7.12"/>
			<rect x="58.27" y="50.47" class="st19" width="6.47" height="1.69"/>
			<circle class="st1" cx="65.7" cy="51.32" r="2.09"/>
		</g>
		<g>
			<path class="st8" d="M35.39,15.76h15.1c0,0-2.52,17.86-2.52,62.31c0,36.14,2.52,62.31,2.52,62.31h-15.1
				c0,0-2.52-25.76-2.52-62.31C32.88,32.68,35.39,15.76,35.39,15.76z"/>
			<path class="st9" d="M35.39,15.76l15.1-0.05l0.06,0l-0.01,0.06c-0.62,5.16-0.96,10.35-1.27,15.54
				c-0.29,5.19-0.52,10.38-0.68,15.58c-0.34,10.39-0.46,20.79-0.45,31.18c0.02,10.4,0.24,20.79,0.65,31.18
				c0.43,10.38,1.01,20.77,1.94,31.12l0.02,0.27l-0.27,0l-15.1-0.02l-0.21,0l-0.02-0.21c-0.92-10.37-1.47-20.75-1.87-31.15
				c-0.38-10.39-0.57-20.79-0.57-31.19c0.02-10.4,0.14-20.8,0.52-31.19c0.18-5.2,0.43-10.39,0.76-15.58
				C34.34,26.1,34.72,20.91,35.39,15.76z M35.39,15.76c-0.64,5.16-0.98,10.35-1.29,15.54c-0.29,5.19-0.51,10.38-0.65,15.58
				c-0.31,10.39-0.44,20.79-0.42,31.19c0.02,10.4,0.23,20.79,0.64,31.18c0.43,10.39,1.01,20.77,1.95,31.12l-0.23-0.21l15.1-0.02
				l-0.25,0.27c-0.9-10.37-1.46-20.76-1.87-31.15c-0.39-10.39-0.58-20.79-0.58-31.19c0.01-10.4,0.16-20.8,0.52-31.19
				c0.18-5.2,0.41-10.39,0.74-15.58c0.34-5.19,0.72-10.38,1.37-15.54l0.05,0.06L35.39,15.76z"/>
		</g>
		<g>
			<g>
				<path class="st1" d="M35.01,14.11l1.94-0.31c3.75-0.6,7.6-0.6,11.35,0c0,0,1.59,0.24,1.94,0.31c1.19,0.25,2.13,0.84,2.13,1.87
					v3.74c0,1.03-0.95,1.87-2.13,1.87l-2.65-0.42c-3.28-0.53-6.65-0.53-9.93,0l-2.65,0.42c-1.18,0-2.13-0.84-2.13-1.87v-3.74
					C32.88,14.95,33.83,14.11,35.01,14.11z"/>
			</g>
			<g>
				<path class="st1" d="M50.32,142.03l-1.94,0.31c-3.75,0.6-7.6,0.6-11.35,0c0,0-1.59-0.24-1.94-0.31
					c-1.19-0.25-2.13-0.84-2.13-1.87v-3.74c0-1.03,0.95-1.87,2.13-1.87l2.65,0.42c3.28,0.53,6.65,0.53,9.93,0l2.65-0.42
					c1.18,0,2.13,0.84,2.13,1.87v3.74C52.45,141.2,51.5,142.03,50.32,142.03z"/>
			</g>
		</g>
		<g>
			<rect x="51.95" y="94.83" class="st4" width="14.12" height="10.18"/>
			<rect x="53.06" y="95.73" class="st21" width="11.9" height="0.81"/>
			<rect x="53.06" y="103.31" class="st21" width="11.9" height="0.81"/>
			<rect x="63.14" y="95.73" class="st22" width="10.96" height="0.81"/>
			<rect x="63.14" y="103.31" class="st22" width="10.96" height="0.81"/>
			<rect x="72.87" y="94.83" class="st20" width="2.46" height="10.18"/>
		</g>
		<g>
			
				<rect x="50.39" y="113.16" transform="matrix(-0.1262 -0.992 0.992 -0.1262 -50.5042 196.3248)" class="st4" width="21.65" height="14.49"/>
			<g>
				<circle class="st14" cx="58.84" cy="127.32" r="2.49"/>
				<circle class="st16" cx="65.24" cy="126.51" r="2.49"/>
				<circle class="st15" cx="58.01" cy="120.81" r="2.49"/>
				<circle class="st14" cx="64.41" cy="120" r="2.49"/>
				<circle class="st17" cx="57.18" cy="114.3" r="2.49"/>
				<circle class="st15" cx="63.58" cy="113.49" r="2.49"/>
			</g>
		</g>
		<path class="st18" d="M66.05,81.33h-9.28c-0.31,0-0.55-0.25-0.55-0.55v-5.4c0-0.31,0.25-0.55,0.55-0.55h9.28
			c0.31,0,0.55,0.25,0.55,0.55v5.4C66.6,81.08,66.35,81.33,66.05,81.33z"/>
		<g>
			<g>
				<path class="st23" d="M69.21,87.47h-3.94l0.28-1.3c0.55-2.61,0.83-5.31,0.83-8s-0.28-5.39-0.83-8l-0.28-1.3h3.94l0.28,1.3
					c0.55,2.61,0.83,5.31,0.83,8c0,2.7-0.28,5.39-0.83,8L69.21,87.47z"/>
				<path class="st0" d="M69.21,87.47l-3.94,0.04l-0.05,0l0.01-0.05c0.31-1.53,0.62-3.07,0.79-4.62c0.18-1.55,0.27-3.11,0.26-4.67
					c-0.01-1.56-0.1-3.12-0.3-4.67c-0.18-1.55-0.5-3.08-0.84-4.61l-0.03-0.15l0.16,0l3.94,0.01l0.09,0l0.02,0.09
					c0.33,1.53,0.64,3.07,0.81,4.63c0.18,1.56,0.27,3.13,0.26,4.69c-0.01,1.57-0.1,3.14-0.31,4.69
					C69.89,84.41,69.56,85.94,69.21,87.47z M69.21,87.47c0.32-1.53,0.61-3.07,0.77-4.63c0.17-1.55,0.26-3.12,0.26-4.68
					c-0.01-1.56-0.1-3.12-0.3-4.67c-0.18-1.55-0.5-3.08-0.84-4.61l0.11,0.09l-3.94,0.01l0.12-0.15c0.33,1.53,0.64,3.07,0.81,4.63
					c0.18,1.56,0.27,3.13,0.26,4.7c-0.01,1.57-0.1,3.14-0.3,4.69c-0.18,1.56-0.5,3.1-0.86,4.62l-0.04-0.05L69.21,87.47z"/>
			</g>
			<g>
				<circle class="st23" cx="67.2" cy="68.79" r="2.06"/>
				<path class="st0" d="M69.25,68.96c-0.05,1.1-1.1,2.03-2.23,1.95c-0.56-0.03-1.1-0.29-1.48-0.71c-0.37-0.43-0.57-1.01-0.52-1.58
					c0.05-0.57,0.34-1.11,0.78-1.47c0.44-0.36,1.02-0.52,1.58-0.46C68.5,66.78,69.38,67.87,69.25,68.96z M69.25,68.96
					c0.04-0.54-0.14-1.09-0.5-1.49c-0.35-0.4-0.87-0.64-1.39-0.67c-1.06-0.07-2.04,0.8-2.09,1.83c-0.12,1.02,0.7,2.05,1.76,2.15
					c0.52,0.06,1.07-0.09,1.49-0.43C68.93,70.01,69.2,69.5,69.25,68.96z"/>
			</g>
			<g>
				<circle class="st23" cx="67.2" cy="87.35" r="2.06"/>
				<path class="st0" d="M69.25,87.52c-0.05,1.1-1.1,2.03-2.23,1.95c-0.56-0.03-1.1-0.29-1.48-0.71c-0.37-0.43-0.57-1.01-0.52-1.58
					c0.05-0.57,0.34-1.11,0.78-1.47c0.44-0.36,1.02-0.52,1.58-0.46C68.5,85.34,69.38,86.43,69.25,87.52z M69.25,87.52
					c0.04-0.54-0.14-1.09-0.5-1.49c-0.35-0.4-0.87-0.64-1.39-0.67c-1.06-0.07-2.04,0.8-2.09,1.83c-0.12,1.02,0.7,2.05,1.76,2.15
					c0.52,0.06,1.07-0.09,1.49-0.43C68.93,88.57,69.2,88.06,69.25,87.52z"/>
			</g>
		</g>
	</g>
	<g>
		<g>
			<path class="st24" d="M123.38,104.9c-6.14,11.13,2.51,21.51,5.5,31.37c0.46,1.32,1.02,2.59,1.65,3.81
				c6.3,12.21,20.6,19.06,34.22,9.67c1.38,0.07,2.71,0.04,4.01-0.08c14.22-1.36,23.18-14.19,26.04-28.58
				c0.66-1.38,1.29-2.8,1.89-4.26c7.11-14.66,10.57-28.51,7.51-44.65c-0.05-1.39-0.12-2.76-0.22-4.12c-0.1-1.36-0.21-2.71-0.34-4.04
				c3.62-13.77-8.5-24.16-7.58-35.49c-0.24-1.22-0.53-2.4-0.88-3.55c-3.17-10.33-11.3-18.46-24.34-19.84
				c-1.09-0.51-2.18-0.96-3.29-1.35C164.21,2.62,160.76,2,157.22,2c-1.12,0-2.24,0.06-3.34,0.18c-1.24,0.48-2.44,1-3.62,1.55
				c-13.98,3.25-22.64,13.63-26.05,26.81c-0.22,0.95-0.41,1.9-0.57,2.86c-0.8,4.81-0.81,9.84,0.07,14.83c0,0,0.36,2.98,0.75,7.77
				c0.1,1.2,0.2,2.51,0.25,3.91c-2.27,11.12-4,21.5,0.34,31.63c0.02,0.96-0.03,1.91-0.1,2.85c-0.07,0.94-0.16,1.87-0.25,2.79
				c-0.09,0.89-0.19,1.77-0.3,2.64c-0.11,0.87-0.25,1.73-0.42,2.58C123.79,103.24,123.6,104.08,123.38,104.9z"/>
			<path class="st25" d="M123.61,104.99c-1.59,2.86-2.31,6.06-2.1,9.27c0.2,3.21,1.19,6.33,2.4,9.32c1.21,3.01,2.64,5.92,3.88,8.94
				c0.3,0.76,0.6,1.52,0.87,2.29c0.28,0.78,0.49,1.55,0.79,2.29c0.58,1.5,1.3,2.95,2.12,4.34c3.25,5.53,8.48,10.07,14.72,11.74
				c3.1,0.84,6.4,0.92,9.54,0.25c3.15-0.66,6.11-2.08,8.77-3.88v0l0.08-0.05l0.08,0.01c3.74,0.37,7.6-0.17,11.11-1.62
				c3.53-1.42,6.6-3.8,9.16-6.58c2.58-2.78,4.52-6.09,6.06-9.52c1.53-3.45,2.59-7.09,3.26-10.79l0.01-0.05l0.03-0.06
				c0.43-0.96,0.86-1.92,1.27-2.89l0.61-1.47l0.66-1.44c0.89-1.93,1.71-3.86,2.47-5.82c1.55-3.91,2.9-7.9,3.8-12
				c0.92-4.09,1.44-8.27,1.56-12.46c0.12-4.2-0.25-8.4-0.95-12.55l-0.01-0.03l0-0.03l-0.15-4.08l-0.26-4.08v0l0-0.05l0.01-0.04
				c0.85-2.93,1-6.05,0.49-9.08c-0.47-3.04-1.55-5.95-2.73-8.79c-1.17-2.85-2.54-5.61-3.6-8.51c-1.08-2.87-1.89-5.92-1.75-9.07v0
				l0,0.07c-0.58-3.01-1.56-5.95-2.98-8.66c-1.4-2.72-3.27-5.2-5.49-7.3c-2.23-2.09-4.84-3.77-7.66-4.98
				c-2.81-1.21-5.83-1.93-8.87-2.25l0,0l-0.04-0.01l-0.04-0.02c-2.61-1.22-5.37-2.14-8.21-2.64c-2.83-0.5-5.74-0.6-8.6-0.28
				l0.07-0.02c-1.22,0.47-2.42,0.99-3.6,1.55L150.35,4L150.32,4c-5.55,1.29-10.81,3.93-15,7.8c-4.21,3.85-7.32,8.81-9.32,14.14
				c-2.07,5.33-2.83,11.09-2.56,16.79c0.07,1.42,0.21,2.84,0.42,4.25c0.26,1.41,0.37,2.88,0.53,4.29l0.4,4.3l0.28,4.32l0,0.04
				l-0.01,0.05c-1.06,5.24-2.06,10.52-2.27,15.84c-0.1,2.66-0.03,5.32,0.38,7.95c0.4,2.62,1.11,5.2,2.1,7.67l0,0l0.02,0.05l0,0.04
				c0.03,1.14-0.04,2.28-0.15,3.4c-0.1,1.12-0.19,2.25-0.33,3.37c-0.12,1.12-0.25,2.24-0.45,3.36
				C124.17,102.76,123.86,103.88,123.61,104.99z M123.14,104.81c0.23-1.08,0.53-2.14,0.72-3.24c0.2-1.1,0.32-2.21,0.45-3.33
				c0.14-1.11,0.22-2.23,0.33-3.35c0.1-1.12,0.17-2.23,0.15-3.34l0.02,0.09l0,0c-1.12-2.46-1.9-5.08-2.32-7.75
				c-0.44-2.67-0.57-5.39-0.47-8.09c0.22-5.4,1.25-10.71,2.32-15.96l-0.01,0.09l-0.27-4.28l-0.38-4.29
				c-0.15-1.44-0.26-2.84-0.51-4.26c-0.21-1.43-0.35-2.88-0.42-4.32c-0.26-5.77,0.54-11.65,2.65-17.05
				c2.05-5.41,5.22-10.44,9.52-14.36c4.28-3.93,9.64-6.61,15.28-7.9l-0.05,0.02c1.2-0.56,2.41-1.08,3.64-1.55l0.03-0.01l0.03,0
				c2.91-0.32,5.87-0.22,8.75,0.3c2.88,0.52,5.68,1.46,8.32,2.7l-0.08-0.02l0,0c3.09,0.33,6.15,1.06,9.02,2.29
				c2.86,1.22,5.53,2.94,7.8,5.07c2.27,2.14,4.17,4.67,5.59,7.43c1.44,2.76,2.44,5.75,3.02,8.8l0.01,0.03l0,0.03l0,0
				c-0.35,3.03,0.32,6.11,1.33,9c1.04,2.9,2.33,5.7,3.55,8.53c1.21,2.83,2.27,5.74,2.85,8.77c0.57,3.03,0.57,6.2-0.15,9.23
				l0.01-0.09v0l0.43,4.08l0.28,4.09l-0.01-0.06c0.87,4.17,1.27,8.44,1.24,12.71c-0.02,4.27-0.56,8.54-1.49,12.7
				c-0.92,4.17-2.26,8.24-3.85,12.18c-0.81,1.97-1.68,3.92-2.6,5.82l-0.69,1.43l-0.63,1.45c-0.43,0.97-0.88,1.94-1.36,2.89
				l0.04-0.11c-0.82,3.74-2.05,7.38-3.72,10.81c-1.66,3.43-3.82,6.62-6.41,9.4c-2.6,2.77-5.74,5.04-9.24,6.51
				c-3.5,1.48-7.32,2.15-11.14,2.1l0.15-0.04l0,0c-2.7,1.84-5.72,3.29-8.95,3.96c-3.22,0.69-6.6,0.6-9.77-0.26
				c-6.4-1.71-11.72-6.34-15.02-11.96c-0.83-1.41-1.56-2.88-2.15-4.41c-0.31-0.76-0.53-1.56-0.8-2.31
				c-0.26-0.76-0.56-1.52-0.86-2.27c-1.22-3-2.66-5.92-3.88-8.95c-1.22-3.02-2.23-6.18-2.43-9.48
				C120.78,111.02,121.56,107.63,123.14,104.81z"/>
		</g>
		<g>
			<defs>
				<path id="SVGID_3_" d="M150.87,63.79c0,0,5.61,2.16,10.36-2.16c4.75-4.32,8.2,2.7,8.2,2.7s-0.65,3.99,5.83,4.64
					s2.59,7.12,2.59,7.12s5.55,3.02,1.16,7.77s-10.87,1.51-10.65,7.77c0.22,6.26-8.85,4.74-11,1.29s-6.47-2.37-6.47-2.37
					s-6.47-1.29-4.75-8.63c1.73-7.34,1.73-7.34,1.73-7.34S142.41,64.57,150.87,63.79z"/>
			</defs>
			<clipPath id="SVGID_1_">
				<use xlink:href="#SVGID_3_"  style="overflow:visible;"/>
			</clipPath>
			<path class="st26" d="M150.87,63.79c0,0,5.61,2.16,10.36-2.16c4.75-4.32,8.2,2.7,8.2,2.7s-0.65,3.99,5.83,4.64
				s2.59,7.12,2.59,7.12s5.55,3.02,1.16,7.77s-10.87,1.51-10.65,7.77c0.22,6.26-8.85,4.74-11,1.29s-6.47-2.37-6.47-2.37
				s-6.47-1.29-4.75-8.63c1.73-7.34,1.73-7.34,1.73-7.34S142.41,64.57,150.87,63.79z"/>
			<polyline class="st27" points="169.43,64.33 163.26,78.07 188.96,74.58 			"/>
			<polyline class="st27" points="173.96,86.66 163.26,78.07 168.61,92.92 			"/>
			<polyline class="st27" points="157.34,92.92 163.26,78.07 150.87,90.55 			"/>
			<polyline class="st27" points="146.12,81.92 163.26,78.07 147.85,74.58 			"/>
			<polyline class="st27" points="150.87,63.79 163.26,78.07 161.23,61.63 			"/>
			<g class="st28">
				<path class="st29" d="M150.9,63.54c1.74,0.57,3.48,0.67,5.21,0.37c1.72-0.31,3.34-1.08,4.66-2.22c0.66-0.58,1.4-1.21,2.31-1.5
					c0.89-0.32,1.93-0.27,2.79,0.11c0.87,0.37,1.6,0.98,2.21,1.66c0.61,0.69,1.13,1.43,1.56,2.25l0,0l0.02,0.04l0,0.12
					c0.01,0.66,0.26,1.35,0.66,1.85c0.4,0.52,0.95,0.91,1.56,1.18c0.63,0.24,1.27,0.46,1.97,0.54c0.34,0.07,0.69,0.09,1.04,0.11
					c0.33,0.02,0.73,0.05,1.16,0.09c0.83,0.09,1.73,0.38,2.46,1.05c0.74,0.66,1.14,1.66,1.17,2.55c0.01,1.8-0.75,3.21-1.63,4.48l0,0
					l-0.09-0.35c0.9,0.45,1.68,1.07,2.31,1.89c0.62,0.8,1.04,1.88,0.93,2.98c-0.09,1.09-0.59,2.06-1.19,2.88
					c-0.6,0.82-1.33,1.55-2.17,2.14c-1.69,1.19-3.72,1.67-5.51,2.11c-0.89,0.23-1.74,0.5-2.3,0.96c-0.56,0.44-0.83,1.13-0.9,1.97
					c-0.05,0.41-0.01,0.82-0.03,1.4c-0.05,0.54-0.13,1.09-0.35,1.62c-0.42,1.07-1.35,1.95-2.38,2.34c-2.08,0.8-4.2,0.42-6.06-0.31
					c-0.93-0.39-1.82-0.91-2.58-1.62c-0.19-0.19-0.37-0.38-0.53-0.59c-0.16-0.21-0.32-0.46-0.42-0.62
					c-0.24-0.36-0.51-0.69-0.83-0.98c-1.27-1.18-3.24-1.5-5.02-1.24l0,0l-0.06,0.01l-0.05-0.01c-1.57-0.39-3.02-1.26-4-2.56
					c-0.99-1.3-1.34-2.99-1.22-4.57c0.05-0.79,0.22-1.59,0.4-2.33l0.53-2.27l1.07-4.54v0l0.02,0.18c-0.76-0.95-1.32-2-1.76-3.14
					c-0.41-1.14-0.7-2.37-0.62-3.7c0.05-0.66,0.17-1.35,0.49-1.99c0.3-0.65,0.8-1.21,1.38-1.61c0.58-0.4,1.22-0.65,1.86-0.74
					c0.31-0.07,0.64-0.06,0.95-0.08C150.25,63.45,150.61,63.49,150.9,63.54z M150.84,64.04c-0.97,0.46-2.05,0.88-2.67,1.54
					c-0.64,0.64-1.01,1.43-1.11,2.44c-0.1,0.99,0.01,2.07,0.21,3.15c0.2,1.09,0.49,2.19,0.8,3.3l0.04,0.14l-0.02,0.03l0,0
					l-1.07,4.54l-0.53,2.27c-0.19,0.76-0.34,1.49-0.39,2.25c-0.11,1.5,0.21,3.05,1.12,4.24c0.89,1.19,2.27,2.01,3.7,2.37l-0.11,0
					l0,0c1.89-0.49,4.08-0.3,5.76,1c0.41,0.32,0.77,0.7,1.07,1.12c0.16,0.23,0.26,0.38,0.4,0.54c0.13,0.16,0.29,0.31,0.44,0.45
					c0.65,0.56,1.44,0.99,2.27,1.29c1.65,0.59,3.57,0.76,5.06,0.13c0.74-0.31,1.27-0.86,1.54-1.56c0.14-0.35,0.2-0.75,0.23-1.15
					c0.02-0.37-0.03-0.91,0.03-1.45c0.05-0.53,0.14-1.08,0.37-1.62c0.23-0.54,0.6-1.05,1.06-1.42c0.93-0.75,1.97-0.99,2.9-1.24
					c1.88-0.46,3.64-0.82,5.12-1.79c0.74-0.46,1.41-1.05,1.97-1.73c0.56-0.67,0.99-1.44,1.11-2.25c0.12-0.8-0.07-1.65-0.54-2.39
					c-0.46-0.74-1.14-1.4-1.87-1.91l-0.23-0.16l0.13-0.19l0,0c0.53-1.33,0.88-2.84,0.62-4.05c-0.27-1.24-1.27-1.55-2.52-1.93
					l-1.06-0.22c-0.39-0.08-0.78-0.15-1.16-0.28c-0.77-0.2-1.53-0.55-2.23-0.97c-0.69-0.45-1.32-1.06-1.71-1.8
					c-0.39-0.75-0.54-1.58-0.39-2.41l0.02,0.15l0,0c-0.82-1.5-1.97-2.98-3.52-3.67c-0.77-0.34-1.64-0.38-2.44-0.1
					c-0.81,0.26-1.47,0.81-2.15,1.4c-1.38,1.19-3.09,2.01-4.9,2.33C154.42,64.73,152.49,64.6,150.84,64.04z"/>
			</g>
		</g>
	</g>
	<g>
		<g>
			<path class="st30" d="M67.52,64.01c0,0-3.4-0.14-4.96,2.35c-1.56,2.49,0.81,8.1,5.45,7.27c0,0,1.2-0.05,1.09-1.25
				c-0.1-1.19-1.09-1.28-1.09-1.28s-2.4,0.1-2.42-1.91c-0.02-2,1.99-2.12,1.99-2.12s1.86,0.13,1.89,2.05c0,0.39-0.17,0.92-0.38,1.25
				c-0.15,0.24-0.9,0.72-0.9,0.72s0.6,0.38,0.85,1c0.21,0.51,0.21,1.15,0.56,1.14c2.64-0.09,5-3.42,5-3.42l-0.28-5.11L67.52,64.01z"
				/>
			<path class="st31" d="M67.52,64.01c-1.39,0.01-2.82,0.38-3.93,1.24c-0.54,0.44-1,0.99-1.25,1.64c-0.24,0.66-0.25,1.37-0.15,2.06
				c0.09,0.69,0.32,1.36,0.66,1.97c0.32,0.61,0.76,1.17,1.29,1.61c1.03,0.94,2.51,1.26,3.87,1.03l0,0l0.01,0
				c0.28-0.03,0.58-0.14,0.77-0.34c0.2-0.2,0.26-0.5,0.24-0.79c-0.02-0.29-0.11-0.58-0.29-0.81c-0.18-0.22-0.45-0.37-0.72-0.41
				l0.01,0c-0.58,0-1.16-0.1-1.66-0.41c-0.25-0.15-0.47-0.37-0.62-0.62c-0.14-0.26-0.23-0.55-0.24-0.85
				c-0.05-0.57,0.11-1.2,0.52-1.64c0.41-0.44,0.98-0.67,1.57-0.73l0.01,0l0.01,0c0.49,0.06,0.95,0.25,1.33,0.57
				c0.37,0.33,0.59,0.81,0.64,1.29c0.08,0.48-0.06,0.98-0.26,1.4c-0.22,0.48-0.68,0.69-1.05,0.96l0-0.16
				c0.32,0.22,0.59,0.5,0.79,0.84c0.2,0.34,0.24,0.74,0.36,1.07c0.07,0.18,0.12,0.26,0.33,0.21c0.18-0.02,0.36-0.02,0.54-0.08
				c0.35-0.08,0.7-0.2,1.03-0.37c1.31-0.67,2.39-1.74,3.28-2.91l-0.01,0.04l-0.25-5.11l0.03,0.03L67.52,64.01z M67.52,64.01
				l6.81,0.66l0.03,0l0,0.03l0.3,5.1l0,0.02l-0.01,0.02c-0.89,1.19-1.96,2.28-3.3,2.98c-0.33,0.17-0.69,0.31-1.06,0.39
				c-0.18,0.06-0.37,0.06-0.56,0.09c-0.08,0.01-0.22,0.03-0.32-0.05c-0.1-0.08-0.14-0.18-0.18-0.27c-0.13-0.37-0.17-0.73-0.36-1.04
				c-0.18-0.3-0.44-0.57-0.73-0.77l-0.12-0.08l0.12-0.09c0.36-0.26,0.81-0.5,0.97-0.89c0.19-0.41,0.31-0.84,0.23-1.29
				c-0.05-0.44-0.25-0.85-0.58-1.14c-0.32-0.28-0.76-0.45-1.19-0.5l0.02,0c-0.51,0.06-1.06,0.26-1.41,0.64
				c-0.36,0.38-0.51,0.93-0.47,1.46c0.01,0.54,0.29,1.03,0.75,1.31c0.45,0.28,1.01,0.39,1.55,0.39l0.01,0l0,0
				c0.34,0.05,0.64,0.23,0.85,0.49c0.2,0.26,0.3,0.59,0.32,0.91c0.02,0.32-0.05,0.68-0.29,0.92c-0.24,0.24-0.56,0.36-0.88,0.39
				l0.01,0c-1.39,0.23-2.92-0.12-3.97-1.09c-0.54-0.46-0.98-1.03-1.3-1.66c-0.34-0.62-0.56-1.3-0.65-2
				c-0.09-0.69-0.07-1.42,0.17-2.09c0.26-0.66,0.73-1.21,1.28-1.65C64.69,64.36,66.13,64.01,67.52,64.01z"/>
		</g>
		<g>
			<path class="st30" d="M67.36,92.83c0,0-3.4,0.14-4.96-2.35c-1.56-2.49,0.81-8.1,5.45-7.27c0,0,1.2,0.05,1.09,1.25
				c-0.1,1.19-1.09,1.28-1.09,1.28s-2.4-0.1-2.42,1.91c-0.02,2,1.99,2.12,1.99,2.12s1.86-0.13,1.89-2.05c0-0.39-0.17-0.92-0.38-1.25
				c-0.15-0.24-0.9-0.72-0.9-0.72s0.6-0.38,0.85-1c0.21-0.51,0.21-1.15,0.56-1.14c2.64,0.09,5,3.42,5,3.42l-0.28,5.11L67.36,92.83z"
				/>
			<path class="st31" d="M67.36,92.83c-1.39,0-2.83-0.35-3.95-1.21c-0.55-0.44-1.02-0.99-1.28-1.65c-0.25-0.67-0.27-1.39-0.17-2.09
				c0.09-0.7,0.31-1.38,0.65-2c0.32-0.63,0.76-1.2,1.3-1.66c1.05-0.98,2.58-1.32,3.97-1.09l-0.01,0c0.33,0.03,0.65,0.14,0.88,0.39
				c0.24,0.24,0.31,0.6,0.29,0.92c-0.02,0.32-0.12,0.64-0.32,0.91c-0.21,0.26-0.5,0.44-0.85,0.49l0,0l-0.01,0
				c-0.53,0-1.1,0.11-1.55,0.39c-0.46,0.27-0.73,0.77-0.75,1.31c-0.04,0.53,0.11,1.08,0.47,1.46c0.35,0.39,0.9,0.59,1.41,0.64
				l-0.02,0c0.42-0.05,0.86-0.22,1.19-0.5c0.32-0.29,0.53-0.7,0.58-1.14c0.08-0.44-0.04-0.88-0.23-1.29
				c-0.16-0.39-0.61-0.62-0.97-0.89l-0.12-0.09l0.12-0.08c0.29-0.2,0.55-0.46,0.73-0.77c0.18-0.3,0.23-0.67,0.36-1.04
				c0.04-0.09,0.08-0.19,0.18-0.27c0.11-0.09,0.25-0.06,0.32-0.05c0.19,0.02,0.38,0.03,0.56,0.09c0.37,0.08,0.73,0.22,1.06,0.39
				c1.34,0.7,2.41,1.79,3.3,2.98l0.01,0.02l0,0.02l-0.3,5.1l0,0.03l-0.03,0L67.36,92.83z M67.36,92.83l6.8-0.72l-0.03,0.03
				l0.25-5.11l0.01,0.04c-0.89-1.17-1.97-2.24-3.28-2.91c-0.33-0.17-0.67-0.3-1.03-0.37c-0.17-0.05-0.36-0.06-0.54-0.08
				c-0.2-0.05-0.25,0.04-0.33,0.21c-0.12,0.33-0.16,0.72-0.36,1.07c-0.19,0.34-0.46,0.62-0.79,0.84l0-0.16
				c0.37,0.27,0.83,0.48,1.05,0.96c0.21,0.42,0.34,0.92,0.26,1.4c-0.05,0.48-0.28,0.96-0.64,1.29c-0.37,0.33-0.83,0.51-1.33,0.57
				l-0.01,0l-0.01,0c-0.59-0.06-1.16-0.29-1.57-0.73c-0.41-0.44-0.57-1.06-0.52-1.64c0.01-0.29,0.1-0.58,0.24-0.85
				c0.16-0.26,0.37-0.47,0.62-0.62c0.51-0.3,1.09-0.41,1.66-0.41l-0.01,0c0.27-0.04,0.54-0.19,0.72-0.41
				c0.17-0.23,0.27-0.51,0.29-0.81c0.02-0.29-0.04-0.59-0.24-0.79c-0.19-0.21-0.49-0.32-0.77-0.34l-0.01,0l0,0
				c-1.35-0.24-2.83,0.08-3.87,1.03c-0.53,0.44-0.97,1-1.29,1.61c-0.34,0.61-0.57,1.28-0.66,1.97c-0.1,0.68-0.09,1.4,0.15,2.06
				c0.25,0.65,0.71,1.2,1.25,1.64C64.54,92.45,65.97,92.82,67.36,92.83z"/>
		</g>
		<path class="st32" d="M122.71,67.54c0,0-5.38-10.95-19.8-11.97S74.7,60.88,76.24,79.41s15.91,25.92,26.68,24.92
			s18.75-13.13,18.75-13.13L122.71,67.54z"/>
		<g>
			<path class="st33" d="M122.71,89.46c0,0-4.35,15.8-18.65,18.36S71.52,94.63,71.52,94.63l6.89-6.35c0,0,10.03,5.36,18.7,6.9"/>
			<path class="st6" d="M122.71,89.46c-0.76,2.54-1.87,4.97-3.25,7.24c-1.37,2.27-3.04,4.38-5.03,6.15c-0.51,0.42-1,0.88-1.54,1.27
				l-1.65,1.13c-1.17,0.64-2.33,1.3-3.61,1.72l-0.93,0.36l-0.97,0.24c-0.65,0.15-1.29,0.35-1.95,0.45c-1.32,0.24-2.66,0.26-4,0.23
				c-2.67-0.13-5.3-0.69-7.83-1.52c-2.54-0.82-4.98-1.89-7.35-3.11c-4.71-2.48-9.13-5.47-13.21-8.87l-0.16-0.14l0.16-0.15l6.92-6.33
				l0.08-0.07l0.1,0.05c2.94,1.55,5.99,2.9,9.08,4.13c3.1,1.22,6.27,2.26,9.55,2.9c-3.29-0.57-6.49-1.55-9.62-2.7
				c-3.13-1.17-6.18-2.53-9.15-4.06l0.18-0.02l-6.87,6.38l0-0.28c4.08,3.34,8.51,6.3,13.19,8.72c4.67,2.39,9.7,4.38,14.97,4.67
				c1.31,0.04,2.63,0.03,3.92-0.19c0.65-0.09,1.28-0.29,1.92-0.43l0.96-0.23l0.92-0.35c1.25-0.41,2.41-1.05,3.56-1.67l1.64-1.1
				c0.54-0.38,1.02-0.83,1.53-1.25C118.16,99.12,121.07,94.48,122.71,89.46z"/>
		</g>
		<path class="st21" d="M81.75,65.48c0,0-6.05,8.22,0,24.44l2.22,1c0,0-5.85-15,0-26.22L81.75,65.48z"/>
		<path class="st34" d="M78.21,72.91v9.25h4.48v-9.25H78.21z M81.78,80.86h-2.65V74.2h2.65V80.86z"/>
		<g>
			<path class="st33" d="M122.71,67.54c0,0-4.35-15.8-18.65-18.36c-14.3-2.55-33.93,12-33.93,12l6.89,6.35
				c0,0,10.72-5.12,19.39-6.65"/>
			<path class="st6" d="M122.71,67.54c-1.67-5.08-4.62-9.77-8.6-13.3c-3.97-3.56-9.37-5.42-14.67-5.1c-0.33,0.01-0.66,0.01-1,0.04
				l-0.99,0.13c-0.66,0.1-1.32,0.16-1.97,0.28c-1.3,0.31-2.61,0.53-3.88,0.96c-2.57,0.71-5.04,1.76-7.48,2.82
				c-4.85,2.22-9.53,4.88-13.88,7.96l0.02-0.29l6.87,6.38l-0.17-0.03c3.12-1.43,6.3-2.73,9.54-3.86c3.24-1.11,6.55-2.07,9.92-2.66
				c-3.37,0.65-6.64,1.68-9.85,2.86c-3.21,1.19-6.38,2.48-9.47,3.94L77,67.72l-0.08-0.07l-6.92-6.33l-0.17-0.16l0.19-0.13
				c4.36-3.14,9.03-5.84,13.9-8.11c2.46-1.08,4.96-2.1,7.56-2.8c1.28-0.42,2.61-0.64,3.93-0.94c0.66-0.12,1.34-0.18,2-0.27l1-0.13
				c0.34-0.02,0.67-0.02,1.01-0.03c5.4-0.29,10.88,1.65,14.87,5.28c2.03,1.78,3.73,3.9,5.12,6.19
				C120.82,62.51,121.95,64.97,122.71,67.54z"/>
		</g>
		<g>
			<g>
				<path class="st35" d="M127.24,79.58c0,4.43-2.9,8.29-7.17,10.29c-0.17,0.08-0.34,0.16-0.52,0.23c-0.71,1.01-1.77,0.81-2.69,0.65
					c-0.15-0.03-0.3-0.05-0.45-0.06c-0.11,0.14-0.22,0.27-0.34,0.39c-0.12,0.12-0.24,0.22-0.36,0.31c-0.2,1.08-1.01,0.9-1.97,0.63
					c-0.16-0.05-0.33-0.09-0.5-0.13c-0.12,0.04-0.28,0.07-0.47,0.09c-0.1,0.01-0.2,0.03-0.32,0.04c-0.14,0.01-0.28,0.02-0.42,0.04
					c-0.97,1.48-3.81,1.48-4.74-0.23c-0.11-0.03-0.22-0.07-0.32-0.12c-0.52-0.22-0.98-0.55-1.41-1.06
					c-0.11-0.03-0.23-0.06-0.34-0.07c-0.11-0.07-0.21-0.14-0.32-0.23c-0.51-0.42-0.94-1.04-1.3-1.59c-0.09-0.13-0.17-0.26-0.25-0.38
					c-2.22,0.89-2.22-1.95-3.43-2.96c-0.11-0.06-0.21-0.12-0.29-0.19c-0.34-0.28-0.44-0.73-0.07-1.52c-0.1-0.09-0.2-0.19-0.28-0.29
					c-0.42-0.51-0.59-1.21-0.2-2.6c-0.06-0.08-0.12-0.16-0.17-0.23c-0.69-0.93-1.26-1.72-0.14-2.44c-0.04-0.15-0.07-0.3-0.09-0.45
					c-0.11-0.9,0.28-1.74,1.24-2.57c0.01-0.14,0.02-0.29,0.03-0.44c0.1-1.19,0.74-2.48,2.66-2.58c-0.04-0.11-0.08-0.22-0.08-0.32
					c-1.03-2.26,2.9-1.05,3.46-3.09c0.14-0.09,0.28-0.17,0.42-0.23c1.01-0.48,2.18-0.5,2.67-0.54c0.15-0.05,0.3-0.07,0.44-0.08
					c1.02-0.03,2.08,0.84,3.31-0.86c0.18-0.07,0.37-0.12,0.56-0.17c0.95-0.21,1.94-0.11,1.95,0.54c0.26,0.16,0.51,0.31,0.77,0.42
					c0.26,0.11,0.51,0.19,0.77,0.18c0.18,0,0.36-0.01,0.54-0.01c0.1,0,0.2-0.01,0.3-0.01c0.7-0.02,1.38-0.07,1.88-0.14
					c0.17,0.02,0.32,0.05,0.46,0.1c1.09,0.4,1.38,1.92,2.27,2.7c0.15,0.11,0.3,0.22,0.44,0.33
					C125.51,73.08,127.24,76.16,127.24,79.58z"/>
				<path class="st31" d="M127.24,79.58c0.01,2.31-0.82,4.59-2.23,6.41c-1.4,1.84-3.33,3.23-5.45,4.14l0.02-0.01
					c-0.32,0.49-0.9,0.79-1.48,0.8c-0.58,0.02-1.14-0.12-1.7-0.18l0.04-0.02l-0.33,0.38c-0.12,0.11-0.25,0.22-0.38,0.33l0.02-0.03
					c-0.04,0.25-0.14,0.51-0.34,0.68c-0.21,0.18-0.49,0.21-0.74,0.19c-0.51-0.04-0.98-0.22-1.45-0.33l0.03,0
					c-0.41,0.09-0.82,0.14-1.22,0.18l0.04-0.03c-0.54,0.81-1.56,1.15-2.49,1.12c-0.93-0.03-1.91-0.48-2.38-1.34l0.04,0.04
					c-0.34-0.11-0.68-0.26-0.97-0.47c-0.3-0.2-0.56-0.46-0.8-0.73l0.04,0.03l-0.33-0.06l-0.03-0.01l-0.01-0.01
					c-0.86-0.54-1.37-1.42-1.9-2.21l0.11,0.03c-0.4,0.15-0.87,0.25-1.31,0.08c-0.44-0.17-0.71-0.56-0.93-0.92
					c-0.43-0.74-0.69-1.59-1.3-2.12l0.02,0.01c-0.14-0.1-0.31-0.17-0.43-0.32c-0.13-0.14-0.2-0.33-0.22-0.51
					c-0.03-0.37,0.1-0.71,0.23-1.02l0.03,0.13c-0.19-0.19-0.39-0.38-0.52-0.63c-0.13-0.25-0.2-0.52-0.22-0.79
					c-0.04-0.55,0.08-1.07,0.21-1.58l0.02,0.1c-0.31-0.43-0.67-0.83-0.88-1.36c-0.11-0.26-0.13-0.6,0.01-0.87
					c0.14-0.27,0.37-0.46,0.6-0.61l-0.05,0.13c-0.06-0.29-0.13-0.58-0.11-0.89c0.01-0.3,0.09-0.6,0.21-0.87
					c0.24-0.55,0.65-1,1.09-1.38l-0.04,0.07c0.03-0.37,0.05-0.76,0.16-1.14c0.11-0.37,0.29-0.74,0.54-1.04
					c0.52-0.62,1.33-0.89,2.09-0.92l-0.09,0.13l-0.08-0.35l0.01,0.04c-0.08-0.22-0.17-0.43-0.17-0.68c0-0.24,0.11-0.51,0.31-0.65
					c0.39-0.29,0.85-0.36,1.28-0.48c0.43-0.11,0.86-0.22,1.24-0.42c0.38-0.19,0.69-0.52,0.81-0.93l0.01-0.03l0.03-0.01
					c0.24-0.13,0.48-0.28,0.74-0.37c0.26-0.1,0.52-0.17,0.79-0.23c0.53-0.12,1.08-0.15,1.61-0.19l-0.02,0
					c0.18-0.03,0.36-0.08,0.54-0.08c0.18,0,0.36,0.03,0.53,0.06c0.34,0.06,0.68,0.15,1.02,0.14c0.34,0,0.66-0.11,0.94-0.3
					c0.28-0.19,0.5-0.45,0.71-0.72l0.01-0.02l0.02-0.01c0.46-0.15,0.93-0.27,1.42-0.26c0.24,0,0.49,0.03,0.72,0.12
					c0.23,0.08,0.45,0.31,0.45,0.58l-0.03-0.04c0.32,0.16,0.63,0.38,0.96,0.5c0.34,0.14,0.7,0.09,1.07,0.09
					c0.73-0.02,1.46-0.1,2.19-0.15l0.01,0l0,0c0.17,0.04,0.34,0.07,0.5,0.12c0.16,0.07,0.31,0.15,0.44,0.27
					c0.27,0.22,0.47,0.5,0.65,0.79c0.36,0.57,0.65,1.19,1.15,1.65l0,0c1.44,1.04,2.69,2.37,3.56,3.92
					C126.76,76.04,127.25,77.81,127.24,79.58z M127.24,79.58c0-1.78-0.5-3.54-1.38-5.08c-0.88-1.54-2.13-2.85-3.57-3.88l0,0
					c-0.51-0.46-0.81-1.09-1.17-1.65c-0.18-0.28-0.38-0.56-0.64-0.76c-0.12-0.11-0.27-0.19-0.42-0.25
					c-0.16-0.05-0.32-0.07-0.48-0.11l0.01,0c-0.73,0.05-1.47,0.13-2.2,0.16c-0.36,0-0.75,0.06-1.11-0.08
					c-0.35-0.13-0.66-0.34-0.99-0.51l-0.03-0.01l0-0.03c0-0.22-0.17-0.4-0.38-0.48c-0.21-0.08-0.45-0.11-0.68-0.11
					c-0.47-0.01-0.93,0.12-1.37,0.27l0.03-0.02c-0.21,0.28-0.44,0.55-0.74,0.76c-0.29,0.21-0.65,0.32-1.01,0.33
					c-0.36,0.01-0.7-0.08-1.04-0.14c-0.17-0.03-0.34-0.06-0.5-0.05c-0.17,0-0.33,0.05-0.49,0.07l-0.02,0
					c-0.54,0.04-1.07,0.08-1.59,0.19c-0.26,0.06-0.51,0.13-0.76,0.22c-0.25,0.09-0.47,0.23-0.7,0.35l0.03-0.05
					c-0.12,0.46-0.47,0.83-0.88,1.04c-0.41,0.22-0.85,0.33-1.28,0.44c-0.42,0.11-0.88,0.2-1.2,0.45c-0.36,0.24-0.25,0.73-0.08,1.1
					l0.01,0.04l0.07,0.29l0.03,0.12l-0.12,0.01c-0.73,0.04-1.48,0.29-1.94,0.86c-0.23,0.28-0.39,0.61-0.49,0.96
					c-0.1,0.35-0.12,0.72-0.15,1.1l0,0.04l-0.04,0.03c-0.42,0.37-0.81,0.8-1.02,1.3c-0.11,0.25-0.17,0.52-0.18,0.79
					c-0.02,0.27,0.05,0.54,0.1,0.81l0.02,0.09l-0.07,0.05c-0.21,0.14-0.41,0.31-0.51,0.51c-0.1,0.21-0.09,0.45,0.01,0.68
					c0.19,0.46,0.53,0.88,0.85,1.31l0.03,0.05l-0.02,0.06c-0.13,0.49-0.24,1-0.21,1.5c0.02,0.25,0.08,0.49,0.19,0.7
					c0.11,0.22,0.29,0.39,0.47,0.57l0.06,0.06l-0.03,0.07c-0.13,0.29-0.24,0.61-0.22,0.9c0.01,0.15,0.07,0.28,0.16,0.39
					c0.09,0.11,0.24,0.18,0.37,0.27l0.02,0.01c0.68,0.61,0.92,1.47,1.34,2.19c0.21,0.35,0.46,0.7,0.83,0.85
					c0.36,0.15,0.78,0.07,1.17-0.07l0.07-0.03l0.04,0.06c0.53,0.8,1.04,1.66,1.84,2.17l-0.04-0.01l0.36,0.07l0.02,0l0.02,0.02
					c0.44,0.54,1.02,0.95,1.69,1.15l0.03,0.01l0.01,0.03c0.43,0.8,1.35,1.24,2.25,1.27c0.89,0.04,1.86-0.29,2.38-1.05l0.02-0.02
					l0.03,0c0.41-0.04,0.81-0.08,1.2-0.17l0.02,0l0.01,0c0.49,0.11,0.95,0.29,1.44,0.34c0.24,0.02,0.49-0.01,0.66-0.16
					c0.18-0.15,0.26-0.39,0.31-0.62l0-0.02l0.02-0.01l0.37-0.32l0.33-0.37l0.02-0.02l0.02,0c0.57,0.07,1.12,0.21,1.69,0.19
					c0.56-0.01,1.11-0.28,1.42-0.76l0.01-0.01l0.01,0c2.11-0.89,4.04-2.27,5.45-4.1C126.39,84.16,127.24,81.89,127.24,79.58z"/>
			</g>
			<path class="st36" d="M121.2,79.41c0,5.15-3.4,9.32-7.6,9.32c-0.5,0-0.98-0.06-1.45-0.17c-0.16-0.04-0.31-0.08-0.46-0.13
				c0.71-3.4-3.55-0.56-3.51-3.6c-0.05-0.14-0.11-0.27-0.17-0.4c-0.3-0.64-0.74-1.17-1.61-1.51c-0.06-0.14-0.1-0.3-0.1-0.46
				c-0.06-1.32,1.42-3.21-0.28-3.59c0.01-0.18,0.02-0.35,0.03-0.52c0.02-0.17,0.04-0.35,0.06-0.52c-0.8-1.32,3.45-2.74,1.79-4.58
				c-0.1-0.2-0.16-0.37-0.18-0.5c-0.3-1.48,3.32,0.65,3.87-2.33c0.16-0.06,0.32-0.11,0.49-0.15c0.49-0.12,1.01-0.19,1.53-0.19
				C117.8,70.09,121.2,74.27,121.2,79.41z"/>
			<g>
				<path class="st37" d="M107.33,81.09c-0.45,0.2-0.98,0.31-1.54,0.31c-1.59,0-2.87-0.89-2.87-1.99c0-1.1,1.29-1.99,2.87-1.99
					c0.57,0,1.09,0.11,1.54,0.31"/>
				<path class="st38" d="M107.33,81.09c-0.82,0.41-1.79,0.48-2.69,0.25c-0.45-0.12-0.88-0.33-1.23-0.65
					c-0.36-0.31-0.61-0.77-0.62-1.27c0.01-0.5,0.26-0.96,0.62-1.27c0.35-0.32,0.78-0.53,1.23-0.66c0.9-0.24,1.87-0.16,2.69,0.24
					c-0.85-0.32-1.79-0.31-2.63-0.06c-0.81,0.25-1.65,0.88-1.65,1.74c0,0.87,0.84,1.49,1.66,1.74
					C105.54,81.41,106.48,81.41,107.33,81.09z"/>
			</g>
			<path class="st39" d="M125.56,70.29c0,0,0.08-0.63-0.63-1.26c-0.1-0.09-0.22-0.19-0.36-0.28c-1.06-1.26-2.12-1.47-3.92-1.2
				c-0.18,0.03-0.37,0.05-0.57,0.04c-0.1,0.03-0.2,0.06-0.29,0.09c-0.1,0.03-0.19,0.05-0.29,0.07c-2.57-0.51-3.84-0.51-4.56,0.57
				c-0.14,0.04-0.29,0.09-0.42,0.14c-0.69,0.28-1.31,0.78-1.84,1.69c-0.13,0.12-0.26,0.24-0.4,0.37c-0.12,0.12-0.25,0.23-0.39,0.35
				c-0.23,0.04-0.45,0.09-0.64,0.16c-0.19,0.07-0.37,0.15-0.53,0.25c-0.14,0-0.26,0.01-0.37,0.03s-0.21,0.05-0.3,0.08
				c-1.2,0.88-1.2,3.72-2.08,5.22c0,0.17,0,0.33,0.01,0.49s0,0.31,0.01,0.46c0,0.15,0.01,0.29,0.01,0.43
				c-0.56,2.79-0.56,4.21,0.32,5.17c0.05,0.16,0.09,0.32,0.13,0.49c0.07,0.16,0.15,0.3,0.25,0.44c0.59,3.27,3.14,1.93,2.8,4.08
				c0.06,0.13,0.13,0.24,0.22,0.34c0.34,0.4,0.9,0.55,1.49,0.66c0.17,0.03,0.34,0.05,0.5,0.09c0.25,0.3,0.59,0.48,0.99,0.62
				c0.14,0.05,0.28,0.09,0.43,0.13c1.26,0.03,2.26,1.35,3.19,1.69c0.13,0.05,0.26,0.07,0.39,0.08c1.02-0.19,1.85-0.28,2.54-0.45
				c0.14-0.03,0.27-0.07,0.4-0.1c1.64,0.17,4.19,0.17,3.91-2.82c0-0.11,0-0.23,0-0.36C125.59,84.22,125.56,70.29,125.56,70.29z"/>
			<path class="st39" d="M155.26,79.77c-0.44,0.02-0.44,1.12-0.51,1.04c-0.03,0.14-0.06,0.25-0.1,0.31c-0.05,0.16-0.1,0.3-0.16,0.44
				c-0.05,0.1-0.1,0.2-0.16,0.3c-0.61,1.22-1.7,1.22-3.74,1.21c-0.14,0-0.29-0.01-0.43-0.03c-0.43-0.08-0.85-0.3-1.23-0.78
				c-0.15-0.03-0.28-0.06-0.41-0.09c-1.35-0.37-1.32-1.5-0.97-3.95c0.05-0.09,0.1-0.19,0.17-0.3s0.15-0.23,0.23-0.38
				c0.31-2.1,2.5-1.01,3.32-1.76c0.16,0,0.32,0.03,0.49,0.08c0.17,0.05,0.34,0.13,0.53,0.24c0.09,0.06,0.19,0.12,0.28,0.19
				c0.23-0.08,0.41-0.12,0.55-0.11s0.25,0.06,0.34,0.14c0.27,2.4,2.45,1.3,1.93,3.17C155.36,79.56,155.32,79.65,155.26,79.77z"/>
			<path class="st40" d="M150.84,80.41c0.82-0.3,0.74-1.47-0.1-1.69c-16.84-4.39-22.81-8.87-26.88-9.24
				c-0.4-0.05-1.67-0.11-1.67-0.11c-6.58,0-11.92,4.5-11.92,10.04c0,5.55,5.33,10.04,11.92,10.04c1.57,0,3.07-0.26,4.45-0.73
				C135.85,85.87,146.1,82.16,150.84,80.41z"/>
		</g>
		<g>
			<path class="st35" d="M74.01,69.32c-0.8,0.16-1.41-0.23-1.76-1.16c-0.02-0.06-0.04-0.12-0.06-0.18
				c-1.66,0.56-1.47-0.68-1.57-1.62c-0.01-0.12-0.03-0.23-0.06-0.33c-0.55,0.1-1.18-0.18-1.64-0.63c-0.08-0.07-0.15-0.15-0.22-0.24
				c-0.38-0.15-1.02-0.67-1.29-1.38c-0.04-0.1-0.07-0.21-0.09-0.32c-0.76-0.92-0.48-1.37-0.01-1.68c0.08-0.05,0.16-0.1,0.25-0.15
				c0.11-0.44,0.72-1.19,1.32-1.62c0.08-0.06,0.17-0.11,0.25-0.16c0.24-0.51,0.85-1.24,1.69-1.16c0.1,0.01,0.21,0.03,0.33,0.06
				c1.55-0.26,2.26,0.41,2.59,2.01c0.09,0.09,0.17,0.18,0.25,0.27c1.3,0.09,2.01,0.57,2.25,1.69c0.02,0.11,0.04,0.23,0.06,0.35
				c0.58,0.02,1.03,0.15,1.38,0.41c0.07,0.05,0.13,0.11,0.19,0.17c0.81,0.6,0.95,1.06,0.91,1.5c-0.01,0.09-0.02,0.18-0.03,0.27
				c0.59,0.49,0.73,0.89,0.58,1.32c-0.03,0.07-0.06,0.14-0.1,0.22c0.13,0.8-0.47,1.35-1.06,1.72c-0.08,0.05-0.17,0.1-0.25,0.15
				c-0.15,0.83-0.41,1.39-0.99,1.54c-0.08,0.02-0.17,0.03-0.27,0.04c-0.89,0.46-0.89,0.46-1.83-0.41c-0.04-0.04-0.09-0.09-0.19-0.2
				c-0.05-0.06-0.12-0.13-0.36-0.36C74.18,69.39,74.1,69.35,74.01,69.32z"/>
			<path class="st31" d="M74.01,69.32c-0.41,0.1-0.87,0.02-1.2-0.26c-0.33-0.28-0.52-0.68-0.66-1.07L72.2,68
				c-0.26,0.08-0.53,0.16-0.82,0.15c-0.29,0-0.57-0.22-0.65-0.49c-0.19-0.54-0.11-1.11-0.24-1.62l0.08,0.05
				c-0.77,0.11-1.47-0.34-1.93-0.88l0.03,0.02c-0.37-0.16-0.67-0.42-0.92-0.71c-0.25-0.3-0.44-0.65-0.52-1.04l0.02,0.04
				c-0.23-0.3-0.49-0.63-0.49-1.07c0-0.22,0.11-0.42,0.26-0.56c0.15-0.15,0.32-0.24,0.48-0.34l-0.05,0.06
				c0.13-0.43,0.4-0.74,0.66-1.05c0.28-0.3,0.58-0.58,0.95-0.79l-0.04,0.05c0.19-0.39,0.47-0.74,0.85-0.99
				c0.19-0.12,0.4-0.21,0.63-0.24c0.23-0.04,0.45,0.02,0.66,0.06l-0.05,0c0.62-0.1,1.36-0.11,1.89,0.36
				c0.51,0.46,0.7,1.13,0.83,1.74l-0.03-0.06l0.25,0.27l-0.08-0.04c0.57,0.05,1.19,0.16,1.67,0.56c0.48,0.4,0.67,1.02,0.73,1.59
				l-0.1-0.09c0.29,0.01,0.59,0.05,0.87,0.15c0.29,0.09,0.55,0.26,0.76,0.47l-0.01-0.01c0.28,0.22,0.56,0.46,0.76,0.78
				c0.1,0.16,0.16,0.34,0.18,0.53c0.02,0.19-0.01,0.37-0.03,0.54l-0.03-0.07c0.23,0.2,0.46,0.42,0.59,0.72
				c0.06,0.15,0.09,0.32,0.06,0.48c-0.02,0.17-0.09,0.31-0.16,0.45l0.01-0.05c0.07,0.43-0.09,0.87-0.37,1.19
				c-0.28,0.32-0.63,0.55-0.99,0.75l0.03-0.04c-0.07,0.36-0.16,0.74-0.36,1.06c-0.1,0.16-0.24,0.31-0.41,0.4
				c-0.17,0.11-0.36,0.12-0.55,0.14l0.02,0c-0.22,0.1-0.43,0.23-0.68,0.28c-0.27,0.06-0.5-0.11-0.68-0.27
				c-0.38-0.31-0.71-0.68-1.05-1.03l0,0L74.01,69.32z M74.01,69.32l0.23,0.12l0,0c0.35,0.34,0.68,0.7,1.07,1
				c0.18,0.15,0.4,0.3,0.64,0.24c0.23-0.05,0.44-0.19,0.66-0.3l0.01,0l0.01,0c0.18-0.02,0.36-0.05,0.51-0.14
				c0.15-0.09,0.27-0.22,0.36-0.38c0.18-0.31,0.26-0.67,0.33-1.03l0.01-0.03l0.03-0.02c0.35-0.2,0.69-0.43,0.94-0.73
				c0.26-0.3,0.39-0.69,0.33-1.07l0-0.02l0.01-0.03c0.06-0.13,0.13-0.26,0.14-0.39c0.02-0.14-0.01-0.27-0.06-0.4
				c-0.11-0.25-0.32-0.46-0.55-0.65l-0.04-0.03l0.01-0.04c0.06-0.35,0.05-0.68-0.14-0.96c-0.17-0.28-0.44-0.51-0.72-0.72l-0.01,0
				l-0.01-0.01c-0.19-0.19-0.43-0.34-0.69-0.42c-0.26-0.08-0.54-0.12-0.82-0.13l-0.08,0l-0.01-0.08c-0.07-0.55-0.25-1.11-0.67-1.45
				c-0.42-0.35-0.99-0.45-1.54-0.49l-0.04,0l-0.03-0.03l-0.25-0.26l-0.02-0.03l-0.01-0.03c-0.13-0.6-0.32-1.21-0.76-1.6
				c-0.44-0.4-1.09-0.41-1.69-0.32l-0.02,0l-0.03-0.01c-0.2-0.04-0.39-0.09-0.58-0.06c-0.19,0.02-0.37,0.1-0.54,0.2
				c-0.33,0.21-0.6,0.53-0.78,0.89l-0.02,0.03l-0.03,0.02c-0.34,0.19-0.63,0.45-0.9,0.74c-0.26,0.29-0.52,0.62-0.63,0.96l-0.01,0.04
				l-0.03,0.02c-0.32,0.17-0.65,0.4-0.66,0.74c-0.01,0.34,0.22,0.67,0.44,0.95l0.01,0.02l0,0.02c0.08,0.35,0.24,0.69,0.48,0.97
				c0.23,0.28,0.52,0.53,0.85,0.68l0.02,0.01l0.01,0.01c0.44,0.52,1.11,0.95,1.79,0.84l0.06-0.01L70.62,66
				c0.13,0.55,0.04,1.11,0.21,1.62c0.08,0.25,0.29,0.43,0.56,0.45c0.26,0.02,0.53-0.05,0.79-0.12l0.03-0.01l0.01,0.03
				c0.13,0.4,0.3,0.79,0.62,1.07C73.15,69.32,73.6,69.4,74.01,69.32z"/>
		</g>
		<path class="st39" d="M69.41,90.72c-0.16-0.8,0.23-1.41,1.16-1.76c0.06-0.02,0.12-0.04,0.18-0.06c-0.56-1.66,0.68-1.47,1.62-1.57
			c0.12-0.01,0.23-0.03,0.33-0.06c-0.1-0.55,0.18-1.18,0.63-1.64c0.07-0.08,0.15-0.15,0.24-0.22c0.15-0.38,0.67-1.02,1.38-1.29
			c0.1-0.04,0.21-0.07,0.32-0.09c0.92-0.76,1.37-0.48,1.68-0.01c0.05,0.08,0.1,0.16,0.15,0.25c0.44,0.11,1.19,0.72,1.62,1.32
			c0.06,0.08,0.11,0.17,0.16,0.25c0.51,0.24,1.24,0.85,1.16,1.69c-0.01,0.1-0.03,0.21-0.06,0.33c0.26,1.55-0.41,2.26-2.01,2.59
			c-0.09,0.09-0.18,0.17-0.27,0.25c-0.09,1.3-0.57,2.01-1.69,2.25c-0.11,0.02-0.23,0.04-0.35,0.06c-0.02,0.58-0.15,1.03-0.41,1.38
			c-0.05,0.07-0.11,0.13-0.17,0.19c-0.6,0.81-1.06,0.95-1.5,0.91c-0.09-0.01-0.18-0.02-0.27-0.03c-0.49,0.59-0.89,0.73-1.32,0.58
			c-0.07-0.03-0.14-0.06-0.22-0.1c-0.8,0.13-1.35-0.47-1.72-1.06c-0.05-0.08-0.1-0.17-0.15-0.25c-0.83-0.15-1.39-0.41-1.54-0.99
			c-0.02-0.08-0.03-0.17-0.04-0.27c-0.46-0.89-0.46-0.89,0.41-1.83c0.04-0.04,0.09-0.09,0.2-0.19c0.06-0.05,0.13-0.12,0.36-0.36
			C69.33,90.88,69.37,90.81,69.41,90.72z"/>
	</g>
</g>
</svg>
