<svg width="47" height="30" viewBox="0 0 47 30" fill="none" xmlns="http://www.w3.org/2000/svg">
<path d="M0 29H47" stroke="white" stroke-width="1.5"/>
<path d="M27.3665 5.51395C28.8829 5.51395 30.1235 4.27331 30.1235 2.75697C30.1235 1.24064 28.8829 0 27.3665 0C25.8502 0 24.6096 1.24064 24.6096 2.75697C24.6096 4.27331 25.8502 5.51395 27.3665 5.51395ZM12.8924 14.4741C9.03267 14.4741 6 17.5068 6 21.3665C6 25.2263 9.03267 28.259 12.8924 28.259C16.7522 28.259 19.7849 25.2263 19.7849 21.3665C19.7849 17.5068 16.7522 14.4741 12.8924 14.4741ZM12.8924 26.1913C10.2733 26.1913 8.06773 23.9857 8.06773 21.3665C8.06773 18.7474 10.2733 16.5418 12.8924 16.5418C15.5116 16.5418 17.7171 18.7474 17.7171 21.3665C17.7171 23.9857 15.5116 26.1913 12.8924 26.1913ZM20.8877 12.4064L24.196 9.09801L25.2988 10.2008C27.0909 11.9928 29.4343 13.0956 32.3291 13.0956V10.3387C30.2614 10.3387 28.6072 9.51156 27.3665 8.27092L24.7474 5.6518C24.0582 5.1004 23.3689 4.8247 22.5418 4.8247C21.7148 4.8247 21.0255 5.1004 20.612 5.6518L16.7522 9.51156C16.2008 10.063 15.9251 10.7522 15.9251 11.4414C15.9251 12.2685 16.2008 12.9578 16.7522 13.3713L21.1634 17.2311V24.1235H23.9203V15.5769L20.8877 12.4064ZM32.1913 14.4741C28.3315 14.4741 25.2988 17.5068 25.2988 21.3665C25.2988 25.2263 28.3315 28.259 32.1913 28.259C36.051 28.259 39.0837 25.2263 39.0837 21.3665C39.0837 17.5068 36.051 14.4741 32.1913 14.4741ZM32.1913 26.1913C29.5721 26.1913 27.3665 23.9857 27.3665 21.3665C27.3665 18.7474 29.5721 16.5418 32.1913 16.5418C34.8104 16.5418 37.016 18.7474 37.016 21.3665C37.016 23.9857 34.8104 26.1913 32.1913 26.1913Z" fill="white"/>
</svg>
