<svg width="54" height="37" viewBox="0 0 54 37" fill="none" xmlns="http://www.w3.org/2000/svg">
<path d="M27 25.5V28.5" stroke="white" stroke-width="1.5"/>
<path d="M27 31.5V36.5" stroke="white" stroke-width="1.5"/>
<path d="M14.5 21L1 36.5" stroke="white" stroke-width="1.5"/>
<path d="M39 21L52.5 36.5" stroke="white" stroke-width="1.5"/>
<path d="M16 19.2988C16 20.5119 16.5376 21.6009 17.3785 22.3591V24.8128C17.3785 25.5709 17.9988 26.1913 18.757 26.1913H20.1355C20.8936 26.1913 21.5139 25.5709 21.5139 24.8128V23.4343H32.5418V24.8128C32.5418 25.5709 33.1622 26.1913 33.9203 26.1913H35.2988C36.057 26.1913 36.6773 25.5709 36.6773 24.8128V22.3591C37.5182 21.6009 38.0558 20.5119 38.0558 19.2988V5.51395C38.0558 0.689243 33.1208 0 27.0279 0C20.935 0 16 0.689243 16 5.51395V19.2988ZM20.8247 20.6773C19.6806 20.6773 18.757 19.7537 18.757 18.6096C18.757 17.4654 19.6806 16.5418 20.8247 16.5418C21.9688 16.5418 22.8924 17.4654 22.8924 18.6096C22.8924 19.7537 21.9688 20.6773 20.8247 20.6773ZM33.2311 20.6773C32.0869 20.6773 31.1634 19.7537 31.1634 18.6096C31.1634 17.4654 32.0869 16.5418 33.2311 16.5418C34.3752 16.5418 35.2988 17.4654 35.2988 18.6096C35.2988 19.7537 34.3752 20.6773 33.2311 20.6773ZM35.2988 12.4064H18.757V5.51395H35.2988V12.4064Z" fill="white"/>
</svg>
