<svg width="54" height="32" viewBox="0 0 54 32" fill="none" xmlns="http://www.w3.org/2000/svg">
<path d="M27 20V23" stroke="white" stroke-width="1.5"/>
<path d="M27 26V31" stroke="white" stroke-width="1.5"/>
<path d="M14.5 15.5L1 31" stroke="white" stroke-width="1.5"/>
<path d="M39 15.5L52.5 31" stroke="white" stroke-width="1.5"/>
<path d="M36.9956 1.38875C36.7067 0.5775 35.8978 0 34.9444 0H19.0556C18.1022 0 17.3078 0.5775 17.0044 1.38875L14 9.625V20.625C14 21.3813 14.65 22 15.4444 22H16.8889C17.6833 22 18.3333 21.3813 18.3333 20.625V19.25H35.6667V20.625C35.6667 21.3813 36.3167 22 37.1111 22H38.5556C39.35 22 40 21.3813 40 20.625V9.625L36.9956 1.38875ZM19.0556 15.125C17.8567 15.125 16.8889 14.2037 16.8889 13.0625C16.8889 11.9213 17.8567 11 19.0556 11C20.2544 11 21.2222 11.9213 21.2222 13.0625C21.2222 14.2037 20.2544 15.125 19.0556 15.125ZM34.9444 15.125C33.7456 15.125 32.7778 14.2037 32.7778 13.0625C32.7778 11.9213 33.7456 11 34.9444 11C36.1433 11 37.1111 11.9213 37.1111 13.0625C37.1111 14.2037 36.1433 15.125 34.9444 15.125ZM16.8889 8.25L19.0556 2.0625H34.9444L37.1111 8.25H16.8889Z" fill="white"/>
</svg>
