<svg width="86" height="122" viewBox="0 0 86 122" fill="none" xmlns="http://www.w3.org/2000/svg">
<g clip-path="url(#clip0)">
<path d="M-27 39.5234L95.4581 -22" stroke="#F2F2F2" stroke-width="1.7" stroke-dasharray="12 8"/>
<path d="M-40.2166 12.0254L82.2416 -49.498" stroke="#F2F2F2" stroke-width="1.76622"/>
<path d="M-38.4504 14.3799L84.0077 -47.1436" stroke="#F2F2F2" stroke-width="1.76622"/>
<path d="M62.4638 -13.5626L62.9358 -14.3903C64.2103 -16.6256 64.2776 -19.3514 63.1149 -21.6469C61.9522 -23.9423 59.7149 -25.5008 57.1587 -25.7957L56.2122 -25.9049C54.6548 -26.0846 53.0788 -25.8028 51.6803 -25.0944L25.3524 -11.7587C22.3963 -10.2614 21.2137 -6.65116 22.7111 -3.69504L24.7375 0.305743C26.2349 3.26186 29.8451 4.44443 32.8012 2.9471L59.1291 -10.3885C60.5277 -11.0969 61.6873 -12.2007 62.4638 -13.5626Z" fill="#F2F2F2"/>
<path d="M24.4638 36.4374L24.9358 35.6097C26.2103 33.3744 26.2776 30.6486 25.1149 28.3531C23.9522 26.0577 21.7149 24.4992 19.1587 24.2043L18.2122 24.0951C16.6548 23.9154 15.0788 24.1972 13.6803 24.9056L-12.6476 38.2413C-15.6037 39.7386 -16.7863 43.3488 -15.2889 46.305L-13.2625 50.3057C-11.7651 53.2619 -8.15487 54.4444 -5.19876 52.9471L21.1291 39.6115C22.5277 38.9031 23.6873 37.7993 24.4638 36.4374Z" fill="#F2F2F2"/>
<path d="M80.9908 41.676L81.5094 39.7806C81.8178 38.6535 81.6961 37.4519 81.1681 36.4095L79.1556 32.4363C78.5853 31.3104 77.5869 30.4605 76.3844 30.0771L74.817 29.5775C73.6446 29.2037 72.3725 29.3037 71.2729 29.8559L15.1679 58.03C13.4201 58.9077 12.7181 61.0383 13.6018 62.783L17.8583 71.1863C18.7377 72.9224 20.8556 73.6202 22.5948 72.7469L78.5615 44.6422C79.7553 44.0427 80.6383 42.9645 80.9908 41.676Z" fill="#F2F2F2"/>
<path d="M-14 65.5234L108.458 4" stroke="#F2F2F2" stroke-width="1.7"/>
<path d="M0 92.5234L122.458 31" stroke="#F2F2F2" stroke-width="1.7"/>
</g>
<rect x="1" y="1" width="84" height="84" rx="5" stroke="#F2F2F2" stroke-width="2"/>
<path d="M0.921875 121V108.203H5.10547C6.49414 108.203 7.53711 108.49 8.23438 109.064C8.9375 109.639 9.28906 110.488 9.28906 111.613C9.28906 112.211 9.11914 112.741 8.7793 113.204C8.43945 113.661 7.97656 114.016 7.39062 114.268C8.08203 114.461 8.62695 114.83 9.02539 115.375C9.42969 115.914 9.63184 116.559 9.63184 117.309C9.63184 118.457 9.25977 119.359 8.51562 120.016C7.77148 120.672 6.71973 121 5.36035 121H0.921875ZM2.60938 115.015V119.62H5.39551C6.18066 119.62 6.79883 119.418 7.25 119.014C7.70703 118.604 7.93555 118.041 7.93555 117.326C7.93555 115.785 7.09766 115.015 5.42188 115.015H2.60938ZM2.60938 113.661H5.1582C5.89648 113.661 6.48535 113.477 6.9248 113.107C7.37012 112.738 7.59277 112.237 7.59277 111.604C7.59277 110.901 7.3877 110.392 6.97754 110.075C6.56738 109.753 5.94336 109.592 5.10547 109.592H2.60938V113.661ZM17.7529 120.06C17.1201 120.804 16.1914 121.176 14.9668 121.176C13.9531 121.176 13.1797 120.883 12.6465 120.297C12.1191 119.705 11.8525 118.832 11.8467 117.678V111.49H13.4727V117.634C13.4727 119.075 14.0586 119.796 15.2305 119.796C16.4727 119.796 17.2988 119.333 17.709 118.407V111.49H19.335V121H17.7881L17.7529 120.06ZM27.3506 118.478C27.3506 118.038 27.1836 117.698 26.8496 117.458C26.5215 117.212 25.9443 117.001 25.1182 116.825C24.2979 116.649 23.6445 116.438 23.1582 116.192C22.6777 115.946 22.3203 115.653 22.0859 115.313C21.8574 114.974 21.7432 114.569 21.7432 114.101C21.7432 113.321 22.0713 112.662 22.7275 112.123C23.3896 111.584 24.2334 111.314 25.2588 111.314C26.3369 111.314 27.21 111.593 27.8779 112.149C28.5518 112.706 28.8887 113.418 28.8887 114.285H27.2539C27.2539 113.84 27.0635 113.456 26.6826 113.134C26.3076 112.812 25.833 112.65 25.2588 112.65C24.667 112.65 24.2041 112.779 23.8701 113.037C23.5361 113.295 23.3691 113.632 23.3691 114.048C23.3691 114.44 23.5244 114.736 23.835 114.936C24.1455 115.135 24.7051 115.325 25.5137 115.507C26.3281 115.688 26.9873 115.905 27.4912 116.157C27.9951 116.409 28.3672 116.714 28.6074 117.071C28.8535 117.423 28.9766 117.854 28.9766 118.363C28.9766 119.213 28.6367 119.896 27.957 120.411C27.2773 120.921 26.3955 121.176 25.3115 121.176C24.5498 121.176 23.876 121.041 23.29 120.771C22.7041 120.502 22.2441 120.127 21.9102 119.646C21.582 119.16 21.418 118.636 21.418 118.073H23.0439C23.0732 118.618 23.29 119.052 23.6943 119.374C24.1045 119.69 24.6436 119.849 25.3115 119.849C25.9268 119.849 26.4189 119.726 26.7881 119.479C27.1631 119.228 27.3506 118.894 27.3506 118.478ZM37.5107 119.62H43.5752V121H35.8145V108.203H37.5107V119.62ZM51.1162 121C51.0225 120.812 50.9463 120.479 50.8877 119.998C50.1318 120.783 49.2295 121.176 48.1807 121.176C47.2432 121.176 46.4727 120.912 45.8691 120.385C45.2715 119.852 44.9727 119.178 44.9727 118.363C44.9727 117.373 45.3477 116.605 46.0977 116.061C46.8535 115.51 47.9141 115.234 49.2793 115.234H50.8613V114.487C50.8613 113.919 50.6914 113.468 50.3516 113.134C50.0117 112.794 49.5107 112.624 48.8486 112.624C48.2686 112.624 47.7822 112.771 47.3896 113.063C46.9971 113.356 46.8008 113.711 46.8008 114.127H45.166C45.166 113.652 45.333 113.195 45.667 112.756C46.0068 112.311 46.4639 111.959 47.0381 111.701C47.6182 111.443 48.2539 111.314 48.9453 111.314C50.041 111.314 50.8994 111.59 51.5205 112.141C52.1416 112.686 52.4639 113.438 52.4873 114.399V118.776C52.4873 119.649 52.5986 120.344 52.8213 120.859V121H51.1162ZM48.418 119.761C48.9277 119.761 49.4111 119.629 49.8682 119.365C50.3252 119.102 50.6562 118.759 50.8613 118.337V116.386H49.5869C47.5947 116.386 46.5986 116.969 46.5986 118.135C46.5986 118.645 46.7686 119.043 47.1084 119.33C47.4482 119.617 47.8848 119.761 48.418 119.761ZM56.5742 111.49L56.627 112.686C57.3535 111.771 58.3027 111.314 59.4746 111.314C61.4844 111.314 62.498 112.448 62.5156 114.716V121H60.8896V114.707C60.8838 114.021 60.7256 113.515 60.415 113.187C60.1104 112.858 59.6328 112.694 58.9824 112.694C58.4551 112.694 57.9922 112.835 57.5938 113.116C57.1953 113.397 56.8848 113.767 56.6621 114.224V121H55.0361V111.49H56.5742ZM68.9141 121.176C67.625 121.176 66.5762 120.754 65.7676 119.91C64.959 119.061 64.5547 117.927 64.5547 116.509V116.21C64.5547 115.267 64.7334 114.426 65.0908 113.688C65.4541 112.943 65.958 112.363 66.6025 111.947C67.2529 111.525 67.9561 111.314 68.7119 111.314C69.9482 111.314 70.9092 111.722 71.5947 112.536C72.2803 113.351 72.623 114.517 72.623 116.034V116.711H66.1807C66.2041 117.648 66.4766 118.407 66.998 118.987C67.5254 119.562 68.1934 119.849 69.002 119.849C69.5762 119.849 70.0625 119.731 70.4609 119.497C70.8594 119.263 71.208 118.952 71.5068 118.565L72.5 119.339C71.7031 120.563 70.5078 121.176 68.9141 121.176ZM68.7119 112.65C68.0557 112.65 67.5049 112.891 67.0596 113.371C66.6143 113.846 66.3389 114.514 66.2334 115.375H70.9971V115.252C70.9502 114.426 70.7275 113.787 70.3291 113.336C69.9307 112.879 69.3916 112.65 68.7119 112.65ZM80.0498 118.478C80.0498 118.038 79.8828 117.698 79.5488 117.458C79.2207 117.212 78.6436 117.001 77.8174 116.825C76.9971 116.649 76.3438 116.438 75.8574 116.192C75.377 115.946 75.0195 115.653 74.7852 115.313C74.5566 114.974 74.4424 114.569 74.4424 114.101C74.4424 113.321 74.7705 112.662 75.4268 112.123C76.0889 111.584 76.9326 111.314 77.958 111.314C79.0361 111.314 79.9092 111.593 80.5771 112.149C81.251 112.706 81.5879 113.418 81.5879 114.285H79.9531C79.9531 113.84 79.7627 113.456 79.3818 113.134C79.0068 112.812 78.5322 112.65 77.958 112.65C77.3662 112.65 76.9033 112.779 76.5693 113.037C76.2354 113.295 76.0684 113.632 76.0684 114.048C76.0684 114.44 76.2236 114.736 76.5342 114.936C76.8447 115.135 77.4043 115.325 78.2129 115.507C79.0273 115.688 79.6865 115.905 80.1904 116.157C80.6943 116.409 81.0664 116.714 81.3066 117.071C81.5527 117.423 81.6758 117.854 81.6758 118.363C81.6758 119.213 81.3359 119.896 80.6562 120.411C79.9766 120.921 79.0947 121.176 78.0107 121.176C77.249 121.176 76.5752 121.041 75.9893 120.771C75.4033 120.502 74.9434 120.127 74.6094 119.646C74.2812 119.16 74.1172 118.636 74.1172 118.073H75.7432C75.7725 118.618 75.9893 119.052 76.3936 119.374C76.8037 119.69 77.3428 119.849 78.0107 119.849C78.626 119.849 79.1182 119.726 79.4873 119.479C79.8623 119.228 80.0498 118.894 80.0498 118.478Z" fill="#F2F2F2"/>
<defs>
<clipPath id="clip0">
<rect width="86" height="86" rx="6" fill="white"/>
</clipPath>
</defs>
</svg>
