<svg width="143" height="124" viewBox="0 0 143 124" fill="none" xmlns="http://www.w3.org/2000/svg">
<path d="M2.2959 120H0.608398V107.203H2.2959V120ZM6.67285 110.49L6.72559 111.686C7.45215 110.771 8.40137 110.314 9.57324 110.314C11.583 110.314 12.5967 111.448 12.6143 113.716V120H10.9883V113.707C10.9824 113.021 10.8242 112.515 10.5137 112.187C10.209 111.858 9.73145 111.694 9.08105 111.694C8.55371 111.694 8.09082 111.835 7.69238 112.116C7.29395 112.397 6.9834 112.767 6.76074 113.224V120H5.13477V110.49H6.67285ZM17.2725 108.188V110.49H19.0479V111.747H17.2725V117.645C17.2725 118.025 17.3516 118.312 17.5098 118.506C17.668 118.693 17.9375 118.787 18.3184 118.787C18.5059 118.787 18.7637 118.752 19.0918 118.682V120C18.6641 120.117 18.248 120.176 17.8438 120.176C17.1172 120.176 16.5693 119.956 16.2002 119.517C15.8311 119.077 15.6465 118.453 15.6465 117.645V111.747H13.915V110.49H15.6465V108.188H17.2725ZM24.9014 120.176C23.6123 120.176 22.5635 119.754 21.7549 118.91C20.9463 118.061 20.542 116.927 20.542 115.509V115.21C20.542 114.267 20.7207 113.426 21.0781 112.688C21.4414 111.943 21.9453 111.363 22.5898 110.947C23.2402 110.525 23.9434 110.314 24.6992 110.314C25.9355 110.314 26.8965 110.722 27.582 111.536C28.2676 112.351 28.6104 113.517 28.6104 115.034V115.711H22.168C22.1914 116.648 22.4639 117.407 22.9854 117.987C23.5127 118.562 24.1807 118.849 24.9893 118.849C25.5635 118.849 26.0498 118.731 26.4482 118.497C26.8467 118.263 27.1953 117.952 27.4941 117.565L28.4873 118.339C27.6904 119.563 26.4951 120.176 24.9014 120.176ZM24.6992 111.65C24.043 111.65 23.4922 111.891 23.0469 112.371C22.6016 112.846 22.3262 113.514 22.2207 114.375H26.9844V114.252C26.9375 113.426 26.7148 112.787 26.3164 112.336C25.918 111.879 25.3789 111.65 24.6992 111.65ZM35.0967 111.949C34.8506 111.908 34.584 111.888 34.2969 111.888C33.2305 111.888 32.5068 112.342 32.126 113.25V120H30.5V110.49H32.082L32.1084 111.589C32.6416 110.739 33.3975 110.314 34.376 110.314C34.6924 110.314 34.9326 110.355 35.0967 110.438V111.949ZM42.1367 117.478C42.1367 117.038 41.9697 116.698 41.6357 116.458C41.3076 116.212 40.7305 116.001 39.9043 115.825C39.084 115.649 38.4307 115.438 37.9443 115.192C37.4639 114.946 37.1064 114.653 36.8721 114.313C36.6436 113.974 36.5293 113.569 36.5293 113.101C36.5293 112.321 36.8574 111.662 37.5137 111.123C38.1758 110.584 39.0195 110.314 40.0449 110.314C41.123 110.314 41.9961 110.593 42.6641 111.149C43.3379 111.706 43.6748 112.418 43.6748 113.285H42.04C42.04 112.84 41.8496 112.456 41.4688 112.134C41.0938 111.812 40.6191 111.65 40.0449 111.65C39.4531 111.65 38.9902 111.779 38.6562 112.037C38.3223 112.295 38.1553 112.632 38.1553 113.048C38.1553 113.44 38.3105 113.736 38.6211 113.936C38.9316 114.135 39.4912 114.325 40.2998 114.507C41.1143 114.688 41.7734 114.905 42.2773 115.157C42.7812 115.409 43.1533 115.714 43.3936 116.071C43.6396 116.423 43.7627 116.854 43.7627 117.363C43.7627 118.213 43.4229 118.896 42.7432 119.411C42.0635 119.921 41.1816 120.176 40.0977 120.176C39.3359 120.176 38.6621 120.041 38.0762 119.771C37.4902 119.502 37.0303 119.127 36.6963 118.646C36.3682 118.16 36.2041 117.636 36.2041 117.073H37.8301C37.8594 117.618 38.0762 118.052 38.4805 118.374C38.8906 118.69 39.4297 118.849 40.0977 118.849C40.7129 118.849 41.2051 118.726 41.5742 118.479C41.9492 118.228 42.1367 117.894 42.1367 117.478ZM49.8271 120.176C48.5381 120.176 47.4893 119.754 46.6807 118.91C45.8721 118.061 45.4678 116.927 45.4678 115.509V115.21C45.4678 114.267 45.6465 113.426 46.0039 112.688C46.3672 111.943 46.8711 111.363 47.5156 110.947C48.166 110.525 48.8691 110.314 49.625 110.314C50.8613 110.314 51.8223 110.722 52.5078 111.536C53.1934 112.351 53.5361 113.517 53.5361 115.034V115.711H47.0938C47.1172 116.648 47.3896 117.407 47.9111 117.987C48.4385 118.562 49.1064 118.849 49.915 118.849C50.4893 118.849 50.9756 118.731 51.374 118.497C51.7725 118.263 52.1211 117.952 52.4199 117.565L53.4131 118.339C52.6162 119.563 51.4209 120.176 49.8271 120.176ZM49.625 111.65C48.9688 111.65 48.418 111.891 47.9727 112.371C47.5273 112.846 47.252 113.514 47.1465 114.375H51.9102V114.252C51.8633 113.426 51.6406 112.787 51.2422 112.336C50.8438 111.879 50.3047 111.65 49.625 111.65ZM59.2402 118.849C59.8203 118.849 60.3271 118.673 60.7607 118.321C61.1943 117.97 61.4346 117.53 61.4814 117.003H63.0195C62.9902 117.548 62.8027 118.066 62.457 118.559C62.1113 119.051 61.6484 119.443 61.0684 119.736C60.4941 120.029 59.8848 120.176 59.2402 120.176C57.9453 120.176 56.9141 119.745 56.1465 118.884C55.3848 118.017 55.0039 116.833 55.0039 115.333V115.061C55.0039 114.135 55.1738 113.312 55.5137 112.591C55.8535 111.87 56.3398 111.311 56.9727 110.912C57.6113 110.514 58.3643 110.314 59.2314 110.314C60.2979 110.314 61.1826 110.634 61.8857 111.272C62.5947 111.911 62.9727 112.74 63.0195 113.76H61.4814C61.4346 113.145 61.2002 112.641 60.7783 112.248C60.3623 111.85 59.8467 111.65 59.2314 111.65C58.4053 111.65 57.7637 111.949 57.3066 112.547C56.8555 113.139 56.6299 113.997 56.6299 115.122V115.43C56.6299 116.525 56.8555 117.369 57.3066 117.961C57.7578 118.553 58.4023 118.849 59.2402 118.849ZM67.0537 108.188V110.49H68.8291V111.747H67.0537V117.645C67.0537 118.025 67.1328 118.312 67.291 118.506C67.4492 118.693 67.7188 118.787 68.0996 118.787C68.2871 118.787 68.5449 118.752 68.873 118.682V120C68.4453 120.117 68.0293 120.176 67.625 120.176C66.8984 120.176 66.3506 119.956 65.9814 119.517C65.6123 119.077 65.4277 118.453 65.4277 117.645V111.747H63.6963V110.49H65.4277V108.188H67.0537ZM72.5029 120H70.877V110.49H72.5029V120ZM70.7451 107.968C70.7451 107.704 70.8242 107.481 70.9824 107.3C71.1465 107.118 71.3867 107.027 71.7031 107.027C72.0195 107.027 72.2598 107.118 72.4238 107.3C72.5879 107.481 72.6699 107.704 72.6699 107.968C72.6699 108.231 72.5879 108.451 72.4238 108.627C72.2598 108.803 72.0195 108.891 71.7031 108.891C71.3867 108.891 71.1465 108.803 70.9824 108.627C70.8242 108.451 70.7451 108.231 70.7451 107.968ZM74.6826 115.157C74.6826 114.226 74.8643 113.388 75.2275 112.644C75.5967 111.899 76.1064 111.325 76.7568 110.921C77.4131 110.517 78.1602 110.314 78.998 110.314C80.293 110.314 81.3389 110.763 82.1357 111.659C82.9385 112.556 83.3398 113.748 83.3398 115.236V115.351C83.3398 116.276 83.1611 117.108 82.8037 117.847C82.4521 118.579 81.9453 119.15 81.2832 119.561C80.627 119.971 79.8711 120.176 79.0156 120.176C77.7266 120.176 76.6807 119.728 75.8779 118.831C75.0811 117.935 74.6826 116.748 74.6826 115.271V115.157ZM76.3174 115.351C76.3174 116.405 76.5605 117.252 77.0469 117.891C77.5391 118.529 78.1953 118.849 79.0156 118.849C79.8418 118.849 80.498 118.526 80.9844 117.882C81.4707 117.231 81.7139 116.323 81.7139 115.157C81.7139 114.114 81.4648 113.271 80.9668 112.626C80.4746 111.976 79.8184 111.65 78.998 111.65C78.1953 111.65 77.5479 111.97 77.0557 112.608C76.5635 113.247 76.3174 114.161 76.3174 115.351ZM86.917 110.49L86.9697 111.686C87.6963 110.771 88.6455 110.314 89.8174 110.314C91.8271 110.314 92.8408 111.448 92.8584 113.716V120H91.2324V113.707C91.2266 113.021 91.0684 112.515 90.7578 112.187C90.4531 111.858 89.9756 111.694 89.3252 111.694C88.7979 111.694 88.335 111.835 87.9365 112.116C87.5381 112.397 87.2275 112.767 87.0049 113.224V120H85.3789V110.49H86.917ZM100.03 120V107.203H103.643C104.756 107.203 105.74 107.449 106.596 107.941C107.451 108.434 108.11 109.134 108.573 110.042C109.042 110.95 109.279 111.993 109.285 113.171V113.988C109.285 115.195 109.051 116.253 108.582 117.161C108.119 118.069 107.454 118.767 106.587 119.253C105.726 119.739 104.721 119.988 103.572 120H100.03ZM101.718 108.592V118.62H103.493C104.794 118.62 105.805 118.216 106.525 117.407C107.252 116.599 107.615 115.447 107.615 113.953V113.206C107.615 111.753 107.272 110.625 106.587 109.822C105.907 109.014 104.94 108.604 103.687 108.592H101.718ZM115.534 120.176C114.245 120.176 113.196 119.754 112.388 118.91C111.579 118.061 111.175 116.927 111.175 115.509V115.21C111.175 114.267 111.354 113.426 111.711 112.688C112.074 111.943 112.578 111.363 113.223 110.947C113.873 110.525 114.576 110.314 115.332 110.314C116.568 110.314 117.529 110.722 118.215 111.536C118.9 112.351 119.243 113.517 119.243 115.034V115.711H112.801C112.824 116.648 113.097 117.407 113.618 117.987C114.146 118.562 114.813 118.849 115.622 118.849C116.196 118.849 116.683 118.731 117.081 118.497C117.479 118.263 117.828 117.952 118.127 117.565L119.12 118.339C118.323 119.563 117.128 120.176 115.534 120.176ZM115.332 111.65C114.676 111.65 114.125 111.891 113.68 112.371C113.234 112.846 112.959 113.514 112.854 114.375H117.617V114.252C117.57 113.426 117.348 112.787 116.949 112.336C116.551 111.879 116.012 111.65 115.332 111.65ZM122.899 120H121.273V106.5H122.899V120ZM131.381 120C131.287 119.812 131.211 119.479 131.152 118.998C130.396 119.783 129.494 120.176 128.445 120.176C127.508 120.176 126.737 119.912 126.134 119.385C125.536 118.852 125.237 118.178 125.237 117.363C125.237 116.373 125.612 115.605 126.362 115.061C127.118 114.51 128.179 114.234 129.544 114.234H131.126V113.487C131.126 112.919 130.956 112.468 130.616 112.134C130.276 111.794 129.775 111.624 129.113 111.624C128.533 111.624 128.047 111.771 127.654 112.063C127.262 112.356 127.065 112.711 127.065 113.127H125.431C125.431 112.652 125.598 112.195 125.932 111.756C126.271 111.311 126.729 110.959 127.303 110.701C127.883 110.443 128.519 110.314 129.21 110.314C130.306 110.314 131.164 110.59 131.785 111.141C132.406 111.686 132.729 112.438 132.752 113.399V117.776C132.752 118.649 132.863 119.344 133.086 119.859V120H131.381ZM128.683 118.761C129.192 118.761 129.676 118.629 130.133 118.365C130.59 118.102 130.921 117.759 131.126 117.337V115.386H129.852C127.859 115.386 126.863 115.969 126.863 117.135C126.863 117.645 127.033 118.043 127.373 118.33C127.713 118.617 128.149 118.761 128.683 118.761ZM138.271 117.618L140.486 110.49H142.227L138.403 121.468C137.812 123.05 136.871 123.841 135.582 123.841L135.274 123.814L134.668 123.7V122.382L135.107 122.417C135.658 122.417 136.086 122.306 136.391 122.083C136.701 121.86 136.956 121.453 137.155 120.861L137.516 119.895L134.123 110.49H135.898L138.271 117.618Z" fill="#F2F2F2"/>
<rect x="28" y="1" width="84" height="84" rx="5" stroke="#F2F2F2" stroke-width="2"/>
<g clip-path="url(#clip0)">
<path d="M50.3383 52.1582L50.7643 51.3059C51.9146 49.0042 51.8326 46.2788 50.5461 44.0504C49.2595 41.822 46.9402 40.3883 44.3717 40.2337L43.4206 40.1764C41.8557 40.0822 40.2976 40.4499 38.9399 41.2337L13.3812 55.9901C10.5114 57.6469 9.52817 61.3165 11.185 64.1862L13.4274 68.0701C15.0842 70.9399 18.7538 71.9231 21.6236 70.2663L47.1822 55.5099C48.54 54.7261 49.6374 53.5605 50.3383 52.1582Z" fill="#F2F2F2"/>
<path d="M34.1532 24.2461L34.5792 23.3937C35.7295 21.0921 35.6476 18.3667 34.361 16.1383C33.0744 13.9099 30.7551 12.4762 28.1867 12.3215L27.2356 12.2643C25.6706 12.1701 24.1125 12.5377 22.7548 13.3216L-2.80388 28.0779C-5.67364 29.7348 -6.65689 33.4043 -5.00004 36.2741L-2.75766 40.158C-1.10081 43.0278 2.56874 44.011 5.43849 42.3541L30.9972 27.5978C32.3549 26.814 33.4524 25.6484 34.1532 24.2461Z" fill="#F2F2F2"/>
<path d="M32 1.5L82 86" stroke="#F2F2F2" stroke-width="1.76622"/>
<path d="M42.0518 16.5877L56.4997 7.99958" stroke="#F2F2F2" stroke-width="2"/>
<path d="M36.0518 7.58773L50.4997 -1.00042" stroke="#F2F2F2" stroke-width="2"/>
<path d="M46.7935 25.6864L61.2414 17.0982" stroke="#F2F2F2" stroke-width="2"/>
<path d="M51.8462 34.3162L66.2942 25.7281" stroke="#F2F2F2" stroke-width="2"/>
<path d="M56.8989 42.9461L71.3469 34.358" stroke="#F2F2F2" stroke-width="2"/>
<path d="M61.9514 51.575L76.3994 42.9869" stroke="#F2F2F2" stroke-width="2"/>
<path d="M67.0042 60.2049L81.4521 51.6168" stroke="#F2F2F2" stroke-width="2"/>
<path d="M72.0569 68.8348L86.5049 60.2467" stroke="#F2F2F2" stroke-width="2"/>
<path d="M77.1094 77.4647L91.5573 68.8765" stroke="#F2F2F2" stroke-width="2"/>
<path d="M82.1621 86.0936L96.6101 77.5054" stroke="#F2F2F2" stroke-width="2"/>
<path d="M51 -2L102 85" stroke="#F2F2F2" stroke-width="1.76622"/>
<path d="M20.7661 83.8779L65 58.5" stroke="#F2F2F2" stroke-width="1.76622"/>
<path d="M19 80.3779L63.2339 55" stroke="#F2F2F2" stroke-width="1.76622"/>
<path d="M3 53.3779L47.2339 28" stroke="#F2F2F2" stroke-width="1.76622"/>
<rect x="80.8083" y="21.508" width="11.9186" height="29.7966" rx="4.17152" transform="rotate(-28.566 80.8083 21.508)" stroke="#F2F2F2" stroke-width="1.19186"/>
<circle cx="88.8918" cy="23.8923" r="2.97966" transform="rotate(-28.566 88.8918 23.8923)" fill="#F2F2F2"/>
<circle cx="92.8813" cy="31.2205" r="2.97966" transform="rotate(-28.566 92.8813 31.2205)" fill="white"/>
<circle cx="96.8706" cy="38.5476" r="2.97966" transform="rotate(-28.566 96.8706 38.5476)" fill="white"/>
</g>
<defs>
<clipPath id="clip0">
<rect x="27" width="86" height="86" rx="6" fill="white"/>
</clipPath>
</defs>
</svg>
