<svg width="150" height="124" viewBox="0 0 150 124" fill="none" xmlns="http://www.w3.org/2000/svg">
<path d="M2.17285 114.99V120H0.485352V107.203H5.20508C6.60547 107.203 7.70117 107.561 8.49219 108.275C9.28906 108.99 9.6875 109.937 9.6875 111.114C9.6875 112.356 9.29785 113.314 8.51855 113.988C7.74512 114.656 6.63477 114.99 5.1875 114.99H2.17285ZM2.17285 113.61H5.20508C6.10742 113.61 6.79883 113.399 7.2793 112.978C7.75977 112.55 8 111.935 8 111.132C8 110.37 7.75977 109.761 7.2793 109.304C6.79883 108.847 6.13965 108.609 5.30176 108.592H2.17285V113.61ZM17.3516 120C17.2578 119.812 17.1816 119.479 17.123 118.998C16.3672 119.783 15.4648 120.176 14.416 120.176C13.4785 120.176 12.708 119.912 12.1045 119.385C11.5068 118.852 11.208 118.178 11.208 117.363C11.208 116.373 11.583 115.605 12.333 115.061C13.0889 114.51 14.1494 114.234 15.5146 114.234H17.0967V113.487C17.0967 112.919 16.9268 112.468 16.5869 112.134C16.2471 111.794 15.7461 111.624 15.084 111.624C14.5039 111.624 14.0176 111.771 13.625 112.063C13.2324 112.356 13.0361 112.711 13.0361 113.127H11.4014C11.4014 112.652 11.5684 112.195 11.9023 111.756C12.2422 111.311 12.6992 110.959 13.2734 110.701C13.8535 110.443 14.4893 110.314 15.1807 110.314C16.2764 110.314 17.1348 110.59 17.7559 111.141C18.377 111.686 18.6992 112.438 18.7227 113.399V117.776C18.7227 118.649 18.834 119.344 19.0566 119.859V120H17.3516ZM14.6533 118.761C15.1631 118.761 15.6465 118.629 16.1035 118.365C16.5605 118.102 16.8916 117.759 17.0967 117.337V115.386H15.8223C13.8301 115.386 12.834 115.969 12.834 117.135C12.834 117.645 13.0039 118.043 13.3438 118.33C13.6836 118.617 14.1201 118.761 14.6533 118.761ZM25.8682 111.949C25.6221 111.908 25.3555 111.888 25.0684 111.888C24.002 111.888 23.2783 112.342 22.8975 113.25V120H21.2715V110.49H22.8535L22.8799 111.589C23.4131 110.739 24.1689 110.314 25.1475 110.314C25.4639 110.314 25.7041 110.355 25.8682 110.438V111.949ZM30.0254 115.597L29.0059 116.66V120H27.3799V106.5H29.0059V114.665L29.876 113.619L32.8379 110.49H34.8154L31.1152 114.463L35.2461 120H33.3389L30.0254 115.597ZM38.2607 120H36.6348V110.49H38.2607V120ZM36.5029 107.968C36.5029 107.704 36.582 107.481 36.7402 107.3C36.9043 107.118 37.1445 107.027 37.4609 107.027C37.7773 107.027 38.0176 107.118 38.1816 107.3C38.3457 107.481 38.4277 107.704 38.4277 107.968C38.4277 108.231 38.3457 108.451 38.1816 108.627C38.0176 108.803 37.7773 108.891 37.4609 108.891C37.1445 108.891 36.9043 108.803 36.7402 108.627C36.582 108.451 36.5029 108.231 36.5029 107.968ZM42.4092 110.49L42.4619 111.686C43.1885 110.771 44.1377 110.314 45.3096 110.314C47.3193 110.314 48.333 111.448 48.3506 113.716V120H46.7246V113.707C46.7188 113.021 46.5605 112.515 46.25 112.187C45.9453 111.858 45.4678 111.694 44.8174 111.694C44.29 111.694 43.8271 111.835 43.4287 112.116C43.0303 112.397 42.7197 112.767 42.4971 113.224V120H40.8711V110.49H42.4092ZM50.416 115.166C50.416 113.684 50.7588 112.506 51.4443 111.633C52.1299 110.754 53.0381 110.314 54.1689 110.314C55.3291 110.314 56.2344 110.725 56.8848 111.545L56.9639 110.49H58.4492V119.771C58.4492 121.002 58.083 121.972 57.3506 122.681C56.624 123.39 55.6455 123.744 54.415 123.744C53.7295 123.744 53.0586 123.598 52.4023 123.305C51.7461 123.012 51.2451 122.61 50.8994 122.101L51.7432 121.125C52.4404 121.986 53.293 122.417 54.3008 122.417C55.0918 122.417 55.707 122.194 56.1465 121.749C56.5918 121.304 56.8145 120.677 56.8145 119.868V119.051C56.1641 119.801 55.2764 120.176 54.1514 120.176C53.0381 120.176 52.1357 119.728 51.4443 118.831C50.7588 117.935 50.416 116.713 50.416 115.166ZM52.0508 115.351C52.0508 116.423 52.2705 117.267 52.71 117.882C53.1494 118.491 53.7646 118.796 54.5557 118.796C55.5811 118.796 56.334 118.33 56.8145 117.398V113.057C56.3164 112.148 55.5693 111.694 54.5732 111.694C53.7822 111.694 53.1641 112.002 52.7188 112.617C52.2734 113.232 52.0508 114.144 52.0508 115.351ZM72.6963 116.66H67.335L66.1309 120H64.3906L69.2773 107.203H70.7539L75.6494 120H73.918L72.6963 116.66ZM67.8447 115.271H72.1953L70.0156 109.286L67.8447 115.271ZM79.8154 117.794L82.1709 110.49H83.832L80.4219 120H79.1826L75.7373 110.49H77.3984L79.8154 117.794ZM91.127 120C91.0332 119.812 90.957 119.479 90.8984 118.998C90.1426 119.783 89.2402 120.176 88.1914 120.176C87.2539 120.176 86.4834 119.912 85.8799 119.385C85.2822 118.852 84.9834 118.178 84.9834 117.363C84.9834 116.373 85.3584 115.605 86.1084 115.061C86.8643 114.51 87.9248 114.234 89.29 114.234H90.8721V113.487C90.8721 112.919 90.7021 112.468 90.3623 112.134C90.0225 111.794 89.5215 111.624 88.8594 111.624C88.2793 111.624 87.793 111.771 87.4004 112.063C87.0078 112.356 86.8115 112.711 86.8115 113.127H85.1768C85.1768 112.652 85.3438 112.195 85.6777 111.756C86.0176 111.311 86.4746 110.959 87.0488 110.701C87.6289 110.443 88.2646 110.314 88.9561 110.314C90.0518 110.314 90.9102 110.59 91.5312 111.141C92.1523 111.686 92.4746 112.438 92.498 113.399V117.776C92.498 118.649 92.6094 119.344 92.832 119.859V120H91.127ZM88.4287 118.761C88.9385 118.761 89.4219 118.629 89.8789 118.365C90.3359 118.102 90.667 117.759 90.8721 117.337V115.386H89.5977C87.6055 115.386 86.6094 115.969 86.6094 117.135C86.6094 117.645 86.7793 118.043 87.1191 118.33C87.459 118.617 87.8955 118.761 88.4287 118.761ZM96.8135 120H95.1875V110.49H96.8135V120ZM95.0557 107.968C95.0557 107.704 95.1348 107.481 95.293 107.3C95.457 107.118 95.6973 107.027 96.0137 107.027C96.3301 107.027 96.5703 107.118 96.7344 107.3C96.8984 107.481 96.9805 107.704 96.9805 107.968C96.9805 108.231 96.8984 108.451 96.7344 108.627C96.5703 108.803 96.3301 108.891 96.0137 108.891C95.6973 108.891 95.457 108.803 95.293 108.627C95.1348 108.451 95.0557 108.231 95.0557 107.968ZM101.19 120H99.5645V106.5H101.19V120ZM109.672 120C109.578 119.812 109.502 119.479 109.443 118.998C108.688 119.783 107.785 120.176 106.736 120.176C105.799 120.176 105.028 119.912 104.425 119.385C103.827 118.852 103.528 118.178 103.528 117.363C103.528 116.373 103.903 115.605 104.653 115.061C105.409 114.51 106.47 114.234 107.835 114.234H109.417V113.487C109.417 112.919 109.247 112.468 108.907 112.134C108.567 111.794 108.066 111.624 107.404 111.624C106.824 111.624 106.338 111.771 105.945 112.063C105.553 112.356 105.356 112.711 105.356 113.127H103.722C103.722 112.652 103.889 112.195 104.223 111.756C104.562 111.311 105.02 110.959 105.594 110.701C106.174 110.443 106.81 110.314 107.501 110.314C108.597 110.314 109.455 110.59 110.076 111.141C110.697 111.686 111.02 112.438 111.043 113.399V117.776C111.043 118.649 111.154 119.344 111.377 119.859V120H109.672ZM106.974 118.761C107.483 118.761 107.967 118.629 108.424 118.365C108.881 118.102 109.212 117.759 109.417 117.337V115.386H108.143C106.15 115.386 105.154 115.969 105.154 117.135C105.154 117.645 105.324 118.043 105.664 118.33C106.004 118.617 106.44 118.761 106.974 118.761ZM121.643 115.351C121.643 116.804 121.309 117.973 120.641 118.857C119.973 119.736 119.076 120.176 117.951 120.176C116.75 120.176 115.821 119.751 115.165 118.901L115.086 120H113.592V106.5H115.218V111.536C115.874 110.722 116.779 110.314 117.934 110.314C119.088 110.314 119.993 110.751 120.649 111.624C121.312 112.497 121.643 113.692 121.643 115.21V115.351ZM120.017 115.166C120.017 114.059 119.803 113.203 119.375 112.6C118.947 111.996 118.332 111.694 117.529 111.694C116.457 111.694 115.687 112.192 115.218 113.188V117.302C115.716 118.298 116.492 118.796 117.547 118.796C118.326 118.796 118.933 118.494 119.366 117.891C119.8 117.287 120.017 116.379 120.017 115.166ZM125.466 120H123.84V110.49H125.466V120ZM123.708 107.968C123.708 107.704 123.787 107.481 123.945 107.3C124.109 107.118 124.35 107.027 124.666 107.027C124.982 107.027 125.223 107.118 125.387 107.3C125.551 107.481 125.633 107.704 125.633 107.968C125.633 108.231 125.551 108.451 125.387 108.627C125.223 108.803 124.982 108.891 124.666 108.891C124.35 108.891 124.109 108.803 123.945 108.627C123.787 108.451 123.708 108.231 123.708 107.968ZM129.843 120H128.217V106.5H129.843V120ZM134.22 120H132.594V110.49H134.22V120ZM132.462 107.968C132.462 107.704 132.541 107.481 132.699 107.3C132.863 107.118 133.104 107.027 133.42 107.027C133.736 107.027 133.977 107.118 134.141 107.3C134.305 107.481 134.387 107.704 134.387 107.968C134.387 108.231 134.305 108.451 134.141 108.627C133.977 108.803 133.736 108.891 133.42 108.891C133.104 108.891 132.863 108.803 132.699 108.627C132.541 108.451 132.462 108.231 132.462 107.968ZM139.036 108.188V110.49H140.812V111.747H139.036V117.645C139.036 118.025 139.115 118.312 139.273 118.506C139.432 118.693 139.701 118.787 140.082 118.787C140.27 118.787 140.527 118.752 140.855 118.682V120C140.428 120.117 140.012 120.176 139.607 120.176C138.881 120.176 138.333 119.956 137.964 119.517C137.595 119.077 137.41 118.453 137.41 117.645V111.747H135.679V110.49H137.41V108.188H139.036ZM145.83 117.618L148.045 110.49H149.785L145.962 121.468C145.37 123.05 144.43 123.841 143.141 123.841L142.833 123.814L142.227 123.7V122.382L142.666 122.417C143.217 122.417 143.645 122.306 143.949 122.083C144.26 121.86 144.515 121.453 144.714 120.861L145.074 119.895L141.682 110.49H143.457L145.83 117.618Z" fill="#F2F2F2"/>
<rect x="33" y="1" width="84" height="84" rx="5" stroke="#F2F2F2" stroke-width="2"/>
<g clip-path="url(#clip0)">
<path d="M33.6147 119.574L156.073 58.0508" stroke="#F2F2F2" stroke-width="1.76622"/>
<path d="M24.7834 96.0254L147.242 34.502" stroke="#F2F2F2" stroke-width="1.76622"/>
<path d="M26.5496 98.3799L149.008 36.8564" stroke="#F2F2F2" stroke-width="1.76622"/>
<path d="M14.186 77.7744L136.644 16.251" stroke="#F2F2F2" stroke-width="1.76622"/>
<path d="M1 56.5234L123.458 -5" stroke="#F2F2F2" stroke-width="1.76622"/>
<path d="M7.37731 58.9338L6.9033 59.7603C5.62323 61.9924 5.54919 64.7181 6.7062 67.0164C7.8632 69.3147 10.0967 70.8787 12.6521 71.18L13.5984 71.2916C15.1554 71.4751 16.732 71.1972 18.1323 70.4922L44.4931 57.2218C47.4529 55.7318 48.6444 52.1245 47.1544 49.1647L45.1378 45.1589C43.6478 42.1991 40.0405 41.0076 37.0807 42.4976L10.7199 55.768C9.31957 56.4729 8.15724 57.5738 7.37731 58.9338Z" fill="#F2F2F2"/>
<path d="M92.7447 17.134L92.2707 17.9605C90.9907 20.1926 90.9166 22.9183 92.0736 25.2166C93.2306 27.5149 95.4641 29.0789 98.0196 29.3802L98.9658 29.4918C100.523 29.6753 102.099 29.3974 103.5 28.6924L129.861 15.422C132.82 13.932 134.012 10.3247 132.522 7.36488L130.505 3.35909C129.015 0.399275 125.408 -0.792232 122.448 0.697782L96.0873 13.9682C94.687 14.6731 93.5247 15.774 92.7447 17.134Z" fill="#F2F2F2"/>
<path d="M44 35L55.3981 56.5796" stroke="#F2F2F2" stroke-width="1.76622"/>
<path d="M82 16.5L93.3718 38.0348" stroke="#F2F2F2" stroke-width="1.76622"/>
<path d="M67.5852 31.476L63.7952 33.4023L68.7142 43.0804L70.8799 41.9797L69.2402 38.7536L70.8645 37.9281C72.6567 37.0172 73.378 34.8306 72.4734 33.0509C71.5689 31.2712 69.3773 30.5651 67.5852 31.476ZM69.8797 35.7223L68.1471 36.603L67.054 34.4523L68.7866 33.5717C69.3822 33.269 70.1154 33.5052 70.416 34.0966C70.7166 34.6881 70.4753 35.4196 69.8797 35.7223Z" fill="#F2F2F2"/>
<rect x="58.436" y="32.5988" width="15.896" height="16.4503" rx="3.23807" transform="rotate(-26.7901 58.436 32.5988)" stroke="#F2F2F2" stroke-width="0.588741"/>
</g>
<defs>
<clipPath id="clip0">
<rect x="32" width="86" height="86" rx="6" fill="white"/>
</clipPath>
</defs>
</svg>
