<svg width="78.207794" height="78.207794" viewBox="0 0 78.207794 78.207794" xmlns="http://www.w3.org/2000/svg">
    <defs/>
    <path id="path126" fill="#ff0000" stroke="#ffffff" stroke-width="6.93586016" d="M 74.341779 39.289693 C 74.341779 58.750976 58.565291 74.527465 39.104007 74.527465 C 19.642724 74.527465 3.8662344 58.750976 3.8662344 39.289693 C 3.8662344 19.828409 19.642724 4.0519219 39.104007 4.0519219 C 58.565291 4.0519219 74.341779 19.828409 74.341779 39.289693 Z"/>
    <path id="text819" fill="#ffffff" stroke="none" d="M 35.43849454311 54.91927 L 14.60924022461 54.91927 L 14.60924022461 51.81980759881 L 22.95394668936 43.43175200957 C 25.49709532623 40.85970395637 27.17326147326 39.02459101953 27.98244513045 37.92641319906 C 28.79162878764 36.82823537859 29.39851653053 35.75895697445 29.80310835912 34.71857798664 C 30.20770018771 33.67819899883 30.40999610201 32.55834661611 30.40999610201 31.3590208385 C 30.40999610201 29.6684049833 29.89703146219 28.32819455108 28.87110218254 27.33838954185 C 27.84517290289 26.34858453261 26.42187664873 25.85368202799 24.60121342006 25.85368202799 C 23.28628997713 25.85368202799 22.04000264798 26.07042765045 20.86235143261 26.50391889537 C 19.68470021724 26.93741014029 18.37338920135 27.72491923523 16.92841838494 28.8664461802 L 15.02105690729 26.41722064639 C 17.93989795643 23.98966967482 21.11883375252 22.77589418904 24.55786429557 22.77589418904 C 27.53450417736 22.77589418904 29.86813204586 23.5381162947 31.55874790105 25.06256050601 C 33.24936375625 26.58700471731 34.09467168385 28.63525084957 34.09467168385 31.20729890277 C 34.09467168385 33.21580833758 33.53113306545 35.20264321014 32.40405582865 37.16780352045 C 31.27697859186 39.13296383076 29.1673211999 41.61831363498 26.07508365279 44.62385293311 L 19.13922373404 51.40799091613 L 19.13922373404 51.5813874141 L 35.43849454311 51.5813874141 L 35.43849454311 54.91927 Z M 60.99280343125 39.03181587361 C 60.99280343125 44.50825526779 60.12943336845 48.59752267822 58.40269324284 51.2996181049 C 56.67595311724 54.00171353158 54.03526895025 55.35276124492 50.48064074189 55.35276124492 C 47.07050961518 55.35276124492 44.47678699973 53.96920168821 42.69947289555 51.20208257479 C 40.92215879137 48.43496346138 40.03350173928 44.37820789432 40.03350173928 39.03181587361 C 40.03350173928 33.51202735494 40.89325937504 29.41553509043 42.61277464656 26.74233908008 C 44.33228991809 24.06914306973 46.95491194986 22.73254506455 50.48064074189 22.73254506455 C 53.91967128494 22.73254506455 56.5314560356 24.12694190238 58.31599499386 26.91573557805 C 60.10053395212 29.70452925371 60.99280343125 33.74322268557 60.99280343125 39.03181587361 Z M 43.67482819662 39.03181587361 C 43.67482819662 43.64127277795 44.21669225277 46.99721749905 45.30042036508 49.09965003692 C 46.38414847738 51.20208257479 48.11088860299 52.25329884373 50.48064074189 52.25329884373 C 52.87929229713 52.25329884373 54.61686970386 51.18763286663 55.69337296208 49.05630091243 C 56.7698762203 46.92496895823 57.30812784941 43.58347394529 57.30812784941 39.03181587361 C 57.30812784941 34.48015780193 56.7698762203 31.14588764308 55.69337296208 29.02900539704 C 54.61686970386 26.91212315101 52.87929229713 25.85368202799 50.48064074189 25.85368202799 C 48.11088860299 25.85368202799 46.38414847738 26.89767344284 45.30042036508 28.98565627255 C 44.21669225277 31.07363910226 43.67482819662 34.42235896928 43.67482819662 39.03181587361 Z"/>
</svg>
