<svg width="78.207794" height="78.207794" viewBox="0 0 78.207794 78.207794" xmlns="http://www.w3.org/2000/svg">
    <defs/>
    <path id="path126" fill="#0672B9" stroke="#ffffff" stroke-width="2" d="M 77.207794 39.103897 C 77.207794 60.148098 60.148098 77.207794 39.103897 77.207794 C 18.059696 77.207794 1 60.148098 1 39.103897 C 1 18.059696 18.059696 1 39.103897 1 C 60.148098 1 77.207794 18.059696 77.207794 39.103897 Z"/>
    <path id="path2" fill="#f2f2f2" stroke="none" d="M 20.737145 49.283718 C 20.737145 51.381751 21.666967 53.265102 23.121285 54.576519 L 23.121285 58.820187 C 23.121285 60.131604 24.19415 61.204304 25.505427 61.204304 L 27.889567 61.204304 C 29.200843 61.204304 30.273708 60.131604 30.273708 58.820187 L 30.273708 56.43607 L 49.346763 56.43607 L 49.346763 58.820187 C 49.346763 60.131604 50.419698 61.204304 51.73088 61.204304 L 54.114997 61.204304 C 55.426416 61.204304 56.499351 60.131604 56.499351 58.820187 L 56.499351 54.576519 C 57.953574 53.265102 58.883468 51.381751 58.883468 49.283718 L 58.883468 25.442287 C 58.883468 17.097783 50.348059 15.905724 39.810294 15.905724 C 29.272365 15.905724 20.737145 17.097783 20.737145 25.442287 Z M 29.081625 51.667835 C 27.102788 51.667835 25.505427 50.070332 25.505427 48.091542 C 25.505427 46.112751 27.102788 44.515484 29.081625 44.515484 C 31.060464 44.515484 32.657848 46.112751 32.657848 48.091542 C 32.657848 50.070332 31.060464 51.667835 29.081625 51.667835 Z M 50.538939 51.667835 C 48.560149 51.667835 46.962646 50.070332 46.962646 48.091542 C 46.962646 46.112751 48.560149 44.515484 50.538939 44.515484 C 52.517732 44.515484 54.114997 46.112751 54.114997 48.091542 C 54.114997 50.070332 52.517732 51.667835 50.538939 51.667835 Z M 54.114997 37.362896 L 25.505427 37.362896 L 25.505427 25.442287 L 54.114997 25.442287 Z"/>
</svg>
