<svg width="28" height="36" viewBox="0 0 28 36" fill="none" xmlns="http://www.w3.org/2000/svg">
<path d="M25.4545 2.57143H15.2727C15.2727 2.57143 15.2727 1.60485 15.2727 1.28571C15.2727 0.575638 14.7029 0 14 0C13.2971 0 12.7273 0.575638 12.7273 1.28571C12.7273 1.99579 12.7273 2.57143 12.7273 2.57143H2.54545C1.13965 2.57143 0 3.72271 0 5.14286V7.71429C0 9.13444 1.13965 10.2857 2.54545 10.2857V33.4286C2.54545 34.8487 3.6851 36 5.09091 36H22.9091C24.3149 36 25.4545 34.8487 25.4545 33.4286V10.2857C26.8604 10.2857 28 9.13444 28 7.71429V5.14286C28 3.72271 26.8604 2.57143 25.4545 2.57143ZM22.9091 32.1429C22.9091 32.8529 22.3393 33.4286 21.6364 33.4286H6.36364C5.66073 33.4286 5.09091 32.8529 5.09091 32.1429V10.2857H7.63636V29.5714C7.63636 30.2815 8.20619 30.8571 8.90909 30.8571C9.61199 30.8571 10.1818 30.2815 10.1818 29.5714L10.1972 10.2857H12.7273V29.5714C12.7273 30.2815 13.2971 30.8571 14 30.8571C14.7029 30.8571 15.2727 30.2815 15.2727 29.5714L15.2881 10.2857H17.8336L17.8182 29.5714C17.8182 30.2815 18.388 30.8571 19.0909 30.8571C19.7938 30.8571 20.3636 30.2815 20.3636 29.5714V10.2857H22.9091V32.1429ZM25.4545 7.07143C25.4545 7.42649 25.1697 7.71429 24.8182 7.71429H3.18182C2.83035 7.71429 2.54545 7.42649 2.54545 7.07143V5.78571C2.54545 5.43066 2.83035 5.14286 3.18182 5.14286H24.8182C25.1697 5.14286 25.4545 5.43066 25.4545 5.78571V7.07143Z" fill="white"/>
</svg>
