<svg width="138" height="36" viewBox="0 0 138 36" fill="none" xmlns="http://www.w3.org/2000/svg">
<path d="M13.2729 23.2501V27.0001H17.0229L28.0829 15.9401L24.3329 12.1901L13.2729 23.2501ZM30.9829 13.0401C31.3729 12.6501 31.3729 12.0201 30.9829 11.6301L28.6429 9.29006C28.2529 8.90006 27.6229 8.90006 27.2329 9.29006L25.403 11.1201L29.153 14.8701L30.9829 13.0401Z" fill="white"/>
<path d="M46.3311 24.9999V10.2999H55.067V12.0219H48.1581V16.5369H52.7151V18.2589H48.1581V23.2569H55.5291V24.9999H46.3311ZM62.3881 25.2519C61.0301 25.2519 59.9521 24.7479 59.1541 23.7399C58.3561 22.7319 57.9571 21.3599 57.9571 19.6239C57.9571 17.8739 58.3561 16.5019 59.1541 15.5079C59.9661 14.5139 61.0441 14.0169 62.3881 14.0169C63.4381 14.0169 64.341 14.3529 65.097 15.0249V10.6989L66.9241 9.83789V24.9999H65.097V24.1599C64.397 24.8879 63.4941 25.2519 62.3881 25.2519ZM62.6401 23.5509C63.7041 23.5509 64.523 23.0679 65.097 22.1019V17.0619C64.523 16.1519 63.7041 15.6969 62.6401 15.6969C61.7301 15.6969 61.0301 16.0399 60.5401 16.7259C60.0501 17.3979 59.8051 18.3639 59.8051 19.6239C59.8051 20.7579 60.0571 21.6959 60.5611 22.4379C61.0791 23.1799 61.7721 23.5509 62.6401 23.5509ZM72.1221 12.0009C71.8981 12.2109 71.6251 12.3159 71.3031 12.3159C70.9811 12.3159 70.7081 12.2039 70.4841 11.9799C70.2741 11.7559 70.1691 11.4899 70.1691 11.1819C70.1691 10.8599 70.2811 10.5869 70.5051 10.3629C70.7291 10.1249 70.9951 10.0059 71.3031 10.0059C71.6251 10.0059 71.8981 10.1249 72.1221 10.3629C72.3461 10.5869 72.4581 10.8599 72.4581 11.1819C72.4581 11.5039 72.3461 11.7769 72.1221 12.0009ZM70.4001 24.9999V14.2689H72.2271V24.9999H70.4001ZM78.6091 25.2519C77.0971 25.2519 76.3411 24.3979 76.3411 22.6899V15.8649H74.5981V14.2689H76.3411V10.7199L78.1681 9.83789V14.2689H80.8141V15.8649H78.1681V22.0809C78.1681 22.5569 78.245 22.9209 78.399 23.1729C78.553 23.4249 78.8471 23.5509 79.2811 23.5509C79.7571 23.5509 80.2891 23.3619 80.8771 22.9839L80.6671 24.7689C80.0511 25.0909 79.3651 25.2519 78.6091 25.2519ZM101.591 24.9999H99.7641V15.9699C99.7641 15.3959 99.7781 14.8569 99.8061 14.3529C99.6661 14.7449 99.4491 15.2979 99.1551 16.0119L95.123 25.2519L91.2171 15.9699C90.8811 15.1579 90.6711 14.6259 90.5871 14.3739C90.6291 14.7519 90.6501 15.2839 90.6501 15.9699V24.9999H88.8231V10.2999H90.5451L94.8081 20.1909L95.1861 21.1779C95.2421 21.0099 95.3681 20.6809 95.5641 20.1909L99.8481 10.2999H101.591V24.9999ZM111.518 24.9999V24.0129C110.636 24.8389 109.621 25.2519 108.473 25.2519C107.339 25.2519 106.429 24.9439 105.743 24.3279C105.071 23.6979 104.735 22.8019 104.735 21.6399C104.735 20.4779 105.12 19.5959 105.89 18.9939C106.66 18.3919 107.612 18.0909 108.746 18.0909C109.782 18.0909 110.706 18.3219 111.518 18.7839V18.0279C111.518 17.1319 111.315 16.5089 110.909 16.1589C110.517 15.7949 109.943 15.6129 109.187 15.6129C108.109 15.6129 107.066 15.9699 106.058 16.6839L105.533 15.1509C106.681 14.3949 107.976 14.0169 109.418 14.0169C111.966 14.0169 113.24 15.3049 113.24 17.8809V24.9999H111.518ZM108.746 23.6349C109.796 23.6349 110.72 23.1659 111.518 22.2279V20.3799C110.748 19.9039 109.908 19.6659 108.998 19.6659C108.256 19.6659 107.647 19.8339 107.171 20.1699C106.695 20.5059 106.457 20.9959 106.457 21.6399C106.457 22.2419 106.653 22.7249 107.045 23.0889C107.451 23.4529 108.018 23.6349 108.746 23.6349ZM120.997 25.2519C119.877 25.2519 118.96 24.8319 118.246 23.9919V28.3809L116.419 29.2419V14.2689H118.246V15.1719C119.016 14.4019 119.933 14.0169 120.997 14.0169C122.355 14.0169 123.433 14.5209 124.231 15.5289C125.029 16.5369 125.428 17.9019 125.428 19.6239C125.428 21.3739 125.022 22.7529 124.21 23.7609C123.398 24.7549 122.327 25.2519 120.997 25.2519ZM120.766 23.5509C121.662 23.5509 122.348 23.2149 122.824 22.5429C123.314 21.8569 123.559 20.8839 123.559 19.6239C123.559 18.4339 123.307 17.4819 122.803 16.7679C122.313 16.0539 121.634 15.6969 120.766 15.6969C119.632 15.6969 118.792 16.1799 118.246 17.1459V22.1019C118.988 23.0679 119.828 23.5509 120.766 23.5509Z" fill="#F2F2F2"/>
<path d="M133.273 1H4.27295C2.61609 1 1.27295 2.34315 1.27295 4V32C1.27295 33.6569 2.61609 35 4.27295 35H133.273C134.93 35 136.273 33.6569 136.273 32V4C136.273 2.34315 134.93 1 133.273 1Z" stroke="white" stroke-width="2"/>
</svg>
