<svg width="123" height="30" viewBox="0 0 123 30" fill="none" xmlns="http://www.w3.org/2000/svg">
<path d="M26.1333 19.6668L20.0667 13.6002C20.6667 12.0668 20.3333 10.2668 19.0667 9.00017C17.7333 7.66684 15.7333 7.40017 14.1333 8.1335L17 11.0002L15 13.0002L12.0667 10.1335C11.2667 11.7335 11.6 13.7335 12.9333 15.0668C14.2 16.3335 16 16.6668 17.5333 16.0668L23.6 22.1335C23.8667 22.4002 24.2667 22.4002 24.5333 22.1335L26.0667 20.6002C26.4 20.3335 26.4 19.8668 26.1333 19.6668Z" fill="#F2F2F2"/>
<path d="M40.6172 21.1758C39.3281 21.1758 38.2793 20.7539 37.4707 19.9102C36.6621 19.0605 36.2578 17.9268 36.2578 16.5088V16.21C36.2578 15.2666 36.4365 14.4258 36.7939 13.6875C37.1572 12.9434 37.6611 12.3633 38.3057 11.9473C38.9561 11.5254 39.6592 11.3145 40.415 11.3145C41.6514 11.3145 42.6123 11.7217 43.2979 12.5361C43.9834 13.3506 44.3262 14.5166 44.3262 16.0342V16.7109H37.8838C37.9072 17.6484 38.1797 18.4072 38.7012 18.9873C39.2285 19.5615 39.8965 19.8486 40.7051 19.8486C41.2793 19.8486 41.7656 19.7314 42.1641 19.4971C42.5625 19.2627 42.9111 18.9521 43.21 18.5654L44.2031 19.3389C43.4062 20.5635 42.2109 21.1758 40.6172 21.1758ZM40.415 12.6504C39.7588 12.6504 39.208 12.8906 38.7627 13.3711C38.3174 13.8457 38.042 14.5137 37.9365 15.375H42.7002V15.252C42.6533 14.4258 42.4307 13.7871 42.0322 13.3359C41.6338 12.8789 41.0947 12.6504 40.415 12.6504ZM45.8203 16.166C45.8203 14.707 46.166 13.5352 46.8574 12.6504C47.5488 11.7598 48.4541 11.3145 49.5732 11.3145C50.6865 11.3145 51.5684 11.6953 52.2188 12.457V7.5H53.8447V21H52.3506L52.2715 19.9805C51.6211 20.7773 50.7158 21.1758 49.5557 21.1758C48.4541 21.1758 47.5547 20.7246 46.8574 19.8223C46.166 18.9199 45.8203 17.7422 45.8203 16.2891V16.166ZM47.4463 16.3506C47.4463 17.4287 47.6689 18.2725 48.1143 18.8818C48.5596 19.4912 49.1748 19.7959 49.96 19.7959C50.9912 19.7959 51.7441 19.333 52.2188 18.4072V14.0391C51.7324 13.1426 50.9854 12.6943 49.9775 12.6943C49.1807 12.6943 48.5596 13.002 48.1143 13.6172C47.6689 14.2324 47.4463 15.1436 47.4463 16.3506ZM58.1426 21H56.5166V11.4902H58.1426V21ZM56.3848 8.96777C56.3848 8.7041 56.4639 8.48145 56.6221 8.2998C56.7861 8.11816 57.0264 8.02734 57.3428 8.02734C57.6592 8.02734 57.8994 8.11816 58.0635 8.2998C58.2275 8.48145 58.3096 8.7041 58.3096 8.96777C58.3096 9.23145 58.2275 9.45117 58.0635 9.62695C57.8994 9.80273 57.6592 9.89062 57.3428 9.89062C57.0264 9.89062 56.7861 9.80273 56.6221 9.62695C56.4639 9.45117 56.3848 9.23145 56.3848 8.96777ZM62.959 9.1875V11.4902H64.7344V12.7471H62.959V18.6445C62.959 19.0254 63.0381 19.3125 63.1963 19.5059C63.3545 19.6934 63.624 19.7871 64.0049 19.7871C64.1924 19.7871 64.4502 19.752 64.7783 19.6816V21C64.3506 21.1172 63.9346 21.1758 63.5303 21.1758C62.8037 21.1758 62.2559 20.9561 61.8867 20.5166C61.5176 20.0771 61.333 19.4531 61.333 18.6445V12.7471H59.6016V11.4902H61.333V9.1875H62.959ZM72.6357 11.4902L72.6797 12.5449C73.377 11.7246 74.3174 11.3145 75.501 11.3145C76.8311 11.3145 77.7363 11.8242 78.2168 12.8438C78.5332 12.3867 78.9434 12.0176 79.4473 11.7363C79.957 11.4551 80.5576 11.3145 81.249 11.3145C83.335 11.3145 84.3955 12.4189 84.4307 14.6279V21H82.8047V14.7246C82.8047 14.0449 82.6494 13.5381 82.3389 13.2041C82.0283 12.8643 81.5068 12.6943 80.7744 12.6943C80.1709 12.6943 79.6699 12.876 79.2715 13.2393C78.873 13.5967 78.6416 14.0801 78.5771 14.6895V21H76.9424V14.7686C76.9424 13.3857 76.2656 12.6943 74.9121 12.6943C73.8457 12.6943 73.1162 13.1484 72.7236 14.0566V21H71.0977V11.4902H72.6357ZM92.7627 21C92.6689 20.8125 92.5928 20.4785 92.5342 19.998C91.7783 20.7832 90.876 21.1758 89.8271 21.1758C88.8896 21.1758 88.1191 20.9121 87.5156 20.3848C86.918 19.8516 86.6191 19.1777 86.6191 18.3633C86.6191 17.373 86.9941 16.6055 87.7441 16.0605C88.5 15.5098 89.5605 15.2344 90.9258 15.2344H92.5078V14.4873C92.5078 13.9189 92.3379 13.4678 91.998 13.1338C91.6582 12.7939 91.1572 12.624 90.4951 12.624C89.915 12.624 89.4287 12.7705 89.0361 13.0635C88.6436 13.3564 88.4473 13.7109 88.4473 14.127H86.8125C86.8125 13.6523 86.9795 13.1953 87.3135 12.7559C87.6533 12.3105 88.1104 11.959 88.6846 11.7012C89.2646 11.4434 89.9004 11.3145 90.5918 11.3145C91.6875 11.3145 92.5459 11.5898 93.167 12.1406C93.7881 12.6855 94.1104 13.4385 94.1338 14.3994V18.7764C94.1338 19.6494 94.2451 20.3438 94.4678 20.8594V21H92.7627ZM90.0645 19.7607C90.5742 19.7607 91.0576 19.6289 91.5146 19.3652C91.9717 19.1016 92.3027 18.7588 92.5078 18.3369V16.3857H91.2334C89.2412 16.3857 88.2451 16.9688 88.2451 18.1348C88.2451 18.6445 88.415 19.043 88.7549 19.3301C89.0947 19.6172 89.5312 19.7607 90.0645 19.7607ZM104.716 16.3506C104.716 17.7979 104.385 18.9639 103.723 19.8486C103.061 20.7334 102.164 21.1758 101.033 21.1758C99.8789 21.1758 98.9707 20.8096 98.3086 20.0771V24.6562H96.6826V11.4902H98.168L98.2471 12.5449C98.9092 11.7246 99.8291 11.3145 101.007 11.3145C102.149 11.3145 103.052 11.7451 103.714 12.6064C104.382 13.4678 104.716 14.666 104.716 16.2012V16.3506ZM103.09 16.166C103.09 15.0938 102.861 14.2471 102.404 13.626C101.947 13.0049 101.32 12.6943 100.523 12.6943C99.5391 12.6943 98.8008 13.1309 98.3086 14.0039V18.5479C98.7949 19.415 99.5391 19.8486 100.541 19.8486C101.32 19.8486 101.938 19.541 102.396 18.9258C102.858 18.3047 103.09 17.3848 103.09 16.166Z" fill="white"/>
<rect x="1" y="1" width="121" height="28" rx="5" stroke="#F2F2F2" stroke-width="2"/>
</svg>
