<svg width="24" height="24" viewBox="0 0 24 24" fill="none" xmlns="http://www.w3.org/2000/svg">
<path d="M23.341 13.0087C24.2197 12.0502 24.2197 10.496 23.341 9.53747L15.841 1.35565C14.9623 0.3971 13.5378 0.397049 12.659 1.35565L0.659004 14.4466C-0.219668 15.4051 -0.219668 16.9592 0.659004 17.9178L5.159 22.8269C5.58098 23.2872 6.15329 23.5458 6.75004 23.5458H23.4375C23.7482 23.5458 24 23.2711 24 22.9322V20.8867C24 20.5478 23.7482 20.2731 23.4375 20.2731H16.6821L23.341 13.0087ZM9.15538 9.80619L15.5947 16.8309L12.4394 20.2731H7.06072L3.31072 16.1822L9.15538 9.80619Z" fill="white"/>
</svg>
