<svg width="69" height="22" viewBox="0 0 69 22" fill="none" xmlns="http://www.w3.org/2000/svg">
<path d="M2.55 4.46L3.96 3.05L5.75 4.85L4.34 6.26L2.55 4.46ZM10 0.549999H12V3.5H10V0.549999ZM3 12.5H0V10.5H3V12.5ZM14 16.69V21.5H8V16.69C6.21 15.65 5 13.72 5 11.5C5 8.19 7.69 5.5 11 5.5C14.31 5.5 17 8.19 17 11.5C17 13.72 15.79 15.65 14 16.69ZM19 12.5V10.5H22V12.5H19ZM16.24 4.84L18.03 3.04L19.44 4.45L17.64 6.24L16.24 4.84Z" fill="white"/>
<path d="M34.743 18V3.678L36.57 2.838V8.382C37.228 7.472 38.152 7.017 39.342 7.017C40.602 7.017 41.554 7.402 42.198 8.172C42.856 8.928 43.185 10.146 43.185 11.826V18H41.358V11.511C41.358 10.545 41.148 9.838 40.728 9.39C40.322 8.928 39.762 8.697 39.048 8.697C37.396 8.697 36.57 9.621 36.57 11.469V18H34.743ZM48.319 5.001C48.095 5.211 47.822 5.316 47.5 5.316C47.178 5.316 46.905 5.204 46.681 4.98C46.471 4.756 46.366 4.49 46.366 4.182C46.366 3.86 46.478 3.587 46.702 3.363C46.926 3.125 47.192 3.006 47.5 3.006C47.822 3.006 48.095 3.125 48.319 3.363C48.543 3.587 48.655 3.86 48.655 4.182C48.655 4.504 48.543 4.777 48.319 5.001ZM46.597 18V7.269H48.424V18H46.597ZM58.523 18V11.511C58.523 10.545 58.313 9.838 57.893 9.39C57.487 8.928 56.927 8.697 56.213 8.697C54.561 8.697 53.735 9.621 53.735 11.469V18H51.908V7.269H53.735V8.361C54.393 7.465 55.317 7.017 56.507 7.017C57.767 7.017 58.719 7.402 59.363 8.172C60.021 8.928 60.35 10.146 60.35 11.826V18H58.523ZM66.639 18.252C65.127 18.252 64.371 17.398 64.371 15.69V8.865H62.628V7.269H64.371V3.72L66.198 2.838V7.269H68.844V8.865H66.198V15.081C66.198 15.557 66.275 15.921 66.429 16.173C66.583 16.425 66.877 16.551 67.311 16.551C67.787 16.551 68.319 16.362 68.907 15.984L68.697 17.769C68.081 18.091 67.395 18.252 66.639 18.252Z" fill="white"/>
</svg>
