<svg width="101" height="44" viewBox="0 0 101 44" fill="none" xmlns="http://www.w3.org/2000/svg">
<rect width="101" height="44" rx="4" fill="white"/>
<path d="M13.55 15.46L14.96 14.05L16.75 15.85L15.34 17.26L13.55 15.46ZM21 11.55H23V14.5H21V11.55ZM14 23.5H11V21.5H14V23.5ZM25 27.69V32.5H19V27.69C17.21 26.65 16 24.72 16 22.5C16 19.19 18.69 16.5 22 16.5C25.31 16.5 28 19.19 28 22.5C28 24.72 26.79 26.65 25 27.69ZM30 23.5V21.5H33V23.5H30ZM27.24 15.84L29.03 14.04L30.44 15.45L28.64 17.24L27.24 15.84Z" fill="#666666"/>
<path d="M45.9688 31V13.3075L48.6988 12.0475V18.8725C49.5388 17.805 50.6938 17.2712 52.1638 17.2712C55.3838 17.2712 56.9938 19.1787 56.9938 22.9937V31H54.2638V22.9937C54.2638 21.9262 54.0188 21.1387 53.5288 20.6312C53.0388 20.1062 52.3913 19.8437 51.5863 19.8437C49.6613 19.8437 48.6988 20.8762 48.6988 22.9412V31H45.9688ZM63.3575 15.0137C63.0425 15.3287 62.6575 15.4862 62.2025 15.4862C61.7475 15.4862 61.3538 15.3287 61.0213 15.0137C60.7063 14.6812 60.5488 14.2875 60.5488 13.8325C60.5488 13.3775 60.7063 12.9925 61.0213 12.6775C61.3538 12.345 61.7475 12.1787 62.2025 12.1787C62.6575 12.1787 63.0425 12.345 63.3575 12.6775C63.69 12.9925 63.8563 13.3775 63.8563 13.8325C63.8563 14.2875 63.69 14.6812 63.3575 15.0137ZM60.8375 31V17.5862H63.5675V31H60.8375ZM75.8226 31V22.9937C75.8226 21.9262 75.5776 21.1387 75.0876 20.6312C74.5976 20.1062 73.9501 19.8437 73.1451 19.8437C71.2201 19.8437 70.2576 20.8762 70.2576 22.9412V31H67.5276V17.5862H70.2576V18.8725C71.0976 17.805 72.2526 17.2712 73.7226 17.2712C76.9426 17.2712 78.5526 19.1787 78.5526 22.9937V31H75.8226ZM86.2551 31.315C84.2601 31.315 83.2626 30.2037 83.2626 27.9812V19.9487H81.1889V17.5862H83.2626V13.36L85.9926 12.0475V17.5862H89.1689V19.9487H85.9926V27.2725C85.9926 28.2875 86.4301 28.795 87.3051 28.795C87.9526 28.795 88.6176 28.585 89.3001 28.165L88.9589 30.7112C88.1539 31.1137 87.2526 31.315 86.2551 31.315Z" fill="#666666"/>
</svg>
