<svg width="32" height="32" viewBox="0 0 32 32" fill="none" xmlns="http://www.w3.org/2000/svg">
<path d="M23 17.2689H23.2689V17V15V14.7311H23H17.2689V9V8.73106H17H15H14.7311V9V14.7311H9H8.73106V15V17V17.2689H9H14.7311V23V23.2689H15H17H17.2689V23V17.2689H23Z" fill="#2A2A2A" stroke="white" stroke-width="0.53788"/>
<mask id="path-2-inside-1" fill="white">
<path d="M32 16C32 24.8366 24.8366 32 16 32C7.16344 32 0 24.8366 0 16C0 7.16344 7.16344 0 16 0C24.8366 0 32 7.16344 32 16ZM3.38919 16C3.38919 22.9648 9.03524 28.6108 16 28.6108C22.9648 28.6108 28.6108 22.9648 28.6108 16C28.6108 9.03524 22.9648 3.38919 16 3.38919C9.03524 3.38919 3.38919 9.03524 3.38919 16Z"/>
</mask>
<path d="M32 16C32 24.8366 24.8366 32 16 32C7.16344 32 0 24.8366 0 16C0 7.16344 7.16344 0 16 0C24.8366 0 32 7.16344 32 16ZM3.38919 16C3.38919 22.9648 9.03524 28.6108 16 28.6108C22.9648 28.6108 28.6108 22.9648 28.6108 16C28.6108 9.03524 22.9648 3.38919 16 3.38919C9.03524 3.38919 3.38919 9.03524 3.38919 16Z" fill="#2A2A2A" stroke="white" mask="url(#path-2-inside-1)"/>
</svg>
