<svg height='100px' width='100px'  fill="#000000" xmlns="http://www.w3.org/2000/svg" xmlns:xlink="http://www.w3.org/1999/xlink" xmlns:serif="http://www.serif.com/" viewBox="0 0 100 100" version="1.1" xml:space="preserve" style="" x="0px" y="0px" fill-rule="evenodd" clip-rule="evenodd" stroke-linejoin="round" stroke-miterlimit="1.41421"><rect serif:id="Page 5" x="0" y="0" width="100" height="100" style="" fill="none"></rect><path d="M67.203,75.364l-10.883,0l13.076,13.076l25.604,0l0,6.56l-28.322,0l-14.997,-14.998l0,10.884l-6.56,0l0,-15.522c0,-2.187 0,-4.374 0,-6.56l22.082,0l0,6.56Zm-36.007,-30.243l0,22.082l-6.56,0l0,-10.883l-13.076,13.076l0,25.604l-6.56,0l0,-28.322l14.998,-14.997l-10.884,0l0,-6.56c7.361,0 14.722,0 22.082,0Zm44.168,-1.441l13.076,-13.076l0,-25.604l6.56,0l0,28.322l-14.998,14.997l10.884,0l0,6.56l-22.082,0l0,-22.082l6.56,0l0,10.883Zm-20.485,-12.484l-22.082,0l0,-6.56l10.883,0l-13.076,-13.076l-25.604,0l0,-6.56l28.322,0l14.997,14.998l0,-10.884l6.56,0l0,22.082Z" style="" fill-rule="nonzero"></path></svg>