<svg width="18" height="18" viewBox="0 0 18 18" fill="none" xmlns="http://www.w3.org/2000/svg">
    <path d="M2.6625 4.095L3.72 3.0375L5.0625 4.3875L4.005 5.445L2.6625 4.095ZM8.25 1.1625H9.75V3.375H8.25V1.1625ZM3 10.125H0.75V8.625H3V10.125ZM11.25 13.2675V16.875H6.75V13.2675C5.4075 12.4875 4.5 11.04 4.5 9.375C4.5 6.8925 6.5175 4.875 9 4.875C11.4825 4.875 13.5 6.8925 13.5 9.375C13.5 11.04 12.5925 12.4875 11.25 13.2675ZM15 10.125V8.625H17.25V10.125H15ZM12.93 4.38L14.2725 3.03L15.33 4.0875L13.98 5.43L12.93 4.38Z" fill="#F2F2F2"/>
</svg>
