<svg width="19" height="24" viewBox="0 0 19 24" fill="none" xmlns="http://www.w3.org/2000/svg">
<path d="M11.5554 0.625H2.66656C1.44434 0.625 0.455447 1.65625 0.455447 2.91667L0.444336 21.25C0.444336 22.5104 1.43322 23.5417 2.65545 23.5417H15.9999C17.2221 23.5417 18.2221 22.5104 18.2221 21.25V7.5L11.5554 0.625ZM2.66656 2.91667H10.4443L15.9999 8.64583V18.4771L13.9554 16.3688C15.3777 14.1458 15.1443 11.1323 13.2443 9.17292C12.1666 8.06146 10.7554 7.5 9.33322 7.5C7.911 7.5 6.49989 8.06146 5.411 9.17292C3.24434 11.4073 3.24434 15.0281 5.411 17.251C6.48878 18.3625 7.911 18.924 9.33322 18.924C10.3999 18.924 11.4666 18.6031 12.3888 17.9729L15.5554 21.25H2.66656V2.91667ZM11.6777 15.6354C11.0554 16.2771 10.2221 16.6437 9.33322 16.6437C8.44434 16.6437 7.611 16.2885 6.98878 15.6354C6.36656 14.9938 6.011 14.1344 6.011 13.2177C6.011 12.301 6.35545 11.4417 6.98878 10.8C7.611 10.1469 8.44434 9.79167 9.33322 9.79167C10.2221 9.79167 11.0554 10.1469 11.6777 10.8C12.2999 11.4417 12.6554 12.301 12.6554 13.2177C12.6554 14.1344 12.311 14.9938 11.6777 15.6354Z" fill="black"/>
</svg>
