<svg width="32" height="32" viewBox="0 0 32 32" fill="none" xmlns="http://www.w3.org/2000/svg">
<path d="M16 10.1818C12.7855 10.1818 10.1818 12.7855 10.1818 16C10.1818 19.2145 12.7855 21.8182 16 21.8182C19.2145 21.8182 21.8182 19.2145 21.8182 16C21.8182 12.7855 19.2145 10.1818 16 10.1818ZM29.0036 14.5455C28.3345 8.48 23.52 3.66545 17.4545 2.99636V0H14.5455V2.99636C8.48 3.66545 3.66545 8.48 2.99636 14.5455H0V17.4545H2.99636C3.66545 23.52 8.48 28.3345 14.5455 29.0036V32H17.4545V29.0036C23.52 28.3345 28.3345 23.52 29.0036 17.4545H32V14.5455H29.0036V14.5455ZM16 26.1818C10.3709 26.1818 5.81818 21.6291 5.81818 16C5.81818 10.3709 10.3709 5.81818 16 5.81818C21.6291 5.81818 26.1818 10.3709 26.1818 16C26.1818 21.6291 21.6291 26.1818 16 26.1818Z" fill="white"/>
</svg>
