<svg width="32" height="32" viewBox="0 0 32 32" fill="none" xmlns="http://www.w3.org/2000/svg">
<path d="M16 29.343C17.786 27.79 26.5 19.809 26.5 12C26.5 6.21 21.79 1.5 16 1.5C10.21 1.5 5.5 6.21 5.5 12C5.5 19.809 14.214 27.79 16 29.343Z" fill="#CC4121"/>
<path d="M16 17.5C19.0376 17.5 21.5 15.0376 21.5 12C21.5 8.96243 19.0376 6.5 16 6.5C12.9624 6.5 10.5 8.96243 10.5 12C10.5 15.0376 12.9624 17.5 16 17.5Z" fill="#FFFAEE"/>
<path d="M16 1C9.925 1 5 5.925 5 12C5 21 16 30 16 30C16 30 27 21 27 12C27 5.925 22.075 1 16 1ZM16 28.677C13.71 26.629 6 19.202 6 12C6 6.486 10.486 2 16 2C21.514 2 26 6.486 26 12C26 19.202 18.29 26.629 16 28.677ZM16 6C12.686 6 10 8.686 10 12C10 15.314 12.686 18 16 18C19.314 18 22 15.314 22 12C22 8.686 19.314 6 16 6ZM16 17C13.243 17 11 14.757 11 12C11 9.243 13.243 7 16 7C18.757 7 21 9.243 21 12C21 14.757 18.757 17 16 17Z" fill="#231F20"/>
</svg>
