<svg width="18" height="18" viewBox="0 0 18 18" fill="none" xmlns="http://www.w3.org/2000/svg">
<g clip-path="url(#clip0)">
<g filter="url(#filter0_f)">
<path d="M15.375 2.25L15.255 2.2725L11.25 3.825L6.75 2.25L2.52 3.675C2.3625 3.7275 2.25 3.8625 2.25 4.035V15.375C2.25 15.585 2.415 15.75 2.625 15.75L2.745 15.7275L6.75 14.175L11.25 15.75L15.48 14.325C15.6375 14.2725 15.75 14.1375 15.75 13.965V2.625C15.75 2.415 15.585 2.25 15.375 2.25ZM11.25 14.25L6.75 12.6675V3.75L11.25 5.3325V14.25Z" fill="#EE702E"/>
</g>
<path d="M15.375 2.25L15.255 2.2725L11.25 3.825L6.75 2.25L2.52 3.675C2.3625 3.7275 2.25 3.8625 2.25 4.035V15.375C2.25 15.585 2.415 15.75 2.625 15.75L2.745 15.7275L6.75 14.175L11.25 15.75L15.48 14.325C15.6375 14.2725 15.75 14.1375 15.75 13.965V2.625C15.75 2.415 15.585 2.25 15.375 2.25ZM11.25 14.25L6.75 12.6675V3.75L11.25 5.3325V14.25Z" fill="#EE702E"/>
</g>
<defs>
<filter id="filter0_f" x="-0.75" y="-0.75" width="19.5" height="19.5" filterUnits="userSpaceOnUse" color-interpolation-filters="sRGB">
<feFlood flood-opacity="0" result="BackgroundImageFix"/>
<feBlend mode="normal" in="SourceGraphic" in2="BackgroundImageFix" result="shape"/>
<feGaussianBlur stdDeviation="1.5" result="effect1_foregroundBlur"/>
</filter>
<clipPath id="clip0">
<rect width="18" height="18" fill="white"/>
</clipPath>
</defs>
</svg>
