<svg width="473" height="473" viewBox="0 0 473 473" xmlns="http://www.w3.org/2000/svg">
    <defs/>
    <path fill="#000000" stroke="none" d="M 459.5 0 L 330.4 0 C 322.9 0 316.9 6 316.9 13.5 C 316.9 21 322.9 27 330.4 27 L 426.9 27 L 218.8 235.1 C 213.5 240.4 213.5 248.9 218.8 254.2 C 221.4 256.8 224.9 258.2 228.3 258.2 C 231.7 258.2 235.2 256.9 237.8 254.2 L 446 46.1 L 446 142.6 C 446 150.1 452 156.1 459.5 156.1 C 467 156.1 473 150.1 473 142.6 L 473 13.5 C 473 6 467 0 459.5 0 Z"/>
    <path fill="#000000" stroke="none" d="M 459.5 231.2 C 452 231.2 446 237.2 446 244.7 L 446 375.6 C 446 414.4 414.4 446 375.6 446 L 97.4 446 C 58.6 446 27 414.4 27 375.6 L 27 97.4 C 27 58.6 58.6 27 97.4 27 L 227.3 27 C 234.8 27 240.8 21 240.8 13.5 C 240.8 6 234.8 0 227.3 0 L 97.4 0 C 43.7 0 0 43.7 0 97.4 L 0 375.6 C 0 429.3 43.7 473 97.4 473 L 375.6 473 C 429.3 473 473 429.3 473 375.6 L 473 244.7 C 473 237.2 467 231.2 459.5 231.2 Z"/>
</svg>
