<svg width="78.207794" height="78.207794" viewBox="0 0 78.207794 78.207794" xmlns="http://www.w3.org/2000/svg">
    <defs/>
    <path id="path126" fill="#0b793a" stroke="#ffffff" stroke-width="2" d="M 77.207794 39.103897 C 77.207794 60.148098 60.148098 77.207794 39.103897 77.207794 C 18.059696 77.207794 1 60.148098 1 39.103897 C 1 18.059696 18.059696 1 39.103897 1 C 60.148098 1 77.207794 18.059696 77.207794 39.103897 Z"/>
    <path id="path72" fill="#ffffff" stroke="none" d="M 43.795072 12.825639 C 45.311472 12.825639 46.552072 11.584999 46.552072 10.068659 C 46.552072 8.5523287 45.311472 7.3116887 43.795072 7.3116887 C 42.278772 7.3116887 41.038172 8.5523287 41.038172 10.068659 C 41.038172 11.584999 42.278772 12.825639 43.795072 12.825639 Z M 29.320972 21.785789 C 25.461242 21.785789 22.428572 24.818489 22.428572 28.678189 C 22.428572 32.537989 25.461242 35.570689 29.320972 35.570689 C 33.180772 35.570689 36.213472 32.537989 36.213472 28.678189 C 36.213472 24.818489 33.180772 21.785789 29.320972 21.785789 Z M 29.320972 33.502989 C 26.701872 33.502989 24.496302 31.297389 24.496302 28.678189 C 24.496302 26.059089 26.701872 23.853489 29.320972 23.853489 C 31.940172 23.853489 34.145672 26.059089 34.145672 28.678189 C 34.145672 31.297389 31.940172 33.502989 29.320972 33.502989 Z M 37.316272 19.718089 L 40.624572 16.409699 L 41.727372 17.512489 C 43.519472 19.304489 45.862872 20.407289 48.757672 20.407289 L 48.757672 17.650389 C 46.689972 17.650389 45.035772 16.823249 43.795072 15.582609 L 41.175972 12.963489 C 40.486772 12.412089 39.797472 12.136389 38.970372 12.136389 C 38.143372 12.136389 37.454072 12.412089 37.040572 12.963489 L 33.180772 16.823249 C 32.629372 17.374689 32.353672 18.063889 32.353672 18.753089 C 32.353672 19.580189 32.629372 20.269489 33.180772 20.682989 L 37.591972 24.542789 L 37.591972 31.435189 L 40.348872 31.435189 L 40.348872 22.888589 Z M 48.619872 21.785789 C 44.760072 21.785789 41.727372 24.818489 41.727372 28.678189 C 41.727372 32.537989 44.760072 35.570689 48.619872 35.570689 C 52.479572 35.570689 55.512272 32.537989 55.512272 28.678189 C 55.512272 24.818489 52.479572 21.785789 48.619872 21.785789 Z M 48.619872 33.502989 C 46.000672 33.502989 43.795072 31.297389 43.795072 28.678189 C 43.795072 26.059089 46.000672 23.853489 48.619872 23.853489 C 51.238972 23.853489 53.444572 26.059089 53.444572 28.678189 C 53.444572 31.297389 51.238972 33.502989 48.619872 33.502989 Z"/>
    <path id="path82" fill="#ffffff" stroke="none" d="M 40.621183 45.900377 C 42.116814 45.900377 43.34044 44.676697 43.34044 43.181093 C 43.34044 41.685488 42.116814 40.461809 40.621183 40.461809 C 39.125551 40.461809 37.901925 41.685488 37.901925 43.181093 C 37.901925 44.676697 39.125551 45.900377 40.621183 45.900377 Z M 35.590543 50.523154 L 31.783664 69.694038 L 34.63879 69.694038 L 37.086175 58.817009 L 39.941435 61.536267 L 39.941435 69.694038 L 42.660693 69.694038 L 42.660693 59.496756 L 39.805432 56.777499 L 40.621183 52.698614 C 42.388821 54.737989 45.108078 56.097752 48.099207 56.097752 L 48.099207 53.378361 C 45.515953 53.378361 43.34044 52.018732 42.252817 50.115266 L 40.893189 47.939833 C 40.349311 47.124056 39.53356 46.580191 38.581807 46.580191 C 38.173932 46.580191 37.901925 46.716154 37.49405 46.716154 L 30.423901 49.707377 L 30.423901 56.097752 L 33.143293 56.097752 L 33.143293 51.474854 Z"/>
</svg>
