<svg height='100px' width='100px'  fill="#000000" xmlns="http://www.w3.org/2000/svg" xmlns:xlink="http://www.w3.org/1999/xlink" xmlns:serif="http://www.serif.com/" viewBox="0 0 101 101" version="1.1" xml:space="preserve" style="" x="0px" y="0px" fill-rule="evenodd" clip-rule="evenodd" stroke-linejoin="round" stroke-miterlimit="1.41421"><rect serif:id="Page 21" x="0.5" y="0.5" width="100" height="100" style="" fill="none"></rect><path d="M89.647,11.353l-16.592,0l0,4.929l8.177,0l-9.825,9.825l-19.239,0l0,4.929l21.281,0l11.269,-11.268l0,8.177l4.929,0l0,-16.592Z" style="" fill-rule="nonzero"></path><path d="M11.353,89.647l16.592,0l0,-4.929l-8.177,0l9.825,-9.825l19.239,0l0,-4.929l-21.281,0l-11.269,11.268l0,-8.177l-4.929,0l0,16.592Z" style="" fill-rule="nonzero"></path><path d="M11.353,11.353l0,16.592l4.929,0l0,-8.177l9.825,9.825l0,19.239l4.929,0l0,-21.281l-11.268,-11.269l8.177,0l0,-4.929l-16.592,0Z" style="" fill-rule="nonzero"></path><path d="M89.647,89.647l0,-16.592l-4.929,0l0,8.177l-9.825,-9.825l0,-19.239l-4.929,0l0,21.281l11.268,11.269l-8.177,0l0,4.929l16.592,0Z" style="" fill-rule="nonzero"></path></svg>