<svg width="31" height="31" viewBox="0 0 31 31" fill="none" xmlns="http://www.w3.org/2000/svg">
<path d="M25.8978 10.7851L29.6101 14.4974C29.7149 14.6017 29.7971 14.7266 29.852 14.865C29.9068 15.0034 29.9332 15.1526 29.9297 15.304C29.9262 15.4553 29.8928 15.6059 29.8314 15.747C29.7701 15.8881 29.682 16.017 29.5722 16.1263L25.6831 20.0154C24.9404 20.7581 23.7104 20.2712 23.7339 19.2467L23.791 16.7898L16.5154 16.959L16.3484 24.239L18.803 24.1775C19.8275 24.154 20.3145 25.384 19.5717 26.1268L15.6826 30.0159C15.5734 30.1256 15.4445 30.2137 15.3034 30.2751C15.1622 30.3364 15.0117 30.3698 14.8603 30.3734C14.709 30.3769 14.5598 30.3505 14.4214 30.2956C14.2829 30.2408 14.158 30.1586 14.0538 30.0537L10.3414 26.3414C9.63212 25.6321 10.1765 24.3785 11.2016 24.3543L13.6582 24.2975L13.8298 17.0194L6.5481 17.1881L6.49497 19.6476C6.47114 20.6724 5.21713 21.2171 4.50781 20.5078L0.7955 16.7955C0.690686 16.6912 0.608493 16.5663 0.553644 16.4279C0.498796 16.2895 0.472372 16.1403 0.475892 15.9889C0.479413 15.8376 0.512807 15.687 0.574156 15.5459C0.635506 15.4048 0.723601 15.2759 0.833381 15.1666L4.72247 11.2775C5.46521 10.5348 6.69523 11.0217 6.67175 12.0462L6.61461 14.5031L13.8902 14.3339L14.0572 7.0539L11.6026 7.11539C10.5781 7.13888 10.0911 5.90886 10.8339 5.16611L14.723 1.27703C14.8322 1.16725 14.9611 1.07915 15.1022 1.0178C15.2434 0.956453 15.3939 0.923059 15.5453 0.919539C15.6966 0.916019 15.8458 0.942442 15.9842 0.997291C16.1227 1.05214 16.2476 1.13433 16.3518 1.23915L20.0642 4.95146C20.7735 5.66077 20.2291 6.91444 19.204 6.93862L16.7474 6.99541L16.5758 14.2735L23.8575 14.1048L23.9139 11.6486C23.9345 10.6205 25.1885 10.0758 25.8978 10.7851Z" fill="white"/>
</svg>
