<svg width="63" height="18" viewBox="0 0 63 18" fill="none" xmlns="http://www.w3.org/2000/svg">
<path d="M10 0H8V10H10V0ZM14.83 2.17L13.41 3.59C14.99 4.86 16 6.81 16 9C16 12.87 12.87 16 9 16C5.13 16 2 12.87 2 9C2 6.81 3.01 4.86 4.58 3.58L3.17 2.17C1.23 3.82 0 6.26 0 9C0 13.97 4.03 18 9 18C13.97 18 18 13.97 18 9C18 6.26 16.77 3.82 14.83 2.17Z" fill="#F2F2F2"/>
<path d="M31.132 15.2016C30.2472 15.2016 29.4688 15.028 28.7968 14.6808C28.136 14.3224 27.6152 13.8464 27.2344 13.2528C26.8648 12.648 26.5904 12.004 26.4112 11.3208C26.232 10.6264 26.1424 9.8928 26.1424 9.12C26.1424 8.3472 26.232 7.6192 26.4112 6.936C26.5904 6.2416 26.8648 5.5976 27.2344 5.004C27.6152 4.3992 28.136 3.9232 28.7968 3.576C29.4688 3.2176 30.2472 3.0384 31.132 3.0384C31.8488 3.0384 32.4928 3.156 33.064 3.3912C33.6464 3.6264 34.1224 3.94 34.492 4.332C34.8728 4.724 35.1864 5.1888 35.4328 5.7264C35.6904 6.264 35.8696 6.8128 35.9704 7.3728C36.0824 7.9328 36.1384 8.5152 36.1384 9.12C36.1384 11.2928 35.5392 12.9336 34.3408 14.0424L35.2312 15.3528L34.156 16.1088L33.2488 14.7648C32.6328 15.056 31.9272 15.2016 31.132 15.2016ZM31.132 13.824C31.636 13.824 32.0672 13.7344 32.4256 13.5552L31.5856 12.2952L32.6944 11.5392L33.5008 12.7488C34.24 11.864 34.6096 10.6544 34.6096 9.12C34.6096 8.2912 34.5032 7.5408 34.2904 6.8688C34.0888 6.1856 33.7136 5.6032 33.1648 5.1216C32.6272 4.64 31.9496 4.3992 31.132 4.3992C30.516 4.3992 29.9728 4.5448 29.5024 4.836C29.0432 5.116 28.6848 5.4968 28.4272 5.9784C28.1696 6.4488 27.9736 6.9472 27.8392 7.4736C27.716 8 27.6544 8.5488 27.6544 9.12C27.6544 9.7248 27.716 10.296 27.8392 10.8336C27.9624 11.3712 28.1528 11.8696 28.4104 12.3288C28.6792 12.788 29.0432 13.152 29.5024 13.4208C29.9728 13.6896 30.516 13.824 31.132 13.824ZM43.0511 15.2016C40.2399 15.2016 38.8343 13.6616 38.8343 10.5816V3.24H40.2959V10.5816C40.2959 11.78 40.5423 12.62 41.0351 13.1016C41.5279 13.5832 42.1999 13.824 43.0511 13.824C43.9023 13.824 44.5743 13.5832 45.0671 13.1016C45.5711 12.62 45.8231 11.78 45.8231 10.5816V3.24H47.2847V10.5816C47.2847 13.6616 45.8735 15.2016 43.0511 15.2016ZM50.5347 15V3.24H51.9963V15H50.5347ZM59.3061 4.6344V15H57.8445V4.6344H54.5685V3.24H62.5821V4.6344H59.3061Z" fill="#D6D6D6"/>
</svg>
