<svg width="78.207794" height="78.207794" viewBox="0 0 78.207794 78.207794" xmlns="http://www.w3.org/2000/svg">
    <defs/>
    <path id="path126" fill="#e31017" stroke="#ffffff" stroke-width="2" d="M 77.207794 39.103897 C 77.207794 60.148098 60.148098 77.207794 39.103897 77.207794 C 18.059696 77.207794 1 60.148098 1 39.103897 C 1 18.059696 18.059696 1 39.103897 1 C 60.148098 1 77.207794 18.059696 77.207794 39.103897 Z"/>
    <path id="path24" fill="#ffffff" fill-rule="evenodd" stroke="none" d="M 67.587613 56.068858 C 67.12851 55.929579 65.472644 56.156558 64.219139 55.991488 C 63.569172 55.903788 63.099753 55.754199 62.754136 55.38279 C 62.516846 55.119708 62.362093 54.784407 62.13512 54.165392 C 61.552213 52.571428 60.278075 45.432118 60.113004 44.678984 C 59.947933 43.925848 59.251541 43.25009 59.251541 43.25009 C 60.376086 42.852888 60.783603 42.507272 60.783603 42.507272 C 59.82413 40.949416 57.363545 36.709161 56.367961 31.808624 C 55.944967 29.70913 56.125514 28.543318 56.125514 28.543318 C 56.125514 28.543318 57.50798 31.297936 58.271434 32.159399 C 59.690009 33.773997 62.955315 34.779897 64.152078 35.295743 C 64.425477 35.404069 65.328208 36.203632 66.055551 36.203632 C 67.015024 36.203632 67.649515 35.429862 67.804269 34.712837 C 68.139569 33.16014 66.561079 33.072446 65.771835 33.015704 C 65.42106 32.995064 65.080602 32.897064 64.765935 32.721671 C 63.883839 32.226459 60.685592 29.961895 60.288391 29.260345 C 60.025309 28.78576 59.62295 27.81597 59.148371 26.835862 C 58.271434 25.009768 57.843281 24.174096 56.620726 23.42096 C 55.759263 22.88964 54.701777 22.683301 53.866107 22.502755 L 53.933167 21.563912 C 54.820422 21.03775 56.166781 19.820353 56.166781 17.824029 C 56.166781 16.591158 55.857272 15.745169 55.33111 15.03846 C 54.572816 14.027402 53.365737 13.444496 52.050329 13.434178 C 50.894834 13.434178 49.899251 13.805587 49.125481 14.558723 C 47.825549 15.817388 47.603735 17.772445 47.577943 18.938256 C 47.567643 19.505688 47.603733 19.882255 47.603733 19.882255 C 48.129896 20.56833 49.419511 21.156395 49.852823 21.331782 L 49.759973 22.296415 C 49.759973 22.296415 48.774707 22.270625 47.99578 22.322205 C 47.149791 22.384095 46.654579 22.482118 45.911761 22.869003 C 43.755525 23.988388 40.939006 26.402548 40.015641 27.40329 C 39.365674 28.115157 39.272823 28.945669 39.247031 29.389297 C 39.133541 32.793881 40.371574 36.667884 40.371574 36.667884 C 38.901413 36.998026 37.988365 37.2869 37.240388 37.508714 C 37.240388 37.508714 36.017833 33.655343 34.960349 31.896308 C 33.902864 30.142432 31.798212 29.709121 31.798212 29.709121 L 32.143828 28.775441 C 33.098144 28.419508 34.769484 27.17116 34.769484 24.79311 C 34.769484 21.981749 32.845378 20.743718 30.967699 20.712767 C 28.739244 20.676667 27.093694 22.239671 26.995685 24.45781 C 26.907985 26.495402 28.011901 27.583837 28.372993 27.846918 L 28.089278 28.651638 C 28.089278 28.651638 26.851248 28.594898 26.263182 28.605208 C 25.241808 28.620688 24.638268 28.672268 23.735537 29.152004 C 23.131996 29.47183 22.100304 30.101161 21.501924 30.498364 C 20.485706 31.184439 19.299261 32.08201 18.736989 32.768086 C 18.36558 33.206555 18.040597 34.037067 17.932268 34.351733 C 17.282302 36.198462 16.8232 38.602305 16.802566 38.710633 C 16.776776 38.818959 16.456949 39.577255 16.431157 39.948664 C 16.343457 41.078366 17.18945 41.795392 18.117974 41.857294 C 19.629402 41.955304 19.768681 40.804968 19.768681 40.036357 C 19.768681 39.953817 19.758381 39.613363 19.763581 39.319331 C 19.763581 39.025299 19.866757 38.700316 19.964761 38.401124 C 20.243318 37.586088 20.913918 35.878637 21.156366 35.512386 C 21.455556 35.058442 23.637585 33.882314 23.637585 33.882314 C 23.53441 35.171928 22.977302 38.421759 22.879291 38.818961 C 22.776116 39.216162 21.300803 42.708439 20.784957 43.843301 C 20.30522 44.895627 20.233001 44.993638 19.562402 45.457899 C 18.649354 46.087231 13.59922 48.97597 12.113583 49.651728 C 10.772385 50.260426 10.555729 50.332645 10.932296 53.298759 C 11.15411 55.026844 11.406875 56.141071 11.675115 56.703344 C 11.881453 57.131496 12.123901 57.260457 12.53142 57.239824 C 12.990522 57.214034 13.23297 57.01801 13.356773 56.610491 C 13.454783 56.300984 13.919045 54.382036 14.393624 52.777755 C 15.91537 51.916293 22.017828 49.610461 23.183641 48.656146 C 24.354612 47.706989 26.712028 43.667914 26.712028 43.667914 C 26.712028 43.667914 30.12693 49.455706 30.457071 50.71437 C 30.642775 51.415921 31.875647 57.260457 32.087144 58.529439 C 32.293482 59.798421 32.768062 60.252365 33.835862 60.020234 C 34.908822 59.788103 38.83957 58.333417 38.83957 58.333417 C 39.00464 58.524281 39.221295 58.802837 39.484377 58.983383 C 39.747459 59.169088 40.0776 59.241306 40.4129 59.060753 C 40.629555 58.942114 40.820419 58.725454 40.830735 58.452054 C 40.841035 58.214766 40.779155 57.920733 40.68114 57.539007 C 40.516069 56.883882 40.350998 55.924409 40.273621 54.903033 C 40.206551 54.015789 40.418049 53.231703 40.877152 52.457934 C 41.924319 50.688582 44.885277 48.733525 46.855808 47.345899 C 48.831499 45.953114 49.182274 45.49917 49.393771 45.138078 C 49.600109 44.771827 49.667169 44.384942 49.667169 44.384942 C 52.61781 44.813095 54.985542 44.240506 54.985542 44.240506 C 54.985542 44.240506 55.712886 44.942057 55.826372 45.050384 C 56.115245 45.323783 56.306108 45.509487 56.362851 45.896372 C 56.398951 46.143978 56.440221 47.7431 56.63625 48.635514 C 56.883856 49.760059 57.379068 51.219904 57.817538 52.148427 C 58.188947 52.927353 59.112311 55.073273 59.504354 56.1256 C 59.865447 57.105707 59.865447 57.946536 59.978932 58.467541 C 60.087258 58.988545 60.272964 59.349638 60.572155 59.57661 C 60.98999 59.896434 61.521312 59.772631 62.207387 59.6024 C 63.290665 59.339318 65.137393 58.73062 66.896429 57.998118 C 67.732099 57.647343 68.103508 57.265617 68.103508 56.780721 C 68.103508 56.553749 67.984869 56.187498 67.587662 56.068854 M 45.679679 43.446102 L 45.612619 43.714342 C 45.612619 43.714342 43.56471 44.7254 42.140975 46.051124 C 40.722398 47.37685 39.984737 48.95018 38.561002 50.327488 C 38.199911 50.673105 37.792392 51.013564 37.518994 51.188951 C 36.832918 51.611946 36.471826 51.771857 36.275805 52.261911 C 36.131367 52.617846 36.172629 53.10274 36.466668 53.855876 C 36.750382 54.562585 37.333289 55.779982 37.684065 56.38868 L 35.465926 56.264877 C 35.465926 56.264877 34.34654 48.718048 34.093776 47.526445 C 33.84617 46.33484 31.468118 41.315658 31.468118 41.315658 C 31.468118 41.315658 31.468118 40.887505 33.04145 36.229415 C 33.04145 36.229415 34.609622 40.639899 35.646472 40.830762 C 36.600787 41.00615 38.158643 40.634741 39.881568 40.056993 C 40.841043 39.73201 42.099707 39.241956 42.878635 38.813803 C 43.49765 38.478504 43.688513 38.112253 43.719463 37.746003 C 43.734943 37.519031 43.693673 37.235315 43.580186 37.023818 C 43.446019 36.755581 43.286106 36.471865 43.151987 36.229417 C 43.02302 35.98697 42.97144 35.858008 42.961123 35.48144 L 42.770259 29.626587 C 43.771001 29.012731 44.921337 28.419508 46.804176 27.258853 C 46.804176 27.258853 46.628788 35.342162 43.430542 42.450521 C 43.430542 42.450521 43.848377 42.981842 45.679631 43.446104"/>
</svg>
