<svg width="14" height="16" viewBox="0 0 14 16" fill="none" xmlns="http://www.w3.org/2000/svg">
<path d="M12.355 8.70181C12.382 8.47681 12.4 8.24281 12.4 7.99981C12.4 7.75681 12.382 7.52281 12.346 7.29781L13.867 6.10981C14.002 6.00181 14.038 5.8038 13.957 5.6508L12.517 3.1578C12.427 2.9958 12.238 2.9418 12.076 2.99581L10.285 3.7158C9.90702 3.4278 9.51102 3.1938 9.07002 3.0138L8.80002 1.1058C8.77302 0.925805 8.62002 0.799805 8.44002 0.799805H5.56002C5.38002 0.799805 5.23602 0.925805 5.20902 1.1058L4.93902 3.0138C4.49802 3.1938 4.09302 3.4368 3.72402 3.7158L1.93302 2.99581C1.77102 2.93281 1.58202 2.9958 1.49202 3.1578L0.0520189 5.6508C-0.0379811 5.81281 -0.00198095 6.00181 0.142019 6.10981L1.66302 7.29781C1.62702 7.52281 1.60002 7.76581 1.60002 7.99981C1.60002 8.23381 1.61802 8.47681 1.65402 8.70181L0.133019 9.88981C-0.00198117 9.99781 -0.0379811 10.1958 0.0430189 10.3488L1.48302 12.8418C1.57302 13.0038 1.76202 13.0578 1.92402 13.0038L3.71502 12.2838C4.09302 12.5718 4.48902 12.8058 4.93002 12.9858L5.20002 14.8938C5.23602 15.0738 5.38002 15.1998 5.56002 15.1998H8.44002C8.62002 15.1998 8.77302 15.0738 8.79102 14.8938L9.06102 12.9858C9.50202 12.8058 9.90702 12.5628 10.276 12.2838L12.067 13.0038C12.229 13.0668 12.418 13.0038 12.508 12.8418L13.948 10.3488C14.038 10.1868 14.002 9.99781 13.858 9.88981L12.355 8.70181ZM7.00002 10.6998C5.51502 10.6998 4.30002 9.48481 4.30002 7.99981C4.30002 6.51481 5.51502 5.29981 7.00002 5.29981C8.48502 5.29981 9.70002 6.51481 9.70002 7.99981C9.70002 9.48481 8.48502 10.6998 7.00002 10.6998Z" fill="#F2F2F2"/>
</svg>
