<svg width="46" height="53" viewBox="0 0 46 53" fill="none" xmlns="http://www.w3.org/2000/svg">
<path d="M30.5 0.5H15.5V5.5H30.5V0.5ZM20.5 33H25.5V18H20.5V33ZM40.575 16.475L44.125 12.925C43.05 11.65 41.875 10.45 40.6 9.4L37.05 12.95C33.175 9.85 28.3 8 23 8C10.575 8 0.5 18.075 0.5 30.5C0.5 42.925 10.55 53 23 53C35.45 53 45.5 42.925 45.5 30.5C45.5 25.2 43.65 20.325 40.575 16.475ZM23 48C13.325 48 5.5 40.175 5.5 30.5C5.5 20.825 13.325 13 23 13C32.675 13 40.5 20.825 40.5 30.5C40.5 40.175 32.675 48 23 48Z" fill="white"/>
</svg>
