<svg width="43" height="43" viewBox="0 0 43 43" xmlns="http://www.w3.org/2000/svg">
    <defs>
        <mask id="path-6-outside-1_5345_4890" maskUnits="userSpaceOnUse" x="12.1042" y="3.61475" width="19" height="30">
            <path fill="#FDDA06" stroke="none" d="M 12.1042 3.61475 L 31.1042 3.61475 L 31.1042 33.61475 L 12.1042 33.61475 Z"/>
            <path fill="#000000" stroke="none" d="M 22.7917 9.78141 C 24.2125 9.78141 25.375 8.61891 25.375 7.19808 C 25.375 5.77725 24.2125 4.61475 22.7917 4.61475 C 21.3709 4.61475 20.2084 5.77725 20.2084 7.19808 C 20.2084 8.61891 21.3709 9.78141 22.7917 9.78141 Z M 18.0125 14.1731 L 14.3959 32.3856 L 17.1084 32.3856 L 19.4334 22.0522 L 22.1459 24.6356 L 22.1459 32.3856 L 24.7292 32.3856 L 24.7292 22.6981 L 22.0167 20.1147 L 22.7917 16.2397 C 24.4709 18.1772 27.0542 19.4689 29.8959 19.4689 L 29.8959 16.8856 C 27.4417 16.8856 25.375 15.5939 24.3417 13.7856 L 23.05 11.7189 C 22.3267 10.5693 20.88 10.1043 19.6271 10.6339 L 13.1042 13.3981 L 13.1042 19.4689 L 15.6875 19.4689 L 15.6875 15.0772 L 18.0125 14.1731 Z"/>
        </mask>
    </defs>
    <path fill="#FDDA06" stroke="none" d="M 21.5 1 L 21.5 1 C 32.82183737153 1 42 10.17816262847 42 21.5 L 42 21.5 C 42 32.82183737153 32.82183737153 42 21.5 42 L 21.5 42 C 10.17816262847 42 1 32.82183737153 1 21.5 L 1 21.5 C 1 10.17816262847 10.17816262847 1 21.5 1 Z"/>
    <path fill="#367741" stroke="none" d="M 14.5 23 L 11.5 23 L 9 35 L 13 35 L 14.5 23 Z"/>
    <path fill="#367741" stroke="none" d="M 17.5 23 L 19.5 23 L 20 35 L 16 35 L 17.5 23 Z"/>
    <path fill="#367741" stroke="none" d="M 23.5 23 L 26 23 L 27 35 L 23 35 L 23.5 23 Z"/>
    <path fill="#367741" stroke="none" d="M 28.5 23 L 31.5 23 L 34 35 L 30 35 L 28.5 23 Z"/>
    <path fill="#367741" stroke="none" d="M 22.7917 9.78141 C 24.2125 9.78141 25.375 8.61891 25.375 7.19808 C 25.375 5.77725 24.2125 4.61475 22.7917 4.61475 C 21.3709 4.61475 20.2084 5.77725 20.2084 7.19808 C 20.2084 8.61891 21.3709 9.78141 22.7917 9.78141 Z M 18.0125 14.1731 L 14.3959 32.3856 L 17.1084 32.3856 L 19.4334 22.0522 L 22.1459 24.6356 L 22.1459 32.3856 L 24.7292 32.3856 L 24.7292 22.6981 L 22.0167 20.1147 L 22.7917 16.2397 C 24.4709 18.1772 27.0542 19.4689 29.8959 19.4689 L 29.8959 16.8856 C 27.4417 16.8856 25.375 15.5939 24.3417 13.7856 L 23.05 11.7189 C 22.3267 10.5693 20.88 10.1043 19.6271 10.6339 L 13.1042 13.3981 L 13.1042 19.4689 L 15.6875 19.4689 L 15.6875 15.0772 L 18.0125 14.1731 Z"/>
    <g mask="url(#path-6-outside-1_5345_4890)">
        <path fill="#FDDA06" stroke="none" d="M 18.0125 14.1731 L 18.5029 14.2705 L 18.6804 13.3769 L 17.8313 13.7071 L 18.0125 14.1731 Z M 14.3959 32.3856 L 13.9054 32.2882 L 13.7868 32.8856 L 14.3959 32.8856 L 14.3959 32.3856 Z M 17.1084 32.3856 L 17.1084 32.8856 L 17.5084 32.8856 L 17.5962 32.4953 L 17.1084 32.3856 Z M 19.4334 22.0522 L 19.7782 21.6902 L 19.1392 21.0817 L 18.9455 21.9425 L 19.4334 22.0522 Z M 22.1459 24.6356 L 22.6459 24.6356 L 22.6459 24.4213 L 22.4907 24.2735 L 22.1459 24.6356 Z M 22.1459 32.3856 L 21.6459 32.3856 L 21.6459 32.8856 L 22.1459 32.8856 L 22.1459 32.3856 Z M 24.7292 32.3856 L 24.7292 32.8856 L 25.2292 32.8856 L 25.2292 32.3856 L 24.7292 32.3856 Z M 24.7292 22.6981 L 25.2292 22.6981 L 25.2292 22.4838 L 25.074 22.336 L 24.7292 22.6981 Z M 22.0167 20.1147 L 21.5264 20.0167 L 21.4724 20.2868 L 21.6719 20.4768 L 22.0167 20.1147 Z M 22.7917 16.2397 L 23.1695 15.9123 L 22.5015 15.1414 L 22.3014 16.1417 L 22.7917 16.2397 Z M 29.8959 19.4689 L 29.8959 19.9689 L 30.3959 19.9689 L 30.3959 19.4689 L 29.8959 19.4689 Z M 29.8959 16.8856 L 30.3959 16.8856 L 30.3959 16.3856 L 29.8959 16.3856 L 29.8959 16.8856 Z M 24.3417 13.7856 L 24.7758 13.5375 L 24.7709 13.5289 L 24.7657 13.5206 L 24.3417 13.7856 Z M 23.05 11.7189 L 23.474 11.4539 L 23.4732 11.4526 L 23.05 11.7189 Z M 19.6271 10.6339 L 19.4324 10.1734 L 19.432 10.1735 L 19.6271 10.6339 Z M 13.1042 13.3981 L 12.9091 12.9377 L 12.6042 13.0669 L 12.6042 13.3981 L 13.1042 13.3981 Z M 13.1042 19.4689 L 12.6042 19.4689 L 12.6042 19.9689 L 13.1042 19.9689 L 13.1042 19.4689 Z M 15.6875 19.4689 L 15.6875 19.9689 L 16.1875 19.9689 L 16.1875 19.4689 L 15.6875 19.4689 Z M 15.6875 15.0772 L 15.5063 14.6112 L 15.1875 14.7352 L 15.1875 15.0772 L 15.6875 15.0772 Z M 22.7917 10.2814 C 24.4887 10.2814 25.875 8.89506 25.875 7.19808 L 24.875 7.19808 C 24.875 8.34277 23.9364 9.28141 22.7917 9.28141 L 22.7917 10.2814 Z M 25.875 7.19808 C 25.875 5.5011 24.4887 4.11475 22.7917 4.11475 L 22.7917 5.11475 C 23.9364 5.11475 24.875 6.05339 24.875 7.19808 L 25.875 7.19808 Z M 22.7917 4.11475 C 21.0947 4.11475 19.7084 5.5011 19.7084 7.19808 L 20.7084 7.19808 C 20.7084 6.05339 21.647 5.11475 22.7917 5.11475 L 22.7917 4.11475 Z M 19.7084 7.19808 C 19.7084 8.89506 21.0947 10.2814 22.7917 10.2814 L 22.7917 9.28141 C 21.647 9.28141 20.7084 8.34277 20.7084 7.19808 L 19.7084 7.19808 Z M 17.5221 14.0757 L 13.9054 32.2882 L 14.8863 32.483 L 18.5029 14.2705 L 17.5221 14.0757 Z M 14.3959 32.8856 L 17.1084 32.8856 L 17.1084 31.8856 L 14.3959 31.8856 L 14.3959 32.8856 Z M 17.5962 32.4953 L 19.9212 22.162 L 18.9455 21.9425 L 16.6205 32.2758 L 17.5962 32.4953 Z M 19.0885 22.4143 L 21.801 24.9976 L 22.4907 24.2735 L 19.7782 21.6902 L 19.0885 22.4143 Z M 21.6459 24.6356 L 21.6459 32.3856 L 22.6459 32.3856 L 22.6459 24.6356 L 21.6459 24.6356 Z M 22.1459 32.8856 L 24.7292 32.8856 L 24.7292 31.8856 L 22.1459 31.8856 L 22.1459 32.8856 Z M 25.2292 32.3856 L 25.2292 22.6981 L 24.2292 22.6981 L 24.2292 32.3856 L 25.2292 32.3856 Z M 25.074 22.336 L 22.3615 19.7527 L 21.6719 20.4768 L 24.3844 23.0601 L 25.074 22.336 Z M 22.507 20.2128 L 23.282 16.3378 L 22.3014 16.1417 L 21.5264 20.0167 L 22.507 20.2128 Z M 22.4138 16.5672 C 24.184 18.6097 26.9032 19.9689 29.8959 19.9689 L 29.8959 18.9689 C 27.2052 18.9689 24.7577 17.7448 23.1695 15.9123 L 22.4138 16.5672 Z M 30.3959 19.4689 L 30.3959 16.8856 L 29.3959 16.8856 L 29.3959 19.4689 L 30.3959 19.4689 Z M 29.8959 16.3856 C 27.6188 16.3856 25.719 15.188 24.7758 13.5375 L 23.9076 14.0336 C 25.0311 15.9998 27.2646 17.3856 29.8959 17.3856 L 29.8959 16.3856 Z M 24.7657 13.5206 L 23.474 11.4539 L 22.626 11.9839 L 23.9177 14.0506 L 24.7657 13.5206 Z M 23.4732 11.4526 C 22.621 10.0982 20.9139 9.54717 19.4324 10.1734 L 19.8218 11.0945 C 20.8461 10.6615 22.0324 11.0404 22.6268 11.9852 L 23.4732 11.4526 Z M 19.432 10.1735 L 12.9091 12.9377 L 13.2993 13.8584 L 19.8222 11.0943 L 19.432 10.1735 Z M 12.6042 13.3981 L 12.6042 19.4689 L 13.6042 19.4689 L 13.6042 13.3981 L 12.6042 13.3981 Z M 13.1042 19.9689 L 15.6875 19.9689 L 15.6875 18.9689 L 13.1042 18.9689 L 13.1042 19.9689 Z M 16.1875 19.4689 L 16.1875 15.0772 L 15.1875 15.0772 L 15.1875 19.4689 L 16.1875 19.4689 Z M 15.8687 15.5432 L 18.1937 14.6391 L 17.8313 13.7071 L 15.5063 14.6112 L 15.8687 15.5432 Z"/>
    </g>
    <path fill="none" stroke="#367741" stroke-width="2" d="M 21.5 1 L 21.5 1 C 32.82183737153 1 42 10.17816262847 42 21.5 L 42 21.5 C 42 32.82183737153 32.82183737153 42 21.5 42 L 21.5 42 C 10.17816262847 42 1 32.82183737153 1 21.5 L 1 21.5 C 1 10.17816262847 10.17816262847 1 21.5 1 Z"/>
</svg>
