<svg width="34" height="29" viewBox="0 0 34 29" fill="none" xmlns="http://www.w3.org/2000/svg">
<path d="M18.2747 28.9371C13.0191 28.9127 6.98232 28.8746 4.85956 28.8526L1 28.8125L8.99035 23.1594C29.2549 8.82266 33.426 5.89413 33.4262 6.00287C33.4264 6.05255 33.5553 10.976 33.7128 16.9438C33.8703 22.9116 33.9993 28.0656 33.9995 28.3972L34 29L30.9152 28.9908C29.2186 28.9857 23.5304 28.9616 18.2748 28.9371L18.2747 28.9371Z" fill="black"/>
<path d="M28 0L16.5619 1.58208L23.6511 10.6967L28 0ZM1.61394 21.7894C11.3131 14.2456 17.5281 9.4117 21.5104 6.31431L20.2825 4.73561C16.3002 7.833 10.0852 12.6669 0.386059 20.2106L1.61394 21.7894Z" fill="black"/>
</svg>
