<svg width="199" height="63" viewBox="0 0 199 63" fill="none" xmlns="http://www.w3.org/2000/svg">
<path d="M101.15 48.5C99.35 48.5 97.6833 48.3833 96.15 48.15C94.65 47.9167 93.0833 47.5167 91.45 46.95C89.6833 46.35 88.3 45.3833 87.3 44.05C86.3 42.6833 85.8 41.0333 85.8 39.1V24.9C85.8 23.3 86.15 21.8667 86.85 20.6C87.5833 19.3333 88.5167 18.3333 89.65 17.6C90.65 16.9667 91.8833 16.4333 93.35 16C94.8167 15.5667 96.1833 15.3 97.45 15.2C98.6167 15.1 99.85 15.05 101.15 15.05C102.683 15.05 104.017 15.1167 105.15 15.25C106.283 15.35 107.55 15.5833 108.95 15.95C110.55 16.4167 111.867 16.9833 112.9 17.65C113.933 18.3167 114.8 19.25 115.5 20.45C116.233 21.6833 116.6 23.1667 116.6 24.9V33.75C116.6 38.6833 115.233 41.5667 112.5 42.4H119.6V48H108.95C108.583 48 107.45 48.0833 105.55 48.25C103.65 48.4167 102.183 48.5 101.15 48.5ZM101.25 42.95C102.35 42.95 103.267 42.9167 104 42.85C104.767 42.75 105.55 42.5833 106.35 42.35C107.15 42.1167 107.75 41.7333 108.15 41.2C108.583 40.6333 108.8 39.9333 108.8 39.1V24.85C108.8 23.3167 108.183 22.2333 106.95 21.6C105.717 20.9333 103.8 20.6 101.2 20.6C98.6 20.6 96.6833 20.9167 95.45 21.55C94.2167 22.1833 93.6 23.2833 93.6 24.85V39.1C93.6 39.9333 93.8167 40.6333 94.25 41.2C94.6833 41.7333 95.3167 42.1167 96.15 42.35C96.95 42.5833 97.7167 42.75 98.45 42.85C99.2167 42.9167 100.15 42.95 101.25 42.95ZM137.462 48.5C128.095 48.5 123.412 45.3667 123.412 39.1V15.55H131.212V39.1C131.212 40.5667 131.678 41.5833 132.612 42.15C133.578 42.6833 135.228 42.95 137.562 42.95C139.862 42.95 141.462 42.6833 142.362 42.15C143.295 41.5833 143.762 40.5667 143.762 39.1V15.55H151.562V39.1C151.562 45.3667 146.862 48.5 137.462 48.5ZM158.473 15.55H166.273V48H158.473V15.55ZM180.768 21.1H170.768V15.55H198.518V21.1H188.568V48H180.768V21.1Z" fill="white"/>
<line x1="5.65685" y1="6.2157" x2="55.8614" y2="56.4203" stroke="white" stroke-width="8" stroke-linecap="round"/>
<line x1="55.9385" y1="6.65685" x2="5.73389" y2="56.8614" stroke="white" stroke-width="8" stroke-linecap="round"/>
</svg>
