<svg width="250" height="250" viewBox="0 0 250 250" fill="none" xmlns="http://www.w3.org/2000/svg">
<rect width="250" height="250" rx="10" fill="white"/>
<path d="M59.6484 203.472C59.6484 202.503 59.3066 201.763 58.623 201.25C57.9395 200.726 56.709 200.179 54.9316 199.609C53.1543 199.028 51.7472 198.459 50.7104 197.9C47.8849 196.374 46.4722 194.317 46.4722 191.731C46.4722 190.387 46.8481 189.19 47.6001 188.142C48.3634 187.083 49.4515 186.257 50.8643 185.664C52.2884 185.072 53.8835 184.775 55.6494 184.775C57.4268 184.775 59.0104 185.1 60.4004 185.75C61.7904 186.388 62.867 187.293 63.6304 188.467C64.4051 189.64 64.7925 190.973 64.7925 192.466H59.6655C59.6655 191.326 59.3066 190.444 58.5889 189.817C57.8711 189.179 56.8628 188.86 55.564 188.86C54.3107 188.86 53.3366 189.128 52.6416 189.663C51.9466 190.187 51.5991 190.882 51.5991 191.748C51.5991 192.557 52.0036 193.235 52.8125 193.782C53.6328 194.329 54.8348 194.841 56.4185 195.32C59.3351 196.197 61.46 197.285 62.793 198.584C64.126 199.883 64.7925 201.501 64.7925 203.438C64.7925 205.591 63.9779 207.283 62.3486 208.513C60.7194 209.732 58.5262 210.342 55.769 210.342C53.855 210.342 52.1118 209.994 50.5396 209.299C48.9673 208.593 47.7653 207.63 46.9336 206.411C46.1133 205.192 45.7031 203.779 45.7031 202.173H50.8472C50.8472 204.919 52.4878 206.292 55.769 206.292C56.9881 206.292 57.9395 206.047 58.623 205.557C59.3066 205.055 59.6484 204.36 59.6484 203.472ZM82.3267 204.873H73.3374L71.6284 210H66.1768L75.4395 185.117H80.1904L89.5044 210H84.0527L82.3267 204.873ZM74.7217 200.72H80.9424L77.8149 191.406L74.7217 200.72ZM112.063 210H106.936L96.9556 193.628V210H91.8286V185.117H96.9556L106.953 201.523V185.117H112.063V210ZM116.541 210V185.117H124.197C126.384 185.117 128.338 185.613 130.059 186.604C131.79 187.584 133.14 188.985 134.109 190.808C135.077 192.62 135.562 194.682 135.562 196.995V198.14C135.562 200.452 135.083 202.509 134.126 204.309C133.18 206.109 131.842 207.505 130.11 208.496C128.378 209.487 126.424 209.989 124.248 210H116.541ZM121.667 189.27V205.881H124.146C126.151 205.881 127.683 205.226 128.743 203.916C129.802 202.606 130.343 200.732 130.366 198.293V196.978C130.366 194.448 129.842 192.534 128.794 191.235C127.746 189.925 126.213 189.27 124.197 189.27H121.667ZM139.304 210V185.117H148.02C151.039 185.117 153.329 185.698 154.89 186.86C156.451 188.011 157.231 189.703 157.231 191.936C157.231 193.155 156.918 194.232 156.292 195.166C155.665 196.089 154.793 196.767 153.677 197.2C154.953 197.519 155.955 198.162 156.685 199.131C157.425 200.099 157.795 201.284 157.795 202.686C157.795 205.078 157.032 206.89 155.505 208.12C153.979 209.351 151.803 209.977 148.977 210H139.304ZM144.431 199.165V205.881H148.823C150.031 205.881 150.971 205.597 151.643 205.027C152.327 204.446 152.668 203.648 152.668 202.634C152.668 200.356 151.489 199.199 149.131 199.165H144.431ZM144.431 195.542H148.225C150.811 195.496 152.104 194.465 152.104 192.449C152.104 191.321 151.774 190.512 151.113 190.022C150.464 189.521 149.433 189.27 148.02 189.27H144.431V195.542ZM182.097 198.123C182.097 200.572 181.664 202.72 180.798 204.565C179.932 206.411 178.691 207.835 177.073 208.838C175.466 209.84 173.621 210.342 171.536 210.342C169.473 210.342 167.633 209.846 166.016 208.855C164.398 207.864 163.145 206.451 162.256 204.617C161.367 202.771 160.917 200.652 160.906 198.259V197.029C160.906 194.579 161.344 192.426 162.222 190.569C163.11 188.7 164.358 187.271 165.964 186.279C167.582 185.277 169.428 184.775 171.501 184.775C173.575 184.775 175.415 185.277 177.021 186.279C178.639 187.271 179.887 188.7 180.764 190.569C181.653 192.426 182.097 194.574 182.097 197.012V198.123ZM176.902 196.995C176.902 194.386 176.435 192.403 175.5 191.047C174.566 189.692 173.233 189.014 171.501 189.014C169.781 189.014 168.454 189.686 167.52 191.03C166.585 192.363 166.112 194.323 166.101 196.909V198.123C166.101 200.663 166.568 202.634 167.502 204.036C168.437 205.437 169.781 206.138 171.536 206.138C173.256 206.138 174.578 205.465 175.5 204.121C176.423 202.765 176.89 200.794 176.902 198.208V196.995ZM194.351 193.696L199.016 185.117H204.912L197.666 197.456L205.1 210H199.136L194.351 201.284L189.565 210H183.601L191.035 197.456L183.789 185.117H189.685L194.351 193.696Z" fill="#030500"/>
<path d="M67.0202 97.9899C67.0202 97.9899 125.53 90.4699 127.16 146.96C122 146.96 119.57 146.96 119.57 146.96C119.57 146.96 123.38 101.23 67.0202 106.33" fill="black"/>
<path d="M139.95 146.96L107.91 146.96L123.93 162.46L139.95 146.96Z" fill="black"/>
<path d="M169.96 85.98L169.96 118.02L185.46 102L169.96 85.98Z" fill="black"/>
<path d="M171.95 106.34L171.95 97.66L67.0202 97.66L67.0202 106.34L171.95 106.34Z" fill="black"/>
<path d="M171.46 106.45C171.46 106.45 112.95 113.97 111.32 57.48C116.48 57.48 118.91 57.48 118.91 57.48C118.91 57.48 115.1 103.21 171.46 98.11" fill="black"/>
<path d="M98.5298 57.48L130.57 57.48L114.55 41.98L98.5298 57.48Z" fill="black"/>
<path d="M68.52 118.46L68.52 86.42L53.02 102.44L68.52 118.46Z" fill="black"/>
<path d="M66.5298 98.0999L66.5298 106.78L171.46 106.78L171.46 98.0999L66.5298 98.0999Z" fill="black"/>
<text x="30" y="30" fill="red" font-size="30" font-family="DejaVu Sans">test foobar</text>
</svg>
