<svg width="250" height="250" viewBox="0 0 250 250" fill="none" xmlns="http://www.w3.org/2000/svg">
<rect width="250" height="250" rx="10" fill="white"/>
<path d="M63.2202 189.27H55.5981V210H50.4712V189.27H42.9517V185.117H63.2202V189.27ZM84.9927 185.117V201.506C84.9927 204.229 84.1382 206.383 82.4292 207.966C80.7316 209.55 78.4074 210.342 75.4565 210.342C72.5513 210.342 70.2441 209.573 68.5352 208.035C66.8262 206.497 65.9546 204.383 65.9204 201.694V185.117H71.0474V201.541C71.0474 203.17 71.4347 204.36 72.2095 205.112C72.9956 205.853 74.078 206.223 75.4565 206.223C78.339 206.223 79.8031 204.708 79.8486 201.677V185.117H84.9927ZM107.927 189.27H100.305V210H95.1782V189.27H87.6587V185.117H107.927V189.27ZM130.828 198.123C130.828 200.572 130.395 202.72 129.529 204.565C128.663 206.411 127.421 207.835 125.803 208.838C124.197 209.84 122.351 210.342 120.266 210.342C118.204 210.342 116.364 209.846 114.746 208.855C113.128 207.864 111.875 206.451 110.986 204.617C110.098 202.771 109.648 200.652 109.636 198.259V197.029C109.636 194.579 110.075 192.426 110.952 190.569C111.841 188.7 113.088 187.271 114.695 186.279C116.313 185.277 118.158 184.775 120.232 184.775C122.306 184.775 124.146 185.277 125.752 186.279C127.37 187.271 128.617 188.7 129.495 190.569C130.383 192.426 130.828 194.574 130.828 197.012V198.123ZM125.632 196.995C125.632 194.386 125.165 192.403 124.231 191.047C123.297 189.692 121.964 189.014 120.232 189.014C118.512 189.014 117.184 189.686 116.25 191.03C115.316 192.363 114.843 194.323 114.832 196.909V198.123C114.832 200.663 115.299 202.634 116.233 204.036C117.167 205.437 118.512 206.138 120.266 206.138C121.986 206.138 123.308 205.465 124.231 204.121C125.154 202.765 125.621 200.794 125.632 198.208V196.995ZM143.765 200.891H139.68V210H134.553V185.117H143.799C146.738 185.117 149.006 185.772 150.601 187.083C152.196 188.393 152.993 190.244 152.993 192.637C152.993 194.334 152.623 195.753 151.882 196.892C151.153 198.02 150.042 198.92 148.55 199.592L153.933 209.761V210H148.43L143.765 200.891ZM139.68 196.738H143.816C145.103 196.738 146.1 196.414 146.807 195.764C147.513 195.103 147.866 194.198 147.866 193.047C147.866 191.873 147.53 190.951 146.858 190.278C146.197 189.606 145.177 189.27 143.799 189.27H139.68V196.738ZM162.358 210H157.231V185.117H162.358V210ZM181.482 204.873H172.493L170.784 210H165.332L174.595 185.117H179.346L188.66 210H183.208L181.482 204.873ZM173.877 200.72H180.098L176.97 191.406L173.877 200.72ZM196.111 205.881H206.997V210H190.984V185.117H196.111V205.881Z" fill="black"/>
<rect x="44.5" y="40.5" width="153" height="95" fill="white" stroke="black" stroke-width="5"/>
<path d="M105.25 69.7465L136 87.5L105.25 105.254L105.25 69.7465Z" fill="black" stroke="black" stroke-width="3" stroke-linecap="round" stroke-linejoin="round"/>
</svg>
