<svg width="37" height="50" viewBox="0 0 37 50" fill="none" xmlns="http://www.w3.org/2000/svg">
<path d="M18.5 11.3636V18.1818L27.75 9.09091L18.5 0V6.81818C8.27875 6.81818 0 14.9545 0 25C0 28.5682 1.06375 31.8864 2.8675 34.6818L6.24375 31.3636C5.20312 29.4773 4.625 27.2955 4.625 25C4.625 17.4773 10.8456 11.3636 18.5 11.3636ZM34.1325 15.3182L30.7562 18.6364C31.7737 20.5455 32.375 22.7045 32.375 25C32.375 32.5227 26.1544 38.6364 18.5 38.6364V31.8182L9.25 40.9091L18.5 50V43.1818C28.7213 43.1818 37 35.0455 37 25C37 21.4318 35.9363 18.1136 34.1325 15.3182V15.3182Z" fill="white"/>
</svg>
