<svg width="19" height="23" viewBox="0 0 19 23" fill="none" xmlns="http://www.w3.org/2000/svg">
<path d="M4.35355 0.646447C4.15829 0.451184 3.84171 0.451184 3.64645 0.646447L0.464466 3.82843C0.269204 4.02369 0.269204 4.34027 0.464466 4.53553C0.659728 4.7308 0.976311 4.7308 1.17157 4.53553L4 1.70711L6.82843 4.53553C7.02369 4.7308 7.34027 4.7308 7.53553 4.53553C7.7308 4.34027 7.7308 4.02369 7.53553 3.82843L4.35355 0.646447ZM4.5 22L4.5 1H3.5L3.5 22H4.5Z" fill="white"/>
<path d="M15.3536 22.3536C15.1583 22.5488 14.8417 22.5488 14.6464 22.3536L11.4645 19.1716C11.2692 18.9763 11.2692 18.6597 11.4645 18.4645C11.6597 18.2692 11.9763 18.2692 12.1716 18.4645L15 21.2929L17.8284 18.4645C18.0237 18.2692 18.3403 18.2692 18.5355 18.4645C18.7308 18.6597 18.7308 18.9763 18.5355 19.1716L15.3536 22.3536ZM15.5 1L15.5 22H14.5L14.5 1H15.5Z" fill="white"/>
</svg>
