<svg width="43" height="41" viewBox="0 0 43 41" fill="none" xmlns="http://www.w3.org/2000/svg">
<path d="M13.0607 0.93934C12.4749 0.353553 11.5251 0.353553 10.9393 0.93934L1.3934 10.4853C0.807612 11.0711 0.807612 12.0208 1.3934 12.6066C1.97918 13.1924 2.92893 13.1924 3.51472 12.6066L12 4.12132L20.4853 12.6066C21.0711 13.1924 22.0208 13.1924 22.6066 12.6066C23.1924 12.0208 23.1924 11.0711 22.6066 10.4853L13.0607 0.93934ZM13.5 39L13.5 2H10.5L10.5 39H13.5Z" fill="white"/>
<path d="M32.0607 40.0607C31.4749 40.6464 30.5251 40.6464 29.9393 40.0607L20.3934 30.5147C19.8076 29.9289 19.8076 28.9792 20.3934 28.3934C20.9792 27.8076 21.9289 27.8076 22.5147 28.3934L31 36.8787L39.4853 28.3934C40.0711 27.8076 41.0208 27.8076 41.6066 28.3934C42.1924 28.9792 42.1924 29.9289 41.6066 30.5147L32.0607 40.0607ZM32.5 2V39H29.5L29.5 2H32.5Z" fill="white"/>
</svg>
