<svg width="14" height="14" viewBox="0 0 14 14" fill="none" xmlns="http://www.w3.org/2000/svg">
<path d="M13.75 5.59H8.665L10.72 3.475C8.6725 1.45 5.3575 1.375 3.31 3.4C1.2625 5.4325 1.2625 8.71 3.31 10.7425C5.3575 12.775 8.6725 12.775 10.72 10.7425C11.74 9.7375 12.25 8.56 12.25 7.075H13.75C13.75 8.56 13.09 10.4875 11.77 11.7925C9.1375 14.4025 4.8625 14.4025 2.23 11.7925C-0.394997 9.19 -0.417497 4.96 2.215 2.3575C4.8475 -0.245 9.07 -0.245 11.7025 2.3575L13.75 0.25V5.59ZM7.375 4V7.1875L10 8.7475L9.46 9.655L6.25 7.75V4H7.375Z" fill="#F2F2F2"/>
</svg>
