<svg width="18" height="18" viewBox="0 0 18 18" fill="none" xmlns="http://www.w3.org/2000/svg">
    <path d="M15.75 7.59H10.665L12.72 5.475C10.6725 3.45 7.3575 3.375 5.31 5.4C3.2625 7.4325 3.2625 10.71 5.31 12.7425C7.3575 14.775 10.6725 14.775 12.72 12.7425C13.74 11.7375 14.25 10.56 14.25 9.075H15.75C15.75 10.56 15.09 12.4875 13.77 13.7925C11.1375 16.4025 6.8625 16.4025 4.23 13.7925C1.605 11.19 1.5825 6.96 4.215 4.3575C6.8475 1.755 11.07 1.755 13.7025 4.3575L15.75 2.25V7.59ZM9.375 6V9.1875L12 10.7475L11.46 11.655L8.25 9.75V6H9.375Z" fill="#F2F2F2"/>
</svg>

