<svg width="56" height="12" viewBox="0 0 56 12" fill="none" xmlns="http://www.w3.org/2000/svg">
<path d="M0.5 11.25H3.5V0.75H0.5V11.25ZM6.5 0.75V11.25H9.5V0.75H6.5Z" fill="#F2F2F2"/>
<path d="M19.372 10.5V0.699999H23.124C23.6933 0.699999 24.188 0.783999 24.608 0.951999C25.0373 1.12 25.3687 1.34867 25.602 1.638C25.8353 1.918 26.008 2.226 26.12 2.562C26.232 2.898 26.288 3.25733 26.288 3.64C26.288 4.41467 26.022 5.096 25.49 5.684C24.9673 6.272 24.1787 6.566 23.124 6.566H20.59V10.5H19.372ZM23.208 5.432C23.8427 5.432 24.3093 5.25467 24.608 4.9C24.916 4.54533 25.07 4.12533 25.07 3.64C25.07 3.164 24.9253 2.744 24.636 2.38C24.3467 2.016 23.8707 1.834 23.208 1.834H20.59V5.432H23.208ZM31.8089 10.5V9.842C31.2209 10.3927 30.5443 10.668 29.7789 10.668C29.0229 10.668 28.4163 10.4627 27.9589 10.052C27.5109 9.632 27.2869 9.03467 27.2869 8.26C27.2869 7.48533 27.5436 6.89733 28.0569 6.496C28.5703 6.09467 29.2049 5.894 29.9609 5.894C30.6516 5.894 31.2676 6.048 31.8089 6.356V5.852C31.8089 5.25467 31.6736 4.83933 31.4029 4.606C31.1416 4.36333 30.7589 4.242 30.2549 4.242C29.5363 4.242 28.8409 4.48 28.1689 4.956L27.8189 3.934C28.5843 3.43 29.4476 3.178 30.4089 3.178C32.1076 3.178 32.9569 4.03667 32.9569 5.754V10.5H31.8089ZM29.9609 9.59C30.6609 9.59 31.2769 9.27733 31.8089 8.652V7.42C31.2956 7.10267 30.7356 6.944 30.1289 6.944C29.6343 6.944 29.2283 7.056 28.9109 7.28C28.5936 7.504 28.4349 7.83067 28.4349 8.26C28.4349 8.66133 28.5656 8.98333 28.8269 9.226C29.0976 9.46867 29.4756 9.59 29.9609 9.59ZM39.4161 10.5V9.814C38.9774 10.3833 38.3754 10.668 37.6101 10.668C36.7421 10.668 36.0887 10.416 35.6501 9.912C35.2207 9.408 35.0061 8.596 35.0061 7.476V3.346H36.2241V7.658C36.2241 8.302 36.3594 8.778 36.6301 9.086C36.9101 9.38467 37.2881 9.534 37.7641 9.534C38.8654 9.534 39.4161 8.918 39.4161 7.686V3.346H40.6341V10.5H39.4161ZM45.0787 10.668C44.5654 10.668 44.0754 10.5607 43.6087 10.346C43.1514 10.122 42.7781 9.828 42.4887 9.464L43.3567 8.722C43.8887 9.29133 44.4721 9.576 45.1067 9.576C45.5081 9.576 45.8301 9.50133 46.0727 9.352C46.3154 9.19333 46.4367 8.96467 46.4367 8.666C46.4367 8.442 46.3481 8.24133 46.1707 8.064C45.9934 7.87733 45.8114 7.742 45.6247 7.658C45.4381 7.56467 45.1627 7.448 44.7987 7.308C44.0707 7.03733 43.5201 6.734 43.1467 6.398C42.7734 6.062 42.5867 5.61867 42.5867 5.068C42.5867 4.48933 42.8107 4.032 43.2587 3.696C43.7161 3.35067 44.2947 3.178 44.9947 3.178C45.9934 3.178 46.7961 3.53733 47.4027 4.256L46.5627 4.956C46.1241 4.49867 45.5967 4.27 44.9807 4.27C44.6167 4.27 44.3274 4.34 44.1127 4.48C43.8981 4.62 43.7907 4.816 43.7907 5.068C43.7907 5.208 43.8234 5.33867 43.8887 5.46C43.9634 5.572 44.0894 5.67933 44.2667 5.782C44.4534 5.88467 44.5981 5.964 44.7007 6.02C44.8127 6.06667 45.0134 6.146 45.3027 6.258C46.0587 6.52867 46.6327 6.83667 47.0247 7.182C47.4261 7.52733 47.6267 8.01267 47.6267 8.638C47.6267 9.27267 47.3981 9.772 46.9407 10.136C46.4834 10.4907 45.8627 10.668 45.0787 10.668ZM52.2852 10.668C51.3146 10.668 50.5399 10.3227 49.9612 9.632C49.3919 8.932 49.1072 8.02667 49.1072 6.916C49.1072 5.74933 49.3966 4.83467 49.9752 4.172C50.5539 3.50933 51.3239 3.178 52.2852 3.178C53.1439 3.178 53.8486 3.46733 54.3992 4.046C54.9592 4.61533 55.2392 5.46 55.2392 6.58C55.2392 6.84133 55.2252 7.112 55.1972 7.392H50.3532C50.3999 8.04533 50.6006 8.57267 50.9552 8.974C51.3192 9.366 51.7719 9.562 52.3132 9.562C52.9106 9.562 53.4239 9.34733 53.8532 8.918L54.5952 9.744C53.9792 10.36 53.2092 10.668 52.2852 10.668ZM50.3392 6.356H54.0072C53.9979 5.61867 53.8206 5.08667 53.4752 4.76C53.1392 4.424 52.7426 4.256 52.2852 4.256C51.7346 4.256 51.2819 4.43333 50.9272 4.788C50.5726 5.13333 50.3766 5.656 50.3392 6.356Z" fill="#F2F2F2"/>
</svg>
