<svg width="68" height="16" viewBox="0 0 68 16" fill="none" xmlns="http://www.w3.org/2000/svg">
<path d="M11.0833 7.125C11.0833 6.25417 10.3708 5.54167 9.5 5.54167C8.62917 5.54167 7.91667 6.25417 7.91667 7.125C7.91667 7.99583 8.62917 8.70833 9.5 8.70833C10.3708 8.70833 11.0833 7.99583 11.0833 7.125ZM9.5 0C5.56542 0 2.375 3.19042 2.375 7.125H0L3.16667 10.2917L6.33333 7.125H3.95833C3.95833 4.06125 6.43625 1.58333 9.5 1.58333C12.5638 1.58333 15.0417 4.06125 15.0417 7.125C15.0417 10.1888 12.5638 12.6667 9.5 12.6667C8.30458 12.6667 7.19625 12.2788 6.28583 11.6375L5.16167 12.7775C6.365 13.6958 7.86917 14.25 9.5 14.25C13.4346 14.25 16.625 11.0596 16.625 7.125C16.625 3.19042 13.4346 0 9.5 0Z" fill="white"/>
<path d="M27.7983 5.60742C27.5112 5.55957 27.2002 5.53564 26.8652 5.53564C25.6211 5.53564 24.7769 6.06543 24.3325 7.125V15H22.4355V3.90527H24.2812L24.312 5.18701C24.9341 4.1958 25.8159 3.7002 26.9575 3.7002C27.3267 3.7002 27.6069 3.74805 27.7983 3.84375V5.60742ZM33.9507 15.2051C32.4468 15.2051 31.2231 14.7129 30.2798 13.7285C29.3364 12.7373 28.8647 11.4146 28.8647 9.76025V9.41162C28.8647 8.31104 29.0732 7.33008 29.4902 6.46875C29.9141 5.60059 30.502 4.92383 31.2539 4.43848C32.0127 3.94629 32.833 3.7002 33.7148 3.7002C35.1572 3.7002 36.2783 4.17529 37.0781 5.12549C37.8779 6.07568 38.2778 7.43604 38.2778 9.20654V9.99609H30.7617C30.7891 11.0898 31.1069 11.9751 31.7153 12.6519C32.3306 13.3218 33.1099 13.6567 34.0532 13.6567C34.7231 13.6567 35.2905 13.52 35.7554 13.2466C36.2202 12.9731 36.627 12.6108 36.9756 12.1597L38.1343 13.062C37.2046 14.4907 35.8101 15.2051 33.9507 15.2051ZM33.7148 5.25879C32.9492 5.25879 32.3066 5.53906 31.7871 6.09961C31.2676 6.65332 30.9463 7.43262 30.8232 8.4375H36.3809V8.29395C36.3262 7.33008 36.0664 6.58496 35.6016 6.05859C35.1367 5.52539 34.5078 5.25879 33.7148 5.25879ZM46.9424 12.0571C46.9424 11.5444 46.7476 11.1479 46.3579 10.8677C45.9751 10.5806 45.3018 10.3345 44.3379 10.1294C43.3809 9.92432 42.6187 9.67822 42.0513 9.39111C41.4907 9.104 41.0737 8.76221 40.8003 8.36572C40.5337 7.96924 40.4004 7.49756 40.4004 6.95068C40.4004 6.0415 40.7832 5.27246 41.5488 4.64355C42.3213 4.01465 43.3057 3.7002 44.502 3.7002C45.7598 3.7002 46.7783 4.0249 47.5576 4.67432C48.3438 5.32373 48.7368 6.1543 48.7368 7.16602H46.8296C46.8296 6.64648 46.6074 6.19873 46.1631 5.82275C45.7256 5.44678 45.1719 5.25879 44.502 5.25879C43.8115 5.25879 43.2715 5.40918 42.8818 5.70996C42.4922 6.01074 42.2974 6.40381 42.2974 6.88916C42.2974 7.34717 42.4785 7.69238 42.8408 7.9248C43.2031 8.15723 43.856 8.37939 44.7993 8.59131C45.7495 8.80322 46.5186 9.05615 47.1064 9.3501C47.6943 9.64404 48.1284 9.99951 48.4087 10.4165C48.6958 10.8267 48.8394 11.3291 48.8394 11.9238C48.8394 12.915 48.4429 13.7114 47.6499 14.313C46.8569 14.9077 45.8281 15.2051 44.5635 15.2051C43.6748 15.2051 42.8887 15.0479 42.2051 14.7334C41.5215 14.4189 40.9849 13.9814 40.5952 13.4209C40.2124 12.8535 40.021 12.2417 40.021 11.5854H41.918C41.9521 12.2212 42.2051 12.7271 42.6768 13.103C43.1553 13.4722 43.7842 13.6567 44.5635 13.6567C45.2812 13.6567 45.8555 13.5132 46.2861 13.2261C46.7236 12.9321 46.9424 12.5425 46.9424 12.0571ZM55.9146 15.2051C54.4106 15.2051 53.187 14.7129 52.2437 13.7285C51.3003 12.7373 50.8286 11.4146 50.8286 9.76025V9.41162C50.8286 8.31104 51.0371 7.33008 51.4541 6.46875C51.8779 5.60059 52.4658 4.92383 53.2178 4.43848C53.9766 3.94629 54.7969 3.7002 55.6787 3.7002C57.1211 3.7002 58.2422 4.17529 59.042 5.12549C59.8418 6.07568 60.2417 7.43604 60.2417 9.20654V9.99609H52.7256C52.7529 11.0898 53.0708 11.9751 53.6792 12.6519C54.2944 13.3218 55.0737 13.6567 56.0171 13.6567C56.687 13.6567 57.2544 13.52 57.7192 13.2466C58.1841 12.9731 58.5908 12.6108 58.9395 12.1597L60.0981 13.062C59.1685 14.4907 57.7739 15.2051 55.9146 15.2051ZM55.6787 5.25879C54.9131 5.25879 54.2705 5.53906 53.751 6.09961C53.2314 6.65332 52.9102 7.43262 52.7871 8.4375H58.3447V8.29395C58.29 7.33008 58.0303 6.58496 57.5654 6.05859C57.1006 5.52539 56.4717 5.25879 55.6787 5.25879ZM65.02 1.21875V3.90527H67.0913V5.37158H65.02V12.252C65.02 12.6963 65.1123 13.0312 65.2969 13.2568C65.4814 13.4756 65.7959 13.585 66.2402 13.585C66.459 13.585 66.7598 13.5439 67.1426 13.4619V15C66.6436 15.1367 66.1582 15.2051 65.6865 15.2051C64.8389 15.2051 64.1997 14.9487 63.769 14.436C63.3384 13.9233 63.123 13.1953 63.123 12.252V5.37158H61.103V3.90527H63.123V1.21875H65.02Z" fill="white"/>
</svg>
