<svg width="67" height="21" viewBox="0 0 67 21" fill="none" xmlns="http://www.w3.org/2000/svg">
<path d="M14.25 7.01156H8.88214L11.0514 4.77891C8.89005 2.64126 5.39065 2.56209 3.22926 4.69974C1.06786 6.8453 1.06786 10.3051 3.22926 12.4507C5.39065 14.5962 8.89005 14.5962 11.0514 12.4507C12.1282 11.3898 12.6666 10.1468 12.6666 8.57917H14.25C14.25 10.1468 13.5533 12.1815 12.1599 13.5591C9.38092 16.3143 4.86812 16.3143 2.08918 13.5591C-0.681843 10.8118 -0.705594 6.34651 2.07334 3.59925C4.85228 0.851976 9.30967 0.851976 12.0886 3.59925L14.25 1.37451V7.01156ZM7.52038 5.33311V8.69792L10.2914 10.3447L9.72136 11.3027L6.3328 9.29171V5.33311H7.52038Z" fill="white"/>
<path d="M24.394 4.90527V17.2817C24.394 19.4146 23.4268 20.481 21.4922 20.481C21.0752 20.481 20.689 20.4194 20.3335 20.2964V18.7788C20.5522 18.8335 20.8394 18.8608 21.1948 18.8608C21.6187 18.8608 21.9399 18.7446 22.1587 18.5122C22.3843 18.2866 22.4971 17.8901 22.4971 17.3228V4.90527H24.394ZM22.3022 1.9624C22.3022 1.66162 22.3945 1.40527 22.5791 1.19336C22.7705 0.974609 23.0474 0.865234 23.4097 0.865234C23.7788 0.865234 24.0591 0.971191 24.2505 1.18311C24.4419 1.39502 24.5376 1.65479 24.5376 1.9624C24.5376 2.27002 24.4419 2.52637 24.2505 2.73145C24.0591 2.93652 23.7788 3.03906 23.4097 3.03906C23.0405 3.03906 22.7637 2.93652 22.5791 2.73145C22.3945 2.52637 22.3022 2.27002 22.3022 1.9624ZM34.3096 14.9028C33.5713 15.771 32.4878 16.2051 31.0591 16.2051C29.8765 16.2051 28.9741 15.8633 28.3521 15.1797C27.7368 14.4893 27.4258 13.4707 27.4189 12.124V4.90527H29.3159V12.0728C29.3159 13.7544 29.9995 14.5952 31.3667 14.5952C32.8159 14.5952 33.7798 14.0552 34.2583 12.9751V4.90527H36.1553V16H34.3506L34.3096 14.9028ZM40.8311 4.90527L40.8823 6.13574C41.6958 5.17871 42.793 4.7002 44.1738 4.7002C45.7256 4.7002 46.7817 5.29492 47.3423 6.48438C47.7114 5.95117 48.1899 5.52051 48.7778 5.19238C49.3726 4.86426 50.0732 4.7002 50.8799 4.7002C53.3135 4.7002 54.5508 5.98877 54.5918 8.56592V16H52.6948V8.67871C52.6948 7.88574 52.5137 7.29443 52.1514 6.90479C51.7891 6.5083 51.1807 6.31006 50.3262 6.31006C49.6221 6.31006 49.0376 6.52197 48.5728 6.9458C48.1079 7.36279 47.8379 7.92676 47.7627 8.6377V16H45.8555V8.72998C45.8555 7.1167 45.0659 6.31006 43.4868 6.31006C42.2427 6.31006 41.3916 6.83984 40.9336 7.89941V16H39.0366V4.90527H40.8311ZM66.835 10.5757C66.835 12.2642 66.4487 13.6245 65.6763 14.6567C64.9038 15.689 63.8579 16.2051 62.5386 16.2051C61.1919 16.2051 60.1323 15.7778 59.3599 14.9233V20.2656H57.4629V4.90527H59.1958L59.2881 6.13574C60.0605 5.17871 61.1338 4.7002 62.5078 4.7002C63.8408 4.7002 64.8936 5.20264 65.666 6.20752C66.4453 7.2124 66.835 8.61035 66.835 10.4014V10.5757ZM64.938 10.3604C64.938 9.10938 64.6714 8.12158 64.1382 7.39697C63.605 6.67236 62.8735 6.31006 61.9438 6.31006C60.7954 6.31006 59.9341 6.81934 59.3599 7.83789V13.1392C59.9272 14.1509 60.7954 14.6567 61.9644 14.6567C62.8735 14.6567 63.5947 14.2979 64.1279 13.5801C64.668 12.8555 64.938 11.7822 64.938 10.3604Z" fill="white"/>
</svg>
