<svg width="54" height="16" viewBox="0 0 54 16" fill="none" xmlns="http://www.w3.org/2000/svg">
<path d="M14.25 6.01205H8.88214L11.0514 3.7794C8.89005 1.64175 5.39065 1.56258 3.22926 3.70022C1.06786 5.84579 1.06786 9.3056 3.22926 11.4512C5.39065 13.5967 8.89005 13.5967 11.0514 11.4512C12.1282 10.3903 12.6666 9.14726 12.6666 7.57965H14.25C14.25 9.14726 13.5533 11.182 12.1599 12.5596C9.38092 15.3148 4.86812 15.3148 2.08918 12.5596C-0.681843 9.8123 -0.705594 5.347 2.07334 2.59973C4.85228 -0.147535 9.30967 -0.147535 12.0886 2.59973L14.25 0.375V6.01205ZM7.52038 4.3336V7.69841L10.2914 9.34519L9.72136 10.3032L6.3328 8.2922V4.3336H7.52038Z" fill="white"/>
<path d="M23.3031 4.84644V13.2448C23.3031 14.692 22.6467 15.4156 21.334 15.4156C21.051 15.4156 20.7889 15.3739 20.5477 15.2904V14.2606C20.6962 14.2977 20.891 14.3163 21.1322 14.3163C21.4198 14.3163 21.6378 14.2374 21.7863 14.0797C21.9393 13.9266 22.0159 13.6576 22.0159 13.2726V4.84644H23.3031ZM21.8837 2.84949C21.8837 2.64539 21.9463 2.47144 22.0715 2.32764C22.2014 2.1792 22.3893 2.10498 22.6351 2.10498C22.8856 2.10498 23.0758 2.17688 23.2057 2.32068C23.3356 2.46448 23.4005 2.64075 23.4005 2.84949C23.4005 3.05823 23.3356 3.23218 23.2057 3.37134C23.0758 3.5105 22.8856 3.58008 22.6351 3.58008C22.3846 3.58008 22.1968 3.5105 22.0715 3.37134C21.9463 3.23218 21.8837 3.05823 21.8837 2.84949ZM30.0315 11.6305C29.5305 12.2196 28.7953 12.5142 27.8258 12.5142C27.0233 12.5142 26.411 12.2822 25.9889 11.8184C25.5714 11.3499 25.3604 10.6587 25.3557 9.74487V4.84644H26.6429V9.71008C26.6429 10.8512 27.1068 11.4218 28.0345 11.4218C29.0179 11.4218 29.672 11.0553 29.9967 10.3224V4.84644H31.2839V12.375H30.0593L30.0315 11.6305ZM34.4568 4.84644L34.4916 5.6814C35.0436 5.03198 35.7881 4.70728 36.7251 4.70728C37.7781 4.70728 38.4948 5.11084 38.8751 5.91797C39.1256 5.55615 39.4503 5.26392 39.8492 5.04126C40.2528 4.8186 40.7283 4.70728 41.2756 4.70728C42.927 4.70728 43.7666 5.58167 43.7944 7.33044V12.375H42.5072V7.40698C42.5072 6.8689 42.3843 6.46765 42.1384 6.20325C41.8926 5.9342 41.4797 5.79968 40.8999 5.79968C40.4221 5.79968 40.0255 5.94348 39.7101 6.23108C39.3947 6.51404 39.2114 6.89673 39.1604 7.37915V12.375H37.8662V7.44177C37.8662 6.34705 37.3304 5.79968 36.2589 5.79968C35.4147 5.79968 34.8372 6.15918 34.5264 6.87817V12.375H33.2391V4.84644H34.4568ZM52.1023 8.69421C52.1023 9.83997 51.8402 10.7631 51.316 11.4635C50.7919 12.1639 50.0822 12.5142 49.1869 12.5142C48.2731 12.5142 47.5541 12.2242 47.0299 11.6444V15.2695H45.7427V4.84644H46.9186L46.9812 5.6814C47.5054 5.03198 48.2336 4.70728 49.166 4.70728C50.0706 4.70728 50.7849 5.04822 51.3091 5.7301C51.8379 6.41199 52.1023 7.3606 52.1023 8.57593V8.69421ZM50.8151 8.5481C50.8151 7.69922 50.6342 7.02893 50.2723 6.53723C49.9105 6.04553 49.4142 5.79968 48.7833 5.79968C48.004 5.79968 47.4196 6.14526 47.0299 6.83643V10.4337C47.4149 11.1202 48.004 11.4635 48.7972 11.4635C49.4142 11.4635 49.9036 11.22 50.2654 10.7329C50.6318 10.2412 50.8151 9.51294 50.8151 8.5481Z" fill="white"/>
</svg>
