<svg width="24" height="11" viewBox="0 0 24 11" fill="none" xmlns="http://www.w3.org/2000/svg">
<path d="M4.69409 5.5658H7.51904V6.78345H4.69409V9.98413H3.3999V6.78345H0.574951V5.5658H3.3999V2.60864H4.69409V5.5658ZM13.1898 11H11.8956V2.42078L9.30029 3.37402V2.20508L12.988 0.820435H13.1898V11ZM18.3805 4.38293C18.951 3.6825 19.6932 3.33228 20.6071 3.33228C22.1981 3.33228 23.0006 4.22986 23.0145 6.02502V11H21.7273V6.01807C21.7227 5.47534 21.5974 5.0741 21.3516 4.81433C21.1104 4.55457 20.7323 4.42468 20.2174 4.42468C19.7999 4.42468 19.4335 4.53601 19.118 4.75867C18.8026 4.98132 18.5568 5.27356 18.3805 5.63538V11H17.0933V0.3125H18.3805V4.38293Z" fill="white"/>
</svg>
