<svg width="39" height="39" viewBox="0 0 39 39" fill="none" xmlns="http://www.w3.org/2000/svg">
<path d="M15.3333 27.7917L26.8333 19.1667L15.3333 10.5417V27.7917ZM19.1667 0C8.58667 0 0 8.58667 0 19.1667C0 29.7467 8.58667 38.3333 19.1667 38.3333C29.7467 38.3333 38.3333 29.7467 38.3333 19.1667C38.3333 8.58667 29.7467 0 19.1667 0ZM19.1667 34.5C10.7142 34.5 3.83333 27.6192 3.83333 19.1667C3.83333 10.7142 10.7142 3.83333 19.1667 3.83333C27.6192 3.83333 34.5 10.7142 34.5 19.1667C34.5 27.6192 27.6192 34.5 19.1667 34.5Z" fill="white"/>
</svg>
