<svg width="47" height="12" viewBox="0 0 47 12" fill="none" xmlns="http://www.w3.org/2000/svg">
<path d="M4.70544 5.5658H7.5304V6.78345H4.70544V9.98413H3.41125V6.78345H0.586304V5.5658H3.41125V2.60864H4.70544V5.5658ZM13.2012 11H11.907V2.42078L9.31165 3.37402V2.20508L12.9994 0.820435H13.2012V11ZM23.3251 6.67908C23.3251 8.18665 23.0676 9.30688 22.5527 10.0398C22.0378 10.7727 21.233 11.1392 20.1383 11.1392C19.0575 11.1392 18.2573 10.782 17.7378 10.0676C17.2183 9.34863 16.9492 8.2771 16.9307 6.85303V5.1344C16.9307 3.64539 17.1881 2.53906 17.703 1.81543C18.2179 1.0918 19.025 0.72998 20.1244 0.72998C21.2145 0.72998 22.017 1.0802 22.5319 1.78064C23.0468 2.47644 23.3112 3.55261 23.3251 5.00916V6.67908ZM22.0378 4.9187C22.0378 3.82861 21.8848 3.0354 21.5786 2.53906C21.2725 2.03809 20.7877 1.7876 20.1244 1.7876C19.4657 1.7876 18.9856 2.03577 18.6841 2.5321C18.3826 3.02844 18.2272 3.7915 18.2179 4.82129V6.88086C18.2179 7.97559 18.3756 8.78503 18.691 9.3092C19.0111 9.82874 19.4935 10.0885 20.1383 10.0885C20.7738 10.0885 21.2446 9.84265 21.5508 9.35095C21.8616 8.85925 22.0239 8.08459 22.0378 7.02698V4.9187ZM26.317 3.47144L26.3518 4.3064C26.9038 3.65698 27.6483 3.33228 28.5853 3.33228C29.6383 3.33228 30.355 3.73584 30.7354 4.54297C30.9858 4.18115 31.3105 3.88892 31.7095 3.66626C32.113 3.4436 32.5885 3.33228 33.1359 3.33228C34.7872 3.33228 35.6268 4.20667 35.6547 5.95544V11H34.3674V6.03198C34.3674 5.4939 34.2445 5.09265 33.9987 4.82825C33.7528 4.5592 33.34 4.42468 32.7601 4.42468C32.2823 4.42468 31.8857 4.56848 31.5703 4.85608C31.2549 5.13904 31.0717 5.52173 31.0206 6.00415V11H29.7264V6.06677C29.7264 4.97205 29.1907 4.42468 28.1191 4.42468C27.2749 4.42468 26.6974 4.78418 26.3866 5.50317V11H25.0994V3.47144H26.317ZM39.0015 11H37.7142V3.47144H39.0015V11ZM37.6099 1.47449C37.6099 1.26575 37.6725 1.08948 37.7977 0.945679C37.9276 0.80188 38.1178 0.72998 38.3683 0.72998C38.6188 0.72998 38.809 0.80188 38.9388 0.945679C39.0687 1.08948 39.1337 1.26575 39.1337 1.47449C39.1337 1.68323 39.0687 1.85718 38.9388 1.99634C38.809 2.1355 38.6188 2.20508 38.3683 2.20508C38.1178 2.20508 37.9276 2.1355 37.7977 1.99634C37.6725 1.85718 37.6099 1.68323 37.6099 1.47449ZM42.2856 3.47144L42.3274 4.41772C42.9026 3.69409 43.6541 3.33228 44.5818 3.33228C46.1729 3.33228 46.9753 4.22986 46.9893 6.02502V11H45.702V6.01807C45.6974 5.47534 45.5721 5.0741 45.3263 4.81433C45.0851 4.55457 44.707 4.42468 44.1921 4.42468C43.7747 4.42468 43.4082 4.53601 43.0928 4.75867C42.7773 4.98132 42.5315 5.27356 42.3552 5.63538V11H41.068V3.47144H42.2856Z" fill="white"/>
</svg>
