<svg width="51" height="28" viewBox="0 0 51 28" fill="none" xmlns="http://www.w3.org/2000/svg">
<path d="M8.26956 18.4198L3.00195 15.2263" stroke="white" stroke-width="3"/>
<path d="M43.0356 18.4198L48.3032 15.2263" stroke="white" stroke-width="3"/>
<path d="M36.7146 9.90353L40.9287 4.58105" stroke="white" stroke-width="3"/>
<path d="M11.43 4.58108L15.644 9.90356" stroke="white" stroke-width="3"/>
<path d="M26.1792 6.71022L26.1792 0.323242" stroke="white" stroke-width="3"/>
<mask id="path-6-inside-1" fill="white">
<path fill-rule="evenodd" clip-rule="evenodd" d="M9.32275 28C9.32275 18.5935 16.8696 10.968 26.1791 10.968C35.4886 10.968 43.0355 18.5935 43.0355 28H9.32275ZM27.0547 16.1679L26.5 15.7981L25.9453 16.1679L21.4453 19.1679L22.5547 20.8321L25.5 18.8685V26H27.5V18.8685L30.4453 20.8321L31.5547 19.1679L27.0547 16.1679Z"/>
</mask>
<path fill-rule="evenodd" clip-rule="evenodd" d="M9.32275 28C9.32275 18.5935 16.8696 10.968 26.1791 10.968C35.4886 10.968 43.0355 18.5935 43.0355 28H9.32275ZM27.0547 16.1679L26.5 15.7981L25.9453 16.1679L21.4453 19.1679L22.5547 20.8321L25.5 18.8685V26H27.5V18.8685L30.4453 20.8321L31.5547 19.1679L27.0547 16.1679Z" fill="white"/>
<path d="M0.894579 29.0645H9.32275V26.9355H0.894579V29.0645ZM43.0355 29.0645H50.4101V26.9355H43.0355V29.0645ZM9.32275 28H7.19376V30.1289H9.32275V28ZM43.0355 28V30.1289H45.1645V28H43.0355ZM26.5 15.7981L27.681 14.0267L26.5 13.2394L25.3191 14.0267L26.5 15.7981ZM27.0547 16.1679L28.2357 14.3965V14.3965L27.0547 16.1679ZM25.9453 16.1679L24.7644 14.3965V14.3965L25.9453 16.1679ZM21.4453 19.1679L20.2644 17.3965L18.493 18.5775L19.6739 20.3489L21.4453 19.1679ZM22.5547 20.8321L20.7833 22.013L21.9643 23.7844L23.7357 22.6035L22.5547 20.8321ZM25.5 18.8685H27.629V14.8905L24.3191 17.0971L25.5 18.8685ZM25.5 26H23.3711V28.129H25.5V26ZM27.5 26V28.129H29.629V26H27.5ZM27.5 18.8685L28.681 17.0971L25.3711 14.8905V18.8685H27.5ZM30.4453 20.8321L29.2644 22.6035L31.0358 23.7844L32.2168 22.013L30.4453 20.8321ZM31.5547 19.1679L33.3262 20.3489L34.5071 18.5775L32.7357 17.3965L31.5547 19.1679ZM26.1791 8.83903C15.673 8.83903 7.19376 17.4385 7.19376 28H11.4517C11.4517 19.7484 18.0662 13.097 26.1791 13.097V8.83903ZM45.1645 28C45.1645 17.4385 36.6852 8.83903 26.1791 8.83903V13.097C34.2921 13.097 40.9065 19.7484 40.9065 28H45.1645ZM9.32275 30.1289H43.0355V25.871H9.32275V30.1289ZM25.3191 17.5696L25.8738 17.9394L28.2357 14.3965L27.681 14.0267L25.3191 17.5696ZM27.1263 17.9394L27.681 17.5696L25.3191 14.0267L24.7644 14.3965L27.1263 17.9394ZM22.6263 20.9394L27.1263 17.9394L24.7644 14.3965L20.2644 17.3965L22.6263 20.9394ZM24.3262 19.6511L23.2168 17.987L19.6739 20.3489L20.7833 22.013L24.3262 19.6511ZM24.3191 17.0971L21.3738 19.0606L23.7357 22.6035L26.681 20.6399L24.3191 17.0971ZM27.629 26V18.8685H23.3711V26H27.629ZM27.5 23.871H25.5V28.129H27.5V23.871ZM25.3711 18.8685V26H29.629V18.8685H25.3711ZM31.6263 19.0606L28.681 17.0971L26.3191 20.6399L29.2644 22.6035L31.6263 19.0606ZM29.7833 17.987L28.6739 19.6511L32.2168 22.013L33.3262 20.3489L29.7833 17.987ZM25.8738 17.9394L30.3738 20.9394L32.7357 17.3965L28.2357 14.3965L25.8738 17.9394Z" fill="white" mask="url(#path-6-inside-1)"/>
</svg>
