<svg width="49" height="27" viewBox="0 0 49 27" fill="none" xmlns="http://www.w3.org/2000/svg">
<path d="M7.19444 17.654L2.05566 14.5386" stroke="white" stroke-width="3"/>
<path d="M41.1102 17.654L46.249 14.5386" stroke="white" stroke-width="3"/>
<path d="M34.9442 9.34612L39.0552 4.15381" stroke="white" stroke-width="3"/>
<path d="M10.2776 4.15388L14.3887 9.34619" stroke="white" stroke-width="3"/>
<path d="M24.6663 6.23077L24.6663 0" stroke="white" stroke-width="3"/>
<mask id="path-6-inside-1" fill="white">
<path fill-rule="evenodd" clip-rule="evenodd" d="M8.22192 27.0002C8.22192 17.8237 15.5842 10.3848 24.666 10.3848C33.7478 10.3848 41.1101 17.8237 41.1101 27.0002H8.22192ZM25.0546 24.8321L24.4999 25.2019L23.9452 24.8321L19.4452 21.8321L20.5546 20.1679L23.4999 22.1315V15H25.4999V22.1315L28.4452 20.1679L29.5546 21.8321L25.0546 24.8321Z"/>
</mask>
<path fill-rule="evenodd" clip-rule="evenodd" d="M8.22192 27.0002C8.22192 17.8237 15.5842 10.3848 24.666 10.3848C33.7478 10.3848 41.1101 17.8237 41.1101 27.0002H8.22192ZM25.0546 24.8321L24.4999 25.2019L23.9452 24.8321L19.4452 21.8321L20.5546 20.1679L23.4999 22.1315V15H25.4999V22.1315L28.4452 20.1679L29.5546 21.8321L25.0546 24.8321Z" fill="white"/>
<path d="M-0.000123024 28.0386H8.22192V25.9617H-0.000123024V28.0386ZM41.1101 28.0386H48.3044V25.9617H41.1101V28.0386ZM8.22192 27.0002H6.145V29.0771H8.22192V27.0002ZM41.1101 27.0002V29.0771H43.187V27.0002H41.1101ZM24.4999 25.2019L23.3478 26.93L24.4999 27.698L25.6519 26.93L24.4999 25.2019ZM25.0546 24.8321L26.2066 26.5602L25.0546 24.8321ZM19.4452 21.8321L17.7171 20.68L16.565 22.4081L18.2931 23.5602L19.4452 21.8321ZM20.5546 20.1679L21.7066 18.4398L19.9785 17.2878L18.8265 19.0159L20.5546 20.1679ZM23.4999 22.1315L22.3478 23.8596L25.5768 26.0122V22.1315H23.4999ZM23.4999 15V12.9231H21.423V15H23.4999ZM25.4999 15H27.5768V12.9231H25.4999V15ZM25.4999 22.1315H23.423V26.0122L26.6519 23.8596L25.4999 22.1315ZM28.4452 20.1679L30.1733 19.0159L29.0212 17.2878L27.2931 18.4398L28.4452 20.1679ZM29.5546 21.8321L30.7066 23.5602L32.4347 22.4081L31.2827 20.68L29.5546 21.8321ZM24.666 8.30784C14.4169 8.30784 6.145 16.697 6.145 27.0002H10.2988C10.2988 18.9504 16.7515 12.4617 24.666 12.4617V8.30784ZM43.187 27.0002C43.187 16.697 34.9151 8.30784 24.666 8.30784V12.4617C32.5805 12.4617 39.0332 18.9504 39.0332 27.0002H43.187ZM8.22192 29.0771H41.1101V24.9232H8.22192V29.0771ZM25.6519 26.93L26.2066 26.5602L23.9025 23.1039L23.3478 23.4737L25.6519 26.93ZM22.7931 26.5602L23.3478 26.93L25.6519 23.4737L25.0972 23.1039L22.7931 26.5602ZM18.2931 23.5602L22.7931 26.5602L25.0972 23.1039L20.5972 20.1039L18.2931 23.5602ZM18.8265 19.0159L17.7171 20.68L21.1733 22.9841L22.2827 21.32L18.8265 19.0159ZM24.6519 20.4034L21.7066 18.4398L19.4025 21.8961L22.3478 23.8596L24.6519 20.4034ZM21.423 15V22.1315H25.5768V15H21.423ZM25.4999 12.9231H23.4999V17.0769H25.4999V12.9231ZM27.5768 22.1315V15H23.423V22.1315H27.5768ZM27.2931 18.4398L24.3478 20.4034L26.6519 23.8596L29.5972 21.8961L27.2931 18.4398ZM31.2827 20.68L30.1733 19.0159L26.7171 21.32L27.8265 22.9841L31.2827 20.68ZM26.2066 26.5602L30.7066 23.5602L28.4025 20.1039L23.9025 23.1039L26.2066 26.5602Z" fill="white" mask="url(#path-6-inside-1)"/>
</svg>
