<svg width="25" height="26" viewBox="0 0 25 26" fill="none" xmlns="http://www.w3.org/2000/svg">
<path d="M4.75641 17.0702C4.75641 17.9605 5.15098 18.7597 5.76812 19.3162V21.117C5.76812 21.6735 6.22339 22.1287 6.77983 22.1287H7.79154C8.34798 22.1287 8.80325 21.6735 8.80325 21.117V20.1053H16.8969V21.117C16.8969 21.6735 17.3522 22.1287 17.9086 22.1287H18.9203C19.4768 22.1287 19.9321 21.6735 19.9321 21.117V19.3162C20.5492 18.7597 20.9438 17.9605 20.9438 17.0702V6.95309C20.9438 3.4121 17.3218 2.90625 12.8501 2.90625C8.37833 2.90625 4.75641 3.4121 4.75641 6.95309V17.0702ZM8.29739 18.0819C7.45767 18.0819 6.77983 17.404 6.77983 16.5643C6.77983 15.7246 7.45767 15.0468 8.29739 15.0468C9.13711 15.0468 9.81496 15.7246 9.81496 16.5643C9.81496 17.404 9.13711 18.0819 8.29739 18.0819ZM17.4028 18.0819C16.5631 18.0819 15.8852 17.404 15.8852 16.5643C15.8852 15.7246 16.5631 15.0468 17.4028 15.0468C18.2425 15.0468 18.9203 15.7246 18.9203 16.5643C18.9203 17.404 18.2425 18.0819 17.4028 18.0819ZM18.9203 12.0116H6.77983V6.95309H18.9203V12.0116Z" fill="#F2F2F2"/>
</svg>
