<svg width="26" height="26" viewBox="0 0 26 26" fill="none" xmlns="http://www.w3.org/2000/svg">
<path d="M19.9026 6.96348C19.7003 6.36657 19.1337 5.94165 18.466 5.94165H7.33719C6.66946 5.94165 6.11302 6.36657 5.90056 6.96348L3.7962 13.0236V21.1173C3.7962 21.6737 4.25147 22.129 4.80791 22.129H5.81962C6.37606 22.129 6.83133 21.6737 6.83133 21.1173V20.1056H18.9718V21.1173C18.9718 21.6737 19.4271 22.129 19.9836 22.129H20.9953C21.5517 22.129 22.007 21.6737 22.007 21.1173V13.0236L19.9026 6.96348ZM7.33719 17.0705C6.49747 17.0705 5.81962 16.3926 5.81962 15.5529C5.81962 14.7132 6.49747 14.0353 7.33719 14.0353C8.17691 14.0353 8.85475 14.7132 8.85475 15.5529C8.85475 16.3926 8.17691 17.0705 7.33719 17.0705ZM18.466 17.0705C17.6263 17.0705 16.9484 16.3926 16.9484 15.5529C16.9484 14.7132 17.6263 14.0353 18.466 14.0353C19.3057 14.0353 19.9836 14.7132 19.9836 15.5529C19.9836 16.3926 19.3057 17.0705 18.466 17.0705ZM5.81962 12.0119L7.33719 7.45921H18.466L19.9836 12.0119H5.81962Z" fill="#F2F2F2"/>
</svg>
