<svg width="22" height="27" viewBox="0 0 22 27" fill="none" xmlns="http://www.w3.org/2000/svg">
<path fill-rule="evenodd" clip-rule="evenodd" d="M15.9891 22.2227C17.2687 22.2227 17.2687 18.8105 15.9891 18.8105H7.58031C6.60538 18.8105 6.23978 18.0793 6.05698 17.2262L2.64473 5.89265C2.34006 4.61306 -0.280063 5.16146 0.0246025 6.44105L3.43686 19.2979C3.86339 21.0041 5.69139 22.2837 7.51938 22.2837H15.9891V22.2227ZM9.89577 15.0936L10.0176 15.642H15.3798C16.1719 15.642 16.8422 15.1545 17.0859 14.4842H18.3655C19.1576 14.4842 19.8279 15.0936 19.8888 15.8248L21.8996 24.721C22.3261 26.3662 19.2795 26.9755 18.8529 25.3913L17.2687 18.1402C17.2687 17.9574 17.1468 17.8965 17.025 17.8965H9.28644C8.06778 17.8965 6.97098 17.2872 6.60538 16.0076L4.77739 9.67051C4.35086 8.32998 5.14299 6.86759 6.54445 6.44105C7.76311 6.07545 9.28644 6.50199 9.65204 7.84252L10.9316 12.2297C10.9926 12.4125 11.1144 12.4734 11.2972 12.4734H15.4407C16.1719 12.4734 16.7203 13.0828 16.7203 13.753C16.7203 14.4842 16.111 15.0326 15.4407 15.0326H10.0176C10.0176 15.0936 9.95671 15.0936 9.89577 15.0936ZM6.54445 0.104004C4.96019 0.104004 3.68059 1.3836 3.68059 2.96786C3.68059 4.55212 4.96019 5.83172 6.54445 5.83172C8.12871 5.83172 9.40831 4.55212 9.40831 2.96786C9.40831 1.3836 8.12871 0.104004 6.54445 0.104004Z" fill="#F2F2F2"/>
</svg>
