<svg width="291" height="38" viewBox="0 0 291 38" fill="none" xmlns="http://www.w3.org/2000/svg">
<rect width="291" height="38" rx="4" fill="white"/>
<g>
<path d="M73 9.70605H59C57.9 9.70605 57 10.6061 57 11.7061V25.7061C57 26.8061 57.9 27.7061 59 27.7061H73C74.1 27.7061 75 26.8061 75 25.7061V11.7061C75 10.6061 74.1 9.70605 73 9.70605ZM63 23.7061H61V16.7061H63V23.7061ZM67 23.7061H65V13.7061H67V23.7061ZM71 23.7061H69V19.7061H71V23.7061Z" fill="black"/>
<path d="M90.1719 22.2451L92.2656 15.7529H93.7422L90.7109 24.2061H89.6094L86.5469 15.7529H88.0234L90.1719 22.2451ZM96.7031 24.2061H95.2578V15.7529H96.7031V24.2061ZM95.1406 13.5107C95.1406 13.2764 95.2109 13.0785 95.3516 12.917C95.4974 12.7555 95.7109 12.6748 95.9922 12.6748C96.2734 12.6748 96.487 12.7555 96.6328 12.917C96.7786 13.0785 96.8516 13.2764 96.8516 13.5107C96.8516 13.7451 96.7786 13.9404 96.6328 14.0967C96.487 14.2529 96.2734 14.3311 95.9922 14.3311C95.7109 14.3311 95.4974 14.2529 95.3516 14.0967C95.2109 13.9404 95.1406 13.7451 95.1406 13.5107ZM102.531 24.3623C101.385 24.3623 100.453 23.9873 99.7344 23.2373C99.0156 22.4821 98.6562 21.4743 98.6562 20.2139V19.9482C98.6562 19.1097 98.8151 18.3623 99.1328 17.7061C99.4557 17.0446 99.9036 16.529 100.477 16.1592C101.055 15.7842 101.68 15.5967 102.352 15.5967C103.451 15.5967 104.305 15.9587 104.914 16.6826C105.523 17.4066 105.828 18.443 105.828 19.792V20.3936H100.102C100.122 21.2269 100.365 21.9014 100.828 22.417C101.297 22.9274 101.891 23.1826 102.609 23.1826C103.12 23.1826 103.552 23.0785 103.906 22.8701C104.26 22.6618 104.57 22.3857 104.836 22.042L105.719 22.7295C105.01 23.818 103.948 24.3623 102.531 24.3623ZM102.352 16.7842C101.768 16.7842 101.279 16.9977 100.883 17.4248C100.487 17.8467 100.242 18.4404 100.148 19.2061H104.383V19.0967C104.341 18.3623 104.143 17.7946 103.789 17.3936C103.435 16.9873 102.956 16.7842 102.352 16.7842ZM114.992 22.2139L116.617 15.7529H118.062L115.602 24.2061H114.43L112.375 17.7998L110.375 24.2061H109.203L106.75 15.7529H108.188L109.852 22.0811L111.82 15.7529H112.984L114.992 22.2139ZM123.992 24.2061V16.8701H122.656V15.7529H123.992V15.0342C123.992 14.0915 124.26 13.3571 124.797 12.8311C125.339 12.305 126.102 12.042 127.086 12.042C127.669 12.042 128.406 12.2008 129.297 12.5186L129.055 13.7373C128.404 13.4769 127.784 13.3467 127.195 13.3467C126.576 13.3467 126.128 13.4873 125.852 13.7686C125.581 14.0446 125.445 14.4613 125.445 15.0186V15.7529H127.172V16.8701H125.445V24.2061H123.992ZM130.016 24.2061H128.562V15.7529H130.016V24.2061ZM133.734 15.7529L133.781 16.8154C134.427 16.0029 135.271 15.5967 136.312 15.5967C138.099 15.5967 139 16.6045 139.016 18.6201V24.2061H137.57V18.6123C137.565 18.0029 137.424 17.5524 137.148 17.2607C136.878 16.9691 136.453 16.8232 135.875 16.8232C135.406 16.8232 134.995 16.9482 134.641 17.1982C134.286 17.4482 134.01 17.7764 133.812 18.1826V24.2061H132.367V15.7529H133.734ZM142.766 24.2061H141.32V15.7529H142.766V24.2061ZM141.203 13.5107C141.203 13.2764 141.273 13.0785 141.414 12.917C141.56 12.7555 141.773 12.6748 142.055 12.6748C142.336 12.6748 142.549 12.7555 142.695 12.917C142.841 13.0785 142.914 13.2764 142.914 13.5107C142.914 13.7451 142.841 13.9404 142.695 14.0967C142.549 14.2529 142.336 14.3311 142.055 14.3311C141.773 14.3311 141.56 14.2529 141.414 14.0967C141.273 13.9404 141.203 13.7451 141.203 13.5107ZM150.008 21.9639C150.008 21.5732 149.859 21.2712 149.562 21.0576C149.271 20.8389 148.758 20.6514 148.023 20.4951C147.294 20.3389 146.714 20.1514 146.281 19.9326C145.854 19.7139 145.536 19.4535 145.328 19.1514C145.125 18.8493 145.023 18.4899 145.023 18.0732C145.023 17.3805 145.315 16.7946 145.898 16.3154C146.487 15.8363 147.237 15.5967 148.148 15.5967C149.107 15.5967 149.883 15.8441 150.477 16.3389C151.076 16.8337 151.375 17.4665 151.375 18.2373H149.922C149.922 17.8415 149.753 17.5003 149.414 17.2139C149.081 16.9274 148.659 16.7842 148.148 16.7842C147.622 16.7842 147.211 16.8988 146.914 17.1279C146.617 17.3571 146.469 17.6566 146.469 18.0264C146.469 18.3753 146.607 18.6383 146.883 18.8154C147.159 18.9925 147.656 19.1618 148.375 19.3232C149.099 19.4847 149.685 19.6774 150.133 19.9014C150.581 20.1253 150.911 20.3962 151.125 20.7139C151.344 21.0264 151.453 21.4092 151.453 21.8623C151.453 22.6175 151.151 23.2243 150.547 23.6826C149.943 24.1357 149.159 24.3623 148.195 24.3623C147.518 24.3623 146.919 24.2425 146.398 24.0029C145.878 23.7633 145.469 23.43 145.172 23.0029C144.88 22.5706 144.734 22.1045 144.734 21.6045H146.18C146.206 22.0889 146.398 22.4743 146.758 22.7607C147.122 23.042 147.602 23.1826 148.195 23.1826C148.742 23.1826 149.18 23.0732 149.508 22.8545C149.841 22.6305 150.008 22.3337 150.008 21.9639ZM154.781 16.7764C155.422 15.9899 156.255 15.5967 157.281 15.5967C159.068 15.5967 159.969 16.6045 159.984 18.6201V24.2061H158.539V18.6123C158.534 18.0029 158.393 17.5524 158.117 17.2607C157.846 16.9691 157.422 16.8232 156.844 16.8232C156.375 16.8232 155.964 16.9482 155.609 17.1982C155.255 17.4482 154.979 17.7764 154.781 18.1826V24.2061H153.336V12.2061H154.781V16.7764ZM165.656 24.3623C164.51 24.3623 163.578 23.9873 162.859 23.2373C162.141 22.4821 161.781 21.4743 161.781 20.2139V19.9482C161.781 19.1097 161.94 18.3623 162.258 17.7061C162.581 17.0446 163.029 16.529 163.602 16.1592C164.18 15.7842 164.805 15.5967 165.477 15.5967C166.576 15.5967 167.43 15.9587 168.039 16.6826C168.648 17.4066 168.953 18.443 168.953 19.792V20.3936H163.227C163.247 21.2269 163.49 21.9014 163.953 22.417C164.422 22.9274 165.016 23.1826 165.734 23.1826C166.245 23.1826 166.677 23.0785 167.031 22.8701C167.385 22.6618 167.695 22.3857 167.961 22.042L168.844 22.7295C168.135 23.818 167.073 24.3623 165.656 24.3623ZM165.477 16.7842C164.893 16.7842 164.404 16.9977 164.008 17.4248C163.612 17.8467 163.367 18.4404 163.273 19.2061H167.508V19.0967C167.466 18.3623 167.268 17.7946 166.914 17.3936C166.56 16.9873 166.081 16.7842 165.477 16.7842ZM170.281 19.9092C170.281 18.6123 170.589 17.5706 171.203 16.7842C171.818 15.9925 172.622 15.5967 173.617 15.5967C174.607 15.5967 175.391 15.9352 175.969 16.6123V12.2061H177.414V24.2061H176.086L176.016 23.2998C175.438 24.0081 174.633 24.3623 173.602 24.3623C172.622 24.3623 171.823 23.9613 171.203 23.1592C170.589 22.3571 170.281 21.3102 170.281 20.0186V19.9092ZM171.727 20.0732C171.727 21.0316 171.924 21.7816 172.32 22.3232C172.716 22.8649 173.263 23.1357 173.961 23.1357C174.878 23.1357 175.547 22.7243 175.969 21.9014V18.0186C175.536 17.2217 174.872 16.8232 173.977 16.8232C173.268 16.8232 172.716 17.0967 172.32 17.6436C171.924 18.1904 171.727 19.0003 171.727 20.0732ZM185.594 13.7061V15.7529H187.172V16.8701H185.594V22.1123C185.594 22.4508 185.664 22.7061 185.805 22.8779C185.945 23.0446 186.185 23.1279 186.523 23.1279C186.69 23.1279 186.919 23.0967 187.211 23.0342V24.2061C186.831 24.3102 186.461 24.3623 186.102 24.3623C185.456 24.3623 184.969 24.167 184.641 23.7764C184.312 23.3857 184.148 22.8311 184.148 22.1123V16.8701H182.609V15.7529H184.148V13.7061H185.594ZM192.953 17.0498C192.734 17.0133 192.497 16.9951 192.242 16.9951C191.294 16.9951 190.651 17.3988 190.312 18.2061V24.2061H188.867V15.7529H190.273L190.297 16.7295C190.771 15.9743 191.443 15.5967 192.312 15.5967C192.594 15.5967 192.807 15.6331 192.953 15.7061V17.0498ZM195.859 24.2061H194.414V15.7529H195.859V24.2061ZM194.297 13.5107C194.297 13.2764 194.367 13.0785 194.508 12.917C194.654 12.7555 194.867 12.6748 195.148 12.6748C195.43 12.6748 195.643 12.7555 195.789 12.917C195.935 13.0785 196.008 13.2764 196.008 13.5107C196.008 13.7451 195.935 13.9404 195.789 14.0967C195.643 14.2529 195.43 14.3311 195.148 14.3311C194.867 14.3311 194.654 14.2529 194.508 14.0967C194.367 13.9404 194.297 13.7451 194.297 13.5107ZM205.32 20.0732C205.32 21.3597 205.026 22.3962 204.438 23.1826C203.849 23.9691 203.052 24.3623 202.047 24.3623C201.021 24.3623 200.214 24.0368 199.625 23.3857V27.4561H198.18V15.7529H199.5L199.57 16.6904C200.159 15.9613 200.977 15.5967 202.023 15.5967C203.039 15.5967 203.841 15.9795 204.43 16.7451C205.023 17.5107 205.32 18.5758 205.32 19.9404V20.0732ZM203.875 19.9092C203.875 18.9561 203.672 18.2035 203.266 17.6514C202.859 17.0993 202.302 16.8232 201.594 16.8232C200.719 16.8232 200.062 17.2113 199.625 17.9873V22.0264C200.057 22.7972 200.719 23.1826 201.609 23.1826C202.302 23.1826 202.852 22.9092 203.258 22.3623C203.669 21.8102 203.875 20.9925 203.875 19.9092ZM210.781 19.9092C210.781 18.6123 211.089 17.5706 211.703 16.7842C212.318 15.9925 213.122 15.5967 214.117 15.5967C215.107 15.5967 215.891 15.9352 216.469 16.6123V12.2061H217.914V24.2061H216.586L216.516 23.2998C215.938 24.0081 215.133 24.3623 214.102 24.3623C213.122 24.3623 212.323 23.9613 211.703 23.1592C211.089 22.3571 210.781 21.3102 210.781 20.0186V19.9092ZM212.227 20.0732C212.227 21.0316 212.424 21.7816 212.82 22.3232C213.216 22.8649 213.763 23.1357 214.461 23.1357C215.378 23.1357 216.047 22.7243 216.469 21.9014V18.0186C216.036 17.2217 215.372 16.8232 214.477 16.8232C213.768 16.8232 213.216 17.0967 212.82 17.6436C212.424 18.1904 212.227 19.0003 212.227 20.0732ZM225.383 24.2061C225.299 24.0394 225.232 23.7425 225.18 23.3154C224.508 24.0133 223.706 24.3623 222.773 24.3623C221.94 24.3623 221.255 24.1279 220.719 23.6592C220.188 23.1852 219.922 22.5863 219.922 21.8623C219.922 20.9821 220.255 20.2998 220.922 19.8154C221.594 19.3258 222.536 19.0811 223.75 19.0811H225.156V18.417C225.156 17.9118 225.005 17.5107 224.703 17.2139C224.401 16.9118 223.956 16.7607 223.367 16.7607C222.852 16.7607 222.419 16.891 222.07 17.1514C221.721 17.4118 221.547 17.7269 221.547 18.0967H220.094C220.094 17.6748 220.242 17.2686 220.539 16.8779C220.841 16.4821 221.247 16.1696 221.758 15.9404C222.273 15.7113 222.839 15.5967 223.453 15.5967C224.427 15.5967 225.19 15.8415 225.742 16.3311C226.294 16.8154 226.581 17.4847 226.602 18.3389V22.2295C226.602 23.0055 226.701 23.6227 226.898 24.0811V24.2061H225.383ZM222.984 23.1045C223.438 23.1045 223.867 22.9873 224.273 22.7529C224.68 22.5186 224.974 22.2139 225.156 21.8389V20.1045H224.023C222.253 20.1045 221.367 20.6227 221.367 21.6592C221.367 22.1123 221.518 22.4665 221.82 22.7217C222.122 22.9769 222.51 23.1045 222.984 23.1045ZM230.828 13.7061V15.7529H232.406V16.8701H230.828V22.1123C230.828 22.4508 230.898 22.7061 231.039 22.8779C231.18 23.0446 231.419 23.1279 231.758 23.1279C231.924 23.1279 232.154 23.0967 232.445 23.0342V24.2061C232.065 24.3102 231.695 24.3623 231.336 24.3623C230.69 24.3623 230.203 24.167 229.875 23.7764C229.547 23.3857 229.383 22.8311 229.383 22.1123V16.8701H227.844V15.7529H229.383V13.7061H230.828ZM239.32 24.2061C239.237 24.0394 239.169 23.7425 239.117 23.3154C238.445 24.0133 237.643 24.3623 236.711 24.3623C235.878 24.3623 235.193 24.1279 234.656 23.6592C234.125 23.1852 233.859 22.5863 233.859 21.8623C233.859 20.9821 234.193 20.2998 234.859 19.8154C235.531 19.3258 236.474 19.0811 237.688 19.0811H239.094V18.417C239.094 17.9118 238.943 17.5107 238.641 17.2139C238.339 16.9118 237.893 16.7607 237.305 16.7607C236.789 16.7607 236.357 16.891 236.008 17.1514C235.659 17.4118 235.484 17.7269 235.484 18.0967H234.031C234.031 17.6748 234.18 17.2686 234.477 16.8779C234.779 16.4821 235.185 16.1696 235.695 15.9404C236.211 15.7113 236.776 15.5967 237.391 15.5967C238.365 15.5967 239.128 15.8415 239.68 16.3311C240.232 16.8154 240.518 17.4847 240.539 18.3389V22.2295C240.539 23.0055 240.638 23.6227 240.836 24.0811V24.2061H239.32ZM236.922 23.1045C237.375 23.1045 237.805 22.9873 238.211 22.7529C238.617 22.5186 238.911 22.2139 239.094 21.8389V20.1045H237.961C236.19 20.1045 235.305 20.6227 235.305 21.6592C235.305 22.1123 235.456 22.4665 235.758 22.7217C236.06 22.9769 236.448 23.1045 236.922 23.1045Z" fill="black"/>
</g>
</svg>
