<svg width="26" height="26" viewBox="0 0 26 26" fill="none" xmlns="http://www.w3.org/2000/svg">
<path d="M13 0C5.824 0 0 5.824 0 13C0 20.176 5.824 26 13 26C20.176 26 26 20.176 26 13C26 5.824 20.176 0 13 0ZM13 2C19.072 2 24 6.928 24 13C24 19.072 19.072 24 13 24C6.928 24 2 19.072 2 13C2 6.928 6.928 2 13 2Z" fill="white"/>
<path d="M14.9997 7.25004C14.9997 7.84679 14.7627 8.4191 14.3407 8.84107C13.9188 9.26303 13.3465 9.50009 12.7497 9.50009C12.153 9.50009 11.5807 9.26303 11.1588 8.84107C10.7368 8.4191 10.4998 7.84679 10.4998 7.25004C10.4998 6.6533 10.7368 6.08099 11.1588 5.65902C11.5807 5.23706 12.153 5 12.7497 5C13.3465 5 13.9188 5.23706 14.3407 5.65902C14.7627 6.08099 14.9997 6.6533 14.9997 7.25004V7.25004Z" fill="white"/>
<path d="M15.133 19.192C15.1192 19.738 15.3752 19.892 15.9984 19.956L17 19.976V21H9.1854V19.976L10.286 19.956C10.9442 19.936 11.1024 19.68 11.1514 19.192V13.0294C11.1584 12.0536 9.8922 12.2068 9 12.2358V11.221L15.133 11" fill="white"/>
</svg>
