<svg width="36" height="36" viewBox="0 0 36 36" fill="none" xmlns="http://www.w3.org/2000/svg">
<rect opacity="0.95" width="36" height="36" rx="5.76" fill="#4C4C4C"/>
<path d="M21.5 20H20.71L20.43 19.73C21.41 18.59 22 17.11 22 15.5C22 11.91 19.09 9 15.5 9C11.91 9 9 11.91 9 15.5C9 19.09 11.91 22 15.5 22C17.11 22 18.59 21.41 19.73 20.43L20 20.71V21.5L25 26.49L26.49 25L21.5 20ZM15.5 20C13.01 20 11 17.99 11 15.5C11 13.01 13.01 11 15.5 11C17.99 11 20 13.01 20 15.5C20 17.99 17.99 20 15.5 20Z" fill="white"/>
</svg>
