<svg width="87" height="122" viewBox="0 0 87 122" fill="none" xmlns="http://www.w3.org/2000/svg">
<g clip-path="url(#clip0)">
<path d="M-26 54.5234L96.4581 -7" stroke="#F2F2F2" stroke-width="1.7" stroke-dasharray="12 8"/>
<path d="M-39.2166 27.0254L83.2416 -34.498" stroke="#F2F2F2" stroke-width="1.76622"/>
<path d="M23.4638 19.4374L23.9358 18.6097C25.2103 16.3744 25.2776 13.6486 24.1149 11.3531C22.9522 9.05768 20.7149 7.49923 18.1587 7.20428L17.2122 7.09506C15.6548 6.91535 14.0788 7.19722 12.6803 7.90563L-13.6476 21.2413C-16.6037 22.7386 -17.7863 26.3488 -16.2889 29.305L-14.2625 33.3057C-12.7651 36.2619 -9.15487 37.4444 -6.19876 35.9471L20.1291 22.6115C21.5277 21.9031 22.6873 20.7993 23.4638 19.4374Z" fill="#F2F2F2"/>
<path d="M96.4638 17.4374L96.9358 16.6097C98.2103 14.3744 98.2776 11.6486 97.1149 9.35313C95.9522 7.05768 93.7149 5.49923 91.1587 5.20428L90.2122 5.09506C88.6548 4.91535 87.0788 5.19722 85.6803 5.90563L59.3524 19.2413C56.3963 20.7386 55.2137 24.3488 56.7111 27.305L58.7375 31.3057C60.2349 34.2619 63.8451 35.4444 66.8012 33.9471L93.1291 20.6115C94.5277 19.9031 95.6873 18.7993 96.4638 17.4374Z" fill="#F2F2F2"/>
<path d="M-13 80.5234L109.458 19" stroke="#F2F2F2" stroke-width="1.7"/>
<path d="M-4 98.5234L118.458 37" stroke="#F2F2F2" stroke-width="1.7"/>
<path d="M16.0166 78.9228C15.767 78.4366 15.9588 77.8401 16.4451 77.5906L19.9104 75.8117L20.995 77.9245L17.5297 79.7034C17.0435 79.953 16.447 79.7612 16.1974 79.275L16.0166 78.9228Z" fill="#C4C4C4"/>
<path d="M29.8232 72.2803C30.0728 72.7665 29.881 73.363 29.3948 73.6126L25.4926 75.6157L24.408 73.5028L28.3102 71.4997C28.7964 71.2501 29.3929 71.4419 29.6425 71.9281L29.8232 72.2803Z" fill="#C4C4C4"/>
<circle cx="24.1555" cy="74.9777" r="4.46125" transform="rotate(154.941 24.1555 74.9777)" fill="#F2F2F2"/>
<circle cx="25.1937" cy="74.4932" r="2.375" transform="rotate(154.941 25.1937 74.4932)" fill="#A3A3A3"/>
<path d="M36.0166 64.9228C35.767 64.4366 35.9588 63.8401 36.4451 63.5906L39.9104 61.8117L40.995 63.9245L37.5297 65.7034C37.0435 65.953 36.447 65.7612 36.1974 65.275L36.0166 64.9228Z" fill="#C4C4C4"/>
<path d="M49.8232 58.2803C50.0728 58.7665 49.881 59.363 49.3948 59.6126L45.4926 61.6157L44.408 59.5028L48.3102 57.4997C48.7964 57.2501 49.3929 57.4419 49.6425 57.9281L49.8232 58.2803Z" fill="#C4C4C4"/>
<circle cx="44.1555" cy="60.9777" r="4.46125" transform="rotate(154.941 44.1555 60.9777)" fill="#F2F2F2"/>
<circle cx="45.1937" cy="60.4932" r="2.375" transform="rotate(154.941 45.1937 60.4932)" fill="#A3A3A3"/>
<path d="M72.0166 48.9233C71.767 48.4371 71.9588 47.8406 72.4451 47.591L75.9104 45.8121L76.995 47.925L73.5297 49.7039C73.0435 49.9535 72.447 49.7617 72.1974 49.2755L72.0166 48.9233Z" fill="#C4C4C4"/>
<path d="M85.8232 42.2808C86.0728 42.767 85.881 43.3635 85.3948 43.6131L81.4926 45.6162L80.408 43.5033L84.3102 41.5002C84.7964 41.2506 85.3929 41.4424 85.6425 41.9286L85.8232 42.2808Z" fill="#C4C4C4"/>
<circle cx="80.1555" cy="44.9782" r="4.46125" transform="rotate(154.941 80.1555 44.9782)" fill="#F2F2F2"/>
<circle cx="81.1937" cy="44.4937" r="2.375" transform="rotate(154.941 81.1937 44.4937)" fill="#A3A3A3"/>
</g>
<rect x="2" y="1" width="84" height="84" rx="5" stroke="#F2F2F2" stroke-width="2"/>
<path d="M0.59375 121V108.203H4.77734C6.16602 108.203 7.20898 108.49 7.90625 109.064C8.60938 109.639 8.96094 110.488 8.96094 111.613C8.96094 112.211 8.79102 112.741 8.45117 113.204C8.11133 113.661 7.64844 114.016 7.0625 114.268C7.75391 114.461 8.29883 114.83 8.69727 115.375C9.10156 115.914 9.30371 116.559 9.30371 117.309C9.30371 118.457 8.93164 119.359 8.1875 120.016C7.44336 120.672 6.3916 121 5.03223 121H0.59375ZM2.28125 115.015V119.62H5.06738C5.85254 119.62 6.4707 119.418 6.92188 119.014C7.37891 118.604 7.60742 118.041 7.60742 117.326C7.60742 115.785 6.76953 115.015 5.09375 115.015H2.28125ZM2.28125 113.661H4.83008C5.56836 113.661 6.15723 113.477 6.59668 113.107C7.04199 112.738 7.26465 112.237 7.26465 111.604C7.26465 110.901 7.05957 110.392 6.64941 110.075C6.23926 109.753 5.61523 109.592 4.77734 109.592H2.28125V113.661ZM13.3203 121H11.6943V111.49H13.3203V121ZM11.5625 108.968C11.5625 108.704 11.6416 108.481 11.7998 108.3C11.9639 108.118 12.2041 108.027 12.5205 108.027C12.8369 108.027 13.0771 108.118 13.2412 108.3C13.4053 108.481 13.4873 108.704 13.4873 108.968C13.4873 109.231 13.4053 109.451 13.2412 109.627C13.0771 109.803 12.8369 109.891 12.5205 109.891C12.2041 109.891 11.9639 109.803 11.7998 109.627C11.6416 109.451 11.5625 109.231 11.5625 108.968ZM18.585 116.597L17.5654 117.66V121H15.9395V107.5H17.5654V115.665L18.4355 114.619L21.3975 111.49H23.375L19.6748 115.463L23.8057 121H21.8984L18.585 116.597ZM28.8242 121.176C27.5352 121.176 26.4863 120.754 25.6777 119.91C24.8691 119.061 24.4648 117.927 24.4648 116.509V116.21C24.4648 115.267 24.6436 114.426 25.001 113.688C25.3643 112.943 25.8682 112.363 26.5127 111.947C27.1631 111.525 27.8662 111.314 28.6221 111.314C29.8584 111.314 30.8193 111.722 31.5049 112.536C32.1904 113.351 32.5332 114.517 32.5332 116.034V116.711H26.0908C26.1143 117.648 26.3867 118.407 26.9082 118.987C27.4355 119.562 28.1035 119.849 28.9121 119.849C29.4863 119.849 29.9727 119.731 30.3711 119.497C30.7695 119.263 31.1182 118.952 31.417 118.565L32.4102 119.339C31.6133 120.563 30.418 121.176 28.8242 121.176ZM28.6221 112.65C27.9658 112.65 27.415 112.891 26.9697 113.371C26.5244 113.846 26.249 114.514 26.1436 115.375H30.9072V115.252C30.8604 114.426 30.6377 113.787 30.2393 113.336C29.8408 112.879 29.3018 112.65 28.6221 112.65ZM40.8389 119.62H46.9033V121H39.1426V108.203H40.8389V119.62ZM54.4443 121C54.3506 120.812 54.2744 120.479 54.2158 119.998C53.46 120.783 52.5576 121.176 51.5088 121.176C50.5713 121.176 49.8008 120.912 49.1973 120.385C48.5996 119.852 48.3008 119.178 48.3008 118.363C48.3008 117.373 48.6758 116.605 49.4258 116.061C50.1816 115.51 51.2422 115.234 52.6074 115.234H54.1895V114.487C54.1895 113.919 54.0195 113.468 53.6797 113.134C53.3398 112.794 52.8389 112.624 52.1768 112.624C51.5967 112.624 51.1104 112.771 50.7178 113.063C50.3252 113.356 50.1289 113.711 50.1289 114.127H48.4941C48.4941 113.652 48.6611 113.195 48.9951 112.756C49.335 112.311 49.792 111.959 50.3662 111.701C50.9463 111.443 51.582 111.314 52.2734 111.314C53.3691 111.314 54.2275 111.59 54.8486 112.141C55.4697 112.686 55.792 113.438 55.8154 114.399V118.776C55.8154 119.649 55.9268 120.344 56.1494 120.859V121H54.4443ZM51.7461 119.761C52.2559 119.761 52.7393 119.629 53.1963 119.365C53.6533 119.102 53.9844 118.759 54.1895 118.337V116.386H52.915C50.9229 116.386 49.9268 116.969 49.9268 118.135C49.9268 118.645 50.0967 119.043 50.4365 119.33C50.7764 119.617 51.2129 119.761 51.7461 119.761ZM59.9023 111.49L59.9551 112.686C60.6816 111.771 61.6309 111.314 62.8027 111.314C64.8125 111.314 65.8262 112.448 65.8438 114.716V121H64.2178V114.707C64.2119 114.021 64.0537 113.515 63.7432 113.187C63.4385 112.858 62.9609 112.694 62.3105 112.694C61.7832 112.694 61.3203 112.835 60.9219 113.116C60.5234 113.397 60.2129 113.767 59.9902 114.224V121H58.3643V111.49H59.9023ZM72.2422 121.176C70.9531 121.176 69.9043 120.754 69.0957 119.91C68.2871 119.061 67.8828 117.927 67.8828 116.509V116.21C67.8828 115.267 68.0615 114.426 68.4189 113.688C68.7822 112.943 69.2861 112.363 69.9307 111.947C70.5811 111.525 71.2842 111.314 72.04 111.314C73.2764 111.314 74.2373 111.722 74.9229 112.536C75.6084 113.351 75.9512 114.517 75.9512 116.034V116.711H69.5088C69.5322 117.648 69.8047 118.407 70.3262 118.987C70.8535 119.562 71.5215 119.849 72.3301 119.849C72.9043 119.849 73.3906 119.731 73.7891 119.497C74.1875 119.263 74.5361 118.952 74.835 118.565L75.8281 119.339C75.0312 120.563 73.8359 121.176 72.2422 121.176ZM72.04 112.65C71.3838 112.65 70.833 112.891 70.3877 113.371C69.9424 113.846 69.667 114.514 69.5615 115.375H74.3252V115.252C74.2783 114.426 74.0557 113.787 73.6572 113.336C73.2588 112.879 72.7197 112.65 72.04 112.65ZM83.3779 118.478C83.3779 118.038 83.2109 117.698 82.877 117.458C82.5488 117.212 81.9717 117.001 81.1455 116.825C80.3252 116.649 79.6719 116.438 79.1855 116.192C78.7051 115.946 78.3477 115.653 78.1133 115.313C77.8848 114.974 77.7705 114.569 77.7705 114.101C77.7705 113.321 78.0986 112.662 78.7549 112.123C79.417 111.584 80.2607 111.314 81.2861 111.314C82.3643 111.314 83.2373 111.593 83.9053 112.149C84.5791 112.706 84.916 113.418 84.916 114.285H83.2812C83.2812 113.84 83.0908 113.456 82.71 113.134C82.335 112.812 81.8604 112.65 81.2861 112.65C80.6943 112.65 80.2314 112.779 79.8975 113.037C79.5635 113.295 79.3965 113.632 79.3965 114.048C79.3965 114.44 79.5518 114.736 79.8623 114.936C80.1729 115.135 80.7324 115.325 81.541 115.507C82.3555 115.688 83.0146 115.905 83.5186 116.157C84.0225 116.409 84.3945 116.714 84.6348 117.071C84.8809 117.423 85.0039 117.854 85.0039 118.363C85.0039 119.213 84.6641 119.896 83.9844 120.411C83.3047 120.921 82.4229 121.176 81.3389 121.176C80.5771 121.176 79.9033 121.041 79.3174 120.771C78.7314 120.502 78.2715 120.127 77.9375 119.646C77.6094 119.16 77.4453 118.636 77.4453 118.073H79.0713C79.1006 118.618 79.3174 119.052 79.7217 119.374C80.1318 119.69 80.6709 119.849 81.3389 119.849C81.9541 119.849 82.4463 119.726 82.8154 119.479C83.1904 119.228 83.3779 118.894 83.3779 118.478Z" fill="#F2F2F2"/>
<defs>
<clipPath id="clip0">
<rect x="1" width="86" height="86" rx="6" fill="white"/>
</clipPath>
</defs>
</svg>
