<svg width="159" height="223" viewBox="0 0 159 223" fill="none" xmlns="http://www.w3.org/2000/svg">
<path d="M76.0452 64.9291H37.2299C37.2299 64.9291 34.8317 89.1776 57.0373 89.1776C79.2428 89.1776 76.0452 64.9291 76.0452 64.9291Z" fill="black" stroke="black" stroke-width="0.177645"/>
<path d="M83.0444 64.9291H121.86C121.86 64.9291 124.258 89.1776 102.052 89.1776C79.8468 89.1776 83.0444 64.9291 83.0444 64.9291Z" fill="black" stroke="black" stroke-width="0.177645"/>
<path d="M14.3137 129.414C-3.90488 151.975 0.457413 166.187 0.457413 166.187C0.457413 166.187 -1.40785 176.579 79.5093 176.579C160.426 176.579 158.65 166.187 158.65 166.187C158.65 166.187 160.226 147.09 146.481 131.191C132.737 115.291 107.666 107.209 107.666 107.209C107.666 107.209 98.6061 120.443 79.5093 120.443C60.4125 120.443 51.4414 107.209 51.4414 107.209C51.4414 107.209 24.928 116.27 14.3137 129.414Z" fill="black" stroke="black" stroke-width="0.177645"/>
<path d="M66.7189 139.678V126.355C66.7189 126.159 66.8779 126 67.0742 126H94.0762C94.2724 126 94.4314 126.159 94.4314 126.355V137.666C94.4314 137.76 94.394 137.851 94.3274 137.917L86.2985 145.946C86.2183 146.026 86.1812 146.14 86.1986 146.252L90.9038 176.574C90.9372 176.79 90.7706 176.984 90.5527 176.984H70.5988C70.3805 176.984 70.2138 176.789 70.2479 176.573L75.0346 146.286C75.0553 146.156 75.0018 146.024 74.8959 145.946L66.862 139.963C66.7719 139.896 66.7189 139.79 66.7189 139.678Z" fill="white"/>
<path d="M74 102.5C74 102.5 77.4616 100 80 100C82.5384 100 86 102.5 86 102.5" stroke="black" stroke-width="3" stroke-linecap="round"/>
<path d="M83.5 60L82.5 64.5" stroke="black" stroke-linecap="round"/>
<path d="M76 60L77 64.5" stroke="black" stroke-linecap="round"/>
<path d="M87.6293 52C76.1661 49.2559 60.2038 41.3333 60.2038 41.3333C60.2038 41.3333 52.4251 38.0142 48.2567 40C43.4518 42.2891 41.2553 50 41.2553 50L40.7572 62L36.7674 60C36.7674 60 32.9653 54.255 34.2742 48.1261C35.7322 41.2998 40.6937 28.9439 48.2567 24C58.531 17.2837 63.8995 16 78.6536 16C93.4078 16 105.082 19.4894 114.815 26.5225C121.751 31.5347 123.55 41.5055 124.814 48.1261C125.876 53.6846 122.036 58 122.036 58L117.548 62L119.19 50.9009C119.19 50.9009 99.3838 54.8139 87.6293 52Z" fill="black"/>
<path d="M56.7156 193.625H63.6719C65.7019 193.625 67.1719 194.089 68.0819 195.016C69.0094 195.944 69.4732 197.116 69.4732 198.534C69.4732 199.321 69.2544 200.056 68.8169 200.739C68.3969 201.404 67.7756 201.937 66.9531 202.34C68.0382 202.725 68.8344 203.302 69.3419 204.072C69.8669 204.842 70.1294 205.691 70.1294 206.619C70.1294 207.284 70.0156 207.922 69.7881 208.535C69.5782 209.13 69.2457 209.699 68.7906 210.241C68.3357 210.766 67.6969 211.195 66.8744 211.527C66.0694 211.842 65.1331 212 64.0656 212H56.7156V193.625ZM63.2257 201.211C64.3456 201.211 65.2031 200.984 65.7981 200.529C66.3932 200.056 66.6907 199.435 66.6907 198.665C66.6907 196.985 65.7107 196.145 63.7506 196.145H59.4456V201.211H63.2257ZM64.2756 209.48C65.3781 209.48 66.1656 209.217 66.6382 208.692C67.1107 208.167 67.3469 207.52 67.3469 206.75C67.3469 204.737 66.0607 203.731 63.4881 203.731H59.4456V209.48H64.2756ZM83.7536 210.451C82.6511 211.694 81.1548 212.315 79.2648 212.315C77.3748 212.315 75.8786 211.694 74.7761 210.451C73.6911 209.209 73.1486 207.494 73.1486 205.306C73.1486 203.119 73.6911 201.404 74.7761 200.161C75.8786 198.901 77.3748 198.271 79.2648 198.271C81.1548 198.271 82.6511 198.901 83.7536 200.161C84.8561 201.404 85.4073 203.119 85.4073 205.306C85.4073 207.494 84.8561 209.209 83.7536 210.451ZM79.2648 209.742C80.3148 209.742 81.1461 209.349 81.7586 208.561C82.3711 207.774 82.6773 206.689 82.6773 205.306C82.6773 203.924 82.3711 202.839 81.7586 202.051C81.1461 201.246 80.3148 200.844 79.2648 200.844C78.2323 200.844 77.4098 201.246 76.7973 202.051C76.1848 202.839 75.8786 203.924 75.8786 205.306C75.8786 206.671 76.1848 207.756 76.7973 208.561C77.4098 209.349 78.2323 209.742 79.2648 209.742ZM92.8461 212.315C91.7961 212.315 90.8074 212.122 89.8799 211.737C88.9524 211.335 88.2524 210.801 87.7799 210.136L89.7224 208.482C90.6849 209.392 91.7086 209.847 92.7936 209.847C94.3686 209.847 95.1561 209.366 95.1561 208.404C95.1561 208.071 95.0074 207.765 94.7099 207.485C94.4124 207.205 94.1149 207.004 93.8174 206.881C93.5199 206.741 93.0386 206.54 92.3736 206.277C90.9036 205.787 89.8186 205.21 89.1186 204.545C88.4361 203.88 88.0949 203.022 88.0949 201.972C88.0949 200.817 88.5324 199.916 89.4074 199.269C90.2999 198.604 91.4199 198.271 92.7674 198.271C94.7799 198.271 96.3461 198.945 97.4661 200.292L95.4974 201.867C94.7799 201.115 93.8699 200.739 92.7674 200.739C92.1899 200.739 91.7261 200.852 91.3761 201.08C91.0436 201.29 90.8774 201.587 90.8774 201.972C90.8774 202.375 91.0786 202.707 91.4811 202.97C91.9011 203.215 92.5661 203.512 93.4761 203.862C94.9986 204.37 96.1099 204.965 96.8099 205.647C97.5274 206.33 97.8861 207.249 97.8861 208.404C97.8861 209.664 97.4311 210.635 96.5211 211.317C95.6286 211.982 94.4036 212.315 92.8461 212.315ZM105.305 212.315C104.255 212.315 103.266 212.122 102.338 211.737C101.411 211.335 100.711 210.801 100.238 210.136L102.181 208.482C103.143 209.392 104.167 209.847 105.252 209.847C106.827 209.847 107.615 209.366 107.615 208.404C107.615 208.071 107.466 207.765 107.168 207.485C106.871 207.205 106.573 207.004 106.276 206.881C105.978 206.741 105.497 206.54 104.832 206.277C103.362 205.787 102.277 205.21 101.577 204.545C100.895 203.88 100.553 203.022 100.553 201.972C100.553 200.817 100.991 199.916 101.866 199.269C102.758 198.604 103.878 198.271 105.226 198.271C107.238 198.271 108.805 198.945 109.925 200.292L107.956 201.867C107.238 201.115 106.328 200.739 105.226 200.739C104.648 200.739 104.185 200.852 103.835 201.08C103.502 201.29 103.336 201.587 103.336 201.972C103.336 202.375 103.537 202.707 103.94 202.97C104.36 203.215 105.025 203.512 105.935 203.862C107.457 204.37 108.568 204.965 109.268 205.647C109.986 206.33 110.345 207.249 110.345 208.404C110.345 209.664 109.89 210.635 108.98 211.317C108.087 211.982 106.862 212.315 105.305 212.315Z" fill="black"/>
</svg>
