<svg width="159" height="223" viewBox="0 0 159 223" fill="none" xmlns="http://www.w3.org/2000/svg">
<path d="M14.3137 129.414C-3.90488 151.975 0.457413 166.187 0.457413 166.187C0.457413 166.187 -1.40785 176.579 79.5093 176.579C160.426 176.579 158.65 166.187 158.65 166.187C158.65 166.187 160.226 147.09 146.481 131.191C132.737 115.291 99 113.5 99 113.5C99 113.5 91.5 122 79.5093 122C67.5186 122 60.5 113.5 60.5 113.5C60.5 113.5 24.928 116.27 14.3137 129.414Z" fill="black" stroke="black" stroke-width="0.177645"/>
<path d="M74.5 75.5H84.5M114.5 77L119 63.5" stroke="black" stroke-width="3" stroke-linecap="round"/>
<path d="M43 75L39 64" stroke="black" stroke-width="3" stroke-linecap="round"/>
<path d="M59.5 43.5C59.5 43.5 71.8863 47.5391 78.6536 50C85.421 52.4608 117.548 62 117.548 62L121 63.5C121 63.5 124.062 52.5585 123 47C121.735 40.3793 118.436 32.0122 111.5 27C101.767 19.9669 93.4078 16 78.6536 16C63.8995 16 55.2088 19.9093 48.5 25.5C39.5 33 37.9579 43.1736 36.5 50C35.191 56.1288 37.5 64.5 37.5 64.5L40 63.5C40 63.5 47.067 56.5059 50.5 52.5C54.8163 47.4633 59.5 43.5 59.5 43.5Z" fill="black"/>
<path d="M72.5 76C72.5 78.7357 71.025 81.3268 68.4137 83.2853C65.802 85.2441 62.1251 86.5 58 86.5C53.8749 86.5 50.198 85.2441 47.5863 83.2853C44.975 81.3268 43.5 78.7357 43.5 76C43.5 73.2643 44.975 70.6732 47.5863 68.7147C50.198 66.7559 53.8749 65.5 58 65.5C62.1251 65.5 65.802 66.7559 68.4137 68.7147C71.025 70.6732 72.5 73.2643 72.5 76Z" fill="white" stroke="black" stroke-width="3"/>
<path d="M113.5 76C113.5 78.7357 112.025 81.3268 109.414 83.2853C106.802 85.2441 103.125 86.5 99 86.5C94.8749 86.5 91.198 85.2441 88.5863 83.2853C85.975 81.3268 84.5 78.7357 84.5 76C84.5 73.2643 85.975 70.6732 88.5863 68.7147C91.198 66.7559 94.8749 65.5 99 65.5C103.125 65.5 106.802 66.7559 109.414 68.7147C112.025 70.6732 113.5 73.2643 113.5 76Z" fill="white" stroke="black" stroke-width="3"/>
<path d="M74 98.5H79.25H84.5" stroke="black" stroke-width="3" stroke-linecap="round"/>
<path d="M63.7536 212V204.807L57.2961 193.625H60.4198L65.1186 202.025L69.8173 193.625H72.9411L66.4836 204.781V212H63.7536ZM83.8039 210.451C82.7014 211.694 81.2051 212.315 79.3151 212.315C77.4251 212.315 75.9289 211.694 74.8264 210.451C73.7414 209.209 73.1989 207.494 73.1989 205.306C73.1989 203.119 73.7414 201.404 74.8264 200.161C75.9289 198.901 77.4251 198.271 79.3151 198.271C81.2051 198.271 82.7014 198.901 83.8039 200.161C84.9064 201.404 85.4576 203.119 85.4576 205.306C85.4576 207.494 84.9064 209.209 83.8039 210.451ZM79.3151 209.742C80.3651 209.742 81.1964 209.349 81.8089 208.561C82.4214 207.774 82.7276 206.689 82.7276 205.306C82.7276 203.924 82.4214 202.839 81.8089 202.051C81.1964 201.246 80.3651 200.844 79.3151 200.844C78.2826 200.844 77.4601 201.246 76.8476 202.051C76.2351 202.839 75.9289 203.924 75.9289 205.306C75.9289 206.671 76.2351 207.756 76.8476 208.561C77.4601 209.349 78.2826 209.742 79.3151 209.742ZM96.9127 212V210.714C96.0727 211.781 94.9177 212.315 93.4477 212.315C90.2277 212.315 88.6177 210.407 88.6177 206.592V198.586H91.3477V206.592C91.3477 207.66 91.5927 208.456 92.0827 208.981C92.5727 209.489 93.2202 209.742 94.0252 209.742C95.9502 209.742 96.9127 208.71 96.9127 206.645V198.586H99.6427V212H96.9127Z" fill="black"/>
</svg>
