<svg width="99" height="142" viewBox="0 0 99 142" fill="none" xmlns="http://www.w3.org/2000/svg">
<path d="M50.7827 30.994C59.3414 30.994 66.2797 24.0558 66.2797 15.497C66.2797 6.93825 59.3414 0 50.7827 0C42.2239 0 35.2856 6.93825 35.2856 15.497C35.2856 24.0558 42.2239 30.994 50.7827 30.994Z" fill="#999999"/>
<path d="M50.9117 96.7638C61.8643 96.7638 70.7431 82.3566 70.7431 64.5845C70.7431 46.8124 61.8643 32.4053 50.9117 32.4053C39.9591 32.4053 31.0803 46.8124 31.0803 64.5845C31.0803 82.3566 39.9591 96.7638 50.9117 96.7638Z" fill="#999999"/>
<path d="M10.2513 30.8866C15.9129 38.899 24.4253 46.9956 29.2643 48.971C34.1034 50.9463 33.4365 46.0523 27.7749 38.0399C22.1133 30.0275 13.6009 21.9309 8.76185 19.9556C3.92283 17.9803 4.58966 22.8742 10.2513 30.8866Z" fill="#999999"/>
<path d="M85.6429 22.4936C78.4654 29.1821 71.5882 38.7068 70.2821 43.7677C68.9761 48.8285 73.7358 47.5091 80.9132 40.8206C88.0907 34.1321 94.9679 24.6073 96.274 19.5465C97.5801 14.4856 92.8203 15.8051 85.6429 22.4936Z" fill="#999999"/>
<path d="M58.4679 107.8C59.0294 117.595 61.9649 128.97 65.0245 133.208C68.0841 137.445 70.1092 132.94 69.5477 123.146C68.9862 113.351 66.0507 101.975 62.9911 97.7379C59.9315 93.5003 57.9064 98.0053 58.4679 107.8Z" fill="#999999"/>
<path d="M35.8741 106.726C32.8924 116.073 31.5616 127.746 32.9017 132.798C34.2417 137.85 37.7452 134.368 40.7269 125.021C43.7086 115.674 45.0394 104.002 43.6994 98.95C42.3593 93.8981 38.8558 97.3797 35.8741 106.726Z" fill="#999999"/>
<path d="M47.1581 30.4208C42.0767 29.1887 37.6889 25.0606 36.0632 19.9827C35.3347 17.7074 35.2777 13.6416 35.9426 11.3837C37.5034 6.08375 41.9991 1.78112 47.2763 0.53688C55.1613 -1.32221 63.2983 3.48845 65.6233 11.3837C66.2882 13.6416 66.2312 17.7074 65.5028 19.9827C64.3424 23.6072 61.5501 27.0568 58.247 28.9467C55.2739 30.6477 50.6362 31.2642 47.1581 30.4208Z" fill="#808000"/>
<path d="M48.6662 96.4583C46.6902 96.0305 44.5832 95.0949 43.0505 93.9647C35.051 88.0659 30.4257 75.0848 31.354 61.1378C32.2764 47.2796 38.5173 36.1203 46.9891 33.1807C49.273 32.3882 52.516 32.3912 54.8412 33.188C61.3118 35.4051 66.6343 42.5897 69.1734 52.5344C70.9431 59.4656 70.9954 69.4051 69.2978 76.1432C68.0454 81.1138 66.0769 85.6562 63.7808 88.8739C62.3575 90.8685 59.4107 93.6889 57.7065 94.6876C55.0212 96.2613 51.207 97.0084 48.6662 96.4583V96.4583Z" fill="#FF6600"/>
<path d="M46.4173 30.0665C43.7838 29.2141 42.1067 28.1674 40.0584 26.0977C37.7646 23.78 36.5123 21.611 35.9581 18.9957C34.8748 13.8834 36.0943 9.15365 39.4512 5.44824C45.5263 -1.25764 55.132 -1.50605 61.5259 4.87737C64.5403 7.88681 65.9965 11.2873 65.9965 15.3169C65.9965 19.7168 64.6302 22.9536 61.4023 26.2005C59.1046 28.5117 57.5318 29.4499 54.7622 30.161C52.5777 30.722 48.2925 30.6734 46.4173 30.0665Z" fill="#008000"/>
<path d="M47.1597 95.911C41.5222 93.9708 36.4517 87.9089 33.7762 79.9108C29.9123 68.3597 30.7391 54.3329 35.8765 44.2801C42.0096 32.2788 52.2867 29.229 60.5599 36.9552C67.5291 43.4637 71.3342 55.9281 70.2612 68.7342C69.8749 73.3444 69.4297 75.589 68.1172 79.5436C67.0057 82.8926 65.4293 86.2258 63.8714 88.5214C62.4546 90.609 58.6208 94.1516 56.8945 94.9682C53.6338 96.5108 49.9416 96.8684 47.1597 95.911Z" fill="#008000"/>
<path d="M29.6782 48.9727C24.7898 47.2284 15.2128 38.0574 9.76588 29.9046C6.52048 25.0469 5.02126 21.2173 5.9343 20.1171C8.44362 17.0936 23.2239 30.2695 29.8004 41.3926C32.0993 45.2808 32.8912 48.0231 31.9786 48.9357C31.4789 49.4354 30.9967 49.4431 29.6782 48.9727Z" fill="#008000"/>
<path d="M70.4934 46.3075C69.4887 45.097 71.3128 40.5011 74.8602 35.3048C80.4476 27.1204 89.072 18.6727 93.6095 16.9398C97.8081 15.3363 97.1137 19.9186 91.9887 27.635C84.9518 38.2302 72.655 48.9121 70.4934 46.3075Z" fill="#008000"/>
<path d="M33.7622 134.412C32.8621 133.268 32.5406 131.262 32.575 127.007C32.6594 116.542 36.596 101.666 40.3155 97.7556C41.6967 96.3036 42.3578 96.3941 43.23 98.1544C43.8083 99.3216 43.8911 99.8867 43.989 103.333C44.2974 114.19 40.0122 130.695 35.9618 134.251C34.8241 135.25 34.4433 135.278 33.7622 134.412Z" fill="#008000"/>
<path d="M66.6038 134.535C64.5472 133.737 61.7901 127.082 60.0871 118.805C58.935 113.206 58.7209 111.091 58.7207 105.311C58.7205 99.3335 58.9153 98.0711 60.037 96.7823C60.6451 96.0837 60.7072 96.0687 61.407 96.4519C64.2085 97.9859 67.2635 106.617 68.9442 117.746C69.1638 119.2 69.3021 122.343 69.2994 125.816C69.2955 130.872 69.2366 131.648 68.7703 132.797C68.1593 134.301 67.4555 134.866 66.6038 134.535Z" fill="#008000"/>
<path d="M46.0829 7.20224C45.6292 7.30841 44.8829 7.56277 44.5585 7.922C44.1524 8.37155 44.235 9.16538 44.2787 9.72298C44.3665 10.8414 45.8631 11.5894 46.8435 11.612C47.335 11.6233 47.8991 11.6816 48.3364 11.4108C48.6705 11.204 49.1536 10.7085 49.2951 10.3233C49.4617 9.86977 49.3642 9.24665 49.3642 8.76749C49.3642 8.17814 48.9555 7.76792 48.4842 7.45369C47.7979 6.99617 46.9919 7.14567 46.196 7.14567" stroke="black" stroke-linecap="round" stroke-linejoin="round"/>
<path d="M49.647 9.46533C50.8916 9.46533 52.1363 9.46533 53.3809 9.46533" stroke="black" stroke-linecap="round" stroke-linejoin="round"/>
<path d="M57.3412 7.25885C56.4205 7.46066 55.4114 7.68178 54.6036 8.17348C53.8155 8.6532 52.6455 9.54181 52.6455 10.5779C52.6455 11.1305 53.1772 11.5354 53.5727 11.8509C54.0472 12.2294 54.56 12.5286 55.1757 12.5675C56.1379 12.6282 57.3913 12.5601 58.1019 11.8131C58.2921 11.6132 58.5193 11.4124 58.6865 11.194C59.0368 10.7362 58.9253 10.0223 58.9253 9.48414C58.9253 8.6797 58.6999 8.18902 58.1459 7.61087C57.8349 7.28636 57.521 6.97355 57.1967 6.66167C57.0229 6.49461 56.8922 6.52337 56.6623 6.52337" stroke="black" stroke-linecap="round" stroke-linejoin="round"/>
<path d="M58.9253 9.29556C59.5429 8.92501 60.2165 8.64717 60.8048 8.22692C61.1482 7.98166 61.4487 7.6957 61.8672 7.57945C62.2213 7.48109 62.5856 7.3977 62.9421 7.31543" stroke="black" stroke-linecap="round" stroke-linejoin="round"/>
<path d="M44.2724 9.46541C42.8391 8.7945 41.2775 8.30033 39.7653 7.83102C39.277 7.67948 38.8376 7.50649 38.332 7.42871" stroke="black" stroke-linecap="round" stroke-linejoin="round"/>
</svg>
