<?xml version="1.0" encoding="UTF-8" standalone="no"?>
<!-- Generator: Adobe Illustrator 25.0.0, SVG Export Plug-In . SVG Version: 6.00 Build 0)  -->

<svg
   xmlns:dc="http://purl.org/dc/elements/1.1/"
   xmlns:cc="http://creativecommons.org/ns#"
   xmlns:rdf="http://www.w3.org/1999/02/22-rdf-syntax-ns#"
   xmlns:svg="http://www.w3.org/2000/svg"
   xmlns="http://www.w3.org/2000/svg"
   xmlns:xlink="http://www.w3.org/1999/xlink"
   xmlns:sodipodi="http://sodipodi.sourceforge.net/DTD/sodipodi-0.dtd"
   xmlns:inkscape="http://www.inkscape.org/namespaces/inkscape"
   version="1.1"
   id="Camada_1"
   x="0px"
   y="0px"
   viewBox="0 0 242.45 156.15"
   style="enable-background:new 0 0 242.45 156.15;"
   xml:space="preserve"
   sodipodi:docname="santa2.svg"
   inkscape:version="0.92.3 (2405546, 2018-03-11)"><metadata
   id="metadata313"><rdf:RDF><cc:Work
       rdf:about=""><dc:format>image/svg+xml</dc:format><dc:type
         rdf:resource="http://purl.org/dc/dcmitype/StillImage" /><dc:title></dc:title></cc:Work></rdf:RDF></metadata><defs
   id="defs311" /><sodipodi:namedview
   pagecolor="#ffffff"
   bordercolor="#666666"
   borderopacity="1"
   objecttolerance="10"
   gridtolerance="10"
   guidetolerance="10"
   inkscape:pageopacity="0"
   inkscape:pageshadow="2"
   inkscape:window-width="1920"
   inkscape:window-height="960"
   id="namedview309"
   showgrid="false"
   inkscape:zoom="1.4106001"
   inkscape:cx="121.225"
   inkscape:cy="78.074997"
   inkscape:window-x="0"
   inkscape:window-y="27"
   inkscape:window-maximized="1"
   inkscape:current-layer="Camada_1" />
<style
   type="text/css"
   id="style2">
	.st0{fill:#231F20;}
	.st1{fill:#F7CA33;stroke:#D3A52A;stroke-width:0.25;stroke-miterlimit:10;}
	.st2{fill:#F7CA33;}
	.st3{fill:#D3A52A;}
	.st4{fill:#808285;stroke:#6D6E71;stroke-width:0.25;stroke-miterlimit:10;}
	.st5{fill:#BA131F;}
	.st6{fill:#8C1313;}
	.st7{fill:#6D6E71;}
	.st8{fill:#CC3333;}
	.st9{fill:#961212;}
	.st10{fill:#F4EAD3;}
	.st11{fill:#CBBC9B;}
	.st12{fill:#6D6E71;stroke:#58595B;stroke-width:0.25;stroke-miterlimit:10;}
	.st13{fill:#414042;stroke:#231F20;stroke-width:0.05;stroke-miterlimit:10;}
	.st14{fill:#FFF200;stroke:#231F20;stroke-width:0.05;stroke-miterlimit:10;}
	.st15{fill:#FF0013;stroke:#231F20;stroke-width:0.05;stroke-miterlimit:10;}
	.st16{fill:#58FF00;stroke:#231F20;stroke-width:0.05;stroke-miterlimit:10;}
	.st17{fill:#03F9FF;stroke:#231F20;stroke-width:0.05;stroke-miterlimit:10;}
	.st18{fill:#939598;stroke:#808285;stroke-width:0.25;stroke-miterlimit:10;}
	.st19{fill:#A7A9AC;stroke:#BCBEC0;stroke-width:0.15;stroke-miterlimit:10;}
	.st20{fill:#ED1C24;stroke:#D31A28;stroke-width:0.25;stroke-miterlimit:10;}
	.st21{fill:#231F20;stroke:#231F20;stroke-width:0.25;stroke-miterlimit:10;}
	.st22{fill:#BCBEC0;stroke:#A7A9AC;stroke-width:0.05;stroke-miterlimit:10;}
	.st23{fill:#414042;}
	.st24{fill:#BB8C61;}
	.st25{fill:#8E6442;}
	.st26{clip-path:url(#SVGID_1_);fill:#BB8C61;}
	.st27{clip-path:url(#SVGID_1_);fill:#9B7353;}
	.st28{clip-path:url(#SVGID_1_);}
	.st29{fill:#8B5E3C;}
	.st30{fill:#FFF5DC;}
	.st31{fill:#CEC8BA;}
	.st32{fill:#ED001D;stroke:#8C1313;stroke-width:0.5;stroke-miterlimit:10;}
	.st33{fill:#ED001D;}
	.st34{fill:#F7CA33;stroke:#D3A52A;stroke-width:0.15;stroke-miterlimit:10;}
	.st35{fill:#FFFBF0;}
	.st36{fill:#FFE1D9;stroke:#CEC8BA;stroke-width:0.25;stroke-miterlimit:10;}
	.st37{fill:#FFE1D9;}
	.st38{fill:#FCB1A2;}
	.st39{fill:#FFFBF0;stroke:#CEC8BA;stroke-width:0.25;stroke-miterlimit:10;}
	.st40{fill:#ED001D;stroke:#8C1313;stroke-width:0.25;stroke-miterlimit:10;}
</style>
<g
   id="g306"
   transform="matrix(-1,0,0,1,242.46,0)">
	<path
   class="st0"
   d="M 242.45,20.34 H 217.3 c -1.97,-3.99 -6.06,-6.58 -10.59,-6.58 h -0.86 c -0.79,-0.87 -1.97,-1.5 -3.45,-1.81 -0.52,-0.11 -2.43,-0.4 -2.79,-0.46 -3.55,-0.58 -7.19,-0.78 -10.83,-0.59 -4.6,-4.27 -10.59,-6.92 -17.41,-7.71 -1.09,-0.5 -2.13,-0.92 -3.16,-1.28 -4.72,-1.67 -9.69,-2.25 -14.54,-1.71 l -0.26,0.03 -0.24,0.09 C 152,0.77 150.8,1.28 149.61,1.83 141.79,3.69 135.31,7.7 130.34,13.76 H 53.57 c -0.64,-0.78 -1.64,-1.34 -2.92,-1.6 -0.37,-0.08 -2.03,-0.33 -2.03,-0.33 -3.98,-0.64 -8.01,-0.64 -11.99,0 l -1.8,0.29 c -2.19,0.09 -3.95,1.79 -3.95,3.86 v 3.74 c 0,0.21 0.02,0.42 0.05,0.62 H 8.67 C 7.32,20.26 3.13,20.16 1.14,22.02 0.4,22.72 0,23.61 0,24.61 c 0,1 0.4,1.89 1.14,2.59 1.99,1.86 6.18,1.77 7.53,1.68 h 18.31 c -16.15,30.83 -16.15,67.56 0,98.39 H 8.67 c -1.35,-0.09 -5.54,-0.18 -7.53,1.68 -0.74,0.7 -1.14,1.59 -1.14,2.59 0,1 0.4,1.89 1.14,2.59 1.99,1.86 6.18,1.76 7.53,1.68 h 22.35 c -0.04,0.2 -0.05,0.41 -0.05,0.62 v 3.74 c 0,1.91 1.39,3.34 3.72,3.83 0.37,0.08 2.03,0.33 2.03,0.33 3.98,0.64 8.01,0.64 11.99,0 l 1.8,-0.29 c 1.3,-0.05 2.47,-0.69 3.19,-1.64 h 31.33 l -0.05,0.01 h 44.54 c 3.89,6.7 9.93,11.44 16.72,13.1 1.78,0.43 3.57,0.65 5.36,0.65 4.67,0 9.33,-1.47 13.72,-4.36 1.22,0.04 2.44,0 3.62,-0.11 5.78,-0.55 10.97,-2.85 15.44,-6.84 5.07,0.71 10.19,0.65 15.24,-0.18 l 2.55,-0.42 c 1.52,-0.05 2.89,-0.75 3.77,-1.85 h 0.78 c 4.53,0 8.62,-2.59 10.59,-6.58 h 25.15 v -8.54 h -22.74 l 1.17,-4.67 h 9.22 v -9.3 h -6.89 l 0.04,-0.15 c 5.74,-22.95 5.74,-47.22 0,-70.17 l -0.04,-0.15 h 6.89 v -9.3 h -9.22 l -1.17,-4.67 h 22.74 v -8.53 z"
   id="path4"
   inkscape:connector-curvature="0"
   style="fill:#231f20" />
	<g
   id="g210">
		<g
   id="g26">
			<g
   id="g14">
				<rect
   x="8.6099997"
   y="129.27"
   class="st1"
   width="231.84"
   height="4.54"
   id="rect6"
   style="fill:#f7ca33;stroke:#d3a52a;stroke-width:0.25;stroke-miterlimit:10" />
				<g
   id="g12">
					<path
   class="st2"
   d="m 8.61,129.27 c 0,0 -6.61,-0.45 -6.61,2.27 0,2.72 6.61,2.27 6.61,2.27 0,0 22.31,0 22.31,-2.27 0,-2.27 -22.31,-2.27 -22.31,-2.27 z"
   id="path8"
   inkscape:connector-curvature="0"
   style="fill:#f7ca33" />
					<path
   class="st3"
   d="m 8.6,129.59 c -1.25,-0.05 -2.5,0 -3.71,0.22 -0.6,0.12 -1.19,0.27 -1.69,0.54 -0.5,0.28 -0.86,0.68 -0.86,1.18 -0.02,0.5 0.31,0.94 0.82,1.21 0.5,0.28 1.09,0.45 1.69,0.57 1.21,0.22 2.46,0.28 3.71,0.23 5.07,0.01 10.11,-0.06 15.15,-0.44 1.26,-0.1 2.51,-0.22 3.76,-0.4 0.62,-0.09 1.24,-0.2 1.85,-0.36 0.3,-0.08 0.6,-0.17 0.88,-0.29 0.27,-0.11 0.57,-0.3 0.59,-0.51 0.01,-0.2 -0.3,-0.39 -0.56,-0.51 -0.28,-0.12 -0.58,-0.21 -0.88,-0.29 -0.6,-0.16 -1.22,-0.26 -1.84,-0.36 -1.24,-0.19 -2.5,-0.3 -3.76,-0.4 -5.04,-0.37 -10.09,-0.41 -15.15,-0.39 z m 0.02,-0.64 c 5.04,0.08 10.11,0.27 15.16,0.69 1.26,0.11 2.52,0.25 3.78,0.45 0.63,0.1 1.25,0.22 1.87,0.39 0.31,0.09 0.62,0.18 0.92,0.32 0.15,0.07 0.3,0.15 0.43,0.26 0.13,0.1 0.28,0.27 0.27,0.5 -0.08,0.46 -0.47,0.58 -0.74,0.72 -0.3,0.13 -0.61,0.23 -0.92,0.31 -0.62,0.17 -1.24,0.28 -1.87,0.38 -1.25,0.2 -2.51,0.33 -3.77,0.45 -5.04,0.43 -10.12,0.57 -15.15,0.66 -1.28,0.07 -2.56,0.04 -3.85,-0.17 -0.64,-0.12 -1.28,-0.28 -1.9,-0.61 l -0.44,-0.29 -0.39,-0.4 c -0.09,-0.17 -0.19,-0.34 -0.26,-0.52 -0.03,-0.19 -0.07,-0.38 -0.09,-0.57 0.03,-0.19 0.05,-0.39 0.09,-0.57 0.09,-0.17 0.17,-0.36 0.28,-0.51 0.13,-0.13 0.25,-0.28 0.39,-0.4 l 0.44,-0.3 c 0.62,-0.32 1.26,-0.49 1.9,-0.61 1.28,-0.23 2.58,-0.25 3.85,-0.18 z"
   id="path10"
   inkscape:connector-curvature="0"
   style="fill:#d3a52a" />
				</g>
			</g>
			<g
   id="g24">
				<rect
   x="8.6099997"
   y="22.34"
   class="st1"
   width="231.84"
   height="4.54"
   id="rect16"
   style="fill:#f7ca33;stroke:#d3a52a;stroke-width:0.25;stroke-miterlimit:10" />
				<g
   id="g22">
					<path
   class="st2"
   d="m 8.61,22.34 c 0,0 -6.61,-0.45 -6.61,2.27 0,2.72 6.61,2.27 6.61,2.27 0,0 22.31,0 22.31,-2.27 0,-2.27 -22.31,-2.27 -22.31,-2.27 z"
   id="path18"
   inkscape:connector-curvature="0"
   style="fill:#f7ca33" />
					<path
   class="st3"
   d="m 8.6,22.66 c -1.25,-0.05 -2.5,0 -3.7,0.22 -0.6,0.12 -1.19,0.28 -1.69,0.54 -0.5,0.27 -0.85,0.67 -0.84,1.17 -0.02,0.49 0.3,0.92 0.81,1.19 0.5,0.28 1.09,0.44 1.68,0.57 1.2,0.23 2.46,0.28 3.71,0.23 5.07,0.02 10.11,-0.05 15.15,-0.43 1.26,-0.1 2.51,-0.22 3.76,-0.4 0.62,-0.09 1.24,-0.2 1.85,-0.35 0.3,-0.08 0.6,-0.17 0.88,-0.29 0.27,-0.11 0.57,-0.29 0.59,-0.5 0.01,-0.21 -0.3,-0.39 -0.56,-0.51 -0.28,-0.12 -0.58,-0.21 -0.88,-0.29 -0.6,-0.16 -1.22,-0.26 -1.85,-0.36 -1.24,-0.18 -2.5,-0.3 -3.76,-0.4 C 18.71,22.68 13.66,22.65 8.6,22.66 Z m 0.02,-0.65 c 5.04,0.08 10.11,0.28 15.16,0.7 1.26,0.12 2.52,0.25 3.77,0.45 0.63,0.1 1.25,0.22 1.87,0.39 0.31,0.09 0.62,0.18 0.91,0.32 0.15,0.07 0.3,0.15 0.43,0.26 0.13,0.1 0.28,0.27 0.27,0.5 -0.08,0.45 -0.46,0.58 -0.74,0.73 -0.3,0.13 -0.61,0.23 -0.92,0.31 -0.62,0.17 -1.24,0.28 -1.87,0.38 -1.25,0.2 -2.51,0.34 -3.78,0.45 C 18.68,26.93 13.6,27.08 8.57,27.16 7.31,27.24 6.02,27.21 4.74,27 4.1,26.88 3.45,26.72 2.84,26.39 L 2.39,26.1 2,25.69 C 1.91,25.52 1.8,25.35 1.73,25.17 1.7,24.98 1.66,24.78 1.64,24.59 1.67,24.4 1.69,24.2 1.74,24.01 1.83,23.84 1.91,23.65 2.02,23.49 2.15,23.35 2.28,23.21 2.41,23.09 l 0.45,-0.3 C 3.48,22.47 4.13,22.3 4.77,22.18 6.05,21.96 7.35,21.94 8.62,22.01 Z"
   id="path20"
   inkscape:connector-curvature="0"
   style="fill:#d3a52a" />
				</g>
			</g>
		</g>
		<g
   id="g34">
			<rect
   x="215.94"
   y="35.540001"
   class="st4"
   width="12.15"
   height="5.3000002"
   id="rect28"
   style="fill:#808285;stroke:#6d6e71;stroke-width:0.25;stroke-miterlimit:10" />
			<g
   id="g32">
				<rect
   x="215.94"
   y="115.3"
   class="st4"
   width="12.15"
   height="5.3000002"
   id="rect30"
   style="fill:#808285;stroke:#6d6e71;stroke-width:0.25;stroke-miterlimit:10" />
			</g>
		</g>
		<g
   id="g40">
			<path
   class="st5"
   d="M 36.16,15.76 H 206.7 c 4.5,0 8.43,3.06 9.52,7.43 1.27,5.07 5.07,20.28 5.07,20.28 5.68,22.72 5.68,46.49 0,69.2 0,0 -3.8,15.21 -5.07,20.28 -1.09,4.37 -5.02,7.43 -9.52,7.43 H 36.16 L 28.9,126.63 C 12.86,96.24 12.86,59.9 28.9,29.51 Z"
   id="path36"
   inkscape:connector-curvature="0"
   style="fill:#ba131f" />
			<path
   class="st6"
   d="m 36.16,15.76 119.68,-0.1 29.93,-0.03 14.97,-0.01 h 3.74 c 1.24,0.02 2.5,-0.07 3.76,0.12 2.5,0.38 4.83,1.77 6.37,3.78 6.33,18.8 11.22,38.51 11.13,58.55 -0.02,9.99 -1.04,19.98 -3.12,29.75 -1.06,4.88 -2.33,9.7 -3.52,14.55 l -1.81,7.26 -0.92,3.63 c -0.34,1.23 -0.92,2.39 -1.69,3.41 -1.55,2.03 -3.9,3.45 -6.43,3.83 -1.28,0.19 -2.53,0.1 -3.77,0.12 h -3.74 l -14.96,-0.01 -29.93,-0.02 -119.7,-0.1 h -0.07 l -0.03,-0.06 c -2.55,-4.88 -5.16,-9.73 -7.67,-14.63 -1.19,-2.48 -2.48,-4.92 -3.47,-7.5 -0.51,-1.28 -1.09,-2.53 -1.55,-3.83 l -1.34,-3.91 c -0.48,-1.29 -0.84,-2.62 -1.2,-3.95 -0.36,-1.33 -0.75,-2.65 -1.09,-3.99 l -0.86,-4.04 c -0.14,-0.67 -0.3,-1.34 -0.42,-2.02 L 18.14,94.52 17.53,90.43 17.16,86.31 17,84.27 l -0.06,-2.06 -0.12,-4.13 0.13,-4.13 0.06,-2.06 0.18,-2.06 0.38,-4.11 0.61,-4.08 0.31,-2.04 c 0.12,-0.68 0.28,-1.35 0.42,-2.02 l 0.87,-4.04 c 0.33,-1.33 0.73,-2.65 1.09,-3.98 0.36,-1.33 0.72,-2.66 1.21,-3.95 l 1.35,-3.9 c 0.46,-1.3 1.04,-2.55 1.55,-3.83 0.99,-2.57 2.28,-5.01 3.48,-7.49 2.53,-4.91 5.14,-9.76 7.7,-14.63 z m 0,0 c -2.56,4.88 -5.16,9.73 -7.67,14.63 -1.19,2.48 -2.48,4.92 -3.46,7.49 -0.51,1.28 -1.08,2.53 -1.55,3.83 l -1.34,3.9 c -0.48,1.29 -0.84,2.62 -1.2,3.95 -0.36,1.33 -0.75,2.65 -1.09,3.98 l -0.86,4.04 c -0.14,0.67 -0.3,1.34 -0.42,2.02 l -0.31,2.04 -0.61,4.08 -0.37,4.11 -0.18,2.06 -0.06,2.06 -0.12,4.13 0.13,4.13 0.06,2.06 0.18,2.06 0.37,4.11 0.61,4.08 0.31,2.04 c 0.12,0.68 0.28,1.35 0.42,2.02 l 0.87,4.03 c 0.33,1.33 0.73,2.65 1.09,3.98 0.36,1.33 0.72,2.65 1.2,3.94 l 1.35,3.9 c 0.46,1.29 1.04,2.55 1.55,3.82 0.99,2.57 2.28,5 3.47,7.48 2.52,4.89 5.13,9.74 7.69,14.61 l -0.1,-0.06 119.7,-0.1 29.93,-0.02 14.96,-0.01 h 3.74 c 1.25,-0.02 2.5,0.06 3.7,-0.12 2.4,-0.36 4.64,-1.7 6.12,-3.64 0.74,-0.97 1.29,-2.07 1.61,-3.25 l 0.92,-3.62 1.82,-7.26 c 1.2,-4.84 2.48,-9.67 3.54,-14.53 2.09,-9.74 3.11,-19.7 3.15,-29.66 -0.02,-9.96 -1.03,-19.92 -3.11,-29.67 -1.06,-4.87 -2.33,-9.69 -3.52,-14.54 l -1.81,-7.26 -0.91,-3.62 c -0.33,-1.18 -0.88,-2.3 -1.62,-3.28 -1.49,-1.95 -3.75,-3.31 -6.18,-3.68 -1.21,-0.19 -2.47,-0.1 -3.71,-0.12 h -3.74 l -14.96,-0.01 -29.92,-0.03 z"
   id="path38"
   inkscape:connector-curvature="0"
   style="fill:#8c1313" />
		</g>
		<ellipse
   class="st7"
   cx="63.139999"
   cy="78.07"
   rx="12.46"
   ry="8.4099998"
   id="ellipse42"
   style="fill:#6d6e71" />
		<g
   id="g48">
			<path
   class="st8"
   d="m 99.1,15.76 c 0,0 20.01,5.83 78.76,5.83 v -5.83 z"
   id="path44"
   inkscape:connector-curvature="0"
   style="fill:#cc3333" />
			<path
   class="st9"
   d="m 99.1,15.76 c 6.41,1.54 12.98,2.32 19.52,3.03 6.55,0.68 13.12,1.22 19.71,1.57 3.29,0.22 6.58,0.31 9.87,0.48 l 9.88,0.3 9.89,0.16 9.89,0.04 -0.24,0.24 v -5.83 l 0.24,0.24 z m 0,0 78.76,-0.24 h 0.24 v 0.25 5.83 0.25 h -0.24 l -9.89,-0.08 -9.89,-0.2 -9.89,-0.34 c -3.29,-0.18 -6.59,-0.28 -9.88,-0.52 -6.58,-0.38 -13.16,-0.93 -19.71,-1.66 -6.54,-0.81 -13.1,-1.67 -19.5,-3.29 z"
   id="path46"
   inkscape:connector-curvature="0"
   style="fill:#961212" />
		</g>
		<g
   id="g54">
			<path
   class="st8"
   d="m 99.1,140.4 c 0,0 20.01,-5.83 78.76,-5.83 v 5.83 z"
   id="path50"
   inkscape:connector-curvature="0"
   style="fill:#cc3333" />
			<path
   class="st9"
   d="m 99.1,140.4 c 6.4,-1.62 12.96,-2.48 19.5,-3.27 6.55,-0.73 13.13,-1.28 19.71,-1.66 3.29,-0.23 6.59,-0.34 9.88,-0.52 l 9.89,-0.34 9.89,-0.2 9.89,-0.08 h 0.24 v 0.25 5.83 0.25 h -0.24 z m 0,0 78.76,-0.24 -0.24,0.24 v -5.83 l 0.24,0.24 -9.89,0.04 -9.89,0.16 -9.88,0.3 c -3.29,0.16 -6.59,0.26 -9.87,0.48 -6.58,0.35 -13.15,0.89 -19.71,1.57 -6.54,0.72 -13.11,1.5 -19.52,3.04 z"
   id="path52"
   inkscape:connector-curvature="0"
   style="fill:#961212" />
		</g>
		<g
   id="g60">
			<path
   class="st8"
   d="m 201.02,140.39 h -20.77 c 0,0 3.46,-17.86 3.46,-62.31 0,-36.14 -3.46,-62.31 -3.46,-62.31 h 20.77 c 0,0 3.46,25.76 3.46,62.31 0,45.38 -3.46,62.31 -3.46,62.31 z"
   id="path56"
   inkscape:connector-curvature="0"
   style="fill:#cc3333" />
			<path
   class="st9"
   d="m 201.02,140.39 -20.77,0.07 h -0.08 l 0.01,-0.08 c 0.85,-5.13 1.33,-10.32 1.76,-15.5 0.42,-5.19 0.74,-10.38 0.96,-15.58 0.47,-10.4 0.64,-20.8 0.63,-31.21 -0.02,-10.41 -0.32,-20.81 -0.88,-31.2 C 182.06,36.5 181.27,26.12 180,15.8 l -0.03,-0.28 h 0.28 l 20.77,0.02 h 0.2 l 0.02,0.2 c 1.26,10.35 2.03,20.73 2.59,31.13 0.53,10.4 0.8,20.81 0.8,31.22 -0.02,10.41 -0.19,20.82 -0.7,31.22 -0.24,5.2 -0.58,10.4 -1.02,15.58 -0.46,5.18 -0.97,10.37 -1.89,15.5 z m 0,0 c 0.89,-5.13 1.36,-10.32 1.79,-15.5 0.41,-5.19 0.71,-10.38 0.92,-15.58 0.44,-10.4 0.61,-20.81 0.6,-31.21 -0.02,-10.41 -0.31,-20.81 -0.87,-31.2 -0.59,-10.39 -1.38,-20.77 -2.66,-31.09 l 0.22,0.2 -20.77,0.02 0.25,-0.28 c 1.25,10.35 2.02,20.74 2.58,31.13 0.54,10.4 0.81,20.81 0.81,31.22 -0.01,10.41 -0.21,20.82 -0.7,31.22 -0.24,5.2 -0.56,10.4 -1,15.59 -0.46,5.19 -0.98,10.37 -1.87,15.51 l -0.07,-0.08 z"
   id="path58"
   inkscape:connector-curvature="0"
   style="fill:#961212" />
		</g>
		<g
   id="g66">
			<path
   class="st1"
   d="m 180.82,13.9 2.69,-0.44 c 5.21,-0.85 10.56,-0.85 15.77,0 0,0 2.2,0.34 2.69,0.44 1.65,0.35 2.96,1.19 2.96,2.65 v 5.3 c 0,1.46 -1.32,2.65 -2.96,2.65 l -3.68,-0.6 c -4.56,-0.75 -9.24,-0.75 -13.8,0 l -3.68,0.6 c -1.63,0 -2.96,-1.19 -2.96,-2.65 v -5.3 c 0.01,-1.46 1.33,-2.65 2.97,-2.65 z"
   id="path62"
   inkscape:connector-curvature="0"
   style="fill:#f7ca33;stroke:#d3a52a;stroke-width:0.25;stroke-miterlimit:10" />
			<path
   class="st1"
   d="m 201.97,142.24 -2.69,0.44 c -5.21,0.85 -10.56,0.85 -15.77,0 0,0 -2.2,-0.34 -2.69,-0.44 -1.65,-0.35 -2.96,-1.19 -2.96,-2.65 v -5.3 c 0,-1.46 1.32,-2.65 2.96,-2.65 l 3.68,0.6 c 4.56,0.75 9.24,0.75 13.8,0 l 3.68,-0.6 c 1.63,0 2.96,1.19 2.96,2.65 v 5.3 c -0.01,1.47 -1.33,2.65 -2.97,2.65 z"
   id="path64"
   inkscape:connector-curvature="0"
   style="fill:#f7ca33;stroke:#d3a52a;stroke-width:0.25;stroke-miterlimit:10" />
		</g>
		<g
   id="g86">
			<g
   id="g72">
				<path
   class="st10"
   d="M 121.82,58.58 H 88.84 c -1.66,0 -3,-1.34 -3,-3 V 22.6 c 0,-1.66 1.34,-3 3,-3 h 32.98 c 1.66,0 3,1.34 3,3 v 32.98 c 0,1.66 -1.35,3 -3,3 z"
   id="path68"
   inkscape:connector-curvature="0"
   style="fill:#f4ead3" />
				<path
   class="st11"
   d="m 121.82,58.92 -18.85,0.13 -9.42,0.06 -4.71,0.02 C 87.91,59.14 86.98,58.76 86.32,58.1 85.66,57.45 85.27,56.52 85.27,55.58 85.25,49.3 85.2,43.02 85.25,36.73 l 0.04,-9.42 0.02,-4.71 c 0,-0.92 0.38,-1.84 1.04,-2.49 0.65,-0.65 1.57,-1.03 2.49,-1.02 l 18.85,0.09 9.42,0.05 4.71,0.03 c 0.88,0 1.75,0.37 2.36,0.99 0.62,0.62 0.97,1.49 0.96,2.36 -0.03,6.28 -0.09,12.56 -0.06,18.85 l 0.03,9.42 0.03,4.71 c 0.01,0.87 -0.34,1.74 -0.96,2.35 -0.62,0.62 -1.49,0.98 -2.36,0.98 z m 0,-0.68 c 0.7,0.01 1.39,-0.27 1.89,-0.77 0.5,-0.49 0.79,-1.18 0.8,-1.89 l 0.03,-4.71 0.03,-9.42 c 0.03,-6.28 -0.04,-12.56 -0.06,-18.85 0,-0.7 -0.29,-1.39 -0.79,-1.89 -0.5,-0.49 -1.19,-0.77 -1.89,-0.77 l -4.71,0.03 -9.42,0.05 -18.85,0.09 c -1.33,-0.03 -2.51,1.17 -2.47,2.49 l 0.02,4.71 0.04,9.42 c 0.05,6.28 -0.01,12.56 -0.02,18.85 -0.04,1.3 1.12,2.48 2.43,2.45 l 4.71,0.02 9.42,0.06 z"
   id="path70"
   inkscape:connector-curvature="0"
   style="fill:#cbbc9b" />
			</g>
			<g
   id="g78">
				<path
   class="st10"
   d="M 121.82,97.56 H 88.84 c -1.66,0 -3,-1.34 -3,-3 V 61.58 c 0,-1.66 1.34,-3 3,-3 h 32.98 c 1.66,0 3,1.34 3,3 v 32.98 c 0,1.66 -1.35,3 -3,3 z"
   id="path74"
   inkscape:connector-curvature="0"
   style="fill:#f4ead3" />
				<path
   class="st11"
   d="m 121.82,97.85 -18.85,0.11 -9.42,0.06 -4.71,0.02 c -0.91,0.01 -1.82,-0.37 -2.46,-1.01 -0.65,-0.64 -1.03,-1.55 -1.03,-2.46 l -0.06,-18.85 0.02,-9.42 0.02,-4.71 c 0,-0.92 0.38,-1.83 1.03,-2.48 0.65,-0.65 1.56,-1.03 2.48,-1.02 l 18.85,0.06 9.42,0.04 4.71,0.02 c 0.88,0 1.76,0.37 2.37,0.99 0.62,0.62 0.98,1.5 0.97,2.37 l -0.09,18.85 0.02,9.42 0.01,4.71 c 0.01,0.86 -0.35,1.72 -0.96,2.32 -0.6,0.63 -1.46,0.99 -2.32,0.98 z m 0,-0.58 c 0.71,0 1.42,-0.29 1.92,-0.79 0.51,-0.5 0.8,-1.2 0.8,-1.92 l 0.01,-4.71 0.02,-9.42 -0.09,-18.85 c 0,-0.7 -0.29,-1.38 -0.79,-1.87 -0.49,-0.49 -1.18,-0.77 -1.87,-0.76 l -4.71,0.02 -9.42,0.04 -18.85,0.06 c -1.34,-0.03 -2.53,1.17 -2.49,2.5 l 0.02,4.71 0.02,9.42 -0.06,18.85 c -0.04,1.34 1.16,2.55 2.51,2.52 l 4.71,0.02 9.42,0.06 z"
   id="path76"
   inkscape:connector-curvature="0"
   style="fill:#cbbc9b" />
			</g>
			<g
   id="g84">
				<path
   class="st10"
   d="M 121.82,136.54 H 88.84 c -1.66,0 -3,-1.34 -3,-3 v -32.98 c 0,-1.66 1.34,-3 3,-3 h 32.98 c 1.66,0 3,1.34 3,3 v 32.98 c 0,1.66 -1.35,3 -3,3 z"
   id="path80"
   inkscape:connector-curvature="0"
   style="fill:#f4ead3" />
				<path
   class="st11"
   d="m 121.82,136.81 -18.85,0.02 -9.42,0.01 h -4.71 c -0.86,0 -1.73,-0.35 -2.34,-0.97 -0.62,-0.61 -0.97,-1.47 -0.97,-2.34 l -0.01,-18.85 0.01,-9.42 v -4.71 c 0,-0.86 0.35,-1.72 0.97,-2.33 0.61,-0.61 1.47,-0.97 2.33,-0.96 l 18.85,0.02 9.42,0.01 h 4.71 c 0.86,0 1.71,0.35 2.31,0.96 0.61,0.6 0.96,1.45 0.95,2.31 l -0.01,18.85 0.01,9.42 v 4.71 c 0,0.86 -0.35,1.71 -0.96,2.31 -0.58,0.61 -1.43,0.97 -2.29,0.96 z m 0,-0.54 c 0.72,0 1.42,-0.29 1.93,-0.8 0.51,-0.5 0.8,-1.21 0.8,-1.93 v -4.71 l 0.01,-9.42 -0.01,-18.85 c 0,-0.72 -0.29,-1.43 -0.8,-1.94 -0.51,-0.51 -1.22,-0.8 -1.94,-0.8 h -4.71 l -9.42,0.01 -18.85,0.02 c -0.71,0 -1.41,0.29 -1.91,0.79 -0.5,0.5 -0.79,1.2 -0.79,1.91 v 4.71 l 0.01,9.42 -0.01,18.85 c 0,0.71 0.29,1.41 0.79,1.91 0.5,0.5 1.2,0.79 1.91,0.79 h 4.71 l 9.42,0.01 z"
   id="path82"
   inkscape:connector-curvature="0"
   style="fill:#cbbc9b" />
			</g>
		</g>
		<g
   id="g94">
			<path
   class="st10"
   d="m 128.57,86.78 c 0,10.54 -0.62,21.06 -1.85,31.53 l -1.61,13.72 c 0,2.71 -2.2,4.91 -4.91,4.91 h -1.42 c -2.71,0 -4.91,-2.29 -4.91,-8.37 l 1.73,-25.97 c 0,-2.71 2.2,-4.91 4.91,-4.91 -2.71,0 -4.91,-2.2 -4.91,-4.91 V 63.36 c 0,-2.71 2.2,-4.91 4.91,-4.91 -2.71,0 -4.91,-2.2 -4.91,-4.91 l -1.73,-25.97 c 0,-6.9 2.2,-8.37 4.91,-8.37 h 1.42 c 2.71,0 4.91,2.2 4.91,4.91 l 1.61,13.72 c 1.23,10.46 1.85,20.99 1.85,31.53 z"
   id="path88"
   inkscape:connector-curvature="0"
   style="fill:#f4ead3" />
			<g
   id="g92">
				<path
   class="st11"
   d="m 128.83,86.78 c 0.01,7.58 -0.31,15.15 -0.94,22.7 -0.31,3.77 -0.72,7.54 -1.17,11.3 l -1.32,11.28 v -0.03 c -0.01,1.19 -0.42,2.37 -1.17,3.29 -0.75,0.92 -1.82,1.57 -2.99,1.81 -0.59,0.12 -1.19,0.11 -1.73,0.11 -0.54,-0.01 -1.14,0.03 -1.74,-0.11 -1.19,-0.25 -2.21,-1.07 -2.82,-2.08 -1.22,-2.05 -1.39,-4.41 -1.4,-6.66 l 0.44,-6.7 0.88,-13.39 0.22,-3.35 c 0.09,-1.13 0.1,-2.2 0.26,-3.4 0.24,-1.17 0.9,-2.25 1.82,-3.01 0.93,-0.76 2.12,-1.18 3.32,-1.19 v 0.7 c -2.01,0.02 -3.96,-1.23 -4.78,-3.07 -0.44,-0.89 -0.51,-1.99 -0.48,-2.89 v -2.8 l -0.01,-11.21 v -11.21 -2.8 c -0.03,-0.89 0.04,-2 0.48,-2.89 0.82,-1.84 2.77,-3.1 4.79,-3.08 v 0.72 c -1.2,-0.01 -2.4,-0.43 -3.33,-1.19 -0.93,-0.77 -1.58,-1.85 -1.82,-3.03 -0.15,-1.21 -0.17,-2.28 -0.26,-3.41 l -0.22,-3.36 -0.88,-13.43 -0.44,-6.72 c 0.01,-1.14 0.05,-2.28 0.22,-3.42 0.18,-1.13 0.45,-2.28 1.08,-3.3 0.59,-1.05 1.73,-1.8 2.91,-1.97 0.59,-0.1 1.18,-0.07 1.73,-0.08 0.55,0 1.15,-0.02 1.74,0.1 1.17,0.24 2.25,0.89 3.01,1.81 0.76,0.92 1.17,2.11 1.18,3.31 v -0.04 l 1.81,15.6 c 0.57,5.21 0.99,10.44 1.26,15.67 0.27,5.23 0.37,10.48 0.35,15.72 z m -0.51,0 -0.01,-15.71 c 0.02,-5.23 -0.1,-10.46 -0.38,-15.69 -0.28,-5.22 -0.7,-10.44 -1.28,-15.64 l -1.84,-15.6 V 24.12 24.1 c -0.01,-1.05 -0.37,-2.1 -1.04,-2.91 -0.67,-0.81 -1.62,-1.38 -2.65,-1.59 -0.51,-0.11 -1.04,-0.09 -1.62,-0.09 -0.57,0 -1.11,-0.01 -1.63,0.07 -1.04,0.16 -1.95,0.76 -2.47,1.68 -1.07,1.84 -1.16,4.19 -1.19,6.36 l 0.45,6.72 0.91,13.43 0.23,3.36 c 0.09,1.1 0.12,2.29 0.25,3.3 0.21,1.02 0.78,1.96 1.58,2.62 0.81,0.66 1.84,1.02 2.88,1.03 v 0.72 c -1.74,-0.02 -3.43,1.07 -4.13,2.66 -0.38,0.81 -0.44,1.62 -0.41,2.59 v 2.8 11.21 l -0.01,11.21 v 2.8 c -0.03,0.96 0.03,1.78 0.41,2.59 0.71,1.59 2.39,2.68 4.14,2.67 v 0.7 c -1.04,0.01 -2.07,0.36 -2.88,1.02 -0.81,0.66 -1.37,1.6 -1.59,2.62 -0.13,1.01 -0.16,2.19 -0.25,3.29 l -0.23,3.35 -0.91,13.39 -0.45,6.7 c -0.01,2.17 0.19,4.48 1.29,6.31 0.54,0.91 1.41,1.59 2.42,1.81 0.5,0.12 1.03,0.09 1.61,0.1 0.57,0 1.1,0.01 1.61,-0.09 1.03,-0.21 1.97,-0.79 2.64,-1.6 0.67,-0.81 1.03,-1.86 1.04,-2.91 V 132 131.98 l 1.34,-11.27 c 0.45,-3.76 0.88,-7.51 1.19,-11.28 0.64,-7.53 0.97,-15.09 0.98,-22.65 z"
   id="path90"
   inkscape:connector-curvature="0"
   style="fill:#cbbc9b" />
			</g>
		</g>
		<path
   class="st12"
   d="m 61.49,91.1 h -4.26 c -2.56,0 -4.63,-2.07 -4.63,-4.63 v -16.8 c 0,-2.56 2.07,-4.63 4.63,-4.63 h 4.09 c 5.23,0 9.56,-4.12 9.8,-9.34 0.89,-19 2.74,-29.83 3.64,-34.14 C 75,20.41 74.12,19.35 72.95,19.35 H 48.8 c -0.86,0 -1.61,0.58 -1.8,1.42 -1.09,4.75 -4.3,21.77 -4.3,57.31 0,29.39 3.39,51.38 4.38,57.2 0.15,0.89 0.92,1.53 1.82,1.53 h 24.18 c 1.14,0 2.01,-1.01 1.83,-2.14 -0.79,-4.78 -2.63,-17.27 -3.62,-34.28 -0.3,-5.21 -4.59,-9.29 -9.8,-9.29 z"
   id="path96"
   inkscape:connector-curvature="0"
   style="fill:#6d6e71;stroke:#58595b;stroke-width:0.25;stroke-miterlimit:10" />
		<g
   id="g122">
			
				<rect
   x="53.529999"
   y="29.33"
   transform="matrix(0.9922,0.1245,-0.1245,0.9922,4.3835,-6.715)"
   class="st13"
   width="4.7600002"
   height="4.7600002"
   id="rect98"
   style="fill:#414042;stroke:#231f20;stroke-width:0.05;stroke-miterlimit:10" />
			
				<rect
   x="52.939999"
   y="34.049999"
   transform="matrix(0.9922,0.1245,-0.1245,0.9922,4.9666,-6.6045)"
   class="st13"
   width="4.7600002"
   height="4.7600002"
   id="rect100"
   style="fill:#414042;stroke:#231f20;stroke-width:0.05;stroke-miterlimit:10" />
			
				<rect
   x="54.119999"
   y="24.610001"
   transform="matrix(0.9922,0.1245,-0.1245,0.9922,3.8004,-6.8255)"
   class="st13"
   width="4.7600002"
   height="4.7600002"
   id="rect102"
   style="fill:#414042;stroke:#231f20;stroke-width:0.05;stroke-miterlimit:10" />
			
				<rect
   x="52.349998"
   y="38.77"
   transform="matrix(0.9922,0.1245,-0.1245,0.9922,5.5497,-6.494)"
   class="st14"
   width="4.7600002"
   height="4.7600002"
   id="rect104"
   style="fill:#fff200;stroke:#231f20;stroke-width:0.05;stroke-miterlimit:10" />
			
				<rect
   x="58.25"
   y="29.92"
   transform="matrix(0.9922,0.1245,-0.1245,0.9922,4.494,-7.2981)"
   class="st15"
   width="4.7600002"
   height="4.7600002"
   id="rect106"
   style="fill:#ff0013;stroke:#231f20;stroke-width:0.05;stroke-miterlimit:10" />
			
				<rect
   x="57.66"
   y="34.639999"
   transform="matrix(0.9922,0.1245,-0.1245,0.9922,5.0771,-7.1876)"
   class="st13"
   width="4.7600002"
   height="4.7600002"
   id="rect108"
   style="fill:#414042;stroke:#231f20;stroke-width:0.05;stroke-miterlimit:10" />
			
				<rect
   x="58.84"
   y="25.200001"
   transform="matrix(0.9922,0.1245,-0.1245,0.9922,3.9109,-7.4086)"
   class="st13"
   width="4.7600002"
   height="4.7600002"
   id="rect110"
   style="fill:#414042;stroke:#231f20;stroke-width:0.05;stroke-miterlimit:10" />
			
				<rect
   x="57.07"
   y="39.360001"
   transform="matrix(0.9922,0.1245,-0.1245,0.9922,5.6602,-7.0771)"
   class="st13"
   width="4.7600002"
   height="4.7600002"
   id="rect112"
   style="fill:#414042;stroke:#231f20;stroke-width:0.05;stroke-miterlimit:10" />
			
				<rect
   x="62.970001"
   y="30.51"
   transform="matrix(0.9922,0.1245,-0.1245,0.9922,4.6045,-7.8812)"
   class="st13"
   width="4.7600002"
   height="4.7600002"
   id="rect114"
   style="fill:#414042;stroke:#231f20;stroke-width:0.05;stroke-miterlimit:10" />
			
				<rect
   x="62.380001"
   y="35.23"
   transform="matrix(0.9922,0.1245,-0.1245,0.9922,5.1876,-7.7707)"
   class="st16"
   width="4.7600002"
   height="4.7600002"
   id="rect116"
   style="fill:#58ff00;stroke:#231f20;stroke-width:0.05;stroke-miterlimit:10" />
			
				<rect
   x="63.560001"
   y="25.790001"
   transform="matrix(0.9922,0.1245,-0.1245,0.9922,4.0214,-7.9917)"
   class="st17"
   width="4.7600002"
   height="4.7600002"
   id="rect118"
   style="fill:#03f9ff;stroke:#231f20;stroke-width:0.05;stroke-miterlimit:10" />
			
				<rect
   x="61.790001"
   y="39.950001"
   transform="matrix(0.9922,0.1245,-0.1245,0.9922,5.7707,-7.6602)"
   class="st13"
   width="4.7600002"
   height="4.7600002"
   id="rect120"
   style="fill:#414042;stroke:#231f20;stroke-width:0.05;stroke-miterlimit:10" />
		</g>
		<g
   id="g130">
			
				<rect
   x="52.68"
   y="55.970001"
   transform="rotate(179.99998,58.266789,59.526711)"
   class="st18"
   width="11.18"
   height="7.1199999"
   id="rect124"
   style="fill:#939598;stroke:#808285;stroke-width:0.25;stroke-miterlimit:10" />
			
				<rect
   x="51.799999"
   y="58.68"
   transform="rotate(179.99998,55.033239,59.526711)"
   class="st19"
   width="6.4699998"
   height="1.6900001"
   id="rect126"
   style="fill:#a7a9ac;stroke:#bcbec0;stroke-width:0.15000001;stroke-miterlimit:10" />
			<circle
   class="st20"
   cx="50.84"
   cy="59.529999"
   r="2.0899999"
   id="circle128"
   style="fill:#ed1c24;stroke:#d31a28;stroke-width:0.25;stroke-miterlimit:10" />
		</g>
		<g
   id="g138">
			<rect
   x="52.68"
   y="47.759998"
   class="st18"
   width="11.18"
   height="7.1199999"
   id="rect132"
   style="fill:#939598;stroke:#808285;stroke-width:0.25;stroke-miterlimit:10" />
			<rect
   x="58.27"
   y="50.470001"
   class="st19"
   width="6.4699998"
   height="1.6900001"
   id="rect134"
   style="fill:#a7a9ac;stroke:#bcbec0;stroke-width:0.15000001;stroke-miterlimit:10" />
			<circle
   class="st1"
   cx="65.699997"
   cy="51.32"
   r="2.0899999"
   id="circle136"
   style="fill:#f7ca33;stroke:#d3a52a;stroke-width:0.25;stroke-miterlimit:10" />
		</g>
		<g
   id="g144">
			<path
   class="st8"
   d="m 35.39,15.76 h 15.1 c 0,0 -2.52,17.86 -2.52,62.31 0,36.14 2.52,62.31 2.52,62.31 h -15.1 c 0,0 -2.52,-25.76 -2.52,-62.31 0.01,-45.39 2.52,-62.31 2.52,-62.31 z"
   id="path140"
   inkscape:connector-curvature="0"
   style="fill:#cc3333" />
			<path
   class="st9"
   d="m 35.39,15.76 15.1,-0.05 h 0.06 l -0.01,0.06 c -0.62,5.16 -0.96,10.35 -1.27,15.54 -0.29,5.19 -0.52,10.38 -0.68,15.58 -0.34,10.39 -0.46,20.79 -0.45,31.18 0.02,10.4 0.24,20.79 0.65,31.18 0.43,10.38 1.01,20.77 1.94,31.12 l 0.02,0.27 h -0.27 l -15.1,-0.02 h -0.21 l -0.02,-0.21 C 34.23,130.04 33.68,119.66 33.28,109.26 32.9,98.87 32.71,88.47 32.71,78.07 c 0.02,-10.4 0.14,-20.8 0.52,-31.19 0.18,-5.2 0.43,-10.39 0.76,-15.58 0.35,-5.2 0.73,-10.39 1.4,-15.54 z m 0,0 c -0.64,5.16 -0.98,10.35 -1.29,15.54 -0.29,5.19 -0.51,10.38 -0.65,15.58 -0.31,10.39 -0.44,20.79 -0.42,31.19 0.02,10.4 0.23,20.79 0.64,31.18 0.43,10.39 1.01,20.77 1.95,31.12 l -0.23,-0.21 15.1,-0.02 -0.25,0.27 c -0.9,-10.37 -1.46,-20.76 -1.87,-31.15 -0.39,-10.39 -0.58,-20.79 -0.58,-31.19 0.01,-10.4 0.16,-20.8 0.52,-31.19 0.18,-5.2 0.41,-10.39 0.74,-15.58 0.34,-5.19 0.72,-10.38 1.37,-15.54 l 0.05,0.06 z"
   id="path142"
   inkscape:connector-curvature="0"
   style="fill:#961212" />
		</g>
		<g
   id="g154">
			<g
   id="g148">
				<path
   class="st1"
   d="m 35.01,14.11 1.94,-0.31 c 3.75,-0.6 7.6,-0.6 11.35,0 0,0 1.59,0.24 1.94,0.31 1.19,0.25 2.13,0.84 2.13,1.87 v 3.74 c 0,1.03 -0.95,1.87 -2.13,1.87 l -2.65,-0.42 c -3.28,-0.53 -6.65,-0.53 -9.93,0 l -2.65,0.42 c -1.18,0 -2.13,-0.84 -2.13,-1.87 v -3.74 c 0,-1.03 0.95,-1.87 2.13,-1.87 z"
   id="path146"
   inkscape:connector-curvature="0"
   style="fill:#f7ca33;stroke:#d3a52a;stroke-width:0.25;stroke-miterlimit:10" />
			</g>
			<g
   id="g152">
				<path
   class="st1"
   d="m 50.32,142.03 -1.94,0.31 c -3.75,0.6 -7.6,0.6 -11.35,0 0,0 -1.59,-0.24 -1.94,-0.31 -1.19,-0.25 -2.13,-0.84 -2.13,-1.87 v -3.74 c 0,-1.03 0.95,-1.87 2.13,-1.87 l 2.65,0.42 c 3.28,0.53 6.65,0.53 9.93,0 l 2.65,-0.42 c 1.18,0 2.13,0.84 2.13,1.87 v 3.74 c 0,1.04 -0.95,1.87 -2.13,1.87 z"
   id="path150"
   inkscape:connector-curvature="0"
   style="fill:#f7ca33;stroke:#d3a52a;stroke-width:0.25;stroke-miterlimit:10" />
			</g>
		</g>
		<g
   id="g168">
			<rect
   x="51.950001"
   y="94.830002"
   class="st4"
   width="14.12"
   height="10.18"
   id="rect156"
   style="fill:#808285;stroke:#6d6e71;stroke-width:0.25;stroke-miterlimit:10" />
			<rect
   x="53.060001"
   y="95.730003"
   class="st21"
   width="11.9"
   height="0.81"
   id="rect158"
   style="fill:#231f20;stroke:#231f20;stroke-width:0.25;stroke-miterlimit:10" />
			<rect
   x="53.060001"
   y="103.31"
   class="st21"
   width="11.9"
   height="0.81"
   id="rect160"
   style="fill:#231f20;stroke:#231f20;stroke-width:0.25;stroke-miterlimit:10" />
			<rect
   x="63.139999"
   y="95.730003"
   class="st22"
   width="10.96"
   height="0.81"
   id="rect162"
   style="fill:#bcbec0;stroke:#a7a9ac;stroke-width:0.05;stroke-miterlimit:10" />
			<rect
   x="63.139999"
   y="103.31"
   class="st22"
   width="10.96"
   height="0.81"
   id="rect164"
   style="fill:#bcbec0;stroke:#a7a9ac;stroke-width:0.05;stroke-miterlimit:10" />
			<rect
   x="72.870003"
   y="94.830002"
   class="st20"
   width="2.46"
   height="10.18"
   id="rect166"
   style="fill:#ed1c24;stroke:#d31a28;stroke-width:0.25;stroke-miterlimit:10" />
		</g>
		<g
   id="g186">
			
				<rect
   x="50.389999"
   y="113.16"
   transform="matrix(-0.1262,-0.992,0.992,-0.1262,-50.5042,196.3248)"
   class="st4"
   width="21.65"
   height="14.49"
   id="rect170"
   style="fill:#808285;stroke:#6d6e71;stroke-width:0.25;stroke-miterlimit:10" />
			<g
   id="g184">
				<circle
   class="st14"
   cx="58.84"
   cy="127.32"
   r="2.49"
   id="circle172"
   style="fill:#fff200;stroke:#231f20;stroke-width:0.05;stroke-miterlimit:10" />
				<circle
   class="st16"
   cx="65.239998"
   cy="126.51"
   r="2.49"
   id="circle174"
   style="fill:#58ff00;stroke:#231f20;stroke-width:0.05;stroke-miterlimit:10" />
				<circle
   class="st15"
   cx="58.009998"
   cy="120.81"
   r="2.49"
   id="circle176"
   style="fill:#ff0013;stroke:#231f20;stroke-width:0.05;stroke-miterlimit:10" />
				<circle
   class="st14"
   cx="64.410004"
   cy="120"
   r="2.49"
   id="circle178"
   style="fill:#fff200;stroke:#231f20;stroke-width:0.05;stroke-miterlimit:10" />
				<circle
   class="st17"
   cx="57.18"
   cy="114.3"
   r="2.49"
   id="circle180"
   style="fill:#03f9ff;stroke:#231f20;stroke-width:0.05;stroke-miterlimit:10" />
				<circle
   class="st15"
   cx="63.580002"
   cy="113.49"
   r="2.49"
   id="circle182"
   style="fill:#ff0013;stroke:#231f20;stroke-width:0.05;stroke-miterlimit:10" />
			</g>
		</g>
		<path
   class="st18"
   d="m 66.05,81.33 h -9.28 c -0.31,0 -0.55,-0.25 -0.55,-0.55 v -5.4 c 0,-0.31 0.25,-0.55 0.55,-0.55 h 9.28 c 0.31,0 0.55,0.25 0.55,0.55 v 5.4 c 0,0.3 -0.25,0.55 -0.55,0.55 z"
   id="path188"
   inkscape:connector-curvature="0"
   style="fill:#939598;stroke:#808285;stroke-width:0.25;stroke-miterlimit:10" />
		<g
   id="g208">
			<g
   id="g194">
				<path
   class="st23"
   d="m 69.21,87.47 h -3.94 l 0.28,-1.3 c 0.55,-2.61 0.83,-5.31 0.83,-8 0,-2.69 -0.28,-5.39 -0.83,-8 l -0.28,-1.3 h 3.94 l 0.28,1.3 c 0.55,2.61 0.83,5.31 0.83,8 0,2.7 -0.28,5.39 -0.83,8 z"
   id="path190"
   inkscape:connector-curvature="0"
   style="fill:#414042" />
				<path
   class="st0"
   d="m 69.21,87.47 -3.94,0.04 h -0.05 l 0.01,-0.05 c 0.31,-1.53 0.62,-3.07 0.79,-4.62 0.18,-1.55 0.27,-3.11 0.26,-4.67 -0.01,-1.56 -0.1,-3.12 -0.3,-4.67 -0.18,-1.55 -0.5,-3.08 -0.84,-4.61 l -0.03,-0.15 h 0.16 l 3.94,0.01 h 0.09 l 0.02,0.09 c 0.33,1.53 0.64,3.07 0.81,4.63 0.18,1.56 0.27,3.13 0.26,4.69 -0.01,1.57 -0.1,3.14 -0.31,4.69 -0.19,1.56 -0.52,3.09 -0.87,4.62 z m 0,0 c 0.32,-1.53 0.61,-3.07 0.77,-4.63 0.17,-1.55 0.26,-3.12 0.26,-4.68 -0.01,-1.56 -0.1,-3.12 -0.3,-4.67 -0.18,-1.55 -0.5,-3.08 -0.84,-4.61 l 0.11,0.09 -3.94,0.01 0.12,-0.15 c 0.33,1.53 0.64,3.07 0.81,4.63 0.18,1.56 0.27,3.13 0.26,4.7 -0.01,1.57 -0.1,3.14 -0.3,4.69 -0.18,1.56 -0.5,3.1 -0.86,4.62 l -0.04,-0.05 z"
   id="path192"
   inkscape:connector-curvature="0"
   style="fill:#231f20" />
			</g>
			<g
   id="g200">
				<circle
   class="st23"
   cx="67.199997"
   cy="68.790001"
   r="2.0599999"
   id="circle196"
   style="fill:#414042" />
				<path
   class="st0"
   d="m 69.25,68.96 c -0.05,1.1 -1.1,2.03 -2.23,1.95 -0.56,-0.03 -1.1,-0.29 -1.48,-0.71 -0.37,-0.43 -0.57,-1.01 -0.52,-1.58 0.05,-0.57 0.34,-1.11 0.78,-1.47 0.44,-0.36 1.02,-0.52 1.58,-0.46 1.12,0.09 2,1.18 1.87,2.27 z m 0,0 c 0.04,-0.54 -0.14,-1.09 -0.5,-1.49 -0.35,-0.4 -0.87,-0.64 -1.39,-0.67 -1.06,-0.07 -2.04,0.8 -2.09,1.83 -0.12,1.02 0.7,2.05 1.76,2.15 0.52,0.06 1.07,-0.09 1.49,-0.43 0.41,-0.34 0.68,-0.85 0.73,-1.39 z"
   id="path198"
   inkscape:connector-curvature="0"
   style="fill:#231f20" />
			</g>
			<g
   id="g206">
				<circle
   class="st23"
   cx="67.199997"
   cy="87.349998"
   r="2.0599999"
   id="circle202"
   style="fill:#414042" />
				<path
   class="st0"
   d="m 69.25,87.52 c -0.05,1.1 -1.1,2.03 -2.23,1.95 -0.56,-0.03 -1.1,-0.29 -1.48,-0.71 -0.37,-0.43 -0.57,-1.01 -0.52,-1.58 0.05,-0.57 0.34,-1.11 0.78,-1.47 0.44,-0.36 1.02,-0.52 1.58,-0.46 1.12,0.09 2,1.18 1.87,2.27 z m 0,0 c 0.04,-0.54 -0.14,-1.09 -0.5,-1.49 -0.35,-0.4 -0.87,-0.64 -1.39,-0.67 -1.06,-0.07 -2.04,0.8 -2.09,1.83 -0.12,1.02 0.7,2.05 1.76,2.15 0.52,0.06 1.07,-0.09 1.49,-0.43 0.41,-0.34 0.68,-0.85 0.73,-1.39 z"
   id="path204"
   inkscape:connector-curvature="0"
   style="fill:#231f20" />
			</g>
		</g>
	</g>
	<g
   id="g242">
		<g
   id="g216">
			<path
   class="st24"
   d="m 123.38,104.9 c -6.14,11.13 2.51,21.51 5.5,31.37 0.46,1.32 1.02,2.59 1.65,3.81 6.3,12.21 20.6,19.06 34.22,9.67 1.38,0.07 2.71,0.04 4.01,-0.08 14.22,-1.36 23.18,-14.19 26.04,-28.58 0.66,-1.38 1.29,-2.8 1.89,-4.26 7.11,-14.66 10.57,-28.51 7.51,-44.65 -0.05,-1.39 -0.12,-2.76 -0.22,-4.12 -0.1,-1.36 -0.21,-2.71 -0.34,-4.04 3.62,-13.77 -8.5,-24.16 -7.58,-35.49 -0.24,-1.22 -0.53,-2.4 -0.88,-3.55 C 192.01,14.65 183.88,6.52 170.84,5.14 169.75,4.63 168.66,4.18 167.55,3.79 164.21,2.62 160.76,2 157.22,2 c -1.12,0 -2.24,0.06 -3.34,0.18 -1.24,0.48 -2.44,1 -3.62,1.55 -13.98,3.25 -22.64,13.63 -26.05,26.81 -0.22,0.95 -0.41,1.9 -0.57,2.86 -0.8,4.81 -0.81,9.84 0.07,14.83 0,0 0.36,2.98 0.75,7.77 0.1,1.2 0.2,2.51 0.25,3.91 -2.27,11.12 -4,21.5 0.34,31.63 0.02,0.96 -0.03,1.91 -0.1,2.85 -0.07,0.94 -0.16,1.87 -0.25,2.79 -0.09,0.89 -0.19,1.77 -0.3,2.64 -0.11,0.87 -0.25,1.73 -0.42,2.58 -0.19,0.84 -0.38,1.68 -0.6,2.5 z"
   id="path212"
   inkscape:connector-curvature="0"
   style="fill:#bb8c61" />
			<path
   class="st25"
   d="m 123.61,104.99 c -1.59,2.86 -2.31,6.06 -2.1,9.27 0.2,3.21 1.19,6.33 2.4,9.32 1.21,3.01 2.64,5.92 3.88,8.94 0.3,0.76 0.6,1.52 0.87,2.29 0.28,0.78 0.49,1.55 0.79,2.29 0.58,1.5 1.3,2.95 2.12,4.34 3.25,5.53 8.48,10.07 14.72,11.74 3.1,0.84 6.4,0.92 9.54,0.25 3.15,-0.66 6.11,-2.08 8.77,-3.88 v 0 l 0.08,-0.05 0.08,0.01 c 3.74,0.37 7.6,-0.17 11.11,-1.62 3.53,-1.42 6.6,-3.8 9.16,-6.58 2.58,-2.78 4.52,-6.09 6.06,-9.52 1.53,-3.45 2.59,-7.09 3.26,-10.79 l 0.01,-0.05 0.03,-0.06 c 0.43,-0.96 0.86,-1.92 1.27,-2.89 l 0.61,-1.47 0.66,-1.44 c 0.89,-1.93 1.71,-3.86 2.47,-5.82 1.55,-3.91 2.9,-7.9 3.8,-12 0.92,-4.09 1.44,-8.27 1.56,-12.46 0.12,-4.2 -0.25,-8.4 -0.95,-12.55 L 203.8,72.23 V 72.2 l -0.15,-4.08 -0.26,-4.08 v 0 -0.05 l 0.01,-0.04 c 0.85,-2.93 1,-6.05 0.49,-9.08 -0.47,-3.04 -1.55,-5.95 -2.73,-8.79 -1.17,-2.85 -2.54,-5.61 -3.6,-8.51 -1.08,-2.87 -1.89,-5.92 -1.75,-9.07 v 0 0.07 c -0.58,-3.01 -1.56,-5.95 -2.98,-8.66 -1.4,-2.72 -3.27,-5.2 -5.49,-7.3 -2.23,-2.09 -4.84,-3.77 -7.66,-4.98 -2.81,-1.21 -5.83,-1.93 -8.87,-2.25 v 0 l -0.04,-0.01 -0.04,-0.02 c -2.61,-1.22 -5.37,-2.14 -8.21,-2.64 -2.83,-0.5 -5.74,-0.6 -8.6,-0.28 l 0.07,-0.02 c -1.22,0.47 -2.42,0.99 -3.6,1.55 L 150.35,4 h -0.03 c -5.55,1.29 -10.81,3.93 -15,7.8 -4.21,3.85 -7.32,8.81 -9.32,14.14 -2.07,5.33 -2.83,11.09 -2.56,16.79 0.07,1.42 0.21,2.84 0.42,4.25 0.26,1.41 0.37,2.88 0.53,4.29 l 0.4,4.3 0.28,4.32 v 0.04 l -0.01,0.05 C 124,65.22 123,70.5 122.79,75.82 c -0.1,2.66 -0.03,5.32 0.38,7.95 0.4,2.62 1.11,5.2 2.1,7.67 v 0 l 0.02,0.05 v 0.04 c 0.03,1.14 -0.04,2.28 -0.15,3.4 -0.1,1.12 -0.19,2.25 -0.33,3.37 -0.12,1.12 -0.25,2.24 -0.45,3.36 -0.19,1.1 -0.5,2.22 -0.75,3.33 z m -0.47,-0.18 c 0.23,-1.08 0.53,-2.14 0.72,-3.24 0.2,-1.1 0.32,-2.21 0.45,-3.33 0.14,-1.11 0.22,-2.23 0.33,-3.35 0.1,-1.12 0.17,-2.23 0.15,-3.34 l 0.02,0.09 v 0 c -1.12,-2.46 -1.9,-5.08 -2.32,-7.75 -0.44,-2.67 -0.57,-5.39 -0.47,-8.09 0.22,-5.4 1.25,-10.71 2.32,-15.96 l -0.01,0.09 -0.27,-4.28 -0.38,-4.29 c -0.15,-1.44 -0.26,-2.84 -0.51,-4.26 -0.21,-1.43 -0.35,-2.88 -0.42,-4.32 -0.26,-5.77 0.54,-11.65 2.65,-17.05 2.05,-5.41 5.22,-10.44 9.52,-14.36 4.28,-3.93 9.64,-6.61 15.28,-7.9 l -0.05,0.02 c 1.2,-0.56 2.41,-1.08 3.64,-1.55 l 0.03,-0.01 h 0.03 c 2.91,-0.32 5.87,-0.22 8.75,0.3 2.88,0.52 5.68,1.46 8.32,2.7 l -0.08,-0.02 v 0 c 3.09,0.33 6.15,1.06 9.02,2.29 2.86,1.22 5.53,2.94 7.8,5.07 2.27,2.14 4.17,4.67 5.59,7.43 1.44,2.76 2.44,5.75 3.02,8.8 l 0.01,0.03 v 0.03 0 c -0.35,3.03 0.32,6.11 1.33,9 1.04,2.9 2.33,5.7 3.55,8.53 1.21,2.83 2.27,5.74 2.85,8.77 0.57,3.03 0.57,6.2 -0.15,9.23 L 203.87,64 v 0 l 0.43,4.08 0.28,4.09 -0.01,-0.06 c 0.87,4.17 1.27,8.44 1.24,12.71 -0.02,4.27 -0.56,8.54 -1.49,12.7 -0.92,4.17 -2.26,8.24 -3.85,12.18 -0.81,1.97 -1.68,3.92 -2.6,5.82 l -0.69,1.43 -0.63,1.45 c -0.43,0.97 -0.88,1.94 -1.36,2.89 l 0.04,-0.11 c -0.82,3.74 -2.05,7.38 -3.72,10.81 -1.66,3.43 -3.82,6.62 -6.41,9.4 -2.6,2.77 -5.74,5.04 -9.24,6.51 -3.5,1.48 -7.32,2.15 -11.14,2.1 l 0.15,-0.04 v 0 c -2.7,1.84 -5.72,3.29 -8.95,3.96 -3.22,0.69 -6.6,0.6 -9.77,-0.26 -6.4,-1.71 -11.72,-6.34 -15.02,-11.96 -0.83,-1.41 -1.56,-2.88 -2.15,-4.41 -0.31,-0.76 -0.53,-1.56 -0.8,-2.31 -0.26,-0.76 -0.56,-1.52 -0.86,-2.27 -1.22,-3 -2.66,-5.92 -3.88,-8.95 -1.22,-3.02 -2.23,-6.18 -2.43,-9.48 -0.23,-3.26 0.55,-6.65 2.13,-9.47 z"
   id="path214"
   inkscape:connector-curvature="0"
   style="fill:#8e6442" />
		</g>
		<g
   id="g240">
			<defs
   id="defs219">
				<path
   id="SVGID_3_"
   d="m 150.87,63.79 c 0,0 5.61,2.16 10.36,-2.16 4.75,-4.32 8.2,2.7 8.2,2.7 0,0 -0.65,3.99 5.83,4.64 6.48,0.65 2.59,7.12 2.59,7.12 0,0 5.55,3.02 1.16,7.77 -4.39,4.75 -10.87,1.51 -10.65,7.77 0.22,6.26 -8.85,4.74 -11,1.29 -2.15,-3.45 -6.47,-2.37 -6.47,-2.37 0,0 -6.47,-1.29 -4.75,-8.63 1.73,-7.34 1.73,-7.34 1.73,-7.34 0,0 -5.46,-10.01 3,-10.79 z"
   inkscape:connector-curvature="0" />
			</defs>
			<clipPath
   id="SVGID_1_">
				<use
   xlink:href="#SVGID_3_"
   style="overflow:visible"
   id="use221"
   x="0"
   y="0"
   width="100%"
   height="100%" />
			</clipPath>
			<path
   class="st26"
   d="m 150.87,63.79 c 0,0 5.61,2.16 10.36,-2.16 4.75,-4.32 8.2,2.7 8.2,2.7 0,0 -0.65,3.99 5.83,4.64 6.48,0.65 2.59,7.12 2.59,7.12 0,0 5.55,3.02 1.16,7.77 -4.39,4.75 -10.87,1.51 -10.65,7.77 0.22,6.26 -8.85,4.74 -11,1.29 -2.15,-3.45 -6.47,-2.37 -6.47,-2.37 0,0 -6.47,-1.29 -4.75,-8.63 1.73,-7.34 1.73,-7.34 1.73,-7.34 0,0 -5.46,-10.01 3,-10.79 z"
   clip-path="url(#SVGID_1_)"
   id="path224"
   inkscape:connector-curvature="0"
   style="fill:#bb8c61" />
			<polyline
   class="st27"
   points="169.43,64.33 163.26,78.07 188.96,74.58    "
   clip-path="url(#SVGID_1_)"
   id="polyline226"
   style="fill:#9b7353" />
			<polyline
   class="st27"
   points="173.96,86.66 163.26,78.07 168.61,92.92    "
   clip-path="url(#SVGID_1_)"
   id="polyline228"
   style="fill:#9b7353" />
			<polyline
   class="st27"
   points="157.34,92.92 163.26,78.07 150.87,90.55    "
   clip-path="url(#SVGID_1_)"
   id="polyline230"
   style="fill:#9b7353" />
			<polyline
   class="st27"
   points="146.12,81.92 163.26,78.07 147.85,74.58    "
   clip-path="url(#SVGID_1_)"
   id="polyline232"
   style="fill:#9b7353" />
			<polyline
   class="st27"
   points="150.87,63.79 163.26,78.07 161.23,61.63    "
   clip-path="url(#SVGID_1_)"
   id="polyline234"
   style="fill:#9b7353" />
			<g
   class="st28"
   clip-path="url(#SVGID_1_)"
   id="g238">
				<path
   class="st29"
   d="m 150.9,63.54 c 1.74,0.57 3.48,0.67 5.21,0.37 1.72,-0.31 3.34,-1.08 4.66,-2.22 0.66,-0.58 1.4,-1.21 2.31,-1.5 0.89,-0.32 1.93,-0.27 2.79,0.11 0.87,0.37 1.6,0.98 2.21,1.66 0.61,0.69 1.13,1.43 1.56,2.25 v 0 l 0.02,0.04 v 0.12 c 0.01,0.66 0.26,1.35 0.66,1.85 0.4,0.52 0.95,0.91 1.56,1.18 0.63,0.24 1.27,0.46 1.97,0.54 0.34,0.07 0.69,0.09 1.04,0.11 0.33,0.02 0.73,0.05 1.16,0.09 0.83,0.09 1.73,0.38 2.46,1.05 0.74,0.66 1.14,1.66 1.17,2.55 0.01,1.8 -0.75,3.21 -1.63,4.48 v 0 l -0.09,-0.35 c 0.9,0.45 1.68,1.07 2.31,1.89 0.62,0.8 1.04,1.88 0.93,2.98 -0.09,1.09 -0.59,2.06 -1.19,2.88 -0.6,0.82 -1.33,1.55 -2.17,2.14 -1.69,1.19 -3.72,1.67 -5.51,2.11 -0.89,0.23 -1.74,0.5 -2.3,0.96 -0.56,0.44 -0.83,1.13 -0.9,1.97 -0.05,0.41 -0.01,0.82 -0.03,1.4 -0.05,0.54 -0.13,1.09 -0.35,1.62 -0.42,1.07 -1.35,1.95 -2.38,2.34 -2.08,0.8 -4.2,0.42 -6.06,-0.31 -0.93,-0.39 -1.82,-0.91 -2.58,-1.62 -0.19,-0.19 -0.37,-0.38 -0.53,-0.59 -0.16,-0.21 -0.32,-0.46 -0.42,-0.62 -0.24,-0.36 -0.51,-0.69 -0.83,-0.98 -1.27,-1.18 -3.24,-1.5 -5.02,-1.24 v 0 l -0.06,0.01 -0.05,-0.01 c -1.57,-0.39 -3.02,-1.26 -4,-2.56 -0.99,-1.3 -1.34,-2.99 -1.22,-4.57 0.05,-0.79 0.22,-1.59 0.4,-2.33 l 0.53,-2.27 1.07,-4.54 v 0 l 0.02,0.18 c -0.76,-0.95 -1.32,-2 -1.76,-3.14 -0.41,-1.14 -0.7,-2.37 -0.62,-3.7 0.05,-0.66 0.17,-1.35 0.49,-1.99 0.3,-0.65 0.8,-1.21 1.38,-1.61 0.58,-0.4 1.22,-0.65 1.86,-0.74 0.31,-0.07 0.64,-0.06 0.95,-0.08 0.33,0 0.69,0.04 0.98,0.09 z m -0.06,0.5 c -0.97,0.46 -2.05,0.88 -2.67,1.54 -0.64,0.64 -1.01,1.43 -1.11,2.44 -0.1,0.99 0.01,2.07 0.21,3.15 0.2,1.09 0.49,2.19 0.8,3.3 l 0.04,0.14 -0.02,0.03 v 0 l -1.07,4.54 -0.53,2.27 c -0.19,0.76 -0.34,1.49 -0.39,2.25 -0.11,1.5 0.21,3.05 1.12,4.24 0.89,1.19 2.27,2.01 3.7,2.37 h -0.11 v 0 c 1.89,-0.49 4.08,-0.3 5.76,1 0.41,0.32 0.77,0.7 1.07,1.12 0.16,0.23 0.26,0.38 0.4,0.54 0.13,0.16 0.29,0.31 0.44,0.45 0.65,0.56 1.44,0.99 2.27,1.29 1.65,0.59 3.57,0.76 5.06,0.13 0.74,-0.31 1.27,-0.86 1.54,-1.56 0.14,-0.35 0.2,-0.75 0.23,-1.15 0.02,-0.37 -0.03,-0.91 0.03,-1.45 0.05,-0.53 0.14,-1.08 0.37,-1.62 0.23,-0.54 0.6,-1.05 1.06,-1.42 0.93,-0.75 1.97,-0.99 2.9,-1.24 1.88,-0.46 3.64,-0.82 5.12,-1.79 0.74,-0.46 1.41,-1.05 1.97,-1.73 0.56,-0.67 0.99,-1.44 1.11,-2.25 0.12,-0.8 -0.07,-1.65 -0.54,-2.39 -0.46,-0.74 -1.14,-1.4 -1.87,-1.91 l -0.23,-0.16 0.13,-0.19 v 0 c 0.53,-1.33 0.88,-2.84 0.62,-4.05 -0.27,-1.24 -1.27,-1.55 -2.52,-1.93 l -1.06,-0.22 c -0.39,-0.08 -0.78,-0.15 -1.16,-0.28 -0.77,-0.2 -1.53,-0.55 -2.23,-0.97 -0.69,-0.45 -1.32,-1.06 -1.71,-1.8 -0.39,-0.75 -0.54,-1.58 -0.39,-2.41 l 0.02,0.15 v 0 c -0.82,-1.5 -1.97,-2.98 -3.52,-3.67 -0.77,-0.34 -1.64,-0.38 -2.44,-0.1 -0.81,0.26 -1.47,0.81 -2.15,1.4 -1.38,1.19 -3.09,2.01 -4.9,2.33 -1.77,0.3 -3.7,0.17 -5.35,-0.39 z"
   id="path236"
   inkscape:connector-curvature="0"
   style="fill:#8b5e3c" />
			</g>
		</g>
	</g>
	<g
   id="g304">
		<g
   id="g248">
			<path
   class="st30"
   d="m 67.52,64.01 c 0,0 -3.4,-0.14 -4.96,2.35 -1.56,2.49 0.81,8.1 5.45,7.27 0,0 1.2,-0.05 1.09,-1.25 -0.1,-1.19 -1.09,-1.28 -1.09,-1.28 0,0 -2.4,0.1 -2.42,-1.91 -0.02,-2 1.99,-2.12 1.99,-2.12 0,0 1.86,0.13 1.89,2.05 0,0.39 -0.17,0.92 -0.38,1.25 -0.15,0.24 -0.9,0.72 -0.9,0.72 0,0 0.6,0.38 0.85,1 0.21,0.51 0.21,1.15 0.56,1.14 2.64,-0.09 5,-3.42 5,-3.42 L 74.32,64.7 Z"
   id="path244"
   inkscape:connector-curvature="0"
   style="fill:#fff5dc" />
			<path
   class="st31"
   d="m 67.52,64.01 c -1.39,0.01 -2.82,0.38 -3.93,1.24 -0.54,0.44 -1,0.99 -1.25,1.64 -0.24,0.66 -0.25,1.37 -0.15,2.06 0.09,0.69 0.32,1.36 0.66,1.97 0.32,0.61 0.76,1.17 1.29,1.61 1.03,0.94 2.51,1.26 3.87,1.03 v 0 h 0.01 c 0.28,-0.03 0.58,-0.14 0.77,-0.34 0.2,-0.2 0.26,-0.5 0.24,-0.79 -0.02,-0.29 -0.11,-0.58 -0.29,-0.81 -0.18,-0.22 -0.45,-0.37 -0.72,-0.41 h 0.01 c -0.58,0 -1.16,-0.1 -1.66,-0.41 -0.25,-0.15 -0.47,-0.37 -0.62,-0.62 -0.14,-0.26 -0.23,-0.55 -0.24,-0.85 -0.05,-0.57 0.11,-1.2 0.52,-1.64 0.41,-0.44 0.98,-0.67 1.57,-0.73 h 0.01 0.01 c 0.49,0.06 0.95,0.25 1.33,0.57 0.37,0.33 0.59,0.81 0.64,1.29 0.08,0.48 -0.06,0.98 -0.26,1.4 -0.22,0.48 -0.68,0.69 -1.05,0.96 v -0.16 c 0.32,0.22 0.59,0.5 0.79,0.84 0.2,0.34 0.24,0.74 0.36,1.07 0.07,0.18 0.12,0.26 0.33,0.21 0.18,-0.02 0.36,-0.02 0.54,-0.08 0.35,-0.08 0.7,-0.2 1.03,-0.37 1.31,-0.67 2.39,-1.74 3.28,-2.91 l -0.01,0.04 -0.25,-5.11 0.03,0.03 z m 0,0 6.81,0.66 h 0.03 v 0.03 l 0.3,5.1 v 0.02 l -0.01,0.02 c -0.89,1.19 -1.96,2.28 -3.3,2.98 -0.33,0.17 -0.69,0.31 -1.06,0.39 -0.18,0.06 -0.37,0.06 -0.56,0.09 -0.08,0.01 -0.22,0.03 -0.32,-0.05 -0.1,-0.08 -0.14,-0.18 -0.18,-0.27 -0.13,-0.37 -0.17,-0.73 -0.36,-1.04 -0.18,-0.3 -0.44,-0.57 -0.73,-0.77 L 68.02,71.09 68.14,71 c 0.36,-0.26 0.81,-0.5 0.97,-0.89 0.19,-0.41 0.31,-0.84 0.23,-1.29 C 69.29,68.38 69.09,67.97 68.76,67.68 68.44,67.4 68,67.23 67.57,67.18 h 0.02 c -0.51,0.06 -1.06,0.26 -1.41,0.64 -0.36,0.38 -0.51,0.93 -0.47,1.46 0.01,0.54 0.29,1.03 0.75,1.31 0.45,0.28 1.01,0.39 1.55,0.39 h 0.01 v 0 c 0.34,0.05 0.64,0.23 0.85,0.49 0.2,0.26 0.3,0.59 0.32,0.91 0.02,0.32 -0.05,0.68 -0.29,0.92 -0.24,0.24 -0.56,0.36 -0.88,0.39 h 0.01 c -1.39,0.23 -2.92,-0.12 -3.97,-1.09 -0.54,-0.46 -0.98,-1.03 -1.3,-1.66 -0.34,-0.62 -0.56,-1.3 -0.65,-2 -0.09,-0.69 -0.07,-1.42 0.17,-2.09 0.26,-0.66 0.73,-1.21 1.28,-1.65 1.13,-0.84 2.57,-1.19 3.96,-1.19 z"
   id="path246"
   inkscape:connector-curvature="0"
   style="fill:#cec8ba" />
		</g>
		<g
   id="g254">
			<path
   class="st30"
   d="m 67.36,92.83 c 0,0 -3.4,0.14 -4.96,-2.35 -1.56,-2.49 0.81,-8.1 5.45,-7.27 0,0 1.2,0.05 1.09,1.25 -0.1,1.19 -1.09,1.28 -1.09,1.28 0,0 -2.4,-0.1 -2.42,1.91 -0.02,2 1.99,2.12 1.99,2.12 0,0 1.86,-0.13 1.89,-2.05 0,-0.39 -0.17,-0.92 -0.38,-1.25 -0.15,-0.24 -0.9,-0.72 -0.9,-0.72 0,0 0.6,-0.38 0.85,-1 0.21,-0.51 0.21,-1.15 0.56,-1.14 2.64,0.09 5,3.42 5,3.42 l -0.28,5.11 z"
   id="path250"
   inkscape:connector-curvature="0"
   style="fill:#fff5dc" />
			<path
   class="st31"
   d="m 67.36,92.83 c -1.39,0 -2.83,-0.35 -3.95,-1.21 -0.55,-0.44 -1.02,-0.99 -1.28,-1.65 -0.25,-0.67 -0.27,-1.39 -0.17,-2.09 0.09,-0.7 0.31,-1.38 0.65,-2 0.32,-0.63 0.76,-1.2 1.3,-1.66 1.05,-0.98 2.58,-1.32 3.97,-1.09 h -0.01 c 0.33,0.03 0.65,0.14 0.88,0.39 0.24,0.24 0.31,0.6 0.29,0.92 -0.02,0.32 -0.12,0.64 -0.32,0.91 -0.21,0.26 -0.5,0.44 -0.85,0.49 v 0 h -0.01 c -0.53,0 -1.1,0.11 -1.55,0.39 -0.46,0.27 -0.73,0.77 -0.75,1.31 -0.04,0.53 0.11,1.08 0.47,1.46 0.35,0.39 0.9,0.59 1.41,0.64 h -0.02 c 0.42,-0.05 0.86,-0.22 1.19,-0.5 0.32,-0.29 0.53,-0.7 0.58,-1.14 0.08,-0.44 -0.04,-0.88 -0.23,-1.29 -0.16,-0.39 -0.61,-0.62 -0.97,-0.89 l -0.12,-0.09 0.12,-0.08 c 0.29,-0.2 0.55,-0.46 0.73,-0.77 0.18,-0.3 0.23,-0.67 0.36,-1.04 0.04,-0.09 0.08,-0.19 0.18,-0.27 0.11,-0.09 0.25,-0.06 0.32,-0.05 0.19,0.02 0.38,0.03 0.56,0.09 0.37,0.08 0.73,0.22 1.06,0.39 1.34,0.7 2.41,1.79 3.3,2.98 L 74.51,87 v 0.02 l -0.3,5.1 v 0.03 h -0.03 z m 0,0 6.8,-0.72 -0.03,0.03 0.25,-5.11 0.01,0.04 c -0.89,-1.17 -1.97,-2.24 -3.28,-2.91 -0.33,-0.17 -0.67,-0.3 -1.03,-0.37 -0.17,-0.05 -0.36,-0.06 -0.54,-0.08 -0.2,-0.05 -0.25,0.04 -0.33,0.21 -0.12,0.33 -0.16,0.72 -0.36,1.07 -0.19,0.34 -0.46,0.62 -0.79,0.84 v -0.16 c 0.37,0.27 0.83,0.48 1.05,0.96 0.21,0.42 0.34,0.92 0.26,1.4 -0.05,0.48 -0.28,0.96 -0.64,1.29 -0.37,0.33 -0.83,0.51 -1.33,0.57 H 67.39 67.38 C 66.79,89.83 66.22,89.6 65.81,89.16 65.4,88.72 65.24,88.1 65.29,87.52 c 0.01,-0.29 0.1,-0.58 0.24,-0.85 0.16,-0.26 0.37,-0.47 0.62,-0.62 0.51,-0.3 1.09,-0.41 1.66,-0.41 H 67.8 c 0.27,-0.04 0.54,-0.19 0.72,-0.41 0.17,-0.23 0.27,-0.51 0.29,-0.81 0.02,-0.29 -0.04,-0.59 -0.24,-0.79 -0.19,-0.21 -0.49,-0.32 -0.77,-0.34 h -0.01 v 0 c -1.35,-0.24 -2.83,0.08 -3.87,1.03 -0.53,0.44 -0.97,1 -1.29,1.61 -0.34,0.61 -0.57,1.28 -0.66,1.97 -0.1,0.68 -0.09,1.4 0.15,2.06 0.25,0.65 0.71,1.2 1.25,1.64 1.17,0.85 2.6,1.22 3.99,1.23 z"
   id="path252"
   inkscape:connector-curvature="0"
   style="fill:#cec8ba" />
		</g>
		<path
   class="st32"
   d="m 122.71,67.54 c 0,0 -5.38,-10.95 -19.8,-11.97 -14.42,-1.02 -28.21,5.31 -26.67,23.84 1.54,18.53 15.91,25.92 26.68,24.92 10.77,-1 18.75,-13.13 18.75,-13.13 z"
   id="path256"
   inkscape:connector-curvature="0"
   style="fill:#ed001d;stroke:#8c1313;stroke-width:0.5;stroke-miterlimit:10" />
		<g
   id="g262">
			<path
   class="st33"
   d="m 122.71,89.46 c 0,0 -4.35,15.8 -18.65,18.36 -14.3,2.56 -32.54,-13.19 -32.54,-13.19 l 6.89,-6.35 c 0,0 10.03,5.36 18.7,6.9"
   id="path258"
   inkscape:connector-curvature="0"
   style="fill:#ed001d" />
			<path
   class="st6"
   d="m 122.71,89.46 c -0.76,2.54 -1.87,4.97 -3.25,7.24 -1.37,2.27 -3.04,4.38 -5.03,6.15 -0.51,0.42 -1,0.88 -1.54,1.27 l -1.65,1.13 c -1.17,0.64 -2.33,1.3 -3.61,1.72 l -0.93,0.36 -0.97,0.24 c -0.65,0.15 -1.29,0.35 -1.95,0.45 -1.32,0.24 -2.66,0.26 -4,0.23 -2.67,-0.13 -5.3,-0.69 -7.83,-1.52 -2.54,-0.82 -4.98,-1.89 -7.35,-3.11 -4.71,-2.48 -9.13,-5.47 -13.21,-8.87 l -0.16,-0.14 0.16,-0.15 6.92,-6.33 0.08,-0.07 0.1,0.05 c 2.94,1.55 5.99,2.9 9.08,4.13 3.1,1.22 6.27,2.26 9.55,2.9 -3.29,-0.57 -6.49,-1.55 -9.62,-2.7 -3.13,-1.17 -6.18,-2.53 -9.15,-4.06 l 0.18,-0.02 -6.87,6.38 v -0.28 c 4.08,3.34 8.51,6.3 13.19,8.72 4.67,2.39 9.7,4.38 14.97,4.67 1.31,0.04 2.63,0.03 3.92,-0.19 0.65,-0.09 1.28,-0.29 1.92,-0.43 l 0.96,-0.23 0.92,-0.35 c 1.25,-0.41 2.41,-1.05 3.56,-1.67 l 1.64,-1.1 c 0.54,-0.38 1.02,-0.83 1.53,-1.25 3.89,-3.51 6.8,-8.15 8.44,-13.17 z"
   id="path260"
   inkscape:connector-curvature="0"
   style="fill:#8c1313" />
		</g>
		<path
   class="st21"
   d="m 81.75,65.48 c 0,0 -6.05,8.22 0,24.44 l 2.22,1 c 0,0 -5.85,-15 0,-26.22 z"
   id="path264"
   inkscape:connector-curvature="0"
   style="fill:#231f20;stroke:#231f20;stroke-width:0.25;stroke-miterlimit:10" />
		<path
   class="st34"
   d="m 78.21,72.91 v 9.25 h 4.48 v -9.25 z m 3.57,7.95 H 79.13 V 74.2 h 2.65 z"
   id="path266"
   inkscape:connector-curvature="0"
   style="fill:#f7ca33;stroke:#d3a52a;stroke-width:0.15000001;stroke-miterlimit:10" />
		<g
   id="g272">
			<path
   class="st33"
   d="m 122.71,67.54 c 0,0 -4.35,-15.8 -18.65,-18.36 -14.3,-2.55 -33.93,12 -33.93,12 l 6.89,6.35 c 0,0 10.72,-5.12 19.39,-6.65"
   id="path268"
   inkscape:connector-curvature="0"
   style="fill:#ed001d" />
			<path
   class="st6"
   d="m 122.71,67.54 c -1.67,-5.08 -4.62,-9.77 -8.6,-13.3 -3.97,-3.56 -9.37,-5.42 -14.67,-5.1 -0.33,0.01 -0.66,0.01 -1,0.04 l -0.99,0.13 c -0.66,0.1 -1.32,0.16 -1.97,0.28 -1.3,0.31 -2.61,0.53 -3.88,0.96 -2.57,0.71 -5.04,1.76 -7.48,2.82 -4.85,2.22 -9.53,4.88 -13.88,7.96 l 0.02,-0.29 6.87,6.38 -0.17,-0.03 c 3.12,-1.43 6.3,-2.73 9.54,-3.86 3.24,-1.11 6.55,-2.07 9.92,-2.66 -3.37,0.65 -6.64,1.68 -9.85,2.86 -3.21,1.19 -6.38,2.48 -9.47,3.94 L 77,67.72 76.92,67.65 70,61.32 69.83,61.16 70.02,61.03 c 4.36,-3.14 9.03,-5.84 13.9,-8.11 2.46,-1.08 4.96,-2.1 7.56,-2.8 1.28,-0.42 2.61,-0.64 3.93,-0.94 0.66,-0.12 1.34,-0.18 2,-0.27 l 1,-0.13 c 0.34,-0.02 0.67,-0.02 1.01,-0.03 5.4,-0.29 10.88,1.65 14.87,5.28 2.03,1.78 3.73,3.9 5.12,6.19 1.41,2.29 2.54,4.75 3.3,7.32 z"
   id="path270"
   inkscape:connector-curvature="0"
   style="fill:#8c1313" />
		</g>
		<g
   id="g294">
			<g
   id="g278">
				<path
   class="st35"
   d="m 127.24,79.58 c 0,4.43 -2.9,8.29 -7.17,10.29 -0.17,0.08 -0.34,0.16 -0.52,0.23 -0.71,1.01 -1.77,0.81 -2.69,0.65 -0.15,-0.03 -0.3,-0.05 -0.45,-0.06 -0.11,0.14 -0.22,0.27 -0.34,0.39 -0.12,0.12 -0.24,0.22 -0.36,0.31 -0.2,1.08 -1.01,0.9 -1.97,0.63 -0.16,-0.05 -0.33,-0.09 -0.5,-0.13 -0.12,0.04 -0.28,0.07 -0.47,0.09 -0.1,0.01 -0.2,0.03 -0.32,0.04 -0.14,0.01 -0.28,0.02 -0.42,0.04 -0.97,1.48 -3.81,1.48 -4.74,-0.23 -0.11,-0.03 -0.22,-0.07 -0.32,-0.12 -0.52,-0.22 -0.98,-0.55 -1.41,-1.06 -0.11,-0.03 -0.23,-0.06 -0.34,-0.07 -0.11,-0.07 -0.21,-0.14 -0.32,-0.23 -0.51,-0.42 -0.94,-1.04 -1.3,-1.59 -0.09,-0.13 -0.17,-0.26 -0.25,-0.38 -2.22,0.89 -2.22,-1.95 -3.43,-2.96 -0.11,-0.06 -0.21,-0.12 -0.29,-0.19 -0.34,-0.28 -0.44,-0.73 -0.07,-1.52 -0.1,-0.09 -0.2,-0.19 -0.28,-0.29 -0.42,-0.51 -0.59,-1.21 -0.2,-2.6 -0.06,-0.08 -0.12,-0.16 -0.17,-0.23 -0.69,-0.93 -1.26,-1.72 -0.14,-2.44 -0.04,-0.15 -0.07,-0.3 -0.09,-0.45 -0.11,-0.9 0.28,-1.74 1.24,-2.57 0.01,-0.14 0.02,-0.29 0.03,-0.44 0.1,-1.19 0.74,-2.48 2.66,-2.58 -0.04,-0.11 -0.08,-0.22 -0.08,-0.32 -1.03,-2.26 2.9,-1.05 3.46,-3.09 0.14,-0.09 0.28,-0.17 0.42,-0.23 1.01,-0.48 2.18,-0.5 2.67,-0.54 0.15,-0.05 0.3,-0.07 0.44,-0.08 1.02,-0.03 2.08,0.84 3.31,-0.86 0.18,-0.07 0.37,-0.12 0.56,-0.17 0.95,-0.21 1.94,-0.11 1.95,0.54 0.26,0.16 0.51,0.31 0.77,0.42 0.26,0.11 0.51,0.19 0.77,0.18 0.18,0 0.36,-0.01 0.54,-0.01 0.1,0 0.2,-0.01 0.3,-0.01 0.7,-0.02 1.38,-0.07 1.88,-0.14 0.17,0.02 0.32,0.05 0.46,0.1 1.09,0.4 1.38,1.92 2.27,2.7 0.15,0.11 0.3,0.22 0.44,0.33 2.74,2.15 4.47,5.23 4.47,8.65 z"
   id="path274"
   inkscape:connector-curvature="0"
   style="fill:#fffbf0" />
				<path
   class="st31"
   d="m 127.24,79.58 c 0.01,2.31 -0.82,4.59 -2.23,6.41 -1.4,1.84 -3.33,3.23 -5.45,4.14 l 0.02,-0.01 c -0.32,0.49 -0.9,0.79 -1.48,0.8 -0.58,0.02 -1.14,-0.12 -1.7,-0.18 l 0.04,-0.02 -0.33,0.38 c -0.12,0.11 -0.25,0.22 -0.38,0.33 l 0.02,-0.03 c -0.04,0.25 -0.14,0.51 -0.34,0.68 -0.21,0.18 -0.49,0.21 -0.74,0.19 -0.51,-0.04 -0.98,-0.22 -1.45,-0.33 h 0.03 c -0.41,0.09 -0.82,0.14 -1.22,0.18 l 0.04,-0.03 c -0.54,0.81 -1.56,1.15 -2.49,1.12 -0.93,-0.03 -1.91,-0.48 -2.38,-1.34 l 0.04,0.04 c -0.34,-0.11 -0.68,-0.26 -0.97,-0.47 -0.3,-0.2 -0.56,-0.46 -0.8,-0.73 l 0.04,0.03 -0.33,-0.06 -0.03,-0.01 -0.01,-0.01 c -0.86,-0.54 -1.37,-1.42 -1.9,-2.21 l 0.11,0.03 c -0.4,0.15 -0.87,0.25 -1.31,0.08 -0.44,-0.17 -0.71,-0.56 -0.93,-0.92 -0.43,-0.74 -0.69,-1.59 -1.3,-2.12 l 0.02,0.01 c -0.14,-0.1 -0.31,-0.17 -0.43,-0.32 -0.13,-0.14 -0.2,-0.33 -0.22,-0.51 -0.03,-0.37 0.1,-0.71 0.23,-1.02 l 0.03,0.13 c -0.19,-0.19 -0.39,-0.38 -0.52,-0.63 -0.13,-0.25 -0.2,-0.52 -0.22,-0.79 -0.04,-0.55 0.08,-1.07 0.21,-1.58 l 0.02,0.1 c -0.31,-0.43 -0.67,-0.83 -0.88,-1.36 -0.11,-0.26 -0.13,-0.6 0.01,-0.87 0.14,-0.27 0.37,-0.46 0.6,-0.61 l -0.05,0.13 c -0.06,-0.29 -0.13,-0.58 -0.11,-0.89 0.01,-0.3 0.09,-0.6 0.21,-0.87 0.24,-0.55 0.65,-1 1.09,-1.38 l -0.04,0.07 c 0.03,-0.37 0.05,-0.76 0.16,-1.14 0.11,-0.37 0.29,-0.74 0.54,-1.04 0.52,-0.62 1.33,-0.89 2.09,-0.92 l -0.09,0.13 -0.08,-0.35 0.01,0.04 c -0.08,-0.22 -0.17,-0.43 -0.17,-0.68 0,-0.24 0.11,-0.51 0.31,-0.65 0.39,-0.29 0.85,-0.36 1.28,-0.48 0.43,-0.11 0.86,-0.22 1.24,-0.42 0.38,-0.19 0.69,-0.52 0.81,-0.93 l 0.01,-0.03 0.03,-0.01 c 0.24,-0.13 0.48,-0.28 0.74,-0.37 0.26,-0.1 0.52,-0.17 0.79,-0.23 0.53,-0.12 1.08,-0.15 1.61,-0.19 h -0.02 c 0.18,-0.03 0.36,-0.08 0.54,-0.08 0.18,0 0.36,0.03 0.53,0.06 0.34,0.06 0.68,0.15 1.02,0.14 0.34,0 0.66,-0.11 0.94,-0.3 0.28,-0.19 0.5,-0.45 0.71,-0.72 l 0.01,-0.02 0.02,-0.01 c 0.46,-0.15 0.93,-0.27 1.42,-0.26 0.24,0 0.49,0.03 0.72,0.12 0.23,0.08 0.45,0.31 0.45,0.58 l -0.03,-0.04 c 0.32,0.16 0.63,0.38 0.96,0.5 0.34,0.14 0.7,0.09 1.07,0.09 0.73,-0.02 1.46,-0.1 2.19,-0.15 h 0.01 v 0 c 0.17,0.04 0.34,0.07 0.5,0.12 0.16,0.07 0.31,0.15 0.44,0.27 0.27,0.22 0.47,0.5 0.65,0.79 0.36,0.57 0.65,1.19 1.15,1.65 v 0 c 1.44,1.04 2.69,2.37 3.56,3.92 0.88,1.52 1.37,3.29 1.36,5.06 z m 0,0 c 0,-1.78 -0.5,-3.54 -1.38,-5.08 -0.88,-1.54 -2.13,-2.85 -3.57,-3.88 v 0 c -0.51,-0.46 -0.81,-1.09 -1.17,-1.65 -0.18,-0.28 -0.38,-0.56 -0.64,-0.76 -0.12,-0.11 -0.27,-0.19 -0.42,-0.25 -0.16,-0.05 -0.32,-0.07 -0.48,-0.11 h 0.01 c -0.73,0.05 -1.47,0.13 -2.2,0.16 -0.36,0 -0.75,0.06 -1.11,-0.08 -0.35,-0.13 -0.66,-0.34 -0.99,-0.51 l -0.03,-0.01 v -0.03 c 0,-0.22 -0.17,-0.4 -0.38,-0.48 -0.21,-0.08 -0.45,-0.11 -0.68,-0.11 -0.47,-0.01 -0.93,0.12 -1.37,0.27 l 0.03,-0.02 c -0.21,0.28 -0.44,0.55 -0.74,0.76 -0.29,0.21 -0.65,0.32 -1.01,0.33 -0.36,0.01 -0.7,-0.08 -1.04,-0.14 -0.17,-0.03 -0.34,-0.06 -0.5,-0.05 -0.17,0 -0.33,0.05 -0.49,0.07 h -0.02 c -0.54,0.04 -1.07,0.08 -1.59,0.19 -0.26,0.06 -0.51,0.13 -0.76,0.22 -0.25,0.09 -0.47,0.23 -0.7,0.35 l 0.03,-0.05 c -0.12,0.46 -0.47,0.83 -0.88,1.04 -0.41,0.22 -0.85,0.33 -1.28,0.44 -0.42,0.11 -0.88,0.2 -1.2,0.45 -0.36,0.24 -0.25,0.73 -0.08,1.1 l 0.01,0.04 0.07,0.29 0.03,0.12 -0.12,0.01 c -0.73,0.04 -1.48,0.29 -1.94,0.86 -0.23,0.28 -0.39,0.61 -0.49,0.96 -0.1,0.35 -0.12,0.72 -0.15,1.1 v 0.04 l -0.04,0.03 c -0.42,0.37 -0.81,0.8 -1.02,1.3 -0.11,0.25 -0.17,0.52 -0.18,0.79 -0.02,0.27 0.05,0.54 0.1,0.81 l 0.02,0.09 -0.07,0.05 c -0.21,0.14 -0.41,0.31 -0.51,0.51 -0.1,0.21 -0.09,0.45 0.01,0.68 0.19,0.46 0.53,0.88 0.85,1.31 l 0.03,0.05 -0.02,0.06 c -0.13,0.49 -0.24,1 -0.21,1.5 0.02,0.25 0.08,0.49 0.19,0.7 0.11,0.22 0.29,0.39 0.47,0.57 l 0.06,0.06 -0.03,0.07 c -0.13,0.29 -0.24,0.61 -0.22,0.9 0.01,0.15 0.07,0.28 0.16,0.39 0.09,0.11 0.24,0.18 0.37,0.27 l 0.02,0.01 c 0.68,0.61 0.92,1.47 1.34,2.19 0.21,0.35 0.46,0.7 0.83,0.85 0.36,0.15 0.78,0.07 1.17,-0.07 l 0.07,-0.03 0.04,0.06 c 0.53,0.8 1.04,1.66 1.84,2.17 l -0.04,-0.01 0.36,0.07 h 0.02 l 0.02,0.02 c 0.44,0.54 1.02,0.95 1.69,1.15 l 0.03,0.01 0.01,0.03 c 0.43,0.8 1.35,1.24 2.25,1.27 0.89,0.04 1.86,-0.29 2.38,-1.05 l 0.02,-0.02 h 0.03 c 0.41,-0.04 0.81,-0.08 1.2,-0.17 h 0.02 0.01 c 0.49,0.11 0.95,0.29 1.44,0.34 0.24,0.02 0.49,-0.01 0.66,-0.16 0.18,-0.15 0.26,-0.39 0.31,-0.62 v -0.02 l 0.02,-0.01 0.37,-0.32 0.33,-0.37 0.02,-0.02 h 0.02 c 0.57,0.07 1.12,0.21 1.69,0.19 0.56,-0.01 1.11,-0.28 1.42,-0.76 l 0.01,-0.01 h 0.01 c 2.11,-0.89 4.04,-2.27 5.45,-4.1 1.36,-1.77 2.21,-4.04 2.21,-6.35 z"
   id="path276"
   inkscape:connector-curvature="0"
   style="fill:#cec8ba" />
			</g>
			<path
   class="st36"
   d="m 121.2,79.41 c 0,5.15 -3.4,9.32 -7.6,9.32 -0.5,0 -0.98,-0.06 -1.45,-0.17 -0.16,-0.04 -0.31,-0.08 -0.46,-0.13 0.71,-3.4 -3.55,-0.56 -3.51,-3.6 -0.05,-0.14 -0.11,-0.27 -0.17,-0.4 -0.3,-0.64 -0.74,-1.17 -1.61,-1.51 -0.06,-0.14 -0.1,-0.3 -0.1,-0.46 -0.06,-1.32 1.42,-3.21 -0.28,-3.59 0.01,-0.18 0.02,-0.35 0.03,-0.52 0.02,-0.17 0.04,-0.35 0.06,-0.52 -0.8,-1.32 3.45,-2.74 1.79,-4.58 -0.1,-0.2 -0.16,-0.37 -0.18,-0.5 -0.3,-1.48 3.32,0.65 3.87,-2.33 0.16,-0.06 0.32,-0.11 0.49,-0.15 0.49,-0.12 1.01,-0.19 1.53,-0.19 4.19,0.01 7.59,4.19 7.59,9.33 z"
   id="path280"
   inkscape:connector-curvature="0"
   style="fill:#ffe1d9;stroke:#cec8ba;stroke-width:0.25;stroke-miterlimit:10" />
			<g
   id="g286">
				<path
   class="st37"
   d="m 107.33,81.09 c -0.45,0.2 -0.98,0.31 -1.54,0.31 -1.59,0 -2.87,-0.89 -2.87,-1.99 0,-1.1 1.29,-1.99 2.87,-1.99 0.57,0 1.09,0.11 1.54,0.31"
   id="path282"
   inkscape:connector-curvature="0"
   style="fill:#ffe1d9" />
				<path
   class="st38"
   d="m 107.33,81.09 c -0.82,0.41 -1.79,0.48 -2.69,0.25 -0.45,-0.12 -0.88,-0.33 -1.23,-0.65 -0.36,-0.31 -0.61,-0.77 -0.62,-1.27 0.01,-0.5 0.26,-0.96 0.62,-1.27 0.35,-0.32 0.78,-0.53 1.23,-0.66 0.9,-0.24 1.87,-0.16 2.69,0.24 -0.85,-0.32 -1.79,-0.31 -2.63,-0.06 -0.81,0.25 -1.65,0.88 -1.65,1.74 0,0.87 0.84,1.49 1.66,1.74 0.83,0.26 1.77,0.26 2.62,-0.06 z"
   id="path284"
   inkscape:connector-curvature="0"
   style="fill:#fcb1a2" />
			</g>
			<path
   class="st39"
   d="m 125.56,70.29 c 0,0 0.08,-0.63 -0.63,-1.26 -0.1,-0.09 -0.22,-0.19 -0.36,-0.28 -1.06,-1.26 -2.12,-1.47 -3.92,-1.2 -0.18,0.03 -0.37,0.05 -0.57,0.04 -0.1,0.03 -0.2,0.06 -0.29,0.09 -0.1,0.03 -0.19,0.05 -0.29,0.07 -2.57,-0.51 -3.84,-0.51 -4.56,0.57 -0.14,0.04 -0.29,0.09 -0.42,0.14 -0.69,0.28 -1.31,0.78 -1.84,1.69 -0.13,0.12 -0.26,0.24 -0.4,0.37 -0.12,0.12 -0.25,0.23 -0.39,0.35 -0.23,0.04 -0.45,0.09 -0.64,0.16 -0.19,0.07 -0.37,0.15 -0.53,0.25 -0.14,0 -0.26,0.01 -0.37,0.03 -0.11,0.02 -0.21,0.05 -0.3,0.08 -1.2,0.88 -1.2,3.72 -2.08,5.22 0,0.17 0,0.33 0.01,0.49 0.01,0.16 0,0.31 0.01,0.46 0,0.15 0.01,0.29 0.01,0.43 -0.56,2.79 -0.56,4.21 0.32,5.17 0.05,0.16 0.09,0.32 0.13,0.49 0.07,0.16 0.15,0.3 0.25,0.44 0.59,3.27 3.14,1.93 2.8,4.08 0.06,0.13 0.13,0.24 0.22,0.34 0.34,0.4 0.9,0.55 1.49,0.66 0.17,0.03 0.34,0.05 0.5,0.09 0.25,0.3 0.59,0.48 0.99,0.62 0.14,0.05 0.28,0.09 0.43,0.13 1.26,0.03 2.26,1.35 3.19,1.69 0.13,0.05 0.26,0.07 0.39,0.08 1.02,-0.19 1.85,-0.28 2.54,-0.45 0.14,-0.03 0.27,-0.07 0.4,-0.1 1.64,0.17 4.19,0.17 3.91,-2.82 0,-0.11 0,-0.23 0,-0.36 0.03,-3.83 0,-17.76 0,-17.76 z"
   id="path288"
   inkscape:connector-curvature="0"
   style="fill:#fffbf0;stroke:#cec8ba;stroke-width:0.25;stroke-miterlimit:10" />
			<path
   class="st39"
   d="m 155.26,79.77 c -0.44,0.02 -0.44,1.12 -0.51,1.04 -0.03,0.14 -0.06,0.25 -0.1,0.31 -0.05,0.16 -0.1,0.3 -0.16,0.44 -0.05,0.1 -0.1,0.2 -0.16,0.3 -0.61,1.22 -1.7,1.22 -3.74,1.21 -0.14,0 -0.29,-0.01 -0.43,-0.03 -0.43,-0.08 -0.85,-0.3 -1.23,-0.78 -0.15,-0.03 -0.28,-0.06 -0.41,-0.09 -1.35,-0.37 -1.32,-1.5 -0.97,-3.95 0.05,-0.09 0.1,-0.19 0.17,-0.3 0.07,-0.11 0.15,-0.23 0.23,-0.38 0.31,-2.1 2.5,-1.01 3.32,-1.76 0.16,0 0.32,0.03 0.49,0.08 0.17,0.05 0.34,0.13 0.53,0.24 0.09,0.06 0.19,0.12 0.28,0.19 0.23,-0.08 0.41,-0.12 0.55,-0.11 0.14,0.01 0.25,0.06 0.34,0.14 0.27,2.4 2.45,1.3 1.93,3.17 -0.03,0.07 -0.07,0.16 -0.13,0.28 z"
   id="path290"
   inkscape:connector-curvature="0"
   style="fill:#fffbf0;stroke:#cec8ba;stroke-width:0.25;stroke-miterlimit:10" />
			<path
   class="st40"
   d="m 150.84,80.41 c 0.82,-0.3 0.74,-1.47 -0.1,-1.69 -16.84,-4.39 -22.81,-8.87 -26.88,-9.24 -0.4,-0.05 -1.67,-0.11 -1.67,-0.11 -6.58,0 -11.92,4.5 -11.92,10.04 0,5.55 5.33,10.04 11.92,10.04 1.57,0 3.07,-0.26 4.45,-0.73 9.21,-2.85 19.46,-6.56 24.2,-8.31 z"
   id="path292"
   inkscape:connector-curvature="0"
   style="fill:#ed001d;stroke:#8c1313;stroke-width:0.25;stroke-miterlimit:10" />
		</g>
		<g
   id="g300">
			<path
   class="st35"
   d="m 74.01,69.32 c -0.8,0.16 -1.41,-0.23 -1.76,-1.16 -0.02,-0.06 -0.04,-0.12 -0.06,-0.18 -1.66,0.56 -1.47,-0.68 -1.57,-1.62 -0.01,-0.12 -0.03,-0.23 -0.06,-0.33 -0.55,0.1 -1.18,-0.18 -1.64,-0.63 -0.08,-0.07 -0.15,-0.15 -0.22,-0.24 -0.38,-0.15 -1.02,-0.67 -1.29,-1.38 -0.04,-0.1 -0.07,-0.21 -0.09,-0.32 -0.76,-0.92 -0.48,-1.37 -0.01,-1.68 0.08,-0.05 0.16,-0.1 0.25,-0.15 0.11,-0.44 0.72,-1.19 1.32,-1.62 0.08,-0.06 0.17,-0.11 0.25,-0.16 0.24,-0.51 0.85,-1.24 1.69,-1.16 0.1,0.01 0.21,0.03 0.33,0.06 1.55,-0.26 2.26,0.41 2.59,2.01 0.09,0.09 0.17,0.18 0.25,0.27 1.3,0.09 2.01,0.57 2.25,1.69 0.02,0.11 0.04,0.23 0.06,0.35 0.58,0.02 1.03,0.15 1.38,0.41 0.07,0.05 0.13,0.11 0.19,0.17 0.81,0.6 0.95,1.06 0.91,1.5 -0.01,0.09 -0.02,0.18 -0.03,0.27 0.59,0.49 0.73,0.89 0.58,1.32 -0.03,0.07 -0.06,0.14 -0.1,0.22 0.13,0.8 -0.47,1.35 -1.06,1.72 -0.08,0.05 -0.17,0.1 -0.25,0.15 -0.15,0.83 -0.41,1.39 -0.99,1.54 -0.08,0.02 -0.17,0.03 -0.27,0.04 -0.89,0.46 -0.89,0.46 -1.83,-0.41 -0.04,-0.04 -0.09,-0.09 -0.19,-0.2 -0.05,-0.06 -0.12,-0.13 -0.36,-0.36 -0.1,-0.05 -0.18,-0.09 -0.27,-0.12 z"
   id="path296"
   inkscape:connector-curvature="0"
   style="fill:#fffbf0" />
			<path
   class="st31"
   d="m 74.01,69.32 c -0.41,0.1 -0.87,0.02 -1.2,-0.26 -0.33,-0.28 -0.52,-0.68 -0.66,-1.07 L 72.2,68 c -0.26,0.08 -0.53,0.16 -0.82,0.15 -0.29,0 -0.57,-0.22 -0.65,-0.49 -0.19,-0.54 -0.11,-1.11 -0.24,-1.62 l 0.08,0.05 C 69.8,66.2 69.1,65.75 68.64,65.21 l 0.03,0.02 C 68.3,65.07 68,64.81 67.75,64.52 67.5,64.22 67.31,63.87 67.23,63.48 l 0.02,0.04 c -0.23,-0.3 -0.49,-0.63 -0.49,-1.07 0,-0.22 0.11,-0.42 0.26,-0.56 0.15,-0.15 0.32,-0.24 0.48,-0.34 l -0.05,0.06 c 0.13,-0.43 0.4,-0.74 0.66,-1.05 0.28,-0.3 0.58,-0.58 0.95,-0.79 l -0.04,0.05 c 0.19,-0.39 0.47,-0.74 0.85,-0.99 0.19,-0.12 0.4,-0.21 0.63,-0.24 0.23,-0.04 0.45,0.02 0.66,0.06 h -0.05 c 0.62,-0.1 1.36,-0.11 1.89,0.36 0.51,0.46 0.7,1.13 0.83,1.74 l -0.03,-0.06 0.25,0.27 -0.08,-0.04 c 0.57,0.05 1.19,0.16 1.67,0.56 0.48,0.4 0.67,1.02 0.73,1.59 l -0.1,-0.09 c 0.29,0.01 0.59,0.05 0.87,0.15 0.29,0.09 0.55,0.26 0.76,0.47 l -0.01,-0.01 c 0.28,0.22 0.56,0.46 0.76,0.78 0.1,0.16 0.16,0.34 0.18,0.53 0.02,0.19 -0.01,0.37 -0.03,0.54 l -0.03,-0.07 c 0.23,0.2 0.46,0.42 0.59,0.72 0.06,0.15 0.09,0.32 0.06,0.48 -0.02,0.17 -0.09,0.31 -0.16,0.45 l 0.01,-0.05 c 0.07,0.43 -0.09,0.87 -0.37,1.19 -0.28,0.32 -0.63,0.55 -0.99,0.75 l 0.03,-0.04 c -0.07,0.36 -0.16,0.74 -0.36,1.06 -0.1,0.16 -0.24,0.31 -0.41,0.4 -0.17,0.11 -0.36,0.12 -0.55,0.14 h 0.02 c -0.22,0.1 -0.43,0.23 -0.68,0.28 -0.27,0.06 -0.5,-0.11 -0.68,-0.27 -0.38,-0.31 -0.71,-0.68 -1.05,-1.03 v 0 z m 0,0 0.23,0.12 v 0 c 0.35,0.34 0.68,0.7 1.07,1 0.18,0.15 0.4,0.3 0.64,0.24 0.23,-0.05 0.44,-0.19 0.66,-0.3 h 0.01 0.01 c 0.18,-0.02 0.36,-0.05 0.51,-0.14 0.15,-0.09 0.27,-0.22 0.36,-0.38 0.18,-0.31 0.26,-0.67 0.33,-1.03 l 0.01,-0.03 0.03,-0.02 c 0.35,-0.2 0.69,-0.43 0.94,-0.73 0.26,-0.3 0.39,-0.69 0.33,-1.07 v -0.02 l 0.01,-0.03 c 0.06,-0.13 0.13,-0.26 0.14,-0.39 0.02,-0.14 -0.01,-0.27 -0.06,-0.4 -0.11,-0.25 -0.32,-0.46 -0.55,-0.65 l -0.04,-0.03 0.01,-0.04 c 0.06,-0.35 0.05,-0.68 -0.14,-0.96 -0.17,-0.28 -0.44,-0.51 -0.72,-0.72 H 77.78 L 77.77,63.73 C 77.58,63.54 77.34,63.39 77.08,63.31 76.82,63.23 76.54,63.19 76.26,63.18 H 76.18 L 76.17,63.1 C 76.1,62.55 75.92,61.99 75.5,61.65 75.08,61.3 74.51,61.2 73.96,61.16 h -0.04 l -0.03,-0.03 -0.25,-0.26 -0.02,-0.03 -0.01,-0.03 c -0.13,-0.6 -0.32,-1.21 -0.76,-1.6 -0.44,-0.4 -1.09,-0.41 -1.69,-0.32 h -0.02 l -0.03,-0.01 c -0.2,-0.04 -0.39,-0.09 -0.58,-0.06 -0.19,0.02 -0.37,0.1 -0.54,0.2 -0.33,0.21 -0.6,0.53 -0.78,0.89 l -0.02,0.03 -0.03,0.02 c -0.34,0.19 -0.63,0.45 -0.9,0.74 -0.26,0.29 -0.52,0.62 -0.63,0.96 l -0.01,0.04 -0.03,0.02 c -0.32,0.17 -0.65,0.4 -0.66,0.74 -0.01,0.34 0.22,0.67 0.44,0.95 l 0.01,0.02 v 0.02 c 0.08,0.35 0.24,0.69 0.48,0.97 0.23,0.28 0.52,0.53 0.85,0.68 l 0.02,0.01 0.01,0.01 c 0.44,0.52 1.11,0.95 1.79,0.84 l 0.06,-0.01 0.03,0.05 c 0.13,0.55 0.04,1.11 0.21,1.62 0.08,0.25 0.29,0.43 0.56,0.45 0.26,0.02 0.53,-0.05 0.79,-0.12 l 0.03,-0.01 0.01,0.03 c 0.13,0.4 0.3,0.79 0.62,1.07 0.31,0.28 0.76,0.36 1.17,0.28 z"
   id="path298"
   inkscape:connector-curvature="0"
   style="fill:#cec8ba" />
		</g>
		<path
   class="st39"
   d="m 69.41,90.72 c -0.16,-0.8 0.23,-1.41 1.16,-1.76 0.06,-0.02 0.12,-0.04 0.18,-0.06 -0.56,-1.66 0.68,-1.47 1.62,-1.57 0.12,-0.01 0.23,-0.03 0.33,-0.06 -0.1,-0.55 0.18,-1.18 0.63,-1.64 0.07,-0.08 0.15,-0.15 0.24,-0.22 0.15,-0.38 0.67,-1.02 1.38,-1.29 0.1,-0.04 0.21,-0.07 0.32,-0.09 0.92,-0.76 1.37,-0.48 1.68,-0.01 0.05,0.08 0.1,0.16 0.15,0.25 0.44,0.11 1.19,0.72 1.62,1.32 0.06,0.08 0.11,0.17 0.16,0.25 0.51,0.24 1.24,0.85 1.16,1.69 -0.01,0.1 -0.03,0.21 -0.06,0.33 0.26,1.55 -0.41,2.26 -2.01,2.59 -0.09,0.09 -0.18,0.17 -0.27,0.25 -0.09,1.3 -0.57,2.01 -1.69,2.25 -0.11,0.02 -0.23,0.04 -0.35,0.06 -0.02,0.58 -0.15,1.03 -0.41,1.38 -0.05,0.07 -0.11,0.13 -0.17,0.19 -0.6,0.81 -1.06,0.95 -1.5,0.91 -0.09,-0.01 -0.18,-0.02 -0.27,-0.03 -0.49,0.59 -0.89,0.73 -1.32,0.58 -0.07,-0.03 -0.14,-0.06 -0.22,-0.1 -0.8,0.13 -1.35,-0.47 -1.72,-1.06 -0.05,-0.08 -0.1,-0.17 -0.15,-0.25 -0.83,-0.15 -1.39,-0.41 -1.54,-0.99 -0.02,-0.08 -0.03,-0.17 -0.04,-0.27 -0.46,-0.89 -0.46,-0.89 0.41,-1.83 0.04,-0.04 0.09,-0.09 0.2,-0.19 0.06,-0.05 0.13,-0.12 0.36,-0.36 0.04,-0.11 0.08,-0.18 0.12,-0.27 z"
   id="path302"
   inkscape:connector-curvature="0"
   style="fill:#fffbf0;stroke:#cec8ba;stroke-width:0.25;stroke-miterlimit:10" />
	</g>
</g>
</svg>