<svg width="31.347458" height="13.728813" viewBox="0 0 31.347458 13.728813" xmlns="http://www.w3.org/2000/svg">
    <defs/>
    <path id="rect817" fill="white" stroke="none" d="M 0.22881365 0 L 31.34745865 0 L 31.34745865 2.2881355 L 0.22881365 2.2881355 Z"/>
    <path id="rect817-3" fill="white" stroke="none" d="M 0 11.440678 L 31.118645 11.440678 L 31.118645 13.7288135 L 0 13.7288135 Z"/>
    <path id="path834" fill="none" stroke="#000000" d="M 2.8601696 11.440678 C 10.983051 2.0593222 10.983051 2.0593222 10.983051 2.0593222"/>
    <path id="path834-7" fill="none" stroke="#000000" d="M 10.125 11.555084 C 18.247882 2.1737289 18.247882 2.1737289 18.247882 2.1737289"/>
    <path id="path834-5" fill="none" stroke="#000000" d="M 17.904661 11.440677 C 26.027543 2.0593221 26.027543 2.0593221 26.027543 2.0593221"/>
    <path id="rect821" fill="white" stroke="none" d="M 8.2372885 6.0635591 L 11.7838986 6.0635591 L 11.7838986 8.8093219 L 8.2372885 8.8093219 Z"/>
    <path id="rect823" fill="white" stroke="none" d="M 16.36017 5.7203383 L 19.6779667 5.7203383 L 19.6779667 8.5805077 L 16.36017 8.5805077 Z"/>
    <path id="rect825" fill="white" stroke="none" d="M 24.254238 5.949152 L 29.0593227 5.949152 L 29.0593227 8.9237282 L 24.254238 8.9237282 Z"/>
    <path id="rect827" fill="white" stroke="none" d="M 0.34322035 5.8347454 L 4.34745755 5.8347454 L 4.34745755 8.3516946 L 0.34322035 8.3516946 Z"/>
</svg>
