<?xml version="1.0" encoding="UTF-8" standalone="no"?>
<svg
   xmlns:dc="http://purl.org/dc/elements/1.1/"
   xmlns:cc="http://creativecommons.org/ns#"
   xmlns:rdf="http://www.w3.org/1999/02/22-rdf-syntax-ns#"
   xmlns:svg="http://www.w3.org/2000/svg"
   xmlns="http://www.w3.org/2000/svg"
   id="svg2"
   viewBox="0 0 14 14"
   version="1.0"
   width="14"
   height="14">
  <defs
     id="defs58" />
  <metadata
     id="metadata54">
    <rdf:RDF>
      <cc:Work>
        <dc:format>image/svg+xml</dc:format>
        <dc:type
           rdf:resource="http://purl.org/dc/dcmitype/StillImage" />
        <dc:title></dc:title>
      </cc:Work>
      <cc:License
         rdf:about="http://creativecommons.org/publicdomain/zero/1.0/">
        <cc:permits
           rdf:resource="http://creativecommons.org/ns#Reproduction" />
        <cc:permits
           rdf:resource="http://creativecommons.org/ns#Distribution" />
        <cc:permits
           rdf:resource="http://creativecommons.org/ns#DerivativeWorks" />
      </cc:License>
    </rdf:RDF>
  </metadata>
  <rect width="14" height="14" x="0" y="0" id="canvas" style="fill:none;stroke:none;visibility:hidden"/>
  <path
     d="M 7,-9.9999999e-8 C 3.134444,-9.9999999e-8 0,3.1344439 0,7 c 0,3.865556 3.134444,7 7,7 0.645556,0 1.1660156,-0.520461 1.1660156,-1.166016 0,-0.303333 -0.1121788,-0.577093 -0.3027344,-0.783203 -0.1827769,-0.206111 -0.2910156,-0.473992 -0.2910156,-0.773437 0,-0.645556 0.5204596,-1.166016 1.1660156,-1.166016 l 1.3730468,0 C 12.257994,10.111328 14,8.369323 14,6.222656 c 0,-3.4377778 -3.134445,-6.2226561 -7,-6.2226561 z M 8.9335938,1.3046874 A 1.3891786,1.3891786 0 0 1 10.322266,2.6933593 1.3891786,1.3891786 0 0 1 8.9335938,4.0839843 1.3891786,1.3891786 0 0 1 7.5449219,2.6933593 1.3891786,1.3891786 0 0 1 8.9335938,1.3046874 Z M 5.0390625,1.3242187 A 1.3891786,1.3891786 0 0 1 6.4296875,2.7148437 1.3891786,1.3891786 0 0 1 5.0390625,4.1035155 1.3891786,1.3891786 0 0 1 3.6503906,2.7148437 1.3891786,1.3891786 0 0 1 5.0390625,1.3242187 Z M 2.7070312,4.4472655 A 1.3891786,1.3891786 0 0 1 4.0957031,5.83789 1.3891786,1.3891786 0 0 1 2.7070312,7.226562 1.3891786,1.3891786 0 0 1 1.3183594,5.83789 1.3891786,1.3891786 0 0 1 2.7070312,4.4472655 Z m 8.5585938,0 A 1.3891786,1.3891786 0 0 1 12.654297,5.83789 1.3891786,1.3891786 0 0 1 11.265625,7.226562 1.3891786,1.3891786 0 0 1 9.8769531,5.83789 1.3891786,1.3891786 0 0 1 11.265625,4.4472655 Z"
     id="path4" />
</svg>
