<?xml version="1.0" encoding="UTF-8" standalone="no"?>
<svg
   xmlns:osb="http://www.openswatchbook.org/uri/2009/osb"
   xmlns:dc="http://purl.org/dc/elements/1.1/"
   xmlns:cc="http://creativecommons.org/ns#"
   xmlns:rdf="http://www.w3.org/1999/02/22-rdf-syntax-ns#"
   xmlns:svg="http://www.w3.org/2000/svg"
   xmlns="http://www.w3.org/2000/svg"
   viewBox="0 0 14 14"
   height="14"
   width="14"
   id="svg109"
   version="1.1">
  <metadata
     id="metadata115">
    <rdf:RDF>
      <cc:Work
         rdf:about="">
        <dc:format>image/svg+xml</dc:format>
        <dc:type
           rdf:resource="http://purl.org/dc/dcmitype/StillImage" />
        <dc:title></dc:title>
      </cc:Work>
    </rdf:RDF>
  </metadata>
  <defs
     id="defs113">
    <linearGradient
       osb:paint="solid"
       id="linearGradient831">
      <stop
         id="stop829"
         offset="0"
         style="stop-color:#ffffff;stop-opacity:1;" />
    </linearGradient>
  </defs>
  <path
     id="path4"
     d="M 14 0.001953125 C 13.33277 0.091718085 12.665921 0.2004374 12 0.3046875 L 12 10.171875 L 11.492188 10.132812 C 10.176877 10.039022 8.7861312 10.693032 8.1757812 11.691406 C 7.9510942 12.058924 7.92742 12.6419 8.125 12.958984 C 8.433456 13.453997 9.1660816 13.86832 9.9628906 14.001953 C 11.795196 13.948773 13.108043 13.301828 13.998047 11.96875 C 14.000047 7.9999604 14 4.0006148 14 0.001953125 z M 7.1074219 0.005859375 C 4.6531858 -0.057768225 2.2414122 1.1902481 0.92773438 3.4648438 C -0.98306826 6.7733444 0.15132769 11.003898 3.4609375 12.914062 C 4.0136496 13.233064 4.7160491 13.044714 5.0351562 12.492188 C 5.1850995 12.232567 5.2253285 11.942446 5.1640625 11.671875 C 5.1094545 11.405148 5.1488545 11.125432 5.296875 10.869141 C 5.6159834 10.316614 6.3183817 10.128266 6.8710938 10.447266 L 7.1230469 10.591797 C 7.8455247 9.6392494 8.9273718 9.1409493 10.099609 8.9199219 A 1.3733846 1.3729251 0 0 1 9.9589844 7.3496094 A 1.3733846 1.3729251 0 0 1 10.5 6.828125 L 10.5 5.5507812 A 1.3733846 1.3729251 0 0 1 10.017578 5.3828125 A 1.3733846 1.3729251 0 0 1 9.5175781 3.5078125 A 1.3733846 1.3729251 0 0 1 10.5 2.8378906 L 10.5 1.0078125 C 10.459351 0.9833678 10.422133 0.95546217 10.380859 0.93164062 C 9.3466072 0.33471386 8.2229837 0.034781005 7.1074219 0.005859375 z M 7.2949219 0.9140625 A 1.3733846 1.3729251 0 0 1 8.0488281 1.0957031 A 1.3733846 1.3729251 0 0 1 8.5507812 2.9746094 A 1.3733846 1.3729251 0 0 1 6.6738281 3.4765625 A 1.3733846 1.3729251 0 0 1 6.171875 1.6015625 A 1.3733846 1.3729251 0 0 1 7.2949219 0.9140625 z M 3.7558594 2.4355469 A 1.3733846 1.3729251 0 0 1 4.5078125 2.6171875 A 1.3733846 1.3729251 0 0 1 5.0097656 4.4941406 A 1.3733846 1.3729251 0 0 1 3.1347656 4.9980469 A 1.3733846 1.3729251 0 0 1 2.6308594 3.1210938 A 1.3733846 1.3729251 0 0 1 3.7558594 2.4355469 z "
     style="stroke-width:0.98846525" />
</svg>
