<?xml version="1.0" encoding="UTF-8" standalone="no"?>
<!-- Created with Inkscape (http://www.inkscape.org/) -->

<svg
   xmlns:dc="http://purl.org/dc/elements/1.1/"
   xmlns:cc="http://creativecommons.org/ns#"
   xmlns:rdf="http://www.w3.org/1999/02/22-rdf-syntax-ns#"
   xmlns:svg="http://www.w3.org/2000/svg"
   xmlns="http://www.w3.org/2000/svg"
   version="1.1"
   width="14"
   height="14"
   viewBox="0 0 14 14"
   id="svg2">
  <metadata
     id="metadata8">
    <rdf:RDF>
      <cc:Work
         rdf:about="">
        <dc:format>image/svg+xml</dc:format>
        <dc:type
           rdf:resource="http://purl.org/dc/dcmitype/StillImage" />
        <dc:title></dc:title>
      </cc:Work>
    </rdf:RDF>
  </metadata>
  <defs
     id="defs6" />
  <rect
     width="14"
     height="14"
     x="0"
     y="0"
     id="canvas"
     style="fill:none;stroke:none;visibility:hidden" />
  <path
     d="m 0,0 0,10 2.000077,0 0,-3.5 2.500097,0 c 1.976154,3e-7 3.500135,-1 3.500135,-3.25 C 8.000309,1 6.4871,2e-7 4.968942,0 z m 2.000077,2 2.500097,0 c 0.963608,0 1.500058,0.5254308 1.500058,1.25 0,0.7245692 -0.631804,1.25 -1.500058,1.25 l -2.500097,0 z M 9,7 9,7.5938559 9.500367,8 l 0,0.75 -3.000116,0 0,-0.25 0.50002,0 c 0.479412,0 0.455442,-0.5 0,-0.5 L 5.500213,8 c -0.50002,0 -0.50002,0.452061 0,0.5 l 0.500019,0 0,0.25 -0.562522,1.28125 C 5.296384,10.001436 5.147956,10 5.000193,10 c -1.02182,0 -2.000077,0.793929 -2.000077,2 0,1.206071 0.978257,2 2.000077,2 1.02182,0 1.937575,-0.856429 1.937575,-2.0625 0,-0.150759 -0.0039,-0.302075 -0.03125,-0.4375 l 0.843783,0 1.821945,-2 0.365639,0.78125 C 9.383285,10.615837 9.000348,11.229684 9.000348,12 c 0,1.206071 0.978257,2 2.000077,2 C 12.022246,14 12.938,13.143571 12.938,11.9375 12.938,10.731429 12.022246,10 11.000425,10 c -0.15008,0 -0.292278,0.02946 -0.437517,0.0625 L 10.000386,8.75 10,7.8 z m -2.593502,2.5 2.193834,0 -1.193796,1.25 -0.843782,0 C 6.422636,10.56342 6.258266,10.401358 6.062734,10.28125 z M 5.000193,11 c 0.635098,0 1.000039,0.549217 1.000039,1 0,0.450783 -0.364941,1 -1.000039,1 -0.635098,0 -1.000038,-0.549217 -1.000038,-1 0,-0.450783 0.36494,-1 1.000038,-1 z m 6.000232,0 c 0.635099,0 1.000039,0.549217 1.000039,1 0,0.450783 -0.36494,1 -1.000039,1 -0.635098,0 -1.000039,-0.549217 -1.000039,-1 0,-0.450783 0.364941,-1 1.000039,-1 z"
     id="parking-bicycle" />
</svg>
