<?xml version="1.0" encoding="UTF-8" standalone="no"?>
<svg
   xmlns:dc="http://purl.org/dc/elements/1.1/"
   xmlns:cc="http://creativecommons.org/ns#"
   xmlns:rdf="http://www.w3.org/1999/02/22-rdf-syntax-ns#"
   xmlns:svg="http://www.w3.org/2000/svg"
   xmlns="http://www.w3.org/2000/svg"
   width="14"
   height="14"
   id="svg3800"
   version="1.1"
   viewBox="0 0 14 14">
  <defs
     id="defs3802" />
  <metadata
     id="metadata3805">
    <rdf:RDF>
      <cc:Work
         rdf:about="">
        <dc:format>image/svg+xml</dc:format>
        <dc:type
           rdf:resource="http://purl.org/dc/dcmitype/StillImage" />
        <dc:title></dc:title>
      </cc:Work>
    </rdf:RDF>
  </metadata>
  <g
     transform="translate(1.5520395,2.8104498)"
     id="g97">
    <g
       id="g105">
      <path
         id="rental-bicycle"
         transform="translate(-1.5520395,-2.8104498)"
         d="M 2.7441406 0 C 2.0338765 0.0003935 1.3740289 0.4117078 1 1 L 3.3691406 1 L 3.9921875 2 L 3.3691406 3 L 1.0019531 3 C 1.3756288 3.5877381 2.0345467 3.9989723 2.7441406 4 C 3.5023764 3.9999999 4.1562562 3.595766 4.5117188 3 L 9.1777344 3 C 9.533156 3.5959232 10.188909 4.0000003 10.947266 4 C 12.080957 4.0000002 13 3.1045696 13 2 C 13 0.89543042 12.080957 -2e-007 10.947266 0 C 10.188909 -2.6757065e-007 9.533156 0.40407683 9.1777344 1 L 4.5117188 1 C 4.1562561 0.40423404 3.5023764 6.6882009e-008 2.7441406 0 z M 10.322266 1 L 11.572266 1 L 12.195312 2 L 11.572266 3 L 10.322266 3 L 9.6992188 2 L 10.322266 1 z M 7.9824219 5.4511719 L 8.0136719 6.4492188 L 8.9785156 7.0117188 L 8.9785156 8.0097656 L 5.2382812 8.0097656 L 4.9902344 8.0097656 L 4.9902344 7.0117188 L 5.4882812 7.0117188 C 6.4856837 7.0117188 6.4856836 6.0136719 5.4882812 6.0136719 L 3.4941406 6.0136719 C 2.4967381 6.0136719 2.4967381 7.0117188 3.4941406 7.0117188 L 3.9921875 7.0117188 L 3.9921875 8.0097656 L 3.4316406 9.3828125 C 3.3901026 9.3805525 3.348685 9.3828125 3.3066406 9.3828125 C 2.0394441 9.3828125 1 10.422942 1 11.691406 C 1 12.959871 2.0394441 14 3.3066406 14 C 4.5738362 14 5.6132812 12.959871 5.6132812 11.691406 C 5.6132812 11.451775 5.5576715 11.222456 5.4882812 11.003906 L 5.9863281 11.003906 L 6.984375 11.003906 L 9.1347656 9.0078125 L 9.4160156 9.7265625 C 8.7780386 10.142801 8.3554687 10.88276 8.3554688 11.691406 C 8.3554688 12.959871 9.3949129 14 10.662109 14 C 11.929306 14 13 12.959871 13 11.691406 C 13 10.422942 11.929306 9.3828125 10.662109 9.3828125 C 10.620048 9.3828125 10.578652 9.3805525 10.537109 9.3828125 L 9.9765625 8.0097656 L 9.9765625 6.6367188 L 7.9824219 5.4511719 z M 4.8339844 9.0078125 L 7.9375 9.0078125 L 6.6347656 10.255859 L 5.0839844 10.255859 C 4.9305231 10.068437 4.755997 9.859178 4.5527344 9.7265625 L 4.8339844 9.0078125 z M 3.3066406 10.505859 C 3.9674208 10.505859 4.4902344 11.029965 4.4902344 11.691406 C 4.4902344 12.352848 3.9674208 12.876953 3.3066406 12.876953 C 2.6458595 12.876953 2.1230469 12.352848 2.1230469 11.691406 C 2.1230469 11.029965 2.6458595 10.505859 3.3066406 10.505859 z M 10.662109 10.505859 C 11.322889 10.505859 11.847656 11.029965 11.847656 11.691406 C 11.847656 12.352848 11.322889 12.876953 10.662109 12.876953 C 10.001328 12.876953 9.5097656 12.352848 9.5097656 11.691406 C 9.5097656 11.029965 10.001328 10.505859 10.662109 10.505859 z "
         style="stroke-width:0.99790192" />
    </g>
  </g>
</svg>
