<?xml version="1.0" encoding="UTF-8" standalone="no"?>
<svg
   xmlns:dc="http://purl.org/dc/elements/1.1/"
   xmlns:cc="http://creativecommons.org/ns#"
   xmlns:rdf="http://www.w3.org/1999/02/22-rdf-syntax-ns#"
   xmlns:svg="http://www.w3.org/2000/svg"
   xmlns="http://www.w3.org/2000/svg"
   id="svg4"
   viewBox="0 0 14 14"
   height="14"
   width="14"
   version="1.1">
  <metadata
     id="metadata10">
    <rdf:RDF>
      <cc:Work
         rdf:about="">
        <dc:format>image/svg+xml</dc:format>
        <dc:type
           rdf:resource="http://purl.org/dc/dcmitype/StillImage" />
        <dc:title></dc:title>
      </cc:Work>
    </rdf:RDF>
  </metadata>
  <defs
     id="defs8" />
  <rect
     style="fill:none;stroke:none;visibility:hidden"
     id="canvas"
     y="0"
     x="0"
     height="14"
     width="14" />
  <g
     style="fill:#1a1a1a"
     id="g7"
     transform="matrix(0.03372923,0,0,0.03377871,-1.5157483e-6,5.430042)">
    <title
       id="title3">Layer 1</title>
    <g
       style="fill:#1a1a1a"
       id="layer1">
      <path
         id="path6199"
         transform="matrix(29.647875,0,0,29.604446,4.4938716e-5,-160.75339)"
         d="M 3.5 0 C 2.1192879 0 1 1.1192882 1 2.5 C 1 3.8807119 2.1192879 5 3.5 5 C 4.4253419 5 5.223985 4.4972377 5.65625 3.75 L 7 3.75 L 8 2.75 L 9 3.75 L 10 2.75 L 11 3.75 L 11.5 3.75 L 13 2.5 L 11.5 1.25 L 5.65625 1.25 C 5.223985 0.50276224 4.4253419 -8.8817842e-016 3.5 0 z M 2.5 2 C 2.776142 2 3 2.2238576 3 2.5 C 3 2.7761424 2.776142 3 2.5 3 C 2.223858 3 2 2.7761424 2 2.5 C 2 2.2238576 2.223858 2 2.5 2 z M 5.2324219 5.4296875 L 5.2324219 8.0253906 L 0 8.0253906 L 1.4648438 10.566406 L 12.535156 10.566406 L 14 8.0253906 L 8.7675781 8.0253906 L 8.7675781 5.4296875 L 5.2324219 5.4296875 z M 3 11.5 C 2.466102 11.5 1.507715 12.5 1 12.5 L 1 14 C 1.537184 14 2.525424 13 3 13 C 3.504237 13 4.466102 14 5 14 C 5.475502 14 6.492285 13 7 13 C 7.504237 13 8.521731 14 9 14 C 9.504237 14 10.525424 13 11 13 C 11.474576 13 12.495763 14 13 14 L 13 12.5 C 12.584746 12.5 11.533898 11.470339 11 11.5 C 10.52173 11.5 9.534722 12.5 9 12.5 C 8.555085 12.5 7.504237 11.5 7 11.5 C 6.495763 11.5 5.445903 12.5 5 12.5 C 4.524498 12.5 3.533898 11.5 3 11.5 z "
         style="fill:#1a1a1a;stroke-width:0.03375396" />
    </g>
  </g>
</svg>
