<?xml version="1.0" encoding="UTF-8" standalone="no"?>
<svg
   xmlns:dc="http://purl.org/dc/elements/1.1/"
   xmlns:cc="http://creativecommons.org/ns#"
   xmlns:rdf="http://www.w3.org/1999/02/22-rdf-syntax-ns#"
   xmlns:svg="http://www.w3.org/2000/svg"
   xmlns="http://www.w3.org/2000/svg"
   viewBox="0 0 14 14"
   height="14"
   width="14"
   id="svg109"
   version="1.1">
  <metadata
     id="metadata115">
    <rdf:RDF>
      <cc:Work
         rdf:about="">
        <dc:format>image/svg+xml</dc:format>
        <dc:type
           rdf:resource="http://purl.org/dc/dcmitype/StillImage" />
        <dc:title></dc:title>
      </cc:Work>
    </rdf:RDF>
  </metadata>
  <defs
     id="defs113" />
  <g
     id="text4497-3"
     style="font-style:normal;font-weight:normal;font-size:61.96160507px;line-height:1.25;font-family:sans-serif;letter-spacing:0px;word-spacing:0px;fill:#000000;fill-opacity:1;stroke:none;stroke-width:1.54904032"
     transform="scale(1.019247,0.98111647)"
     aria-label="€">
    <path
       id="path823"
       transform="scale(0.98111645,1.019247)"
       d="M 3 0 L 3 1.0292969 C 2.5793307 1.0585054 2.1790365 1.1157392 1.8183594 1.2304688 C 1.3344976 1.3843825 0.96481865 1.6115635 0.71289062 1.9101562 C 0.46096262 2.2056708 0.3359375 2.5235457 0.3359375 2.8652344 C 0.3359375 3.1761403 0.43863641 3.4585188 0.64257812 3.7109375 C 0.85051871 3.9602778 1.1641043 4.1685854 1.5839844 4.3378906 C 1.8637112 4.4522018 2.3594057 4.5750388 3 4.703125 L 3 7.1484375 C 2.768869 7.1153663 2.55059 7.0658663 2.3457031 6.9980469 C 1.9458174 6.8626027 1.6489765 6.6861825 1.4570312 6.4707031 C 1.269085 6.2521455 1.1496415 5.975329 1.0976562 5.6367188 L 0 5.7089844 C 0.01599543 6.161491 0.17655558 6.5695292 0.48046875 6.9296875 C 0.78838076 7.2867675 1.2102468 7.5538819 1.7460938 7.7324219 C 2.1019935 7.8501265 2.5328678 7.9149717 3 7.9550781 L 3 9 L 4 9 L 4 7.9804688 C 4.5238972 7.9592342 5.0119609 7.8870736 5.4414062 7.7363281 C 5.9452622 7.557788 6.3297328 7.3112031 6.5976562 6.9941406 C 6.8655797 6.6739999 7 6.3328145 7 5.9726562 C 7 5.6094197 6.8786959 5.2887636 6.6347656 5.0117188 C 6.3908352 4.7315956 6.0118538 4.5019307 5.5 4.3203125 C 5.2139993 4.2202397 4.679568 4.1030685 4 3.9765625 L 4 1.8378906 C 4.4092004 1.8831473 4.7646065 1.9626244 5.0078125 2.1171875 C 5.3557131 2.3357451 5.5611109 2.6600102 5.6210938 3.0878906 L 6.7363281 3.0214844 C 6.7163339 2.6243868 6.572611 2.2690623 6.3046875 1.9550781 C 6.036764 1.641094 5.6522008 1.404211 5.1523438 1.2441406 C 4.8099838 1.1314964 4.4167049 1.0719796 4 1.0371094 L 4 0 L 3 0 z M 10.597656 0 L 8 1.5 L 10.597656 3 L 10.597656 1.9980469 C 11.383924 2.0514049 11.994824 2.7041116 11.996094 3.4921875 C 11.995686 3.6653757 11.96529 3.8371851 11.90625 4 L 12.941406 4 C 12.976926 3.8330401 12.995244 3.6628815 12.996094 3.4921875 C 12.995104 2.1516977 11.93704 1.0505504 10.597656 0.99609375 L 10.597656 0 z M 3 1.828125 L 3 3.7714844 C 2.4149492 3.6469524 1.9688676 3.5254575 1.7988281 3.40625 C 1.5708932 3.2492579 1.4570313 3.0478713 1.4570312 2.8046875 C 1.4570312 2.5245644 1.6175914 2.2868533 1.9375 2.0898438 C 2.1764557 1.9422331 2.5542911 1.8668391 3 1.828125 z M 4 4.9140625 C 4.2946808 4.9748308 4.7181531 5.0535208 4.8457031 5.0917969 C 5.213598 5.1995366 5.4787176 5.3321171 5.6386719 5.4921875 C 5.7986262 5.6491796 5.8789063 5.834474 5.8789062 6.046875 C 5.8789063 6.2561978 5.794905 6.4503663 5.6269531 6.6289062 C 5.4629998 6.804368 5.2109966 6.9433388 4.8710938 7.0449219 C 4.6137933 7.1218185 4.3168777 7.1590471 4 7.1777344 L 4 4.9140625 z M 12.070312 5 C 11.272664 5 10.542827 5.1731994 9.8808594 5.5214844 C 8.8077316 6.0834897 8.2982708 6.7650052 7.8886719 8 L 7.171875 8 L 7 9 L 7.8085938 9 C 7.80883 9.3387519 7.7926624 9.6596751 7.8203125 10 L 7.171875 10 L 7 11 L 7.9433594 11 C 8.0379262 11.42744 8.0461631 11.49413 8.1777344 11.794922 C 8.8314789 13.283049 10.192337 14 12.050781 14 C 12.671633 14 13.239956 13.885802 13.753906 13.65625 L 13.753906 12.433594 C 13.322189 12.821457 12.721995 13.013672 11.953125 13.013672 C 11.40217 13.013672 10.888849 12.878556 10.416016 12.605469 C 9.7581589 12.225522 9.3445622 11.906332 9.171875 11 L 12.839844 11 L 13.013672 10 L 9.0410156 10 C 9.0382229 9.6668555 9.0283749 9.3332043 9.0410156 9 L 13.179688 9 L 13.345703 8 L 9.140625 8 C 9.181741 7.6754618 9.2404535 7.6003927 9.4707031 7.2402344 C 9.6968411 6.8919494 10.027052 6.6567706 10.306641 6.4667969 C 10.775363 6.1462164 11.354173 5.9863281 12.044922 5.9863281 C 12.68222 5.9863281 13.252291 6.1862013 13.753906 6.5859375 L 14 5.4804688 C 13.477827 5.1598881 12.83507 5 12.070312 5 z M 1.0585938 9.9980469 C 1.0230738 10.165006 1.0047563 10.335165 1.0039062 10.505859 C 1.0048963 11.846349 2.0629598 12.947496 3.4023438 13.001953 L 3.4023438 14 L 6 12.5 L 3.4023438 11 L 3.4023438 12 C 2.6160757 11.94664 2.0051762 11.293935 2.0039062 10.505859 C 2.0043144 10.332671 2.034711 10.160861 2.09375 9.9980469 L 1.0585938 9.9980469 z "
       style="font-style:normal;font-variant:normal;font-weight:normal;font-stretch:normal;font-size:12.39232254px;font-family:Arial;-inkscape-font-specification:Arial;fill:#000000;stroke-width:1.54904032" />
  </g>
  <g
     transform="matrix(0.30711225,0,0,0.23641161,-0.12796482,1.0253412)"
     id="text840"
     style="font-style:normal;font-weight:normal;font-size:40px;line-height:1.25;font-family:sans-serif;letter-spacing:0px;word-spacing:0px;fill:#000000;fill-opacity:1;stroke:none"
     aria-label="S" />
</svg>
