<?xml version="1.0" encoding="UTF-8" standalone="no"?>
<svg
   xmlns:dc="http://purl.org/dc/elements/1.1/"
   xmlns:cc="http://creativecommons.org/ns#"
   xmlns:rdf="http://www.w3.org/1999/02/22-rdf-syntax-ns#"
   xmlns:svg="http://www.w3.org/2000/svg"
   xmlns="http://www.w3.org/2000/svg"
   id="svg2"
   height="14"
   width="14"
   version="1.0">
  <metadata
     id="metadata1976">
    <rdf:RDF>
      <cc:Work
         rdf:about="">
        <dc:format>image/svg+xml</dc:format>
        <dc:type
           rdf:resource="http://purl.org/dc/dcmitype/StillImage" />
        <cc:license
           rdf:resource="http://web.resource.org/cc/PublicDomain" />
        <dc:language>en</dc:language>
        <dc:title></dc:title>
      </cc:Work>
    </rdf:RDF>
  </metadata>
  <defs
     id="defs4">
    <marker
       id="ArrowStart"
       markerHeight="3"
       markerUnits="strokeWidth"
       markerWidth="4"
       orient="auto"
       refX="10"
       refY="5"
       viewBox="0 0 10 10">
      <path
         d="M 10,0 0,5 10,10 Z"
         id="path2111" />
    </marker>
    <marker
       id="ArrowEnd"
       markerHeight="3"
       markerUnits="strokeWidth"
       markerWidth="4"
       orient="auto"
       refX="0"
       refY="5"
       viewBox="0 0 10 10">
      <path
         d="M 0,0 10,5 0,10 Z"
         id="path2108" />
    </marker>
  </defs>
  <g
     style="fill:#000000"
     transform="matrix(0.02891259,0,0,0.02891259,1.9346195,0.82263881)"
     id="g2117">
    <g
       style="fill:#000000"
       id="g2119">
      <g
         style="fill:#000000"
         id="g2121">
        <path
           d=""
           style="fill:#000000;stroke:none"
           id="path2125" />
      </g>
      <g
         style="fill:#000000"
         id="g2127">
        <path
           d=""
           style="fill:#000000;stroke:none"
           id="path2131" />
      </g>
    </g>
  </g>
  <path
     id="path1329-9"
     d="m 7.0000055,0.4619362 c -1.205409,0.00954 -2.839825,0.350732 -3.521484,0.6347656 -0.691424,0.288102 -1.150891,0.574682 -1.294922,1.294922 l -0.519531,3.994141 v 5.5019532 h 0.894531 v 0.861328 c 0,1.052024 1.537109,1.052024 1.537109,0 v -0.861328 h 2.84375 0.0078 2.955079 v 0.861328 c 0,1.052024 1.5390625,1.052024 1.5390625,0 v -0.861328 h 0.894532 V 6.3857648 l -0.51953,-3.994141 C 11.672344,1.6713838 11.21292,1.3848038 10.521489,1.0967018 9.8397675,0.8126426 8.2054405,0.4714262 7.0000055,0.4619362 Z m -2.195312,1.0078126 h 2.142578 2.248047 c 0.432157,6e-6 0.432157,0.648437 0,0.648437 h -2.251953 -2.138672 c -0.432157,0 -0.432157,-0.648437 0,-0.648437 z m -1.166016,1.302734 h 3.304688 3.4160155 c 0.456506,0 0.577387,0.23408 0.632812,0.585938 l 0.402343,2.896484 c 0.03761,0.277582 -0.04227,0.550781 -0.425781,0.550781 H 6.9472715 3.0312555 c -0.383494,0 -0.463418,-0.273199 -0.425781,-0.550781 l 0.402344,-2.896484 c 0.05542,-0.351858 0.174355,-0.585938 0.630859,-0.585938 z m -0.310547,5.914063 c 0.40781,0 0.738281,0.330461 0.738281,0.738281 1e-6,0.407828 -0.330471,0.7363282 -0.738281,0.7363282 -0.407815,0 -0.738281,-0.3285002 -0.738281,-0.7363282 0,-0.40782 0.330466,-0.738281 0.738281,-0.738281 z m 7.3437505,0 c 0.407808,0 0.738281,0.330461 0.738281,0.738281 0,0.407828 -0.330473,0.7363282 -0.738281,0.7363282 -0.407815,0 -0.7382815,-0.3285002 -0.7382815,-0.7363282 0,-0.40782 0.3304665,-0.738281 0.7382815,-0.738281 z"
     style="fill:#ffffff;fill-opacity:1;stroke:none;stroke-width:0.0826974" />
  <path
     style="fill-opacity:1;stroke:none;stroke-width:0.0826974;fill:#0092da"
     d="M 1.56778,0.00154089 C 0.56389832,0.00154089 -4.5000001e-8,0.51857442 -4.5000001e-8,1.577227 V 12.491114 C -4.5000001e-8,13.481371 0.50787098,14 1.5108055,14 H 12.489194 C 13.492397,14 14,13.507337 14,12.491114 V 1.577227 c 0,-1.03285603 -0.50766,-1.57568611 -1.54224,-1.57568611 -9.6e-5,0 -10.8934287,-0.003467 -10.88998,0 z m 5.4322203,0.45973884 c 1.2054343,0.00949 2.838906,0.35053756 3.5206287,0.63459687 0.691431,0.2881024 1.152591,0.5744944 1.296659,1.2947346 l 0.518666,3.9942268 v 5.50115 h -0.89391 v 0.862501 c 0,1.052024 -1.5402755,1.052024 -1.5402755,0 V 11.885988 H 6.946955 6.939099 4.0962698 v 0.862501 c 0,1.052024 -1.5383104,1.052024 -1.5383104,0 V 11.885988 H 1.6640472 V 6.384838 L 2.1827112,2.3906112 C 2.3267419,1.670371 2.7879478,1.383979 3.4793714,1.0958766 4.1610309,0.8118429 5.7945915,0.4708229 7.0000003,0.46127973 Z M 4.8055012,1.4691687 c -0.4321566,0 -0.4321566,0.6483497 0,0.6483497 h 2.1375246 2.2514736 c 0.4321569,0 0.4321569,-0.6483432 0,-0.6483497 H 6.946955 Z M 3.6385069,2.7717622 c -0.4565046,0 -0.5752285,0.2336217 -0.6306483,0.5854793 L 2.6051081,6.2532033 c -0.037637,0.2775814 0.042832,0.5520795 0.4263262,0.5520795 h 3.9155207 4.02161 c 0.38351,0 0.463938,-0.2744981 0.426327,-0.5520795 L 10.992142,3.3572415 C 10.936717,3.0053838 10.816035,2.7717622 10.359529,2.7717622 H 6.9430258 Z M 3.3280944,8.6854968 c -0.4078155,0 -0.7387034,0.3309054 -0.7387034,0.7387257 0,0.4078275 0.3308879,0.7367615 0.7387034,0.7367615 0.4078097,0 0.7387034,-0.3289339 0.7387034,-0.7367615 0,-0.4078203 -0.3308937,-0.7387257 -0.7387034,-0.7387257 z m 7.3438116,0 c -0.407815,0 -0.7387033,0.3309054 -0.7387033,0.7387257 0,0.4078275 0.3308883,0.7367615 0.7387033,0.7367615 0.407808,0 0.738704,-0.3289339 0.738704,-0.7367615 0,-0.4078203 -0.330896,-0.7387257 -0.738704,-0.7387257 z"
     id="path1329-9-7" />
</svg>
