<?xml version="1.0" encoding="UTF-8" standalone="no"?>
<svg
   xmlns:dc="http://purl.org/dc/elements/1.1/"
   xmlns:cc="http://creativecommons.org/ns#"
   xmlns:rdf="http://www.w3.org/1999/02/22-rdf-syntax-ns#"
   xmlns:svg="http://www.w3.org/2000/svg"
   xmlns="http://www.w3.org/2000/svg"
   version="1.0"
   width="14"
   height="14"
   id="svg2">
  <metadata
     id="metadata10">
    <rdf:RDF>
      <cc:Work
         rdf:about="">
        <dc:format>image/svg+xml</dc:format>
        <dc:type
           rdf:resource="http://purl.org/dc/dcmitype/StillImage" />
        <cc:license
           rdf:resource="http://web.resource.org/cc/PublicDomain" />
        <dc:language>en</dc:language>
        <dc:title></dc:title>
      </cc:Work>
    </rdf:RDF>
  </metadata>
  <defs
     id="defs4">
    <clipPath
       id="clipoutline2"
       clipPathUnits="userSpaceOnUse">
      <path
         d="m 55.8,12 0.76,0.16 c 8.84,-2.94 28.68,8.64 24.26,18.96 -1.12,1.62 -0.93,4.5 0.42,6.31 L 56.43,62.25 c -1.39,-1.39 -4.48,-1.36 -5.9,0 L 9.5,101.63 c -3.74,3.59 -0.8,6.64 0.78,8.25 l 7.36,7.36 c 1.61,1.6 5.86,3.76 8.88,0.56 L 65.24,76.99 c 1.35,-1.42 1.36,-4.47 0,-5.87 0,0 0.01,-0.02 0,-0.02 L 90.15,46.2 c 2.63,2.37 5.113827,2.574854 7.47,1.93 4.55057,-1.245432 7.08725,3.206643 9.81,6.46 l -1.23,1.21 c -1.82,1.84 -1.65,4.94 0.39,6.98 2.04,2.04 5.15,2.21 6.97,0.39 l 8.14,-8.13 c 1.82,-1.84 1.65,-4.94 -0.4,-6.97 -1.84,-1.85 -4.51,-2.09 -6.37,-0.77 -5.58,-6.26 -2.65,-7.2 -10.01,-15.35 L 91.13,17.86 C 81.2,8.12 68.3,8.13 55.8,12 Z"
         id="outline2" />
    </clipPath>
    <clipPath
       id="clipoutline1"
       clipPathUnits="userSpaceOnUse">
      <path
         d="m 22.42,17.2 12.96,12.95 -2.5,8.78 -8.78,2.5 -12.96,-12.96 -5.86,5.86 14.89,21.46 17.56,-3.34 61.63,65.62 c 9.44,9.51 22.17,-4.75 13.34,-12.87 L 46.85,42.92 50.86,25.16 28.72,10.89 Z m 81.06,91.97 c 1.68,-1.68 4.4,-1.68 6.08,0 1.68,1.68 1.68,4.4 0,6.08 -1.68,1.67 -4.4,1.67 -6.08,0 -1.68,-1.68 -1.68,-4.4 0,-6.08 z"
         id="outline1" />
    </clipPath>
    <style
       type="text/css"
       id="style6">
   
    .fil0 {fill:#EF7900}
   
  </style>
    <marker
       viewBox="0 0 10 10"
       refY="5"
       refX="10"
       orient="auto"
       markerWidth="4"
       markerUnits="strokeWidth"
       markerHeight="3"
       id="ArrowStart">
      <path
         id="path2295"
         d="M 10,0 0,5 10,10 Z" />
    </marker>
    <marker
       viewBox="0 0 10 10"
       refY="5"
       refX="0"
       orient="auto"
       markerWidth="4"
       markerUnits="strokeWidth"
       markerHeight="3"
       id="ArrowEnd">
      <path
         id="path2292"
         d="M 0,0 10,5 0,10 Z" />
    </marker>
  </defs>
  <g
     id="g2319"
     transform="matrix(0.02414417,0,0,0.02410209,21.229723,0.88710494)">
    <path
       id="path2323"
       style="fill:#ffffff;stroke:none"
       d="" />
  </g>
  <g
     id="g2325"
     transform="matrix(0.02414417,0,0,0.02410209,21.229723,0.88710494)">
    <path
       id="path2329"
       style="fill:#ffffff;stroke:none"
       d="" />
  </g>
  <g
     transform="matrix(0.02414417,0,0,0.02410209,4.018174,1.6381066)"
     id="g13" />
  <g
     transform="matrix(0.77533697,0,0,0.77398567,1.0019515,-801.29722)"
     id="layer1"
     style="display:inline">
    <path
       d="m 6.791632,1048.0368 c 0,0 -1.336274,-1.567 -2.72571,-3.8465 -1.102407,-1.8085 -2.121982,-4.1906 -2.215354,-4.4437 0.752577,-0.5472 4.593113,-2.2768 5.371772,-2.4463 0.226417,0.8747 0.58088,2.5876 1.329796,4.2517 0.773744,1.7193 1.705148,3.0597 2.051811,3.5127 -0.829557,0.7825 -3.812315,2.9721 -3.812315,2.9721 z m 2.617005,-0.9585 c 0.09655,0.8013 2.796805,4.527 3.709753,5.2027 0.352387,0.2608 0.598765,0.048 1.19729,-0.3748 0.598504,-0.4231 0.823826,-0.7834 0.605721,-1.2928 -0.447665,-1.0456 -2.405882,-4.7995 -3.325268,-5.4011 -0.884575,-1.2876 -1.625777,-2.2611 -2.354695,-4.0463 -0.754178,-1.847 -1.235513,-3.7233 -1.524107,-4.8256 -1.026691,0.2979 -2.726886,1.0185 -3.772883,1.5009 -1.165407,0.5374 -1.99909,1.0621 -2.92518,1.5588 0.292933,0.8518 0.993339,2.9498 2.456052,5.2163 1.155768,1.7909 2.12744,3.2168 3.223152,4.3016 z m -4.060504,-7.4527 c 0,-0.4143 0.354703,-0.7504 0.792252,-0.7504 0.437549,0 0.792253,0.3361 0.792253,0.7504 0,0.4146 -0.354704,0.7507 -0.792253,0.7507 -0.437549,0 -0.792252,-0.3361 -0.792252,-0.7507 z"
       id="path3670"
       style="fill:#ffffff;fill-opacity:1;fill-rule:evenodd;stroke:none;stroke-width:0.31140229;stroke-miterlimit:4;stroke-dasharray:none;stroke-opacity:1" />
    <path
       style="fill:#ffffff;fill-opacity:1;fill-rule:evenodd;stroke:none;stroke-width:0.31140229;stroke-miterlimit:4;stroke-dasharray:none;stroke-opacity:1"
       id="path4008"
       d="m 6.791632,1048.0368 c 0,0 -1.336274,-1.567 -2.72571,-3.8465 -1.102407,-1.8085 -2.121982,-4.1906 -2.215354,-4.4437 0.752577,-0.5472 4.593113,-2.2768 5.371772,-2.4463 0.226417,0.8747 0.58088,2.5876 1.329796,4.2517 0.773744,1.7193 1.705148,3.0597 2.051811,3.5127 -0.829557,0.7825 -3.812315,2.9721 -3.812315,2.9721 z m 2.617005,-0.9585 c 0.09655,0.8013 2.796805,4.527 3.709753,5.2027 0.352387,0.2608 0.598765,0.048 1.19729,-0.3748 0.598504,-0.4231 0.823826,-0.7834 0.605721,-1.2928 -0.447665,-1.0456 -2.405882,-4.7995 -3.325268,-5.4011 -0.884575,-1.2876 -1.625777,-2.2611 -2.354695,-4.0463 -0.754178,-1.847 -1.235513,-3.7233 -1.524107,-4.8256 -1.026691,0.2979 -2.726886,1.0185 -3.772883,1.5009 -1.165407,0.5374 -1.99909,1.0621 -2.92518,1.5588 0.292933,0.8518 0.993339,2.9498 2.456052,5.2163 1.155768,1.7909 2.12744,3.2168 3.223152,4.3016 z m -4.060504,-7.4527 c 0,-0.4143 0.354703,-0.7504 0.792252,-0.7504 0.437549,0 0.792253,0.3361 0.792253,0.7504 0,0.4146 -0.354704,0.7507 -0.792253,0.7507 -0.437549,0 -0.792252,-0.3361 -0.792252,-0.7507 z" />
  </g>
  <path
     d="m 6.2677549,9.8682448 c 0,0 -1.0360627,-1.2128355 -2.1133438,-2.9771358 C 3.2996742,5.4913559 2.50916,3.6476446 2.4367653,3.4517488 3.0202661,3.0282239 5.9979756,1.6895383 6.6016987,1.5583477 6.7772482,2.235353 7.0520765,3.561113 7.6327387,4.8491026 8.232651,6.1798161 8.954803,7.2172665 9.2235836,7.567882 8.5803974,8.1735258 6.2677549,9.8682448 6.2677549,9.8682448 Z M 8.2968156,9.1263796 c 0.074859,0.6201947 2.1684664,3.5038334 2.8763084,4.0268154 0.273219,0.201855 0.464245,0.03715 0.928303,-0.29009 0.464043,-0.327473 0.638743,-0.60634 0.469638,-1.000609 C 12.223974,11.053217 10.705696,8.1477521 9.9928621,7.6821223 9.3070184,6.6855384 8.7323371,5.9320633 8.16718,4.5503441 7.582438,3.1207926 7.2092411,1.6685632 6.9854835,0.81539884 6.189452,1.0459692 4.871228,1.6037032 4.0602279,1.9770739 3.1566447,2.3930138 2.5102595,2.7991241 1.7922277,3.1835628 2.0193494,3.8428438 2.5624001,5.4666657 3.6964956,7.2209042 4.5926052,8.6070352 5.3459785,9.7106614 6.1955245,10.550281 Z M 5.1485567,3.3580966 c 0,-0.3206623 0.2750144,-0.5807989 0.6142623,-0.5807989 0.3392479,0 0.614263,0.2601366 0.614263,0.5807989 0,0.3208944 -0.2750151,0.581031 -0.614263,0.581031 -0.3392479,0 -0.6142623,-0.2601366 -0.6142623,-0.581031 z"
     id="path4036"
     style="fill-opacity:1;fill-rule:evenodd;stroke:none;stroke-width:0.24123122;stroke-miterlimit:4;stroke-dasharray:none;stroke-opacity:1" />
</svg>
