<?xml version="1.0" encoding="UTF-8" standalone="no"?>
<svg
   xmlns:dc="http://purl.org/dc/elements/1.1/"
   xmlns:cc="http://creativecommons.org/ns#"
   xmlns:rdf="http://www.w3.org/1999/02/22-rdf-syntax-ns#"
   xmlns:svg="http://www.w3.org/2000/svg"
   xmlns="http://www.w3.org/2000/svg"
   width="14"
   height="14"
   id="svg3800"
   version="1.1"
   viewBox="0 0 14 14">
  <defs
     id="defs3802" />
  <metadata
     id="metadata3805">
    <rdf:RDF>
      <cc:Work
         rdf:about="">
        <dc:format>image/svg+xml</dc:format>
        <dc:type
           rdf:resource="http://purl.org/dc/dcmitype/StillImage" />
        <dc:title></dc:title>
      </cc:Work>
    </rdf:RDF>
  </metadata>
  <g
     transform="translate(1.5520395,2.8104498)"
     id="g97">
    <g
       id="g105">
      <path
         id="repair-car"
         transform="translate(-1.5520395,-2.8104498)"
         d="M 2.7441406 0 C 2.0338764 0.0003935 1.3740289 0.4117078 1 1 L 3.3691406 1 L 3.9921875 2 L 3.3691406 3 L 1.0019531 3 C 1.3756288 3.5877381 2.0345466 3.9989723 2.7441406 4 C 3.5023764 3.9999999 4.1562562 3.595766 4.5117188 3 L 9.1777344 3 C 9.533156 3.5959232 10.188909 4.0000003 10.947266 4 C 12.080957 4.0000002 13 3.1045696 13 2 C 13 0.8954304 12.080957 -2e-007 10.947266 0 C 10.188909 -2.6757065e-007 9.533156 0.40407682 9.1777344 1 L 4.5117188 1 C 4.1562561 0.40423403 3.5023764 6.6882008e-008 2.7441406 0 z M 10.322266 1 L 11.572266 1 L 12.195312 2 L 11.572266 3 L 10.322266 3 L 9.6992188 2 L 10.322266 1 z M 4 6 L 3 9 C 2.527344 9 2 9.384295 2 10 L 2 13 L 3 13 C 3 13 3.0000219 14 4 14 C 4.9999789 14 5 13 5 13 L 9 13 C 9 13 9.0000214 14 10 14 C 10.999979 14 11 13 11 13 L 12 13 L 12 10 C 12 9.479394 11.544563 9 11 9 L 10 6 L 4 6 z M 5 7 L 9 7 L 9.625 9 L 4.375 9 L 5 7 z M 4 10.25 C 4.414205 10.25 4.75 10.585786 4.75 11 C 4.75 11.414214 4.414205 11.75 4 11.75 C 3.585795 11.75 3.25 11.414214 3.25 11 C 3.25 10.585786 3.585795 10.25 4 10.25 z M 10 10.25 C 10.414205 10.25 10.75 10.585786 10.75 11 C 10.75 11.414214 10.414205 11.75 10 11.75 C 9.5857948 11.75 9.25 11.414214 9.25 11 C 9.25 10.585786 9.5857948 10.25 10 10.25 z " />
    </g>
  </g>
</svg>
