<?xml version="1.0" encoding="UTF-8" standalone="no"?>
<svg
   xmlns:dc="http://purl.org/dc/elements/1.1/"
   xmlns:cc="http://creativecommons.org/ns#"
   xmlns:rdf="http://www.w3.org/1999/02/22-rdf-syntax-ns#"
   xmlns:svg="http://www.w3.org/2000/svg"
   xmlns="http://www.w3.org/2000/svg"
   id="svg2"
   viewBox="0 0 14 14"
   height="14"
   width="14"
   version="1.1">
  <metadata
     id="metadata8">
    <rdf:RDF>
      <cc:Work
         rdf:about="">
        <dc:format>image/svg+xml</dc:format>
        <dc:type
           rdf:resource="http://purl.org/dc/dcmitype/StillImage" />
        <dc:title></dc:title>
      </cc:Work>
    </rdf:RDF>
  </metadata>
  <defs
     id="defs6" />
  <rect
     width="14"
     height="14"
     x="0"
     y="0"
     id="canvas"
     style="fill:none;stroke:none;visibility:hidden" />
  <path
     d="M 5,2 3,5 2,5 4,2 Z m 4,0 2,3 1,0 -2,-3 z m -2.5,0 1,0 0,3 -1,0 z M 6,0 4,1 10,1 8,0 Z M 4,6 3,9 C 2.527334,9 2,9.3842954 2,10 l 0,3 1,0 c 0,0 0,1 1,1 1,0 1,-1 1,-1 l 4,0 c 0,0 0,1 1,1 1,0 1,-1 1,-1 l 1,0 0,-3 C 12,9.4793944 11.544575,9 11,9 L 10,6 4,6 Z M 5,7 9,7 9.625,9 4.375,9 5,7 Z m -1,3.25 c 0.414214,0 0.75,0.335786 0.75,0.75 0,0.414214 -0.335786,0.75 -0.75,0.75 -0.414214,0 -0.75,-0.335786 -0.75,-0.75 0,-0.414214 0.335786,-0.75 0.75,-0.75 z m 6,0 c 0.414214,0 0.75,0.335786 0.75,0.75 0,0.414214 -0.335786,0.75 -0.75,0.75 -0.414214,0 -0.75,-0.335786 -0.75,-0.75 0,-0.414214 0.335786,-0.75 0.75,-0.75 z"
     style="fill:#000000;fill-opacity:1;fill-rule:evenodd;stroke:none;stroke-opacity:1"
     id="path4290-2" />
</svg>
