<?xml version="1.0" encoding="UTF-8" standalone="no"?>
<svg
   xmlns:dc="http://purl.org/dc/elements/1.1/"
   xmlns:cc="http://creativecommons.org/ns#"
   xmlns:rdf="http://www.w3.org/1999/02/22-rdf-syntax-ns#"
   xmlns:svg="http://www.w3.org/2000/svg"
   xmlns="http://www.w3.org/2000/svg"
   id="svg2"
   viewBox="0 0 14 14"
   height="14"
   width="14"
   version="1.1">
  <defs
     id="defs3053" />
  <metadata
     id="metadata8">
    <rdf:RDF>
      <cc:Work
         rdf:about="">
        <dc:format>image/svg+xml</dc:format>
        <dc:type
           rdf:resource="http://purl.org/dc/dcmitype/StillImage" />
        <dc:title></dc:title>
      </cc:Work>
    </rdf:RDF>
  </metadata>
  <rect
     style="fill:none;stroke:none;visibility:hidden"
     id="canvas"
     y="0"
     x="0"
     height="14"
     width="14" />
  <path
     id="variety_store"
     d="M 5 0 C 4 0 4 0 4 1 L 4.0097656 4 L 1 4 L 1 13 C 1 14 1 14 2 14 L 12 14 C 13 14 13 14 13 13 L 13 4 L 10.039062 4 L 10 1 C 10 0 10 0 9 0 L 5 0 z M 5 1 L 9 1 L 9 4 L 5 4 L 5 1 z M 5.1777344 5.4980469 C 5.6948144 5.4951869 5.8032568 5.5555569 6.1074219 5.7226562 C 6.4776429 5.9260446 6.8587292 6.6814598 6.9375 6.9902344 L 6.9863281 7.1816406 L 7.1054688 6.9179688 C 7.8374226 5.3155896 9.9453218 4.8690109 10.701172 6.6347656 C 10.910591 7.1239934 10.967755 8.1253493 10.755859 8.6972656 C 10.479448 9.4433093 9.9599004 10.013184 8.7597656 10.884766 C 7.9726964 11.456366 7.0815411 12.319938 7.0195312 12.441406 C 6.9475482 12.582409 7.0151826 12.463679 6.6972656 12.107422 C 6.5296439 11.919585 6.1115092 11.554652 5.7675781 11.294922 C 4.7485372 10.525363 4.6110174 10.414187 4.1972656 10.033203 C 3.4344883 9.3308342 3.110218 8.624774 3.1113281 7.6679688 C 3.1118698 7.2008944 3.1426367 7.02141 3.2734375 6.7460938 C 3.4953509 6.2789969 3.8223062 5.9310322 4.2402344 5.71875 C 4.5362383 5.5683985 4.6834278 5.5007797 5.1777344 5.4980469 z " />
</svg>
