<?xml version="1.0" encoding="UTF-8" standalone="no"?>
<svg
   xmlns:dc="http://purl.org/dc/elements/1.1/"
   xmlns:cc="http://creativecommons.org/ns#"
   xmlns:rdf="http://www.w3.org/1999/02/22-rdf-syntax-ns#"
   xmlns:svg="http://www.w3.org/2000/svg"
   xmlns="http://www.w3.org/2000/svg"
   id="svg2"
   viewBox="0 0 14 14"
   height="14"
   width="14"
   version="1.1">
  <metadata
     id="metadata10">
    <rdf:RDF>
      <cc:Work
         rdf:about="">
        <dc:format>image/svg+xml</dc:format>
        <dc:type
           rdf:resource="http://purl.org/dc/dcmitype/StillImage" />
        <dc:title></dc:title>
      </cc:Work>
    </rdf:RDF>
  </metadata>
  <defs
     id="defs8" />
  <rect
     width="14"
     height="14"
     x="0"
     y="0"
     id="canvas"
     style="fill:none;stroke:none;visibility:hidden" />
  <path
     id="path4"
     d="M 1,1 C 0.446,1 0,1.446 0,2 l 0,11 c 0,0.554 0.446,1 1,1 l 12,0 c 0.554,0 1,-0.446 1,-1 L 14,2 C 14,1.446 13.554,1 13,1 L 1,1 Z m 0.25,1 0.5,0 C 1.8885,2 2,2.1115 2,2.25 l 0,0.5 C 2,2.8885 1.8885,3 1.75,3 L 1.25,3 C 1.1115,3 1,2.8885 1,2.75 L 1,2.25 C 1,2.1115 1.1115,2 1.25,2 Z M 4,2 10,2 10,7 4,7 4,2 Z m 8.25,0 0.5,0 C 12.8885,2 13,2.1115 13,2.25 l 0,0.5 C 13,2.8885 12.8885,3 12.75,3 l -0.5,0 C 12.1115,3 12,2.8885 12,2.75 l 0,-0.5 C 12,2.1115 12.1115,2 12.25,2 Z m -11,2 0.5,0 C 1.8885,4 2,4.1115 2,4.25 l 0,0.5 C 2,4.8885 1.8885,5 1.75,5 L 1.25,5 C 1.1115,5 1,4.8885 1,4.75 L 1,4.25 C 1,4.1115 1.1115,4 1.25,4 Z m 11,0 0.5,0 C 12.8885,4 13,4.1115 13,4.25 l 0,0.5 C 13,4.8885 12.8885,5 12.75,5 l -0.5,0 C 12.1115,5 12,4.8885 12,4.75 l 0,-0.5 C 12,4.1115 12.1115,4 12.25,4 Z m -11,2 0.5,0 C 1.8885,6 2,6.1115 2,6.25 l 0,0.5 C 2,6.8885 1.8885,7 1.75,7 L 1.25,7 C 1.1115,7 1,6.8885 1,6.75 L 1,6.25 C 1,6.1115 1.1115,6 1.25,6 Z m 11,0 0.5,0 C 12.8885,6 13,6.1115 13,6.25 l 0,0.5 C 13,6.8885 12.8885,7 12.75,7 l -0.5,0 C 12.1115,7 12,6.8885 12,6.75 l 0,-0.5 C 12,6.1115 12.1115,6 12.25,6 Z m -11,2 0.5,0 C 1.8885,8 2,8.1115 2,8.25 l 0,0.5 C 2,8.8885 1.8885,9 1.75,9 L 1.25,9 C 1.1115,9 1,8.8885 1,8.75 L 1,8.25 C 1,8.1115 1.1115,8 1.25,8 Z M 4,8 l 6,0 0,5 -6,0 0,-5 z m 8.25,0 0.5,0 C 12.8885,8 13,8.1115 13,8.25 l 0,0.5 C 13,8.8885 12.8885,9 12.75,9 l -0.5,0 C 12.1115,9 12,8.8885 12,8.75 l 0,-0.5 C 12,8.1115 12.1115,8 12.25,8 Z m -11,2 0.5,0 C 1.8885,10 2,10.1115 2,10.25 l 0,0.5 C 2,10.8885 1.8885,11 1.75,11 l -0.5,0 C 1.1115,11 1,10.8885 1,10.75 l 0,-0.5 C 1,10.1115 1.1115,10 1.25,10 Z m 11,0 0.5,0 c 0.1385,0 0.25,0.1115 0.25,0.25 l 0,0.5 C 13,10.8885 12.8885,11 12.75,11 l -0.5,0 C 12.1115,11 12,10.8885 12,10.75 l 0,-0.5 C 12,10.1115 12.1115,10 12.25,10 Z m -11,2 0.5,0 C 1.8885,12 2,12.1115 2,12.25 l 0,0.5 C 2,12.8885 1.8885,13 1.75,13 l -0.5,0 C 1.1115,13 1,12.8885 1,12.75 l 0,-0.5 C 1,12.1115 1.1115,12 1.25,12 Z m 11,0 0.5,0 c 0.1385,0 0.25,0.1115 0.25,0.25 l 0,0.5 C 13,12.8885 12.8885,13 12.75,13 l -0.5,0 C 12.1115,13 12,12.8885 12,12.75 l 0,-0.5 C 12,12.1115 12.1115,12 12.25,12 Z" />
</svg>
