<?xml version="1.0" encoding="UTF-8" standalone="no"?>
<svg
   xmlns="http://www.w3.org/2000/svg"
   version="1.1"
   width="14"
   height="14">
  <path
     d="m 12.384493,0.563045 c 0,0 -0.755812,-0.70671723 -2.001266,-0.5366193 C 9.1377731,0.19652406 5.67408,1.8563585 4.064323,3.2842072 2.4545656,4.7120561 0.24023006,7.0019767 0.09832664,8.5231653 -0.04357662,10.044353 -0.27583032,10.704286 1.4065218,12.384527 c 1.682352,1.68024 5.6574649,0.07602 5.6574649,0.07602 0,0 3.4984663,-1.595396 5.2184953,-4.5534894 1.720029,-2.9580935 1.659359,-4.2103848 1.659359,-4.2103848 0,0 0.238751,-1.0939281 -0.251224,-2.0514304 -0.489975,-0.95750278 -1.190211,-0.86740234 -1.190211,-0.86740234 0,0 -0.856345,0.56083534 -1.51043,1.28160934 C 10.335891,2.7802191 10.347482,2.8016983 10.021522,3.089753 9.6955626,3.377807 9.1935682,3.4883404 8.8190778,3.8351436 8.4445872,4.1819464 7.5293897,6.4431776 5.8447773,7.831436 4.1601647,9.219694 3.2974366,9.5538448 2.8775571,10.014777 2.4576774,10.475711 2.3710167,10.959398 2.0546963,10.868839 1.7383761,10.77828 1.8685889,9.1196905 2.4719773,8.6023301 3.0753657,8.0849698 3.2366672,8.1856306 4.1068688,7.6175314 4.9770706,7.0494326 5.9789286,4.3045137 8.4250892,2.4441751 10.87125,0.58383589 12.384493,0.563045 12.384493,0.563045 Z" />
</svg>
