<?xml version="1.0" encoding="UTF-8" standalone="no"?>
<svg
   xmlns:dc="http://purl.org/dc/elements/1.1/"
   xmlns:cc="http://creativecommons.org/ns#"
   xmlns:rdf="http://www.w3.org/1999/02/22-rdf-syntax-ns#"
   xmlns:svg="http://www.w3.org/2000/svg"
   xmlns="http://www.w3.org/2000/svg"
   version="1.1"
   id="svg2"
   viewBox="0 0 14 14"
   height="14"
   width="14">
  <metadata
     id="metadata24">
    <rdf:RDF>
      <cc:Work
         rdf:about="">
        <dc:format>image/svg+xml</dc:format>
        <dc:type
           rdf:resource="http://purl.org/dc/dcmitype/StillImage" />
        <dc:title></dc:title>
      </cc:Work>
    </rdf:RDF>
  </metadata>
  <defs
     id="defs22" />
  <rect
     width="14"
     height="14"
     x="0"
     y="0"
     id="canvas"
     style="fill:none;stroke:none;visibility:hidden" />
  <g
     transform="translate(0,1)"
     id="hbars">
    <rect
       id="rect5"
       height="0.5"
       width="11"
       y="6"
       x="1" />
    <rect
       id="rect7"
       height="0.5"
       width="9.5"
       y="8"
       x="2" />
  </g>
  <g
     transform="translate(0,1)"
     id="vbars">
    <rect
       id="rect10"
       height="5.5"
       width="0.5"
       y="4.5"
       x="3" />
    <rect
       id="rect12"
       height="5.5"
       width="0.5"
       y="4.5"
       x="5" />
    <rect
       id="rect14"
       height="5.5"
       width="0.5"
       y="4.5"
       x="7.5" />
    <rect
       id="rect16"
       height="5.5"
       width="0.5"
       y="4.5"
       x="9.5" />
  </g>
  <path
     d="m 5.9,5 2,-3 A 0.50618672,0.50618672 0 0 1 8.83,2.4 L 7.1,5 Z"
     id="handle" />
  <path
     style="fill-rule:evenodd"
     d="m 0,5 13,0 -2,7 -9,0 z m 1.25,1 10.5,0 -1.5,5 -7.5,0 z"
     id="body" />
</svg>
