<?xml version="1.0" encoding="UTF-8" standalone="no"?>
<!-- Created with Inkscape (http://www.inkscape.org/) -->

<svg
   xmlns:dc="http://purl.org/dc/elements/1.1/"
   xmlns:cc="http://creativecommons.org/ns#"
   xmlns:rdf="http://www.w3.org/1999/02/22-rdf-syntax-ns#"
   xmlns:svg="http://www.w3.org/2000/svg"
   xmlns="http://www.w3.org/2000/svg"
   version="1.1"
   width="14"
   height="14"
   viewBox="0 0 14 14"
   id="svg2">
  <metadata
     id="metadata8">
    <rdf:RDF>
      <cc:Work
         rdf:about="">
        <dc:format>image/svg+xml</dc:format>
        <dc:type
           rdf:resource="http://purl.org/dc/dcmitype/StillImage" />
        <dc:title></dc:title>
      </cc:Work>
    </rdf:RDF>
  </metadata>
  <defs
     id="defs6" />
  <rect
     width="14"
     height="14"
     x="0"
     y="0"
     id="canvas"
     style="fill:none;stroke:none;visibility:hidden" />
  <path
     d="M 9,0 C 8.248808,0.4909181 7.75,1.3481516 7.75,2.3125 c 0,1.0641992 0.615654,1.9803063 1.5,2.4375 l 0,7.75 c 0,0.877754 0.521186,1.5 1.25,1.5 0.728813,0 1.25,-0.603432 1.25,-1.5 l 0,-7.75 C 12.634346,4.2928063 13.25,3.3766992 13.25,2.3125 13.25,1.3481516 12.751192,0.4909181 12,0 L 12,1.5 10.5,3 9,1.5 C 9,1.5 9,-0.0023227 9,0 z M 4,0 C 3.447507,0 3,0.3804513 3,0.75 l -1.5,0 -1.25,1.75 1.25,1.75 1.5,0 0,8.5 C 3,13.434896 3.376848,14 4,14 4.623152,14 5,13.471763 5,12.75 l 0,-8.5 2,0 0,-3.5 -2,0 C 5,0.3724769 4.623152,0 4,0 z m 6.5,12 C 10.776142,12 11,12.223858 11,12.5 11,12.776142 10.776142,13 10.5,13 10.223857,13 10,12.776142 10,12.5 10,12.223858 10.223857,12 10.5,12 z"
     id="doityourself" />
</svg>
