<?xml version="1.0" encoding="UTF-8" standalone="no"?>
<svg
   xmlns:dc="http://purl.org/dc/elements/1.1/"
   xmlns:cc="http://creativecommons.org/ns#"
   xmlns:rdf="http://www.w3.org/1999/02/22-rdf-syntax-ns#"
   xmlns:svg="http://www.w3.org/2000/svg"
   xmlns="http://www.w3.org/2000/svg"
   id="svg2"
   viewBox="0 0 14 14"
   height="14"
   width="14"
   version="1.1">
  <defs
     id="defs3053" />
  <metadata
     id="metadata8">
    <rdf:RDF>
      <cc:Work
         rdf:about="">
        <dc:format>image/svg+xml</dc:format>
        <dc:type
           rdf:resource="http://purl.org/dc/dcmitype/StillImage" />
        <dc:title></dc:title>
      </cc:Work>
    </rdf:RDF>
  </metadata>
  <path
     id="rect816-9-0-2-9"
     d="M 2,0 V 1 H 3 V 0 Z M 5,0 C 5,1.3333333 5,2.6666667 5,4 H 6 C 6,2.6666667 6,1.3333333 6,0 Z M 8,0 V 1 H 9 V 0 Z m 3,0 c 0,1.3333333 0,2.6666667 0,4 h 1 C 12,2.6666667 12,1.3333333 12,0 Z M 0,2 V 3 C 1.3333333,3 2.6666667,3 4,3 V 2 C 2.6666667,2 1.3333333,2 0,2 Z m 7,0 v 1 c 1,0 2,0 3,0 V 2 C 9,2 8,2 7,2 Z m 6,0 v 1 h 1 V 2 Z M 2,4 C 2,5.3333333 2,6.6666667 2,8 H 3 C 3,6.6666667 3,5.3333333 3,4 Z M 8,4 C 8,5.3333333 8,6.6666667 8,8 H 9 C 9,6.6666667 9,5.3333333 9,4 Z M 0,5 V 6 H 1 V 5 Z M 4,5 V 6 C 5,6 6,6 7,6 V 5 C 6,5 5,5 4,5 Z m 6,0 v 1 c 1.333333,0 2.666667,0 4,0 V 5 C 12.666667,5 11.333333,5 10,5 Z M 5,7 V 8 H 6 V 7 Z m 6,0 v 1 h 1 V 7 Z M 1.5,9 C 0.669,9 0,9.669 0,10.5 v 2 c 0,0.831 0.669,1.5 1.5,1.5 4,0 8,0 12,0 0.277,0 0.5,-0.223 0.5,-0.5 0,-0.277 -0.223,-0.5 -0.5,-0.5 -4,0 -8,0 -12,0 C 1.223,13 1,12.777 1,12.5 v -2 C 1,10.223 1.223,10 1.5,10 h 9 c 0.277,0 0.5,0.223 0.5,0.5 0,0.277 -0.223,0.5 -0.5,0.5 H 2 v 1 c 2.8333333,0 5.6666667,0 8.5,0 C 11.331,12 12,11.331 12,10.5 12,9.669 11.331,9 10.5,9 Z"
     style="fill:#000000;fill-opacity:1;stroke:none;stroke-width:0.7876066" />
</svg>
