<?xml version="1.0" encoding="UTF-8" standalone="no"?>
<!-- Created with Inkscape (http://www.inkscape.org/) -->

<svg
   xmlns="http://www.w3.org/2000/svg"
   version="1.1"
   width="14"
   height="14"
   viewBox="0 0 14 14">
  <rect
     width="14"
     height="14"
     x="0"
     y="0"
     id="canvas"
     style="fill:none;stroke:none;visibility:hidden" />
  <path
     d="m 10.78125,0 -0.625,0.71875 1.1875,1.09375 c 0.03621,0.036212 0.0856,0.084693 0.125,0.125 l -0.25,0.28125 C 10.818532,2.6189681 11.105689,3.1369332 11.25,3.28125 L 12,4.03125 12,10 c 0,1 -0.392136,1 -0.5,1 C 11.392136,11 11,11 11,10 L 11,6 C 11,4.7190916 10,4 9,4 L 9,2 C 9,1.4486964 8.575273,1 8,1 L 2,1 C 1.400757,1 1,1.4247267 1,2 l 0,12 8,0 0,-9 c 0,0 1,0 1,1 l 0,4 c 0,2 1.239698,2 1.5,2 0.275652,0 1.5,0 1.5,-2 L 13,3 C 13,2 12.713983,1.7907839 12.375,1.46875 L 10.78125,0 z M 2,3 8,3 8,6 2,6 2,3 z"
     id="fuel" />
</svg>
