<?xml version="1.0" encoding="UTF-8" standalone="no"?>
<!-- Created with Inkscape (http://www.inkscape.org/) -->

<svg
   xmlns:dc="http://purl.org/dc/elements/1.1/"
   xmlns:cc="http://creativecommons.org/ns#"
   xmlns:rdf="http://www.w3.org/1999/02/22-rdf-syntax-ns#"
   xmlns:svg="http://www.w3.org/2000/svg"
   xmlns="http://www.w3.org/2000/svg"
   version="1.1"
   width="14"
   height="14"
   viewBox="0 0 14 14"
   id="svg2">
  <defs
     id="defs3053" />
  <metadata
     id="metadata8">
    <rdf:RDF>
      <cc:Work
         rdf:about="">
        <dc:format>image/svg+xml</dc:format>
        <dc:type
           rdf:resource="http://purl.org/dc/dcmitype/StillImage" />
        <dc:title></dc:title>
      </cc:Work>
    </rdf:RDF>
  </metadata>
  <rect
     width="14"
     height="14"
     x="0"
     y="0"
     id="canvas"
     style="fill:none;stroke:none;visibility:hidden" />
  <path
     d="M 10,1 C 8.001165,0.9317471 5.5133754,2.3911196 6,6 L 6.7504188,9 3.5393635,7 3.494936,5 2.6951424,4 C 2,4 0,6.3539922 0,7.2495812 L 1.3059259,8 3,7.7035176 8,14 c 1.5857062,0 2.836405,0 4.422111,0 L 14,6 C 14,1 10.686767,1.0234505 10,1 z m 0,1.39866 C 12,2.417906 13,4 12.530988,6 L 7.5159129,6 C 7,4 7.4606365,2.39866 10,2.39866 z"
     id="garden_centre"
     style="fill:#000000;fill-opacity:1;fill-rule:evenodd;stroke:none" />
</svg>
