<?xml version="1.0" encoding="utf-8"?>
<svg version="1.0" id="Layer_1" xmlns="http://www.w3.org/2000/svg" xmlns:xlink="http://www.w3.org/1999/xlink" x="0px" y="0px" width="14px" height="14px" viewBox="0 0 14 14">
	<path d="M10,3H4.827C4.522,3.721,3.589,4.25,2.471,4.25C1.106,4.25,0,3.466,0,2.5s1.106-1.75,2.471-1.75 c1.118,0,2.051,0.529,2.355,1.25H10V3z M1,8.402V12c0,1.104,0.896,2,2,2h4c1.104,0,2-0.896,2-2V8.402H1z M10,8V7H7 c0-0.551-0.447-1-1-1H4C3.447,6,3,6.449,3,7H0v1H10z M12,14v-3h1.5c0-4.021-0.5-8-2.5-10v13H12z"/>
</svg>
