<?xml version="1.0" encoding="UTF-8" standalone="no"?>
<svg
   xmlns:dc="http://purl.org/dc/elements/1.1/"
   xmlns:cc="http://creativecommons.org/ns#"
   xmlns:rdf="http://www.w3.org/1999/02/22-rdf-syntax-ns#"
   xmlns:svg="http://www.w3.org/2000/svg"
   xmlns="http://www.w3.org/2000/svg"
   viewBox="0 0 14 14"
   height="14"
   width="14"
   id="svg109"
   version="1.1">
  <metadata
     id="metadata115">
    <rdf:RDF>
      <cc:Work
         rdf:about="">
        <dc:format>image/svg+xml</dc:format>
        <dc:type
           rdf:resource="http://purl.org/dc/dcmitype/StillImage" />
        <dc:title></dc:title>
      </cc:Work>
    </rdf:RDF>
  </metadata>
  <defs
     id="defs113" />
  <path
     id="rect4498-1"
     d="M 1.3066406 0 L 0 4.8125 L 2.8613281 4.8125 L 2.8613281 12.878906 L 1.515625 12.878906 L 1.515625 14 L 5.3300781 14 L 5.3300781 12.878906 L 3.984375 12.878906 L 3.984375 4.8125 L 6.8457031 4.8125 L 5.5273438 0 L 1.3066406 0 z M 11.246094 0.54296875 A 1.1890712 1.1890712 0 0 0 10.105469 1.4023438 A 1.1890712 1.1890712 0 0 0 9.8222656 1.3671875 A 1.1890712 1.1890712 0 0 0 8.6328125 2.5566406 A 1.1890712 1.1890712 0 0 0 9.1152344 3.5097656 A 1.1890712 1.1890712 0 0 0 8.6328125 4.4648438 A 1.1890712 1.1890712 0 0 0 9.8222656 5.6542969 A 1.1890712 1.1890712 0 0 0 10.121094 5.6152344 A 1.1890712 1.1890712 0 0 0 10.837891 6.3554688 L 10.837891 8.65625 L 8.5429688 8.65625 L 9.5957031 14 L 12.958984 14 L 14 8.65625 L 11.650391 8.65625 L 11.650391 6.3574219 A 1.1890712 1.1890712 0 0 0 12.408203 5.4941406 A 1.1890712 1.1890712 0 0 0 12.810547 5.5683594 A 1.1890712 1.1890712 0 0 0 14 4.3789062 A 1.1890712 1.1890712 0 0 0 13.625 3.515625 A 1.1890712 1.1890712 0 0 0 14 2.6503906 A 1.1890712 1.1890712 0 0 0 12.810547 1.4609375 A 1.1890712 1.1890712 0 0 0 12.417969 1.53125 A 1.1890712 1.1890712 0 0 0 11.246094 0.54296875 z M 11.316406 2.6015625 A 0.88447553 0.88447553 0 0 1 12.201172 3.4863281 A 0.88447553 0.88447553 0 0 1 11.316406 4.3710938 A 0.88447553 0.88447553 0 0 1 10.431641 3.4863281 A 0.88447553 0.88447553 0 0 1 11.316406 2.6015625 z "
     style="opacity:1;fill:#000000;fill-opacity:1;fill-rule:evenodd;stroke:none;stroke-width:4.45387936;stroke-linecap:square;stroke-linejoin:miter;stroke-miterlimit:4;stroke-dasharray:none;stroke-opacity:1;paint-order:stroke fill markers" />
</svg>
