<?xml version="1.0" encoding="UTF-8" standalone="no"?>
<svg
   xmlns:osb="http://www.openswatchbook.org/uri/2009/osb"
   xmlns:dc="http://purl.org/dc/elements/1.1/"
   xmlns:cc="http://creativecommons.org/ns#"
   xmlns:rdf="http://www.w3.org/1999/02/22-rdf-syntax-ns#"
   xmlns:svg="http://www.w3.org/2000/svg"
   xmlns="http://www.w3.org/2000/svg"
   viewBox="0 0 14 14"
   height="14"
   width="14"
   id="svg109"
   version="1.1">
  <metadata
     id="metadata115">
    <rdf:RDF>
      <cc:Work
         rdf:about="">
        <dc:format>image/svg+xml</dc:format>
        <dc:type
           rdf:resource="http://purl.org/dc/dcmitype/StillImage" />
        <dc:title></dc:title>
      </cc:Work>
    </rdf:RDF>
  </metadata>
  <defs
     id="defs113">
  </defs>
     <g
     id="text824"
     style="stroke-width:0.37549618"
     transform="scale(1.0078887,0.99217305)"
     aria-label="@">
    <path
       id="path822"
       style="stroke-width:0.37549618"
       d="m 7.700604,9.7540996 q -0.4767041,0.5500434 -1.0707508,0.8874034 -0.5867127,0.330026 -1.1807593,0.330026 -0.652718,0 -1.2687663,-0.381364 Q 3.5642792,10.208802 3.175582,9.4167398 2.7942187,8.6246776 2.7942187,7.6786033 q 0,-1.1660916 0.5940467,-2.3321831 Q 3.9896459,4.1729947 4.8770489,3.586282 5.764452,2.9995693 6.6005176,2.9995693 q 0.6380501,0 1.2174289,0.3373598 0.5793788,0.3300259 0.9974117,1.0120794 L 9.0647111,3.2122526 H 10.377481 L 9.3213979,8.1333057 Q 9.1013806,9.160053 9.1013806,9.2700616 q 0,0.1980155 0.1466782,0.3446937 0.1540121,0.1393443 0.3666955,0.1393443 0.3886967,0 1.0194137,-0.4473685 0.836065,-0.5867127 1.320103,-1.5694565 0.491372,-0.9900778 0.491372,-2.0388268 0,-1.2247628 -0.630716,-2.2881796 Q 11.191545,2.3468513 9.9447802,1.7088012 8.7053495,1.0707511 7.2018982,1.0707511 q -1.7161348,0 -3.1389132,0.8067301 -1.4154444,0.7993961 -2.2001727,2.3028474 -0.7773944,1.4961175 -0.7773944,3.2122522 0,1.7968078 0.7773944,3.0949102 0.7847283,1.298101 2.258844,1.91415 1.4814497,0.623382 3.2782574,0.623382 1.9214842,0 3.2195863,-0.645384 1.298102,-0.645384 1.943486,-1.569456 h 1.327437 q -0.374029,0.77006 -1.283434,1.569456 -0.909405,0.799396 -2.163503,1.261432 -1.2540985,0.469371 -3.0215706,0.469371 -1.6281278,0 -3.0069027,-0.418033 Q 3.0435717,13.274376 2.0754956,12.430976 1.1074196,11.594911 0.61604772,10.502158 -6.4540654e-7,9.1160495 -6.4540654e-7,7.5099234 -6.4540654e-7,5.7204496 0.73339027,4.0996556 1.6281272,2.1121662 3.2709228,1.0560833 4.9210524,4.0885061e-7 7.2679033,4.0885061e-7 q 1.8188095,0 3.2635897,0.74805873114939 1.452114,0.74072486 2.28818,2.21484056 0.711389,1.2687663 0.711389,2.7575499 0,2.1268336 -1.496118,3.7769632 -1.334771,1.4814492 -2.9188956,1.4814492 -0.5060397,0 -0.8213978,-0.154012 Q 7.9866264,10.670838 7.8399482,10.384816 7.7446074,10.201468 7.700604,9.7540996 Z M 4.1509919,7.7666102 q 0,1.0047456 0.4767041,1.5621227 0.4767041,0.5573771 1.0927525,0.5573771 0.4106989,0 0.8654013,-0.242019 Q 7.0405521,9.394738 7.4512511,8.9107 7.8692839,8.426662 8.1333046,7.6859372 8.3973253,6.9378785 8.3973253,6.1898197 q 0,-0.9974116 -0.4987058,-1.5474548 -0.4913719,-0.5500432 -1.2027611,-0.5500432 -0.4693702,0 -0.887403,0.242019 Q 5.3977565,4.5690258 5.0090593,5.0970673 4.6203621,5.6251087 4.385677,6.3805014 4.1509919,7.135894 4.1509919,7.7666102 Z" />
  </g>
</svg>
