<?xml version="1.0" encoding="UTF-8" standalone="no"?>
<svg
   xmlns:dc="http://purl.org/dc/elements/1.1/"
   xmlns:cc="http://creativecommons.org/ns#"
   xmlns:rdf="http://www.w3.org/1999/02/22-rdf-syntax-ns#"
   xmlns:svg="http://www.w3.org/2000/svg"
   xmlns="http://www.w3.org/2000/svg"
   id="svg2"
   viewBox="0 0 14 14"
   height="14"
   width="14"
   version="1.1">
  <defs
     id="defs3053" />
  <metadata
     id="metadata8">
    <rdf:RDF>
      <cc:Work
         rdf:about="">
        <dc:format>image/svg+xml</dc:format>
        <dc:type
           rdf:resource="http://purl.org/dc/dcmitype/StillImage" />
        <dc:title></dc:title>
      </cc:Work>
    </rdf:RDF>
  </metadata>
  <rect
     style="fill:none;stroke:none;visibility:hidden"
     id="canvas"
     y="0"
     x="0"
     height="14"
     width="14" />
  <path
     style="fill:#000000;fill-opacity:1;fill-rule:evenodd;stroke:none"
     id="path3051"
     d="M 9.5,8.5 C 9.5,9.8807119 8.380712,11 7,11 5.619509,11 4.500312,9.8810564 4.5,8.5005654 M 1,0 1,14 13,14 13,0 1,0 Z M 3,1 8,1 8,3 3,3 3,1 Z m 7,0 2,0 0,2 -2,0 0,-2 z M 7,5 c 1.60466,0 3.01542,1.0999131 3.40625,2.65625 L 10.5,8.5 C 10.5,10.432997 8.932997,12 7,12 5.067003,12 3.5,10.432997 3.5,8.5 3.5,6.5670034 5.067003,5 7,5 Z" />
</svg>
