<?xml version="1.0" encoding="UTF-8" standalone="no"?>
<svg
   xmlns:dc="http://purl.org/dc/elements/1.1/"
   xmlns:cc="http://creativecommons.org/ns#"
   xmlns:rdf="http://www.w3.org/1999/02/22-rdf-syntax-ns#"
   xmlns:svg="http://www.w3.org/2000/svg"
   xmlns="http://www.w3.org/2000/svg"
   version="1.1"
   width="14"
   height="14"
   viewBox="0 0 14 14"
   id="svg2">
  <metadata
     id="metadata8">
    <rdf:RDF>
      <cc:Work
         rdf:about="">
        <dc:format>image/svg+xml</dc:format>
        <dc:type
           rdf:resource="http://purl.org/dc/dcmitype/StillImage" />
        <dc:title></dc:title>
      </cc:Work>
    </rdf:RDF>
  </metadata>
  <defs
     id="defs6" />
  <rect
     style="visibility:hidden;fill:none;stroke:none"
     id="canvas"
     y="0"
     x="0"
     height="14"
     width="14" />
  <path
     d="M 2.5917969,0.8769531 C 2.39328,0.8849528 2.1958998,0.9246486 2,1 L 2,9 C 2,9 5.1875,8.875 6,12 L 6,3.5996094 C 5.38001,2.2940108 3.9814151,0.8209552 2.5917969,0.8769531 Z M 6,12 C 3.9375,10.40625 1,10 1,10 L 1,2.4003906 0,2 l 0,9 6,2 2,0 6,-2 0,-9 -1,0.4003906 0,8.0000004 L 8,12 C 7.333333,11.74532 6.556181,11.790637 6,12 Z M 12,1 C 10.00748,0.8934496 7.7073046,2.0896818 6.5,3.1191406 l 0,8.4648434 C 7.6147712,10.659345 9.613583,9.442711 12,9.199219 Z"
     id="path4176" />
</svg>
