<?xml version="1.0" encoding="UTF-8" standalone="no"?>
<svg
   xmlns:dc="http://purl.org/dc/elements/1.1/"
   xmlns:cc="http://creativecommons.org/ns#"
   xmlns:rdf="http://www.w3.org/1999/02/22-rdf-syntax-ns#"
   xmlns:svg="http://www.w3.org/2000/svg"
   xmlns="http://www.w3.org/2000/svg"
   id="svg2"
   viewBox="0 0 14 14"
   height="14"
   width="14"
   version="1.1">
  <defs
     id="defs3053" />
  <metadata
     id="metadata8">
    <rdf:RDF>
      <cc:Work
         rdf:about="">
        <dc:format>image/svg+xml</dc:format>
        <dc:type
           rdf:resource="http://purl.org/dc/dcmitype/StillImage" />
        <dc:title></dc:title>
      </cc:Work>
    </rdf:RDF>
  </metadata>
  <path
     id="rect823"
     d="M 5.5449219 1 A 1.5 1.5 0 0 0 4.0449219 2.5 A 1.5 1.5 0 0 0 5.5449219 4 A 1.5 1.5 0 0 0 7.0449219 2.5 A 1.5 1.5 0 0 0 5.5449219 1 z M 4.3300781 4.5097656 C 3.9406791 4.5609641 3.5894805 4.8289578 3.4570312 5.2148438 L 2.1582031 9 L 4.2265625 9 L 5.1738281 6.2421875 L 6.1914062 7.2890625 C 6.2070166 7.3051225 6.2270579 7.3126522 6.2441406 7.3261719 C 6.261156 7.3411298 6.2816192 7.3506327 6.3007812 7.3632812 C 6.330583 7.3808944 6.3585151 7.399261 6.390625 7.4101562 C 6.4071604 7.416766 6.4199583 7.4286562 6.4375 7.4335938 L 8.3613281 7.9746094 C 8.6279666 8.0496622 8.9034628 7.8955447 8.9785156 7.6289062 C 9.0535685 7.3622678 8.899451 7.0887247 8.6328125 7.0136719 L 6.8242188 6.5039062 L 5.1660156 4.7988281 C 5.154409 4.7868872 5.1393915 4.7820212 5.1269531 4.7714844 C 5.0172038 4.665986 4.8878893 4.5779543 4.7246094 4.5351562 C 4.5930588 4.5006749 4.4598778 4.4926995 4.3300781 4.5097656 z M 11.5 8 A 1.5 1.5 0 0 0 10 9.5 A 1.5 1.5 0 0 0 11.5 11 A 1.5 1.5 0 0 0 13 9.5 A 1.5 1.5 0 0 0 11.5 8 z M 1 10 C 0.446 10 0 10.446 0 11 C 0 11.554 0.446 12 1 12 L 5.5390625 12 L 7 12 L 9.1953125 12 L 11.253906 12.949219 C 11.320888 12.980138 11.391036 12.992352 11.458984 12.992188 C 11.473179 12.993388 11.485484 13 11.5 13 L 13.5 13 C 13.777 13 14 12.777 14 12.5 C 14 12.223 13.777 12 13.5 12 L 11.560547 12 L 7.34375 10.052734 C 7.2612144 10.014635 7.1762784 10.011013 7.09375 10.019531 C 7.0613102 10.016383 7.0332933 10 7 10 L 3.8828125 10 L 1.8144531 10 L 1 10 z "
     style="fill:#000000;fill-opacity:1;stroke:none;stroke-width:0.7492063" />
</svg>
