<?xml version="1.0" encoding="UTF-8" standalone="no"?>
<svg
   xmlns:dc="http://purl.org/dc/elements/1.1/"
   xmlns:cc="http://creativecommons.org/ns#"
   xmlns:rdf="http://www.w3.org/1999/02/22-rdf-syntax-ns#"
   xmlns:svg="http://www.w3.org/2000/svg"
   xmlns="http://www.w3.org/2000/svg"
   viewBox="0 0 14 14"
   height="14"
   width="14"
   id="shop_medical_supply"
   version="1.1">
  <metadata
     id="metadata115">
    <rdf:RDF>
      <cc:Work
         rdf:about="">
        <dc:format>image/svg+xml</dc:format>
        <dc:type
           rdf:resource="http://purl.org/dc/dcmitype/StillImage" />
        <dc:title></dc:title>
      </cc:Work>
    </rdf:RDF>
  </metadata>
  <defs
     id="defs113" />
  <g
     transform="matrix(1.0805234,0,0,1.0748495,-2.1819305,-2.0510847)"
     id="g4256"
     style="stroke-width:4;stroke-linecap:round;stroke-linejoin:round">
    <path
       id="path4143"
       d="m 14.808876,1.9082531 -3.095184,0.2253401 v 0.00638 l -0.0085,-0.00213 -0.491838,4.09226 H 6.2907611 V 7.5481316 H 8.4531496 A 3.9171877,3.9171874 0 0 0 6.6299593,9.5783177 H 3.9100138 v 0.048895 L 3.3376169,11.53835 a 1.7277328,1.7277327 0 0 0 -1.2741132,1.666666 1.7277328,1.7277327 0 0 0 1.7277908,1.728316 1.7277328,1.7277327 0 0 0 1.7277908,-1.728316 1.7277328,1.7277327 0 0 0 -0.8585954,-1.490219 l 0.1123593,-0.378402 h 1.5942315 a 3.9171877,3.9171874 0 0 0 3.9028993,3.596937 3.9171877,3.9171874 0 0 0 3.917739,-3.91794 3.9171877,3.9171874 0 0 0 -1.418273,-3.0123287 L 13.331244,3.3368239 14.931835,3.2199021 Z M 10.29542,8.6429439 A 2.4271961,2.4339061 0 0 1 12.722807,11.077041 2.4271961,2.4339061 0 0 1 10.29542,13.511139 2.4271961,2.4339061 0 0 1 7.8680327,11.077041 2.4271961,2.4339061 0 0 1 10.29542,8.6429439 Z"
       style="opacity:1;fill:#000000;fill-opacity:1;stroke:none;stroke-width:9.59307671;stroke-miterlimit:4;stroke-dasharray:none" />
  </g>
</svg>

