<svg xmlns:dc="http://purl.org/dc/elements/1.1/" xmlns:cc="http://creativecommons.org/ns#" xmlns:rdf="http://www.w3.org/1999/02/22-rdf-syntax-ns#" xmlns:svg="http://www.w3.org/2000/svg" xmlns="http://www.w3.org/2000/svg" version="1.1" width="14" height="14" viewBox="0 0 14 14" id="svg2">
  <metadata id="metadata8">
    <rdf:RDF>
      <cc:Work rdf:about="">
        <dc:format>image/svg+xml</dc:format>
        <dc:type rdf:resource="http://purl.org/dc/dcmitype/StillImage"/>
        <dc:title/>
      </cc:Work>
    </rdf:RDF>
  </metadata>
  <defs id="defs6"/>
  <rect width="14" height="14" x="0" y="0" id="canvas" style="fill:none;stroke:none;visibility:hidden"/>
  <path d="M 6,0 C 5.517164,0 5,0.3876224 5,1 L 5,2 C 3.8815,2.0818 3,2.90528 3,4 l 0,8 c 0,1.1488 0.803333,2 2,2 l 4,0 c 1.196667,0 2,-0.8512 2,-2 L 11,4 C 11,2.8512 10.196667,2 9,2 L 7,2 7,1 C 7,0.3640694 6.482836,0 6,0 z m -2,4 6,0 0,7 -6,0 0,-7 z m 2,8 2,0 0,1 -2,0 0,-1 z" id="mobile-phone" />
</svg>
