<?xml version="1.0" encoding="UTF-8" standalone="no"?>
<svg
   xmlns:dc="http://purl.org/dc/elements/1.1/"
   xmlns:cc="http://creativecommons.org/ns#"
   xmlns:rdf="http://www.w3.org/1999/02/22-rdf-syntax-ns#"
   xmlns:svg="http://www.w3.org/2000/svg"
   xmlns="http://www.w3.org/2000/svg"
   version="1.1"
   width="14"
   height="14"
   viewBox="0 0 14 14"
   id="svg2">
  <metadata
     id="metadata8">
    <rdf:RDF>
      <cc:Work
         rdf:about="">
        <dc:format>image/svg+xml</dc:format>
        <dc:type
           rdf:resource="http://purl.org/dc/dcmitype/StillImage" />
        <dc:title></dc:title>
      </cc:Work>
    </rdf:RDF>
  </metadata>
  <defs
     id="defs6" />
  <rect
     style="visibility:hidden;fill:none;stroke:none"
     id="canvas"
     y="0"
     x="0"
     height="14"
     width="14" />
  <path
     id="parking-motorcycle"
     style="fill:#1a1a1a;fill-rule:evenodd"
     d="m 12.105361,8.592849 c 0.230087,0.143493 0.364242,0.301579 0.429688,0.501953 0.02151,0.06588 0.02287,0.07941 0.02344,0.214845 5.18e-4,0.124653 -9.69e-4,0.157343 -0.01758,0.226563 -0.0326,0.135857 -0.09294,0.287657 -0.164063,0.419922 l -0.03125,0.06055 -0.107422,0.0059 c -0.390788,0.02031 -0.705242,0.09063 -0.978515,0.220703 -0.586101,0.278965 -0.954254,0.803082 -1.136719,1.615234 l -0.01563,0.06445 -0.07617,0.07031 c -0.04224,0.03811 -0.09913,0.08395 -0.126953,0.101562 -0.25285,0.159974 -0.61576,0.255702 -1.1308592,0.300782 -0.231244,0.02027 -0.386206,0.02425 -1.1328129,0.03125 -0.437753,0.0041 -0.79828,0.0095 -0.800781,0.01172 -0.0024,0.0022 -0.01933,0.0039 -0.03711,0.0039 -0.03876,0 -0.03611,0.01501 -0.01367,-0.164063 0.03467,-0.276763 0.03081,-0.597928 -0.0098,-0.830078 -0.116705,-0.667751 -0.529609,-1.106155 -1.230468,-1.30664 -0.307931,-0.08809 -0.578847,-0.119854 -1.041015,-0.126954 l -0.294922,-0.0059 -0.01953,-0.01953 c -0.09851,-0.107393 -0.148973,-0.271617 -0.121093,-0.396485 0.01318,-0.05897 0.05869,-0.14436 0.09766,-0.18164 L 5,8.567429 c 1.800073,-0.0057 2.2804989,0.0029 4,0.01804 0.09552,0.02254 0.530574,0.893996 0.576069,0.966343 0.02459,0.03911 0.05871,0.125409 0.06641,0.167968 0.0031,0.01729 0.0065,0.03125 0.0078,0.03125 0.01158,0 0.172029,-0.06386 0.253906,-0.101562 0.2191,-0.10089 0.493987,-0.496233 0.632984,-0.658177 0.13236,-1.558212 -2.0367482,-5.6944352 1.568192,-0.39844 z m -0.08398,1.607423 c 0.523975,-0.03617 1.039797,0.151361 1.40625,0.511719 0.509464,0.500985 0.629257,1.249973 0.298828,1.867188 -0.274749,0.513212 -0.817804,0.859649 -1.425781,0.910156 -0.228152,0.01895 -0.501646,-0.01028 -0.716797,-0.07813 -0.532054,-0.167785 -0.946151,-0.556792 -1.11914,-1.050781 -0.159622,-0.455811 -0.09845,-0.963138 0.164062,-1.365235 0.302901,-0.463965 0.811688,-0.754832 1.392578,-0.794917 z m -7.1308591,0.0039 c 0.21405,2.09e-4 0.274639,0.0063 0.429688,0.04297 0.699153,0.165416 1.22009,0.708323 1.320312,1.375 0.01845,0.123009 0.01862,0.33875 0,0.455078 -0.08894,0.555696 -0.453095,1.016019 -0.992188,1.257813 -0.171038,0.07671 -0.385955,0.134507 -0.580078,0.154297 -0.111584,0.01137 -0.351707,0.0031 -0.46875,-0.01563 -0.751784,-0.120297 -1.321792,-0.651835 -1.455078,-1.357422 -0.02528,-0.133428 -0.02834,-0.378255 -0.0059,-0.511719 0.06045,-0.358874 0.231586,-0.670689 0.503906,-0.923828 0.264009,-0.245414 0.575625,-0.397401 0.957031,-0.462891 0.0674,-0.01168 0.125886,-0.01386 0.291016,-0.01367 z m 7.1972651,0.564453 c -0.346496,0.01551 -0.659813,0.171497 -0.871093,0.43164 -0.06588,0.08111 -0.15436,0.245759 -0.183594,0.341797 -0.118945,0.390768 -0.0035,0.795222 0.306641,1.076172 0.07855,0.07115 0.195216,0.151726 0.279296,0.191406 0.06567,0.031 0.201039,0.0752 0.28125,0.0918 0.09932,0.02069 0.325537,0.0269 0.423829,0.01172 0.472284,-0.07286 0.840454,-0.398574 0.949218,-0.835938 0.02497,-0.100427 0.03054,-0.297319 0.01172,-0.40039 -0.100713,-0.551529 -0.605424,-0.934703 -1.197267,-0.908207 z m -7.1933591,0.0039 c -0.208258,-4.04e-4 -0.359351,0.03295 -0.533203,0.117187 -0.121062,0.05866 -0.209687,0.118618 -0.304687,0.210938 -0.156024,0.151631 -0.250332,0.317708 -0.300782,0.527344 -0.02082,0.08654 -0.02455,0.291915 -0.0078,0.390625 0.04305,0.253741 0.196733,0.503047 0.408203,0.662109 0.16276,0.122423 0.348512,0.201029 0.542969,0.230469 0.09631,0.01462 0.298145,0.01471 0.384765,0 0.685663,-0.116446 1.104889,-0.74447 0.914063,-1.369141 -0.09845,-0.32227 -0.378411,-0.597567 -0.722656,-0.710937 -0.131809,-0.0434 -0.229492,-0.05828 -0.38086,-0.05859 z M 1,3.491e-4 l 0,9.9999999 2,0 0,-3.4999999 2.5,0 c 1.9760775,3e-7 3.5,-1 3.5,-3.25 0,-2.25 -1.5131511,-3.2499998 -3.03125,-3.25 z m 2,2 2.5,0 c 0.9635709,0 1.5,0.5254308 1.5,1.25 0,0.7245692 -0.6317798,1.25 -1.5,1.25 l -2.5,0 z" />
</svg>
