<?xml version="1.0" encoding="UTF-8" standalone="no"?>
<svg
   xmlns:dc="http://purl.org/dc/elements/1.1/"
   xmlns:cc="http://creativecommons.org/ns#"
   xmlns:rdf="http://www.w3.org/1999/02/22-rdf-syntax-ns#"
   xmlns:svg="http://www.w3.org/2000/svg"
   xmlns="http://www.w3.org/2000/svg"
   xml:space="preserve"
   enable-background="new 0 0 580 580"
   viewBox="0 0 14 14"
   height="14"
   width="14"
   y="0px"
   x="0px"
   id="svg2"
   version="1.1"><metadata
     id="metadata13"><rdf:RDF><cc:Work
         rdf:about=""><dc:format>image/svg+xml</dc:format><dc:type
           rdf:resource="http://purl.org/dc/dcmitype/StillImage" /><dc:title></dc:title></cc:Work></rdf:RDF></metadata><defs
     id="defs11" />
  <rect
     width="14"
     height="14"
     x="0"
     y="0"
     id="canvas"
     style="fill:none;stroke:none;visibility:hidden" />
  <path
     d="m 11,6 c 1,0 2,1 2,2 l 0,2 c 0.0034,0.946601 -1,2 -2,2 L 6,12 C 5,12 4,11 4,10 L 4,8 C 4,7 5,6 6,6 L 7,6 C 5,7 5,7 5,9 5,9.558061 5.5149841,9.961494 6,10 l 5,0 c 0.605412,0 1,-0.441939 1,-1 0,-2 0,-2 -2,-3.0047349 z M 7,3 7,4.9882812 5,5 5,6 7,6 7,8 8,8 8,6 l 1,0 0,2 1,0 0,-2 3,0 c 0,1 1,1 1,1 l 0,-3 c 0,0 -1,4.76e-4 -1,0.953125 L 10,4.9707031 10,3 9,3 9,4.9765625 8,4.9824219 8,3 7,3 Z M 0,10 0,1 C 3,1 3,5 5,5 L 5,6 C 3,6 3,10 0,10 Z"
     style="fill:#000000;fill-opacity:1;fill-rule:evenodd;stroke:none;stroke-opacity:1"
     id="path3389" />
</svg>
