<?xml version="1.0" encoding="UTF-8" standalone="no"?>
<svg
   xmlns:dc="http://purl.org/dc/elements/1.1/"
   xmlns:cc="http://creativecommons.org/ns#"
   xmlns:rdf="http://www.w3.org/1999/02/22-rdf-syntax-ns#"
   xmlns:svg="http://www.w3.org/2000/svg"
   xmlns="http://www.w3.org/2000/svg"
   id="shop_music"
   viewBox="0 0 14 14"
   height="14"
   width="14"
   version="1.1">
  <metadata
     id="metadata8">
    <rdf:RDF>
      <cc:Work
         rdf:about="">
        <dc:format>image/svg+xml</dc:format>
        <dc:type
           rdf:resource="http://purl.org/dc/dcmitype/StillImage" />
        <dc:title></dc:title>
      </cc:Work>
    </rdf:RDF>
  </metadata>
  <defs
     id="defs6">
    <clipPath
       id="clipPath3825"
       clipPathUnits="userSpaceOnUse">
      <rect
         y="-8.4830503"
         x="15.779661"
         height="12.51695"
         width="4.2711868"
         id="rect3827"
         style="fill:#000080" />
    </clipPath>
    <clipPath
       id="clipPath3825-7"
       clipPathUnits="userSpaceOnUse">
      <rect
         y="-8.4830503"
         x="15.779661"
         height="12.51695"
         width="4.2711868"
         id="rect3827-6"
         style="fill:#000080" />
    </clipPath>
  </defs>
  <rect
     style="fill:none;stroke:none;visibility:hidden"
     id="canvas"
     y="0"
     x="0"
     height="14"
     width="14" />
  <path
     id="path3773"
     d="M 6.0702169,0 4.1261099,0.30664062 C 4.1110424,3.5941871 4.0981627,6.8823665 4.0851608,10.169922 L 3.537223,10.130859 c -1.3286234,-0.09376 -2.73349869,0.560555 -3.35002602,1.558594 -0.22696225,0.367395 -0.25027762,0.950601 -0.0506989,1.267578 C 0.44807488,13.451881 1.1879837,13.866411 1.9928571,14 3.8437076,13.94684 5.1692552,13.299428 6.068267,11.966797 6.068267,7.9261386 6.0700268,3.5834362 6.0702169,0 Z m 0.9398793,0.01953125 a 6.9904018,6.9852977 0 0 0 -0.02145,0.0019531 V 1.0039062 A 5.9889132,6.005722 0 0 1 12.967214,7.0097656 5.9889132,6.005722 0 0 1 6.9769468,13.015625 5.9889132,6.005722 0 0 1 6.4855578,12.990234 L 5.6178269,13.845703 A 6.9904018,6.9852977 0 0 0 7.0100962,13.990234 6.9904018,6.9852977 0 0 0 14.000692,7.0058594 6.9904018,6.9852977 0 0 0 7.0100962,0.01953125 Z M 3.0263342,1.2675781 A 6.9904018,6.9852977 0 0 0 0.02145065,7.0058594 6.9904018,6.9852977 0 0 0 0.66688638,9.921875 L 1.5404671,9.5078125 A 5.9889132,6.005722 0 0 1 0.98862927,7.0097656 5.9889132,6.005722 0 0 1 3.0263342,2.5058594 Z M 6.9886466,5 v 1 a 1.0331354,1.0000075 0 0 1 0.01755,0 1.0331354,1.0000075 0 0 1 1.0334772,1 1.0331354,1.0000075 0 0 1 -1.0334772,1 1.0331354,1.0000075 0 0 1 -0.01755,-0.00195 V 9 A 1.9997346,2.0002759 0 0 0 8.9756527,7 1.9997346,2.0002759 0 0 0 6.9886466,5 Z"
     style="stroke-width:1.73347199" />
</svg>

