<?xml version="1.0" encoding="UTF-8" standalone="no"?>
<svg
   xmlns:dc="http://purl.org/dc/elements/1.1/"
   xmlns:cc="http://creativecommons.org/ns#"
   xmlns:rdf="http://www.w3.org/1999/02/22-rdf-syntax-ns#"
   xmlns:svg="http://www.w3.org/2000/svg"
   xmlns="http://www.w3.org/2000/svg"
   id="svg2"
   viewBox="0 0 14 14"
   height="14"
   width="14"
   version="1.1">
  <defs
     id="defs3053" />
  <metadata
     id="metadata8">
    <rdf:RDF>
      <cc:Work
         rdf:about="">
        <dc:format>image/svg+xml</dc:format>
        <dc:type
           rdf:resource="http://purl.org/dc/dcmitype/StillImage" />
        <dc:title></dc:title>
      </cc:Work>
    </rdf:RDF>
  </metadata>
  <rect
     style="fill:none;stroke:none;visibility:hidden"
     id="canvas"
     y="0"
     x="0"
     height="14"
     width="14" />
  <path
     id="path4166"
     d="M 5.5 1.015625 A 1.5 1.5 0 0 0 4 2.515625 A 1.5 1.5 0 0 0 5.5 4.015625 A 1.5 1.5 0 0 0 7 2.515625 A 1.5 1.5 0 0 0 5.5 1.015625 z M 10 2 L 8 3 L 11 9 L 13 8 L 10 2 z M 8 4 L 6 5 L 6.2949219 6.4707031 L 4 8 L 1 7 L 1 8 L 4 10 L 6.6464844 8.234375 L 7 10 L 10 9 L 8 4 z M 1 9 L 1 14 L 2 14 L 2 9 L 1 9 z M 10 10 L 7 11 L 5 14 L 6.8339844 14 L 8.3652344 12 L 9 14 L 11 14 L 10 10 z "
     style="fill:#000000;fill-opacity:1;fill-rule:evenodd;stroke:none;stroke-opacity:1" />
</svg>
