<?xml version="1.0" encoding="UTF-8" standalone="no"?>
<svg
   xmlns:dc="http://purl.org/dc/elements/1.1/"
   xmlns:cc="http://creativecommons.org/ns#"
   xmlns:rdf="http://www.w3.org/1999/02/22-rdf-syntax-ns#"
   xmlns:svg="http://www.w3.org/2000/svg"
   xmlns="http://www.w3.org/2000/svg"
   id="svg2"
   viewBox="0 0 14 14"
   height="14"
   width="14"
   version="1.1">
  <defs
     id="defs3053" />
  <metadata
     id="metadata8">
    <rdf:RDF>
      <cc:Work
         rdf:about="">
        <dc:format>image/svg+xml</dc:format>
        <dc:type
           rdf:resource="http://purl.org/dc/dcmitype/StillImage" />
        <dc:title></dc:title>
      </cc:Work>
    </rdf:RDF>
  </metadata>
  <rect
     width="14"
     height="14"
     x="0"
     y="0"
     id="canvas"
     style="fill:none;stroke:none;visibility:hidden" />
  <path
     id="perfumery"
     style="fill:#000000;fill-opacity:1;stroke:none"
     d="M 14,2.5 C 14,3.6605381 12.880712,4.6013401 11.5,4.6013401 10.119288,4.6013401 9,3.6605381 9,2.5 9,1.3394619 10.119288,0.39865994 11.5,0.39865994 12.880712,0.39865994 14,1.3394619 14,2.5 Z M 8,2 10,2 10,3 8,3 Z M 3,-5.0000001e-8 l 1,0 L 4,1 3,1 Z M 1,0 2,0 2,1 1,1 Z M 1,4 2,4 2,5 1,5 Z M 3,4 4,4 4,5 3,5 Z M 4,2 5,2 5,3 4,3 Z M 2,2 3,2 3,3 2,3 Z M 0,2 1,2 1,3 0,3 Z M 6,5.4221106 8,5.39866 8,2 C 8,1 8,1 7,1 6.0336003,1.0168001 6,1 6,2 Z M 5,6 C 3,6 1.46875,9 1.46875,11 1.46875,12 4,14 5,14 l 4,0 c 1,0 3.414063,-2 3.414062,-3 C 12.414062,9 11,6 9,6 Z" />
</svg>
