<?xml version="1.0" encoding="UTF-8" standalone="no"?>
<svg
   xmlns:dc="http://purl.org/dc/elements/1.1/"
   xmlns:cc="http://creativecommons.org/ns#"
   xmlns:rdf="http://www.w3.org/1999/02/22-rdf-syntax-ns#"
   xmlns:svg="http://www.w3.org/2000/svg"
   xmlns="http://www.w3.org/2000/svg"
   id="svg2"
   viewBox="0 0 14 14"
   height="14"
   width="14"
   version="1.1">
  <defs
     id="defs3053" />
  <metadata
     id="metadata8">
    <rdf:RDF>
      <cc:Work
         rdf:about="">
        <dc:format>image/svg+xml</dc:format>
        <dc:type
           rdf:resource="http://purl.org/dc/dcmitype/StillImage" />
        <dc:title></dc:title>
      </cc:Work>
    </rdf:RDF>
  </metadata>
  <rect
     width="14"
     height="14"
     x="0"
     y="0"
     id="canvas"
     style="fill:none;stroke:none;visibility:hidden" />
  <path
     d="M 1.8994152,3.9828765 C 0,4 0,4.1964912 8.78837e-4,5.9898537 L 0.015625,12.03284 C 0,14 0,14 1.9308491,14.034854 L 12.052666,13.998501 C 14,14 14,14 14.050419,11.981131 l -0.0013,-5.9842195 C 14,4 14,4 12.052028,3.9919077 Z M 8,5.015625 c 2.209139,1e-7 4,1.790861 4,4 0,2.209139 -1.790861,4 -4,4 -2.209139,0 -4,-1.790861 -4,-4 0,-2.209139 1.790861,-4 4,-4 z m -6.0163743,-3.0343384 1.0327485,-1e-7 C 4,2 4,3 4.0315789,3.4888892 L 1.0502924,3.5216379 C 1,3 1,2 1.9836257,1.9812866 Z m 8.5228073,7.0567248 c 0,1.3807116 -1.1192882,2.5000006 -2.5000002,2.5000006 -1.3807121,0 -2.5000003,-1.119288 -2.5,-2.5000006 0,-1.3807119 1.1192881,-2.5 2.5,-2.5 1.3807118,10e-8 2.5000002,1.1192882 2.5000002,2.5 z M 9.0011696,0.98245613 8.9840466,3.5867713 14.015626,3.5708513 14.032746,0.86783625 C 14,0 14,0 13.017551,0.00195099 L 10.056599,0.01423822 C 9,0 9,0 9.0011696,0.98245613 Z m 1.1029014,0.0483393 2.913507,-0.017123 0.03349,1.9859078 -2.915006,0.01592 z"
     style="fill:#000000;fill-opacity:1;stroke:none"
     id="photo" />
</svg>
