<?xml version="1.0" encoding="UTF-8" standalone="no"?>
<!-- Created with Inkscape (http://www.inkscape.org/) -->

<svg
   xmlns="http://www.w3.org/2000/svg"
   version="1.1"
   width="14"
   height="14"
   viewBox="0 0 14 14">
  <rect
     width="14"
     height="14"
     x="0"
     y="0"
     id="canvas"
     style="fill:none;stroke:none;visibility:hidden" />
  <path
     d="m 6.4996451,0 c -0.828427,0 -1.5,0.6715729 -1.5,1.5 0,0.8284271 0.671573,1.5 1.5,1.5 0.828428,0 1.5,-0.6715729 1.5,-1.5 0,-0.8284271 -0.671573,-1.5 -1.5,-1.5 z M 1.1674331,4.573171 2.4996451,7 l 3,-1 1,4 -2,2 c -0.271186,0.305085 -0.466101,0.45872 -0.5,1 0,1 1,1 1,1 l 5.9999999,0 c 0,0 1,0 1,-1 0,-1 -1,-1 -1,-1 l -2.9999999,0 1,-1 c 1,-1 0.928985,-1.472666 0.8125,-2 l -0.8125,-4 c -0.23939,-0.8934168 -0.862211,-1.3296509 -2,-1.15 l -1,0.15 -3,1.5 -1,-1.5 C 1.5584831,3.412383 0.81642814,3.918233 1.1674331,4.573171 z"
     id="place-of-worship" />
</svg>
