<?xml version="1.0" encoding="UTF-8" standalone="no"?>
<!-- Created with Inkscape (http://www.inkscape.org/) -->

<svg
   xmlns="http://www.w3.org/2000/svg"
   version="1.1"
   width="14"
   height="14"
   viewBox="0 0 14 14">
  <rect
     width="14"
     height="14"
     x="0"
     y="0"
     id="canvas"
     style="fill:none;stroke:none;visibility:hidden" />
  <path
     d="M 5,0 4,1 4,2 10,2 10,1 9,0 z M 4,3 C 3.9667,3.168726 4,3.3395259 4,3.5185186 4,4.9503556 5.61931,6 7,6 8.38069,6 10,4.9503556 10,3.5185186 10,3.3395259 10,3 10,3 z M 4,7 C 2.581094,7 2.01415,8.876578 2,10 L 2,14 3.53125,14 9,7 z M 10.5,7 5.03125,14 12,14 12,10 C 12,8.876474 11.727158,7 10.5,7 z"
     id="police" />
</svg>
