<?xml version="1.0" encoding="UTF-8" standalone="no"?>
<svg
   xmlns:dc="http://purl.org/dc/elements/1.1/"
   xmlns:cc="http://creativecommons.org/ns#"
   xmlns:rdf="http://www.w3.org/1999/02/22-rdf-syntax-ns#"
   xmlns:svg="http://www.w3.org/2000/svg"
   xmlns="http://www.w3.org/2000/svg"
   version="1.1"
   width="12"
   height="12"
   viewBox="0 0 12 12"
   id="svg2">
  <metadata
     id="metadata8">
    <rdf:RDF>
      <cc:Work
         rdf:about="">
        <dc:format>image/svg+xml</dc:format>
        <dc:type
           rdf:resource="http://purl.org/dc/dcmitype/StillImage" />
        <dc:title></dc:title>
      </cc:Work>
    </rdf:RDF>
  </metadata>
  <defs
     id="defs6" />
  <rect
     width="12"
     height="12"
     x="0"
     y="0"
     id="canvas"
     style="fill:none;stroke:none;visibility:hidden" />
  <path
     d="M 0.99999985,0 C 0.45762681,0 -2.9305082e-7,0.4576271 -1.9e-7,0.9999999 L 0,2 c 1.0627117e-7,0.559322 0.48861696,1 1,1 l 0,-2 10,0 0,2 c 0.511382,0 1,-0.4857094 1,-1 L 12,0.9999999 C 12,0.4576271 11.508475,0 11,0 Z M 7.4999865,11.987788 2,12 2,2 7.4777817,1.987813 4.4888915,6.9944615 Z M 10,12 8.9999828,11.984457 5.9888878,6.9911308 8.977778,1.984482 10,2 Z"
     id="path4258" />
</svg>
