<?xml version="1.0" encoding="UTF-8" standalone="no"?>
<svg
   xmlns:dc="http://purl.org/dc/elements/1.1/"
   xmlns:cc="http://creativecommons.org/ns#"
   xmlns:rdf="http://www.w3.org/1999/02/22-rdf-syntax-ns#"
   xmlns:svg="http://www.w3.org/2000/svg"
   xmlns="http://www.w3.org/2000/svg"
   xml:space="preserve"
   enable-background="new 0 0 580 580"
   viewBox="0 0 14 14"
   height="14"
   width="14"
   y="0px"
   x="0px"
   id="svg2"
   version="1.1"><metadata
     id="metadata13"><rdf:RDF><cc:Work
         rdf:about=""><dc:format>image/svg+xml</dc:format><dc:type
           rdf:resource="http://purl.org/dc/dcmitype/StillImage" /><dc:title></dc:title></cc:Work></rdf:RDF></metadata><defs
     id="defs11" />
  <rect
     width="14"
     height="14"
     x="0"
     y="0"
     id="canvas"
     style="fill:none;stroke:none;visibility:hidden" />
    <path
     d="M 6,3 C 3,3 0,5 0,7 0,9 3,11 6,11 8.2433092,10.977189 11,9 11,7 11,5 8,3 6,3 Z m 5,4 c 0,2 1.634385,3.274211 3,4 C 14,9 13.333333,8.3333333 13,7 13.333333,5.6666667 14,5 14,3 12.771491,3.6648531 11,5 11,7 Z M 2.9824219,5 A 1,1 0 0 1 4,5.9765625 L 4,6 A 1,1 0 0 1 3.0058594,7 1,1 0 0 1 2,6.0117188 1,1 0 0 1 2.9824219,5 Z"
     style="fill:#000000;fill-opacity:1;fill-rule:evenodd;stroke:none;stroke-width:1px;stroke-linecap:butt;stroke-linejoin:miter;stroke-opacity:1"
     id="path4139" /></svg>
