<?xml version="1.0" encoding="UTF-8" standalone="no"?>
<!-- Created with Inkscape (http://www.inkscape.org/) -->

<svg
   xmlns:dc="http://purl.org/dc/elements/1.1/"
   xmlns:cc="http://creativecommons.org/ns#"
   xmlns:rdf="http://www.w3.org/1999/02/22-rdf-syntax-ns#"
   xmlns:svg="http://www.w3.org/2000/svg"
   xmlns="http://www.w3.org/2000/svg"
   version="1.1"
   width="14"
   height="14"
   viewBox="0 0 14 14"
   id="svg2">
  <metadata
     id="metadata8">
    <rdf:RDF>
      <cc:Work
         rdf:about="">
        <dc:format>image/svg+xml</dc:format>
        <dc:type
           rdf:resource="http://purl.org/dc/dcmitype/StillImage" />
        <dc:title></dc:title>
      </cc:Work>
    </rdf:RDF>
  </metadata>
  <defs
     id="defs6" />
  <rect
     width="14"
     height="14"
     x="0"
     y="0"
     id="canvas"
     style="fill:none;stroke:none;visibility:hidden" />
  <path
     d="M 0.75,3 C 0.75,3 0,5.25 0,8.25 l 5.5,0 c 0.5,0 1.306389,1 1.3,1 l 7.2,0 C 14,6.25 11,6 10,6 L 8,6 C 7,4 5,3 5,3 L 4.75,3 C 4,4.508412 2.016472,4.508412 1,3 z M 5.5,4 C 5.776142,4 6,4.2238577 6,4.5 6,4.7761423 5.776142,5 5.5,5 5.223858,5 5,4.7761423 5,4.5 5,4.2238577 5.223858,4 5.5,4 z m 1,1 C 6.776142,5 7,5.2238577 7,5.5 7,5.7761423 6.776142,6 6.5,6 6.223858,6 6,5.7761423 6,5.5 6,5.2238577 6.223858,5 6.5,5 z M 0,9 l 0,2 5.25,0 0,-2 z m 7.3,1 c 0,0 0.7,1 1.2,1 l 5.5,0 0,-1 z"
     id="shoes" />
</svg>
