<?xml version="1.0" encoding="UTF-8" standalone="no"?>
<svg
   xmlns:dc="http://purl.org/dc/elements/1.1/"
   xmlns:cc="http://creativecommons.org/ns#"
   xmlns:rdf="http://www.w3.org/1999/02/22-rdf-syntax-ns#"
   xmlns:svg="http://www.w3.org/2000/svg"
   xmlns="http://www.w3.org/2000/svg"
   id="svg2"
   viewBox="0 0 14 14"
   height="14"
   width="14"
   version="1.1">
  <metadata
     id="metadata8">
    <rdf:RDF>
      <cc:Work
         rdf:about="">
        <dc:format>image/svg+xml</dc:format>
        <dc:type
           rdf:resource="http://purl.org/dc/dcmitype/StillImage" />
        <dc:title></dc:title>
      </cc:Work>
    </rdf:RDF>
  </metadata>
  <defs
     id="defs6" />
  <rect
     style="fill:none;stroke:none;visibility:hidden"
     id="canvas"
     y="0"
     x="0"
     height="14"
     width="14" />
  <path
     id="path5687"
     d="M 7.0078125 0.041015625 C 6.1796632 0.041015535 5.5082053 0.6932389 5.5078125 1.4980469 C 5.507095 2.3036176 6.1788781 2.9570315 7.0078125 2.9570312 C 7.8367469 2.9570315 8.50853 2.3036176 8.5078125 1.4980469 C 8.5074197 0.6932389 7.8359618 0.041015535 7.0078125 0.041015625 z M 1.5 1.5 A 0.5 0.5 0 0 0 1 2 L 1 8 C 1 9 0.99942295 9 2.1679688 10 C 2.999423 11 3 11 3 12 L 3 14 L 6 14 L 6 11 C 6 10.210871 5.5867649 10.262622 5 10 C 3.2611238 9 2 8 2 7 L 2 2 A 0.5 0.5 0 0 0 1.5 1.5 z M 12.5 1.5 A 0.5 0.5 0 0 0 12 2 L 12 7 C 12 8.0000002 10.738876 9 9 10 C 8.4132351 10.262622 8 10.210871 8 11 L 8 14 L 11 14 L 11 12 C 11 11 11.000577 11 11.832031 10 C 13.000577 9 13 9 13 8 L 13 2 A 0.5 0.5 0 0 0 12.5 1.5 z M 7 4 C 5 4 5 5 5 6 L 5 9 L 9 9 L 9 6 C 9 5 9 4 7 4 z "
     style="fill:#000000;fill-opacity:1;fill-rule:evenodd;stroke:none;stroke-opacity:1" />
</svg>
