<?xml version="1.0" encoding="UTF-8" standalone="no"?>
<svg
   xmlns:dc="http://purl.org/dc/elements/1.1/"
   xmlns:cc="http://creativecommons.org/ns#"
   xmlns:rdf="http://www.w3.org/1999/02/22-rdf-syntax-ns#"
   xmlns:svg="http://www.w3.org/2000/svg"
   xmlns="http://www.w3.org/2000/svg"
   version="1.1"
   x="0px"
   y="0px"
   width="14"
   height="14"
   viewBox="0 0 14 14"
   enable-background="new 0 0 580 580"
   xml:space="preserve"
   id="svg2"><metadata
     id="metadata21"><rdf:RDF><cc:Work
         rdf:about=""><dc:format>image/svg+xml</dc:format><dc:type
           rdf:resource="http://purl.org/dc/dcmitype/StillImage" /><dc:title></dc:title></cc:Work></rdf:RDF></metadata><defs
     id="defs19" />
  <rect
     width="14"
     height="14"
     x="0"
     y="0"
     id="canvas"
     style="fill:none;stroke:none;visibility:hidden" />
  <path
     id="path4286"
     style="fill:#000000;fill-opacity:1;fill-rule:evenodd;stroke:none;stroke-opacity:1"
     d="M 5.5433072,1.2755905 A 1.2677165,1.2598426 0 0 1 4.2755908,2.5354332 1.2677165,1.2598426 0 0 1 3.0078741,1.2755905 1.2677165,1.2598426 0 0 1 4.2755908,0.01574798 1.2677165,1.2598426 0 0 1 5.5433072,1.2755905 Z M 12.395462,9.8346468 9.714385,10.523756 c -0.1095105,0.02815 -0.3520751,0.0033 -0.4439036,-0.01932 C 9.0351441,10.4588 8.9674746,10.349486 8.8753807,10.235178 L 7.6060635,8.1436871 6.0103144,9.8565596 6.6546096,13.059105 c 0.020606,0.06867 0.030909,0.125809 0.030909,0.171443 0,0.205576 -0.06647,0.382584 -0.1994434,0.531025 -0.1329742,0.148441 -0.2915382,0.222679 -0.4757603,0.222679 -0.3477056,0 -0.562604,-0.199862 -0.6447278,-0.59955 L 4.583166,9.4969405 C 4.4910718,9.0857519 4.531951,8.7831202 4.7058367,8.589009 L 6.1020763,7.0302906 4.5831331,5.0607914 3.6012359,6.1568624 C 3.4988717,6.2707992 3.3811861,6.3277863 3.2481793,6.3277863 c -0.1738526,0 -0.3425539,-0.085555 -0.5061367,-0.256627 L 1.1462927,4.2897992 C 1.0645342,4.1754915 1.0236885,4.0498678 1.023622,3.9129284 1.0236951,3.7418565 1.0773298,3.5991666 1.1847455,3.4848589 1.292095,3.3705882 1.4174577,3.3134163 1.5607009,3.3134163 c 0.1433097,0 0.2558438,0.045634 0.3376019,0.1369386 L 3.2178026,4.9238153 4.813552,3.1424923 C 4.9362227,3.0051817 5.0936519,2.8964026 5.273825,2.9365084 l 3.4739056,0.7732794 c 0.1502629,0.033448 0.2602345,0.1751076 0.3726022,0.3124179 l 0.7716399,1.3297166 c 0.1226703,0.1139369 0.1840563,0.2566264 0.1840223,0.4280696 2.5e-5,0.1599419 -0.05108,0.2969925 -0.1533463,0.4111144 -0.1021978,0.1140852 -0.2249683,0.1711462 -0.3682778,0.1711462 -0.1532472,0 -0.286254,-0.068488 -0.3989206,-0.2054272 l -0.8959802,-1.50064 -1.45563,-0.246662 3.0196583,4.6877936 2.4604626,-0.7063978 c 0.194458,0 0.371896,0.039275 0.504903,0.1763999 0.132939,0.1370874 0.268048,0.2586702 0.268048,0.4754126 0,0.2055763 -0.08475,0.3840352 -0.217687,0.5267625 -0.132974,0.1427266 -0.264714,0.2191324 -0.443763,0.2651527 z" /></svg>
