<?xml version="1.0" encoding="UTF-8" standalone="no"?>
<svg
   xmlns:dc="http://purl.org/dc/elements/1.1/"
   xmlns:cc="http://creativecommons.org/ns#"
   xmlns:rdf="http://www.w3.org/1999/02/22-rdf-syntax-ns#"
   xmlns:svg="http://www.w3.org/2000/svg"
   xmlns="http://www.w3.org/2000/svg"
   version="1.1"
   id="svg2"
   viewBox="0 0 14 14"
   height="14"
   width="14">
  <metadata
     id="metadata30">
    <rdf:RDF>
      <cc:Work
         rdf:about="">
        <dc:format>image/svg+xml</dc:format>
        <dc:type
           rdf:resource="http://purl.org/dc/dcmitype/StillImage" />
        <dc:title></dc:title>
      </cc:Work>
    </rdf:RDF>
  </metadata>
  <defs
     id="defs28" />
  <rect
     width="14"
     height="14"
     x="0"
     y="0"
     id="canvas"
     style="fill:none;stroke:none;visibility:hidden" />
  <g
     transform="translate(0,1)"
     id="vbars">
    <rect
       id="rect5"
       height="5"
       width="0.5"
       y="2.5"
       x="3.5" />
    <rect
       id="rect7"
       height="5.5"
       width="0.5"
       y="2.5"
       x="5.5" />
    <rect
       id="rect9"
       height="6"
       width="0.5"
       y="2.5"
       x="7.5" />
    <rect
       id="rect11"
       height="6"
       width="0.5"
       y="2.5"
       x="9.5" />
  </g>
  <g
     transform="translate(0,1)"
     id="hbars">
    <rect
       id="rect14"
       height="0.5"
       width="10.5"
       y="4"
       x="1" />
    <rect
       id="rect16"
       height="0.5"
       width="10.5"
       y="6"
       x="1" />
  </g>
  <g
     transform="translate(0,1)"
     id="wheels">
    <circle
       id="circle19"
       r="1"
       cy="11.2"
       cx="9.5" />
    <circle
       id="circle21"
       r="1"
       cy="11.2"
       cx="3.5" />
  </g>
  <path
     d="m 11,10 0,2 -9.5,0 a 0.5,0.5 0 1 1 0,-1 l 8.5,0 0,-1.5 z"
     id="base" />
  <path
     d="M 11.5,3 11.768,1.75 13.25,1.2 A 0.55339859,0.55339859 0 1 1 13.6,2.25 L 12.6,2.6 12.5,3"
     id="handle" />
  <path
     style="fill-rule:evenodd"
     d="M 0,3 12.5,3 11,10 1,9 M 1.167,4 11.286,4 10.25,8.9 1.9,8.1 Z"
     id="body" />
</svg>
