<svg xmlns:dc="http://purl.org/dc/elements/1.1/" xmlns:cc="http://creativecommons.org/ns#" xmlns:rdf="http://www.w3.org/1999/02/22-rdf-syntax-ns#" xmlns:svg="http://www.w3.org/2000/svg" xmlns="http://www.w3.org/2000/svg" version="1.1" width="14" height="14" viewBox="0 0 14 14" id="svg2">
  <metadata id="metadata8">
    <rdf:RDF>
      <cc:Work rdf:about="">
        <dc:format>image/svg+xml</dc:format>
        <dc:type rdf:resource="http://purl.org/dc/dcmitype/StillImage"/>
        <dc:title/>
      </cc:Work>
    </rdf:RDF>
  </metadata>
  <defs id="defs6"/>
  <rect width="14" height="14" x="0" y="0" id="canvas" style="fill:none;stroke:none;visibility:hidden"/>
  <path d="M 5.96875,0 C 5.429431,0 5,0.4876472 5,1 L 4.96875,2 3,2 1.75,6 C 0.989697,6 0,6.4966359 0,8 l 0,4 2,0 0,1 c 0,0 0,1 1,1 1,0 1,-1 1,-1 L 4,12 10,11.96875 10,13 c 0,0 0,1 1,1 1,0 1,-1 1,-1 l 0,-1 2,0 0,-4 C 14,6.4726661 13,6 12,6 L 11,2 9,2 9,1 C 9,0.4337153 8.566285,0 8,0 L 5.96875,0 z M 6,1 8,1 8,2 6,2 6,1 z M 4,3.5 10,3.5 10.59375,6 3.3125,6 4,3.5 z M 3,8 C 3.552285,8 4,8.447715 4,9 4,9.552285 3.552285,10 3,10 2.447715,10 2,9.552285 2,9 2,8.447715 2.447715,8 3,8 z m 8,0 c 0.552285,0 1,0.447715 1,1 0,0.552285 -0.447715,1 -1,1 -0.552285,0 -1,-0.447715 -1,-1 0,-0.552285 0.447715,-1 1,-1 z" id="taxi" />
</svg>
