<?xml version="1.0" encoding="UTF-8" standalone="no"?>
<!-- Created with Inkscape (http://www.inkscape.org/) -->

<svg
   xmlns:dc="http://purl.org/dc/elements/1.1/"
   xmlns:cc="http://creativecommons.org/ns#"
   xmlns:rdf="http://www.w3.org/1999/02/22-rdf-syntax-ns#"
   xmlns:svg="http://www.w3.org/2000/svg"
   xmlns="http://www.w3.org/2000/svg"
   version="1.1"
   width="14"
   height="14"
   viewBox="0 0 14 14"
   id="svg2"
   xml:space="preserve"><metadata
     id="metadata19"><rdf:RDF><cc:Work
         rdf:about=""><dc:format>image/svg+xml</dc:format><dc:type
           rdf:resource="http://purl.org/dc/dcmitype/StillImage" /><dc:title></dc:title></cc:Work></rdf:RDF></metadata><defs
     id="defs4" />
  <rect
     width="14"
     height="14"
     x="0"
     y="0"
     id="canvas"
     style="fill:none;stroke:none;visibility:hidden" />
  <path
     d="M 3,0 3,2 C 2.303,2.367 0.5205,3.74 0.3125,4 0.1125,4.249 0.0935,6.054 0.4375,6 1.0385,5.908 3.07175,4.264 3.59375,4.625 4.11475,4.985 3.965,6.677 4,8 3.2885823,8.9155412 3.0486761,9.914732 2.375,10.65625 2.043673,10.355285 1.6921391,10.067139 1.3125,9.6875 1.2346732,9.5966801 0.85929648,9.3748654 0.50753769,9.6954041 0.28592558,10 0.25660799,10.372075 0.5233459,10.617358 c 2.0149553,2.014955 3.9296858,3.077784 6.7580611,3.077784 2.729723,0 4.081027,-1.080817 6.101445,-3.101235 0.218707,-0.148136 0.296182,-0.735221 0.109401,-0.9220058 C 13.305464,9.4851165 12.835636,9.468793 12.6875,9.6875 12.338186,10.036814 12.031335,10.310916 11.71875,10.59375 10.780615,9.3277043 10.903153,9.005972 10,6 12.132286,5.4529673 12.593498,7.7107513 14,8.3433836 L 14,6 C 14,5 11.703,5.0285 10,5.4375 9.6716918,5 9,4 6.6331658,4.4216918 6.3366834,3 5.8442211,2.6482412 4.5159129,2 z m 2,8 c 1,0.6651977 3.3048576,0.6097152 4,0 0.8391024,0.541273 1.548615,2.063392 2.03125,3.1875 C 9.85044,12.114113 8.7360922,12.5625 7,12.5625 5.2862369,12.5625 4.2140649,12.170774 3.125,11.34375 3.9438812,10.07268 4.0659871,9.8680258 5,8 z"
     id="path2529"
     style="fill:#000000;stroke:none" /></svg>
