<?xml version="1.0" encoding="UTF-8" standalone="no"?>
<!-- Created with Inkscape (http://www.inkscape.org/) -->

<svg
   xmlns:dc="http://purl.org/dc/elements/1.1/"
   xmlns:cc="http://creativecommons.org/ns#"
   xmlns:rdf="http://www.w3.org/1999/02/22-rdf-syntax-ns#"
   xmlns:svg="http://www.w3.org/2000/svg"
   xmlns="http://www.w3.org/2000/svg"
   version="1.1"
   width="14"
   height="14"
   viewBox="0 0 14 14"
   id="svg2">
  <defs
     id="defs3053" />
  <metadata
     id="metadata8">
    <rdf:RDF>
      <cc:Work
         rdf:about="">
        <dc:format>image/svg+xml</dc:format>
        <dc:type
           rdf:resource="http://purl.org/dc/dcmitype/StillImage" />
        <dc:title></dc:title>
      </cc:Work>
    </rdf:RDF>
  </metadata>
  <rect
     width="14"
     height="14"
     x="0"
     y="0"
     id="canvas"
     style="fill:none;stroke:none;visibility:hidden" />
  <path
     d="M 0,9 C 0,8 0,8 1,8 c 2.3333333,0 4.6666667,0 7,0 1,0 1,0 1,1 0,1.333333 0,2.666667 0,4 0,1 0,1 -1,1 C 5.6666667,14 3.3333333,14 1,14 0,14 0,14 0,13 0,11.666667 0,10.333333 0,9 z M 13,4.03125 13,7 l 1,0 0,-2.96875 -1,0 z M 11.21875,3.6875 9.59375,6.15625 10.40625,6.6875 12.0625,4.25 11.21875,3.6875 z M 9.9375,2.03125 7.125,3.1875 7.5,4.09375 10.3125,2.96875 9.9375,2.03125 z M 7,-0.03125 l 0,1 L 10.09375,1 l 0,-1 L 7,-0.03125 z M 3,8 3,6.2964824 l 3,0 L 6,8 7,8 7,6 C 7,5 7,5 6,5 5,5 4,5 3,5 2,5 2,5 2,6 L 2,8 z M 14.726968,1.4871188 c 0,1.1045695 -0.89543,2 -2,2 -1.104569,0 -2,-0.8954305 -2,-2 0,-1.10456946 0.895431,-1.99999996 2,-1.99999996 0.916949,0 1.716441,0.62354577 1.939772,1.51288116"
     id="path2996"
     style="fill:#000000;fill-opacity:1;fill-rule:evenodd;stroke:none" />
</svg>
