<?xml version="1.0" encoding="UTF-8" standalone="no"?>
<svg
   xmlns:dc="http://purl.org/dc/elements/1.1/"
   xmlns:cc="http://creativecommons.org/ns#"
   xmlns:rdf="http://www.w3.org/1999/02/22-rdf-syntax-ns#"
   xmlns:svg="http://www.w3.org/2000/svg"
   xmlns="http://www.w3.org/2000/svg"
   viewBox="0 0 13.125 13.125"
   version="1.1"
   width="14"
   height="14"
   id="svg2">
  <metadata
     id="metadata8">
    <rdf:RDF>
      <cc:Work
         rdf:about="">
        <dc:format>image/svg+xml</dc:format>
        <dc:type
           rdf:resource="http://purl.org/dc/dcmitype/StillImage" />
        <dc:title></dc:title>
      </cc:Work>
    </rdf:RDF>
  </metadata>
  <defs
     id="defs6" />
  <rect
     width="14"
     height="14"
     x="-2"
     y="-0.75000012"
     id="canvas"
     style="visibility:hidden;fill:none;stroke:none" />
  <path
     style="stroke-width:1.09165764"
     id="tyres"
     d="m 8.220775,0.02510813 c 2.111266,0 3.820802,2.93328427 3.820802,6.54994617 0,3.6144777 -1.709536,6.5499457 -3.820802,6.5499457 -2.1101744,0 -3.820802,-2.935468 -3.820802,-6.5499457 0,-3.6166619 1.7106276,-6.54994617 3.820802,-6.54994617 z M 6.5832885,6.5750543 c 0,2.0741495 0.8558595,3.7400187 1.9104009,3.7400187 1.0916577,0 1.9104006,-1.6756948 1.9104006,-3.7422029 0,-2.0675996 -0.8547676,-3.7432942 -1.9104006,-3.7432942 -1.0916577,0 -1.9104009,1.6756946 -1.9104009,3.7432942 z M 8.4936894,3.3000812 c -0.3067558,0 -0.5884035,0.2532646 -0.81656,0.6659113 C 8.01336,4.6406369 8.220775,5.558721 8.220775,6.5750543 c 0,1.0916576 -0.2085067,1.9322341 -0.5458289,2.6090619 0.2303398,0.4148299 0.5108958,0.6659113 0.8187433,0.6659113 0.7543355,0 1.3645721,-1.4628215 1.3645721,-3.2749732 0,-1.8099684 -0.6113284,-3.2749731 -1.3645721,-3.2749731 z M 3.8541442,6.5750543 c 0,-3.4496383 1.4453548,-6.27703175 3.2749731,-6.54994617 V 0 H 5.4916308 v 0 c 0,0 0,0 0,0 C 3.0779756,0.02510813 1.125,2.9507508 1.125,6.5750543 1.125,10.190624 3.0779756,13.125 5.4916308,13.125 c 0,0 0,0 0,0 h 1.616745 v 0 C 5.299499,12.846627 3.8541442,10.024693 3.8541442,6.5750543 Z" />
</svg>
