<?xml version="1.0" encoding="UTF-8" standalone="no"?>
<!-- Created with Inkscape (http://www.inkscape.org/) -->

<svg
   xmlns:dc="http://purl.org/dc/elements/1.1/"
   xmlns:cc="http://creativecommons.org/ns#"
   xmlns:rdf="http://www.w3.org/1999/02/22-rdf-syntax-ns#"
   xmlns:svg="http://www.w3.org/2000/svg"
   xmlns="http://www.w3.org/2000/svg"
   version="1.1"
   width="14"
   height="14"
   viewBox="0 0 14 14"
   id="svg2">
  <metadata
     id="metadata8">
    <rdf:RDF>
      <cc:Work
         rdf:about="">
        <dc:format>image/svg+xml</dc:format>
        <dc:type
           rdf:resource="http://purl.org/dc/dcmitype/StillImage" />
        <dc:title></dc:title>
      </cc:Work>
    </rdf:RDF>
  </metadata>
  <defs
     id="defs6" />
  <rect
     width="14"
     height="14"
     x="0"
     y="0"
     id="canvas"
     style="fill:none;stroke:none;visibility:hidden" />
  <path
     d="m 4.939089,0.12499997 c -1.4191217,0 -1.6451859,1.93046953 -1.28125,2.90625003 C 3.8887816,3.6542301 4.5922019,4.2560356 5.314089,4 6.2476315,3.5384628 6.5113975,2.3550377 6.251589,1.4375 6.1256004,0.82627427 5.6379877,0.12499997 4.939089,0.12499997 z m 3.96875,0 c -0.698899,0 -1.186511,0.7012743 -1.3125,1.31250003 C 7.335531,2.3550377 7.599299,3.5384628 8.532839,4 9.254726,4.2560356 9.9581461,3.6542301 10.189089,3.03125 10.553025,2.0554695 10.326961,0.12499997 8.907839,0.12499997 z M 0.87500002,3.21875 C 0.31441965,3.7793304 0.38782815,5.3925169 1.40625,6.0625 2.0663312,6.4008798 2.7362694,5.963358 2.96875,5.4375 3.3613536,4.6906363 3.2534654,3.6290239 2.5625,3.09375 1.9011225,2.6523191 1.3930884,2.7006617 0.87500002,3.21875 z M 11.4375,3.09375 c -0.482178,0.2783854 -0.798854,1.5968863 -0.40625,2.34375 0.232481,0.5258585 0.933669,0.9633798 1.59375,0.625 1.018422,-0.6699831 1.071545,-2.272205 0.5,-2.84375 -0.531945,-0.4452677 -1.16164,-0.4286055 -1.6875,-0.125 z M 7,4.5 C 4.5147186,4.5 2.5,6.5147186 2.5,9 c 0,2.485281 2.0147186,4.5 4.5,4.5 2.485281,0 4.5,-2.014719 4.5,-4.5 C 11.5,6.5147186 9.485281,4.5 7,4.5 z M 6,6 8,6 8,8 10,8 10,9.9999998 8,10.03125 8,12 6,12 6,9.9999998 l -2,0 L 4,8 6,8 z"
     id="veterinary"
     style="fill:#1a1a1a;fill-opacity:1;stroke:none" />
</svg>
