<?xml version="1.0" encoding="UTF-8" standalone="no"?>
<svg 
	xmlns:dc="http://purl.org/dc/elements/1.1/"
	xmlns:cc="http://creativecommons.org/ns#"
	xmlns:rdf="http://www.w3.org/1999/02/22-rdf-syntax-ns#"
	xmlns="http://www.w3.org/2000/svg"
	width="14"
	height="14"
	viewBox="0 0 14 14">
	<metadata>
		<rdf:RDF>
		<cc:Work>
		<dc:format>image/svg+xml</dc:format>
		<dc:type rdf:resource="http://purl.org/dc/dcmitype/StillImage"/>
		</cc:Work>
		</rdf:RDF>
	</metadata>
	<g
	id="gamepad"
	transform="matrix(0.04738125,0,0,0.04738125,2.1112659,0.09996466)">
		<path 
			d="M 23.397 78.626C13.415 81.003 7.354 84.449-.252 92.174c-8.675 8.675-15.211 18.657-20.083 31.136-6.472 13.722-10.941 28.694-14.142 42.544-7.25 31.968-8.965 63.987-7.25 79.028 3.922 17.826 8.438 27.808 16.757 36.008 8.556 8.557 14.855 11.29 27.333 11.884 12.24.594 21.39-1.664 30.185-7.487 6.774-4.516 24.48-22.936 34.939-36.602l7.011-9.27 31.017-.237c17.113-.12 31.017 0 31.017.356 6.55 9.551 14.556 18.668 21.985 27.571 15.687 18.301 29.71 25.907 47.655 25.907 12.835 0 20.678-3.328 29.71-12.478 13.31-13.548 16.518-24.243 16.4-54.072 0-22.104-1.189-33.513-5.824-56.449-6.113-24.284-14.458-50.31-28.402-69.164-3.565-4.754-8.913-10.814-12.122-13.429-18.063-14.855-54.903-13.785-73.918 2.258-3.427 2.438-8.53 5.282-11.646 6.774-2.87 1.365-5.995 2.707-7.25 3.09-2.02 1.545-11.645 1.663-14.973.119-1.426-.713-5.05-1.662-8.319-3.328-11.49-6.615-23.418-14.628-33.75-17.35-10.458-2.615-22.936-2.734-32.68-.357zm28.403 47.06c2.496 2.377 2.733 3.565 2.733 14.023 0 7.25.352 13.675.352 13.675s6.54.586 13.434.586c9.15 0 11.29.357 14.023 2.496 1.663 1.307 2.852 2.852 2.495 3.446.648 4.196.432 7.874-2.614 10.933-2.496 2.377-4.519 1.88-15.096 2.356l-12.596.35.002 14.05c-.475 11.171-2.408 13.435-4.429 14.86-6.06 3.666-11.733 2.848-14.823-3.45-1.545-2.972-2.083-6.894-2.139-14.5l-.085-11.626s-15.977-.09-23.564-.627c-6.18-2.14-7.962-9.494-3.684-15.08 2.377-2.97 3.209-3.09 14.617-3.446l12.957-.356.393-12.056c.832-13.666.481-13.817 5.19-17.654 3.921-2.258 9.269-1.426 12.834 2.02zm129.1019 3.6492c11.629 14.544-10.0293 32.0653-22.001 18.126-12.8027-13.6629 8.5017-33.6523 22.001-18.126zm-24.6072 23.1922c12.5206 14.6822-8.0614 34.5458-21.8288 20.2435-15.1029-15.6896 8.6535-35.6936 21.8288-20.2435zm49.6962-2.3494c15.0222 14.231-5.2035 35.187-19.6464 21.0765-15.3746-15.0207 6.0864-33.9222 19.6464-21.0765zm-18.8935 36.7611c.3115 21.2189-29.1492 19.5844-29.5327-.1607-.4612-19.446 28.4407-19.313 29.5327.1607z" />
		<path
		    	d="M -16.439453,-3.375 c -0.604473,11.1486588 5.623983,19.421876 13.1542968,27.134766 7.5303139,7.712889 17.4192842,14.721799 28.4843752,20.080078 11.06509,5.358278 23.298898,9.087331 35.708984,9.228515 12.410086,0.141185 25.427482,-3.779812 34.986328,-13.722656 13.628849,-14.17635 25.680949,-14.622917 32.082029,-12.058594 3.20054,1.282162 4.99362,3.268043 5.75391,5.154297 0.74358,1.844806 0.9238,3.826824 -0.85352,7.138672 -5.87004,9.385543 -14.45411,18.528616 -22.22265,28.6875 -7.84094,10.253553 -15.241852,22.271161 -15.169925,37.197262 l 22.000005,-0.10546 c -0.0361,-7.485898 3.83955,-14.829687 10.64453,-23.728521 6.80497,-8.898833 16.13196,-18.624368 23.6289,-30.722656 l 0.14258,-0.230469 0.13086,-0.236328 c 4.67283,-8.441015 5.34045,-18.193834 2.10352,-26.224609 C 150.89783,16.186022 144.23067,10.09991 136.15625,6.8652344 120.00742,0.39588215 98.255633,5.1431978 80.033203,24.097656 75.171697,29.154459 69.153618,31.161273 61.158203,31.070312 53.162788,30.979352 43.620154,28.316471 34.787109,24.039062 25.954065,19.761654 17.82302,13.888716 12.455078,8.390625 7.0871358,2.8925345 5.539633,-2.3742286 5.5292969,-2.1835938 Z" />
	</g>
</svg>
