<svg width="213" height="34" viewBox="0 0 213 34" fill="none" xmlns="http://www.w3.org/2000/svg">
<path d="M86.5 0.549998H99.65C102.75 0.549998 105.133 0.783331 106.8 1.25C108.5 1.68333 109.7 2.4 110.4 3.4C111.1 4.36667 111.45 5.73333 111.45 7.5V11.5C111.45 12.4 111.083 13.25 110.35 14.05C109.65 14.85 108.817 15.4 107.85 15.7V15.95C109.117 16.0833 110.267 16.6333 111.3 17.6C112.367 18.5333 112.9 19.5833 112.9 20.75V25.75C112.9 28.3833 111.85 30.25 109.75 31.35C107.65 32.45 104.4 33 100 33H86.5V0.549998ZM99.65 13.75C100.883 13.75 101.8 13.65 102.4 13.45C103 13.25 103.4 12.9333 103.6 12.5C103.833 12.0333 103.95 11.3667 103.95 10.5V8.9C103.95 8.13333 103.85 7.56667 103.65 7.2C103.45 6.8 103.033 6.51667 102.4 6.35C101.8 6.18333 100.833 6.1 99.5 6.1H94.3V13.75H99.65ZM99.85 27.45C101.75 27.45 103.1 27.2333 103.9 26.8C104.7 26.3667 105.1 25.6667 105.1 24.7V22.1C105.1 20.9 104.783 20.05 104.15 19.55C103.55 19.05 102.467 18.8 100.9 18.8H94.3V27.45H99.85ZM126.838 0.549998H136.338L148.038 33H140.138L137.238 24.45H125.388L122.538 33H114.838L126.838 0.549998ZM135.538 19.25L131.438 7.05H131.238L127.138 19.25H135.538ZM165.987 33.5C164.52 33.5 163.203 33.4333 162.037 33.3C160.903 33.1667 159.653 32.9167 158.287 32.55C156.753 32.15 155.487 31.6333 154.487 31C153.487 30.3333 152.653 29.4167 151.987 28.25C151.287 27.0833 150.937 25.7 150.937 24.1V9.85C150.937 3.31666 155.953 0.049998 165.987 0.049998C168.553 0.049998 171.987 0.416665 176.287 1.15V7C172.42 6.06666 169.02 5.6 166.087 5.6C164.853 5.6 163.887 5.63333 163.187 5.7C162.52 5.76667 161.82 5.93333 161.087 6.2C159.52 6.73333 158.737 7.91666 158.737 9.75V23.55C158.737 26.4833 161.42 27.95 166.787 27.95C169.087 27.95 172.32 27.4667 176.487 26.5V32.4C172.92 33.1333 169.42 33.5 165.987 33.5ZM181.471 0.549998H189.271V33H181.471V0.549998ZM189.471 15.8L201.621 0.549998H210.771L198.471 15.65L212.121 33H202.621L189.471 15.8Z" fill="white"/>
<line x1="19" y1="15" x2="63" y2="15" stroke="white" stroke-width="8" stroke-linecap="round"/>
<path d="M-6.99382e-07 15L24.75 1.1436L24.75 28.8564L-6.99382e-07 15Z" fill="white"/>
</svg>
