<svg width="250" height="250" viewBox="0 0 250 250" fill="none" xmlns="http://www.w3.org/2000/svg">
<rect width="250" height="250" rx="10" fill="white"/>
<path d="M37.2949 201.711C37.1012 204.389 36.11 206.497 34.3213 208.035C32.5439 209.573 30.1969 210.342 27.2803 210.342C24.0902 210.342 21.578 209.271 19.7437 207.129C17.9207 204.976 17.0093 202.025 17.0093 198.276V196.755C17.0093 194.363 17.4308 192.255 18.2739 190.432C19.117 188.609 20.319 187.214 21.8799 186.245C23.4521 185.265 25.2751 184.775 27.3486 184.775C30.2197 184.775 32.5326 185.544 34.2871 187.083C36.0417 188.621 37.0557 190.78 37.3291 193.56H32.2021C32.0768 191.953 31.6268 190.791 30.8521 190.073C30.0887 189.344 28.9209 188.979 27.3486 188.979C25.6396 188.979 24.3579 189.595 23.5034 190.825C22.6603 192.044 22.2274 193.941 22.2046 196.516V198.396C22.2046 201.085 22.609 203.05 23.418 204.292C24.2383 205.534 25.5257 206.155 27.2803 206.155C28.8639 206.155 30.0431 205.796 30.8179 205.078C31.604 204.349 32.054 203.227 32.168 201.711H37.2949ZM60.9131 210H55.7861V199.336H45.7886V210H40.6616V185.117H45.7886V195.2H55.7861V185.117H60.9131V210ZM79.7632 204.873H70.7739L69.0649 210H63.6133L72.876 185.117H77.627L86.9409 210H81.4893L79.7632 204.873ZM72.1582 200.72H78.3789L75.2515 191.406L72.1582 200.72ZM94.3921 205.881H105.278V210H89.2651V185.117H94.3921V205.881ZM113.362 205.881H124.248V210H108.235V185.117H113.362V205.881ZM142.175 199.216H132.332V205.881H143.884V210H127.205V185.117H143.85V189.27H132.332V195.2H142.175V199.216ZM167.126 210H162L152.019 193.628V210H146.892V185.117H152.019L162.017 201.523V185.117H167.126V210ZM191.292 206.855C190.369 207.961 189.064 208.821 187.378 209.436C185.692 210.04 183.823 210.342 181.772 210.342C179.619 210.342 177.728 209.875 176.099 208.94C174.481 207.995 173.228 206.628 172.339 204.839C171.462 203.05 171.012 200.948 170.989 198.533V196.841C170.989 194.357 171.405 192.209 172.236 190.398C173.079 188.575 174.287 187.185 175.859 186.228C177.443 185.26 179.294 184.775 181.414 184.775C184.364 184.775 186.672 185.482 188.335 186.895C189.998 188.296 190.984 190.341 191.292 193.03H186.301C186.073 191.606 185.566 190.563 184.78 189.902C184.006 189.242 182.935 188.911 181.567 188.911C179.824 188.911 178.497 189.566 177.585 190.876C176.674 192.187 176.213 194.135 176.201 196.721V198.311C176.201 200.92 176.697 202.891 177.688 204.224C178.679 205.557 180.132 206.223 182.046 206.223C183.971 206.223 185.344 205.813 186.165 204.993V200.703H181.499V196.926H191.292V206.855ZM210.432 199.216H200.588V205.881H212.141V210H195.461V185.117H212.107V189.27H200.588V195.2H210.432V199.216ZM228.052 203.472C228.052 202.503 227.71 201.763 227.026 201.25C226.343 200.726 225.112 200.179 223.335 199.609C221.558 199.028 220.151 198.459 219.114 197.9C216.288 196.374 214.875 194.317 214.875 191.731C214.875 190.387 215.251 189.19 216.003 188.142C216.767 187.083 217.855 186.257 219.268 185.664C220.692 185.072 222.287 184.775 224.053 184.775C225.83 184.775 227.414 185.1 228.804 185.75C230.194 186.388 231.27 187.293 232.034 188.467C232.808 189.64 233.196 190.973 233.196 192.466H228.069C228.069 191.326 227.71 190.444 226.992 189.817C226.274 189.179 225.266 188.86 223.967 188.86C222.714 188.86 221.74 189.128 221.045 189.663C220.35 190.187 220.002 190.882 220.002 191.748C220.002 192.557 220.407 193.235 221.216 193.782C222.036 194.329 223.238 194.841 224.822 195.32C227.738 196.197 229.863 197.285 231.196 198.584C232.529 199.883 233.196 201.501 233.196 203.438C233.196 205.591 232.381 207.283 230.752 208.513C229.123 209.732 226.93 210.342 224.172 210.342C222.258 210.342 220.515 209.994 218.943 209.299C217.371 208.593 216.169 207.63 215.337 206.411C214.517 205.192 214.106 203.779 214.106 202.173H219.25C219.25 204.919 220.891 206.292 224.172 206.292C225.391 206.292 226.343 206.047 227.026 205.557C227.71 205.055 228.052 204.36 228.052 203.472Z" fill="black"/>
<path d="M116.01 154.44C116.01 154.44 108.49 95.93 164.98 94.3C164.98 99.46 164.98 101.89 164.98 101.89C164.98 101.89 119.25 98.0801 124.35 154.44" fill="black"/>
<path d="M164.98 81.51V113.55L180.48 97.53L164.98 81.51Z" fill="black"/>
<path d="M104 51.5H136.04L120.02 36L104 51.5Z" fill="black"/>
<path d="M124.36 49.51H115.68V154.44H124.36V49.51Z" fill="black"/>
</svg>
