<svg width="340" height="462" viewBox="0 0 340 462" fill="none" xmlns="http://www.w3.org/2000/svg">
<path d="M91.0224 191.056L79.5081 163.771H32.4523L20.938 191.056H0L54.8568 70.4285H57.79L112.46 191.056H91.0224ZM55.9802 107.953L39.0988 147.725H72.8616L55.9802 107.953Z" fill="black"/>
<path d="M287.983 335.691C287.983 340.124 286.953 344.401 284.894 348.521C282.834 352.642 279.776 356.295 275.72 359.479C271.663 362.663 266.639 365.223 260.617 367.096C254.626 369.001 247.605 369.937 239.616 369.937C234.53 369.937 229.194 369.719 223.64 369.282C218.054 368.844 212.687 368.314 207.507 367.658V251.12C211.938 250.465 216.931 249.934 222.423 249.497C227.946 249.06 233.126 248.841 237.994 248.841C245.795 248.841 252.597 249.715 258.432 251.432C264.268 253.181 269.135 255.491 273.036 258.425C276.936 261.36 279.838 264.669 281.804 268.415C283.77 272.161 284.737 276.032 284.737 280.028C284.737 286.303 283.146 291.704 279.963 296.168C276.78 300.664 271.445 304.316 263.987 307.126C272.755 309.623 278.934 313.338 282.553 318.333C286.173 323.297 287.983 329.072 287.983 335.691ZM263.8 283.4C263.8 278.436 261.958 274.347 258.276 271.131C254.594 267.947 249.04 266.355 241.551 266.355C239.055 266.355 236.59 266.48 234.156 266.667C231.722 266.854 229.475 267.166 227.416 267.479V300.445C230.349 300.757 234.343 300.945 239.429 300.945C243.767 300.945 247.449 300.476 250.538 299.571C253.627 298.666 256.123 297.417 258.089 295.825C260.024 294.264 261.459 292.422 262.395 290.299C263.331 288.208 263.8 285.897 263.8 283.4ZM266.233 333.568C266.233 328.386 264.018 324.046 259.587 320.581C255.156 317.116 248.541 315.399 239.804 315.399C237.65 315.399 235.404 315.43 233.063 315.492C230.723 315.555 228.882 315.68 227.478 315.898V351.612C229.537 351.83 231.753 352.018 234.124 352.174C236.496 352.33 239.086 352.424 241.925 352.424C250.039 352.424 256.123 350.707 260.18 347.241C264.205 343.745 266.233 339.218 266.233 333.568Z" fill="black"/>
<path d="M138.827 369.75C138.827 369.75 115.362 187.091 291.634 182.003C291.634 198.112 291.634 205.698 291.634 205.698C291.634 205.698 148.938 193.803 164.852 369.75" fill="black"/>
<path d="M291.634 142.075V242.098L340 192.086L291.634 142.075Z" fill="black"/>
<path d="M101.351 48.3884H201.329L151.34 0L101.351 48.3884Z" fill="black"/>
<path d="M164.883 42.1759H137.798V369.75H164.883V42.1759Z" fill="black"/>
<path d="M54.3889 445.579C54.3889 447.764 53.9833 449.887 53.1408 451.885C52.3295 453.883 51.1125 455.631 49.5523 457.13C47.9921 458.628 46.0886 459.815 43.8731 460.689C41.6576 461.563 39.1301 462 36.2593 462C33.1077 462 30.0497 461.5 27.0853 460.501C24.1209 459.503 21.4374 458.191 19.0347 456.599L22.2487 448.202C24.433 449.794 26.7733 451.042 29.2384 451.948C31.7035 452.853 34.1375 453.29 36.5402 453.29C37.9756 453.29 39.2237 453.103 40.2847 452.697C41.3456 452.291 42.1881 451.76 42.8746 451.136C43.5611 450.48 44.0604 449.731 44.3724 448.857C44.6844 447.983 44.8717 447.078 44.8717 446.11C44.8717 445.142 44.7469 444.299 44.4972 443.488C44.2476 442.676 43.7483 441.895 42.9994 441.115C42.2505 440.334 41.1896 439.554 39.8478 438.742C38.506 437.931 36.7274 437.088 34.5431 436.182C29.7377 434.122 26.3676 431.843 24.433 429.314C22.4983 426.786 21.4998 423.882 21.4998 420.573C21.4998 418.575 21.9054 416.64 22.6855 414.798C23.4657 412.956 24.6514 411.301 26.2116 409.897C27.7718 408.492 29.6441 407.337 31.8908 406.494C34.1375 405.651 36.6962 405.214 39.5358 405.214C42.2193 405.214 44.8093 405.588 47.2432 406.369C49.6771 407.149 51.7054 408.086 53.2968 409.179L50.3012 417.42C49.5523 416.921 48.741 416.421 47.8673 415.953C46.9935 415.485 46.0574 415.079 45.0901 414.704C44.1228 414.361 43.1554 414.08 42.1569 413.83C41.1896 413.612 40.2223 413.487 39.2861 413.487C36.3842 413.487 34.2623 414.174 32.8893 415.516C31.5163 416.858 30.8298 418.45 30.8298 420.324C30.8298 422.165 31.5787 423.726 33.0453 425.006C34.5119 426.286 36.9458 427.66 40.3471 429.158C43.0306 430.345 45.2773 431.531 47.0872 432.717C48.897 433.903 50.3324 435.121 51.3933 436.432C52.4543 437.743 53.2344 439.117 53.6712 440.584C54.1705 442.145 54.3889 443.768 54.3889 445.579Z" fill="black"/>
<path d="M86.0612 414.704V461.095H76.6999V414.704H59.2568V406.15H103.442V414.704H86.0612Z" fill="black"/>
<path d="M141.105 461.095L129.123 441.302C128.624 441.365 128.155 441.365 127.687 441.365C127.251 441.365 126.751 441.365 126.19 441.365C125.285 441.365 124.38 441.365 123.444 441.333C122.507 441.302 121.603 441.271 120.698 441.209V461.063H111.336V406.681C113.521 406.431 115.799 406.213 118.108 406.057C120.417 405.869 122.976 405.807 125.784 405.807C129.684 405.807 133.023 406.244 135.863 407.149C138.671 408.055 141.012 409.272 142.853 410.833C144.694 412.394 146.067 414.205 146.94 416.296C147.814 418.388 148.251 420.667 148.251 423.102C148.251 426.692 147.315 429.876 145.474 432.624C143.633 435.371 140.98 437.494 137.548 438.992L151.933 461.095H141.105ZM138.422 423.539C138.422 420.729 137.423 418.482 135.426 416.765C133.429 415.048 130.621 414.173 127.032 414.173C125.878 414.173 124.785 414.205 123.724 414.236C122.664 414.298 121.665 414.423 120.729 414.611V433.342C121.571 433.435 122.476 433.529 123.381 433.56C124.286 433.591 125.222 433.622 126.127 433.622C130.215 433.622 133.304 432.717 135.332 430.938C137.361 429.158 138.422 426.692 138.422 423.539Z" fill="black"/>
<path d="M158.704 461.095V406.182H192.186V414.735H168.065V429.127H189.845V437.369H168.065V452.572H192.186V461.126H158.704V461.095Z" fill="black"/>
<path d="M203.201 461.095V406.182H236.683V414.735H212.562V429.127H234.343V437.369H212.562V452.572H236.683V461.126H203.201V461.095Z" fill="black"/>
<path d="M270.384 414.704V461.095H261.023V414.704H243.58V406.15H287.765V414.704H270.384Z" fill="black"/>
</svg>
