<svg width="250" height="200" viewBox="0 0 250 200" fill="none" xmlns="http://www.w3.org/2000/svg">
<path d="M67.0202 97.9899C67.0202 97.9899 125.53 90.4699 127.16 146.96C122 146.96 119.57 146.96 119.57 146.96C119.57 146.96 123.38 101.23 67.0202 106.33" fill="black"/>
<path d="M139.95 146.96L107.91 146.96L123.93 162.46L139.95 146.96Z" fill="black"/>
<path d="M169.96 85.98L169.96 118.02L185.46 102L169.96 85.98Z" fill="black"/>
<path d="M171.95 106.34L171.95 97.66L67.0202 97.66L67.0202 106.34L171.95 106.34Z" fill="black"/>
<path d="M171.46 106.45C171.46 106.45 112.95 113.97 111.32 57.48C116.48 57.48 118.91 57.48 118.91 57.48C118.91 57.48 115.1 103.21 171.46 98.11" fill="black"/>
<path d="M98.5298 57.48L130.57 57.48L114.55 41.98L98.5298 57.48Z" fill="black"/>
<path d="M68.52 118.46L68.52 86.42L53.02 102.44L68.52 118.46Z" fill="black"/>
</svg>
