<svg width="549" height="130" viewBox="0 0 549 130" fill="none" xmlns="http://www.w3.org/2000/svg">
<rect y="10.8333" width="549" height="119.167" rx="10" fill="#2A2A2A"/>
<rect x="2" y="2" width="545" height="115.167" rx="8" fill="url(#paint0_linear)" stroke="#2A2A2A" stroke-width="4"/>
<path d="M232.66 77.0001H222.292C221.876 77.0001 221.57 76.9126 221.373 76.7376C221.198 76.5408 221.111 76.2345 221.111 75.8189V71.9802C221.111 71.5646 221.198 71.2693 221.373 71.0943C221.57 70.8974 221.876 70.799 222.292 70.799H231.118C231.402 70.799 231.61 70.7115 231.741 70.5365C231.894 70.3397 231.971 70.11 231.971 69.8475C231.971 69.4757 231.894 69.2022 231.741 69.0273C231.61 68.8523 231.402 68.7538 231.118 68.732L226.196 68.043C224.665 67.8242 223.429 67.3211 222.489 66.5337C221.57 65.7463 221.111 64.4339 221.111 62.5965V59.1514C221.111 57.2922 221.712 55.8705 222.915 54.8861C224.118 53.88 225.781 53.3769 227.902 53.3769H237.089C237.505 53.3769 237.8 53.4753 237.975 53.6722C238.172 53.8472 238.27 54.1425 238.27 54.5581V58.4624C238.27 58.878 238.172 59.1843 237.975 59.3811C237.8 59.5561 237.505 59.6436 237.089 59.6436H229.445C229.16 59.6436 228.941 59.742 228.788 59.9389C228.635 60.1139 228.559 60.3435 228.559 60.6279C228.559 60.9123 228.635 61.1529 228.788 61.3497C228.941 61.5466 229.16 61.6559 229.445 61.6778L234.333 62.334C235.864 62.5528 237.1 63.0558 238.041 63.8433C238.981 64.6307 239.452 65.9431 239.452 67.7805V71.2255C239.452 73.0848 238.839 74.5175 237.614 75.5236C236.411 76.5079 234.76 77.0001 232.66 77.0001ZM253.876 77.0001H248.56C248.145 77.0001 247.839 76.9126 247.642 76.7376C247.467 76.5408 247.379 76.2345 247.379 75.8189V59.7092H242.556C242.141 59.7092 241.834 59.6217 241.638 59.4467C241.463 59.2499 241.375 58.9437 241.375 58.5281V54.5581C241.375 54.1425 241.463 53.8472 241.638 53.6722C241.834 53.4753 242.141 53.3769 242.556 53.3769H259.88C260.296 53.3769 260.591 53.4753 260.766 53.6722C260.963 53.8472 261.061 54.1425 261.061 54.5581V58.5281C261.061 58.9437 260.963 59.2499 260.766 59.4467C260.591 59.6217 260.296 59.7092 259.88 59.7092H255.057V75.8189C255.057 76.2345 254.958 76.5408 254.762 76.7376C254.587 76.9126 254.291 77.0001 253.876 77.0001ZM271.502 60.267L269.96 65.2541H275.111L273.569 60.267C273.481 60.0701 273.383 59.928 273.273 59.8405C273.186 59.753 273.076 59.7092 272.945 59.7092H272.125C271.994 59.7092 271.873 59.753 271.764 59.8405C271.677 59.928 271.589 60.0701 271.502 60.267ZM269.631 75.8189C269.631 76.2345 269.533 76.5408 269.336 76.7376C269.161 76.9126 268.866 77.0001 268.45 77.0001H263.627C263.212 77.0001 262.905 76.9126 262.709 76.7376C262.534 76.5408 262.446 76.2345 262.446 75.8189V67.1571C262.446 66.5009 262.544 65.7463 262.741 64.8932C262.96 64.0401 263.288 63.0449 263.726 61.9075L266.58 54.4596C266.711 54.0878 266.908 53.8144 267.171 53.6394C267.455 53.4644 267.816 53.3769 268.253 53.3769H277.079C277.495 53.3769 277.834 53.4644 278.096 53.6394C278.381 53.8144 278.589 54.0878 278.72 54.4596L281.574 61.9075C282.012 63.0449 282.329 64.0401 282.526 64.8932C282.744 65.7463 282.854 66.5009 282.854 67.1571V75.8189C282.854 76.2345 282.755 76.5408 282.559 76.7376C282.384 76.9126 282.088 77.0001 281.673 77.0001H276.718C276.281 77.0001 275.953 76.9126 275.734 76.7376C275.537 76.5408 275.439 76.2345 275.439 75.8189V71.2255H269.631V75.8189ZM294.32 59.2827V63.4824H296.781C297.349 63.4824 297.732 63.3402 297.929 63.0558C298.126 62.7496 298.224 62.3778 298.224 61.9403V60.8248C298.224 60.3873 298.126 60.0264 297.929 59.742C297.732 59.4358 297.349 59.2827 296.781 59.2827H294.32ZM293.139 77.0001H288.086C287.67 77.0001 287.364 76.9126 287.167 76.7376C286.992 76.5408 286.905 76.2345 286.905 75.8189V54.5581C286.905 54.1425 286.992 53.8472 287.167 53.6722C287.364 53.4753 287.67 53.3769 288.086 53.3769H299.012C301.462 53.3769 303.146 53.8909 304.064 54.919C305.005 55.9251 305.475 57.2375 305.475 58.8562V60.3654C305.475 61.2841 305.333 62.0715 305.049 62.7277C304.786 63.3621 304.316 63.8214 303.638 64.1058C304.819 64.237 305.771 64.7182 306.492 65.5494C307.236 66.3806 307.608 67.4852 307.608 68.8632V75.8189C307.608 76.2345 307.51 76.5408 307.313 76.7376C307.138 76.9126 306.842 77.0001 306.427 77.0001H301.341C300.926 77.0001 300.619 76.9126 300.423 76.7376C300.248 76.5408 300.16 76.2345 300.16 75.8189V70.799C300.16 70.3178 300.062 69.9678 299.865 69.7491C299.69 69.5085 299.373 69.3882 298.913 69.3882H294.32V75.8189C294.32 76.2345 294.221 76.5408 294.025 76.7376C293.85 76.9126 293.554 77.0001 293.139 77.0001ZM321.45 77.0001H316.135C315.719 77.0001 315.413 76.9126 315.216 76.7376C315.041 76.5408 314.954 76.2345 314.954 75.8189V59.7092H310.131C309.715 59.7092 309.409 59.6217 309.212 59.4467C309.037 59.2499 308.95 58.9437 308.95 58.5281V54.5581C308.95 54.1425 309.037 53.8472 309.212 53.6722C309.409 53.4753 309.715 53.3769 310.131 53.3769H327.454C327.87 53.3769 328.165 53.4753 328.34 53.6722C328.537 53.8472 328.636 54.1425 328.636 54.5581V58.5281C328.636 58.9437 328.537 59.2499 328.34 59.4467C328.165 59.6217 327.87 59.7092 327.454 59.7092H322.631V75.8189C322.631 76.2345 322.533 76.5408 322.336 76.7376C322.161 76.9126 321.866 77.0001 321.45 77.0001Z" fill="black"/>
<defs>
<linearGradient id="paint0_linear" x1="124.515" y1="-51.1574" x2="178.507" y2="215.49" gradientUnits="userSpaceOnUse">
<stop offset="0.0621119" stop-color="#F4DF4D"/>
<stop offset="0.49324" stop-color="#F4DF4D"/>
<stop offset="0.543163" stop-color="#F4C622"/>
<stop offset="1" stop-color="#F4C622"/>
</linearGradient>
</defs>
</svg>
