<svg width="26" height="26" viewBox="0 0 26 26" fill="none" xmlns="http://www.w3.org/2000/svg">
<path d="M16.5292 6.44723C17.6421 6.44723 18.5526 5.53669 18.5526 4.42381C18.5526 3.31093 17.6421 2.40039 16.5292 2.40039C15.4163 2.40039 14.5058 3.31093 14.5058 4.42381C14.5058 5.53669 15.4163 6.44723 16.5292 6.44723ZM5.90627 13.0233C3.07348 13.0233 0.847717 15.2491 0.847717 18.0819C0.847717 20.9147 3.07348 23.1404 5.90627 23.1404C8.73905 23.1404 10.9648 20.9147 10.9648 18.0819C10.9648 15.2491 8.73905 13.0233 5.90627 13.0233ZM5.90627 21.6229C3.98402 21.6229 2.36528 20.0041 2.36528 18.0819C2.36528 16.1596 3.98402 14.5409 5.90627 14.5409C7.82851 14.5409 9.44725 16.1596 9.44725 18.0819C9.44725 20.0041 7.82851 21.6229 5.90627 21.6229ZM11.7742 11.5058L14.2023 9.07767L15.0117 9.88704C16.3269 11.2023 18.0468 12.0116 20.1714 12.0116V9.98821C18.6538 9.98821 17.4398 9.38119 16.5292 8.47065L14.607 6.5484C14.1011 6.14372 13.5953 5.94137 12.9882 5.94137C12.3812 5.94137 11.8754 6.14372 11.5718 6.5484L8.73905 9.38119C8.33437 9.78587 8.13203 10.2917 8.13203 10.7976C8.13203 11.4046 8.33437 11.9105 8.73905 12.214L11.9765 15.0468V20.1053H13.9999V13.8327L11.7742 11.5058ZM20.0702 13.0233C17.2374 13.0233 15.0117 15.2491 15.0117 18.0819C15.0117 20.9147 17.2374 23.1404 20.0702 23.1404C22.903 23.1404 25.1287 20.9147 25.1287 18.0819C25.1287 15.2491 22.903 13.0233 20.0702 13.0233ZM20.0702 21.6229C18.148 21.6229 16.5292 20.0041 16.5292 18.0819C16.5292 16.1596 18.148 14.5409 20.0702 14.5409C21.9925 14.5409 23.6112 16.1596 23.6112 18.0819C23.6112 20.0041 21.9925 21.6229 20.0702 21.6229Z" fill="#F2F2F2"/>
</svg>
