<svg width="25" height="26" viewBox="0 0 25 26" fill="none" xmlns="http://www.w3.org/2000/svg">
<path d="M13.8688 6.44723C14.9817 6.44723 15.8922 5.53669 15.8922 4.42381C15.8922 3.31093 14.9817 2.40039 13.8688 2.40039C12.7559 2.40039 11.8454 3.31093 11.8454 4.42381C11.8454 5.53669 12.7559 6.44723 13.8688 6.44723ZM10.1255 9.88704L7.29272 24.1521H9.41731L11.2384 16.0585L13.363 18.0819V24.1521H15.3864V16.5643L13.2618 14.5409L13.8688 11.5058C15.1841 13.0233 17.2075 14.0351 19.4332 14.0351V12.0116C17.511 12.0116 15.8922 10.9999 15.0829 9.58353L14.0712 7.96479C13.6665 7.35777 13.0595 6.95308 12.3513 6.95308C12.0478 6.95308 11.8454 7.05425 11.5419 7.05425L6.28101 9.28002V14.0351H8.30443V10.5952L10.1255 9.88704Z" fill="#F2F2F2"/>
</svg>
